<?xml version="1.0" encoding="utf-8"?>
<!-- Generator: Adobe Illustrator 15.0.0, SVG Export Plug-In . SVG Version: 6.00 Build 0)  -->
<!DOCTYPE svg PUBLIC "-//W3C//DTD SVG 1.1//EN" "http://www.w3.org/Graphics/SVG/1.1/DTD/svg11.dtd">
<svg version="1.1" id="Layer_1" xmlns="http://www.w3.org/2000/svg" xmlns:xlink="http://www.w3.org/1999/xlink" x="0px" y="0px"
	 width="898.45px" height="854.75px" viewBox="0 0 898.45 854.75" enable-background="new 0 0 898.45 854.75" xml:space="preserve">
<g id="Layer_2">
	<g>
		<g>
			
				<radialGradient id="SVGID_1_" cx="17.9536" cy="1225.6787" r="433.1005" gradientTransform="matrix(1.3823 0 0 -1.3823 555.0984 1856.3862)" gradientUnits="userSpaceOnUse">
				<stop  offset="0" style="stop-color:#6A658E"/>
				<stop  offset="1" style="stop-color:#3F3D54"/>
			</radialGradient>
			<rect x="-18.63" y="-91.74" fill="url(#SVGID_1_)" width="944.269" height="552.03"/>
		</g>
		<g>
			
				<linearGradient id="SVGID_2_" gradientUnits="userSpaceOnUse" x1="-73.5225" y1="1123.6543" x2="-73.4706" y2="1295.7534" gradientTransform="matrix(1.3823 0 0 -1.3823 555.0984 1856.3862)">
				<stop  offset="0" style="stop-color:#121218"/>
				<stop  offset="1" style="stop-color:#000000;stop-opacity:0"/>
			</linearGradient>
			<rect x="-18.63" y="-91.74" fill="url(#SVGID_2_)" width="944.269" height="552.03"/>
		</g>
		<g>
			
				<linearGradient id="SVGID_3_" gradientUnits="userSpaceOnUse" x1="-73.5044" y1="1117.0469" x2="-73.5044" y2="747.1628" gradientTransform="matrix(1.3823 0 0 -1.3823 555.0984 1856.3862)">
				<stop  offset="0" style="stop-color:#874E1F"/>
				<stop  offset="1" style="stop-color:#9C5D26"/>
			</linearGradient>
			<path fill="url(#SVGID_3_)" d="M652.981,226.47c9.119,0,18.27,0,27.439,0c0.83,0,1.66,0,2.49,0c2.529,0,5.039,0,7.529,0
				c0.83,0,1.658,0,2.488,0c11.66,0,23.32,0,34.973,0c0.83,0,1.656,0,2.486,0c37.461,0,74.92,0,112.381,0c0.83,0,1.66,0,2.49,0
				c7.51,0,15.021,0,22.529,0c0.83,0,1.66,0,2.49,0c4.15,0,8.291,0,12.439,0c0.881,0,1.73,0,2.561,0c13.461,0,26.91,0,40.359,0
				v642.51c-17.6,0-35.229,0-52.869,0c-0.83,0-1.66,0-2.49,0c-5.85-0.062-11.68-0.062-17.49,0c-0.83,0-1.66,0-2.49,0
				c-99.107,0-198.199,0-297.27,0c-0.83,0-1.66,0-2.49,0c-17.51,0-35,0-52.459,0c-0.83,0-1.66,0-2.49,0c-6.68,0-13.34,0-19.979,0
				c-0.83,0-1.682,0-2.563,0c-1.66,0-3.316,0-4.979,0c-0.83,0-1.66,0-2.49,0c-2.49,0-4.98,0-7.461,0c-0.83,0-1.66,0-2.49,0
				c-44.138,0-88.278,0-132.428,0c-0.83,0-1.66,0-2.49,0c-2.49,0-4.98,0-7.46,0c-0.88,0-1.73,0-2.56,0c-14.98,0-29.95,0-44.93,0
				c-0.83,0-1.66,0-2.49,0c-93.95,0-187.93,0-281.92,0V226.47c29.86,0,59.72,0,89.57,0c0.83,0,1.66,0,2.49,0
				c168.23,0,336.41,0,504.548,0c8.34,0,16.68,0,25.021,0c9.17,0,18.318,0,27.439,0c0.83,0,1.66,0,2.49,0c5.85,0,11.68,0,17.49,0
				C651.29,226.47,652.151,226.47,652.981,226.47z"/>
		</g>
		<g>
			
				<linearGradient id="SVGID_4_" gradientUnits="userSpaceOnUse" x1="-134.8394" y1="1449.3145" x2="-57.3718" y2="795.4711" gradientTransform="matrix(1.3823 0 0 -1.3823 555.0984 1856.3862)">
				<stop  offset="0" style="stop-color:#010101"/>
				<stop  offset="1" style="stop-color:#000000;stop-opacity:0"/>
			</linearGradient>
			<rect x="-18.63" y="226.55" fill="url(#SVGID_4_)" width="942.259" height="667.32"/>
		</g>
	</g>
</g>
<g id="Layer_3">
	<g>
		
			<linearGradient id="SVGID_5_" gradientUnits="userSpaceOnUse" x1="109.2759" y1="1019.6191" x2="219.6478" y2="1019.6191" gradientTransform="matrix(1.378 -0.1088 -0.1983 -1.371 719.579 1866.2668)">
			<stop  offset="0" style="stop-color:#000000"/>
			<stop  offset="1" style="stop-color:#000000;stop-opacity:0"/>
		</linearGradient>
		<path fill="url(#SVGID_5_)" d="M642.059,264.74l90.061-8.36c15.07,2.21,25.76,10.44,32.07,24.67l80.24,327.48l-81.211,61.31
			l-74.279,27.58c-205.561,25.83-361.73,21.25-537.43,1.391l0.13,0.181l-18.81-445.52l498.44,18.73L642.059,264.74z"/>
		<path fill="none" stroke="#000000" stroke-width="5.9" stroke-linecap="round" stroke-linejoin="round" stroke-miterlimit="3" d="
			M132.18,246.17c-5.21,0-13.62-0.44-25.23-1.31c-11.61-0.92-18.55-1.38-20.8-1.38c-21.61,0-41.1,3.32-58.47,9.95
			c-10.46,4.01-24.1,11.31-40.92,21.91c-7.1,4.42-13.57,8.27-19.42,11.54"/>
	</g>
</g>
<g id="Layer_4">
	<g>
		<g>
			<path d="M97.28,177.09c1.7-0.37,3.34-0.16,4.91,0.62c1.57,0.78,2.58,1.91,3.04,3.39c0.46,1.47,0.25,2.88-0.62,4.22
				c-0.92,1.38-2.26,2.28-4.01,2.7c-17.88,4.05-37.14,4.58-57.78,1.59c-29.17,0.05-52.92,24.08-71.26,72.09
				c-0.55,1.48-1.64,2.56-3.25,3.25c-1.61,0.69-3.29,0.81-5.05,0.35c-1.71-0.51-2.97-1.45-3.8-2.83c-0.78-1.38-0.9-2.81-0.35-4.28
				c20.92-54.83,49.07-81.42,84.46-79.76c0.28,0,0.58,0.02,0.9,0.07C63.32,181.23,80.92,180.77,97.28,177.09z"/>
		</g>
		<g>
			<path fill="none" d="M98.94,182.55c-17.19,3.87-35.71,4.35-55.57,1.45c-24.88-0.69-46.03,14.12-63.45,44.44"/>
		</g>
	</g>
	<g>
		
			<linearGradient id="SVGID_6_" gradientUnits="userSpaceOnUse" x1="-248.5762" y1="354.8145" x2="-220.4735" y2="354.8145" gradientTransform="matrix(0.1181 1.3773 1.3798 -0.0883 -360.8869 544.8495)">
			<stop  offset="0" style="stop-color:#2F2F2F"/>
			<stop  offset="0.1098" style="stop-color:#171513"/>
			<stop  offset="0.3216" style="stop-color:#171513"/>
		</linearGradient>
		<path fill="url(#SVGID_6_)" d="M78.34,171.56l0.28,4.77h4.01l0.28-3.66c0-0.32,0-0.6,0-0.83c0.09-0.09,0.14-0.18,0.14-0.28
			c0-0.05,0-0.11,0-0.21V171l8.36-0.62v0.14l0.28,5.18h3.94l0.48-4.01c0-0.32,0-0.6,0-0.83c0-0.09,0-0.18,0-0.28v-0.55l7.05-0.55
			l0.28,5.74v0.14h4.01l0.42-4.49c0-0.32,0-0.6,0-0.83c0-0.09,0-0.18,0-0.28c0-0.18,0.05-0.35,0.14-0.48v-0.14l7.53-0.62l0.42,6.08
			v0.14h3.94l0.48-4.84c0-0.32,0-0.62,0-0.9c0-0.05,0-0.12,0-0.21c0-0.18,0.05-0.3,0.14-0.35v-0.28l8.23-0.62v11.13l-58.2,3.59
			v-8.71v-1.59l6.98-0.48l0.83-0.14v0.22H78.34z M82.01,172.66l-0.28,2.97h-2.42l-0.14-2.7L82.01,172.66z M92.37,171.97l2.97-0.28
			l-0.28,3.18h-2.7l-0.14-2.9H92.37z M104.33,174.74v-3.66h0.14l2.56-0.21l-0.14,3.87H104.33z M116.49,170.11l2.97-0.21l-0.14,4.22
			h-2.56l-0.41-4.01H116.49z"/>
		<path fill="#989494" d="M116.77,174.12h-0.14l-0.69,0.48l-0.42-6.08l0.83-0.07l0.14,1.66h-0.14L116.77,174.12z M104.47,171.07
			h-0.14v3.66l-0.9,0.48l-0.28-5.74h1.17L104.47,171.07z M92.37,174.88v0.14l-0.69,0.69l-0.28-5.18h0.83l0.14,1.45h-0.14
			L92.37,174.88z M79.31,175.64h-0.14l-0.55,0.69l-0.28-4.77h0.83v1.38L79.31,175.64z"/>
		<path d="M115.94,174.6l0.69-0.48h0.14h2.56l0.14-4.22h0.9l-0.48,4.84h-3.94v-0.14H115.94z M107.03,170.87h0.83l-0.42,4.49h-4.01
			v-0.14l0.9-0.48h2.56L107.03,170.87z M95.34,171.7h0.76l-0.48,4.01h-3.94l0.69-0.69v-0.14h2.7L95.34,171.7z M82.01,172.66h0.9
			l-0.28,3.66h-4.01l0.55-0.69h0.14h2.42L82.01,172.66z M82.9,199l-0.9-0.14l-0.28-2.9H79.3h-0.14l-0.55-0.62l4.01-0.14L82.9,199z
			 M96.1,199.83h-0.76l-0.28-3.32h-2.7l-0.69-0.83h3.94L96.1,199.83z M107.85,200.59h-0.83l-0.14-4.08l-2.56,0.14l-0.9-0.48v-0.14
			h4.01L107.85,200.59z M119.47,201.42l-0.14-4.29h-2.7l-0.69-0.48v-0.14h3.94l0.48,4.91H119.47L119.47,201.42z"/>
		<polygon fill="#171513" points="128.73,178.68 128.73,194.23 70.53,192.16 70.53,186.07 70.53,182.27 		"/>
		
			<linearGradient id="SVGID_7_" gradientUnits="userSpaceOnUse" x1="-182.395" y1="302.249" x2="-176.0878" y2="302.249" gradientTransform="matrix(-0.0658 1.3808 1.3814 0.0513 -329.7421 428.9735)">
			<stop  offset="0.4275" style="stop-color:#171513"/>
			<stop  offset="0.6941" style="stop-color:#000000"/>
			<stop  offset="1" style="stop-color:#000000"/>
		</linearGradient>
		<path fill="url(#SVGID_7_)" d="M128.73,194.23l-0.14,5.25V203l-8.23-0.62v-0.14c0-0.23,0-0.51,0-0.83l-0.48-4.91h-3.94v0.14
			l-0.28,4.42v1.04l-7.81-0.48v-1.04l-0.42-4.56h-4.01v0.14l-0.28,4.15v0.97l-7.05-0.48v-0.97l-0.48-4.15h-3.94l-0.14,3.8
			l-0.14,1.11l-8.5-0.62V199l-0.28-3.8l-4.01,0.14l-0.28,3.25v1.11l-7.81-0.62v-0.97v-5.94L128.73,194.23z M95.34,199.83l-3.11-0.28
			l0.14-3.04h2.7L95.34,199.83z M82.01,198.86l-2.83-0.14l0.14-2.76h2.42L82.01,198.86z M104.33,196.65l2.56-0.14l0.14,4.08
			l-2.7-0.28V196.65z M119.47,201.42l-3.11-0.28l0.41-3.87l-0.14-0.14h2.7L119.47,201.42z"/>
		<path fill="#38322E" d="M79.17,198.72l-0.83-0.14l0.28-3.25l0.55,0.62h0.14L79.17,198.72z M92.23,199.55l-0.69-0.07l0.14-3.8
			l0.69,0.83L92.23,199.55z M103.43,196.16l0.9,0.48v3.66h-1.17L103.43,196.16z M116.36,201.14l-0.69-0.07l0.28-4.42l0.69,0.48
			l0.14,0.14L116.36,201.14z"/>
		<path fill="#181715" d="M133.08,167.2c1.24,6.4,1.87,12.69,1.87,18.87c-0.09,4.56-0.53,9.03-1.31,13.41h-5.05l0.14-5.25v-15.55
			v-11.13v-0.35H133.08L133.08,167.2z"/>
		<path fill="#222120" d="M128.73,167.2v-5.46c0.46-2.21,2.49-3.48,6.08-3.8l41.4,0.14v10.37l-26.54-0.76l-16.59-0.48L128.73,167.2
			L128.73,167.2z"/>
		
			<linearGradient id="SVGID_8_" gradientUnits="userSpaceOnUse" x1="613.5757" y1="430.0205" x2="654.2573" y2="430.0205" gradientTransform="matrix(-1.382 0.0316 0.0316 1.382 1017.0817 -431.4662)">
			<stop  offset="0" style="stop-color:#222222"/>
			<stop  offset="1" style="stop-color:#121110"/>
		</linearGradient>
		<path fill="url(#SVGID_8_)" d="M176.21,168.45v29.79l-42.58,1.24c0.78-4.38,1.22-8.85,1.31-13.41c0-6.17-0.62-12.46-1.87-18.87
			l16.59,0.48L176.21,168.45z"/>
		
			<linearGradient id="SVGID_9_" gradientUnits="userSpaceOnUse" x1="545.0991" y1="1293.6055" x2="548.9244" y2="1293.6055" gradientTransform="matrix(3.613920e-004 -1.3823 -1.3823 0.0014 1940.3585 958.0336)">
			<stop  offset="0" style="stop-color:#040000"/>
			<stop  offset="1" style="stop-color:#191816"/>
		</linearGradient>
		<path fill="url(#SVGID_9_)" d="M128.59,199.48h5.05l42.58-1.24v9.47h-41.26c-3.5-0.32-5.62-1.89-6.36-4.7v-3.53H128.59z"/>
	</g>
	<g>
		
			<linearGradient id="SVGID_10_" gradientUnits="userSpaceOnUse" x1="35.1572" y1="1156.6514" x2="107.7109" y2="1170.825" gradientTransform="matrix(1.3823 0 0 -1.3823 555.0984 1856.3862)">
			<stop  offset="0" style="stop-color:#D9D9D9"/>
			<stop  offset="0.098" style="stop-color:#D9D9D9"/>
			<stop  offset="0.1686" style="stop-color:#D9D9D9"/>
			<stop  offset="0.9098" style="stop-color:#CFCDCE"/>
			<stop  offset="1" style="stop-color:#675C61"/>
		</linearGradient>
		<path fill="url(#SVGID_10_)" d="M631.62,353.96l-32.969-213.22l25.09-2.49c7.699-0.65,18.82-2.17,33.379-4.56
			c13.68-2.35,21.98,0.76,24.881,9.33l3.521,18.11l19.148,98.15l17.969,92.13c-15.479,4.56-32.316,6.84-50.52,6.84
			C658.02,358.24,644.52,356.81,631.62,353.96z"/>
		
			<linearGradient id="SVGID_11_" gradientUnits="userSpaceOnUse" x1="35.1572" y1="1156.6514" x2="107.7109" y2="1170.825" gradientTransform="matrix(1.3823 0 0 -1.3823 555.0984 1856.3862)">
			<stop  offset="0" style="stop-color:#D9D9D9"/>
			<stop  offset="0.098" style="stop-color:#D9D9D9"/>
			<stop  offset="0.1686" style="stop-color:#D9D9D9"/>
			<stop  offset="0.9098" style="stop-color:#CFCDCE"/>
			<stop  offset="1" style="stop-color:#675C61"/>
		</linearGradient>
		<path fill="url(#SVGID_11_)" d="M631.62,353.96l-32.969-213.22l25.09-2.49c7.699-0.65,18.82-2.17,33.379-4.56
			c13.68-2.35,21.98,0.76,24.881,9.33l3.521,18.11l19.148,98.15l17.969,92.13c-15.479,4.56-32.316,6.84-50.52,6.84
			C658.02,358.24,644.52,356.81,631.62,353.96z"/>
		
			<linearGradient id="SVGID_12_" gradientUnits="userSpaceOnUse" x1="35.1572" y1="1156.6514" x2="107.7109" y2="1170.825" gradientTransform="matrix(1.3823 0 0 -1.3823 555.0984 1856.3862)">
			<stop  offset="0" style="stop-color:#D9D9D9"/>
			<stop  offset="0.098" style="stop-color:#D9D9D9"/>
			<stop  offset="0.1686" style="stop-color:#D9D9D9"/>
			<stop  offset="0.9098" style="stop-color:#CFCDCE"/>
			<stop  offset="1" style="stop-color:#675C61"/>
		</linearGradient>
		<path fill="url(#SVGID_12_)" d="M631.62,353.96l-32.969-213.22l25.09-2.49c7.699-0.65,18.82-2.17,33.379-4.56
			c13.68-2.35,21.98,0.76,24.881,9.33l3.521,18.11l19.148,98.15l17.969,92.13c-15.479,4.56-32.316,6.84-50.52,6.84
			C658.02,358.24,644.52,356.81,631.62,353.96z"/>
		
			<linearGradient id="SVGID_13_" gradientUnits="userSpaceOnUse" x1="35.1572" y1="1156.6514" x2="107.7109" y2="1170.825" gradientTransform="matrix(1.3823 0 0 -1.3823 555.0984 1856.3862)">
			<stop  offset="0" style="stop-color:#D9D9D9"/>
			<stop  offset="0.098" style="stop-color:#D9D9D9"/>
			<stop  offset="0.1686" style="stop-color:#D9D9D9"/>
			<stop  offset="0.9098" style="stop-color:#CFCDCE"/>
			<stop  offset="1" style="stop-color:#675C61"/>
		</linearGradient>
		<path fill="url(#SVGID_13_)" d="M631.62,353.96l-32.969-213.22l25.09-2.49c7.699-0.65,18.82-2.17,33.379-4.56
			c13.68-2.35,21.98,0.76,24.881,9.33l3.521,18.11l19.148,98.15l17.969,92.13c-15.479,4.56-32.316,6.84-50.52,6.84
			C658.02,358.24,644.52,356.81,631.62,353.96z"/>
		
			<linearGradient id="SVGID_14_" gradientUnits="userSpaceOnUse" x1="-87.7686" y1="1172.291" x2="6.6798" y2="1178.0413" gradientTransform="matrix(1.3823 0 0 -1.3823 555.0984 1856.3862)">
			<stop  offset="0" style="stop-color:#C7C7C7"/>
			<stop  offset="0.4902" style="stop-color:#C7C7C7"/>
			<stop  offset="0.5255" style="stop-color:#D9D9D9"/>
			<stop  offset="0.5529" style="stop-color:#A19797"/>
			<stop  offset="0.6627" style="stop-color:#B8B4B5"/>
			<stop  offset="0.8314" style="stop-color:#D8D8D8"/>
			<stop  offset="1" style="stop-color:#D9D9D9"/>
		</linearGradient>
		<path fill="url(#SVGID_14_)" d="M449.84,235.08l-3.11-130.01h50.59l0.41-0.35c9.17,9.17,19.146,16.68,29.93,22.53l0.35,0.14
			c7.279,3.82,14.84,6.84,22.67,9.05c11.15,3.18,22.85,4.77,35.109,4.77c0.32,0,0.621,0,0.9,0c0.277,0,0.58,0,0.898,0
			c3.82-0.05,7.51-0.23,11.063-0.55v0.07l32.969,213.22c-24.469-5.48-46.82-16.13-67.039-31.932
			c-6.131-4.788-12.051-10.038-17.76-15.76c-1.66-1.66-3.25-3.32-4.771-4.98c-0.92-0.97-1.818-1.94-2.699-2.9
			c-12.721-14.84-21.859-27.88-27.439-39.12c-2.4-4.75-4.121-9.19-5.18-13.34c-0.281-0.6-0.531-1.2-0.762-1.8
			c-0.049-0.18-0.119-0.37-0.209-0.55c-0.23-0.41-0.439-0.78-0.621-1.11c-1.52-2.35-3.318-4.15-5.389-5.39
			c-1.891-1.11-3.99-1.77-6.291-2H449.84V235.08L449.84,235.08z"/>
		
			<linearGradient id="SVGID_15_" gradientUnits="userSpaceOnUse" x1="-87.7686" y1="1172.291" x2="6.6798" y2="1178.0413" gradientTransform="matrix(1.3823 0 0 -1.3823 555.0984 1856.3862)">
			<stop  offset="0" style="stop-color:#C7C7C7"/>
			<stop  offset="0.4902" style="stop-color:#C7C7C7"/>
			<stop  offset="0.5255" style="stop-color:#D9D9D9"/>
			<stop  offset="0.5529" style="stop-color:#A19797"/>
			<stop  offset="0.6627" style="stop-color:#B8B4B5"/>
			<stop  offset="0.8314" style="stop-color:#D8D8D8"/>
			<stop  offset="1" style="stop-color:#D9D9D9"/>
		</linearGradient>
		<path fill="url(#SVGID_15_)" d="M449.84,235.08l-3.11-130.01h50.59l0.41-0.35c9.17,9.17,19.146,16.68,29.93,22.53l0.35,0.14
			c7.279,3.82,14.84,6.84,22.67,9.05c11.15,3.18,22.85,4.77,35.109,4.77c0.32,0,0.621,0,0.9,0c0.277,0,0.58,0,0.898,0
			c3.82-0.05,7.51-0.23,11.063-0.55v0.07l32.969,213.22c-24.469-5.48-46.82-16.13-67.039-31.932
			c-6.131-4.788-12.051-10.038-17.76-15.76c-1.66-1.66-3.25-3.32-4.771-4.98c-0.92-0.97-1.818-1.94-2.699-2.9
			c-12.721-14.84-21.859-27.88-27.439-39.12c-2.4-4.75-4.121-9.19-5.18-13.34c-0.281-0.6-0.531-1.2-0.762-1.8
			c-0.049-0.18-0.119-0.37-0.209-0.55c-0.23-0.41-0.439-0.78-0.621-1.11c-1.52-2.35-3.318-4.15-5.389-5.39
			c-1.891-1.11-3.99-1.77-6.291-2H449.84V235.08L449.84,235.08z"/>
		
			<linearGradient id="SVGID_16_" gradientUnits="userSpaceOnUse" x1="-87.7686" y1="1172.291" x2="6.6798" y2="1178.0413" gradientTransform="matrix(1.3823 0 0 -1.3823 555.0984 1856.3862)">
			<stop  offset="0" style="stop-color:#C7C7C7"/>
			<stop  offset="0.4902" style="stop-color:#C7C7C7"/>
			<stop  offset="0.5255" style="stop-color:#D9D9D9"/>
			<stop  offset="0.5529" style="stop-color:#A19797"/>
			<stop  offset="0.6627" style="stop-color:#B8B4B5"/>
			<stop  offset="0.8314" style="stop-color:#D8D8D8"/>
			<stop  offset="1" style="stop-color:#D9D9D9"/>
		</linearGradient>
		<path fill="url(#SVGID_16_)" d="M449.84,235.08l-3.11-130.01h50.59l0.41-0.35c9.17,9.17,19.146,16.68,29.93,22.53l0.35,0.14
			c7.279,3.82,14.84,6.84,22.67,9.05c11.15,3.18,22.85,4.77,35.109,4.77c0.32,0,0.621,0,0.9,0c0.277,0,0.58,0,0.898,0
			c3.82-0.05,7.51-0.23,11.063-0.55v0.07l32.969,213.22c-24.469-5.48-46.82-16.13-67.039-31.932
			c-6.131-4.788-12.051-10.038-17.76-15.76c-1.66-1.66-3.25-3.32-4.771-4.98c-0.92-0.97-1.818-1.94-2.699-2.9
			c-12.721-14.84-21.859-27.88-27.439-39.12c-2.4-4.75-4.121-9.19-5.18-13.34c-0.281-0.6-0.531-1.2-0.762-1.8
			c-0.049-0.18-0.119-0.37-0.209-0.55c-0.23-0.41-0.439-0.78-0.621-1.11c-1.52-2.35-3.318-4.15-5.389-5.39
			c-1.891-1.11-3.99-1.77-6.291-2H449.84V235.08L449.84,235.08z"/>
		
			<linearGradient id="SVGID_17_" gradientUnits="userSpaceOnUse" x1="-87.7686" y1="1172.291" x2="6.6798" y2="1178.0413" gradientTransform="matrix(1.3823 0 0 -1.3823 555.0984 1856.3862)">
			<stop  offset="0" style="stop-color:#C7C7C7"/>
			<stop  offset="0.4902" style="stop-color:#C7C7C7"/>
			<stop  offset="0.5255" style="stop-color:#D9D9D9"/>
			<stop  offset="0.5529" style="stop-color:#A19797"/>
			<stop  offset="0.6627" style="stop-color:#B8B4B5"/>
			<stop  offset="0.8314" style="stop-color:#D8D8D8"/>
			<stop  offset="1" style="stop-color:#D9D9D9"/>
		</linearGradient>
		<path fill="url(#SVGID_17_)" d="M449.84,235.08l-3.11-130.01h50.59l0.41-0.35c9.17,9.17,19.146,16.68,29.93,22.53l0.35,0.14
			c7.279,3.82,14.84,6.84,22.67,9.05c11.15,3.18,22.85,4.77,35.109,4.77c0.32,0,0.621,0,0.9,0c0.277,0,0.58,0,0.898,0
			c3.82-0.05,7.51-0.23,11.063-0.55v0.07l32.969,213.22c-24.469-5.48-46.82-16.13-67.039-31.932
			c-6.131-4.788-12.051-10.038-17.76-15.76c-1.66-1.66-3.25-3.32-4.771-4.98c-0.92-0.97-1.818-1.94-2.699-2.9
			c-12.721-14.84-21.859-27.88-27.439-39.12c-2.4-4.75-4.121-9.19-5.18-13.34c-0.281-0.6-0.531-1.2-0.762-1.8
			c-0.049-0.18-0.119-0.37-0.209-0.55c-0.23-0.41-0.439-0.78-0.621-1.11c-1.52-2.35-3.318-4.15-5.389-5.39
			c-1.891-1.11-3.99-1.77-6.291-2H449.84V235.08L449.84,235.08z"/>
		
			<linearGradient id="SVGID_18_" gradientUnits="userSpaceOnUse" x1="-298.8872" y1="1228.0898" x2="-165.8153" y2="1211.6481" gradientTransform="matrix(1.3823 0 0 -1.3823 555.0984 1856.3862)">
			<stop  offset="0" style="stop-color:#5E5E5E"/>
			<stop  offset="0.0353" style="stop-color:#B3B3B3"/>
			<stop  offset="0.1647" style="stop-color:#C1C1C1"/>
			<stop  offset="1" style="stop-color:#C7C7C7"/>
		</linearGradient>
		<polygon fill="url(#SVGID_18_)" points="329.72,105.07 321.56,235.14 138.06,235.21 135.57,234.94 151.88,105.07 327.51,105.07 		
			"/>
		
			<linearGradient id="SVGID_19_" gradientUnits="userSpaceOnUse" x1="-298.8872" y1="1228.0898" x2="-165.8153" y2="1211.6481" gradientTransform="matrix(1.3823 0 0 -1.3823 555.0984 1856.3862)">
			<stop  offset="0" style="stop-color:#5E5E5E"/>
			<stop  offset="0.0353" style="stop-color:#B3B3B3"/>
			<stop  offset="0.1647" style="stop-color:#C1C1C1"/>
			<stop  offset="1" style="stop-color:#C7C7C7"/>
		</linearGradient>
		<polygon fill="url(#SVGID_19_)" points="329.72,105.07 321.56,235.14 138.06,235.21 135.57,234.94 151.88,105.07 327.51,105.07 		
			"/>
		
			<linearGradient id="SVGID_20_" gradientUnits="userSpaceOnUse" x1="-298.8872" y1="1228.0898" x2="-165.8153" y2="1211.6481" gradientTransform="matrix(1.3823 0 0 -1.3823 555.0984 1856.3862)">
			<stop  offset="0" style="stop-color:#5E5E5E"/>
			<stop  offset="0.0353" style="stop-color:#B3B3B3"/>
			<stop  offset="0.1647" style="stop-color:#C1C1C1"/>
			<stop  offset="1" style="stop-color:#C7C7C7"/>
		</linearGradient>
		<polygon fill="url(#SVGID_20_)" points="329.72,105.07 321.56,235.14 138.06,235.21 135.57,234.94 151.88,105.07 327.51,105.07 		
			"/>
		
			<linearGradient id="SVGID_21_" gradientUnits="userSpaceOnUse" x1="-298.8872" y1="1228.0898" x2="-165.8153" y2="1211.6481" gradientTransform="matrix(1.3823 0 0 -1.3823 555.0984 1856.3862)">
			<stop  offset="0" style="stop-color:#5E5E5E"/>
			<stop  offset="0.0353" style="stop-color:#B3B3B3"/>
			<stop  offset="0.1647" style="stop-color:#C1C1C1"/>
			<stop  offset="1" style="stop-color:#C7C7C7"/>
		</linearGradient>
		<polygon fill="url(#SVGID_21_)" points="329.72,105.07 321.56,235.14 138.06,235.21 135.57,234.94 151.88,105.07 327.51,105.07 		
			"/>
		
			<linearGradient id="SVGID_22_" gradientUnits="userSpaceOnUse" x1="-79.2871" y1="1221.999" x2="-13.4375" y2="1225.3759" gradientTransform="matrix(1.3823 0 0 -1.3823 555.0984 1856.3862)">
			<stop  offset="0" style="stop-color:#C7C7C7"/>
			<stop  offset="0.4902" style="stop-color:#C7C7C7"/>
			<stop  offset="0.5255" style="stop-color:#D9D9D9"/>
			<stop  offset="0.5529" style="stop-color:#A19797"/>
			<stop  offset="0.6627" style="stop-color:#B8B4B5"/>
			<stop  offset="0.8314" style="stop-color:#D8D8D8"/>
			<stop  offset="1" style="stop-color:#D9D9D9"/>
		</linearGradient>
		<polygon fill="url(#SVGID_22_)" points="321.56,235.14 329.72,105.07 446.73,105.07 449.84,235.08 327.51,235.14 		"/>
		
			<linearGradient id="SVGID_23_" gradientUnits="userSpaceOnUse" x1="-79.2871" y1="1221.999" x2="-13.4375" y2="1225.3759" gradientTransform="matrix(1.3823 0 0 -1.3823 555.0984 1856.3862)">
			<stop  offset="0" style="stop-color:#C7C7C7"/>
			<stop  offset="0.4902" style="stop-color:#C7C7C7"/>
			<stop  offset="0.5255" style="stop-color:#D9D9D9"/>
			<stop  offset="0.5529" style="stop-color:#A19797"/>
			<stop  offset="0.6627" style="stop-color:#B8B4B5"/>
			<stop  offset="0.8314" style="stop-color:#D8D8D8"/>
			<stop  offset="1" style="stop-color:#D9D9D9"/>
		</linearGradient>
		<polygon fill="url(#SVGID_23_)" points="321.56,235.14 329.72,105.07 446.73,105.07 449.84,235.08 327.51,235.14 		"/>
		
			<linearGradient id="SVGID_24_" gradientUnits="userSpaceOnUse" x1="-79.2871" y1="1221.999" x2="-13.4375" y2="1225.3759" gradientTransform="matrix(1.3823 0 0 -1.3823 555.0984 1856.3862)">
			<stop  offset="0" style="stop-color:#C7C7C7"/>
			<stop  offset="0.4902" style="stop-color:#C7C7C7"/>
			<stop  offset="0.5255" style="stop-color:#D9D9D9"/>
			<stop  offset="0.5529" style="stop-color:#A19797"/>
			<stop  offset="0.6627" style="stop-color:#B8B4B5"/>
			<stop  offset="0.8314" style="stop-color:#D8D8D8"/>
			<stop  offset="1" style="stop-color:#D9D9D9"/>
		</linearGradient>
		<polygon fill="url(#SVGID_24_)" points="321.56,235.14 329.72,105.07 446.73,105.07 449.84,235.08 327.51,235.14 		"/>
		
			<linearGradient id="SVGID_25_" gradientUnits="userSpaceOnUse" x1="-79.2871" y1="1221.999" x2="-13.4375" y2="1225.3759" gradientTransform="matrix(1.3823 0 0 -1.3823 555.0984 1856.3862)">
			<stop  offset="0" style="stop-color:#C7C7C7"/>
			<stop  offset="0.4902" style="stop-color:#C7C7C7"/>
			<stop  offset="0.5255" style="stop-color:#D9D9D9"/>
			<stop  offset="0.5529" style="stop-color:#A19797"/>
			<stop  offset="0.6627" style="stop-color:#B8B4B5"/>
			<stop  offset="0.8314" style="stop-color:#D8D8D8"/>
			<stop  offset="1" style="stop-color:#D9D9D9"/>
		</linearGradient>
		<polygon fill="url(#SVGID_25_)" points="321.56,235.14 329.72,105.07 446.73,105.07 449.84,235.08 327.51,235.14 		"/>
	</g>
	<g>
		<polygon fill="#B7B7B7" points="591.94,312.9 643.51,313.25 642.12,319.6 592.639,319.6 		"/>
		<path fill="#F4F4F4" d="M594.78,309.72h45.131l-3.111-24.95L593.6,284.7L594.78,309.72z M643.51,313.25l-51.561-0.35l-1.17-30.55
			h48.52l4.352,30.69v4.7L643.51,313.25z"/>
		
			<linearGradient id="SVGID_26_" gradientUnits="userSpaceOnUse" x1="44.9082" y1="1137.5801" x2="44.23" y2="1116.0552" gradientTransform="matrix(1.3823 0 0 -1.3823 555.0984 1856.3862)">
			<stop  offset="0" style="stop-color:#777777"/>
			<stop  offset="1" style="stop-color:#000000"/>
		</linearGradient>
		<polygon fill="url(#SVGID_26_)" points="594.78,309.72 593.6,284.7 636.799,284.77 639.911,309.72 		"/>
	</g>
	<g>
		<g>
			
				<radialGradient id="SVGID_27_" cx="-39.4648" cy="5979.1543" r="121.1636" gradientTransform="matrix(1.3823 -0.008 -3.936190e-004 -0.0683 555.3353 1062.6715)" gradientUnits="userSpaceOnUse">
				<stop  offset="0" style="stop-color:#FFFFFF;stop-opacity:0.498"/>
				<stop  offset="0.1333" style="stop-color:#FFFFFF;stop-opacity:0.498"/>
				<stop  offset="0.3176" style="stop-color:#FFFFFF;stop-opacity:0.3294"/>
				<stop  offset="0.4157" style="stop-color:#FFFFFF;stop-opacity:0.298"/>
				<stop  offset="0.5686" style="stop-color:#FEFEFE;stop-opacity:0.149"/>
				<stop  offset="0.7686" style="stop-color:#FCFCFC;stop-opacity:0.0275"/>
				<stop  offset="1" style="stop-color:#F9F9F9;stop-opacity:0"/>
			</radialGradient>
			<path fill="url(#SVGID_27_)" d="M661.27,653.78c0,2.26-15.779,4.239-47.34,5.938c-32.301,1.7-71.17,2.67-116.6,2.9
				c-44.65,0.229-83.17-0.32-115.562-1.66c-31.56-1.38-47.34-3.2-47.34-5.46s15.78-4.26,47.34-6.01
				c32.3-1.8,70.778-2.812,115.421-3.04c45.43-0.23,84.34,0.37,116.738,1.8C645.491,649.68,661.27,651.52,661.27,653.78z"/>
		</g>
		<g>
			
				<radialGradient id="SVGID_28_" cx="-23.6323" cy="961.5586" r="1.8776" gradientTransform="matrix(1.3799 -0.0825 -1.7914 -29.9698 2255.2981 28994.7949)" gradientUnits="userSpaceOnUse">
				<stop  offset="0" style="stop-color:#FFFFFF;stop-opacity:0.498"/>
				<stop  offset="0.1333" style="stop-color:#FFFFFF;stop-opacity:0.498"/>
				<stop  offset="0.3176" style="stop-color:#FFFFFF;stop-opacity:0.3294"/>
				<stop  offset="0.4157" style="stop-color:#FFFFFF;stop-opacity:0.298"/>
				<stop  offset="0.5686" style="stop-color:#FEFEFE;stop-opacity:0.149"/>
				<stop  offset="0.7686" style="stop-color:#FCFCFC;stop-opacity:0.0275"/>
				<stop  offset="1" style="stop-color:#F9F9F9;stop-opacity:0"/>
			</radialGradient>
			<path fill="url(#SVGID_28_)" d="M496.84,123.59c0.689-0.05,1.609,5.34,2.77,16.17c1.109,10.87,2.121,23.94,3.041,39.19
				s1.469,28.31,1.658,39.19c0.092,10.18-0.209,15.3-0.898,15.34c-0.691,0.04-1.59-4.98-2.701-15.07
				c-1.15-10.87-2.189-23.94-3.109-39.19s-1.447-28.31-1.59-39.19C495.87,129.12,496.151,123.64,496.84,123.59z"/>
		</g>
		<g>
			
				<radialGradient id="SVGID_29_" cx="-54.8247" cy="1181.2314" r="2.8276" gradientTransform="matrix(1.3807 0.0661 0.0932 -1.9488 462.0965 2413.782)" gradientUnits="userSpaceOnUse">
				<stop  offset="0" style="stop-color:#FFFFFF;stop-opacity:0.498"/>
				<stop  offset="0.1333" style="stop-color:#FFFFFF;stop-opacity:0.498"/>
				<stop  offset="0.3176" style="stop-color:#FFFFFF;stop-opacity:0.3294"/>
				<stop  offset="0.4157" style="stop-color:#FFFFFF;stop-opacity:0.298"/>
				<stop  offset="0.5686" style="stop-color:#FEFEFE;stop-opacity:0.149"/>
				<stop  offset="0.7686" style="stop-color:#FCFCFC;stop-opacity:0.0275"/>
				<stop  offset="1" style="stop-color:#F9F9F9;stop-opacity:0"/>
			</radialGradient>
			<path fill="url(#SVGID_29_)" d="M498.981,112.19c-0.781,0.92-1.701,1.36-2.762,1.31c-1.059-0.05-1.93-0.58-2.629-1.59
				c-0.689-1.15-0.99-2.46-0.9-3.94c0.09-1.47,0.529-2.74,1.311-3.8c0.779-1.01,1.699-1.5,2.76-1.45
				c1.063,0.05,1.939,0.62,2.629,1.73c0.691,1.15,0.99,2.46,0.9,3.94C500.2,109.86,499.77,111.13,498.981,112.19z"/>
		</g>
		<g>
			
				<radialGradient id="SVGID_30_" cx="-77.2241" cy="1087.4307" r="2.8276" gradientTransform="matrix(1.3807 0.0661 0.0932 -1.9488 470.8055 2362.1296)" gradientUnits="userSpaceOnUse">
				<stop  offset="0" style="stop-color:#FFFFFF;stop-opacity:0.498"/>
				<stop  offset="0.1333" style="stop-color:#FFFFFF;stop-opacity:0.498"/>
				<stop  offset="0.3176" style="stop-color:#FFFFFF;stop-opacity:0.3294"/>
				<stop  offset="0.4157" style="stop-color:#FFFFFF;stop-opacity:0.298"/>
				<stop  offset="0.5686" style="stop-color:#FEFEFE;stop-opacity:0.149"/>
				<stop  offset="0.7686" style="stop-color:#FCFCFC;stop-opacity:0.0275"/>
				<stop  offset="1" style="stop-color:#F9F9F9;stop-opacity:0"/>
			</radialGradient>
			<path fill="url(#SVGID_30_)" d="M468.02,241.85c-0.779,0.92-1.711,1.36-2.76,1.31c-1.051-0.05-1.93-0.58-2.631-1.59
				c-0.689-1.15-0.99-2.47-0.898-3.94c0.09-1.47,0.529-2.74,1.309-3.8c0.781-1.01,1.711-1.5,2.76-1.45
				c1.063,0.05,1.941,0.62,2.631,1.73c0.689,1.15,0.99,2.47,0.9,3.94C469.241,239.52,468.799,240.79,468.02,241.85z"/>
		</g>
	</g>
</g>
<g id="Layer_1_1_">
	<g>
		<g>
			<g>
				
					<linearGradient id="SVGID_31_" gradientUnits="userSpaceOnUse" x1="515.5708" y1="1175.8379" x2="527.0718" y2="1175.8379" gradientTransform="matrix(0.015 -1.3822 -1.3824 -4.755420e-004 1937.8575 959.5643)">
					<stop  offset="0.2745" style="stop-color:#9E9E9E;stop-opacity:0.7961"/>
					<stop  offset="0.5804" style="stop-color:#878787;stop-opacity:0.502"/>
					<stop  offset="1" style="stop-color:#000000;stop-opacity:0"/>
				</linearGradient>
				<path fill="url(#SVGID_31_)" d="M137.37,223.64c0.14-0.46,0.3-0.88,0.48-1.24h351.109c8.16,4.65,14.01,12.21,17.561,22.67
					l-2.35,8.57H133.64L137.37,223.64z"/>
			</g>
			<g>
				
					<linearGradient id="SVGID_32_" gradientUnits="userSpaceOnUse" x1="-63.6953" y1="1116.3574" x2="128.5052" y2="1116.3574" gradientTransform="matrix(1.3823 0 0 -1.3823 555.0984 1856.3862)">
					<stop  offset="0" style="stop-color:#E8E6E7"/>
					<stop  offset="1" style="stop-color:#C6C5C3"/>
				</linearGradient>
				<path fill="url(#SVGID_32_)" d="M732.731,383.95c-18.061,5.02-37.691,7.53-58.891,7.53c-12.67,0-24.951-0.94-36.84-2.83h-0.07
					c-24.74-4.012-47.811-12.102-69.189-24.262c-16.91-9.68-32.762-21.89-47.551-36.63c-15.619-15.67-28.34-32.51-38.15-50.52
					c-6.08-11.1-10.83-21.98-14.24-32.62c-1.43-4.56-2.42-7.74-2.969-9.54c0.049-0.05,0.09-0.07,0.139-0.07
					c0,0.05,0.021,0.07,0.07,0.07h28.41c2.301,0.23,4.4,0.9,6.291,2c2.068,1.24,3.869,3.04,5.389,5.39l1.59,3.46
					c1.063,4.15,2.791,8.59,5.184,13.34c1.799,3.64,3.959,7.46,6.5,11.47c5.35,8.39,12.33,17.6,20.938,27.65
					c0.879,0.97,1.771,1.94,2.699,2.9c1.521,1.66,3.111,3.32,4.771,4.98c5.709,5.71,11.629,10.97,17.76,15.76
					c20.229,15.81,42.58,26.45,67.039,31.93c12.9,2.86,26.4,4.29,40.5,4.29c18.201,0,35.041-2.28,50.52-6.84
					c3.59-0.74,5.801,0.51,6.631,3.729L732.731,383.95z"/>
				
					<linearGradient id="SVGID_33_" gradientUnits="userSpaceOnUse" x1="-63.6953" y1="1116.3574" x2="128.5052" y2="1116.3574" gradientTransform="matrix(1.3823 0 0 -1.3823 555.0984 1856.3862)">
					<stop  offset="0" style="stop-color:#E8E6E7"/>
					<stop  offset="1" style="stop-color:#C6C5C3"/>
				</linearGradient>
				<path fill="url(#SVGID_33_)" d="M732.731,383.95c-18.061,5.02-37.691,7.53-58.891,7.53c-12.67,0-24.951-0.94-36.84-2.83h-0.07
					c-24.74-4.012-47.811-12.102-69.189-24.262c-16.91-9.68-32.762-21.89-47.551-36.63c-15.619-15.67-28.34-32.51-38.15-50.52
					c-6.08-11.1-10.83-21.98-14.24-32.62c-1.43-4.56-2.42-7.74-2.969-9.54c0.049-0.05,0.09-0.07,0.139-0.07
					c0,0.05,0.021,0.07,0.07,0.07h28.41c2.301,0.23,4.4,0.9,6.291,2c2.068,1.24,3.869,3.04,5.389,5.39l1.59,3.46
					c1.063,4.15,2.791,8.59,5.184,13.34c1.799,3.64,3.959,7.46,6.5,11.47c5.35,8.39,12.33,17.6,20.938,27.65
					c0.879,0.97,1.771,1.94,2.699,2.9c1.521,1.66,3.111,3.32,4.771,4.98c5.709,5.71,11.629,10.97,17.76,15.76
					c20.229,15.81,42.58,26.45,67.039,31.93c12.9,2.86,26.4,4.29,40.5,4.29c18.201,0,35.041-2.28,50.52-6.84
					c3.59-0.74,5.801,0.51,6.631,3.729L732.731,383.95z"/>
				
					<linearGradient id="SVGID_34_" gradientUnits="userSpaceOnUse" x1="-63.6953" y1="1116.3574" x2="128.5052" y2="1116.3574" gradientTransform="matrix(1.3823 0 0 -1.3823 555.0984 1856.3862)">
					<stop  offset="0" style="stop-color:#E8E6E7"/>
					<stop  offset="1" style="stop-color:#C6C5C3"/>
				</linearGradient>
				<path fill="url(#SVGID_34_)" d="M732.731,383.95c-18.061,5.02-37.691,7.53-58.891,7.53c-12.67,0-24.951-0.94-36.84-2.83h-0.07
					c-24.74-4.012-47.811-12.102-69.189-24.262c-16.91-9.68-32.762-21.89-47.551-36.63c-15.619-15.67-28.34-32.51-38.15-50.52
					c-6.08-11.1-10.83-21.98-14.24-32.62c-1.43-4.56-2.42-7.74-2.969-9.54c0.049-0.05,0.09-0.07,0.139-0.07
					c0,0.05,0.021,0.07,0.07,0.07h28.41c2.301,0.23,4.4,0.9,6.291,2c2.068,1.24,3.869,3.04,5.389,5.39l1.59,3.46
					c1.063,4.15,2.791,8.59,5.184,13.34c1.799,3.64,3.959,7.46,6.5,11.47c5.35,8.39,12.33,17.6,20.938,27.65
					c0.879,0.97,1.771,1.94,2.699,2.9c1.521,1.66,3.111,3.32,4.771,4.98c5.709,5.71,11.629,10.97,17.76,15.76
					c20.229,15.81,42.58,26.45,67.039,31.93c12.9,2.86,26.4,4.29,40.5,4.29c18.201,0,35.041-2.28,50.52-6.84
					c3.59-0.74,5.801,0.51,6.631,3.729L732.731,383.95z"/>
				
					<linearGradient id="SVGID_35_" gradientUnits="userSpaceOnUse" x1="-63.6953" y1="1116.3574" x2="128.5052" y2="1116.3574" gradientTransform="matrix(1.3823 0 0 -1.3823 555.0984 1856.3862)">
					<stop  offset="0" style="stop-color:#E8E6E7"/>
					<stop  offset="1" style="stop-color:#C6C5C3"/>
				</linearGradient>
				<path fill="url(#SVGID_35_)" d="M732.731,383.95c-18.061,5.02-37.691,7.53-58.891,7.53c-12.67,0-24.951-0.94-36.84-2.83h-0.07
					c-24.74-4.012-47.811-12.102-69.189-24.262c-16.91-9.68-32.762-21.89-47.551-36.63c-15.619-15.67-28.34-32.51-38.15-50.52
					c-6.08-11.1-10.83-21.98-14.24-32.62c-1.43-4.56-2.42-7.74-2.969-9.54c0.049-0.05,0.09-0.07,0.139-0.07
					c0,0.05,0.021,0.07,0.07,0.07h28.41c2.301,0.23,4.4,0.9,6.291,2c2.068,1.24,3.869,3.04,5.389,5.39l1.59,3.46
					c1.063,4.15,2.791,8.59,5.184,13.34c1.799,3.64,3.959,7.46,6.5,11.47c5.35,8.39,12.33,17.6,20.938,27.65
					c0.879,0.97,1.771,1.94,2.699,2.9c1.521,1.66,3.111,3.32,4.771,4.98c5.709,5.71,11.629,10.97,17.76,15.76
					c20.229,15.81,42.58,26.45,67.039,31.93c12.9,2.86,26.4,4.29,40.5,4.29c18.201,0,35.041-2.28,50.52-6.84
					c3.59-0.74,5.801,0.51,6.631,3.729L732.731,383.95z"/>
				
					<radialGradient id="SVGID_36_" cx="-78.5952" cy="1738.9355" r="605.9709" gradientTransform="matrix(1.3823 0 0 -0.3623 555.0984 1112.0349)" gradientUnits="userSpaceOnUse">
					<stop  offset="0" style="stop-color:#D7D7D7"/>
					<stop  offset="0.7569" style="stop-color:#D3D3D3"/>
					<stop  offset="0.7882" style="stop-color:#E6E6E6"/>
					<stop  offset="0.8157" style="stop-color:#808080"/>
					<stop  offset="1" style="stop-color:#626262"/>
				</radialGradient>
				<path fill="url(#SVGID_36_)" d="M741.139,458.81l9.012,79.682l10.09,90.54l-0.07-0.07c-0.281,4.19-3.41,8.43-9.398,12.72
					l-40.922,33.94l-19.561,16.24c-21.1,3.09-42.139,5.88-63.1,8.358c-139.34,16.312-278.68,16.79-418.01,1.45
					c-18.85-2.07-37.14-4.42-54.88-7.05c-2.86-1.892-5.14-3.78-6.84-5.67l-56.61-51.91c-3.04-3.69-4.33-7.1-3.87-10.23
					l16.59-168.438h544.149l17.17-0.021"/>
				
					<radialGradient id="SVGID_37_" cx="-78.5952" cy="1738.9355" r="605.9709" gradientTransform="matrix(1.3823 0 0 -0.3623 555.0984 1112.0349)" gradientUnits="userSpaceOnUse">
					<stop  offset="0" style="stop-color:#D7D7D7"/>
					<stop  offset="0.7569" style="stop-color:#D3D3D3"/>
					<stop  offset="0.7882" style="stop-color:#E6E6E6"/>
					<stop  offset="0.8157" style="stop-color:#808080"/>
					<stop  offset="1" style="stop-color:#626262"/>
				</radialGradient>
				<path fill="url(#SVGID_37_)" d="M741.139,458.81l9.012,79.682l10.09,90.54l-0.07-0.07c-0.281,4.19-3.41,8.43-9.398,12.72
					l-40.922,33.94l-19.561,16.24c-21.1,3.09-42.139,5.88-63.1,8.358c-139.34,16.312-278.68,16.79-418.01,1.45
					c-18.85-2.07-37.14-4.42-54.88-7.05c-2.86-1.892-5.14-3.78-6.84-5.67l-56.61-51.91c-3.04-3.69-4.33-7.1-3.87-10.23
					l16.59-168.438h544.149l17.17-0.021"/>
				
					<radialGradient id="SVGID_38_" cx="-78.5952" cy="1738.9355" r="605.9709" gradientTransform="matrix(1.3823 0 0 -0.3623 555.0984 1112.0349)" gradientUnits="userSpaceOnUse">
					<stop  offset="0" style="stop-color:#D7D7D7"/>
					<stop  offset="0.7569" style="stop-color:#D3D3D3"/>
					<stop  offset="0.7882" style="stop-color:#E6E6E6"/>
					<stop  offset="0.8157" style="stop-color:#808080"/>
					<stop  offset="1" style="stop-color:#626262"/>
				</radialGradient>
				<path fill="url(#SVGID_38_)" d="M741.139,458.81l9.012,79.682l10.09,90.54l-0.07-0.07c-0.281,4.19-3.41,8.43-9.398,12.72
					l-40.922,33.94l-19.561,16.24c-21.1,3.09-42.139,5.88-63.1,8.358c-139.34,16.312-278.68,16.79-418.01,1.45
					c-18.85-2.07-37.14-4.42-54.88-7.05c-2.86-1.892-5.14-3.78-6.84-5.67l-56.61-51.91c-3.04-3.69-4.33-7.1-3.87-10.23
					l16.59-168.438h544.149l17.17-0.021"/>
				
					<radialGradient id="SVGID_39_" cx="-78.5952" cy="1738.9355" r="605.9709" gradientTransform="matrix(1.3823 0 0 -0.3623 555.0984 1112.0349)" gradientUnits="userSpaceOnUse">
					<stop  offset="0" style="stop-color:#D7D7D7"/>
					<stop  offset="0.7569" style="stop-color:#D3D3D3"/>
					<stop  offset="0.7882" style="stop-color:#E6E6E6"/>
					<stop  offset="0.8157" style="stop-color:#808080"/>
					<stop  offset="1" style="stop-color:#626262"/>
				</radialGradient>
				<path fill="url(#SVGID_39_)" d="M741.139,458.81l9.012,79.682l10.09,90.54l-0.07-0.07c-0.281,4.19-3.41,8.43-9.398,12.72
					l-40.922,33.94l-19.561,16.24c-21.1,3.09-42.139,5.88-63.1,8.358c-139.34,16.312-278.68,16.79-418.01,1.45
					c-18.85-2.07-37.14-4.42-54.88-7.05c-2.86-1.892-5.14-3.78-6.84-5.67l-56.61-51.91c-3.04-3.69-4.33-7.1-3.87-10.23
					l16.59-168.438h544.149l17.17-0.021"/>
				<path fill="#D5D5D5" d="M741.17,458.7h-93.51l0.07-0.312H103.57l1.04-10.988l16.73-170.16l4.15-42.021l0.21-0.14h339.15
					c0.551,1.8,1.539,4.98,2.971,9.54c3.41,10.64,8.16,21.52,14.238,32.62c9.82,18.02,22.531,34.858,38.15,50.52
					c14.791,14.75,30.641,26.96,47.551,36.63c21.379,12.16,44.439,20.25,69.189,24.262h0.07c11.891,1.89,24.17,2.829,36.84,2.829
					c21.197,0,40.83-2.511,58.891-7.529L741.17,458.7z"/>
				<path fill="#D5D5D5" d="M741.17,458.7h-93.51l0.07-0.312H103.57l1.04-10.988l16.73-170.16l4.15-42.021l0.21-0.14h339.15
					c0.551,1.8,1.539,4.98,2.971,9.54c3.41,10.64,8.16,21.52,14.238,32.62c9.82,18.02,22.531,34.858,38.15,50.52
					c14.791,14.75,30.641,26.96,47.551,36.63c21.379,12.16,44.439,20.25,69.189,24.262h0.07c11.891,1.89,24.17,2.829,36.84,2.829
					c21.197,0,40.83-2.511,58.891-7.529L741.17,458.7z"/>
				<path fill="#D5D5D5" d="M741.17,458.7h-93.51l0.07-0.312H103.57l1.04-10.988l16.73-170.16l4.15-42.021l0.21-0.14h339.15
					c0.551,1.8,1.539,4.98,2.971,9.54c3.41,10.64,8.16,21.52,14.238,32.62c9.82,18.02,22.531,34.858,38.15,50.52
					c14.791,14.75,30.641,26.96,47.551,36.63c21.379,12.16,44.439,20.25,69.189,24.262h0.07c11.891,1.89,24.17,2.829,36.84,2.829
					c21.197,0,40.83-2.511,58.891-7.529L741.17,458.7z"/>
				<path fill="#D5D5D5" d="M741.17,458.7h-93.51l0.07-0.312H103.57l1.04-10.988l16.73-170.16l4.15-42.021l0.21-0.14h339.15
					c0.551,1.8,1.539,4.98,2.971,9.54c3.41,10.64,8.16,21.52,14.238,32.62c9.82,18.02,22.531,34.858,38.15,50.52
					c14.791,14.75,30.641,26.96,47.551,36.63c21.379,12.16,44.439,20.25,69.189,24.262h0.07c11.891,1.89,24.17,2.829,36.84,2.829
					c21.197,0,40.83-2.511,58.891-7.529L741.17,458.7z"/>
			</g>
			<g>
				<path fill="#FFFFFF" fill-opacity="0.5765" d="M511.35,344.04c-17.461-17.51-31.33-36.49-41.609-56.95H137.84L105.08,618.23
					h633.321l-23.5-211.08c-28.521,4.608-59.051,3.64-91.58-2.9C581.02,396.36,543.7,376.29,511.35,344.04z M135.71,286.4
					c0-0.18,0.07-0.35,0.21-0.48c0.14-0.14,0.3-0.21,0.48-0.21h333.761c0.139,0,0.279,0.05,0.41,0.14
					c0.09,0.05,0.16,0.14,0.209,0.28c10.23,20.46,24.08,39.44,41.541,56.95c32.16,32.07,69.25,52,111.279,59.79
					c32.619,6.59,63.24,7.51,91.859,2.76c0.09,0,0.211,0.021,0.35,0.07c0.092,0.05,0.182,0.12,0.281,0.21
					c0.09,0.09,0.141,0.21,0.141,0.35L739.87,618.86c0,0.14-0.02,0.278-0.07,0.42c-0.049,0.09-0.119,0.18-0.209,0.279
					c-0.141,0.051-0.281,0.069-0.42,0.069H104.33c-0.14,0-0.25-0.02-0.35-0.069c-0.14-0.091-0.23-0.181-0.28-0.279
					c-0.05-0.142-0.07-0.28-0.07-0.42l32.83-331.76h-0.07c-0.18,0-0.35-0.07-0.48-0.21C135.78,286.74,135.71,286.58,135.71,286.4z"
					/>
			</g>
			<g>
				<path fill="#999999" d="M511.35,341.97c-17.461-17.51-31.33-36.49-41.609-56.95H137.84l-32.76,331.14h633.321l-23.5-211.08
					c-28.521,4.61-59.051,3.64-91.58-2.9C581.02,394.29,543.7,374.22,511.35,341.97z M135.71,284.32c0-0.18,0.07-0.35,0.21-0.48
					c0.14-0.14,0.3-0.21,0.48-0.21h333.761c0.139,0,0.279,0.05,0.41,0.14c0.09,0.05,0.16,0.14,0.209,0.28
					c10.23,20.46,24.08,39.44,41.541,56.95c32.16,32.07,69.25,52,111.279,59.79c32.619,6.59,63.24,7.51,91.859,2.76
					c0.09,0,0.211,0.021,0.35,0.07c0.092,0.05,0.182,0.12,0.281,0.21c0.09,0.09,0.141,0.21,0.141,0.35L739.87,616.78
					c0,0.14-0.02,0.28-0.07,0.41c-0.049,0.09-0.119,0.18-0.209,0.278c-0.141,0.05-0.281,0.07-0.42,0.07H104.33
					c-0.14,0-0.25-0.021-0.35-0.07c-0.14-0.09-0.23-0.18-0.28-0.278c-0.05-0.142-0.07-0.28-0.07-0.41l32.83-331.76h-0.07
					c-0.18,0-0.35-0.07-0.48-0.21C135.78,284.67,135.71,284.51,135.71,284.32z"/>
			</g>
			<g>
				<path fill="#B4AEB0" d="M637.28,461.26c-59.029,0-109.73-20.14-152.129-60.41l31.719-39.54
					c36.59,31.892,79.09,49.44,127.52,52.672l-3.656,47.278C639.59,461.26,638.44,461.26,637.28,461.26z"/>
			</g>
			<g>
				<path fill="#1377B9" d="M151.26,418.96l-0.07,0.35h-3.46l0.07-0.688l12.23-117.57h3.32h0.14h4.49l0.55,0.28
					c0.05-0.09,0.14-0.18,0.28-0.28H327.5H394l0.07,1.87H163.49v0.76L151.26,418.96z"/>
				
					<linearGradient id="SVGID_40_" gradientUnits="userSpaceOnUse" x1="-198.9561" y1="1030.8379" x2="-209.5591" y2="1131.5876" gradientTransform="matrix(1.3823 0 0 -1.3823 555.0984 1856.3862)">
					<stop  offset="0" style="stop-color:#8DCCF8"/>
					<stop  offset="1" style="stop-color:#72BDF0"/>
				</linearGradient>
				<polygon fill="url(#SVGID_40_)" points="156.86,419.31 151.26,418.96 163.49,303.68 163.49,302.92 394.06,302.92 394.06,307.48 
					394.13,309.55 395.52,419.31 327.51,419.31 				"/>
				<path fill="#72BDF0" d="M168.82,301.05c-0.14,0.09-0.23,0.18-0.28,0.28l-0.55-0.28H168.82z M151.26,418.96l3.18,0.35h-3.25
					L151.26,418.96z"/>
				
					<linearGradient id="SVGID_41_" gradientUnits="userSpaceOnUse" x1="-293.126" y1="1017.5381" x2="-100.9691" y2="1086.8209" gradientTransform="matrix(1.3823 0 0 -1.3823 555.0984 1856.3862)">
					<stop  offset="0" style="stop-color:#D7D7D7"/>
					<stop  offset="0.302" style="stop-color:#FFFFFF"/>
					<stop  offset="0.5725" style="stop-color:#FBFBFB"/>
					<stop  offset="0.8627" style="stop-color:#FFFFFF"/>
					<stop  offset="1" style="stop-color:#D7D7D7"/>
				</linearGradient>
				<path fill="url(#SVGID_41_)" d="M147.73,419.31h3.46h3.25h2.42h170.65h68.01l-1.38-109.76l-0.07-2.068v-4.562l0.35-2.21l2,2.42
					l0.07,1.87v4.56l1.45,109.762c0,0.18,0,0.37,0,0.55v1.52h-2.42h-68.01H156.86h-3.25h-1.66h-0.9l-3.46-2.068h0.14V419.31z"/>
			</g>
			<g>
				
					<linearGradient id="SVGID_42_" gradientUnits="userSpaceOnUse" x1="-78.9268" y1="1178.7227" x2="93.6735" y2="1051.6725" gradientTransform="matrix(1.3823 0 0 -1.3823 555.0984 1856.3862)">
					<stop  offset="0" style="stop-color:#FFFFFF;stop-opacity:0"/>
					<stop  offset="0.1451" style="stop-color:#FFFFFF"/>
					<stop  offset="0.8" style="stop-color:#FFFFFF"/>
					<stop  offset="1" style="stop-color:#FFFFFF;stop-opacity:0"/>
				</linearGradient>
				<path fill="url(#SVGID_42_)" d="M467.19,243.82c-1.01-3.13-1.77-5.62-2.279-7.46c-0.09-0.18-0.09-0.35,0-0.48
					c0.09-0.18,0.229-0.3,0.42-0.35c0.18-0.09,0.369-0.09,0.549,0c0.143,0.09,0.25,0.23,0.354,0.42
					c0.549,1.84,1.309,4.33,2.277,7.46c2.859,9.08,6.73,18.32,11.609,27.72c0.781,1.57,1.641,3.16,2.561,4.77
					c9.771,17.97,22.439,34.77,38.012,50.39c14.738,14.7,32.35,27.85,52.801,39.46c18.34,10.37,37.35,17.12,57.02,20.25h0.9
					c0.049,0,0.09,0,0.139,0c31.33,5.76,62.691,5.14,94.07-1.87c0.18-0.05,0.371,0,0.551,0.14c0.141,0.092,0.23,0.23,0.279,0.422
					c0.051,0.18,0.02,0.368-0.07,0.55c-0.139,0.14-0.299,0.229-0.479,0.278c-31.563,7-63.104,7.632-94.621,1.87h-0.969
					c-19.813-3.13-38.98-9.948-57.5-20.46c-20.553-11.66-38.24-24.88-53.08-39.67c-15.67-15.71-28.434-32.6-38.291-50.66h0.068
					c-0.971-1.61-1.84-3.23-2.631-4.84C473.991,262.3,470.09,252.99,467.19,243.82z"/>
			</g>
			<g>
				<path fill="#0947A3" d="M199.43,253.43c0.18,0.65,0.28,1.38,0.28,2.21c-0.09,0.88-0.39,1.68-0.9,2.42
					c-0.65,0.78-1.36,1.36-2.14,1.73c1.06,0.32,1.87,0.9,2.42,1.73c0.6,0.78,0.85,1.73,0.76,2.83c-0.18,0.88-0.48,1.73-0.9,2.56
					c-0.46,0.78-1.06,1.43-1.8,1.94c-0.88,0.51-1.82,0.81-2.83,0.9c-0.65,0.09-2.21,0.14-4.7,0.14h-6.57l2.21-18.87h7.6
					c1.52,0,2.63,0.05,3.32,0.14c0.65,0.14,1.31,0.41,2,0.83C198.65,252.35,199.07,252.83,199.43,253.43z M208.35,256.12
					l-1.31,13.75h-3.73l1.38-13.75H208.35z M204.89,254.33l0.35-3.32h3.66l-0.35,3.32H204.89z M194.25,254.12
					c-0.37-0.05-1.45-0.07-3.25-0.07h-2.21l-0.48,4.35h2.49c1.52,0,2.46,0,2.83,0c0.65-0.14,1.2-0.39,1.66-0.76
					c0.37-0.32,0.58-0.81,0.62-1.45c0-0.6-0.11-1.04-0.35-1.31C195.29,254.47,194.85,254.21,194.25,254.12z M187.89,261.58
					l-0.55,5.11H191c1.34,0,2.19-0.02,2.56-0.07c0.55-0.14,1.04-0.41,1.45-0.83c0.42-0.42,0.69-0.97,0.83-1.66
					c0.05-0.55-0.05-1.01-0.28-1.38c-0.28-0.41-0.67-0.74-1.17-0.97c-0.51-0.14-1.61-0.21-3.32-0.21h-3.18V261.58z M211.46,262.76
					c0.05-1.2,0.46-2.37,1.25-3.52c0.64-1.11,1.54-1.96,2.69-2.56s2.37-0.9,3.66-0.9c2.07,0,3.78,0.69,5.11,2.07
					c1.24,1.34,1.75,3.02,1.52,5.05c-0.18,2.12-0.99,3.87-2.42,5.25c-1.52,1.38-3.29,2.07-5.32,2.07c-1.29,0-2.47-0.3-3.52-0.9
					c-1.2-0.55-2.05-1.38-2.56-2.49C211.41,265.73,211.28,264.37,211.46,262.76z M292.46,259.23c0.65-1.11,1.57-1.96,2.76-2.56
					c1.06-0.6,2.23-0.9,3.53-0.9c2.03,0,3.73,0.69,5.11,2.07c1.34,1.34,1.98,3.02,1.94,5.05c-0.14,2.12-0.9,3.87-2.28,5.25
					c-1.38,1.38-3.11,2.07-5.18,2.07c-1.29,0-2.49-0.3-3.59-0.9c-1.15-0.55-2.03-1.38-2.63-2.49c-0.6-1.11-0.81-2.47-0.62-4.08
					C291.5,261.56,291.82,260.39,292.46,259.23z M289.08,259.03h-2.56l-0.21,5.53c-0.09,1.15-0.09,1.8,0,1.94
					c0,0.23,0.14,0.39,0.41,0.48c0.09,0.09,0.28,0.14,0.55,0.14c0.28,0,0.76-0.09,1.45-0.28l0.21,2.83
					c-0.92,0.37-1.91,0.55-2.97,0.55c-0.65,0-1.24-0.11-1.8-0.35c-0.6-0.18-0.94-0.46-1.04-0.83c-0.28-0.37-0.44-0.85-0.48-1.45
					c-0.14-0.46-0.14-1.31,0-2.56l0.21-6.01h-1.73l0.28-2.9h1.73l0.14-2.7l3.66-2.07l-0.21,4.77h2.49L289.08,259.03z M278.85,262.9
					c-0.14,2.12-0.88,3.87-2.21,5.25c-1.52,1.38-3.27,2.07-5.25,2.07c-1.38,0-2.58-0.3-3.59-0.9c-1.24-0.55-2.12-1.38-2.63-2.49
					c-0.55-1.11-0.74-2.47-0.55-4.08c0-1.2,0.35-2.37,1.04-3.52c0.65-1.11,1.52-1.96,2.63-2.56s2.37-0.9,3.8-0.9
					c2.03,0,3.69,0.69,4.98,2.07C278.3,259.19,278.89,260.87,278.85,262.9z M269.38,259.86c-0.74,0.74-1.11,1.77-1.11,3.11
					c-0.14,1.38,0.14,2.44,0.83,3.18c0.55,0.74,1.34,1.11,2.35,1.11c0.92,0,1.73-0.37,2.42-1.11c0.74-0.74,1.15-1.8,1.24-3.18
					c0-1.34-0.32-2.37-0.97-3.11c-0.55-0.74-1.29-1.11-2.21-1.11C270.92,258.75,270.07,259.12,269.38,259.86z M295.99,266.15
					c0.6,0.74,1.41,1.11,2.42,1.11c0.92,0,1.75-0.37,2.49-1.11c0.65-0.74,0.99-1.8,1.04-3.18c0.09-1.34-0.18-2.37-0.83-3.11
					c-0.65-0.74-1.43-1.11-2.35-1.11c-1.06,0-1.89,0.37-2.49,1.11c-0.74,0.74-1.11,1.77-1.11,3.11
					C295.02,264.35,295.3,265.41,295.99,266.15z M312.92,263.17l-0.21,6.7h-3.8l0.48-13.75h3.39v1.87c1.2-1.47,2.65-2.21,4.35-2.21
					c0.83,0,1.57,0.18,2.21,0.55c0.69,0.37,1.27,0.92,1.73,1.66c0.51-0.74,1.15-1.29,1.94-1.66c0.69-0.37,1.43-0.55,2.21-0.55
					c1.01,0,1.87,0.21,2.56,0.62c0.69,0.37,1.22,0.97,1.59,1.8c0.14,0.6,0.21,1.54,0.21,2.83l-0.07,8.85h-3.66l0.14-7.88
					c-0.05-1.38-0.18-2.28-0.41-2.7c-0.32-0.51-0.81-0.76-1.45-0.76c-0.6,0-1.13,0.16-1.59,0.48s-0.76,0.78-0.9,1.38
					c-0.28,0.6-0.41,1.54-0.41,2.83l-0.14,6.63h-3.59l0.14-7.6c0-1.29-0.07-2.14-0.21-2.56c-0.14-0.37-0.32-0.67-0.55-0.9
					c-0.28-0.18-0.64-0.28-1.11-0.28c-0.6,0-1.11,0.16-1.52,0.48c-0.51,0.32-0.83,0.76-0.97,1.31
					C313.04,260.89,312.92,261.84,312.92,263.17z M233.65,259.51h2.07c1.47,0,2.53-0.11,3.18-0.35c0.46-0.23,0.88-0.55,1.24-0.97
					c0.32-0.42,0.51-0.9,0.55-1.45c0-0.69-0.16-1.271-0.48-1.73c-0.42-0.41-0.92-0.67-1.52-0.76c-0.46-0.09-1.36-0.14-2.7-0.14
					h-1.87L233.65,259.51z M235.93,262.69h-2.56l-0.55,7.19h-3.94l1.59-18.87h6.22c2.26,0,3.78,0.09,4.56,0.28
					c1.01,0.28,1.87,0.9,2.56,1.87c0.55,0.83,0.81,2,0.76,3.53c-0.09,1.2-0.37,2.19-0.83,2.97c-0.51,0.78-1.06,1.41-1.66,1.87
					c-0.74,0.46-1.45,0.78-2.14,0.97C238.97,262.62,237.63,262.69,235.93,262.69z M218.99,258.75c-1.06,0-1.89,0.37-2.49,1.11
					c-0.83,0.74-1.29,1.77-1.38,3.11c-0.14,1.38,0.11,2.44,0.76,3.18c0.51,0.74,1.29,1.11,2.35,1.11c0.92,0,1.77-0.37,2.56-1.11
					c0.69-0.74,1.08-1.8,1.17-3.18c0.09-1.34-0.14-2.37-0.69-3.11C220.63,259.12,219.87,258.75,218.99,258.75z M258.74,256.26
					c0.65,0.32,1.13,0.71,1.45,1.18c0.28,0.46,0.51,1.01,0.69,1.66c0.09,0.55,0.09,1.45,0,2.69l-0.55,8.09h-3.66l0.48-7.26
					c0.09-1.47,0.09-2.4,0-2.76c-0.18-0.41-0.42-0.71-0.69-0.9c-0.42-0.28-0.88-0.41-1.38-0.41c-0.65,0-1.2,0.16-1.66,0.48
					c-0.51,0.32-0.88,0.76-1.11,1.31c-0.28,0.55-0.46,1.43-0.55,2.63l-0.42,6.91h-3.73l1.38-18.87h3.66l-0.55,6.84
					c1.24-1.38,2.74-2.07,4.49-2.07C257.28,255.78,258,255.94,258.74,256.26z M381.07,259.1c-0.55,0-0.97,0.14-1.24,0.41
					c-0.42,0.23-0.69,0.71-0.83,1.45c-0.28,0.78-0.37,2.35-0.28,4.7l0.14,4.22h-3.8l-0.14-13.75h3.46v1.94
					c0.55-0.92,1.06-1.54,1.52-1.87c0.42-0.28,0.94-0.41,1.59-0.41c0.83,0,1.64,0.23,2.42,0.69l-1.11,3.18
					C382.2,259.28,381.62,259.1,381.07,259.1z M348.24,256.12h1.73l0.07-2.7l3.59-2.07l-0.07,4.77h2.56v2.9h-2.49v5.53
					c-0.05,1.15-0.02,1.8,0.07,1.94c0,0.23,0.14,0.39,0.41,0.48c0.09,0.09,0.28,0.14,0.55,0.14c0.28,0,0.76-0.09,1.45-0.28
					l0.41,2.83c-0.97,0.37-1.96,0.55-2.97,0.55c-0.69,0-1.29-0.11-1.8-0.35c-0.64-0.18-1.04-0.46-1.17-0.83
					c-0.32-0.37-0.51-0.85-0.55-1.45c-0.05-0.46-0.07-1.31-0.07-2.56l0.07-6.01h-1.73L348.24,256.12z M339.6,258.54
					c-0.83,0-1.48,0.32-1.94,0.97c-0.6,0.55-0.9,1.31-0.9,2.28h5.53c0-1.06-0.21-1.87-0.62-2.42
					C341.08,258.82,340.39,258.54,339.6,258.54z M344.3,257.85c1.11,1.34,1.64,3.39,1.59,6.15h-9.12c-0.05,1.11,0.25,1.98,0.9,2.63
					c0.46,0.55,1.15,0.83,2.07,0.83c0.55,0,1.06-0.16,1.52-0.48c0.37-0.32,0.65-0.81,0.83-1.45l3.66,0.62
					c-0.51,1.29-1.22,2.3-2.14,3.04c-1.15,0.69-2.46,1.04-3.94,1.04c-2.49,0-4.26-0.78-5.32-2.35c-0.97-1.24-1.43-2.83-1.38-4.77
					c0-2.3,0.65-4.08,1.94-5.32c1.2-1.34,2.72-2,4.56-2C341.49,255.78,343.1,256.47,344.3,257.85z M367.04,259.37
					c-0.6-0.55-1.29-0.83-2.07-0.83c-0.83,0-1.5,0.32-2,0.97c-0.51,0.55-0.76,1.31-0.76,2.28h5.6
					C367.75,260.73,367.5,259.93,367.04,259.37z M360.2,257.78c1.15-1.34,2.67-2,4.56-2c2.03,0,3.66,0.69,4.91,2.07
					c1.11,1.34,1.66,3.39,1.66,6.15h-9.19c-0.05,1.11,0.25,1.98,0.9,2.63c0.6,0.55,1.34,0.83,2.21,0.83c0.55,0,1.04-0.16,1.45-0.48
					c0.37-0.32,0.65-0.81,0.83-1.45l3.73,0.62c-0.46,1.29-1.2,2.3-2.21,3.04c-1.06,0.69-2.33,1.04-3.8,1.04
					c-2.49,0-4.31-0.78-5.46-2.35c-0.97-1.24-1.43-2.83-1.38-4.77C358.36,260.8,358.95,259.03,360.2,257.78z"/>
			</g>
		</g>
		<g>
			<path fill="#0947A3" d="M518.61,402.1c0,4.521-0.709,8.75-2.141,12.722c-1.34,3.729-3.318,7.188-5.939,10.37
				c-0.18,0.229-0.369,0.46-0.549,0.688c-0.74,0.83-1.5,1.64-2.281,2.42c-0.42,0.41-0.85,0.852-1.311,1.312
				c-3.59,3.27-7.529,5.71-11.818,7.33c-4.051,1.52-8.432,2.278-13.131,2.278c-4.65,0-9.01-0.76-13.061-2.278
				c-4.84-1.802-9.24-4.682-13.199-8.642c-7.23-7.229-10.85-15.97-10.85-26.2c0-5.068,0.88-9.75,2.63-14.028
				c1.8-4.472,4.541-8.552,8.22-12.23c7.279-7.28,16.039-10.92,26.26-10.92c6.631,0,12.65,1.54,18.041,4.63
				c2.439,1.34,4.75,3.021,6.908,5.04c0.461,0.42,0.9,0.83,1.311,1.24c1.01,1.01,1.961,2.05,2.83,3.109
				C515.92,385.53,518.61,393.25,518.61,402.1z"/>
		</g>
		<g>
			<path fill="#0947A3" d="M679.03,465.48c0,10.278-3.641,19.028-10.92,26.26c-7.23,7.278-15.99,10.92-26.26,10.92
				c-10.23,0-18.98-3.641-26.26-10.92c-7.23-7.23-10.85-15.99-10.85-26.26c0-10.23,3.619-18.98,10.85-26.262
				c7.279-7.229,16.039-10.85,26.26-10.85c10.279,0,19.029,3.62,26.26,10.85C675.389,446.49,679.03,455.25,679.03,465.48z"/>
		</g>
		<g>
			<path fill="#D8D8D8" d="M592.29,446.95c0,4.05-0.58,7.898-1.73,11.54c-1.75,5.438-4.809,10.34-9.188,14.72
				c-7.23,7.28-15.99,10.92-26.26,10.92c-10.23,0-18.98-3.64-26.262-10.92c-7.279-7.28-10.92-16.04-10.92-26.26
				c0-10.23,3.643-18.98,10.92-26.26c7.279-7.28,16.039-10.922,26.262-10.922c10.277,0,19.027,3.642,26.26,10.922
				c4.381,4.38,7.438,9.31,9.188,14.79C591.709,439.07,592.29,442.9,592.29,446.95z"/>
			
				<path fill="none" stroke="#0947A3" stroke-width="0.1" stroke-linecap="round" stroke-linejoin="round" stroke-miterlimit="3" d="
				M592.29,446.95c0,4.05-0.58,7.898-1.73,11.54c-1.75,5.438-4.809,10.34-9.188,14.72c-7.23,7.28-15.99,10.92-26.26,10.92
				c-10.23,0-18.98-3.64-26.262-10.92c-7.279-7.28-10.92-16.04-10.92-26.26c0-10.23,3.643-18.98,10.92-26.26
				c7.279-7.28,16.039-10.922,26.262-10.922c10.277,0,19.027,3.642,26.26,10.922c4.381,4.38,7.438,9.31,9.188,14.79
				C591.709,439.07,592.29,442.9,592.29,446.95z"/>
		</g>
	</g>
</g>
</svg>
