<?xml version="1.0" encoding="utf-8"?>
<!-- Generator: Adobe Illustrator 16.0.0, SVG Export Plug-In . SVG Version: 6.00 Build 0)  -->
<!DOCTYPE svg PUBLIC "-//W3C//DTD SVG 1.1//EN" "http://www.w3.org/Graphics/SVG/1.1/DTD/svg11.dtd">
<svg version="1.1" id="Layer_1" xmlns="http://www.w3.org/2000/svg" xmlns:xlink="http://www.w3.org/1999/xlink" x="0px" y="0px"
	 width="70.67px" height="285.67px" viewBox="0 0 70.67 285.67" enable-background="new 0 0 70.67 285.67" xml:space="preserve">
<path fill-rule="evenodd" clip-rule="evenodd" fill="none" stroke="#000000" stroke-width="4" stroke-linecap="round" stroke-linejoin="round" stroke-miterlimit="3" d="
	M54.2,12.37c-1.3-10.27-4.6-11.27-9.9-3c-5.37,8.3-10.48,15.98-15.35,23.05c-4.87,7.03-8.47,11.43-10.8,13.2
	c-2.33,1.7-3.75,6.45-4.25,14.25c-0.53,7.73-0.17,18.88,1.1,33.45c0.43,5.23,1.13,10.73,2.1,16.5c0.6,7.7,0.15,15.1-1.35,22.2
	c-10.47,44.23-7.4,85.13,9.2,122.7c3.63,6.3,1.8,11.38-5.5,15.25c-4.43,2.73-4.9,5.63-1.4,8.7c7.13,5.4,13.05,3.28,17.75-6.35
	c2.7-5.77,5.63-8.82,8.8-9.15c3.83-0.5,8.23-3.32,13.2-8.45c4.97-5.17,7.62-4.4,7.95,2.3"/>
</svg>
