<?xml version="1.0" encoding="utf-8"?>
<!-- Generator: Adobe Illustrator 16.0.0, SVG Export Plug-In . SVG Version: 6.00 Build 0)  -->
<!DOCTYPE svg PUBLIC "-//W3C//DTD SVG 1.1//EN" "http://www.w3.org/Graphics/SVG/1.1/DTD/svg11.dtd">
<svg version="1.1" xmlns="http://www.w3.org/2000/svg" xmlns:xlink="http://www.w3.org/1999/xlink" x="0px" y="0px" width="78.63px"
	 height="42.25px" viewBox="0 0 78.63 42.25" enable-background="new 0 0 78.63 42.25" xml:space="preserve">
<g id="Layer_2">
	<g>
		<g>
			<path fill-rule="evenodd" clip-rule="evenodd" fill="#FFFFFF" fill-opacity="0.498" d="M77.7,20.73c-0.2-4.53-1.93-8.43-5.2-11.7
				c-3.43-3.43-7.58-5.15-12.45-5.15h-41.2c-4.87,0-9.03,1.72-12.5,5.15c-3.23,3.27-4.93,7.17-5.1,11.7
				c-0.03-0.3-0.05-0.58-0.05-0.85c0-4.87,1.72-9.03,5.15-12.5c3.47-3.43,7.63-5.15,12.5-5.15h41.2c4.87,0,9.02,1.72,12.45,5.15
				c3.47,3.47,5.2,7.63,5.2,12.5C77.7,20.14,77.7,20.42,77.7,20.73z"/>
			<path fill-rule="evenodd" clip-rule="evenodd" fill-opacity="0.3412" d="M77.7,20.73c-0.2,4.5-1.93,8.37-5.2,11.6
				c-3.43,3.47-7.58,5.2-12.45,5.2h-41.2c-4.87,0-9.03-1.73-12.5-5.2c-3.23-3.23-4.93-7.1-5.1-11.6c0.17-4.53,1.87-8.43,5.1-11.7
				c3.47-3.43,7.63-5.15,12.5-5.15h41.2c4.87,0,9.02,1.72,12.45,5.15C75.77,12.29,77.5,16.19,77.7,20.73z"/>
		</g>
		<g>
			<path fill-rule="evenodd" clip-rule="evenodd" fill="#042557" d="M60.05,6.38c4.87,0,9.02,1.72,12.45,5.15
				c3.47,3.47,5.2,7.63,5.2,12.5s-1.73,9.02-5.2,12.45c-3.43,3.47-7.58,5.2-12.45,5.2h-41.2c-4.87,0-9.03-1.73-12.5-5.2
				C2.92,33.04,1.2,28.89,1.2,24.02s1.72-9.03,5.15-12.5c3.47-3.43,7.63-5.15,12.5-5.15H60.05z"/>
		</g>
		<g>
			<path fill-rule="evenodd" clip-rule="evenodd" fill="#74ABFF" d="M60.05,5.17c4.87,0,9.02,1.72,12.45,5.15
				c3.47,3.47,5.2,7.63,5.2,12.5s-1.73,9.02-5.2,12.45c-3.43,3.47-7.58,5.2-12.45,5.2h-41.2c-4.87,0-9.03-1.73-12.5-5.2
				C2.92,31.84,1.2,27.69,1.2,22.83s1.72-9.03,5.15-12.5c3.47-3.43,7.63-5.15,12.5-5.15H60.05z"/>
		</g>
		<g>
			<path fill-rule="evenodd" clip-rule="evenodd" fill="#033E97" d="M60.05,4.38c4.87,0,9.02,1.72,12.45,5.15
				c3.47,3.47,5.2,7.63,5.2,12.5s-1.73,9.02-5.2,12.45c-3.43,3.47-7.58,5.2-12.45,5.2h-41.2c-4.87,0-9.03-1.73-12.5-5.2
				C2.92,31.04,1.2,26.89,1.2,22.02s1.72-9.03,5.15-12.5c3.47-3.43,7.63-5.15,12.5-5.15H60.05z"/>
		</g>
	</g>
</g>
<g id="Layer_1">
</g>
</svg>
