<?xml version="1.0" encoding="utf-8"?>
<!-- Generator: Adobe Illustrator 16.0.0, SVG Export Plug-In . SVG Version: 6.00 Build 0)  -->
<!DOCTYPE svg PUBLIC "-//W3C//DTD SVG 1.1//EN" "http://www.w3.org/Graphics/SVG/1.1/DTD/svg11.dtd">
<svg version="1.1" id="Layer_2" xmlns="http://www.w3.org/2000/svg" xmlns:xlink="http://www.w3.org/1999/xlink" x="0px" y="0px"
	 width="234.83px" height="182.25px" viewBox="0 0 234.83 182.25" enable-background="new 0 0 234.83 182.25" xml:space="preserve">
<g>
	<g>
		
			<rect x="1.65" y="2.35" fill-rule="evenodd" clip-rule="evenodd" fill="#FFFFFF" fill-opacity="0.0863" width="230.75" height="177.55"/>
	</g>
	<g>
		
			<path fill-rule="evenodd" clip-rule="evenodd" fill="none" stroke="#FFFFFF" stroke-linecap="round" stroke-linejoin="round" stroke-miterlimit="3" d="
			M158.85,94.35h54.25V50.1h-17.6v-6.2h-2c-0.07,0.2-0.15,0.37-0.25,0.5c-0.23,0.3-0.43,0.62-0.6,0.95
			c-1.57,2.37-3.35,3.95-5.35,4.75c-0.17,0.07-0.35,0.13-0.55,0.2c-0.07,0-0.13,0-0.2,0c-4.57,0.33-7.87-4.08-9.9-13.25
			c0-0.03,0-0.07,0-0.1c-0.33-1.5-0.5-3.1-0.5-4.8c0-3.9,0.83-7.25,2.5-10.05c1.67-2.73,3.68-4.1,6.05-4.1
			c2.37,0,4.38,1.37,6.05,4.1c1.7,2.8,2.55,6.15,2.55,10.05c0,1.7-0.17,3.3-0.5,4.8c-0.4,1.93-1.08,3.68-2.05,5.25
			c-0.2,0.37-0.4,0.7-0.6,1c-0.07,0.07-0.23,0.3-0.5,0.7h3.85c1.03-1.93,1.75-4.05,2.15-6.35c0.3-1.57,0.45-3.22,0.45-4.95
			c0-4.97-1.15-9.22-3.45-12.75c-2.3-3.53-5.07-5.3-8.3-5.3s-6,1.77-8.3,5.3s-3.45,7.78-3.45,12.75c0,1.73,0.13,3.38,0.4,4.95
			c0.43,2.3,1.18,4.42,2.25,6.35h-2.65v6.2h-24.1l-4.95-4.15v32.9 M138.55,50l5-4.05V27.7H44.4v17.9c2.43,0.03,4.52,0.77,6.25,2.2
			c1.73,1.5,2.6,3.28,2.6,5.35c0,2.1-0.87,3.88-2.6,5.35c-1.73,1.43-3.82,2.18-6.25,2.25v25.2h15 M130.7,91.6V50.1h7.5
			 M143.55,107.85v27.55H118.9l-0.25,9h0.05l3.3-4.15 M44.4,60.75c-0.03,0-0.08,0-0.15,0c-2.5,0-4.63-0.75-6.4-2.25
			c-1.73-1.47-2.6-3.25-2.6-5.35c0-2.07,0.87-3.85,2.6-5.35c1.77-1.47,3.9-2.2,6.4-2.2c0.07,0,0.12,0,0.15,0 M31.8,85.95h12.6
			 M39.4,121.1l5-2.95v-29h-6.15 M134.3,147.95l-4.1,10.3l-8.45-10.3l-5.95,10.3l-7.6-10.3l-5.7,10.3l-7.8-10.3l-5.9,10.3
			l-6.45-10.3H82.3l-8.3,10.3l-6.4-10.85l-5.9,7.4H44.4v-28.25l-5-2.75 M44.4,118.15l5,2.95 M49.4,124.35l-5,2.2 M44.4,89.15h7.05
			 M115.55,140.4l3.1,4"/>
	</g>
	<g>
		<g>
			<path fill-rule="evenodd" clip-rule="evenodd" fill="#FFFFFF" d="M143.55,82.05c-1.03,0-1.93-0.32-2.7-0.95
				c-0.7-0.63-1.05-1.38-1.05-2.25c0-0.9,0.35-1.67,1.05-2.3c0.77-0.6,1.67-0.9,2.7-0.9c1.07,0,1.97,0.3,2.7,0.9
				c0.77,0.63,1.15,1.4,1.15,2.3c0,0.87-0.38,1.62-1.15,2.25C145.52,81.73,144.62,82.05,143.55,82.05z"/>
		</g>
		<g>
			<path fill-rule="evenodd" clip-rule="evenodd" fill="#FFFFFF" d="M140.85,111.55c-0.7-0.6-1.05-1.35-1.05-2.25
				c0-0.87,0.35-1.62,1.05-2.25c0.77-0.63,1.67-0.95,2.7-0.95c1.07,0,1.97,0.32,2.7,0.95c0.77,0.63,1.15,1.38,1.15,2.25
				c0,0.9-0.38,1.65-1.15,2.25c-0.73,0.63-1.63,0.95-2.7,0.95C142.52,112.5,141.62,112.18,140.85,111.55z"/>
		</g>
		<g>
			<path fill-rule="evenodd" clip-rule="evenodd" fill="#FFFFFF" d="M158.2,91.4c1.07,0,1.97,0.3,2.7,0.9
				c0.77,0.63,1.15,1.38,1.15,2.25c0,0.9-0.38,1.65-1.15,2.25c-0.73,0.63-1.63,0.95-2.7,0.95c-1.03,0-1.93-0.32-2.7-0.95
				c-0.73-0.6-1.1-1.35-1.1-2.25c0-0.87,0.37-1.62,1.1-2.25C156.27,91.7,157.17,91.4,158.2,91.4z"/>
		</g>
		<g>
			<path fill-rule="evenodd" clip-rule="evenodd" fill="#FFFFFF" d="M131.2,91.4c1.1,0,2,0.3,2.7,0.9c0.77,0.63,1.15,1.38,1.15,2.25
				c0,0.9-0.38,1.65-1.15,2.25c-0.7,0.63-1.6,0.95-2.7,0.95c-1.03,0-1.92-0.32-2.65-0.95c-0.73-0.6-1.1-1.35-1.1-2.25
				c0-0.87,0.37-1.62,1.1-2.25C129.28,91.7,130.17,91.4,131.2,91.4z"/>
		</g>
	</g>
	<g>
		<rect x="37.4" y="44.98" fill="none" width="61.01" height="14.03"/>
		<text transform="matrix(1.1934 0 0 1 39.3999 54.7227)" fill="#FFFFFF" font-family="'ArialMT'" font-size="10.814">A</text>
		<rect x="17.45" y="79.38" fill="none" width="61.01" height="14.03"/>
		<text transform="matrix(1.1934 0 0 1 19.4502 89.1226)" fill="#FFFFFF" font-family="'ArialMT'" font-size="10.814">E</text>
		<rect x="17.45" y="114.78" fill="none" width="61.01" height="14.03"/>
		<text transform="matrix(1.1934 0 0 1 19.4502 124.5234)" fill="#FFFFFF" font-family="'ArialMT'" font-size="10.814">K</text>
		<rect x="90.25" y="159.03" fill="none" width="61.01" height="14.03"/>
		<text transform="matrix(1.1934 0 0 1 92.25 168.7734)" fill="#FFFFFF" font-family="'ArialMT'" font-size="10.814">R</text>
	</g>
	<g>
		<path fill-rule="evenodd" clip-rule="evenodd" fill="#CCCCCC" d="M58.3,12.95c0-0.3,0.15-0.55,0.45-0.75
			c0.27-0.23,0.6-0.35,1-0.35c0.43,0,0.78,0.12,1.05,0.35c0.3,0.2,0.45,0.45,0.45,0.75c0,0.3-0.15,0.53-0.45,0.7
			C60.53,13.88,60.18,14,59.75,14c-0.4,0-0.73-0.12-1-0.35C58.45,13.48,58.3,13.25,58.3,12.95z M66.95,12.6h0.3V15h2.1v0.65h-2.1v4
			c0,0.37,0.03,0.6,0.1,0.7c0.03,0.13,0.12,0.23,0.25,0.3c0.1,0.07,0.2,0.1,0.3,0.1c0.43,0,0.82-0.23,1.15-0.7l0.3,0.15
			c-0.5,0.9-1.32,1.35-2.45,1.35c-0.57,0-1.05-0.13-1.45-0.4c-0.37-0.2-0.6-0.45-0.7-0.75c-0.03-0.17-0.05-0.58-0.05-1.25v-3.5
			h-1.15V15.4c0.77-0.37,1.43-0.78,2-1.25C66.08,13.68,66.55,13.17,66.95,12.6z M47.05,18.95V16.4c0-0.5-0.05-0.82-0.15-0.95
			c-0.13-0.1-0.4-0.17-0.8-0.2V15h3.6v4.35c0,0.47,0.02,0.77,0.05,0.9c0.07,0.17,0.17,0.28,0.3,0.35c0.13,0.07,0.28,0.1,0.45,0.1
			c0.23,0,0.45-0.05,0.65-0.15c0.23-0.13,0.52-0.37,0.85-0.7V16.4c0-0.5-0.05-0.82-0.15-0.95c-0.13-0.1-0.4-0.17-0.8-0.2V15h3.6
			v5.05c0,0.47,0.05,0.77,0.15,0.9c0.13,0.1,0.38,0.17,0.75,0.2v0.3H52V20.6c-0.4,0.33-0.82,0.6-1.25,0.8
			c-0.43,0.17-0.9,0.25-1.4,0.25s-0.93-0.13-1.3-0.4c-0.4-0.2-0.67-0.43-0.8-0.7C47.12,20.22,47.05,19.68,47.05,18.95z M44.25,19.95
			c-0.43,0.57-0.97,0.98-1.6,1.25c-0.6,0.3-1.23,0.45-1.9,0.45c-1.2,0-2.13-0.33-2.8-1c-0.73-0.63-1.1-1.42-1.1-2.35
			c0-0.87,0.32-1.63,0.95-2.3c0.8-0.83,1.87-1.25,3.2-1.25c0.93,0,1.65,0.18,2.15,0.55c0.53,0.33,0.8,0.7,0.8,1.1
			c0,0.3-0.12,0.52-0.35,0.65c-0.2,0.13-0.47,0.2-0.8,0.2c-0.37,0-0.67-0.08-0.9-0.25c-0.27-0.17-0.42-0.48-0.45-0.95
			c-0.03-0.3-0.13-0.5-0.3-0.6c-0.13-0.1-0.3-0.15-0.5-0.15c-0.27,0-0.53,0.1-0.8,0.3c-0.33,0.37-0.5,0.92-0.5,1.65
			c0,0.6,0.15,1.18,0.45,1.75c0.23,0.57,0.6,0.97,1.1,1.2c0.33,0.23,0.73,0.35,1.2,0.35c0.27,0,0.55-0.07,0.85-0.2
			c0.3-0.1,0.63-0.28,1-0.55L44.25,19.95z M35.05,15.05c0.27,0.13,0.4,0.35,0.4,0.65c0,0.3-0.13,0.53-0.4,0.7
			c-0.17,0.2-0.4,0.3-0.7,0.3c-0.33,0-0.62-0.08-0.85-0.25c-0.23-0.17-0.38-0.25-0.45-0.25c-0.03-0.03-0.1-0.05-0.2-0.05
			c-0.2,0-0.37,0.05-0.5,0.15c-0.23,0.13-0.43,0.35-0.6,0.65c-0.17,0.47-0.25,0.95-0.25,1.45v1.9c0,0.27,0.02,0.43,0.05,0.5
			c0.07,0.13,0.17,0.22,0.3,0.25c0.13,0.07,0.4,0.1,0.8,0.1v0.3H27.9v-0.3c0.37,0,0.63-0.07,0.8-0.2c0.1-0.13,0.15-0.48,0.15-1.05
			v-3.55c0-0.37-0.03-0.6-0.1-0.7c-0.03-0.13-0.1-0.23-0.2-0.3c-0.13-0.03-0.35-0.07-0.65-0.1V15h3.6v1.45
			c0.57-0.67,1.07-1.1,1.5-1.3c0.43-0.27,0.83-0.4,1.2-0.4C34.6,14.75,34.88,14.85,35.05,15.05z M61.1,20.1
			c0,0.47,0.07,0.75,0.2,0.85c0.13,0.13,0.4,0.2,0.8,0.2v0.3h-4.75v-0.3c0.43,0,0.72-0.07,0.85-0.2c0.17-0.1,0.25-0.38,0.25-0.85
			v-3.8c0-0.43-0.08-0.72-0.25-0.85c-0.13-0.13-0.42-0.2-0.85-0.2V15h3.75V20.1z M91.25,13.65C90.98,13.88,90.63,14,90.2,14
			c-0.37,0-0.7-0.12-1-0.35c-0.3-0.17-0.45-0.4-0.45-0.7c0-0.3,0.15-0.55,0.45-0.75c0.3-0.23,0.63-0.35,1-0.35
			c0.43,0,0.78,0.12,1.05,0.35c0.3,0.2,0.45,0.45,0.45,0.75C91.7,13.25,91.55,13.48,91.25,13.65z M81.25,12.1h3.95v7.35
			c0,0.53,0,0.83,0,0.9c0.03,0.2,0.12,0.33,0.25,0.4c0.17,0.07,0.43,0.1,0.8,0.1v0.25l-3.7,0.55V20.6c-0.43,0.4-0.82,0.68-1.15,0.85
			c-0.4,0.13-0.82,0.2-1.25,0.2c-1.1,0-1.98-0.37-2.65-1.1c-0.53-0.6-0.8-1.35-0.8-2.25c0-0.7,0.17-1.32,0.5-1.85
			c0.33-0.57,0.8-0.98,1.4-1.25c0.5-0.3,1.1-0.45,1.8-0.45c0.4,0,0.77,0.08,1.1,0.25c0.3,0.1,0.65,0.3,1.05,0.6v-1.95
			c0-0.47-0.03-0.77-0.1-0.9c-0.1-0.13-0.22-0.23-0.35-0.3c-0.13-0.03-0.42-0.05-0.85-0.05V12.1z M88.9,16.3
			c0-0.43-0.07-0.72-0.2-0.85s-0.42-0.2-0.85-0.2V15h3.7v5.1c0,0.47,0.08,0.75,0.25,0.85c0.13,0.13,0.38,0.2,0.75,0.2v0.3h-4.7v-0.3
			c0.43,0,0.72-0.07,0.85-0.2c0.13-0.1,0.2-0.38,0.2-0.85V16.3z M80.25,15.6c-0.2,0.17-0.37,0.42-0.5,0.75
			c-0.17,0.37-0.25,0.92-0.25,1.65c0,0.8,0.08,1.4,0.25,1.8c0.13,0.4,0.35,0.7,0.65,0.9c0.13,0.07,0.32,0.1,0.55,0.1
			c0.57,0,1.1-0.32,1.6-0.95v-3.4c-0.5-0.67-1.08-1-1.75-1C80.6,15.45,80.42,15.5,80.25,15.6z M107.4,17.3
			c0,0.67,0.12,1.13,0.35,1.4c0.23,0.27,0.52,0.4,0.85,0.4c0.4,0,0.72-0.13,0.95-0.4c0.23-0.27,0.35-0.75,0.35-1.45
			c0-0.83-0.13-1.4-0.4-1.7c-0.2-0.23-0.47-0.35-0.8-0.35c-0.4,0-0.72,0.13-0.95,0.4C107.52,15.9,107.4,16.47,107.4,17.3z
			 M105.85,15.5c0.67-0.5,1.55-0.75,2.65-0.75c0.57,0,1.15,0.1,1.75,0.3h2.95v0.8h-1.65c0.3,0.2,0.52,0.38,0.65,0.55
			c0.13,0.27,0.2,0.53,0.2,0.8c0,0.47-0.17,0.87-0.5,1.2c-0.33,0.33-0.8,0.6-1.4,0.8c-0.57,0.17-1.1,0.25-1.6,0.25
			c-0.03,0-0.42,0-1.15,0c-0.27,0-0.48,0.07-0.65,0.2c-0.23,0.13-0.35,0.3-0.35,0.5c0,0.13,0.1,0.27,0.3,0.4
			c0.2,0.1,0.48,0.15,0.85,0.15h1.6c1.33,0,2.23,0.1,2.7,0.3c0.73,0.3,1.1,0.77,1.1,1.4c0,0.37-0.17,0.72-0.5,1.05
			c-0.33,0.3-0.77,0.52-1.3,0.65c-0.83,0.27-1.77,0.4-2.8,0.4c-0.77,0-1.48-0.05-2.15-0.15c-0.63-0.17-1.08-0.33-1.35-0.5
			c-0.3-0.2-0.45-0.42-0.45-0.65c0-0.2,0.12-0.38,0.35-0.55c0.2-0.17,0.58-0.32,1.15-0.45c-0.8-0.27-1.2-0.67-1.2-1.2
			c0-0.3,0.17-0.62,0.5-0.95c0.33-0.27,0.85-0.53,1.55-0.8c-0.8-0.2-1.38-0.48-1.75-0.85c-0.4-0.37-0.6-0.8-0.6-1.3
			C104.75,16.5,105.12,15.97,105.85,15.5z M102.6,20.35l0.3,0.2c-0.3,0.33-0.62,0.57-0.95,0.7c-0.33,0.2-0.72,0.3-1.15,0.3
			c-0.53,0-0.93-0.1-1.2-0.3c-0.23-0.17-0.4-0.42-0.5-0.75c-1.07,0.7-2.03,1.05-2.9,1.05c-0.47,0-0.87-0.13-1.2-0.4
			c-0.33-0.23-0.5-0.53-0.5-0.9c0-0.47,0.28-0.9,0.85-1.3c0.57-0.43,1.82-0.97,3.75-1.6v-0.6c0-0.5-0.03-0.82-0.1-0.95
			c-0.1-0.13-0.23-0.25-0.4-0.35c-0.2-0.1-0.42-0.15-0.65-0.15c-0.43,0-0.77,0.07-1,0.2c-0.2,0.07-0.3,0.18-0.3,0.35
			c0,0.07,0.1,0.17,0.3,0.3c0.23,0.2,0.35,0.4,0.35,0.6c0,0.23-0.12,0.42-0.35,0.55c-0.23,0.17-0.52,0.25-0.85,0.25
			c-0.4,0-0.75-0.08-1.05-0.25c-0.27-0.17-0.4-0.37-0.4-0.6c0-0.33,0.18-0.67,0.55-1c0.33-0.27,0.83-0.48,1.5-0.65
			c0.63-0.2,1.28-0.3,1.95-0.3c0.87,0,1.53,0.15,2,0.45c0.5,0.23,0.82,0.52,0.95,0.85c0.1,0.17,0.15,0.6,0.15,1.3v2.5
			c0,0.3,0,0.48,0,0.55c0.03,0.1,0.08,0.17,0.15,0.2c0.1,0.03,0.17,0.05,0.2,0.05C102.3,20.65,102.47,20.55,102.6,20.35z
			 M106.9,23.7c0.33,0.2,1.03,0.3,2.1,0.3c0.83,0,1.5-0.08,2-0.25c0.47-0.17,0.7-0.42,0.7-0.75c0-0.1-0.02-0.18-0.05-0.25
			c-0.2-0.13-0.47-0.23-0.8-0.3c-0.33-0.03-1.25-0.05-2.75-0.05c-0.6,0-1.02,0.03-1.25,0.1c-0.33,0.13-0.5,0.32-0.5,0.55
			C106.35,23.32,106.53,23.53,106.9,23.7z M97.35,20.15c0.17,0.13,0.38,0.2,0.65,0.2c0.33,0,0.7-0.13,1.1-0.4v-2.1
			c-0.73,0.3-1.28,0.63-1.65,1c-0.23,0.27-0.35,0.53-0.35,0.8C97.1,19.85,97.18,20.02,97.35,20.15z M128.05,15.3
			c-0.43,0-0.77,0.07-1,0.2c-0.2,0.07-0.3,0.18-0.3,0.35c0,0.07,0.1,0.17,0.3,0.3c0.23,0.2,0.35,0.4,0.35,0.6
			c0,0.23-0.12,0.42-0.35,0.55c-0.23,0.17-0.52,0.25-0.85,0.25c-0.4,0-0.73-0.08-1-0.25c-0.3-0.17-0.45-0.37-0.45-0.6
			c0-0.33,0.2-0.67,0.6-1c0.33-0.27,0.83-0.48,1.5-0.65c0.6-0.2,1.23-0.3,1.9-0.3c0.87,0,1.55,0.15,2.05,0.45
			c0.47,0.23,0.77,0.52,0.9,0.85c0.1,0.17,0.15,0.6,0.15,1.3v2.5c0,0.3,0,0.48,0,0.55c0.03,0.1,0.08,0.17,0.15,0.2
			c0.1,0.03,0.17,0.05,0.2,0.05c0.2,0,0.37-0.1,0.5-0.3l0.3,0.2c-0.3,0.33-0.62,0.57-0.95,0.7c-0.33,0.2-0.72,0.3-1.15,0.3
			c-0.5,0-0.9-0.1-1.2-0.3c-0.23-0.17-0.4-0.42-0.5-0.75c-1.07,0.7-2.02,1.05-2.85,1.05c-0.5,0-0.92-0.13-1.25-0.4
			c-0.33-0.23-0.5-0.53-0.5-0.9c0-0.47,0.28-0.9,0.85-1.3c0.6-0.43,1.85-0.97,3.75-1.6v-0.6c0-0.5-0.02-0.82-0.05-0.95
			c-0.1-0.13-0.25-0.25-0.45-0.35C128.5,15.35,128.28,15.3,128.05,15.3z M129.2,17.85c-0.73,0.3-1.28,0.63-1.65,1
			c-0.23,0.27-0.35,0.53-0.35,0.8c0,0.2,0.1,0.37,0.3,0.5c0.13,0.13,0.33,0.2,0.6,0.2c0.37,0,0.73-0.13,1.1-0.4V17.85z M120.3,16.2
			c-0.03-0.03-0.1-0.05-0.2-0.05c-0.2,0-0.37,0.05-0.5,0.15c-0.23,0.13-0.43,0.35-0.6,0.65c-0.17,0.47-0.25,0.95-0.25,1.45v1.9
			c0,0.27,0.02,0.43,0.05,0.5c0.07,0.13,0.17,0.22,0.3,0.25c0.13,0.07,0.4,0.1,0.8,0.1v0.3h-4.75v-0.3c0.37,0,0.63-0.07,0.8-0.2
			c0.1-0.13,0.15-0.48,0.15-1.05v-3.55c0-0.37-0.03-0.6-0.1-0.7c-0.03-0.13-0.1-0.23-0.2-0.3c-0.13-0.03-0.35-0.07-0.65-0.1V15h3.6
			v1.45c0.57-0.67,1.07-1.1,1.5-1.3c0.43-0.27,0.83-0.4,1.2-0.4c0.4,0,0.68,0.1,0.85,0.3c0.27,0.13,0.4,0.35,0.4,0.65
			c0,0.3-0.13,0.53-0.4,0.7c-0.17,0.2-0.4,0.3-0.7,0.3c-0.33,0-0.62-0.08-0.85-0.25C120.52,16.28,120.37,16.2,120.3,16.2z
			 M148.65,20c0,0.5,0.07,0.82,0.2,0.95c0.1,0.1,0.37,0.17,0.8,0.2v0.3h-4.55v-0.3c0.33,0,0.6-0.08,0.8-0.25
			c0.1-0.13,0.15-0.43,0.15-0.9v-2.75c0-0.57-0.02-0.93-0.05-1.1c-0.1-0.13-0.2-0.23-0.3-0.3c-0.17-0.13-0.33-0.2-0.5-0.2
			c-0.3,0-0.57,0.1-0.8,0.3c-0.3,0.13-0.58,0.33-0.85,0.6V20c0,0.5,0.05,0.8,0.15,0.9c0.13,0.17,0.42,0.25,0.85,0.25v0.3H140v-0.3
			c0.27,0,0.47-0.03,0.6-0.1c0.1-0.1,0.2-0.2,0.3-0.3c0-0.1,0-0.35,0-0.75v-2.75c0-0.6-0.03-0.97-0.1-1.1
			c-0.03-0.13-0.12-0.23-0.25-0.3c-0.17-0.13-0.35-0.2-0.55-0.2c-0.23,0-0.43,0.07-0.6,0.2c-0.3,0.13-0.62,0.37-0.95,0.7V20
			c0,0.47,0.05,0.77,0.15,0.9c0.13,0.17,0.4,0.25,0.8,0.25v0.3h-4.55v-0.3c0.4,0,0.67-0.08,0.8-0.25c0.1-0.1,0.15-0.4,0.15-0.9v-3.6
			c0-0.5-0.05-0.82-0.15-0.95c-0.13-0.1-0.4-0.17-0.8-0.2V15h3.6v0.85c0.47-0.4,0.9-0.67,1.3-0.8c0.43-0.2,0.88-0.3,1.35-0.3
			c0.57,0,1.05,0.12,1.45,0.35c0.37,0.17,0.65,0.47,0.85,0.9c0.47-0.43,0.95-0.73,1.45-0.9c0.4-0.23,0.87-0.35,1.4-0.35
			c0.63,0,1.12,0.12,1.45,0.35c0.37,0.2,0.63,0.47,0.8,0.8c0.1,0.3,0.15,0.78,0.15,1.45V20z M18,12.55c0.2,0,0.37-0.05,0.5-0.15
			s0.23-0.28,0.3-0.55h0.35v3.25H18.8c-0.3-0.87-0.8-1.5-1.5-1.9c-0.77-0.47-1.63-0.7-2.6-0.7c-0.77,0-1.48,0.17-2.15,0.5
			c-0.67,0.33-1.15,0.77-1.45,1.3c-0.37,0.7-0.55,1.47-0.55,2.3c0,0.87,0.15,1.63,0.45,2.3c0.27,0.7,0.68,1.23,1.25,1.6
			c0.63,0.33,1.43,0.5,2.4,0.5c0.8,0,1.53-0.13,2.2-0.4c0.67-0.27,1.37-0.72,2.1-1.35v0.85c-0.73,0.53-1.48,0.92-2.25,1.15
			c-0.77,0.27-1.65,0.4-2.65,0.4c-1.37,0-2.58-0.2-3.65-0.6c-1.03-0.43-1.82-1.02-2.35-1.75c-0.57-0.73-0.85-1.52-0.85-2.35
			c0-0.9,0.3-1.75,0.9-2.55c0.63-0.8,1.5-1.42,2.6-1.85c1.03-0.47,2.15-0.7,3.35-0.7c0.9,0,1.87,0.15,2.9,0.45
			C17.52,12.47,17.87,12.55,18,12.55z M22.75,12.2c0.27-0.23,0.6-0.35,1-0.35c0.43,0,0.78,0.12,1.05,0.35
			c0.3,0.2,0.45,0.45,0.45,0.75c0,0.3-0.15,0.53-0.45,0.7C24.53,13.88,24.18,14,23.75,14c-0.4,0-0.73-0.12-1-0.35
			c-0.3-0.17-0.45-0.4-0.45-0.7C22.3,12.65,22.45,12.4,22.75,12.2z M25.1,20.1c0,0.47,0.07,0.75,0.2,0.85
			c0.17,0.13,0.43,0.2,0.8,0.2v0.3h-4.75v-0.3c0.43,0,0.73-0.07,0.9-0.2c0.13-0.1,0.2-0.38,0.2-0.85v-3.8c0-0.43-0.07-0.72-0.2-0.85
			c-0.17-0.13-0.47-0.2-0.9-0.2V15h3.75V20.1z"/>
	</g>
	<g>
		
			<rect x="2.9" y="2.7" fill-rule="evenodd" clip-rule="evenodd" fill="none" stroke="#000000" stroke-width="2" stroke-linecap="round" stroke-linejoin="round" stroke-miterlimit="3" width="229.4" height="177.45"/>
	</g>
</g>
</svg>
