<?xml version="1.0" encoding="utf-8"?>
<!-- Generator: Adobe Illustrator 16.0.0, SVG Export Plug-In . SVG Version: 6.00 Build 0)  -->
<!DOCTYPE svg PUBLIC "-//W3C//DTD SVG 1.1//EN" "http://www.w3.org/Graphics/SVG/1.1/DTD/svg11.dtd">
<svg version="1.1" id="Layer_2" xmlns="http://www.w3.org/2000/svg" xmlns:xlink="http://www.w3.org/1999/xlink" x="0px" y="0px"
	 width="46.5px" height="44.5px" viewBox="0 0 46.5 44.5" enable-background="new 0 0 46.5 44.5" xml:space="preserve">
<g>
	<g>
		<path fill-rule="evenodd" clip-rule="evenodd" fill="#023283" d="M37,7.22c-4.2-3.73-9.18-5.59-14.93-5.59
			c-5.71,0-10.55,1.86-14.51,5.59c-2.73,2.65-4.43,5.67-5.09,9.07l-0.03,0.06c-0.14,0.82-0.25,1.6-0.35,2.34l1.22,23h41.4
			l-1.02-23.07C42.95,14.25,40.72,10.45,37,7.22z M22.04,1c5.95,0,11.09,1.93,15.43,5.78c3.85,3.34,6.15,7.28,6.92,11.82l1.03,23.41
			c0,0.09-0.03,0.16-0.09,0.22c-0.06,0.06-0.14,0.09-0.24,0.09H2.99c-0.09,0-0.18-0.03-0.25-0.09c-0.07-0.06-0.11-0.13-0.11-0.22
			L1.39,18.57c0.1-0.8,0.23-1.64,0.37-2.53c0.01-0.03,0.02-0.06,0.03-0.09c0.73-3.42,2.49-6.48,5.26-9.16
			C11.15,2.93,16.14,1,22.04,1z"/>
		<path fill-rule="evenodd" clip-rule="evenodd" fill="#C4C4C4" d="M37,7.22c3.71,3.22,5.94,7.03,6.69,11.41l1.02,23.07H3.31
			l-1.22-23c0.09-0.74,0.21-1.52,0.35-2.34l0.03-0.06c0.66-3.4,2.36-6.42,5.09-9.07c3.96-3.73,8.8-5.59,14.51-5.59
			C27.83,1.63,32.8,3.5,37,7.22z"/>
	</g>
	<g>
		<polygon fill-rule="evenodd" clip-rule="evenodd" fill="#023283" points="12.8,31.27 22.23,14.65 34.02,31.27 		"/>
	</g>
</g>
</svg>
