<?xml version="1.0" encoding="utf-8"?>
<!-- Generator: Adobe Illustrator 16.0.0, SVG Export Plug-In . SVG Version: 6.00 Build 0)  -->
<!DOCTYPE svg PUBLIC "-//W3C//DTD SVG 1.1//EN" "http://www.w3.org/Graphics/SVG/1.1/DTD/svg11.dtd">
<svg version="1.1" id="Layer_1" xmlns="http://www.w3.org/2000/svg" xmlns:xlink="http://www.w3.org/1999/xlink" x="0px" y="0px"
	 width="78.17px" height="11.92px" viewBox="0 0 78.17 11.92" enable-background="new 0 0 78.17 11.92" xml:space="preserve">
<g>
	<g>
		<path fill-rule="evenodd" clip-rule="evenodd" fill="#3F3216" d="M44.13,0.63c-0.2,0.13-0.43,0.27-0.7,0.4
			c-0.17-0.13-0.35-0.27-0.55-0.4H44.13z M34.63,1.03c-0.13-0.07-0.25-0.13-0.35-0.2c-0.1-0.07-0.2-0.13-0.3-0.2h1.6
			c-0.13,0.03-0.25,0.07-0.35,0.1c-0.07,0.03-0.15,0.07-0.25,0.1C34.85,0.9,34.73,0.97,34.63,1.03z"/>
		<linearGradient id="SVGID_1_" gradientUnits="userSpaceOnUse" x1="84.6079" y1="9.2563" x2="4.8353" y2="0.7839">
			<stop  offset="0" style="stop-color:#AEA982;stop-opacity:0.9725"/>
			<stop  offset="0.3686" style="stop-color:#373016;stop-opacity:0.9804"/>
			<stop  offset="1" style="stop-color:#685A27"/>
		</linearGradient>
		<path fill-rule="evenodd" clip-rule="evenodd" fill="url(#SVGID_1_)" d="M44.13,0.63h32.6l-1.75,7.45v0.05H37.73l2-6.25
			c0.2,0,0.4-0.02,0.6-0.05s0.4-0.05,0.6-0.05c0.1-0.03,0.2-0.05,0.3-0.05c0.17-0.03,0.33-0.07,0.5-0.1c0.2-0.07,0.4-0.12,0.6-0.15
			c0.27-0.1,0.52-0.2,0.75-0.3c0.13-0.03,0.25-0.08,0.35-0.15C43.7,0.9,43.93,0.77,44.13,0.63z M36.78,1.88l-1.95,6.25H0.73l2.3-7.5
			h30.95c0.1,0.07,0.2,0.13,0.3,0.2c0.1,0.07,0.22,0.13,0.35,0.2c0.1,0.03,0.22,0.08,0.35,0.15c0.57,0.23,1.17,0.4,1.8,0.5h0.05
			L36.78,1.88z"/>
		<polygon fill-rule="evenodd" clip-rule="evenodd" fill="#1F1B0C" points="34.83,8.13 36.78,1.88 36.78,4.93 34.73,11.33 
			34.73,8.33 		"/>
		<path fill-rule="evenodd" clip-rule="evenodd" fill="#0C0A05" d="M74.98,8.13l0.05,3.4h-25.9h-11.4v-3.4H74.98z M0.73,8.13h34.1
			l-0.1,0.2v3v0.2h-1h-33V8.13z"/>
		<polygon fill-rule="evenodd" clip-rule="evenodd" fill="#D9CBB7" points="75.03,11.53 74.98,8.13 74.98,8.08 76.73,0.63 
			77.33,0.63 		"/>
	</g>
	<g>
		<path fill-rule="evenodd" clip-rule="evenodd" fill="none" d="M37.73,8.18h37.35 M0.73,8.18h33.95"/>
	</g>
</g>
</svg>
