<?xml version="1.0" encoding="utf-8"?>
<!-- Generator: Adobe Illustrator 16.0.0, SVG Export Plug-In . SVG Version: 6.00 Build 0)  -->
<!DOCTYPE svg PUBLIC "-//W3C//DTD SVG 1.1//EN" "http://www.w3.org/Graphics/SVG/1.1/DTD/svg11.dtd">
<svg version="1.1" id="Layer_1" xmlns="http://www.w3.org/2000/svg" xmlns:xlink="http://www.w3.org/1999/xlink" x="0px" y="0px"
	 width="22px" height="25.67px" viewBox="0 0 22 25.67" enable-background="new 0 0 22 25.67" xml:space="preserve">
<g>
	<g>
		<linearGradient id="SVGID_1_" gradientUnits="userSpaceOnUse" x1="7.5337" y1="17.3252" x2="15.5337" y2="17.3252">
			<stop  offset="0" style="stop-color:#050403"/>
			<stop  offset="0.4275" style="stop-color:#C8C0A6"/>
			<stop  offset="0.7216" style="stop-color:#988C5F"/>
			<stop  offset="1" style="stop-color:#252216"/>
		</linearGradient>
		<path fill-rule="evenodd" clip-rule="evenodd" fill="url(#SVGID_1_)" d="M15.53,9.7v13.6c-0.1,0.43-0.48,0.82-1.15,1.15
			C13.62,24.82,12.67,25,11.53,25c-1.1,0-2.05-0.18-2.85-0.55c-0.67-0.33-1.05-0.73-1.15-1.2V9.65c0.1,0.47,0.48,0.87,1.15,1.2
			c0.8,0.4,1.75,0.6,2.85,0.6c1.13,0,2.08-0.2,2.85-0.6C15.05,10.52,15.43,10.13,15.53,9.7z"/>
		<path fill-rule="evenodd" clip-rule="evenodd" fill="#93875B" d="M7.53,9.65c0-0.07,0-0.12,0-0.15s0-0.07,0-0.1V9.3
			c0.1-0.47,0.48-0.87,1.15-1.2c0.8-0.37,1.75-0.55,2.85-0.55c1.13,0,2.08,0.18,2.85,0.55c0.67,0.33,1.05,0.73,1.15,1.2v0.4
			c-0.1,0.43-0.48,0.82-1.15,1.15c-0.77,0.4-1.72,0.6-2.85,0.6c-1.1,0-2.05-0.2-2.85-0.6C8.02,10.52,7.63,10.12,7.53,9.65z"/>
	</g>
	<g>
		<path fill-rule="evenodd" clip-rule="evenodd" fill="#1E1E1E" d="M10.93,12.45c-3.3-0.17-6.53-1.33-9.7-3.5v-0.1l10.65-7.8
			c4.67-0.53,7.68,0.53,9.05,3.2V4.3L10.93,12.45z"/>
		<path fill-rule="evenodd" clip-rule="evenodd" fill="#333333" d="M1.23,8.85v0.1L1.13,8.9L1.23,8.85z M9.48,13.65V13.6h0.05
			L9.48,13.65z"/>
		<path fill-rule="evenodd" clip-rule="evenodd" d="M1.23,8.95c3.17,2.17,6.4,3.33,9.7,3.5v3.45c-4.6-0.6-7.83-1.88-9.7-3.85V8.95z
			 M9.48,13.65l0.05-0.05H9.48V13.65z"/>
		<polygon fill-rule="evenodd" clip-rule="evenodd" fill="#222222" points="10.93,12.45 20.93,4.3 20.93,7.6 10.93,15.95 
			10.93,15.9 		"/>
		
			<polygon fill-rule="evenodd" clip-rule="evenodd" fill="none" stroke="#000000" stroke-width="0.1" stroke-linecap="round" stroke-linejoin="round" stroke-miterlimit="3" points="
			9.48,13.65 9.53,13.6 9.48,13.6 		"/>
	</g>
	<g>
		<radialGradient id="SVGID_2_" cx="15.6333" cy="10.3999" r="7.65" gradientUnits="userSpaceOnUse">
			<stop  offset="0" style="stop-color:#FFFFFF;stop-opacity:0.2824"/>
			<stop  offset="0.5373" style="stop-color:#FDFDFD;stop-opacity:0.102"/>
			<stop  offset="1" style="stop-color:#F9F9F9;stop-opacity:0.149"/>
		</radialGradient>
		<path fill-rule="evenodd" clip-rule="evenodd" fill="url(#SVGID_2_)" d="M11.03,12.55l-0.15,0.15l-0.15,0.1
			c0,0.03-0.02,0.03-0.05,0h-0.05c-0.03-0.03-0.05-0.07-0.05-0.1l0.05-0.05l0.25-0.2l0.1-0.1l9.6-7.8c0.03-0.03,0.07-0.05,0.1-0.05
			l0.05,0.05V4.6c0,0.03,0,0.07,0,0.1L11.03,12.55z"/>
		<radialGradient id="SVGID_3_" cx="15.8833" cy="10.1001" r="7.65" gradientUnits="userSpaceOnUse">
			<stop  offset="0" style="stop-color:#FFFFFF"/>
			<stop  offset="0.5569" style="stop-color:#FDFDFD;stop-opacity:0.6667"/>
			<stop  offset="1" style="stop-color:#F9F9F9;stop-opacity:0.149"/>
		</radialGradient>
		<path fill-rule="evenodd" clip-rule="evenodd" fill="url(#SVGID_3_)" d="M10.88,12.7l0.15-0.15v3.3c0,0.03,0,0.07,0,0.1
			c-0.03,0-0.07,0-0.1,0h-0.05c0-0.03,0-0.07,0-0.1V12.7z M10.88,12.45V12.4l0.05-0.05h0.05L10.88,12.45z"/>
	</g>
	<g>
		<radialGradient id="SVGID_4_" cx="10.7837" cy="12.3496" r="1.3" gradientUnits="userSpaceOnUse">
			<stop  offset="0" style="stop-color:#FFFFFF"/>
			<stop  offset="0.1765" style="stop-color:#FFFFFF"/>
			<stop  offset="0.3059" style="stop-color:#FFFFFF;stop-opacity:0.4235"/>
			<stop  offset="0.4902" style="stop-color:#FFFFFF;stop-opacity:0.2314"/>
			<stop  offset="0.651" style="stop-color:#FFFFFF;stop-opacity:0.0824"/>
			<stop  offset="1" style="stop-color:#FFFFFF;stop-opacity:0"/>
		</radialGradient>
		<path fill-rule="evenodd" clip-rule="evenodd" fill="url(#SVGID_4_)" d="M12.08,12.35c0,0.37-0.13,0.67-0.4,0.9
			c-0.23,0.27-0.53,0.4-0.9,0.4c-0.33,0-0.63-0.13-0.9-0.4c-0.23-0.23-0.35-0.53-0.35-0.9s0.12-0.67,0.35-0.9
			c0.27-0.27,0.57-0.4,0.9-0.4c0.37,0,0.67,0.13,0.9,0.4C11.95,11.68,12.08,11.98,12.08,12.35z"/>
	</g>
	<g>
		
			<radialGradient id="SVGID_5_" cx="5.8335" cy="11.1499" r="9.1525" gradientTransform="matrix(0.9301 0.3674 -0.0642 0.1625 1.1236 7.1948)" gradientUnits="userSpaceOnUse">
			<stop  offset="0" style="stop-color:#FFFFFF"/>
			<stop  offset="0.1765" style="stop-color:#FFFFFF"/>
			<stop  offset="0.3059" style="stop-color:#FFFFFF;stop-opacity:0.4235"/>
			<stop  offset="0.4902" style="stop-color:#FFFFFF;stop-opacity:0.2314"/>
			<stop  offset="0.651" style="stop-color:#FFFFFF;stop-opacity:0.0824"/>
			<stop  offset="1" style="stop-color:#FFFFFF;stop-opacity:0"/>
		</radialGradient>
		<path fill-rule="evenodd" clip-rule="evenodd" fill="url(#SVGID_5_)" d="M11.38,14.55c-1.8-0.4-3.83-1.05-6.1-1.95
			c-1.57-0.6-2.95-1.22-4.15-1.85v-2.1l1.35-0.3C3.72,8.68,5.03,9.13,6.43,9.7c2.27,0.9,4.18,1.83,5.75,2.8
			c1.57,0.93,2.28,1.6,2.15,2C14.17,14.9,13.18,14.92,11.38,14.55z"/>
	</g>
</g>
</svg>
