<?xml version="1.0" encoding="utf-8"?>
<!-- Generator: Adobe Illustrator 16.0.0, SVG Export Plug-In . SVG Version: 6.00 Build 0)  -->
<!DOCTYPE svg PUBLIC "-//W3C//DTD SVG 1.1//EN" "http://www.w3.org/Graphics/SVG/1.1/DTD/svg11.dtd">
<svg version="1.1" id="Layer_1" xmlns="http://www.w3.org/2000/svg" xmlns:xlink="http://www.w3.org/1999/xlink" x="0px" y="0px"
	 width="4.67px" height="42.81px" viewBox="0 0 4.67 42.81" enable-background="new 0 0 4.67 42.81" xml:space="preserve">
<symbol  id="glacee" viewBox="-2.3 -2.35 4.65 4.65">
	<g id="Layer_1_2_">
		<g>
			<radialGradient id="SVGID_1_" cx="0" cy="0" r="2.3625" gradientUnits="userSpaceOnUse">
				<stop  offset="0" style="stop-color:#FFFFFF"/>
				<stop  offset="0.1765" style="stop-color:#FFFFFF"/>
				<stop  offset="0.3059" style="stop-color:#FFFFFF;stop-opacity:0.4235"/>
				<stop  offset="0.4902" style="stop-color:#FFFFFF;stop-opacity:0.2314"/>
				<stop  offset="0.651" style="stop-color:#FFFFFF;stop-opacity:0.0824"/>
				<stop  offset="1" style="stop-color:#FFFFFF;stop-opacity:0"/>
			</radialGradient>
			<path fill-rule="evenodd" clip-rule="evenodd" fill="url(#SVGID_1_)" d="M1.65,1.6c0.47-0.43,0.7-0.97,0.7-1.6
				c0-0.67-0.23-1.22-0.7-1.65C1.18-2.12,0.63-2.35,0-2.35s-1.18,0.23-1.65,0.7C-2.08-1.22-2.3-0.67-2.3,0
				c0,0.63,0.22,1.17,0.65,1.6C-1.18,2.07-0.63,2.3,0,2.3S1.18,2.07,1.65,1.6z"/>
		</g>
	</g>
</symbol>
<g>
	<g>
		<g>
			<polygon fill-rule="evenodd" clip-rule="evenodd" fill="#BCC1C0" points="2.47,12.85 2.42,12.85 1.97,12.65 2.22,12.65 
				2.22,12.7 2.32,12.7 			"/>
			<g>
				<polygon fill-rule="evenodd" clip-rule="evenodd" fill="#696969" points="1.52,0.95 1.57,0.75 1.82,1.25 1.82,1.35 1.82,1.4 
					2.22,13 2.12,13 2.02,12.95 1.82,12.95 1.37,1.35 				"/>
			</g>
			<g>
				<path fill-rule="evenodd" clip-rule="evenodd" fill="#A0A09B" d="M2.42,12.85L2.47,16c0,0.07,0,0.12,0,0.15l0.25,5.5l-0.8,0.05
					l-0.3-8.85l0.35-0.2l0.35,0.2H2.42z"/>
				<path fill-rule="evenodd" clip-rule="evenodd" fill="#FFFFFF" d="M2.42,12.85h0.05l0.4,8.8H2.72l-0.25-5.5c0-0.03,0-0.08,0-0.15
					L2.42,12.85z"/>
			</g>
		</g>
		
			<use xlink:href="#glacee"  width="4.65" height="4.65" x="-2.3" y="-2.35" transform="matrix(-1.960807e-003 -0.0533 -0.0795 2.925733e-003 1.9663 12.7002)" overflow="visible"/>
	</g>
	<g>
		<g>
			<polygon fill-rule="evenodd" clip-rule="evenodd" fill="#BCC1C0" points="2.32,30.2 2.17,30.05 2.22,30.05 2.67,30.25 
				2.42,30.25 2.42,30.2 			"/>
			<g>
				<polygon fill-rule="evenodd" clip-rule="evenodd" fill="#696969" points="3.07,42.15 2.82,41.65 2.82,41.55 2.82,41.5 
					2.42,29.9 2.52,29.9 2.62,29.95 2.82,29.95 3.27,41.55 3.12,41.95 				"/>
			</g>
			<g>
				<path fill-rule="evenodd" clip-rule="evenodd" fill="#FFFFFF" d="M2.22,30.05H2.17l-0.4-8.8h0.15l0.25,5.5c0,0.03,0,0.08,0,0.15
					L2.22,30.05z"/>
				<path fill-rule="evenodd" clip-rule="evenodd" fill="#A0A09B" d="M1.92,21.25l0.8-0.05l0.3,8.85l-0.35,0.2l-0.35-0.2h-0.1
					L2.17,26.9c0-0.07,0-0.12,0-0.15L1.92,21.25z"/>
			</g>
		</g>
		
			<use xlink:href="#glacee"  width="4.65" height="4.65" x="-2.3" y="-2.35" transform="matrix(1.960807e-003 0.0533 0.0795 -2.925735e-003 2.6665 30.2002)" overflow="visible"/>
	</g>
</g>
</svg>
