<?xml version="1.0" encoding="utf-8"?>
<!-- Generator: Adobe Illustrator 16.0.0, SVG Export Plug-In . SVG Version: 6.00 Build 0)  -->
<!DOCTYPE svg PUBLIC "-//W3C//DTD SVG 1.1//EN" "http://www.w3.org/Graphics/SVG/1.1/DTD/svg11.dtd">
<svg version="1.1" id="Layer_1" xmlns="http://www.w3.org/2000/svg" xmlns:xlink="http://www.w3.org/1999/xlink" x="0px" y="0px"
	 width="315.5px" height="230px" viewBox="0 0 315.5 230" enable-background="new 0 0 315.5 230" xml:space="preserve">
<g>
	<g>
		
			<path fill-rule="evenodd" clip-rule="evenodd" fill="none" stroke="#000000" stroke-width="4" stroke-linecap="round" stroke-linejoin="round" stroke-miterlimit="3" stroke-opacity="0.251" d="
			M185.23,223.38c54.94,0.47,89.26-4.5,102.97-14.9c25.47-20.43,28.37-38.73,8.7-54.9c-28.76-9.62-84.69-19.87-167.78-30.75
			C48.51,111.13,12.91,84.61,22.34,43.29c-0.02-5.58-3.04-9.92-9.06-13.03c0.06-7.12-1.01-12.44-3.19-15.97"/>
	</g>
	<g>
		
			<path fill-rule="evenodd" clip-rule="evenodd" fill="none" stroke="#869218" stroke-width="4" stroke-linecap="round" stroke-linejoin="round" stroke-miterlimit="3" d="
			M225.86,153.44c7.9,0.57,12.54,4.04,13.94,10.42c1.05,4.59,0.38,10.66-2.02,18.2c-0.49,1.55-1.05,3.17-1.68,4.85
			c-0.62,2.25-1.64,4.19-3.04,5.82c-0.95,1.1-1.82,2.25-2.63,3.45c-1.2,1.84-2.14,3.55-2.82,5.15
			c-4.99,11.67,3.83,16.78,26.45,15.33c20.31-1.32,34.71-7.63,43.18-18.91c29.37-35.07,3.64-57.21-77.19-66.41
			c-50.57-5.22-89.54-10.89-116.9-16.99c-27.28-6.17-46.8-13.15-58.56-20.96c-11.82-7.84-16.98-21.05-15.48-39.63
			c1.41-18.51-0.04-29.22-4.34-32.14c-4.36-2.95-8.88-8.84-13.56-17.66c-3.39,0.98-5.65,1-6.8,0.06"/>
		
			<line fill-rule="evenodd" clip-rule="evenodd" fill="none" stroke="#869218" stroke-width="4" stroke-linecap="square" stroke-miterlimit="3" x1="220.42" y1="153.26" x2="225.86" y2="153.44"/>
	</g>
	<g>
		
			<radialGradient id="SVGID_1_" cx="-60.3999" cy="-135.1499" r="11.5" gradientTransform="matrix(1.4386 -0.2475 0.2475 1.4386 148.0443 218.5958)" gradientUnits="userSpaceOnUse">
			<stop  offset="0" style="stop-color:#FFFFFF;stop-opacity:0.4627"/>
			<stop  offset="1" style="stop-color:#FFFFFF;stop-opacity:0.0235"/>
		</radialGradient>
		<path fill-rule="evenodd" clip-rule="evenodd" fill="url(#SVGID_1_)" d="M24.74,23.63c-0.07-0.19-0.07-0.37,0.02-0.56
			c0.08-0.19,0.22-0.32,0.41-0.4c0.19-0.07,0.37-0.07,0.56,0.01c0.19,0.08,0.32,0.22,0.4,0.41c3.06,7.6,3.88,18.61,2.46,33.02
			c-0.02,0.2-0.1,0.36-0.25,0.49c-0.15,0.13-0.33,0.18-0.53,0.16c-0.2-0.02-0.36-0.1-0.49-0.25c-0.13-0.15-0.18-0.33-0.17-0.53
			C28.53,41.87,27.72,31.08,24.74,23.63z"/>
		
			<radialGradient id="SVGID_2_" cx="91.6201" cy="-33.6001" r="24.3246" gradientTransform="matrix(1.4386 -0.2475 0.2475 1.4386 148.0443 218.5958)" gradientUnits="userSpaceOnUse">
			<stop  offset="0" style="stop-color:#FFFFFF;stop-opacity:0.4627"/>
			<stop  offset="1" style="stop-color:#FFFFFF;stop-opacity:0.0235"/>
		</radialGradient>
		<path fill-rule="evenodd" clip-rule="evenodd" fill="url(#SVGID_2_)" d="M304.31,161.53c-0.2-0.01-0.36-0.1-0.49-0.25
			c-11.67-13.3-33.41-22.06-65.22-26.29c-0.2-0.03-0.37-0.12-0.49-0.29c-0.12-0.16-0.16-0.34-0.13-0.53
			c0.03-0.2,0.12-0.37,0.29-0.49c0.16-0.12,0.34-0.16,0.53-0.13c32.27,4.3,54.31,13.23,66.12,26.8c0.13,0.15,0.18,0.33,0.17,0.53
			c-0.01,0.2-0.1,0.36-0.25,0.49C304.68,161.49,304.51,161.55,304.31,161.53z"/>
		
			<radialGradient id="SVGID_3_" cx="93.0752" cy="1.7998" r="21.1214" gradientTransform="matrix(1.4386 -0.2475 0.2475 1.4386 148.0443 218.5958)" gradientUnits="userSpaceOnUse">
			<stop  offset="0" style="stop-color:#FFFFFF;stop-opacity:0.4627"/>
			<stop  offset="1" style="stop-color:#FFFFFF;stop-opacity:0.0235"/>
		</radialGradient>
		<path fill-rule="evenodd" clip-rule="evenodd" fill="url(#SVGID_3_)" d="M308.12,180.02c0.06,0.19,0.04,0.38-0.05,0.56
			c-10.62,23.03-27.51,35.08-50.66,36.16c-0.21,0-0.39-0.06-0.55-0.2c-0.15-0.13-0.22-0.29-0.23-0.48c-0.01-0.21,0.06-0.39,0.2-0.55
			c0.13-0.15,0.29-0.22,0.48-0.23c22.6-1.07,39.09-12.83,49.47-35.29c0.07-0.19,0.2-0.32,0.38-0.4c0.19-0.06,0.38-0.04,0.56,0.05
			C307.91,179.72,308.04,179.84,308.12,180.02z"/>
		
			<radialGradient id="SVGID_4_" cx="-15.9541" cy="-78.6289" r="44.4152" gradientTransform="matrix(1.4386 -0.2475 0.2475 1.4386 148.0443 218.5958)" gradientUnits="userSpaceOnUse">
			<stop  offset="0" style="stop-color:#FFFFFF;stop-opacity:0.4627"/>
			<stop  offset="1" style="stop-color:#FFFFFF;stop-opacity:0.0235"/>
		</radialGradient>
		<path fill-rule="evenodd" clip-rule="evenodd" fill="url(#SVGID_4_)" d="M168.9,125.88c-0.17,0.13-0.35,0.19-0.56,0.17
			c-58.62-6.49-100.58-17.12-125.87-31.89c-0.17-0.1-0.28-0.24-0.33-0.42c-0.05-0.2-0.02-0.39,0.09-0.57
			c0.1-0.17,0.24-0.28,0.42-0.33c0.2-0.05,0.39-0.02,0.57,0.09c25.19,14.67,66.97,25.23,125.32,31.69c0.19,0.02,0.34,0.1,0.45,0.26
			c0.13,0.17,0.19,0.35,0.17,0.56C169.14,125.61,169.05,125.76,168.9,125.88z"/>
		
			<radialGradient id="SVGID_5_" cx="63.3501" cy="-29" r="12.45" gradientTransform="matrix(1.4386 -0.2475 0.2475 1.4386 148.0443 218.5958)" gradientUnits="userSpaceOnUse">
			<stop  offset="0" style="stop-color:#FFFFFF;stop-opacity:0.4627"/>
			<stop  offset="1" style="stop-color:#FFFFFF;stop-opacity:0.0235"/>
		</radialGradient>
		<path fill-rule="evenodd" clip-rule="evenodd" fill="url(#SVGID_5_)" d="M220.71,153.03c0.13-0.16,0.3-0.25,0.51-0.27
			c1.05-0.08,2.06-0.11,3.02-0.08c7.27,0.1,11.99,2.71,14.16,7.82c2.18,4.94,1.87,12.3-0.94,22.08c-0.05,0.19-0.16,0.33-0.33,0.43
			c-0.19,0.1-0.38,0.12-0.58,0.06c-0.19-0.05-0.33-0.16-0.43-0.33c-0.1-0.18-0.12-0.38-0.06-0.58c2.69-9.34,3.04-16.36,1.04-21.06
			c-2.01-4.53-6.31-6.84-12.89-6.93c-0.92-0.04-1.88-0.02-2.88,0.05c-0.19,0.02-0.36-0.04-0.51-0.17c-0.16-0.13-0.25-0.3-0.27-0.51
			C220.52,153.34,220.58,153.17,220.71,153.03z"/>
	</g>
</g>
</svg>
