<?xml version="1.0" encoding="utf-8"?>
<!-- Generator: Adobe Illustrator 16.0.0, SVG Export Plug-In . SVG Version: 6.00 Build 0)  -->
<!DOCTYPE svg PUBLIC "-//W3C//DTD SVG 1.1//EN" "http://www.w3.org/Graphics/SVG/1.1/DTD/svg11.dtd">
<svg version="1.1" id="Layer_1" xmlns="http://www.w3.org/2000/svg" xmlns:xlink="http://www.w3.org/1999/xlink" x="0px" y="0px"
	 width="62.5px" height="86.33px" viewBox="0 0 62.5 86.33" enable-background="new 0 0 62.5 86.33" xml:space="preserve">
<g>
	<g>
		<path fill-rule="evenodd" clip-rule="evenodd" d="M20.69,39.37h18.55v40.9c-6.18,5.99-12.37,5.99-18.55,0V39.37z"/>
	</g>
	<g>
		
			<linearGradient id="SVGID_1_" gradientUnits="userSpaceOnUse" x1="-216.9307" y1="-127.6421" x2="-216.643" y2="-96.5106" gradientTransform="matrix(1.4606 0 0 1.4606 346.6267 223.094)">
			<stop  offset="0" style="stop-color:#201A14"/>
			<stop  offset="0.098" style="stop-color:#928C88"/>
			<stop  offset="0.1961" style="stop-color:#9F9995"/>
			<stop  offset="0.2588" style="stop-color:#F2EDEA"/>
			<stop  offset="0.2902" style="stop-color:#928A84"/>
			<stop  offset="0.5569" style="stop-color:#8F867E"/>
			<stop  offset="0.6157" style="stop-color:#7E705B"/>
			<stop  offset="0.7922" style="stop-color:#221D15"/>
			<stop  offset="0.8667" style="stop-color:#8F7D57"/>
			<stop  offset="0.9176" style="stop-color:#A89565"/>
			<stop  offset="1" style="stop-color:#B9A46F"/>
		</linearGradient>
		<path fill-rule="evenodd" clip-rule="evenodd" fill="url(#SVGID_1_)" d="M20.69,36.74h18.55v40.9c-6.18,5.99-12.37,5.99-18.55,0
			V36.74z"/>
	</g>
	<g>
		
			<linearGradient id="SVGID_2_" gradientUnits="userSpaceOnUse" x1="-216.4229" y1="-152.2661" x2="-215.8012" y2="-139.587" gradientTransform="matrix(1.4606 0 0 1.4606 346.6267 223.094)">
			<stop  offset="0" style="stop-color:#83704F"/>
			<stop  offset="1" style="stop-color:#403526"/>
		</linearGradient>
		<polygon fill-rule="evenodd" clip-rule="evenodd" fill="url(#SVGID_2_)" points="60.64,17.76 2,17.76 2.8,3.15 14.85,3.15 
			15.73,1.4 46.54,1.4 47.86,3.15 59.47,3.15 60.71,17.76 		"/>
		<polygon fill-rule="evenodd" clip-rule="evenodd" fill="#181007" points="2,17.76 60.64,17.76 60.64,40.83 41.87,40.83 
			41.87,37.91 17.92,37.91 17.92,40.83 2,40.83 		"/>
	</g>
	<g>
		<path fill-rule="evenodd" clip-rule="evenodd" fill="#201C13" d="M51.22,33.39H11.49c-0.1-0.19-0.17-0.37-0.22-0.51l-0.29-0.73
			c-1.32-3.51-1.15-6.87,0.51-10.08h39.73c1.75,3.16,2.04,6.3,0.88,9.42c-0.19,0.58-0.46,1.19-0.8,1.83
			C51.24,33.31,51.22,33.34,51.22,33.39z"/>
		<polygon fill-rule="evenodd" clip-rule="evenodd" points="11.49,33.39 51.22,33.39 50.56,34.04 12,34.04 		"/>
		<path fill-rule="evenodd" clip-rule="evenodd" fill="#352D20" d="M11.49,21.41v0.66c-1.66,3.21-1.83,6.57-0.51,10.08
			C9.28,27.91,9.45,24.33,11.49,21.41z M51.22,22.07v-0.66c2.09,2.92,2.39,6.28,0.88,10.08C53.26,28.37,52.97,25.23,51.22,22.07z"/>
		<rect x="11.49" y="21.41" fill-rule="evenodd" clip-rule="evenodd" fill="#504330" width="39.73" height="0.66"/>
	</g>
	<g>
		<path fill-rule="evenodd" clip-rule="evenodd" fill="#FFFFFF" fill-opacity="0.2314" d="M60.93,17.54
			c0.05,0.05,0.07,0.12,0.07,0.22s-0.03,0.19-0.07,0.29c-0.1,0.05-0.2,0.07-0.29,0.07H2.07c-0.1,0-0.17-0.02-0.22-0.07
			c-0.1-0.1-0.15-0.19-0.15-0.29s0.05-0.17,0.15-0.22c0.05-0.1,0.12-0.15,0.22-0.15h58.57C60.74,17.39,60.83,17.44,60.93,17.54z
			 M51.44,21.77c0.05,0.05,0.07,0.12,0.07,0.22c0,0.1-0.02,0.19-0.07,0.29c-0.1,0.05-0.19,0.07-0.29,0.07H11.56
			c-0.1,0-0.17-0.02-0.22-0.07c-0.1-0.1-0.15-0.19-0.15-0.29c0-0.1,0.05-0.17,0.15-0.22c0.05-0.1,0.12-0.15,0.22-0.15h39.58
			C51.24,21.63,51.34,21.68,51.44,21.77z"/>
	</g>
</g>
</svg>
