<?xml version="1.0" encoding="utf-8"?>
<!-- Generator: Adobe Illustrator 16.0.0, SVG Export Plug-In . SVG Version: 6.00 Build 0)  -->
<!DOCTYPE svg PUBLIC "-//W3C//DTD SVG 1.1//EN" "http://www.w3.org/Graphics/SVG/1.1/DTD/svg11.dtd">
<svg version="1.1" id="Layer_1" xmlns="http://www.w3.org/2000/svg" xmlns:xlink="http://www.w3.org/1999/xlink" x="0px" y="0px"
	 width="25.5px" height="24.13px" viewBox="0 0 25.5 24.13" enable-background="new 0 0 25.5 24.13" xml:space="preserve">
<g>
	<g>
		<path fill-rule="evenodd" clip-rule="evenodd" fill="#93875B" d="M16.13,11.13c-0.1,0.53-0.53,0.98-1.3,1.35
			c-0.9,0.43-2,0.65-3.3,0.65c-1.27,0-2.33-0.22-3.2-0.65c-0.8-0.37-1.25-0.82-1.35-1.35v-0.45c0.1-0.5,0.55-0.95,1.35-1.35
			c0.87-0.43,1.93-0.65,3.2-0.65c1.3,0,2.4,0.22,3.3,0.65c0.77,0.4,1.2,0.87,1.3,1.4v0.05c0,0.07,0,0.12,0,0.15
			C16.13,10.99,16.13,11.06,16.13,11.13z"/>
		
			<linearGradient id="SVGID_1_" gradientUnits="userSpaceOnUse" x1="-489.3999" y1="-492.5752" x2="-480.25" y2="-492.5752" gradientTransform="matrix(-1 0 0 -1 -473.25 -475.25)">
			<stop  offset="0" style="stop-color:#201D13"/>
			<stop  offset="0.2588" style="stop-color:#514C32"/>
			<stop  offset="0.4275" style="stop-color:#5C5739"/>
			<stop  offset="0.7608" style="stop-color:#45412A"/>
			<stop  offset="1" style="stop-color:#252216"/>
		</linearGradient>
		<path fill-rule="evenodd" clip-rule="evenodd" fill="url(#SVGID_1_)" d="M16.13,11.13v10.35c-0.1,0.53-0.53,1-1.3,1.4
			c-0.9,0.43-2,0.65-3.3,0.65c-1.27,0-2.33-0.22-3.2-0.65c-0.8-0.4-1.25-0.85-1.35-1.35v-10.4c0.1,0.53,0.55,0.98,1.35,1.35
			c0.87,0.43,1.93,0.65,3.2,0.65c1.3,0,2.4-0.22,3.3-0.65C15.59,12.11,16.03,11.66,16.13,11.13z"/>
	</g>
	<g>
		<path fill-rule="evenodd" clip-rule="evenodd" d="M12.23,14.33c3.8-0.2,7.5-1.55,11.1-4.05v3.55c-2.13,2.27-5.83,3.75-11.1,4.45
			V14.33z M13.88,15.63h-0.05l0.05,0.05V15.63z"/>
		<path fill-rule="evenodd" clip-rule="evenodd" fill="#1E1E1E" d="M23.33,10.27c-3.6,2.5-7.3,3.85-11.1,4.05L0.77,5.02v-0.1
			c1.57-3.03,5.02-4.25,10.35-3.65l12.3,8.95L23.33,10.27z"/>
		<polygon fill-rule="evenodd" clip-rule="evenodd" fill="#222222" points="12.23,14.33 12.23,18.28 12.23,18.33 0.77,8.77 
			0.77,5.02 		"/>
		<polygon fill-rule="evenodd" clip-rule="evenodd" fill="#333333" points="13.88,15.63 13.88,15.67 13.83,15.63 		"/>
		
			<polygon fill-rule="evenodd" clip-rule="evenodd" fill="none" stroke="#000000" stroke-width="0.1" stroke-linecap="round" stroke-linejoin="round" stroke-miterlimit="3" points="
			13.88,15.63 13.88,15.67 13.83,15.63 		"/>
	</g>
	<g>
		
			<radialGradient id="SVGID_2_" cx="-479.7749" cy="-486.9248" r="8.75" gradientTransform="matrix(-1 0 0 1 -473.25 498.5996)" gradientUnits="userSpaceOnUse">
			<stop  offset="0" style="stop-color:#FFFFFF;stop-opacity:0.2824"/>
			<stop  offset="0.5373" style="stop-color:#FDFDFD;stop-opacity:0.102"/>
			<stop  offset="1" style="stop-color:#F9F9F9;stop-opacity:0.149"/>
		</radialGradient>
		<path fill-rule="evenodd" clip-rule="evenodd" fill="url(#SVGID_2_)" d="M12.17,14.22l-0.05,0.05c-0.03,0.03-0.05,0.07-0.05,0.1
			v0.05L0.73,5.13L0.67,5.08c0-0.03,0.02-0.05,0.05-0.05c0-0.03,0.02-0.05,0.05-0.05s0.07,0,0.1,0L12.17,14.22z"/>
		
			<radialGradient id="SVGID_3_" cx="-479.7749" cy="-486.9248" r="8.75" gradientTransform="matrix(-1 0 0 1 -473.25 498.5996)" gradientUnits="userSpaceOnUse">
			<stop  offset="0" style="stop-color:#FFFFFF"/>
			<stop  offset="0.5569" style="stop-color:#FDFDFD;stop-opacity:0.6667"/>
			<stop  offset="1" style="stop-color:#F9F9F9;stop-opacity:0.149"/>
		</radialGradient>
		<path fill-rule="evenodd" clip-rule="evenodd" fill="url(#SVGID_3_)" d="M12.08,14.42v-0.05c0-0.03,0.02-0.07,0.05-0.1l0.05-0.05
			c0.03,0,0.05,0.02,0.05,0.05h0.05l0.05,0.05c0.03,0.03,0.05,0.07,0.05,0.1l-0.05,0.05c0,0.03-0.02,0.05-0.05,0.05v3.75
			c0,0.03,0,0.07,0,0.1c-0.03,0-0.07,0-0.1,0h-0.05c-0.03-0.03-0.05-0.07-0.05-0.1V14.42z"/>
	</g>
	<g>
		
			<radialGradient id="SVGID_4_" cx="-485.4751" cy="-489.625" r="1.5" gradientTransform="matrix(-1 0 0 1 -473.25 504)" gradientUnits="userSpaceOnUse">
			<stop  offset="0" style="stop-color:#FFFFFF"/>
			<stop  offset="0.1765" style="stop-color:#FFFFFF"/>
			<stop  offset="0.3059" style="stop-color:#FFFFFF;stop-opacity:0.4235"/>
			<stop  offset="0.4902" style="stop-color:#FFFFFF;stop-opacity:0.2314"/>
			<stop  offset="0.651" style="stop-color:#FFFFFF;stop-opacity:0.0824"/>
			<stop  offset="1" style="stop-color:#FFFFFF;stop-opacity:0"/>
		</radialGradient>
		<path fill-rule="evenodd" clip-rule="evenodd" fill="url(#SVGID_4_)" d="M13.27,15.42c-0.3,0.3-0.65,0.45-1.05,0.45
			s-0.75-0.15-1.05-0.45c-0.3-0.27-0.45-0.62-0.45-1.05c0-0.4,0.15-0.73,0.45-1c0.3-0.3,0.65-0.45,1.05-0.45s0.75,0.15,1.05,0.45
			c0.27,0.27,0.4,0.6,0.4,1C13.67,14.81,13.54,15.16,13.27,15.42z"/>
	</g>
	<g>
		
			<radialGradient id="SVGID_5_" cx="-379.2373" cy="-564.4082" r="9.2175" gradientTransform="matrix(-0.9297 0.3684 0.0643 0.1624 -299.9204 245.003)" gradientUnits="userSpaceOnUse">
			<stop  offset="0" style="stop-color:#FFFFFF"/>
			<stop  offset="0.1765" style="stop-color:#FFFFFF"/>
			<stop  offset="0.3059" style="stop-color:#FFFFFF;stop-opacity:0.4235"/>
			<stop  offset="0.4902" style="stop-color:#FFFFFF;stop-opacity:0.2314"/>
			<stop  offset="0.651" style="stop-color:#FFFFFF;stop-opacity:0.0824"/>
			<stop  offset="1" style="stop-color:#FFFFFF;stop-opacity:0"/>
		</radialGradient>
		<path fill-rule="evenodd" clip-rule="evenodd" fill="url(#SVGID_5_)" d="M24.47,10.48c0.2,0.47-0.53,1.22-2.2,2.25
			c-1.8,1.07-1.44,1.12-4.04,2.15c-2.63,1.03-4.97,1.77-7,2.2s-3.15,0.42-3.35-0.05c-0.2-0.47,0.6-1.23,2.4-2.3
			c1.8-1.1,4-2.17,6.6-3.2c2.63-1.03,4.97-1.75,7-2.15C24.76,9.7,24.27,10.01,24.47,10.48z"/>
	</g>
</g>
</svg>
