<?xml version="1.0" encoding="utf-8"?>
<!-- Generator: Adobe Illustrator 16.0.0, SVG Export Plug-In . SVG Version: 6.00 Build 0)  -->
<!DOCTYPE svg PUBLIC "-//W3C//DTD SVG 1.1//EN" "http://www.w3.org/Graphics/SVG/1.1/DTD/svg11.dtd">
<svg version="1.1" id="Layer_1" xmlns="http://www.w3.org/2000/svg" xmlns:xlink="http://www.w3.org/1999/xlink" x="0px" y="0px"
	 width="24.17px" height="23.42px" viewBox="0 0 24.17 23.42" enable-background="new 0 0 24.17 23.42" xml:space="preserve">
<g>
	<g>
		<path fill-rule="evenodd" clip-rule="evenodd" fill="#93875B" d="M7.97,10.5c0-0.07,0-0.13,0-0.2c0-0.07,0-0.12,0-0.15V10.1
			c0.1-0.53,0.53-1,1.3-1.4c0.9-0.43,2-0.65,3.3-0.65c1.27,0,2.33,0.22,3.2,0.65c0.8,0.4,1.25,0.85,1.35,1.35v0.45
			c-0.1,0.53-0.55,0.98-1.35,1.35c-0.87,0.43-1.93,0.65-3.2,0.65c-1.3,0-2.4-0.22-3.3-0.65C8.5,11.48,8.07,11.03,7.97,10.5z"/>
		<linearGradient id="SVGID_1_" gradientUnits="userSpaceOnUse" x1="7.9414" y1="16.7002" x2="17.0918" y2="16.7002">
			<stop  offset="0" style="stop-color:#201D13"/>
			<stop  offset="0.2588" style="stop-color:#514C32"/>
			<stop  offset="0.4275" style="stop-color:#5C5739"/>
			<stop  offset="0.7608" style="stop-color:#45412A"/>
			<stop  offset="1" style="stop-color:#252216"/>
		</linearGradient>
		<path fill-rule="evenodd" clip-rule="evenodd" fill="url(#SVGID_1_)" d="M17.12,10.5v10.4c-0.1,0.5-0.55,0.93-1.35,1.3
			c-0.87,0.47-1.93,0.7-3.2,0.7c-1.3,0-2.4-0.23-3.3-0.7c-0.77-0.37-1.2-0.82-1.3-1.35V10.5c0.1,0.53,0.53,0.98,1.3,1.35
			c0.9,0.43,2,0.65,3.3,0.65c1.27,0,2.33-0.22,3.2-0.65C16.57,11.48,17.02,11.03,17.12,10.5z"/>
	</g>
	<g>
		<path fill-rule="evenodd" clip-rule="evenodd" fill="#1E1E1E" d="M23.32,4.35l-11.5,9.35v-0.05c-3.77-0.2-7.47-1.53-11.1-4
			L0.62,9.6l12.3-8.95c5.33-0.6,8.78,0.62,10.35,3.65L23.32,4.35z"/>
		<path fill-rule="evenodd" clip-rule="evenodd" d="M11.82,13.7v3.95c-5.23-0.7-8.93-2.18-11.1-4.45V9.65c3.63,2.47,7.33,3.8,11.1,4
			V13.7z M10.22,15h-0.05v0.05L10.22,15z"/>
		<polygon fill-rule="evenodd" clip-rule="evenodd" fill="#222222" points="11.82,17.65 11.82,13.7 23.32,4.35 23.32,8.15 
			11.82,17.7 		"/>
		<polygon fill-rule="evenodd" clip-rule="evenodd" fill="#333333" points="10.22,15 10.17,15.05 10.17,15 		"/>
		
			<polygon fill-rule="evenodd" clip-rule="evenodd" fill="none" stroke="#000000" stroke-width="0.1" stroke-linecap="round" stroke-linejoin="round" stroke-miterlimit="3" points="
			10.22,15 10.17,15 10.17,15.05 		"/>
	</g>
	<g>
		<radialGradient id="SVGID_2_" cx="17.5669" cy="11.0498" r="8.75" gradientUnits="userSpaceOnUse">
			<stop  offset="0" style="stop-color:#FFFFFF"/>
			<stop  offset="0.5569" style="stop-color:#FDFDFD;stop-opacity:0.6667"/>
			<stop  offset="1" style="stop-color:#F9F9F9;stop-opacity:0.149"/>
		</radialGradient>
		<path fill-rule="evenodd" clip-rule="evenodd" fill="url(#SVGID_2_)" d="M12.02,13.8v3.85c0,0.03-0.02,0.07-0.05,0.1
			c-0.03,0-0.07,0-0.1,0h-0.05c-0.03-0.03-0.05-0.07-0.05-0.1V13.9l-0.05-0.05c0-0.03,0-0.07,0-0.1l0.13-0.13
			c0.03-0.02,0.05-0.03,0.08-0.03c0,0.03,0.02,0.05,0.05,0.05c0.03,0.03,0.05,0.07,0.05,0.1V13.8z"/>
		<radialGradient id="SVGID_3_" cx="17.5669" cy="11.0498" r="8.75" gradientUnits="userSpaceOnUse">
			<stop  offset="0" style="stop-color:#FFFFFF;stop-opacity:0.2824"/>
			<stop  offset="0.5373" style="stop-color:#FDFDFD;stop-opacity:0.102"/>
			<stop  offset="1" style="stop-color:#F9F9F9;stop-opacity:0.149"/>
		</radialGradient>
		<path fill-rule="evenodd" clip-rule="evenodd" fill="url(#SVGID_3_)" d="M11.84,13.63l11.38-9.27c0-0.03,0.02-0.05,0.05-0.05
			c0.03,0.03,0.07,0.05,0.1,0.05c0.03,0.03,0.03,0.07,0,0.1V4.5l-11.35,9.3v-0.05c0-0.03-0.02-0.07-0.05-0.1
			c-0.03,0-0.05-0.02-0.05-0.05C11.9,13.6,11.87,13.61,11.84,13.63z"/>
	</g>
	<g>
		<radialGradient id="SVGID_4_" cx="11.8169" cy="13.75" r="1.5" gradientUnits="userSpaceOnUse">
			<stop  offset="0" style="stop-color:#FFFFFF"/>
			<stop  offset="0.1765" style="stop-color:#FFFFFF"/>
			<stop  offset="0.3059" style="stop-color:#FFFFFF;stop-opacity:0.4235"/>
			<stop  offset="0.4902" style="stop-color:#FFFFFF;stop-opacity:0.2314"/>
			<stop  offset="0.651" style="stop-color:#FFFFFF;stop-opacity:0.0824"/>
			<stop  offset="1" style="stop-color:#FFFFFF;stop-opacity:0"/>
		</radialGradient>
		<path fill-rule="evenodd" clip-rule="evenodd" fill="url(#SVGID_4_)" d="M10.82,12.75c0.27-0.3,0.6-0.45,1-0.45
			c0.43,0,0.78,0.15,1.05,0.45c0.3,0.27,0.45,0.6,0.45,1c0,0.43-0.15,0.78-0.45,1.05c-0.27,0.3-0.62,0.45-1.05,0.45
			c-0.4,0-0.73-0.15-1-0.45c-0.27-0.27-0.4-0.62-0.4-1.05C10.42,13.35,10.55,13.02,10.82,12.75z"/>
	</g>
	<g>
		
			<radialGradient id="SVGID_5_" cx="6.5166" cy="12.5498" r="10.471" gradientTransform="matrix(0.9297 0.3684 -0.0643 0.1624 1.2658 8.1113)" gradientUnits="userSpaceOnUse">
			<stop  offset="0" style="stop-color:#FFFFFF"/>
			<stop  offset="0.1765" style="stop-color:#FFFFFF"/>
			<stop  offset="0.3059" style="stop-color:#FFFFFF;stop-opacity:0.4235"/>
			<stop  offset="0.4902" style="stop-color:#FFFFFF;stop-opacity:0.2314"/>
			<stop  offset="0.651" style="stop-color:#FFFFFF;stop-opacity:0.0824"/>
			<stop  offset="1" style="stop-color:#FFFFFF;stop-opacity:0"/>
		</radialGradient>
		<path fill-rule="evenodd" clip-rule="evenodd" fill="url(#SVGID_5_)" d="M0.22,8.75c2.03,0.4,4.35,1.12,6.95,2.15
			c2.63,1.03,4.83,2.1,6.6,3.2c1.8,1.07,2.62,1.83,2.45,2.3c-0.2,0.47-1.32,0.48-3.35,0.05c-2.07-0.43-4.4-1.17-7-2.2
			c-2.6-1.03-4.8-2.1-6.6-3.2c-1.67-1-2.4-1.73-2.2-2.2C-2.77,8.38-1.72,8.35,0.22,8.75z"/>
	</g>
</g>
</svg>
