<?xml version="1.0" encoding="utf-8"?>
<!-- Generator: Adobe Illustrator 16.0.0, SVG Export Plug-In . SVG Version: 6.00 Build 0)  -->
<!DOCTYPE svg PUBLIC "-//W3C//DTD SVG 1.1//EN" "http://www.w3.org/Graphics/SVG/1.1/DTD/svg11.dtd">
<svg version="1.1" id="Layer_1" xmlns="http://www.w3.org/2000/svg" xmlns:xlink="http://www.w3.org/1999/xlink" x="0px" y="0px"
	 width="60.83px" height="96.17px" viewBox="0 0 60.83 96.17" enable-background="new 0 0 60.83 96.17" xml:space="preserve">
<g>
	
		<path fill-rule="evenodd" clip-rule="evenodd" fill="none" stroke="#0000FF" stroke-width="0.1" stroke-linecap="square" stroke-miterlimit="3" d="
		M32.14,44.8c0.3,0,0.62,0.1,0.97,0.3"/>
	<g>
		<path fill-rule="evenodd" clip-rule="evenodd" fill="#010105" fill-opacity="0.251" d="M55.03,30.41
			c1.19,3.38,1.67,5.07,1.42,5.07c0.8,5.72,1.49,13.2,2.09,22.45c0.65,9.65,1.02,19.81,1.12,30.51c-4.08,1.74-8.1,3.11-12.08,4.1
			c-1.44,0.45-2.86,0.82-4.25,1.12c-0.25,0-0.47,0.02-0.67,0.07c-5.87,1.09-11.54,1.59-17.01,1.49c-6.81-0.25-13.33-1.52-19.54-3.8
			c-0.05-0.05-0.1-0.08-0.15-0.08L2.97,60.17l0.45-21.41c-0.1-0.35-0.08-0.62,0.07-0.82c0.1-0.15,0.22-0.25,0.37-0.3
			c0.3-0.99,0.6-1.94,0.9-2.83l2.01-9.17c0.05-0.45,0.07-0.94,0.07-1.49c0.1-0.85,0.2-1.67,0.3-2.46c0.25-2.29,1.37-4.18,3.36-5.67
			l5.82-3.36c0.9-0.5,1.84-0.92,2.83-1.27l2.24-0.82c6.02-1.94,12.23-2.14,18.65-0.6c0.2,0.1,0.4,0.2,0.6,0.3h0.08l1.19,0.37
			c1.24,0.35,2.46,0.77,3.66,1.27c0.65,0.3,1.22,0.57,1.71,0.82c1.69,1.04,2.86,2.39,3.51,4.03C52.42,22.83,53.84,27.37,55.03,30.41
			z"/>
	</g>
	<g>
		
			<radialGradient id="SVGID_1_" cx="-222.9556" cy="-226.1431" r="44.1574" gradientTransform="matrix(1.491 -0.0448 0.0418 0.6566 365.6699 144.8287)" gradientUnits="userSpaceOnUse">
			<stop  offset="0" style="stop-color:#022064"/>
			<stop  offset="0" style="stop-color:#021642"/>
			<stop  offset="0.1451" style="stop-color:#011F4B"/>
			<stop  offset="0.6824" style="stop-color:#0253A8"/>
			<stop  offset="0.7882" style="stop-color:#046BAC"/>
			<stop  offset="0.851" style="stop-color:#18248A"/>
			<stop  offset="0.9922" style="stop-color:#1A248B"/>
		</radialGradient>
		<path fill-rule="evenodd" clip-rule="evenodd" fill="url(#SVGID_1_)" d="M0.89,28.47c0.05-0.1,0.1-0.2,0.15-0.3
			c1.54-3.98,2.49-8.5,2.83-13.57c0.05-0.8,0.13-1.59,0.22-2.39c0.15-2.24,1.17-3.98,3.06-5.22c10.09-7.01,20.88-7.86,32.37-2.54
			c2.44,1.19,4.05,2.83,4.85,4.92c1.64,5.92,3.03,10.37,4.18,13.35c1.19,3.28,1.67,4.92,1.42,4.92c-0.05,0-0.1,0.02-0.15,0.07
			c0.05,0.15,0.07,0.3,0.07,0.45l-0.22-0.37c-3.43,1.39-6.86,2.51-10.29,3.36c-13.57,3.28-26.35,2.41-38.34-2.61
			C0.99,28.49,0.94,28.47,0.89,28.47z"/>
		
			<radialGradient id="SVGID_2_" cx="-222.9556" cy="-226.1431" r="44.1574" gradientTransform="matrix(1.491 -0.0448 0.0418 0.6566 365.6699 144.8287)" gradientUnits="userSpaceOnUse">
			<stop  offset="0" style="stop-color:#022064"/>
			<stop  offset="0" style="stop-color:#021642"/>
			<stop  offset="0.1451" style="stop-color:#011F4B"/>
			<stop  offset="0.6824" style="stop-color:#0253A8"/>
			<stop  offset="0.7882" style="stop-color:#046BAC"/>
			<stop  offset="0.851" style="stop-color:#18248A"/>
			<stop  offset="0.9922" style="stop-color:#1A248B"/>
		</radialGradient>
		<path fill-rule="evenodd" clip-rule="evenodd" fill="url(#SVGID_2_)" d="M0.89,28.47c0.05-0.1,0.1-0.2,0.15-0.3
			c1.54-3.98,2.49-8.5,2.83-13.57c0.05-0.8,0.13-1.59,0.22-2.39c0.15-2.24,1.17-3.98,3.06-5.22c10.09-7.01,20.88-7.86,32.37-2.54
			c2.44,1.19,4.05,2.83,4.85,4.92c1.64,5.92,3.03,10.37,4.18,13.35c1.19,3.28,1.67,4.92,1.42,4.92c-0.05,0-0.1,0.02-0.15,0.07
			c0.05,0.15,0.07,0.3,0.07,0.45l-0.22-0.37c-3.43,1.39-6.86,2.51-10.29,3.36c-13.57,3.28-26.35,2.41-38.34-2.61
			C0.99,28.49,0.94,28.47,0.89,28.47z"/>
		
			<radialGradient id="SVGID_3_" cx="-222.9565" cy="-209.6187" r="86.6761" gradientTransform="matrix(1.491 -0.0445 0.0342 0.5376 364.9552 133.6912)" gradientUnits="userSpaceOnUse">
			<stop  offset="0" style="stop-color:#16248A"/>
			<stop  offset="0.1255" style="stop-color:#1C248C"/>
			<stop  offset="0.3686" style="stop-color:#06379D"/>
			<stop  offset="0.6471" style="stop-color:#0C3B8F"/>
			<stop  offset="1" style="stop-color:#142C70"/>
		</radialGradient>
		<path fill-rule="evenodd" clip-rule="evenodd" fill="url(#SVGID_3_)" d="M53.84,78.59l-0.22,0.3c-3.73,1.34-7.38,2.44-10.96,3.28
			C28.93,85.3,16.1,84.21,4.17,78.89v0.3L0.81,49.05l0.07-20.59c0.05,0,0.1,0.02,0.15,0.08c11.98,5.02,24.76,5.89,38.34,2.61
			c3.43-0.85,6.86-1.96,10.29-3.36l0.22,0.37c0-0.15-0.02-0.3-0.07-0.45c0.05-0.05,0.1-0.07,0.15-0.07
			c0.9,5.52,1.69,12.73,2.39,21.63C53.09,58.53,53.59,68.3,53.84,78.59z"/>
		
			<radialGradient id="SVGID_4_" cx="-222.9565" cy="-209.6187" r="86.6761" gradientTransform="matrix(1.491 -0.0445 0.0342 0.5376 364.9552 133.6912)" gradientUnits="userSpaceOnUse">
			<stop  offset="0" style="stop-color:#16248A"/>
			<stop  offset="0.1255" style="stop-color:#1C248C"/>
			<stop  offset="0.3686" style="stop-color:#06379D"/>
			<stop  offset="0.6471" style="stop-color:#0C3B8F"/>
			<stop  offset="1" style="stop-color:#142C70"/>
		</radialGradient>
		<path fill-rule="evenodd" clip-rule="evenodd" fill="url(#SVGID_4_)" d="M53.84,78.59l-0.22,0.3c-3.73,1.34-7.38,2.44-10.96,3.28
			C28.93,85.3,16.1,84.21,4.17,78.89v0.3L0.81,49.05l0.07-20.59c0.05,0,0.1,0.02,0.15,0.08c11.98,5.02,24.76,5.89,38.34,2.61
			c3.43-0.85,6.86-1.96,10.29-3.36l0.22,0.37c0-0.15-0.02-0.3-0.07-0.45c0.05-0.05,0.1-0.07,0.15-0.07
			c0.9,5.52,1.69,12.73,2.39,21.63C53.09,58.53,53.59,68.3,53.84,78.59z"/>
		<path fill-rule="evenodd" clip-rule="evenodd" fill="#0B1A45" d="M4.17,79.19v-0.3c11.93,5.32,24.76,6.41,38.49,3.28
			c3.58-0.84,7.23-1.94,10.96-3.28l0.22-0.3c0,0.05,0.02,0.1,0.08,0.15l0.15,3.88c-0.3,1.24-1.22,2.11-2.76,2.61
			c-17.06,4.87-31.67,4.75-43.86-0.37c-1.54-0.45-2.46-1.12-2.76-2.01l-0.52-3.58V79.19z"/>
		<path fill-rule="evenodd" clip-rule="evenodd" fill="#0B1A45" d="M4.17,79.19v-0.3c11.93,5.32,24.76,6.41,38.49,3.28
			c3.58-0.84,7.23-1.94,10.96-3.28l0.22-0.3c0,0.05,0.02,0.1,0.08,0.15l0.15,3.88c-0.3,1.24-1.22,2.11-2.76,2.61
			c-17.06,4.87-31.67,4.75-43.86-0.37c-1.54-0.45-2.46-1.12-2.76-2.01l-0.52-3.58V79.19z"/>
	</g>
	<g>
		
			<radialGradient id="SVGID_5_" cx="-223.0391" cy="-203.1089" r="8.1415" gradientTransform="matrix(1.4911 -0.0435 0.0458 0.9253 367.7402 218.863)" gradientUnits="userSpaceOnUse">
			<stop  offset="0" style="stop-color:#094FA9"/>
			<stop  offset="1" style="stop-color:#0A50A9;stop-opacity:0"/>
		</radialGradient>
		<path fill-rule="evenodd" clip-rule="evenodd" fill="url(#SVGID_5_)" d="M37.8,40.25c0.1,1.79-0.99,3.38-3.28,4.77
			c-2.24,1.34-5,2.06-8.28,2.16c-3.28,0.1-6.14-0.45-8.58-1.64c-2.39-1.24-3.63-2.76-3.73-4.55c-0.05-1.79,1.04-3.36,3.28-4.7
			c2.29-1.39,5.07-2.14,8.35-2.24c3.28-0.1,6.11,0.47,8.5,1.72C36.51,36.97,37.76,38.46,37.8,40.25z"/>
	</g>
	<g>
		
			<radialGradient id="SVGID_6_" cx="-217.2935" cy="-200.1704" r="13.971" gradientTransform="matrix(1.4828 -0.1628 0.7314 5.6709 503.4235 1144.119)" gradientUnits="userSpaceOnUse">
			<stop  offset="0" style="stop-color:#030819;stop-opacity:0"/>
			<stop  offset="0.5569" style="stop-color:#030818;stop-opacity:0"/>
			<stop  offset="0.7098" style="stop-color:#030817;stop-opacity:0.6"/>
			<stop  offset="1" style="stop-color:#030716"/>
		</radialGradient>
		<path fill-rule="evenodd" clip-rule="evenodd" fill="url(#SVGID_6_)" d="M49.81,27.72c0-0.05,0.03-0.07,0.07-0.07
			c0.8,5.52,1.47,12.7,2.01,21.55c0.6,9.3,0.97,19.14,1.12,29.54c-0.1,0.05-0.2,0.1-0.3,0.15c-3.73,1.34-7.38,2.44-10.96,3.28
			c-1.49,0.3-2.98,0.6-4.47,0.89l-2.46-51.09c1.54-0.1,4.45-1.32,8.73-3.65c4.23-2.29,6.24-2.91,6.04-1.86L49.81,27.72z"/>
		
			<radialGradient id="SVGID_7_" cx="-230.0566" cy="-196.8013" r="13.5306" gradientTransform="matrix(1.4911 -0.0427 0.3349 5.5619 424.8901 1135.0918)" gradientUnits="userSpaceOnUse">
			<stop  offset="0" style="stop-color:#030819;stop-opacity:0"/>
			<stop  offset="0.5569" style="stop-color:#030818;stop-opacity:0"/>
			<stop  offset="0.7098" style="stop-color:#030817;stop-opacity:0.6"/>
			<stop  offset="1" style="stop-color:#030716"/>
		</radialGradient>
		<path fill-rule="evenodd" clip-rule="evenodd" fill="url(#SVGID_7_)" d="M2.08,26.98c0.45-0.94,6.22,1.02,17.3,5.89l3.13,50.87
			c-6.36-0.5-12.41-1.99-18.12-4.47c-0.05-0.05-0.1-0.08-0.15-0.08L1.03,49.05l0.15-20.59C1.28,28.47,1.58,27.97,2.08,26.98z"/>
	</g>
	<g>
		
			<radialGradient id="SVGID_8_" cx="-216.7954" cy="-214.7983" r="11.9877" gradientTransform="matrix(1.487 -0.1182 0.2147 2.229 401.8875 475.8742)" gradientUnits="userSpaceOnUse">
			<stop  offset="0" style="stop-color:#1A248B;stop-opacity:0"/>
			<stop  offset="0.549" style="stop-color:#17217C;stop-opacity:0"/>
			<stop  offset="0.7373" style="stop-color:#0B144A;stop-opacity:0.8745"/>
			<stop  offset="1" style="stop-color:#091242"/>
		</radialGradient>
		<path fill-rule="evenodd" clip-rule="evenodd" fill="url(#SVGID_8_)" d="M36.99,31.53c-0.8,0.1-1.59,0.25-2.39,0.45
			c3.63-15.12,4.1-24.49,1.42-28.12c4.67,1.59,7.38,3.43,8.13,5.52c1.59,5.92,2.93,10.34,4.03,13.28c1.14,3.33,1.59,5,1.34,5
			c-0.05,0-0.1,0.02-0.15,0.07c0.05,0.15,0.08,0.3,0.08,0.45l-0.22-0.37c-3.48,1.34-6.94,2.44-10.37,3.28
			C38.25,31.23,37.63,31.38,36.99,31.53z"/>
		
			<radialGradient id="SVGID_9_" cx="-233.5659" cy="-214.3511" r="12.5276" gradientTransform="matrix(1.3351 0.6653 -1.3515 2.7982 42.5707 772.106)" gradientUnits="userSpaceOnUse">
			<stop  offset="0" style="stop-color:#1A248B;stop-opacity:0"/>
			<stop  offset="0.549" style="stop-color:#17217C;stop-opacity:0"/>
			<stop  offset="0.7373" style="stop-color:#0B144A;stop-opacity:0.8745"/>
			<stop  offset="1" style="stop-color:#091242"/>
		</radialGradient>
		<path fill-rule="evenodd" clip-rule="evenodd" fill="url(#SVGID_9_)" d="M17.44,2.07l1.49,30.8c-0.94-0.1-1.89-0.17-2.83-0.22
			c-5.22-0.7-10.24-2.06-15.07-4.1c-0.05-0.05-0.1-0.08-0.15-0.08c0.05-0.1,0.1-0.2,0.15-0.3c1.59-4.03,2.61-8.55,3.06-13.57
			c0.05-0.8,0.12-1.59,0.22-2.39c0.2-2.24,1.24-4,3.13-5.29c2.39-1.59,4.8-2.86,7.23-3.8C15.58,2.71,16.5,2.36,17.44,2.07z"/>
	</g>
	<g>
		
			<linearGradient id="SVGID_10_" gradientUnits="userSpaceOnUse" x1="-234.6934" y1="-186.5654" x2="-209.7071" y2="-186.5654" gradientTransform="matrix(1.491 -0.0448 0.0724 1.4902 373.1279 333.3156)">
			<stop  offset="0" style="stop-color:#095DAD"/>
			<stop  offset="1" style="stop-color:#0071AF"/>
		</linearGradient>
		<path fill-rule="evenodd" clip-rule="evenodd" fill="url(#SVGID_10_)" d="M34.97,49.73c0.05,0,0.1,0,0.15,0
			c2.64,0.6,5.2,1.39,7.68,2.39c0.55,0.2,1.14,0.45,1.79,0.75c0.1,0.35,0.2,0.67,0.3,0.97c1.54,5.32,2.31,10.89,2.31,16.71
			c-0.05,0.1-0.08,0.2-0.08,0.3c0.05,0.3,0.05,0.62,0,0.97c-0.2,0.25-0.4,0.55-0.6,0.89c-1.79,2.14-3.8,3.95-6.04,5.45
			C38.35,79.49,34.52,80.8,29,82.1c-0.3-0.05-0.57-0.08-0.82-0.08c-0.05-0.05-0.12-0.07-0.22-0.07c-0.35-0.05-0.7-0.07-1.04-0.07
			h-0.08c-5.72-0.8-10.67-2.81-14.84-6.04c-0.1-0.05-0.17-0.1-0.22-0.15c-0.2-0.1-0.4-0.22-0.6-0.37c-0.2-0.2-0.4-0.37-0.6-0.52
			c-1.39-7.61-1.02-14.52,1.12-20.74c2.29-1.69,4.97-3.01,8.06-3.95c2.54-0.84,5.3-1.42,8.28-1.71c2.39,0.3,4.67,0.72,6.86,1.27
			L34.97,49.73z M42.95,54.2c-2.29-1.04-4.43-1.96-6.42-2.76c-2.09-0.84-5.07-1.34-8.95-1.49c-7.81,1.24-12.75,3.13-14.84,5.67
			c-0.94,4.92-1.04,11.01-0.3,18.27c1.19,2.14,6.51,4.25,15.96,6.34c6.56-1.69,10.64-3.18,12.23-4.47c2.04-1.59,3.51-3.31,4.4-5.15
			C44.99,64.94,44.29,59.47,42.95,54.2z"/>
		
			<linearGradient id="SVGID_11_" gradientUnits="userSpaceOnUse" x1="-237.8403" y1="-186.6748" x2="-211.4789" y2="-186.6748" gradientTransform="matrix(1.4911 -0.0439 0.0712 1.4903 372.8889 333.5293)">
			<stop  offset="0" style="stop-color:#073BAC"/>
			<stop  offset="0.149" style="stop-color:#0633A6"/>
			<stop  offset="0.4784" style="stop-color:#0162AE"/>
			<stop  offset="0.8039" style="stop-color:#005BA8"/>
			<stop  offset="1" style="stop-color:#004B9B"/>
		</linearGradient>
		<path fill-rule="evenodd" clip-rule="evenodd" fill="url(#SVGID_11_)" d="M42.95,54.2c1.34,5.27,2.04,10.74,2.09,16.41
			c-0.9,1.84-2.36,3.55-4.4,5.15c-1.59,1.29-5.67,2.78-12.23,4.47c-9.45-2.09-14.77-4.2-15.96-6.34c-0.75-7.26-0.65-13.35,0.3-18.27
			c2.09-2.54,7.04-4.43,14.84-5.67c3.88,0.15,6.86,0.65,8.95,1.49C38.53,52.24,40.67,53.16,42.95,54.2z"/>
	</g>
	<g>
		<path fill-rule="evenodd" clip-rule="evenodd" fill="#022064" d="M15.21,36.15c-0.2-0.05-0.37-0.05-0.52,0
			c-0.4,0-0.75,0.12-1.04,0.37c-0.2,0.3-0.3,0.65-0.3,1.04c0,0.4,0.15,0.72,0.45,0.97c0.3,0.3,0.65,0.45,1.04,0.45
			c0.4-0.05,0.72-0.22,0.97-0.52c0.25-0.25,0.37-0.57,0.37-0.97c0-0.15,0-0.27,0-0.37c0.05,0.2,0.08,0.42,0.08,0.67
			c0.05,0.5-0.1,0.94-0.45,1.34c-0.35,0.35-0.77,0.55-1.27,0.6c-0.5,0-0.94-0.17-1.34-0.52c-0.4-0.4-0.62-0.85-0.67-1.34
			c0-0.5,0.17-0.92,0.52-1.27c0.35-0.4,0.77-0.6,1.27-0.6C14.61,36,14.91,36.05,15.21,36.15z"/>
		<path fill-rule="evenodd" clip-rule="evenodd" fill="#010105" d="M15.21,36.15c0.15,0.05,0.3,0.15,0.45,0.3
			c0.25,0.2,0.42,0.42,0.52,0.67c0,0.1,0,0.22,0,0.37c0,0.4-0.12,0.72-0.37,0.97c-0.25,0.3-0.57,0.47-0.97,0.52
			c-0.4,0-0.75-0.15-1.04-0.45c-0.3-0.25-0.45-0.57-0.45-0.97c0-0.4,0.1-0.75,0.3-1.04c0.3-0.25,0.65-0.37,1.04-0.37
			C14.83,36.1,15.01,36.1,15.21,36.15z"/>
	</g>
	<g>
		<path fill-rule="evenodd" clip-rule="evenodd" fill="#022064" d="M20.65,36.3c-0.2,0.3-0.3,0.65-0.3,1.04
			c0,0.4,0.15,0.72,0.45,0.97c0.3,0.3,0.65,0.45,1.04,0.45c0.4,0,0.72-0.17,0.97-0.52c0.25-0.25,0.37-0.57,0.37-0.97
			c0-0.4-0.17-0.75-0.52-1.04c-0.25-0.2-0.57-0.3-0.97-0.3C21.3,35.93,20.95,36.05,20.65,36.3z M21.62,35.78
			c0.5-0.05,0.94,0.12,1.34,0.52c0.4,0.35,0.6,0.77,0.6,1.27c0.05,0.5-0.1,0.94-0.45,1.34c-0.35,0.35-0.77,0.55-1.27,0.6
			c-0.5,0-0.94-0.17-1.34-0.52c-0.4-0.35-0.62-0.77-0.67-1.27c0-0.5,0.17-0.94,0.52-1.34C20.7,35.98,21.12,35.78,21.62,35.78z"/>
		<path fill-rule="evenodd" clip-rule="evenodd" fill="#010105" d="M20.65,36.3c0.3-0.25,0.65-0.37,1.04-0.37
			c0.4,0,0.72,0.1,0.97,0.3c0.35,0.3,0.52,0.65,0.52,1.04c0,0.4-0.12,0.72-0.37,0.97c-0.25,0.35-0.57,0.52-0.97,0.52
			c-0.4,0-0.75-0.15-1.04-0.45c-0.3-0.25-0.45-0.57-0.45-0.97C20.35,36.95,20.45,36.6,20.65,36.3z"/>
	</g>
	<g>
		<path fill-rule="evenodd" clip-rule="evenodd" fill="#022064" d="M27.44,35.93c-0.2,0.35-0.3,0.7-0.3,1.04s0.15,0.62,0.45,0.82
			c0.3,0.3,0.65,0.45,1.04,0.45c0.4,0,0.72-0.15,0.97-0.45c0.25-0.3,0.37-0.62,0.37-0.97s-0.17-0.65-0.52-0.9
			c0.1,0.05,0.2,0.13,0.3,0.22c0.4,0.3,0.6,0.7,0.6,1.19c0.05,0.5-0.1,0.97-0.45,1.42c-0.35,0.35-0.77,0.52-1.27,0.52
			s-0.94-0.15-1.34-0.45c-0.4-0.4-0.62-0.85-0.67-1.34c0-0.5,0.17-0.92,0.52-1.27C27.24,36.11,27.34,36.02,27.44,35.93z"/>
		<path fill-rule="evenodd" clip-rule="evenodd" fill="#010105" d="M29.45,35.93c0.35,0.25,0.52,0.55,0.52,0.9s-0.12,0.67-0.37,0.97
			c-0.25,0.3-0.57,0.45-0.97,0.45c-0.4,0-0.75-0.15-1.04-0.45c-0.3-0.2-0.45-0.47-0.45-0.82s0.1-0.7,0.3-1.04
			c0.27-0.21,0.57-0.34,0.89-0.37h0.08h0.07c0.3,0,0.57,0.1,0.82,0.3C29.35,35.85,29.4,35.88,29.45,35.93z"/>
		
			<path fill-rule="evenodd" clip-rule="evenodd" fill="none" stroke="#0000FF" stroke-width="0.1" stroke-linecap="square" stroke-miterlimit="3" d="
			M28.41,35.55h0.07c0.3,0,0.57,0.1,0.82,0.3"/>
	</g>
	<g>
		<path fill-rule="evenodd" clip-rule="evenodd" fill="#022064" d="M34.52,35.93c-0.2,0.3-0.3,0.65-0.3,1.04
			c0,0.4,0.15,0.72,0.45,0.97c0.3,0.25,0.65,0.37,1.04,0.37s0.72-0.15,0.97-0.45c0.25-0.25,0.37-0.57,0.37-0.97
			c0-0.4-0.17-0.75-0.52-1.04c-0.25-0.25-0.57-0.37-0.97-0.37S34.82,35.63,34.52,35.93c0.35-0.4,0.75-0.6,1.19-0.6
			c0.5,0,0.94,0.2,1.34,0.6c0.4,0.3,0.6,0.7,0.6,1.19c0.05,0.5-0.1,0.97-0.45,1.42c-0.35,0.35-0.77,0.52-1.27,0.52
			S35,38.91,34.6,38.61c-0.4-0.4-0.62-0.85-0.67-1.34c0-0.5,0.17-0.92,0.52-1.27L34.52,35.93z"/>
		<path fill-rule="evenodd" clip-rule="evenodd" fill="#010105" d="M34.52,35.93c0.3-0.3,0.65-0.45,1.04-0.45s0.72,0.12,0.97,0.37
			c0.35,0.3,0.52,0.65,0.52,1.04c0,0.4-0.12,0.72-0.37,0.97c-0.25,0.3-0.57,0.45-0.97,0.45s-0.75-0.12-1.04-0.37
			c-0.3-0.25-0.45-0.57-0.45-0.97C34.22,36.57,34.33,36.23,34.52,35.93z"/>
	</g>
	<g>
		<path fill-rule="evenodd" clip-rule="evenodd" fill="#022064" d="M15.95,42.19c0.35,0.35,0.55,0.77,0.6,1.27
			c0,0.5-0.15,0.94-0.45,1.34c-0.4,0.35-0.85,0.55-1.34,0.6c-0.5,0-0.92-0.17-1.27-0.52c-0.45-0.4-0.67-0.84-0.67-1.34
			c-0.05-0.5,0.13-0.92,0.52-1.27c0.35-0.4,0.77-0.6,1.27-0.6C15.11,41.62,15.55,41.79,15.95,42.19z M15.88,42.19
			c-0.25-0.25-0.57-0.35-0.97-0.3c-0.4,0-0.75,0.13-1.04,0.37c-0.25,0.3-0.35,0.65-0.3,1.04c0,0.4,0.12,0.72,0.37,0.97
			c0.35,0.3,0.72,0.45,1.12,0.45c0.4-0.05,0.7-0.22,0.9-0.52c0.3-0.25,0.45-0.57,0.45-0.97C16.35,42.84,16.18,42.49,15.88,42.19z"/>
		<path fill-rule="evenodd" clip-rule="evenodd" fill="#010105" d="M15.88,42.19c0.3,0.3,0.47,0.65,0.52,1.04
			c0,0.4-0.15,0.72-0.45,0.97c-0.2,0.3-0.5,0.47-0.9,0.52c-0.4,0-0.77-0.15-1.12-0.45c-0.25-0.25-0.37-0.57-0.37-0.97
			c-0.05-0.4,0.05-0.75,0.3-1.04c0.3-0.25,0.65-0.37,1.04-0.37C15.31,41.84,15.63,41.94,15.88,42.19z"/>
	</g>
	<g>
		<path fill-rule="evenodd" clip-rule="evenodd" fill="#022064" d="M23.26,41.97c0.35,0.35,0.55,0.77,0.6,1.27
			c0,0.5-0.15,0.94-0.45,1.34c-0.4,0.35-0.85,0.55-1.34,0.6c-0.5,0-0.92-0.17-1.27-0.52c-0.45-0.35-0.67-0.77-0.67-1.27
			c-0.05-0.5,0.12-0.94,0.52-1.34c0.35-0.4,0.77-0.6,1.27-0.6C22.42,41.4,22.86,41.57,23.26,41.97z M22.96,41.89
			c-0.25-0.2-0.57-0.3-0.97-0.3c-0.4,0-0.75,0.12-1.04,0.37c-0.25,0.3-0.35,0.65-0.3,1.04c0,0.4,0.12,0.72,0.37,0.97
			c0.35,0.3,0.72,0.45,1.12,0.45c0.4,0,0.7-0.17,0.9-0.52c0.3-0.25,0.45-0.57,0.45-0.97C23.44,42.54,23.26,42.19,22.96,41.89z"/>
		<path fill-rule="evenodd" clip-rule="evenodd" fill="#010105" d="M22.96,41.89c0.3,0.3,0.47,0.65,0.52,1.04
			c0,0.4-0.15,0.72-0.45,0.97c-0.2,0.35-0.5,0.52-0.9,0.52c-0.4,0-0.77-0.15-1.12-0.45c-0.25-0.25-0.37-0.57-0.37-0.97
			c-0.05-0.4,0.05-0.75,0.3-1.04c0.3-0.25,0.65-0.37,1.04-0.37C22.39,41.6,22.71,41.69,22.96,41.89z"/>
	</g>
	<g>
		<path fill-rule="evenodd" clip-rule="evenodd" fill="#022064" d="M28.85,41.3c-0.4,0-0.75,0.12-1.04,0.37
			c-0.25,0.35-0.35,0.72-0.3,1.12c0,0.4,0.12,0.7,0.37,0.9c0.35,0.3,0.72,0.45,1.12,0.45c0.4,0,0.7-0.15,0.9-0.45
			c0.3-0.3,0.45-0.65,0.45-1.04c-0.05-0.4-0.22-0.72-0.52-0.97C29.58,41.42,29.25,41.3,28.85,41.3z M28.71,41.22
			c0.5,0,0.94,0.2,1.34,0.6c0.35,0.3,0.55,0.7,0.6,1.19c0,0.5-0.15,0.97-0.45,1.42c-0.4,0.35-0.84,0.52-1.34,0.52
			c-0.5,0-0.92-0.15-1.27-0.45c-0.45-0.4-0.67-0.85-0.67-1.34c-0.05-0.5,0.12-0.92,0.52-1.27C27.79,41.45,28.21,41.22,28.71,41.22z"
			/>
		<path fill-rule="evenodd" clip-rule="evenodd" fill="#010105" d="M28.85,41.3c0.4,0,0.72,0.12,0.97,0.37
			c0.3,0.25,0.47,0.57,0.52,0.97c0,0.4-0.15,0.75-0.45,1.04c-0.2,0.3-0.5,0.45-0.9,0.45c-0.4,0-0.77-0.15-1.12-0.45
			c-0.25-0.2-0.37-0.5-0.37-0.9c-0.05-0.4,0.05-0.77,0.3-1.12C28.11,41.42,28.46,41.3,28.85,41.3z"/>
	</g>
	<g>
		<path fill-rule="evenodd" clip-rule="evenodd" fill="#022064" d="M36.02,41c0.5,0,0.94,0.2,1.34,0.6c0.35,0.3,0.55,0.7,0.6,1.19
			c0,0.5-0.15,0.97-0.45,1.42c-0.4,0.35-0.85,0.52-1.34,0.52c-0.25,0-0.5-0.05-0.75-0.15c0.5,0,0.95-0.17,1.34-0.52
			c0.3-0.4,0.45-0.85,0.45-1.34c-0.05-0.5-0.25-0.92-0.6-1.27C36.41,41.25,36.21,41.1,36.02,41z"/>
		<path fill-rule="evenodd" clip-rule="evenodd" fill="#010105" d="M35.42,44.58c-0.2-0.05-0.37-0.15-0.52-0.3
			c-0.45-0.4-0.67-0.85-0.67-1.34c-0.05-0.5,0.13-0.92,0.52-1.27C35.1,41.22,35.52,41,36.02,41c0.2,0.1,0.4,0.25,0.6,0.45
			c0.35,0.35,0.55,0.77,0.6,1.27c0,0.5-0.15,0.94-0.45,1.34C36.36,44.41,35.92,44.58,35.42,44.58z"/>
	</g>
	<g>
		<path fill-rule="evenodd" clip-rule="evenodd" fill="#08103A" d="M20.43,21.08l5.97,4.7l5.74-5.37h0.07l0.08,0.67l-5.82,5.59
			l-6.41-5.37L20.43,21.08z M23.56,12.66h-1.57v-0.6h1.57V12.66z M27.66,12.36l-0.07-0.45l1.34-0.07v0.45L27.66,12.36z"/>
		
			<linearGradient id="SVGID_12_" gradientUnits="userSpaceOnUse" x1="-222.877" y1="-212.4209" x2="-222.759" y2="-230.0459" gradientTransform="matrix(1.4917 0 0 1.4917 358.6697 343.4911)">
			<stop  offset="0" style="stop-color:#25A7FC"/>
			<stop  offset="0.2196" style="stop-color:#0255A1"/>
			<stop  offset="1" style="stop-color:#02266B"/>
		</linearGradient>
		<polygon fill-rule="evenodd" clip-rule="evenodd" fill="url(#SVGID_12_)" points="27.66,12.36 28.48,20.56 32.14,20.41 
			26.39,25.78 20.43,21.08 20.35,20.79 23.71,20.71 23.56,12.66 23.56,12.06 21.99,12.06 21.84,12.06 25.13,8.11 29.08,11.84 
			28.93,11.84 27.59,11.91 		"/>
	</g>
	<g>
		
			<radialGradient id="SVGID_13_" cx="-208.1104" cy="-210.3066" r="3.5957" gradientTransform="matrix(1.4779 -0.2022 0.0985 0.6223 374.3769 116.2064)" gradientUnits="userSpaceOnUse">
			<stop  offset="0" style="stop-color:#FFFFFF;stop-opacity:0.498"/>
			<stop  offset="0.1333" style="stop-color:#FFFFFF;stop-opacity:0.498"/>
			<stop  offset="0.3176" style="stop-color:#FFFFFF;stop-opacity:0.3333"/>
			<stop  offset="0.4157" style="stop-color:#FFFFFF;stop-opacity:0.298"/>
			<stop  offset="0.5686" style="stop-color:#FEFEFE;stop-opacity:0.1529"/>
			<stop  offset="0.7686" style="stop-color:#FCFCFC;stop-opacity:0.0275"/>
			<stop  offset="1" style="stop-color:#F9F9F9;stop-opacity:0"/>
		</radialGradient>
		<path fill-rule="evenodd" clip-rule="evenodd" fill="url(#SVGID_13_)" d="M46.46,29.59c-1.44,0.2-2.73,0.17-3.88-0.07
			c-1.04-0.3-1.62-0.75-1.72-1.34c-0.1-0.6,0.32-1.19,1.27-1.79c0.94-0.6,2.14-0.99,3.58-1.19c1.44-0.2,2.71-0.15,3.8,0.15
			c1.04,0.3,1.62,0.75,1.72,1.34c0.1,0.6-0.32,1.19-1.27,1.79C49.07,29.02,47.9,29.39,46.46,29.59z"/>
	</g>
	<g>
		
			<radialGradient id="SVGID_14_" cx="-235.3418" cy="-208.5576" r="5.8715" gradientTransform="matrix(1.4799 0.1874 -0.0413 0.3811 348.5348 153.2358)" gradientUnits="userSpaceOnUse">
			<stop  offset="0" style="stop-color:#FFFFFF;stop-opacity:0.498"/>
			<stop  offset="0.1333" style="stop-color:#FFFFFF;stop-opacity:0.498"/>
			<stop  offset="0.3176" style="stop-color:#FFFFFF;stop-opacity:0.3333"/>
			<stop  offset="0.4157" style="stop-color:#FFFFFF;stop-opacity:0.298"/>
			<stop  offset="0.5686" style="stop-color:#FEFEFE;stop-opacity:0.1529"/>
			<stop  offset="0.7686" style="stop-color:#FCFCFC;stop-opacity:0.0275"/>
			<stop  offset="1" style="stop-color:#F9F9F9;stop-opacity:0"/>
		</radialGradient>
		<path fill-rule="evenodd" clip-rule="evenodd" fill="url(#SVGID_14_)" d="M8.57,31.82c-2.29-0.3-4.25-0.75-5.89-1.34
			c-1.59-0.65-2.36-1.27-2.31-1.86c0.05-0.6,0.92-1.02,2.61-1.27c1.74-0.25,3.75-0.22,6.04,0.08c2.39,0.3,4.38,0.77,5.97,1.42
			c1.59,0.65,2.36,1.27,2.31,1.86c-0.05,0.6-0.92,1.02-2.61,1.27C12.99,32.17,10.95,32.12,8.57,31.82z"/>
	</g>
	<g>
		
			<radialGradient id="SVGID_15_" cx="-214.022" cy="-185.5166" r="10.846" gradientTransform="matrix(0.0928 1.4888 -0.3817 0.0172 -44.9035 374.9819)" gradientUnits="userSpaceOnUse">
			<stop  offset="0" style="stop-color:#FFFFFF;stop-opacity:0.498"/>
			<stop  offset="0.1333" style="stop-color:#FFFFFF;stop-opacity:0.498"/>
			<stop  offset="0.3176" style="stop-color:#FFFFFF;stop-opacity:0.3333"/>
			<stop  offset="0.4157" style="stop-color:#FFFFFF;stop-opacity:0.298"/>
			<stop  offset="0.5686" style="stop-color:#FEFEFE;stop-opacity:0.1529"/>
			<stop  offset="0.7686" style="stop-color:#FCFCFC;stop-opacity:0.0275"/>
			<stop  offset="1" style="stop-color:#F9F9F9;stop-opacity:0"/>
		</radialGradient>
		<path fill-rule="evenodd" clip-rule="evenodd" fill="url(#SVGID_15_)" d="M5.06,37.34c1.14-0.05,2.21,1.42,3.21,4.4
			c0.94,3.13,1.57,6.86,1.86,11.19c0.25,4.38,0.07,8.1-0.52,11.19c-0.6,3.13-1.47,4.72-2.61,4.77s-2.21-1.44-3.21-4.47
			C2.85,61.33,2.25,57.61,2,53.23c-0.3-4.33-0.15-8.05,0.45-11.19C3.05,38.96,3.92,37.39,5.06,37.34z"/>
	</g>
	<g>
		
			<radialGradient id="SVGID_16_" cx="-219.6934" cy="-207.1875" r="1.5405" gradientTransform="matrix(0.0968 1.4886 -0.7624 0.0363 -98.8907 377.7841)" gradientUnits="userSpaceOnUse">
			<stop  offset="0" style="stop-color:#FFFFFF;stop-opacity:0.498"/>
			<stop  offset="0.1333" style="stop-color:#FFFFFF;stop-opacity:0.498"/>
			<stop  offset="0.3176" style="stop-color:#FFFFFF;stop-opacity:0.3333"/>
			<stop  offset="0.4157" style="stop-color:#FFFFFF;stop-opacity:0.298"/>
			<stop  offset="0.5686" style="stop-color:#FEFEFE;stop-opacity:0.1529"/>
			<stop  offset="0.7686" style="stop-color:#FCFCFC;stop-opacity:0.0275"/>
			<stop  offset="1" style="stop-color:#F9F9F9;stop-opacity:0"/>
		</radialGradient>
		<path fill-rule="evenodd" clip-rule="evenodd" fill="url(#SVGID_16_)" d="M38.55,41.67c0.2,0.35,0.32,0.85,0.37,1.49
			c0.05,0.6-0.02,1.14-0.22,1.64c-0.2,0.45-0.45,0.67-0.75,0.67s-0.6-0.22-0.89-0.67c-0.2-0.4-0.32-0.9-0.37-1.49
			c-0.05-0.65,0.02-1.19,0.22-1.64c0.2-0.45,0.45-0.67,0.75-0.67C37.95,41,38.25,41.22,38.55,41.67z"/>
	</g>
	<g>
		
			<radialGradient id="SVGID_17_" cx="-223.4492" cy="-207.2241" r="1.3898" gradientTransform="matrix(0.0939 1.4887 -0.845 0.0402 -116.6119 378.6389)" gradientUnits="userSpaceOnUse">
			<stop  offset="0" style="stop-color:#FFFFFF;stop-opacity:0.498"/>
			<stop  offset="0.1333" style="stop-color:#FFFFFF;stop-opacity:0.498"/>
			<stop  offset="0.3176" style="stop-color:#FFFFFF;stop-opacity:0.3333"/>
			<stop  offset="0.4157" style="stop-color:#FFFFFF;stop-opacity:0.298"/>
			<stop  offset="0.5686" style="stop-color:#FEFEFE;stop-opacity:0.1529"/>
			<stop  offset="0.7686" style="stop-color:#FCFCFC;stop-opacity:0.0275"/>
			<stop  offset="1" style="stop-color:#F9F9F9;stop-opacity:0"/>
		</radialGradient>
		<path fill-rule="evenodd" clip-rule="evenodd" fill="url(#SVGID_17_)" d="M38.4,39.06c-0.2,0.4-0.45,0.6-0.75,0.6
			c-0.3,0-0.6-0.2-0.89-0.6c-0.2-0.35-0.32-0.8-0.37-1.34c-0.05-0.55,0.02-1.04,0.22-1.49c0.2-0.4,0.45-0.6,0.75-0.6
			s0.6,0.2,0.9,0.6c0.2,0.35,0.32,0.8,0.37,1.34C38.68,38.12,38.6,38.61,38.4,39.06z"/>
	</g>
	<g>
		
			<radialGradient id="SVGID_18_" cx="-219.7314" cy="-202.1846" r="1.5403" gradientTransform="matrix(0.0968 1.4886 -0.7624 0.0363 -102.5319 377.9575)" gradientUnits="userSpaceOnUse">
			<stop  offset="0" style="stop-color:#FFFFFF;stop-opacity:0.498"/>
			<stop  offset="0.1333" style="stop-color:#FFFFFF;stop-opacity:0.498"/>
			<stop  offset="0.3176" style="stop-color:#FFFFFF;stop-opacity:0.3333"/>
			<stop  offset="0.4157" style="stop-color:#FFFFFF;stop-opacity:0.298"/>
			<stop  offset="0.5686" style="stop-color:#FEFEFE;stop-opacity:0.1529"/>
			<stop  offset="0.7686" style="stop-color:#FCFCFC;stop-opacity:0.0275"/>
			<stop  offset="1" style="stop-color:#F9F9F9;stop-opacity:0"/>
		</radialGradient>
		<path fill-rule="evenodd" clip-rule="evenodd" fill="url(#SVGID_18_)" d="M31.09,41.97c0.2,0.35,0.32,0.84,0.37,1.49
			c0.05,0.6-0.02,1.14-0.22,1.64c-0.2,0.45-0.45,0.67-0.75,0.67s-0.6-0.22-0.9-0.67c-0.2-0.4-0.32-0.89-0.37-1.49
			c-0.05-0.65,0.02-1.19,0.22-1.64c0.2-0.45,0.45-0.67,0.75-0.67C30.5,41.3,30.79,41.52,31.09,41.97z"/>
	</g>
	<g>
		
			<radialGradient id="SVGID_19_" cx="-223.6797" cy="-202.3833" r="1.3892" gradientTransform="matrix(0.0939 1.4887 -0.845 0.0402 -119.7353 378.7877)" gradientUnits="userSpaceOnUse">
			<stop  offset="0" style="stop-color:#FFFFFF;stop-opacity:0.498"/>
			<stop  offset="0.1333" style="stop-color:#FFFFFF;stop-opacity:0.498"/>
			<stop  offset="0.3176" style="stop-color:#FFFFFF;stop-opacity:0.3333"/>
			<stop  offset="0.4157" style="stop-color:#FFFFFF;stop-opacity:0.298"/>
			<stop  offset="0.5686" style="stop-color:#FEFEFE;stop-opacity:0.1529"/>
			<stop  offset="0.7686" style="stop-color:#FCFCFC;stop-opacity:0.0275"/>
			<stop  offset="1" style="stop-color:#F9F9F9;stop-opacity:0"/>
		</radialGradient>
		<path fill-rule="evenodd" clip-rule="evenodd" fill="url(#SVGID_19_)" d="M31.17,39.06c-0.2,0.4-0.45,0.6-0.75,0.6
			c-0.3,0-0.6-0.2-0.9-0.6c-0.2-0.35-0.32-0.8-0.37-1.34c-0.05-0.55,0.02-1.04,0.22-1.49c0.2-0.4,0.45-0.6,0.75-0.6s0.6,0.2,0.9,0.6
			c0.2,0.35,0.32,0.8,0.37,1.34C31.44,38.12,31.37,38.61,31.17,39.06z"/>
	</g>
	<g>
		
			<radialGradient id="SVGID_20_" cx="-219.7881" cy="-197.834" r="1.5403" gradientTransform="matrix(0.0968 1.4886 -0.7624 0.0363 -105.6982 378.1083)" gradientUnits="userSpaceOnUse">
			<stop  offset="0" style="stop-color:#FFFFFF;stop-opacity:0.498"/>
			<stop  offset="0.1333" style="stop-color:#FFFFFF;stop-opacity:0.498"/>
			<stop  offset="0.3176" style="stop-color:#FFFFFF;stop-opacity:0.3333"/>
			<stop  offset="0.4157" style="stop-color:#FFFFFF;stop-opacity:0.298"/>
			<stop  offset="0.5686" style="stop-color:#FEFEFE;stop-opacity:0.1529"/>
			<stop  offset="0.7686" style="stop-color:#FCFCFC;stop-opacity:0.0275"/>
			<stop  offset="1" style="stop-color:#F9F9F9;stop-opacity:0"/>
		</radialGradient>
		<path fill-rule="evenodd" clip-rule="evenodd" fill="url(#SVGID_20_)" d="M24.6,42.19c0.2,0.35,0.32,0.84,0.37,1.49
			c0.05,0.6-0.02,1.14-0.22,1.64c-0.2,0.45-0.45,0.67-0.75,0.67c-0.3,0-0.6-0.22-0.9-0.67c-0.2-0.4-0.32-0.9-0.37-1.49
			c-0.05-0.65,0.03-1.19,0.22-1.64c0.2-0.45,0.45-0.67,0.75-0.67C24.01,41.52,24.31,41.74,24.6,42.19z"/>
	</g>
	<g>
		
			<radialGradient id="SVGID_21_" cx="-223.6465" cy="-197.8281" r="1.3899" gradientTransform="matrix(0.0939 1.4887 -0.845 0.0402 -122.6744 378.9276)" gradientUnits="userSpaceOnUse">
			<stop  offset="0" style="stop-color:#FFFFFF;stop-opacity:0.498"/>
			<stop  offset="0.1333" style="stop-color:#FFFFFF;stop-opacity:0.498"/>
			<stop  offset="0.3176" style="stop-color:#FFFFFF;stop-opacity:0.3333"/>
			<stop  offset="0.4157" style="stop-color:#FFFFFF;stop-opacity:0.298"/>
			<stop  offset="0.5686" style="stop-color:#FEFEFE;stop-opacity:0.1529"/>
			<stop  offset="0.7686" style="stop-color:#FCFCFC;stop-opacity:0.0275"/>
			<stop  offset="1" style="stop-color:#F9F9F9;stop-opacity:0"/>
		</radialGradient>
		<path fill-rule="evenodd" clip-rule="evenodd" fill="url(#SVGID_21_)" d="M24.38,39.43c-0.2,0.4-0.45,0.6-0.75,0.6
			c-0.3,0-0.6-0.2-0.9-0.6c-0.2-0.35-0.32-0.8-0.37-1.34c-0.05-0.55,0.03-1.04,0.22-1.49c0.2-0.4,0.45-0.6,0.75-0.6
			c0.3,0,0.6,0.2,0.89,0.6c0.2,0.35,0.32,0.8,0.37,1.34C24.65,38.49,24.58,38.99,24.38,39.43z"/>
	</g>
	<g>
		
			<radialGradient id="SVGID_22_" cx="-219.9858" cy="-190.54" r="1.5405" gradientTransform="matrix(0.0968 1.4886 -0.7624 0.0363 -111.0068 378.3611)" gradientUnits="userSpaceOnUse">
			<stop  offset="0" style="stop-color:#FFFFFF;stop-opacity:0.498"/>
			<stop  offset="0.1333" style="stop-color:#FFFFFF;stop-opacity:0.498"/>
			<stop  offset="0.3176" style="stop-color:#FFFFFF;stop-opacity:0.3333"/>
			<stop  offset="0.4157" style="stop-color:#FFFFFF;stop-opacity:0.298"/>
			<stop  offset="0.5686" style="stop-color:#FEFEFE;stop-opacity:0.1529"/>
			<stop  offset="0.7686" style="stop-color:#FCFCFC;stop-opacity:0.0275"/>
			<stop  offset="1" style="stop-color:#F9F9F9;stop-opacity:0"/>
		</radialGradient>
		<path fill-rule="evenodd" clip-rule="evenodd" fill="url(#SVGID_22_)" d="M13.86,45.55c-0.2,0.45-0.45,0.67-0.75,0.67
			c-0.3,0-0.6-0.22-0.9-0.67c-0.2-0.4-0.32-0.9-0.37-1.49c-0.05-0.65,0.02-1.19,0.22-1.64s0.45-0.67,0.75-0.67
			c0.3,0,0.6,0.22,0.9,0.67c0.2,0.35,0.32,0.85,0.37,1.49C14.14,44.5,14.06,45.05,13.86,45.55z"/>
	</g>
	<g>
		
			<radialGradient id="SVGID_23_" cx="-223.834" cy="-190.7314" r="1.3894" gradientTransform="matrix(0.0939 1.4887 -0.845 0.0402 -127.2534 379.1457)" gradientUnits="userSpaceOnUse">
			<stop  offset="0" style="stop-color:#FFFFFF;stop-opacity:0.498"/>
			<stop  offset="0.1333" style="stop-color:#FFFFFF;stop-opacity:0.498"/>
			<stop  offset="0.3176" style="stop-color:#FFFFFF;stop-opacity:0.3333"/>
			<stop  offset="0.4157" style="stop-color:#FFFFFF;stop-opacity:0.298"/>
			<stop  offset="0.5686" style="stop-color:#FEFEFE;stop-opacity:0.1529"/>
			<stop  offset="0.7686" style="stop-color:#FCFCFC;stop-opacity:0.0275"/>
			<stop  offset="1" style="stop-color:#F9F9F9;stop-opacity:0"/>
		</radialGradient>
		<path fill-rule="evenodd" clip-rule="evenodd" fill="url(#SVGID_23_)" d="M13.79,39.66c-0.2,0.4-0.45,0.6-0.75,0.6
			c-0.3,0-0.6-0.2-0.89-0.6c-0.2-0.35-0.32-0.8-0.37-1.34c-0.05-0.55,0.02-1.04,0.22-1.49c0.2-0.4,0.45-0.6,0.75-0.6
			c0.3,0,0.6,0.2,0.9,0.6c0.2,0.35,0.32,0.8,0.37,1.34C14.06,38.71,13.99,39.21,13.79,39.66z"/>
	</g>
</g>
</svg>
