<?xml version="1.0" encoding="utf-8"?>
<!-- Generator: Adobe Illustrator 16.0.0, SVG Export Plug-In . SVG Version: 6.00 Build 0)  -->
<!DOCTYPE svg PUBLIC "-//W3C//DTD SVG 1.1//EN" "http://www.w3.org/Graphics/SVG/1.1/DTD/svg11.dtd">
<svg version="1.1" id="Layer_1" xmlns="http://www.w3.org/2000/svg" xmlns:xlink="http://www.w3.org/1999/xlink" x="0px" y="0px"
	 width="238px" height="98.75px" viewBox="0 0 238 98.75" enable-background="new 0 0 238 98.75" xml:space="preserve">
<g>
	
		<radialGradient id="SVGID_1_" cx="194.8496" cy="32.0498" r="32.6063" gradientTransform="matrix(0.306 0.952 -0.9398 0.3021 165.3504 -163.1353)" gradientUnits="userSpaceOnUse">
		<stop  offset="0" style="stop-color:#FFFFFF;stop-opacity:0.749"/>
		<stop  offset="0.302" style="stop-color:#FFFFFF;stop-opacity:0.8314"/>
		<stop  offset="1" style="stop-color:#FFFFFF;stop-opacity:0"/>
	</radialGradient>
	<path fill-rule="evenodd" clip-rule="evenodd" fill="url(#SVGID_1_)" d="M220.15,51c-0.33-0.33-0.67-0.65-1-0.95V49.8
		C219.48,50.2,219.82,50.6,220.15,51z"/>
	<g>
		<path fill-rule="evenodd" clip-rule="evenodd" fill="#C0C1C3" d="M235.6,87.35h-0.4c-2.57-20.97-14.08-38.62-34.55-52.95
			c-0.67-0.37-1.37-0.8-2.1-1.3c-2.77-1.9-5.63-3.65-8.6-5.25c-20.7-11.5-44.75-16.47-72.15-14.9c-28.2,1.57-52.75,9.6-73.65,24.1
			c-2.23,1.5-4.42,3.1-6.55,4.8c-0.73,0.53-1.47,1.1-2.2,1.7v0.05C16.29,59.4,5.34,77.29,2.58,97.25h-0.4
			c1.72-20.86,12.01-39.5,30.88-55.9h0.1c0-0.03,0.02-0.08,0.05-0.15c0.73-0.63,1.47-1.23,2.2-1.8v-0.1
			c0.6-0.43,1.18-0.85,1.75-1.25c1.6-1.3,3.23-2.53,4.9-3.7c0-0.07,0.02-0.1,0.05-0.1C63.3,18.92,88.4,10.4,117.4,8.7
			c0.17,0,0.3,0,0.4,0c28.23-1.57,52.93,3.75,74.1,15.95c2.97,1.7,5.88,3.57,8.75,5.6c0.73,0.5,1.47,1.02,2.2,1.55
			c0.07,0.03,0.1,0.08,0.1,0.15H203c20.27,14.93,31.13,33.38,32.6,55.35V87.35z M235.6,84.5c-1.37-22.4-12.43-41.12-33.2-56.15
			c0-0.03-0.02-0.08-0.05-0.15c-0.6-0.4-1.17-0.78-1.7-1.15c-2.33-1.67-4.72-3.23-7.15-4.7c-0.13-0.03-0.2-0.08-0.2-0.15
			C171.87,9.5,146.7,3.93,117.8,5.5c-0.1,0-0.2,0.02-0.3,0.05C89.4,7.12,64.95,15.13,44.15,29.6c-2.9,2.03-5.78,4.22-8.65,6.55h-0.1
			c-0.3,0.27-0.58,0.52-0.85,0.75l-1.05,0.85C13.25,55.04,2.77,74.87,2.05,97.25C1.66,74.17,11.51,53.69,31.6,35.8
			c0-0.03,0.03-0.08,0.1-0.15c0.03-0.03,0.07-0.05,0.1-0.05c1.13-1.1,2.33-2.15,3.6-3.15c2.23-1.8,4.5-3.55,6.8-5.25h0.2
			C63.43,12,88.33,3.55,117.1,1.85c0.1-0.07,0.18-0.07,0.25,0c0.13-0.07,0.28-0.1,0.45-0.1c29.83-1.63,55.65,4.38,77.45,18.05
			c1.87,1.07,3.67,2.23,5.4,3.5c1.27,0.9,2.48,1.78,3.65,2.65l-1.9,2.4l2.05-2.25h0.1c20.53,15.73,30.92,35.2,31.15,58.4H235.6z"/>
		<path fill-rule="evenodd" clip-rule="evenodd" fill="#6E7376" d="M202.4,28.35c20.77,15.03,31.83,33.75,33.2,56.15
			c0.07,0.27,0.1,0.53,0.1,0.8v2.05h-0.1V87.3c-1.47-21.97-12.33-40.42-32.6-55.35h-0.05c0-0.07-0.03-0.12-0.1-0.15
			c-0.73-0.53-1.47-1.05-2.2-1.55c-2.87-2.03-5.78-3.9-8.75-5.6c-21.17-12.2-45.87-17.52-74.1-15.95c-0.1,0-0.23,0-0.4,0
			c-29,1.7-54.1,10.22-75.3,25.55c-0.03,0-0.05,0.03-0.05,0.1c-1.67,1.17-3.3,2.4-4.9,3.7c-0.57,0.4-1.15,0.82-1.75,1.25v0.1
			c-0.73,0.57-1.47,1.17-2.2,1.8c-0.03,0.07-0.05,0.12-0.05,0.15h-0.1C14.18,57.75,3.89,76.39,2.17,97.25H2.05
			c0.72-22.38,11.2-42.21,31.45-59.5l1.05-0.85c0.27-0.23,0.55-0.48,0.85-0.75h0.1c2.87-2.33,5.75-4.52,8.65-6.55
			C64.95,15.13,89.4,7.12,117.5,5.55c0.1-0.03,0.2-0.05,0.3-0.05c28.9-1.57,54.07,4,75.5,16.7c0,0.07,0.07,0.12,0.2,0.15
			c2.43,1.47,4.82,3.03,7.15,4.7c0.53,0.37,1.1,0.75,1.7,1.15C202.38,28.27,202.4,28.32,202.4,28.35z"/>
		<linearGradient id="SVGID_2_" gradientUnits="userSpaceOnUse" x1="2.0498" y1="66.3252" x2="235.7498" y2="66.3252">
			<stop  offset="0" style="stop-color:#B1B2B6"/>
			<stop  offset="1" style="stop-color:#BABEC1"/>
		</linearGradient>
		<path fill-rule="evenodd" clip-rule="evenodd" fill="url(#SVGID_2_)" d="M44.15,37.05L35.4,43.6v-0.05c0.73-0.6,1.47-1.17,2.2-1.7
			C39.73,40.15,41.92,38.55,44.15,37.05z M235.7,95.6l-0.5-8.25c0.1,0.53,0.18,1.07,0.25,1.6c0.03,0.7,0.08,1.42,0.15,2.15l0.1,3.35
			C235.7,94.88,235.7,95.27,235.7,95.6z"/>
		<linearGradient id="SVGID_3_" gradientUnits="userSpaceOnUse" x1="119.1675" y1="112.2012" x2="119.3055" y2="190.5012">
			<stop  offset="0" style="stop-color:#B1B2B6"/>
			<stop  offset="1" style="stop-color:#929698"/>
		</linearGradient>
		<path fill-rule="evenodd" clip-rule="evenodd" fill="url(#SVGID_3_)" d="M35.4,43.6l8.75-6.55c20.9-14.5,45.45-22.53,73.65-24.1
			c27.4-1.57,51.45,3.4,72.15,14.9c2.97,1.6,5.83,3.35,8.6,5.25c0.73,0.5,1.43,0.93,2.1,1.3c20.47,14.33,31.98,31.98,34.55,52.95
			l0.5,8.25c0.01,0.55,0.01,1.1,0,1.65h-20.05c0-0.15,0-0.3,0-0.45c-0.07-5.9-0.92-11.53-2.55-16.9
			c-4.07-13.1-12.88-24.37-26.45-33.8c-19.1-13.43-41.98-19.42-68.65-17.95c-26.73,1.43-49.5,9.92-68.3,25.45
			C34.12,66.41,25.1,80.96,22.65,97.25H2.58C5.34,77.29,16.29,59.4,35.4,43.6z"/>
		<linearGradient id="SVGID_4_" gradientUnits="userSpaceOnUse" x1="22.4126" y1="88.5752" x2="215.5876" y2="88.5752">
			<stop  offset="0" style="stop-color:#595959"/>
			<stop  offset="0.3804" style="stop-color:#8F8E8C"/>
			<stop  offset="1" style="stop-color:#595959"/>
		</linearGradient>
		<path fill-rule="evenodd" clip-rule="evenodd" fill="url(#SVGID_4_)" d="M213.1,79.9c1.63,5.37,2.48,11,2.55,16.9
			c0,0.15,0,0.3,0,0.45h-2.83c0.04-0.28,0.09-0.57,0.13-0.85c0.43-3.17,0.62-6.35,0.55-9.55C213.47,84.52,213.33,82.2,213.1,79.9z"
			/>
	</g>
	<g>
		
			<radialGradient id="SVGID_5_" cx="117.7998" cy="23.7002" r="122.375" gradientTransform="matrix(1 0 0 0.9912 0 0.2082)" gradientUnits="userSpaceOnUse">
			<stop  offset="0" style="stop-color:#FFFFFF;stop-opacity:0.7294"/>
			<stop  offset="0.5725" style="stop-color:#FEFEFE;stop-opacity:0.4235"/>
			<stop  offset="1" style="stop-color:#F7F7F7;stop-opacity:0.0235"/>
		</radialGradient>
		<path fill-rule="evenodd" clip-rule="evenodd" fill="url(#SVGID_5_)" d="M233.95,71.35l-0.05-0.05
			c-4.03-14.47-12.82-27.37-26.35-38.7c-8.2-6.93-17.23-12.52-27.1-16.75c-2.97-1.27-6.02-2.43-9.15-3.5
			c-13.53-4.47-28.38-6.73-44.55-6.8c-16.43-0.03-31.88,2.23-46.35,6.8c-3.33,1.07-6.57,2.23-9.7,3.5
			C60.3,19.95,50.55,25.33,41.45,32c-18.43,13.43-30.6,28.93-36.5,46.5c-0.03,0.07-0.08,0.1-0.15,0.1
			c-0.03,0.03-0.08,0.05-0.15,0.05C4.62,78.62,4.6,78.57,4.6,78.5c-0.07-0.03-0.07-0.07,0-0.1c5.93-17.7,18.15-33.27,36.65-46.7
			c9.13-6.67,18.9-12.07,29.3-16.2c3.17-1.3,6.4-2.47,9.7-3.5c14.47-4.63,29.97-6.9,46.5-6.8c16.27,0,31.17,2.27,44.7,6.8
			c3.13,1.07,6.18,2.23,9.15,3.5c9.87,4.27,18.92,9.87,27.15,16.8c13.6,11.43,22.43,24.4,26.5,38.9l-0.05,0.1
			c-0.07,0.03-0.1,0.08-0.1,0.15C234.07,71.45,234.02,71.42,233.95,71.35z"/>
	</g>
	<g>
		
			<radialGradient id="SVGID_6_" cx="119.9502" cy="49.499" r="122.3597" gradientTransform="matrix(1 0 0 0.9912 0 0.4348)" gradientUnits="userSpaceOnUse">
			<stop  offset="0" style="stop-color:#FFFFFF;stop-opacity:0.8627"/>
			<stop  offset="0.549" style="stop-color:#FEFEFE;stop-opacity:0.5922"/>
			<stop  offset="1" style="stop-color:#F7F7F7;stop-opacity:0.0235"/>
		</radialGradient>
		<path fill-rule="evenodd" clip-rule="evenodd" fill="url(#SVGID_6_)" d="M233.7,79.2c-0.1-0.1-0.18-0.18-0.25-0.25
			c-4-14.4-12.77-27.27-26.3-38.6c-8.17-6.93-17.17-12.52-27-16.75c-2.97-1.27-5.98-2.43-9.05-3.5c-13.53-4.47-28.38-6.73-44.55-6.8
			c-16.47-0.03-31.9,2.23-46.3,6.8c-3.3,1.07-6.53,2.23-9.7,3.5c-10.33,4.1-20.08,9.48-29.25,16.15C22.9,53.15,10.77,68.63,4.9,86.2
			c-0.07,0.1-0.15,0.17-0.25,0.2c-0.1,0-0.17,0-0.2,0c-0.17-0.03-0.25-0.1-0.25-0.2c-0.03-0.1-0.03-0.18,0-0.25
			c5.97-17.7,18.2-33.3,36.7-46.8c9.13-6.67,18.92-12.07,29.35-16.2c3.17-1.33,6.42-2.53,9.75-3.6c14.47-4.57,29.98-6.82,46.55-6.75
			c16.27,0.03,31.18,2.32,44.75,6.85c3.13,1,6.18,2.17,9.15,3.5c9.93,4.27,18.98,9.87,27.15,16.8c13.63,11.43,22.5,24.43,26.6,39
			c0.03,0.1,0.03,0.2,0,0.3c-0.1,0.03-0.18,0.08-0.25,0.15C233.82,79.23,233.73,79.23,233.7,79.2z"/>
	</g>
	<g>
		<radialGradient id="SVGID_7_" cx="195.6504" cy="25.1499" r="32.6283" gradientUnits="userSpaceOnUse">
			<stop  offset="0" style="stop-color:#FFFFFF;stop-opacity:0.749"/>
			<stop  offset="0.302" style="stop-color:#FFFFFF;stop-opacity:0.8314"/>
			<stop  offset="1" style="stop-color:#FFFFFF;stop-opacity:0"/>
		</radialGradient>
		<path fill-rule="evenodd" clip-rule="evenodd" fill="url(#SVGID_7_)" d="M222.05,47.1c-0.27,0.07-0.48,0-0.65-0.2
			c-17.87-19.43-37.43-31.65-58.7-36.65c-0.23-0.07-0.4-0.22-0.5-0.45c-0.17-0.2-0.22-0.42-0.15-0.65c0.1-0.23,0.23-0.43,0.4-0.6
			c0.27-0.13,0.52-0.15,0.75-0.05c21.63,5,41.5,17.37,59.6,37.1c0.2,0.13,0.27,0.37,0.2,0.7c0,0.27-0.1,0.47-0.3,0.6
			C222.57,47.03,222.35,47.1,222.05,47.1z"/>
	</g>
	<g>
		
			<radialGradient id="SVGID_8_" cx="194.8496" cy="32.2002" r="32.6063" gradientTransform="matrix(0.306 0.952 -0.9398 0.3021 165.4918 -163.0303)" gradientUnits="userSpaceOnUse">
			<stop  offset="0" style="stop-color:#FFFFFF;stop-opacity:0.749"/>
			<stop  offset="0.302" style="stop-color:#FFFFFF;stop-opacity:0.8314"/>
			<stop  offset="1" style="stop-color:#FFFFFF;stop-opacity:0"/>
		</radialGradient>
		<path fill-rule="evenodd" clip-rule="evenodd" fill="url(#SVGID_8_)" d="M170.85,19.75c18.97,4.23,33.73,13.45,44.3,27.65
			C203.98,34.73,189.22,25.52,170.85,19.75z"/>
	</g>
	<g>
		<radialGradient id="SVGID_9_" cx="37.1499" cy="43.25" r="32.6625" gradientUnits="userSpaceOnUse">
			<stop  offset="0" style="stop-color:#FFFFFF;stop-opacity:0.749"/>
			<stop  offset="0.302" style="stop-color:#FFFFFF;stop-opacity:0.8314"/>
			<stop  offset="1" style="stop-color:#FFFFFF;stop-opacity:0"/>
		</radialGradient>
		<path fill-rule="evenodd" clip-rule="evenodd" fill="url(#SVGID_9_)" d="M65.7,23.7c0.27,0.07,0.43,0.23,0.5,0.5
			c0.1,0.2,0.1,0.43,0,0.7c-0.07,0.27-0.2,0.45-0.4,0.55c-24,11-41.65,25.87-52.95,44.6c-0.17,0.2-0.37,0.35-0.6,0.45
			c-0.23,0.03-0.45-0.02-0.65-0.15c-0.23-0.17-0.38-0.37-0.45-0.6c-0.1-0.23-0.07-0.45,0.1-0.65C22.72,50,40.63,34.87,65,23.7
			C65.17,23.6,65.4,23.6,65.7,23.7z"/>
	</g>
	<g>
		<radialGradient id="SVGID_10_" cx="37.25" cy="35.3501" r="32.6625" gradientUnits="userSpaceOnUse">
			<stop  offset="0" style="stop-color:#FFFFFF;stop-opacity:0.749"/>
			<stop  offset="0.302" style="stop-color:#FFFFFF;stop-opacity:0.8314"/>
			<stop  offset="1" style="stop-color:#FFFFFF;stop-opacity:0"/>
		</radialGradient>
		<path fill-rule="evenodd" clip-rule="evenodd" fill="url(#SVGID_10_)" d="M66.3,17.05c-0.1,0.23-0.25,0.4-0.45,0.5
			c-24,11-41.65,25.87-52.95,44.6c-0.13,0.2-0.33,0.35-0.6,0.45c-0.23,0.03-0.45-0.02-0.65-0.15c-0.23-0.13-0.37-0.33-0.4-0.6
			c-0.1-0.23-0.08-0.45,0.05-0.65C22.8,42.13,40.72,27,65.05,15.8c0.2-0.1,0.45-0.1,0.75,0c0.23,0.1,0.4,0.27,0.5,0.5
			C66.4,16.5,66.4,16.75,66.3,17.05z"/>
	</g>
	<g>
		
			<radialGradient id="SVGID_11_" cx="123.7002" cy="4.2002" r="16.575" gradientTransform="matrix(1 0 0 0.1101 0 3.7377)" gradientUnits="userSpaceOnUse">
			<stop  offset="0" style="stop-color:#FFFFFF"/>
			<stop  offset="0.1765" style="stop-color:#FFFFFF"/>
			<stop  offset="0.3059" style="stop-color:#FFFFFF;stop-opacity:0.4235"/>
			<stop  offset="0.4902" style="stop-color:#FFFFFF;stop-opacity:0.2314"/>
			<stop  offset="0.651" style="stop-color:#FFFFFF;stop-opacity:0.0824"/>
			<stop  offset="1" style="stop-color:#FFFFFF;stop-opacity:0"/>
		</radialGradient>
		<path fill-rule="evenodd" clip-rule="evenodd" fill="url(#SVGID_11_)" d="M135.25,5.4C132.02,5.8,128.17,6,123.7,6
			c-4.47,0-8.32-0.2-11.55-0.6c-3.2-0.33-4.8-0.73-4.8-1.2c0-0.5,1.6-0.95,4.8-1.35c3.23-0.33,7.08-0.5,11.55-0.5
			c4.47,0,8.32,0.17,11.55,0.5c3.2,0.4,4.8,0.85,4.8,1.35C140.05,4.67,138.45,5.07,135.25,5.4z"/>
	</g>
	<g>
		
			<radialGradient id="SVGID_12_" cx="124.2749" cy="12.1499" r="21.7874" gradientTransform="matrix(1 0 0 0.1172 0 10.7262)" gradientUnits="userSpaceOnUse">
			<stop  offset="0" style="stop-color:#FFFFFF"/>
			<stop  offset="0.1765" style="stop-color:#FFFFFF"/>
			<stop  offset="0.3059" style="stop-color:#FFFFFF;stop-opacity:0.4235"/>
			<stop  offset="0.4902" style="stop-color:#FFFFFF;stop-opacity:0.2314"/>
			<stop  offset="0.651" style="stop-color:#FFFFFF;stop-opacity:0.0824"/>
			<stop  offset="1" style="stop-color:#FFFFFF;stop-opacity:0"/>
		</radialGradient>
		<path fill-rule="evenodd" clip-rule="evenodd" fill="url(#SVGID_12_)" d="M145.75,12.15c0,0.67-2.12,1.25-6.35,1.75
			c-4.2,0.47-9.23,0.7-15.1,0.7c-5.9,0-10.95-0.23-15.15-0.7c-4.23-0.5-6.35-1.08-6.35-1.75c0-0.73,2.12-1.35,6.35-1.85
			c4.2-0.47,9.25-0.7,15.15-0.7c5.87,0,10.9,0.23,15.1,0.7C143.63,10.8,145.75,11.42,145.75,12.15z"/>
	</g>
</g>
</svg>
