<?xml version="1.0" encoding="utf-8"?>
<!-- Generator: Adobe Illustrator 16.0.0, SVG Export Plug-In . SVG Version: 6.00 Build 0)  -->
<!DOCTYPE svg PUBLIC "-//W3C//DTD SVG 1.1//EN" "http://www.w3.org/Graphics/SVG/1.1/DTD/svg11.dtd">
<svg version="1.1" id="Layer_1" xmlns="http://www.w3.org/2000/svg" xmlns:xlink="http://www.w3.org/1999/xlink" x="0px" y="0px"
	 width="197.5px" height="98.5px" viewBox="0 0 197.5 98.5" enable-background="new 0 0 197.5 98.5" xml:space="preserve">
<g>
	<g>
		
			<path fill-rule="evenodd" clip-rule="evenodd" fill="none" stroke="#000000" stroke-width="4" stroke-linecap="round" stroke-linejoin="round" stroke-miterlimit="3" stroke-opacity="0.2471" d="
			M11.54,90.59c19.47,6.28,41.94,4.53,67.41-5.26c32.91-16.41,53.31-27.17,61.2-32.28c7.84-5.11,19.3-15.14,34.4-30.09
			c2.24-7.74,5.65-12.27,10.22-13.58"/>
	</g>
	<g>
		
			<path fill-rule="evenodd" clip-rule="evenodd" fill="none" stroke="#FFFFFF" stroke-width="4" stroke-linecap="round" stroke-linejoin="round" stroke-miterlimit="3" d="
			M4.39,88.11c2.49,1.85,6.55,0.69,12.2-3.51c5.64-4.2,15.29-5.32,28.96-3.36c10.63,1.54,23.81-0.48,39.55-6.06
			c5.79-2.9,16.79-8.42,32.97-16.54c16.19-8.13,29.13-17.55,38.82-28.26c9.69-10.71,15.95-17.68,18.77-20.89
			c2.81-3.21,5.5-4.41,8.07-3.62c3.17,2,5.92,2.12,8.25,0.37"/>
	</g>
</g>
</svg>
