<?xml version="1.0" encoding="utf-8"?>
<!-- Generator: Adobe Illustrator 16.0.0, SVG Export Plug-In . SVG Version: 6.00 Build 0)  -->
<!DOCTYPE svg PUBLIC "-//W3C//DTD SVG 1.1//EN" "http://www.w3.org/Graphics/SVG/1.1/DTD/svg11.dtd">
<svg version="1.1" id="Layer_1" xmlns="http://www.w3.org/2000/svg" xmlns:xlink="http://www.w3.org/1999/xlink" x="0px" y="0px"
	 width="205px" height="83.5px" viewBox="0 0 205 83.5" enable-background="new 0 0 205 83.5" xml:space="preserve">
<g>
	<g>
		
			<path fill-rule="evenodd" clip-rule="evenodd" fill="none" stroke="#000000" stroke-width="4" stroke-linecap="round" stroke-linejoin="round" stroke-miterlimit="3" stroke-opacity="0.2471" d="
			M16.82,71.26c30.38,5.48,52.42,5.65,66.1,0.49c34.69-12.4,57.86-21.73,69.52-27.99c11.66-6.31,22.11-14.86,31.37-25.64
			c3.65-6.06,7.82-9.5,12.51-10.3"/>
	</g>
	<g>
		
			<path fill-rule="evenodd" clip-rule="evenodd" fill="none" stroke="#FFFFFF" stroke-width="4" stroke-linecap="round" stroke-linejoin="round" stroke-miterlimit="3" d="
			M8.54,66.38c2.27,2.11,6.44,1.4,12.5-2.15c6.06-3.56,15.77-3.62,29.13-0.19c10.39,2.68,23.71,2.11,39.95-1.72
			c6.07-2.25,17.59-6.53,34.56-12.84c16.97-6.31,30.85-14.26,41.64-23.85c6.81-6.04,12.64-11.93,17.5-17.65
			c2.69-3.47,4.94-4.75,6.73-3.81c2.39,2.38,5.35,2.63,8.88,0.75"/>
	</g>
</g>
</svg>
