<?xml version="1.0" encoding="utf-8"?>
<!-- Generator: Adobe Illustrator 16.0.0, SVG Export Plug-In . SVG Version: 6.00 Build 0)  -->
<!DOCTYPE svg PUBLIC "-//W3C//DTD SVG 1.1//EN" "http://www.w3.org/Graphics/SVG/1.1/DTD/svg11.dtd">
<svg version="1.1" id="Layer_1" xmlns="http://www.w3.org/2000/svg" xmlns:xlink="http://www.w3.org/1999/xlink" x="0px" y="0px"
	 width="202.5px" height="71px" viewBox="0 0 202.5 71" enable-background="new 0 0 202.5 71" xml:space="preserve">
<g>
	<g>
		
			<path fill-rule="evenodd" clip-rule="evenodd" fill="none" stroke="#000000" stroke-width="4" stroke-linecap="round" stroke-linejoin="round" stroke-miterlimit="3" stroke-opacity="0.2471" d="
			M12.77,57.09c10.81,5.85,32.57,8.86,65.26,9.03c35.93-8.06,60.06-14.49,72.39-19.27c10.57-4.15,19.72-9.54,27.43-16.17
			c1.19-2.72,2.38-4.79,3.56-6.21c2.01-2.57,3.67-5.08,5-7.52c1.43-0.76,2.46-1.09,3.08-1"/>
	</g>
	<g>
		
			<path fill-rule="evenodd" clip-rule="evenodd" fill="none" stroke="#FFFFFF" stroke-width="4" stroke-linecap="round" stroke-linejoin="round" stroke-miterlimit="3" d="
			M4.89,51.71c2,2.37,6.22,2.17,12.66-0.61c6.45-2.79,16.09-1.67,28.92,3.38c9.98,3.93,23.26,4.99,39.84,3.18
			c6.3-1.49,17.68-4.33,34.14-8.55c8.87-2.27,15.8-4.67,20.78-7.2c14.31-4.44,26.83-13.03,37.56-25.77
			c4.75-5.42,8.31-7.17,10.69-5.27c3.27,1.53,6.53,1.39,9.76-0.39"/>
	</g>
</g>
</svg>
