<?xml version="1.0" encoding="utf-8"?>
<!-- Generator: Adobe Illustrator 16.0.0, SVG Export Plug-In . SVG Version: 6.00 Build 0)  -->
<!DOCTYPE svg PUBLIC "-//W3C//DTD SVG 1.1//EN" "http://www.w3.org/Graphics/SVG/1.1/DTD/svg11.dtd">
<svg version="1.1" id="Layer_2" xmlns="http://www.w3.org/2000/svg" xmlns:xlink="http://www.w3.org/1999/xlink" x="0px" y="0px"
	 width="680px" height="707px" viewBox="0 0 680 707" enable-background="new 0 0 680 707" xml:space="preserve">
<g>
	<g id="Glacing">
		<g>
			<g>
				
					<radialGradient id="SVGID_1_" cx="244.3057" cy="622.4785" r="108.1007" gradientTransform="matrix(0.9976 2.000000e-004 -2.000000e-004 0.9977 -3.9609 -1.2929)" gradientUnits="userSpaceOnUse">
					<stop  offset="0" style="stop-color:#FFFFFF;stop-opacity:0.2118"/>
					<stop  offset="0.5412" style="stop-color:#FFFFFF;stop-opacity:0.0863"/>
					<stop  offset="1" style="stop-color:#FEFEFE;stop-opacity:0"/>
				</radialGradient>
				<path fill-rule="evenodd" clip-rule="evenodd" fill="url(#SVGID_1_)" d="M130.01,579.47c0.57-0.03,1.05,0.17,1.45,0.6
					c0.4,0.27,0.81,0.57,1.25,0.9c52.36,44.61,121.99,68.57,208.88,71.88c0.57,0,1.05,0.23,1.45,0.7c0.33,0.37,0.5,0.83,0.5,1.4
					c0,0.5-0.2,0.95-0.6,1.35c-0.43,0.4-0.9,0.6-1.4,0.6c-87.95-3.31-158.4-27.55-211.33-72.73c-0.47-0.4-0.91-0.78-1.35-1.15
					c-0.47-0.4-0.7-0.85-0.7-1.35c-0.03-0.63,0.13-1.13,0.5-1.5C129.03,579.77,129.47,579.54,130.01,579.47z"/>
				
					<radialGradient id="SVGID_2_" cx="244.2305" cy="631.9287" r="108.1529" gradientTransform="matrix(0.9976 2.000000e-004 -2.000000e-004 0.9977 -3.9609 -1.2929)" gradientUnits="userSpaceOnUse">
					<stop  offset="0" style="stop-color:#FFFFFF;stop-opacity:0.3294"/>
					<stop  offset="0.5412" style="stop-color:#FFFFFF;stop-opacity:0.2118"/>
					<stop  offset="1" style="stop-color:#FEFEFE;stop-opacity:0"/>
				</radialGradient>
				<path fill-rule="evenodd" clip-rule="evenodd" fill="url(#SVGID_2_)" d="M136.29,594.19c0-0.37,0.12-0.67,0.35-0.9
					c0.2-0.33,0.5-0.5,0.9-0.5s0.73,0.13,1,0.4c49.87,46.1,117.55,69.36,203.05,69.78c0.33,0,0.65,0.13,0.95,0.4
					c0.2,0.23,0.3,0.55,0.3,0.95c0,0.33-0.1,0.63-0.3,0.9c-0.3,0.3-0.61,0.45-0.95,0.45c-86.33-0.42-154.62-23.93-204.89-70.53
					C136.42,594.84,136.29,594.52,136.29,594.19z"/>
				
					<radialGradient id="SVGID_3_" cx="228.7544" cy="658.0293" r="108.0999" gradientTransform="matrix(0.9976 2.000000e-004 -2.000000e-004 0.9977 -3.9609 -1.2929)" gradientUnits="userSpaceOnUse">
					<stop  offset="0" style="stop-color:#FFFFFF;stop-opacity:0.2118"/>
					<stop  offset="0.5412" style="stop-color:#FFFFFF;stop-opacity:0.0863"/>
					<stop  offset="1" style="stop-color:#FEFEFE;stop-opacity:0"/>
				</radialGradient>
				<path fill-rule="evenodd" clip-rule="evenodd" fill="url(#SVGID_3_)" d="M134.29,609.35c-0.67-0.67-1.03-1.45-1.1-2.34
					c-0.07-0.96,0.23-1.78,0.9-2.44c0.63-0.66,1.4-1,2.29-1c0.93-0.07,1.73,0.23,2.39,0.9c49.54,45.77,116.79,68.87,201.75,69.28
					c0.93,0,1.7,0.32,2.29,0.95c0.7,0.67,1.05,1.45,1.05,2.35c0,0.93-0.35,1.73-1.05,2.39c-0.67,0.63-1.43,0.95-2.3,0.95
					C253.64,680.03,184.89,656.36,134.29,609.35z"/>
				
					<radialGradient id="SVGID_4_" cx="221.9043" cy="682.0801" r="93.2826" gradientTransform="matrix(0.9976 2.000000e-004 -2.000000e-004 0.9977 -3.9609 -1.2929)" gradientUnits="userSpaceOnUse">
					<stop  offset="0" style="stop-color:#FFFFFF;stop-opacity:0.2118"/>
					<stop  offset="0.5412" style="stop-color:#FFFFFF;stop-opacity:0.0471"/>
					<stop  offset="1" style="stop-color:#FEFEFE;stop-opacity:0"/>
				</radialGradient>
				<path fill-rule="evenodd" clip-rule="evenodd" fill="url(#SVGID_4_)" d="M125.76,620.23c0.57-0.07,1.03,0.1,1.4,0.5
					c54.16,45.21,121.76,68.43,202.8,69.68c0.5,0,0.95,0.18,1.35,0.55c0.4,0.4,0.6,0.91,0.6,1.55c0,0.5-0.23,0.93-0.7,1.3
					c-0.37,0.4-0.8,0.6-1.3,0.6c-82.04-1.28-150.45-24.84-205.24-70.68c-0.43-0.33-0.68-0.78-0.75-1.35
					c-0.07-0.57,0.07-1.03,0.4-1.4C124.71,620.51,125.19,620.26,125.76,620.23z"/>
				<path fill-rule="evenodd" clip-rule="evenodd" fill="none" d="M522.2,636.83c55.51-38.1,96.25-82.37,122.24-132.81"/>
				<path fill-rule="evenodd" clip-rule="evenodd" fill="none" d="M627.38,513.64c-29.51,49.98-69.54,89.99-120.09,120.04"/>
			</g>
			<g>
				
					<radialGradient id="SVGID_5_" cx="433.793" cy="61.1279" r="63.5646" gradientTransform="matrix(0.9976 2.000000e-004 -2.000000e-004 0.9977 -3.9609 -1.2929)" gradientUnits="userSpaceOnUse">
					<stop  offset="0" style="stop-color:#FFFFFF;stop-opacity:0.498"/>
					<stop  offset="0.3961" style="stop-color:#FFFFFF;stop-opacity:0.4118"/>
					<stop  offset="1" style="stop-color:#FDFDFD;stop-opacity:0.0235"/>
				</radialGradient>
				<path fill-rule="evenodd" clip-rule="evenodd" fill="url(#SVGID_5_)" d="M487.51,79.87c-4.85-2.96-14.88-8.28-30.07-15.97
					c-15.16-7.75-32.63-13.61-52.42-17.57c-19.78-4.09-31.44-6.23-34.96-6.39c0.23,0,0.38-0.02,0.45-0.05c0.1-0.13,0.27-0.2,0.5-0.2
					C412.46,40.93,451.3,54.32,487.51,79.87z"/>
				
					<radialGradient id="SVGID_6_" cx="439.793" cy="42.8535" r="63.9247" gradientTransform="matrix(0.9976 2.000000e-004 -2.000000e-004 0.9977 -3.9609 -1.2929)" gradientUnits="userSpaceOnUse">
					<stop  offset="0" style="stop-color:#FFFFFF;stop-opacity:0.498"/>
					<stop  offset="0.3961" style="stop-color:#FFFFFF;stop-opacity:0.4118"/>
					<stop  offset="1" style="stop-color:#FDFDFD;stop-opacity:0.0235"/>
				</radialGradient>
				<path fill-rule="evenodd" clip-rule="evenodd" fill="url(#SVGID_6_)" d="M465.72,47.99c-13.93-6.35-31.44-12.18-52.52-17.47
					c-21.11-5.36-33.6-8.44-37.46-9.24c0.23,0,0.4-0.02,0.5-0.05c0.07-0.13,0.22-0.2,0.45-0.2c41.47,1.47,80.5,15.08,117.11,40.83
					C488.91,58.87,479.55,54.25,465.72,47.99z"/>
				
					<radialGradient id="SVGID_7_" cx="559.8574" cy="568.1875" r="79.9477" gradientTransform="matrix(0.9976 2.000000e-004 -2.000000e-004 0.9977 -3.9609 -1.2929)" gradientUnits="userSpaceOnUse">
					<stop  offset="0" style="stop-color:#FFFFFF;stop-opacity:0.498"/>
					<stop  offset="0.3961" style="stop-color:#FFFFFF;stop-opacity:0.4118"/>
					<stop  offset="1" style="stop-color:#FDFDFD;stop-opacity:0.0235"/>
				</radialGradient>
				<path fill-rule="evenodd" clip-rule="evenodd" fill="url(#SVGID_7_)" d="M569.26,549.64c14.5-16.26,22.17-24.92,23-25.98
					c-27.04,38.74-60.6,68.53-100.68,89.37c5.29-3.19,15.58-10.07,30.88-20.64C537.73,581.84,553.33,567.6,569.26,549.64z"/>
				
					<radialGradient id="SVGID_8_" cx="626.9854" cy="443.8184" r="85.4185" gradientTransform="matrix(0.9976 2.000000e-004 -2.000000e-004 0.9977 -3.9609 -1.2929)" gradientUnits="userSpaceOnUse">
					<stop  offset="0" style="stop-color:#FFFFFF;stop-opacity:0.498"/>
					<stop  offset="0.3961" style="stop-color:#FFFFFF;stop-opacity:0.4118"/>
					<stop  offset="1" style="stop-color:#FDFDFD;stop-opacity:0.0235"/>
				</radialGradient>
				<path fill-rule="evenodd" clip-rule="evenodd" fill="url(#SVGID_8_)" d="M649.66,362.55h0.3
					c-3.17,58.7-22.04,111.32-56.6,157.87l-0.45,0.3C625.81,474.03,644.72,421.31,649.66,362.55z"/>
			</g>
			<g>
				
					<radialGradient id="SVGID_9_" cx="501.1406" cy="112.9014" r="157.2151" gradientTransform="matrix(0.9976 2.000000e-004 -1.996500e-004 0.996 -3.9609 -1.0958)" gradientUnits="userSpaceOnUse">
					<stop  offset="0" style="stop-color:#FFFFFF;stop-opacity:0.498"/>
					<stop  offset="0.3961" style="stop-color:#FFFFFF;stop-opacity:0.4118"/>
					<stop  offset="1" style="stop-color:#FDFDFD;stop-opacity:0.0235"/>
				</radialGradient>
				<path fill-rule="evenodd" clip-rule="evenodd" fill="url(#SVGID_9_)" d="M651.56,331.47c-0.17-0.17-0.25-0.33-0.25-0.5
					c-1.38-85.07-32.29-157.84-92.73-218.31c-60.58-60.54-133.48-91.47-218.7-92.78c-0.17,0-0.3-0.05-0.4-0.15
					c-0.17-0.13-0.25-0.3-0.25-0.5c0-0.17,0.08-0.32,0.25-0.45c0.1-0.17,0.23-0.25,0.4-0.25c85.63,1.32,158.83,32.38,219.6,93.18
					c60.74,60.77,91.8,133.86,93.18,219.26c0,0.17-0.05,0.33-0.15,0.5c-0.17,0.1-0.33,0.15-0.5,0.15S651.69,331.57,651.56,331.47z"
					/>
				
					<radialGradient id="SVGID_10_" cx="86.5649" cy="123.5439" r="68.9858" gradientTransform="matrix(0.9976 2.000000e-004 -2.464220e-004 1.2293 -3.9551 -29.9028)" gradientUnits="userSpaceOnUse">
					<stop  offset="0" style="stop-color:#FFFFFF;stop-opacity:0.498"/>
					<stop  offset="0.3961" style="stop-color:#FFFFFF;stop-opacity:0.4118"/>
					<stop  offset="1" style="stop-color:#FDFDFD;stop-opacity:0.0235"/>
				</radialGradient>
				<path fill-rule="evenodd" clip-rule="evenodd" fill="url(#SVGID_10_)" d="M167.48,64.59c-0.1,0.27-0.23,0.45-0.4,0.55
					c-21.12,13.06-41.04,28.96-59.77,47.68c-35.76,35.71-61.15,75.74-76.19,120.1c-0.1,0.23-0.27,0.43-0.5,0.6
					c-0.3,0.07-0.58,0.07-0.85,0c-0.23-0.1-0.4-0.27-0.5-0.5c-0.1-0.3-0.13-0.55-0.1-0.75c15.24-44.59,40.84-84.86,76.79-120.8
					c18.79-18.89,38.8-34.91,60.02-48.07c0.23-0.1,0.48-0.1,0.75,0c0.23,0,0.43,0.12,0.6,0.35S167.55,64.25,167.48,64.59z"/>
				
					<radialGradient id="SVGID_11_" cx="49.2588" cy="494.6807" r="68.8979" gradientTransform="matrix(0.3466 -0.9355 1.1523 0.427 -542.0002 327.1095)" gradientUnits="userSpaceOnUse">
					<stop  offset="0" style="stop-color:#FFFFFF;stop-opacity:0.498"/>
					<stop  offset="0.3961" style="stop-color:#FFFFFF;stop-opacity:0.4118"/>
					<stop  offset="1" style="stop-color:#FDFDFD;stop-opacity:0.0235"/>
				</radialGradient>
				<path fill-rule="evenodd" clip-rule="evenodd" fill="url(#SVGID_11_)" d="M20.81,392.69c0.17,0.1,0.3,0.3,0.4,0.6
					c4.85,24.25,12.81,48.37,23.88,72.39c21.14,45.9,49.81,83.58,86.02,113.05c0.23,0.17,0.35,0.4,0.35,0.7
					c0.03,0.27-0.03,0.52-0.2,0.75c-0.17,0.17-0.38,0.27-0.65,0.3c-0.33,0.07-0.58,0.02-0.75-0.15
					c-36.44-29.71-65.29-67.61-86.57-113.7c-11.1-24.21-19.09-48.52-23.98-72.93c-0.13-0.27-0.08-0.52,0.15-0.75
					c0.1-0.23,0.3-0.37,0.6-0.4C20.26,392.47,20.51,392.52,20.81,392.69z"/>
				<path fill-rule="evenodd" clip-rule="evenodd" fill="none" d="M195.12,50.28c21.45-10.57,44.02-18.45,67.69-23.63"/>
			</g>
			<g>
				
					<radialGradient id="SVGID_12_" cx="230.0547" cy="660.6289" r="45.9928" gradientTransform="matrix(0.9539 0.2921 -0.0696 0.2272 51.9098 440.5827)" gradientUnits="userSpaceOnUse">
					<stop  offset="0" style="stop-color:#FFFFFF;stop-opacity:0.3294"/>
					<stop  offset="0.1765" style="stop-color:#FFFFFF;stop-opacity:0.3294"/>
					<stop  offset="0.3059" style="stop-color:#FFFFFF;stop-opacity:0.2118"/>
					<stop  offset="0.4902" style="stop-color:#FFFFFF;stop-opacity:0.0902"/>
					<stop  offset="0.651" style="stop-color:#FFFFFF;stop-opacity:0.0275"/>
					<stop  offset="1" style="stop-color:#FFFFFF;stop-opacity:0"/>
				</radialGradient>
				<path fill-rule="evenodd" clip-rule="evenodd" fill="url(#SVGID_12_)" d="M202.72,645.24c12.1,2.66,23.18,5.36,33.22,8.09
					c9.98,2.8,18.19,5.81,24.64,9.03c6.42,3.13,9.21,6.17,8.38,9.13c-0.83,2.79-5.9,3.82-15.21,3.09
					c-9.24-0.57-19.79-2.67-31.62-6.29c-11.74-3.56-21.63-7.7-29.68-12.43c-7.41-4.42-10.67-8.12-9.77-11.08
					C183.5,641.99,190.18,642.14,202.72,645.24z"/>
			</g>
			<g>
				
					<radialGradient id="SVGID_13_" cx="242.3545" cy="641.4287" r="42.0691" gradientTransform="matrix(0.9564 0.2837 -0.0434 0.1464 33.7456 476.0403)" gradientUnits="userSpaceOnUse">
					<stop  offset="0" style="stop-color:#FFFFFF;stop-opacity:0.3294"/>
					<stop  offset="0.1765" style="stop-color:#FFFFFF;stop-opacity:0.3294"/>
					<stop  offset="0.3059" style="stop-color:#FFFFFF;stop-opacity:0.2118"/>
					<stop  offset="0.4902" style="stop-color:#FFFFFF;stop-opacity:0.0902"/>
					<stop  offset="0.651" style="stop-color:#FFFFFF;stop-opacity:0.0275"/>
					<stop  offset="1" style="stop-color:#FFFFFF;stop-opacity:0"/>
				</radialGradient>
				<path fill-rule="evenodd" clip-rule="evenodd" fill="url(#SVGID_13_)" d="M208.36,634.61c-7.08-3.29-10.34-5.81-9.78-7.53
					c0.43-1.63,6.42-0.98,17.96,1.95c10.87,2.66,20.9,5.24,30.08,7.74c9.14,2.53,16.73,5.08,22.74,7.64
					c6.08,2.5,8.84,4.61,8.28,6.34c-0.43,1.63-4.81,1.86-13.12,0.7c-8.25-1.23-17.77-3.45-28.58-6.64
					C225.13,641.63,215.94,638.24,208.36,634.61z"/>
			</g>
			<g>
				
					<radialGradient id="SVGID_14_" cx="637.4102" cy="449.6943" r="37.4712" gradientTransform="matrix(0.3469 -0.9354 0.1182 0.0438 357.5669 1024.0386)" gradientUnits="userSpaceOnUse">
					<stop  offset="0" style="stop-color:#FFFFFF;stop-opacity:0.3294"/>
					<stop  offset="0.1765" style="stop-color:#FFFFFF;stop-opacity:0.3294"/>
					<stop  offset="0.3059" style="stop-color:#FFFFFF;stop-opacity:0.2118"/>
					<stop  offset="0.4902" style="stop-color:#FFFFFF;stop-opacity:0.0902"/>
					<stop  offset="0.651" style="stop-color:#FFFFFF;stop-opacity:0.0275"/>
					<stop  offset="1" style="stop-color:#FFFFFF;stop-opacity:0"/>
				</radialGradient>
				<path fill-rule="evenodd" clip-rule="evenodd" fill="url(#SVGID_14_)" d="M644.81,412.73c1.16,0.4,0.88,4.22-0.85,11.47
					c-1.67,7.28-4.26,15.61-7.79,24.99c-3.53,9.34-6.95,17.34-10.28,23.99c-3.23,6.05-5.46,8.89-6.69,8.53
					c-1.23-0.46-0.15-5.7,3.25-15.71c3.06-9.61,5.99-18.37,8.78-26.29c2.79-7.95,5.47-14.55,8.04-19.8
					C641.66,414.62,643.51,412.23,644.81,412.73z"/>
			</g>
			<g>
				
					<radialGradient id="SVGID_15_" cx="545.9072" cy="579.0869" r="16.4016" gradientTransform="matrix(0.7479 -0.6602 0.1618 0.1834 38.5062 830.8026)" gradientUnits="userSpaceOnUse">
					<stop  offset="0" style="stop-color:#FFFFFF;stop-opacity:0.3294"/>
					<stop  offset="0.1765" style="stop-color:#FFFFFF;stop-opacity:0.3294"/>
					<stop  offset="0.3059" style="stop-color:#FFFFFF;stop-opacity:0.2118"/>
					<stop  offset="0.4902" style="stop-color:#FFFFFF;stop-opacity:0.0902"/>
					<stop  offset="0.651" style="stop-color:#FFFFFF;stop-opacity:0.0275"/>
					<stop  offset="1" style="stop-color:#FFFFFF;stop-opacity:0"/>
				</radialGradient>
				<path fill-rule="evenodd" clip-rule="evenodd" fill="url(#SVGID_15_)" d="M552.79,565.95c0.73,0.8,0.12,2.53-1.85,5.19
					c-1.9,2.73-4.49,5.54-7.78,8.43c-3.29,2.96-6.42,5.19-9.38,6.68c-2.73,1.46-4.47,1.78-5.24,0.95c-0.66-0.83,0.62-2.88,3.84-6.13
					c3.13-3.23,6.02-6.08,8.68-8.58c2.69-2.53,5.16-4.45,7.38-5.78C550.62,565.3,552.06,565.05,552.79,565.95z"/>
			</g>
			<g>
				
					<radialGradient id="SVGID_16_" cx="372.5518" cy="528.7627" r="40.227" gradientTransform="matrix(0.9392 0.3363 -0.0202 0.097 -120.4628 493.3829)" gradientUnits="userSpaceOnUse">
					<stop  offset="0" style="stop-color:#FFFFFF;stop-opacity:0.3294"/>
					<stop  offset="0.1765" style="stop-color:#FFFFFF;stop-opacity:0.3294"/>
					<stop  offset="0.3059" style="stop-color:#FFFFFF;stop-opacity:0.2118"/>
					<stop  offset="0.4902" style="stop-color:#FFFFFF;stop-opacity:0.0902"/>
					<stop  offset="0.651" style="stop-color:#FFFFFF;stop-opacity:0.0275"/>
					<stop  offset="1" style="stop-color:#FFFFFF;stop-opacity:0"/>
				</radialGradient>
				<path fill-rule="evenodd" clip-rule="evenodd" fill="url(#SVGID_16_)" d="M182.01,656.85c0.2-1.06,5.65,0.15,16.36,3.65
					c10.27,3.36,19.63,6.49,28.08,9.38c8.61,2.96,15.78,5.72,21.5,8.29c5.79,2.4,8.58,4.16,8.38,5.29
					c-0.17,1.03-4.11,0.58-11.82-1.35c-7.58-1.9-16.44-4.66-26.58-8.29c-10.14-3.63-18.85-7.14-26.14-10.53
					C185.04,660.1,181.78,657.95,182.01,656.85z"/>
			</g>
			<g>
				
					<radialGradient id="SVGID_17_" cx="654.1602" cy="434.5449" r="37.4711" gradientTransform="matrix(0.3469 -0.9354 0.1182 0.0438 370.2593 1025.2599)" gradientUnits="userSpaceOnUse">
					<stop  offset="0" style="stop-color:#FFFFFF;stop-opacity:0.3294"/>
					<stop  offset="0.1765" style="stop-color:#FFFFFF;stop-opacity:0.3294"/>
					<stop  offset="0.3059" style="stop-color:#FFFFFF;stop-opacity:0.2118"/>
					<stop  offset="0.4902" style="stop-color:#FFFFFF;stop-opacity:0.0902"/>
					<stop  offset="0.651" style="stop-color:#FFFFFF;stop-opacity:0.0275"/>
					<stop  offset="1" style="stop-color:#FFFFFF;stop-opacity:0"/>
				</radialGradient>
				<path fill-rule="evenodd" clip-rule="evenodd" fill="url(#SVGID_17_)" d="M661.52,397.62c1.16,0.37,0.88,4.17-0.85,11.42
					c-1.66,7.32-4.26,15.65-7.79,24.99c-3.46,9.38-6.89,17.37-10.28,23.99c-3.23,6.09-5.45,8.91-6.68,8.48
					c-1.16-0.46-0.08-5.69,3.25-15.66c3.13-9.58,6.09-18.36,8.88-26.34c2.79-7.91,5.44-14.48,7.94-19.7
					C658.44,399.51,660.29,397.12,661.52,397.62z"/>
			</g>
			<g>
				
					<radialGradient id="SVGID_18_" cx="577.707" cy="592.7363" r="42.3051" gradientTransform="matrix(0.7232 -0.6872 0.0528 0.0556 123.1011 954.2197)" gradientUnits="userSpaceOnUse">
					<stop  offset="0" style="stop-color:#FFFFFF;stop-opacity:0.3294"/>
					<stop  offset="0.1765" style="stop-color:#FFFFFF;stop-opacity:0.3294"/>
					<stop  offset="0.3059" style="stop-color:#FFFFFF;stop-opacity:0.2118"/>
					<stop  offset="0.4902" style="stop-color:#FFFFFF;stop-opacity:0.0902"/>
					<stop  offset="0.651" style="stop-color:#FFFFFF;stop-opacity:0.0275"/>
					<stop  offset="1" style="stop-color:#FFFFFF;stop-opacity:0"/>
				</radialGradient>
				<path fill-rule="evenodd" clip-rule="evenodd" fill="url(#SVGID_18_)" d="M602.73,561.37c0.53,0.6-1.98,3.99-7.54,10.17
					c-5.59,6.18-12.47,13.18-20.65,21c-8.22,7.81-15.55,14.36-22,19.65c-6.02,4.89-9.35,7-9.98,6.33c-0.6-0.6,3.34-5.1,11.83-13.52
					c7.95-7.98,15.37-15.31,22.25-21.99c6.79-6.62,12.66-12.05,17.61-16.31C599.2,562.48,602.03,560.71,602.73,561.37z"/>
			</g>
			<g>
				<g>
					
						<radialGradient id="SVGID_19_" cx="442.4678" cy="35.1543" r="43.0716" gradientTransform="matrix(-0.9419 -0.3288 0.0534 -0.1529 852.3069 184.7327)" gradientUnits="userSpaceOnUse">
						<stop  offset="0" style="stop-color:#FFFFFF;stop-opacity:0.3294"/>
						<stop  offset="0.1765" style="stop-color:#FFFFFF;stop-opacity:0.3294"/>
						<stop  offset="0.3059" style="stop-color:#FFFFFF;stop-opacity:0.2118"/>
						<stop  offset="0.4902" style="stop-color:#FFFFFF;stop-opacity:0.0902"/>
						<stop  offset="0.651" style="stop-color:#FFFFFF;stop-opacity:0.0275"/>
						<stop  offset="1" style="stop-color:#FFFFFF;stop-opacity:0"/>
					</radialGradient>
					<path fill-rule="evenodd" clip-rule="evenodd" fill="url(#SVGID_19_)" d="M439.74,27.33c10.84,3.79,20.05,7.75,27.63,11.88
						c7.08,3.79,10.29,6.6,9.63,8.43c-0.6,1.8-6.73,0.91-18.41-2.65c-11.07-3.19-21.18-6.32-30.32-9.38
						c-9.24-3-16.88-5.97-22.89-8.93c-6.15-2.79-8.88-5.14-8.18-7.04c0.6-1.8,5.1-1.88,13.52-0.25
						C419.19,20.86,428.86,23.51,439.74,27.33z"/>
				</g>
			</g>
			<g>
				
					<radialGradient id="SVGID_20_" cx="429.418" cy="50.7534" r="38.1682" gradientTransform="matrix(-0.9548 -0.289 0.0323 -0.1068 832.7971 178.953)" gradientUnits="userSpaceOnUse">
					<stop  offset="0" style="stop-color:#FFFFFF;stop-opacity:0.3294"/>
					<stop  offset="0.1765" style="stop-color:#FFFFFF;stop-opacity:0.3294"/>
					<stop  offset="0.3059" style="stop-color:#FFFFFF;stop-opacity:0.2118"/>
					<stop  offset="0.4902" style="stop-color:#FFFFFF;stop-opacity:0.0902"/>
					<stop  offset="0.651" style="stop-color:#FFFFFF;stop-opacity:0.0275"/>
					<stop  offset="1" style="stop-color:#FFFFFF;stop-opacity:0"/>
				</radialGradient>
				<path fill-rule="evenodd" clip-rule="evenodd" fill="url(#SVGID_20_)" d="M459.93,60.11c-0.33,1.13-5.69,0.27-16.06-2.6
					c-9.91-2.56-18.99-5.08-27.23-7.54c-8.18-2.33-15.06-4.56-20.65-6.69c-5.52-2.1-8.11-3.74-7.78-4.94
					c0.33-1.1,4.21-0.93,11.62,0.5c7.41,1.37,16.03,3.54,25.84,6.54c9.74,2.96,18.11,5.92,25.09,8.89
					C457.2,57,460.26,58.95,459.93,60.11z"/>
			</g>
			<g>
				
					<radialGradient id="SVGID_21_" cx="93.2651" cy="129.8936" r="24.7298" gradientTransform="matrix(-0.6275 0.7756 -0.0989 -0.0801 160.4315 66.3848)" gradientUnits="userSpaceOnUse">
					<stop  offset="0" style="stop-color:#FFFFFF;stop-opacity:0.3294"/>
					<stop  offset="0.1765" style="stop-color:#FFFFFF;stop-opacity:0.3294"/>
					<stop  offset="0.3059" style="stop-color:#FFFFFF;stop-opacity:0.2118"/>
					<stop  offset="0.4902" style="stop-color:#FFFFFF;stop-opacity:0.0902"/>
					<stop  offset="0.651" style="stop-color:#FFFFFF;stop-opacity:0.0275"/>
					<stop  offset="1" style="stop-color:#FFFFFF;stop-opacity:0"/>
				</radialGradient>
				<path fill-rule="evenodd" clip-rule="evenodd" fill="url(#SVGID_21_)" d="M104.12,109.62c0.67,0.57-1.1,3.62-5.29,9.18
					c-3.96,5.32-7.63,10.17-11.03,14.56c-3.46,4.39-6.55,7.96-9.28,10.72c-2.56,2.83-4.21,3.94-4.94,3.34
					c-0.66-0.5,0.32-2.84,2.94-7.03c2.56-4.19,5.94-8.84,10.13-13.96c4.12-5.12,7.97-9.41,11.52-12.87
					C101.48,110.36,103.46,109.05,104.12,109.62z"/>
			</g>
			<g>
				
					<radialGradient id="SVGID_22_" cx="292.3047" cy="675.8789" r="25.438" gradientTransform="matrix(0.9917 0.108 -0.0464 0.4265 28.9891 353.2766)" gradientUnits="userSpaceOnUse">
					<stop  offset="0" style="stop-color:#FFFFFF;stop-opacity:0.3294"/>
					<stop  offset="0.1765" style="stop-color:#FFFFFF;stop-opacity:0.3294"/>
					<stop  offset="0.3059" style="stop-color:#FFFFFF;stop-opacity:0.2118"/>
					<stop  offset="0.4902" style="stop-color:#FFFFFF;stop-opacity:0.0902"/>
					<stop  offset="0.651" style="stop-color:#FFFFFF;stop-opacity:0.0275"/>
					<stop  offset="1" style="stop-color:#FFFFFF;stop-opacity:0"/>
				</radialGradient>
				<path fill-rule="evenodd" clip-rule="evenodd" fill="url(#SVGID_22_)" d="M307.41,669.15c3.79,1.5,5.52,3.78,5.19,6.83
					c-0.33,2.93-3.09,5.1-8.28,6.53c-5.25,1.66-11.26,2.11-18.01,1.34c-6.78-0.73-12.52-2.46-17.21-5.19
					c-4.46-2.46-6.52-5.22-6.18-8.28c0.33-2.96,4.09-4.44,11.27-4.44c6.88-0.16,13.19-0.08,18.9,0.25
					C298.85,666.51,303.62,667.49,307.41,669.15z"/>
			</g>
			<g>
				
					<radialGradient id="SVGID_23_" cx="68.207" cy="505.6797" r="24.7041" gradientTransform="matrix(-0.5404 -0.8387 0.1065 -0.0686 46.9761 595.1513)" gradientUnits="userSpaceOnUse">
					<stop  offset="0" style="stop-color:#FFFFFF;stop-opacity:0.3294"/>
					<stop  offset="0.1765" style="stop-color:#FFFFFF;stop-opacity:0.3294"/>
					<stop  offset="0.3059" style="stop-color:#FFFFFF;stop-opacity:0.2118"/>
					<stop  offset="0.4902" style="stop-color:#FFFFFF;stop-opacity:0.0902"/>
					<stop  offset="0.651" style="stop-color:#FFFFFF;stop-opacity:0.0275"/>
					<stop  offset="1" style="stop-color:#FFFFFF;stop-opacity:0"/>
				</radialGradient>
				<path fill-rule="evenodd" clip-rule="evenodd" fill="url(#SVGID_23_)" d="M66.58,501.54c3.62,5.59,6.52,10.58,8.68,14.97
					c1.96,4.13,2.56,6.44,1.79,6.93c-0.73,0.47-3.04-2.18-6.93-7.93c-3.86-5.39-7.31-10.41-10.37-15.07
					c-3.13-4.62-5.58-8.66-7.38-12.12c-1.76-3.33-2.29-5.24-1.6-5.74c0.73-0.46,2.66,1.2,5.78,4.99S63.02,496.02,66.58,501.54z"/>
			</g>
		</g>
	</g>
</g>
</svg>
