<?xml version="1.0" encoding="utf-8"?>
<!-- Generator: Adobe Illustrator 16.0.0, SVG Export Plug-In . SVG Version: 6.00 Build 0)  -->
<!DOCTYPE svg PUBLIC "-//W3C//DTD SVG 1.1//EN" "http://www.w3.org/Graphics/SVG/1.1/DTD/svg11.dtd">
<svg version="1.1" id="Layer_1" xmlns="http://www.w3.org/2000/svg" xmlns:xlink="http://www.w3.org/1999/xlink" x="0px" y="0px"
	 width="725.96px" height="724.46px" viewBox="0 0 725.96 724.46" enable-background="new 0 0 725.96 724.46" xml:space="preserve">
<g>
	<defs>
		<rect id="SVGID_1_" x="-52.11" y="-66.61" width="837" height="850.5"/>
	</defs>
	<clipPath id="SVGID_2_">
		<use xlink:href="#SVGID_1_"  overflow="visible"/>
	</clipPath>
	<g id="darkgrey_full_round" clip-path="url(#SVGID_2_)">
		<g>
			<path fill-rule="evenodd" clip-rule="evenodd" fill="#6A6A6A" d="M576.74,144.89c59.27,59.27,88.9,130.83,88.9,214.7
				c0,83.8-29.63,155.32-88.9,214.55c-59.23,59.2-130.75,88.8-214.55,88.8s-155.37-29.6-214.7-88.8
				c-59.1-59.23-88.65-130.75-88.65-214.55c0-83.87,29.55-155.43,88.65-214.7c59.33-59.23,130.9-88.85,214.7-88.85
				S517.51,85.66,576.74,144.89z"/>
		</g>
	</g>
	<g id="grey_full_round" clip-path="url(#SVGID_2_)">
		<g>
			<g>
				
					<radialGradient id="SVGID_3_" cx="364.2988" cy="359.249" r="283.7633" gradientTransform="matrix(0.9984 0 0 0.9985 -0.5228 1.8221)" gradientUnits="userSpaceOnUse">
					<stop  offset="0" style="stop-color:#A7A5A5"/>
					<stop  offset="0.9686" style="stop-color:#A7A5A5"/>
					<stop  offset="1" style="stop-color:#A7A5A5;stop-opacity:0"/>
				</radialGradient>
				<path fill-rule="evenodd" clip-rule="evenodd" fill="url(#SVGID_3_)" d="M561.09,162.54c54.71,54.65,82.07,120.63,82.07,197.94
					c0,77.38-27.36,143.36-82.07,197.94c-54.62,54.68-120.58,82.02-197.89,82.02c-77.31,0-143.33-27.34-198.04-82.02
					c-54.62-54.58-81.92-120.56-81.92-197.94c0-77.31,27.31-143.29,81.92-197.94c54.71-54.62,120.73-81.92,198.04-81.92
					C440.51,80.62,506.47,107.92,561.09,162.54z"/>
			</g>
		</g>
	</g>
	<g id="amrita_text" clip-path="url(#SVGID_2_)">
		<g>
			<g>
				<path fill-rule="evenodd" clip-rule="evenodd" fill="#3C3C3C" d="M382.97,171.75c3.56,0,6.58,1.03,9.04,3.1h0.05
					c2.53,2.23,3.79,4.88,3.79,7.94c0,3.1-1.26,5.73-3.79,7.89c-2.5,2.13-5.53,3.2-9.09,3.2h-32.81c-3.6,0-6.64-1.06-9.14-3.2
					c-2.5-2.16-3.75-4.79-3.75-7.89c0-3.06,1.25-5.68,3.75-7.84v-0.1c2.5-2.06,5.54-3.1,9.14-3.1H382.97z M391.66,175.45
					c-2.4-2-5.29-3-8.69-3h-32.81c-3.36,0-6.24,1-8.64,3h-0.1c-2.33,2-3.5,4.44-3.5,7.34c0,2.86,1.2,5.29,3.6,7.29h-0.1
					c2.46,2.06,5.38,3.1,8.74,3.1h32.81c3.4,0,6.29-1.03,8.69-3.1c2.33-2,3.5-4.43,3.5-7.29
					C395.15,179.89,393.99,177.45,391.66,175.45z"/>
				<path fill-rule="evenodd" clip-rule="evenodd" fill="#9F9F9F" d="M391.66,175.45c2.33,2,3.5,4.44,3.5,7.34
					c0,2.86-1.16,5.29-3.5,7.29c-2.4,2.06-5.29,3.1-8.69,3.1h-32.81c-3.36,0-6.28-1.03-8.74-3.1h0.1c-2.4-2-3.6-4.43-3.6-7.29
					c0-2.9,1.17-5.34,3.5-7.34h0.1c2.4-2,5.28-3,8.64-3h32.81C386.36,172.45,389.26,173.45,391.66,175.45z M382.97,171.75h-32.81
					c-3.6,0-6.64,1.03-9.14,3.1v0.1c-2.5,2.16-3.75,4.78-3.75,7.84c0,3.1,1.25,5.73,3.75,7.89c2.5,2.13,5.54,3.2,9.14,3.2h32.81
					c3.56,0,6.59-1.06,9.09-3.2c2.53-2.16,3.79-4.79,3.79-7.89c0-3.06-1.26-5.71-3.79-7.94h-0.05
					C389.54,172.79,386.53,171.75,382.97,171.75z M399.45,182.64c0,3.96-1.43,7.31-4.29,10.04c-2.73,2.86-6.08,4.29-10.04,4.29
					h-37.06c-3.96,0-7.37-1.43-10.24-4.29c-2.73-2.73-4.1-6.08-4.1-10.04c0-3.96,1.37-7.34,4.1-10.14c2.86-2.73,6.28-4.1,10.24-4.1
					h37.06c3.96,0,7.31,1.37,10.04,4.1C398.02,175.3,399.45,178.68,399.45,182.64z"/>
			</g>
			<g>
				<path fill-rule="evenodd" clip-rule="evenodd" fill="#3C3C3C" d="M360.74,179.54c0.13,0.1,0.23,0.27,0.3,0.5l1.4,5.79h-1.4
					l-0.85-4.29l-2,3.94c-0.17,0.27-0.4,0.4-0.7,0.4c-0.27,0-0.52-0.13-0.75-0.4l-1.95-3.94l-0.9,4.29h-1.35l1.35-5.79
					c0-0.23,0.08-0.4,0.25-0.5c0.17-0.1,0.37-0.15,0.6-0.15c0.27,0,0.52,0.25,0.75,0.75l2,3.9l2-4c0.23-0.43,0.48-0.65,0.75-0.65
					C360.41,179.39,360.58,179.44,360.74,179.54z M370.13,180.04c0.63,0.4,0.95,0.98,0.95,1.75c0,0.5-0.2,0.98-0.6,1.45
					c-0.33,0.33-0.73,0.55-1.2,0.65l1.95,1.95h-1.85l-1.65-1.7h-2.45v-1.25h3c0.4,0,0.72-0.12,0.95-0.35
					c0.27-0.17,0.4-0.42,0.4-0.75c0-0.73-0.45-1.1-1.35-1.1h-3.5v5.14h-1.25v-6.39h4.59C368.9,179.44,369.57,179.64,370.13,180.04z
					 M380.92,179.44v1.25h-2.4v5.14h-1.25v-5.14h-2.45v-1.25H380.92z M385.21,179.69c0.17-0.2,0.33-0.3,0.5-0.3
					c0.17,0,0.37,0.1,0.6,0.3c0.17,0.07,0.27,0.18,0.3,0.35l3.45,5.79h-1.6l-1-1.7h-3.1l0.75-1.25h1.7l-1.1-1.65l-2.75,4.59h-1.6
					l3.45-5.69C384.85,179.98,384.98,179.83,385.21,179.69z M373.83,179.44v6.39h-1.35v-6.39H373.83z M348.56,179.69
					c0.17,0.07,0.27,0.18,0.3,0.35l3.4,5.79h-1.55l-1.05-1.7h-2.95l0.65-1.25h1.6l-0.9-1.65l-2.85,4.59h-1.5l3.35-5.69
					c0.1-0.17,0.23-0.32,0.4-0.45c0.17-0.2,0.37-0.3,0.6-0.3C348.23,179.39,348.39,179.49,348.56,179.69z"/>
			</g>
		</g>
	</g>
	<g id="round_middle_white" clip-path="url(#SVGID_2_)">
		<g>
			<path fill-rule="evenodd" clip-rule="evenodd" fill="#DFDDDB" d="M467.48,252.44c29.83,29.8,44.75,65.73,44.75,107.8
				c0,42.17-14.92,78.12-44.75,107.85c-29.8,29.83-65.75,44.75-107.85,44.75c-42.13,0-78.08-14.92-107.85-44.75
				c-29.8-29.73-44.7-65.68-44.7-107.85c0-42.07,14.9-78,44.7-107.8c29.77-29.77,65.72-44.65,107.85-44.65
				C401.73,207.79,437.67,222.67,467.48,252.44z"/>
		</g>
	</g>
	<g id="top_round_black1" clip-path="url(#SVGID_2_)">
		<g>
			<radialGradient id="SVGID_4_" cx="363.8662" cy="359.9912" r="354.6124" gradientUnits="userSpaceOnUse">
				<stop  offset="0" style="stop-color:#000000"/>
				<stop  offset="0.8196" style="stop-color:#000000"/>
				<stop  offset="0.8824" style="stop-color:#1E1E1E"/>
				<stop  offset="0.9137" style="stop-color:#151515"/>
				<stop  offset="0.949" style="stop-color:#040404"/>
				<stop  offset="1" style="stop-color:#000000"/>
			</radialGradient>
			<path fill-rule="evenodd" clip-rule="evenodd" fill="url(#SVGID_4_)" d="M718.09,361.69c0,56.4-11.52,108.07-34.55,155
				c-16.87,34.37-39.93,66.18-69.2,95.45c-24.37,24.37-50.52,44.45-78.45,60.25c-51.33,29-108.68,43.5-172.05,43.5
				c-46.23,0-89.25-7.72-129.05-23.15c-44.47-17.23-84.97-44.1-121.5-80.6c-20.07-20.07-37.22-41.35-51.45-63.85
				c-34.8-54.97-52.2-117.17-52.2-186.6c0-4.7,0.08-9.35,0.25-13.95c3.07-91.9,37.53-170.78,103.4-236.65
				C182.52,41.92,266.04,7.34,363.84,7.34c97.83,0,181.33,34.58,250.5,103.75c65.93,65.87,100.47,144.75,103.6,236.65
				C718.04,352.34,718.09,356.99,718.09,361.69z M568.94,156.04c-56.77-56.83-125.4-85.25-205.9-85.25
				c-80.33,0-148.95,28.42-205.85,85.25c-56.8,56.87-85.2,125.5-85.2,205.9c0,80.37,28.4,149,85.2,205.9
				c56.9,56.73,125.52,85.1,205.85,85.1c80.5,0,149.13-28.37,205.9-85.1c56.8-56.9,85.2-125.53,85.2-205.9
				C654.14,281.54,625.74,212.91,568.94,156.04z"/>
		</g>
	</g>
</g>
</svg>
