<?xml version="1.0" encoding="utf-8"?>
<!-- Generator: Adobe Illustrator 16.0.0, SVG Export Plug-In . SVG Version: 6.00 Build 0)  -->
<!DOCTYPE svg PUBLIC "-//W3C//DTD SVG 1.1//EN" "http://www.w3.org/Graphics/SVG/1.1/DTD/svg11.dtd">
<svg version="1.1" id="Layer_3" xmlns="http://www.w3.org/2000/svg" xmlns:xlink="http://www.w3.org/1999/xlink" x="0px" y="0px"
	 width="173px" height="61.33px" viewBox="0 0 173 61.33" enable-background="new 0 0 173 61.33" xml:space="preserve">
<g id="black_object_middle">
	<g>
		<g>
			<path fill-rule="evenodd" clip-rule="evenodd" fill="#151515" d="M11.72,21.3c0.63-0.93,1.33-1.76,2.1-2.5L89.47,2.42h0.15
				l72.01,15.53c4.36,1.53,6.96,4.44,7.79,8.74c0.17,0.43,0.27,0.9,0.3,1.4c0,0.17,0,0.4,0,0.7c0,0.37-0.02,0.75-0.05,1.15
				c-0.07-0.27-0.13-0.55-0.2-0.85c-0.03-0.43-0.13-0.82-0.3-1.15c-1-3.8-3.51-6.36-7.54-7.69L89.62,4.57h-0.15L11.72,21.3z"/>
			<path fill-rule="evenodd" clip-rule="evenodd" fill="#262722" d="M10.47,39.73c-0.1-0.33-0.22-0.7-0.35-1.1
				c-0.57-1.73-0.9-3.84-1-6.34c-0.07-4.4,0.8-8.06,2.6-10.99L89.47,4.57h0.15l72.01,15.68c4.03,1.33,6.54,3.9,7.54,7.69
				c0.17,0.33,0.27,0.72,0.3,1.15c0.07,0.3,0.13,0.58,0.2,0.85c-0.5,4.53-2.31,7.77-5.44,9.74c-0.73,0.5-1.51,0.88-2.35,1.15
				L89.72,56.4h-0.1L10.47,39.73z"/>
			<path fill-rule="evenodd" clip-rule="evenodd" d="M164.23,39.68c-1.5,2.16-4.49,3.91-8.99,5.24L87.33,59.05L8.87,41.57
				c-1.6-0.4-2.91-1.03-3.95-1.9c3.86,0.27,5.74,0.35,5.64,0.25c-0.13-0.13-0.28-0.25-0.45-0.35l0.35,0.15L89.62,56.4h0.1
				l72.16-15.58C162.72,40.56,163.5,40.17,164.23,39.68z M10.72,43.52c0.07,0,0.12,0,0.15,0c0.07,0.03,0.15,0.08,0.25,0.15
				L10.72,43.52z"/>
			
				<linearGradient id="SVGID_1_" gradientUnits="userSpaceOnUse" x1="6.6016" y1="24.7148" x2="6.6016" y2="51.3141" gradientTransform="matrix(0.9988 0 0 0.9988 1.453 -7.0835)">
				<stop  offset="0" style="stop-color:#000000"/>
				<stop  offset="0.4431" style="stop-color:#444444"/>
				<stop  offset="0.9804" style="stop-color:#000000"/>
			</linearGradient>
			<path fill-rule="evenodd" clip-rule="evenodd" fill="url(#SVGID_1_)" d="M11.72,21.3c-1.8,2.93-2.66,6.59-2.6,10.99
				c0.1,2.5,0.43,4.61,1,6.34c0.13,0.4,0.25,0.77,0.35,1.1l-0.35-0.15c0.17,0.1,0.32,0.22,0.45,0.35c0.1,0.1-1.78,0.02-5.64-0.25
				l0.2,0.25c-0.17-0.07-0.33-0.18-0.5-0.35c-1.57-1.13-2.35-4.46-2.35-9.99c0.2-4.49,2.15-7.67,5.84-9.54l5.69-1.25
				C13.05,19.53,12.35,20.36,11.72,21.3z"/>
		</g>
		<g>
			<path fill-rule="evenodd" clip-rule="evenodd" fill="#0D0D0B" d="M140.96,36.03c-1.46-1.43-2.2-3.18-2.2-5.24
				c0-2.13,0.73-3.95,2.2-5.44c1.5-1.47,3.33-2.16,5.49-2.1c2.13,0,3.93,0.7,5.39,2.1c1.43,1.5,2.15,3.35,2.15,5.54
				c0,2.06-0.75,3.81-2.25,5.24c-1.5,1.5-3.31,2.25-5.44,2.25C144.17,38.34,142.39,37.56,140.96,36.03z"/>
		</g>
		<g>
			
				<radialGradient id="SVGID_2_" cx="107.7544" cy="-859.6714" r="9.0245" gradientTransform="matrix(-4.200000e-003 0.9988 0.967 4.066209e-003 970.2048 -73.3442)" gradientUnits="userSpaceOnUse">
				<stop  offset="0" style="stop-color:#FFFFFF;stop-opacity:0.7059"/>
				<stop  offset="0.251" style="stop-color:#FCFCFC;stop-opacity:0.1294"/>
				<stop  offset="1" style="stop-color:#FCFCFC;stop-opacity:7.843000e-003"/>
			</radialGradient>
			<path fill-rule="evenodd" clip-rule="evenodd" fill="url(#SVGID_2_)" d="M134.27,30.69c0-2.23,0.71-4.1,2.15-5.59
				c1.53-1.47,3.38-2.2,5.54-2.2c0.27,0,0.55,0.03,0.85,0.1c-1.87,0.1-3.43,0.8-4.7,2.1c-1.46,1.56-2.2,3.46-2.2,5.69
				c0,2.13,0.7,3.96,2.1,5.49c1.3,1.36,2.83,2.15,4.59,2.35c-0.27,0-0.53,0-0.8,0c-2.13,0-3.93-0.78-5.39-2.35
				C134.98,34.68,134.27,32.82,134.27,30.69z"/>
		</g>
		<g>
			
				<linearGradient id="SVGID_3_" gradientUnits="userSpaceOnUse" x1="131.6538" y1="40.1958" x2="155.7789" y2="40.1958" gradientTransform="matrix(0.9988 -4.200000e-003 4.200000e-003 0.9988 3.4394 -8.6324)">
				<stop  offset="0" style="stop-color:#782E1E"/>
				<stop  offset="0.6275" style="stop-color:#6C281B"/>
				<stop  offset="1" style="stop-color:#581D16"/>
			</linearGradient>
			<path fill-rule="evenodd" clip-rule="evenodd" fill="url(#SVGID_3_)" d="M142.21,35.88c-1.3-1.4-1.95-3.06-1.95-4.99
				c0-2.03,0.68-3.76,2.05-5.19c1.43-1.3,3.13-1.95,5.09-1.95c2,0,3.7,0.67,5.09,2c1.4,1.46,2.1,3.2,2.1,5.19
				c-0.07,1.96-0.8,3.64-2.2,5.04c-1.37,1.4-3.03,2.1-4.99,2.1C145.4,38.08,143.67,37.34,142.21,35.88z"/>
		</g>
		<g>
			
				<radialGradient id="SVGID_4_" cx="130.0259" cy="54.5649" r="40.3371" gradientTransform="matrix(0.4212 0.9056 -0.9038 0.4204 125.8692 -93.2771)" gradientUnits="userSpaceOnUse">
				<stop  offset="0" style="stop-color:#FFFFFF;stop-opacity:0.5373"/>
				<stop  offset="0.5804" style="stop-color:#FFFFFF;stop-opacity:0.2941"/>
				<stop  offset="1" style="stop-color:#FFFFFF;stop-opacity:0"/>
			</radialGradient>
			<path fill-rule="evenodd" clip-rule="evenodd" fill="url(#SVGID_4_)" d="M92.47,56.7l-0.15-0.4
				c22.44-5.76,47.73-11.5,75.86-17.23L92.47,56.7z"/>
		</g>
		<g>
			
				<radialGradient id="SVGID_5_" cx="49.3267" cy="55.7651" r="40.3496" gradientTransform="matrix(0.9988 0 0 0.9988 1.453 -7.0835)" gradientUnits="userSpaceOnUse">
				<stop  offset="0" style="stop-color:#FFFFFF;stop-opacity:0.5373"/>
				<stop  offset="0.5804" style="stop-color:#FFFFFF;stop-opacity:0.2941"/>
				<stop  offset="1" style="stop-color:#FFFFFF;stop-opacity:0"/>
			</radialGradient>
			<path fill-rule="evenodd" clip-rule="evenodd" fill="url(#SVGID_5_)" d="M89.82,56.95c-0.13,0-0.22,0-0.25,0L11.62,40.67v-0.45
				C34.96,44.52,61.02,50.1,89.82,56.95z"/>
		</g>
		<g>
			
				<radialGradient id="SVGID_6_" cx="8.2769" cy="43.8657" r="6.6216" gradientTransform="matrix(0.2525 0.9664 -0.2775 0.0725 19.8004 25.5509)" gradientUnits="userSpaceOnUse">
				<stop  offset="0" style="stop-color:#FFFFFF;stop-opacity:0.3294"/>
				<stop  offset="0.1765" style="stop-color:#FFFFFF;stop-opacity:0.3294"/>
				<stop  offset="0.3059" style="stop-color:#FFFFFF;stop-opacity:0.2118"/>
				<stop  offset="0.4902" style="stop-color:#FFFFFF;stop-opacity:0.0902"/>
				<stop  offset="0.651" style="stop-color:#FFFFFF;stop-opacity:0.0275"/>
				<stop  offset="1" style="stop-color:#FFFFFF;stop-opacity:0"/>
			</radialGradient>
			<path fill-rule="evenodd" clip-rule="evenodd" fill="url(#SVGID_6_)" d="M11.97,41.42c0.07,0.93-0.18,1.48-0.75,1.65
				c-0.43,0.13-1.02-0.37-1.75-1.5c-0.63-1.16-1.17-2.61-1.6-4.34c-0.5-1.67-0.72-3.2-0.65-4.6c0.03-1.3,0.3-2,0.8-2.1
				c0.5-0.13,1.07,0.67,1.7,2.4c0.6,1.7,1.1,3.26,1.5,4.69C11.65,39.09,11.9,40.36,11.97,41.42z"/>
		</g>
		<g>
			
				<radialGradient id="SVGID_7_" cx="-189.4624" cy="-912.8501" r="3.0127" gradientTransform="matrix(-0.5636 0.8246 -0.547 -0.4185 -594.8922 -203.664)" gradientUnits="userSpaceOnUse">
				<stop  offset="0" style="stop-color:#FFFFFF;stop-opacity:0.3294"/>
				<stop  offset="0.1765" style="stop-color:#FFFFFF;stop-opacity:0.3294"/>
				<stop  offset="0.3059" style="stop-color:#FFFFFF;stop-opacity:0.2118"/>
				<stop  offset="0.4902" style="stop-color:#FFFFFF;stop-opacity:0.0902"/>
				<stop  offset="0.651" style="stop-color:#FFFFFF;stop-opacity:0.0275"/>
				<stop  offset="1" style="stop-color:#FFFFFF;stop-opacity:0"/>
			</radialGradient>
			<path fill-rule="evenodd" clip-rule="evenodd" fill="url(#SVGID_7_)" d="M9.47,24.64c-0.4-0.37-0.57-0.92-0.5-1.65
				c0-0.77,0.22-1.5,0.65-2.2c0.47-0.6,1.03-1.03,1.7-1.3c0.6-0.23,1.13-0.18,1.6,0.15c0.43,0.4,0.45,0.98,0.05,1.75
				c-0.27,0.73-0.57,1.43-0.9,2.1c-0.33,0.6-0.75,1.02-1.25,1.25C10.42,24.98,9.97,24.94,9.47,24.64z"/>
		</g>
	</g>
</g>
</svg>
