<?xml version="1.0" encoding="utf-8"?>
<!-- Generator: Adobe Illustrator 16.0.0, SVG Export Plug-In . SVG Version: 6.00 Build 0)  -->
<!DOCTYPE svg PUBLIC "-//W3C//DTD SVG 1.1//EN" "http://www.w3.org/Graphics/SVG/1.1/DTD/svg11.dtd">
<svg version="1.1" id="Layer_1" xmlns="http://www.w3.org/2000/svg" xmlns:xlink="http://www.w3.org/1999/xlink" x="0px" y="0px"
	 width="752px" height="466px" viewBox="-24 0 752 466" enable-background="new -24 0 752 466" xml:space="preserve">
<g>
	<path d="M728.199,1v465.3H-25V1H728.199z M655.199,325.1c20.17-29.529,30.25-63.27,30.25-101.2c0-42.33-12.6-79.48-37.8-111.45
		c-4.8-6.1-10.07-12.02-15.8-17.75c-35.67-35.67-78.73-53.5-129.2-53.5c-50.399,0-93.5,17.83-129.3,53.5
		c-6.97,7-13.25,14.28-18.85,21.85c-1.07-1.37-2.131-2.73-3.2-4.1c-4.8-6.1-10.07-12.02-15.8-17.75
		c-35.63-35.67-78.7-53.5-129.2-53.5c-50.4,0-93.47,17.83-129.2,53.5c-35.7,35.73-53.55,78.8-53.55,129.2
		c0,50.5,17.85,93.581,53.55,129.25c35.73,35.699,78.8,53.55,129.2,53.55c50.5,0,93.57-17.851,129.2-53.55
		c7.029-7,13.369-14.28,19-21.851c5.6,7.57,11.88,14.851,18.85,21.851c35.8,35.699,78.9,53.55,129.3,53.55
		c50.47,0,93.53-17.851,129.2-53.55C640.72,344.25,648.5,334.9,655.199,325.1z"/>
</g>
</svg>
