<?xml version="1.0" encoding="utf-8"?>
<!-- Generator: Adobe Illustrator 16.0.0, SVG Export Plug-In . SVG Version: 6.00 Build 0)  -->
<!DOCTYPE svg PUBLIC "-//W3C//DTD SVG 1.1//EN" "http://www.w3.org/Graphics/SVG/1.1/DTD/svg11.dtd">
<svg version="1.1" id="Layer_3" xmlns="http://www.w3.org/2000/svg" xmlns:xlink="http://www.w3.org/1999/xlink" x="0px" y="0px"
	 width="118.5px" height="98.5px" viewBox="0 0 118.5 98.5" enable-background="new 0 0 118.5 98.5" xml:space="preserve">
<symbol  id="rubber_turn_x5F_a" viewBox="-9.85 -3.2 19.65 6.4">
	<linearGradient id="SVGID_1_" gradientUnits="userSpaceOnUse" x1="-11.2002" y1="0" x2="10.5998" y2="0">
		<stop  offset="0" style="stop-color:#222222"/>
		<stop  offset="0.5569" style="stop-color:#626262"/>
		<stop  offset="1" style="stop-color:#1A1A1A"/>
	</linearGradient>
	<path fill-rule="evenodd" clip-rule="evenodd" fill="url(#SVGID_1_)" d="M9.8,3.2v-5.5C3.1-3.5-3.45-3.5-9.85-2.3v5.5
		C-3.45,2,3.1,2,9.8,3.2z"/>
</symbol>
<g>
	<g>
		<linearGradient id="SVGID_2_" gradientUnits="userSpaceOnUse" x1="70.8213" y1="62.9658" x2="88.7279" y2="60.3503">
			<stop  offset="0" style="stop-color:#4B453D"/>
			<stop  offset="0.3451" style="stop-color:#B8AEA2"/>
			<stop  offset="0.4941" style="stop-color:#DCD6CD"/>
			<stop  offset="0.5882" style="stop-color:#CEC6BC"/>
			<stop  offset="0.7412" style="stop-color:#B4ADA3"/>
			<stop  offset="1" style="stop-color:#4A433E"/>
		</linearGradient>
		<polygon fill-rule="evenodd" clip-rule="evenodd" fill="url(#SVGID_2_)" points="88.84,60.27 88.79,60.42 88.79,60.27 		"/>
		<linearGradient id="SVGID_3_" gradientUnits="userSpaceOnUse" x1="70.501" y1="61.3457" x2="89.4603" y2="58.5803">
			<stop  offset="0" style="stop-color:#4B453D"/>
			<stop  offset="0.3451" style="stop-color:#B8AEA2"/>
			<stop  offset="0.4941" style="stop-color:#DCD6CD"/>
			<stop  offset="0.5882" style="stop-color:#CEC6BC"/>
			<stop  offset="0.7412" style="stop-color:#B4ADA3"/>
			<stop  offset="1" style="stop-color:#4A433E"/>
		</linearGradient>
		<path fill-rule="evenodd" clip-rule="evenodd" fill="url(#SVGID_3_)" d="M88.79,60.27l-0.45-3l0.05,0.05l0.45,2.95H88.79z
			 M70.39,59.77l0.45,2.7c0.1,0.1,0.2,0.17,0.3,0.2c-0.13,0-0.23-0.03-0.3-0.1c-0.03-0.03-0.07-0.03-0.1,0L70.39,59.77z"/>
	</g>
	<g>
		<g>
			<linearGradient id="SVGID_4_" gradientUnits="userSpaceOnUse" x1="58.2861" y1="33.7295" x2="98.926" y2="27.874">
				<stop  offset="0" style="stop-color:#454344"/>
				<stop  offset="0.149" style="stop-color:#4D4E4D"/>
				<stop  offset="0.2353" style="stop-color:#949C9E"/>
				<stop  offset="0.302" style="stop-color:#EAECE8"/>
				<stop  offset="0.4431" style="stop-color:#3A4245"/>
				<stop  offset="0.5529" style="stop-color:#768B98"/>
				<stop  offset="0.6941" style="stop-color:#2F261D"/>
				<stop  offset="0.8235" style="stop-color:#31383D"/>
			</linearGradient>
			<path fill-rule="evenodd" clip-rule="evenodd" fill="url(#SVGID_4_)" d="M87.29,48.92c-6.03,2-12.05,2.92-18.05,2.75l-2.15-15.1
				l-4.8-32.7l18-2.7l5.5,37.9L87.29,48.92z M69.99,56.92c6,0.2,12.02-0.68,18.05-2.65l0.4,3.1l-0.1-0.05
				c-0.23,0.23-0.55,0.43-0.95,0.6c-2.03,0.87-4.55,1.57-7.55,2.1c-3,0.37-5.58,0.42-7.75,0.15c-0.5-0.03-0.92-0.13-1.25-0.3
				c-0.17-0.07-0.32-0.1-0.45-0.1L69.99,56.92z"/>
			<linearGradient id="SVGID_5_" gradientUnits="userSpaceOnUse" x1="67.8877" y1="54.8975" x2="88.7455" y2="51.7957">
				<stop  offset="0" style="stop-color:#222222"/>
				<stop  offset="0.5569" style="stop-color:#626262"/>
				<stop  offset="1" style="stop-color:#1A1A1A"/>
			</linearGradient>
			<path fill-rule="evenodd" clip-rule="evenodd" fill="url(#SVGID_5_)" d="M88.04,54.27c-6.03,1.97-12.05,2.85-18.05,2.65
				c-0.17,0.03-0.33,0.05-0.5,0.05l-0.75-5.3c0.17-0.03,0.33-0.03,0.5,0c6,0.17,12.02-0.75,18.05-2.75c0.07,0,0.15-0.03,0.25-0.1
				l0.8,5.35C88.21,54.17,88.11,54.2,88.04,54.27z M80.09,51.57l0.55,3.9L80.09,51.57z M85.59,50.22l0.55,3.95L85.59,50.22z
				 M86.14,50.07l0.55,3.95L86.14,50.07z M82.99,51.02l0.55,3.85L82.99,51.02z M82.44,51.17l0.55,3.9L82.44,51.17z M70.89,52.27
				l0.55,3.9L70.89,52.27z M70.34,52.27l0.55,3.95L70.34,52.27z M73.34,52.27l0.55,3.9L73.34,52.27z M77.24,51.97l0.55,3.95
				L77.24,51.97z M79.39,51.67l0.55,3.95L79.39,51.67z M74.09,52.22l0.55,3.95L74.09,52.22z M76.49,52.07l0.6,3.9L76.49,52.07z"/>
			<linearGradient id="SVGID_6_" gradientUnits="userSpaceOnUse" x1="70.9951" y1="62.1748" x2="88.6223" y2="59.0675">
				<stop  offset="0.0392" style="stop-color:#041A04"/>
				<stop  offset="0.298" style="stop-color:#78C278"/>
				<stop  offset="0.3647" style="stop-color:#1C971C"/>
				<stop  offset="0.5373" style="stop-color:#062006"/>
				<stop  offset="0.7882" style="stop-color:#1D991D"/>
				<stop  offset="0.9333" style="stop-color:#0A340A"/>
				<stop  offset="1" style="stop-color:#010701"/>
			</linearGradient>
			<path fill-rule="evenodd" clip-rule="evenodd" fill="url(#SVGID_6_)" d="M86.94,61.42l-0.15-0.05c-1.73,0.7-3.75,1.23-6.05,1.6
				c-2.27,0.3-4.33,0.4-6.2,0.3c-0.47-0.03-0.97-0.1-1.5-0.2c-0.07,0-0.13-0.02-0.2-0.05c-0.67-0.07-1.22-0.17-1.65-0.3
				c-0.13-0.03-0.23-0.1-0.3-0.2l-0.5-2.75c0.13,0,0.28,0.03,0.45,0.1c0.33,0.17,0.75,0.27,1.25,0.3c2.17,0.27,4.75,0.22,7.75-0.15
				c3-0.53,5.52-1.23,7.55-2.1c0.4-0.17,0.72-0.37,0.95-0.6l0.5,3.05v0.1c-0.13,0.1-0.32,0.2-0.55,0.3
				c-0.33,0.13-0.63,0.28-0.9,0.45c0-0.07-0.05-0.03-0.15,0.1C87.14,61.28,87.04,61.32,86.94,61.42z"/>
			
				<linearGradient id="SVGID_7_" gradientUnits="userSpaceOnUse" x1="38.4126" y1="104.7686" x2="61.4335" y2="104.7686" gradientTransform="matrix(0.9894 -0.1455 0.135 0.9909 18.5239 -32.7633)">
				<stop  offset="0" style="stop-color:#454344"/>
				<stop  offset="0.149" style="stop-color:#4D4E4D"/>
				<stop  offset="0.2353" style="stop-color:#949C9E"/>
				<stop  offset="0.302" style="stop-color:#EAECE8"/>
				<stop  offset="0.4431" style="stop-color:#3A4245"/>
				<stop  offset="0.5529" style="stop-color:#768B98"/>
				<stop  offset="0.6941" style="stop-color:#2F261D"/>
				<stop  offset="0.8235" style="stop-color:#31383D"/>
			</linearGradient>
			<path fill-rule="evenodd" clip-rule="evenodd" fill="url(#SVGID_7_)" d="M85.14,65.22c-0.47,0.07-0.95,0.17-1.45,0.3l-2.55,0.45
				c-1.87,0.3-3.63,0.43-5.3,0.4c-0.23,0-0.5-0.02-0.8-0.05c-0.33-0.03-0.57-0.12-0.7-0.25l-1.3-3c0.53,0.1,1.03,0.17,1.5,0.2
				c1.87,0.1,3.93,0,6.2-0.3c2.3-0.37,4.32-0.9,6.05-1.6l0.15,0.05l-0.6,3.25L85.14,65.22z"/>
			<linearGradient id="SVGID_8_" gradientUnits="userSpaceOnUse" x1="75.5098" y1="68.0576" x2="87.9949" y2="66.2942">
				<stop  offset="0" style="stop-color:#454344"/>
				<stop  offset="0.149" style="stop-color:#4D4E4D"/>
				<stop  offset="0.2353" style="stop-color:#949C9E"/>
				<stop  offset="0.302" style="stop-color:#EAECE8"/>
				<stop  offset="0.4431" style="stop-color:#3A4245"/>
				<stop  offset="0.5529" style="stop-color:#768B98"/>
				<stop  offset="0.6941" style="stop-color:#2F261D"/>
				<stop  offset="0.8235" style="stop-color:#31383D"/>
			</linearGradient>
			<path fill-rule="evenodd" clip-rule="evenodd" fill="url(#SVGID_8_)" d="M75.84,66.37c1.67,0.04,3.43-0.1,5.3-0.4l2.55-0.45
				c0.5-0.13,0.98-0.23,1.45-0.3l0.2,1.55c0,0.4-0.2,0.82-0.6,1.25c-0.53,0.4-1.58,0.67-3.15,0.8c-1.6,0.27-2.82,0.37-3.65,0.3
				c-0.93,0-1.55-0.42-1.85-1.25L75.84,66.37z"/>
			
				<path fill-rule="evenodd" clip-rule="evenodd" fill="none" stroke="#000000" stroke-width="0.2" stroke-linecap="square" stroke-linejoin="round" stroke-miterlimit="3" d="
				M85.59,50.22l0.55,3.95 M82.44,51.17l0.55,3.9 M70.34,52.27l0.55,3.95 M73.34,52.27l0.55,3.9 M79.39,51.67l0.55,3.95
				 M76.49,52.07l0.6,3.9"/>
			
				<path fill-rule="evenodd" clip-rule="evenodd" fill="none" stroke="#FFFFFF" stroke-width="0.2" stroke-linecap="square" stroke-linejoin="round" stroke-miterlimit="3" stroke-opacity="0.0863" d="
				M80.09,51.57l0.55,3.9 M86.14,50.07l0.55,3.95 M82.99,51.02l0.55,3.85 M70.89,52.27l0.55,3.9 M77.24,51.97l0.55,3.95
				 M74.09,52.22l0.55,3.95"/>
		</g>
	</g>
	<g>
		<path fill-rule="evenodd" clip-rule="evenodd" fill="#269C26" d="M77.04,43.67c0.03,0.3,0.13,0.55,0.3,0.75
			c0.2,0.2,0.43,0.28,0.7,0.25c0.27-0.03,0.47-0.15,0.6-0.35c0.17-0.23,0.25-0.52,0.25-0.85c-0.07-0.3-0.22-0.53-0.45-0.7
			c-0.17-0.2-0.37-0.27-0.6-0.2c-0.23,0.03-0.43,0.15-0.6,0.35C77.11,43.12,77.04,43.37,77.04,43.67z M77.79,41.82
			c0.4-0.07,0.77,0.07,1.1,0.4c0.37,0.3,0.58,0.72,0.65,1.25c0.07,0.33,0.03,0.6-0.1,0.8c-0.13,0.27-0.32,0.47-0.55,0.6
			c0.33,0.1,0.62,0.3,0.85,0.6c0.17,0.23,0.27,0.58,0.3,1.05c0.1,0.6,0,1.1-0.3,1.5c-0.3,0.47-0.72,0.72-1.25,0.75
			c-0.5,0.07-0.93-0.07-1.3-0.4c-0.43-0.37-0.67-0.85-0.7-1.45c-0.03-0.47,0.02-0.85,0.15-1.15c0.17-0.33,0.38-0.58,0.65-0.75
			c-0.23-0.07-0.45-0.2-0.65-0.4c-0.17-0.23-0.27-0.52-0.3-0.85c-0.03-0.5,0.08-0.92,0.35-1.25C76.93,42.12,77.29,41.88,77.79,41.82
			z M77.14,46.87c0.07,0.37,0.22,0.67,0.45,0.9c0.27,0.27,0.55,0.38,0.85,0.35c0.33-0.07,0.58-0.25,0.75-0.55
			c0.2-0.23,0.28-0.55,0.25-0.95c-0.04-0.43-0.2-0.77-0.5-1c-0.23-0.23-0.5-0.32-0.8-0.25c-0.33,0-0.6,0.15-0.8,0.45
			C77.18,46.08,77.11,46.43,77.14,46.87z"/>
	</g>
</g>
<g>
	<g>
		<g>
			<linearGradient id="SVGID_9_" gradientUnits="userSpaceOnUse" x1="75.1162" y1="48.3613" x2="115.2199" y2="38.6127">
				<stop  offset="0" style="stop-color:#454344"/>
				<stop  offset="0.149" style="stop-color:#4D4E4D"/>
				<stop  offset="0.2353" style="stop-color:#949C9E"/>
				<stop  offset="0.302" style="stop-color:#EAECE8"/>
				<stop  offset="0.4431" style="stop-color:#3A4245"/>
				<stop  offset="0.5529" style="stop-color:#768B98"/>
				<stop  offset="0.6941" style="stop-color:#2F261D"/>
				<stop  offset="0.8235" style="stop-color:#31383D"/>
			</linearGradient>
			<path fill-rule="evenodd" clip-rule="evenodd" fill="url(#SVGID_9_)" d="M105.44,60.77c-0.67,0.3-1.37,0.57-2.1,0.8
				c-5.2,1.87-10.45,2.88-15.75,3.05l-1.3-5.3l-4.9-20.75l-4.45-18.95l7.65-2.1l7.55-2.2l2.15-0.6l0.3,0.95l0.75,3.2l5.35,22.3
				L105.44,60.77z M88.79,69.92c6.07-0.23,12.03-1.57,17.9-4l0.5,2.2v0.05c-0.37,0.1-0.68,0.25-0.95,0.45
				c-1.97,1.23-4.42,2.22-7.35,2.95c-2.93,0.67-5.5,0.97-7.7,0.9c-0.5-0.07-0.95-0.12-1.35-0.15c-0.1-0.07-0.22-0.08-0.35-0.05
				l-0.2,0.05L88.79,69.92z"/>
			<linearGradient id="SVGID_10_" gradientUnits="userSpaceOnUse" x1="86.4814" y1="67.9492" x2="107.2413" y2="63.4951">
				<stop  offset="0" style="stop-color:#222222"/>
				<stop  offset="0.5569" style="stop-color:#626262"/>
				<stop  offset="1" style="stop-color:#1A1A1A"/>
			</linearGradient>
			<path fill-rule="evenodd" clip-rule="evenodd" fill="url(#SVGID_10_)" d="M106.69,65.92c-5.87,2.43-11.83,3.77-17.9,4
				c-0.2-0.03-0.38-0.05-0.55-0.05l-1.1-5.2c0.13-0.03,0.28-0.05,0.45-0.05c5.3-0.17,10.55-1.18,15.75-3.05
				c0.73-0.23,1.43-0.5,2.1-0.8c0.13-0.03,0.27-0.1,0.4-0.2l1.1,5.3C106.84,65.9,106.76,65.92,106.69,65.92z M103.99,62.17l0.8,3.9
				L103.99,62.17z M104.44,61.97l0.85,3.9L104.44,61.97z M98.49,63.87l0.8,3.9L98.49,63.87z M97.84,64.02l0.8,3.85L97.84,64.02z
				 M100.84,63.22l0.85,3.85L100.84,63.22z M101.34,63.07l0.8,3.9L101.34,63.07z M92.49,64.87l0.8,3.9L92.49,64.87z M91.79,64.92
				l0.85,3.9L91.79,64.92z M95.64,64.47l0.8,3.9L95.64,64.47z M94.94,64.57l0.8,3.9L94.94,64.57z M88.74,65.12l0.85,3.95
				L88.74,65.12z M89.29,65.12l0.8,3.9L89.29,65.12z"/>
			<linearGradient id="SVGID_11_" gradientUnits="userSpaceOnUse" x1="88.0195" y1="74.9941" x2="108.97" y2="69.8414">
				<stop  offset="0.0392" style="stop-color:#545401"/>
				<stop  offset="0.2824" style="stop-color:#FFFF00"/>
				<stop  offset="0.4392" style="stop-color:#ACAB00"/>
				<stop  offset="0.5529" style="stop-color:#545401"/>
				<stop  offset="0.7059" style="stop-color:#8E8D02"/>
				<stop  offset="0.851" style="stop-color:#000000"/>
				<stop  offset="0.8667" style="stop-color:#141401"/>
			</linearGradient>
			<path fill-rule="evenodd" clip-rule="evenodd" fill="url(#SVGID_11_)" d="M107.19,68.17l0.2,0.7l0.45,2.1
				c-0.47,0.57-1.08,0.98-1.85,1.25l-1.1,0.6c-1,0.43-2.63,0.97-4.9,1.6c-2.27,0.5-4.3,0.8-6.1,0.9c-0.47-0.07-0.95-0.1-1.45-0.1
				h-0.15c-0.63,0.03-1.32-0.05-2.05-0.25h-0.1l-0.65-2.25c0-0.1,0-0.25,0-0.45c0.13-0.03,0.25-0.02,0.35,0.05
				c0.4,0.03,0.85,0.08,1.35,0.15c2.2,0.07,4.77-0.23,7.7-0.9c2.93-0.73,5.38-1.72,7.35-2.95
				C106.51,68.42,106.83,68.27,107.19,68.17z"/>
			<linearGradient id="SVGID_12_" gradientUnits="userSpaceOnUse" x1="90.1426" y1="77.8926" x2="112.6281" y2="72.4207">
				<stop  offset="0" style="stop-color:#454344"/>
				<stop  offset="0.149" style="stop-color:#4D4E4D"/>
				<stop  offset="0.2353" style="stop-color:#949C9E"/>
				<stop  offset="0.302" style="stop-color:#EAECE8"/>
				<stop  offset="0.4431" style="stop-color:#3A4245"/>
				<stop  offset="0.5529" style="stop-color:#768B98"/>
				<stop  offset="0.6941" style="stop-color:#2F261D"/>
				<stop  offset="0.8235" style="stop-color:#31383D"/>
			</linearGradient>
			<path fill-rule="evenodd" clip-rule="evenodd" fill="url(#SVGID_12_)" d="M104.69,76.22c-0.47,0.2-0.93,0.37-1.4,0.5l-2.5,0.7
				c-1.93,0.4-3.68,0.65-5.25,0.75c-0.23,0.1-0.53,0.13-0.9,0.1l-0.7-0.05l-1.5-3c0.5,0,0.98,0.03,1.45,0.1
				c1.8-0.1,3.83-0.4,6.1-0.9c2.27-0.63,3.9-1.17,4.9-1.6l1.1-0.6l0.1,3.5C105.59,75.78,105.13,75.95,104.69,76.22z"/>
			<linearGradient id="SVGID_13_" gradientUnits="userSpaceOnUse" x1="89.5078" y1="72.7393" x2="108.22" y2="68.187">
				<stop  offset="0" style="stop-color:#4B453D"/>
				<stop  offset="0.3451" style="stop-color:#B8AEA2"/>
				<stop  offset="0.4941" style="stop-color:#DCD6CD"/>
				<stop  offset="0.5882" style="stop-color:#CEC6BC"/>
				<stop  offset="0.7412" style="stop-color:#B4ADA3"/>
				<stop  offset="1" style="stop-color:#4A433E"/>
			</linearGradient>
			<path fill-rule="evenodd" clip-rule="evenodd" fill="url(#SVGID_13_)" d="M107.39,68.87l-0.2-0.7v-0.05L107.39,68.87z
				 M89.29,72.32l0.2-0.05c0,0.2,0,0.35,0,0.45L89.29,72.32z"/>
			<linearGradient id="SVGID_14_" gradientUnits="userSpaceOnUse" x1="95.4521" y1="79.999" x2="107.8073" y2="76.9979">
				<stop  offset="0" style="stop-color:#454344"/>
				<stop  offset="0.149" style="stop-color:#4D4E4D"/>
				<stop  offset="0.2353" style="stop-color:#949C9E"/>
				<stop  offset="0.302" style="stop-color:#EAECE8"/>
				<stop  offset="0.4431" style="stop-color:#3A4245"/>
				<stop  offset="0.5529" style="stop-color:#768B98"/>
				<stop  offset="0.6941" style="stop-color:#2F261D"/>
				<stop  offset="0.8235" style="stop-color:#31383D"/>
			</linearGradient>
			<path fill-rule="evenodd" clip-rule="evenodd" fill="url(#SVGID_14_)" d="M95.54,78.17c1.57-0.1,3.32-0.35,5.25-0.75l2.5-0.7
				c0.47-0.13,0.93-0.3,1.4-0.5l0.35,1.65c-0.03,0.93-0.62,1.57-1.75,1.9c-1,0.47-2.43,0.77-4.3,0.9c-1.8,0.2-2.82-0.05-3.05-0.75
				L95.54,78.17z"/>
			
				<path fill-rule="evenodd" clip-rule="evenodd" fill="none" stroke="#000000" stroke-width="0.2" stroke-linecap="square" stroke-linejoin="round" stroke-miterlimit="3" d="
				M103.99,62.17l0.8,3.9 M97.84,64.02l0.8,3.85 M100.84,63.22l0.85,3.85 M91.79,64.92l0.85,3.9 M94.94,64.57l0.8,3.9 M88.74,65.12
				l0.85,3.95"/>
			
				<path fill-rule="evenodd" clip-rule="evenodd" fill="none" stroke="#FFFFFF" stroke-width="0.2" stroke-linecap="square" stroke-linejoin="round" stroke-miterlimit="3" stroke-opacity="0.0902" d="
				M104.44,61.97l0.85,3.9 M98.49,63.87l0.8,3.9 M101.34,63.07l0.8,3.9 M92.49,64.87l0.8,3.9 M95.64,64.47l0.8,3.9 M89.29,65.12
				l0.8,3.9"/>
		</g>
	</g>
	<g>
		<path fill-rule="evenodd" clip-rule="evenodd" fill="#CECE00" d="M99.59,59.17c-0.17,0.7-0.55,1.12-1.15,1.25
			c-0.6,0.17-1.13,0.03-1.6-0.4c-0.5-0.5-0.92-1.42-1.25-2.75c-0.3-1.23-0.37-2.2-0.2-2.9c0.23-0.7,0.67-1.13,1.3-1.3
			c0.53-0.17,1.03-0.03,1.5,0.4c0.53,0.53,0.96,1.47,1.3,2.8C99.76,57.53,99.79,58.5,99.59,59.17z M96.39,57.07
			c0.27,1.17,0.57,1.93,0.9,2.3c0.3,0.33,0.62,0.43,0.95,0.3c0.37-0.03,0.6-0.3,0.7-0.8c0.13-0.4,0.07-1.2-0.2-2.4
			c-0.27-1.13-0.57-1.9-0.9-2.3c-0.33-0.33-0.67-0.47-1-0.4c-0.37,0.07-0.6,0.35-0.7,0.85C96.01,55.08,96.09,55.9,96.39,57.07z
			 M91.39,57.22l-0.25-0.85c0.3-0.33,0.58-0.7,0.85-1.1c0.23-0.43,0.37-0.83,0.4-1.2l0.45-0.05l1.8,7.25l-0.75,0.15l-1.4-5.65
			c-0.1,0.23-0.25,0.48-0.45,0.75C91.74,56.82,91.53,57.05,91.39,57.22z"/>
	</g>
</g>
<g>
	<g>
		<g>
			<linearGradient id="SVGID_15_" gradientUnits="userSpaceOnUse" x1="32.1855" y1="28.9473" x2="71.1571" y2="42.467">
				<stop  offset="0" style="stop-color:#454344"/>
				<stop  offset="0.149" style="stop-color:#4D4E4D"/>
				<stop  offset="0.2353" style="stop-color:#949C9E"/>
				<stop  offset="0.302" style="stop-color:#EAECE8"/>
				<stop  offset="0.4431" style="stop-color:#3A4245"/>
				<stop  offset="0.5529" style="stop-color:#768B98"/>
				<stop  offset="0.6941" style="stop-color:#2F261D"/>
				<stop  offset="0.8235" style="stop-color:#31383D"/>
			</linearGradient>
			<path fill-rule="evenodd" clip-rule="evenodd" fill="url(#SVGID_15_)" d="M32.49,53.77h-0.1l10-29.1l5.6-16.15l17.7,5.75
				l-4.55,12.95l-11.45,32.8l-0.05-0.05c-0.37,0-0.75-0.02-1.15-0.05c-2.23-0.07-4.82-0.63-7.75-1.7c-2.87-0.97-5.22-2.1-7.05-3.4
				c-0.3-0.3-0.58-0.55-0.85-0.75C32.71,53.93,32.59,53.83,32.49,53.77z"/>
			<linearGradient id="SVGID_16_" gradientUnits="userSpaceOnUse" x1="31.7583" y1="55.2666" x2="49.9426" y2="61.5428">
				<stop  offset="0" style="stop-color:#4B453D"/>
				<stop  offset="0.3451" style="stop-color:#B8AEA2"/>
				<stop  offset="0.4941" style="stop-color:#DCD6CD"/>
				<stop  offset="0.5882" style="stop-color:#CEC6BC"/>
				<stop  offset="0.7412" style="stop-color:#B4ADA3"/>
				<stop  offset="1" style="stop-color:#4A433E"/>
			</linearGradient>
			<path fill-rule="evenodd" clip-rule="evenodd" fill="url(#SVGID_16_)" d="M48.69,62.87l-0.1-0.05l1.05-2.85l0.05,0.05
				L48.69,62.87z M32.39,53.77h0.1l-0.95,2.65c0.13,0.1,0.23,0.2,0.3,0.3c-0.13-0.07-0.22-0.15-0.25-0.25l-0.15-0.05L32.39,53.77z"
				/>
			<linearGradient id="SVGID_17_" gradientUnits="userSpaceOnUse" x1="33.2109" y1="63.6055" x2="45.1631" y2="67.7952">
				<stop  offset="0" style="stop-color:#454344"/>
				<stop  offset="0.149" style="stop-color:#4D4E4D"/>
				<stop  offset="0.2353" style="stop-color:#949C9E"/>
				<stop  offset="0.302" style="stop-color:#EAECE8"/>
				<stop  offset="0.4431" style="stop-color:#3A4245"/>
				<stop  offset="0.5529" style="stop-color:#768B98"/>
				<stop  offset="0.6941" style="stop-color:#2F261D"/>
				<stop  offset="0.8235" style="stop-color:#31383D"/>
			</linearGradient>
			<path fill-rule="evenodd" clip-rule="evenodd" fill="url(#SVGID_17_)" d="M34.24,62.07c1.47,0.83,3.12,1.55,4.95,2.15l2.5,0.8
				c0.47,0.13,0.92,0.25,1.35,0.35l-0.65,1.95c-0.27,0.23-0.65,0.37-1.15,0.4c-2.57-0.07-4.87-0.9-6.9-2.5
				c-0.43-0.33-0.68-0.65-0.75-0.95l-0.05-0.2L34.24,62.07z"/>
			<linearGradient id="SVGID_18_" gradientUnits="userSpaceOnUse" x1="29.9854" y1="58.8926" x2="51.849" y2="66.5001">
				<stop  offset="0" style="stop-color:#454344"/>
				<stop  offset="0.149" style="stop-color:#4D4E4D"/>
				<stop  offset="0.2353" style="stop-color:#949C9E"/>
				<stop  offset="0.302" style="stop-color:#EAECE8"/>
				<stop  offset="0.4431" style="stop-color:#3A4245"/>
				<stop  offset="0.5529" style="stop-color:#768B98"/>
				<stop  offset="0.6941" style="stop-color:#2F261D"/>
				<stop  offset="0.8235" style="stop-color:#31383D"/>
			</linearGradient>
			<path fill-rule="evenodd" clip-rule="evenodd" fill="url(#SVGID_18_)" d="M33.29,57.92c0.43,0.23,0.88,0.5,1.35,0.8
				c1.5,0.93,3.35,1.77,5.55,2.5c2.27,0.77,4.32,1.28,6.15,1.55l0.15,0.05l-1.85,2.85c-0.5-0.1-0.98-0.2-1.45-0.3
				c-0.07,0-0.12,0-0.15,0c-0.43-0.1-0.88-0.21-1.35-0.35l-2.5-0.8c-1.83-0.6-3.48-1.32-4.95-2.15c-0.3-0.17-0.68-0.48-1.15-0.95
				L33.29,57.92z"/>
			<linearGradient id="SVGID_19_" gradientUnits="userSpaceOnUse" x1="29.6563" y1="55.1572" x2="50.0694" y2="62.2912">
				<stop  offset="0.0667" style="stop-color:#0C0E27"/>
				<stop  offset="0.2824" style="stop-color:#9A9BFE"/>
				<stop  offset="0.4902" style="stop-color:#3242EE"/>
				<stop  offset="0.5647" style="stop-color:#091477"/>
				<stop  offset="0.7608" style="stop-color:#4A56F2"/>
				<stop  offset="1" style="stop-color:#000000"/>
			</linearGradient>
			<path fill-rule="evenodd" clip-rule="evenodd" fill="url(#SVGID_19_)" d="M31.84,56.72c-0.07-0.1-0.17-0.2-0.3-0.3l0.95-2.65
				c0.1,0.07,0.22,0.17,0.35,0.3c0.27,0.2,0.55,0.45,0.85,0.75c1.83,1.3,4.18,2.43,7.05,3.4c2.93,1.07,5.52,1.63,7.75,1.7
				c0.4,0.03,0.78,0.05,1.15,0.05l-1.05,2.85l-0.05,0.15c-0.2,0-0.43,0-0.7,0c-0.3-0.03-0.6-0.07-0.9-0.1l-0.1,0.05
				c-0.1-0.07-0.22-0.1-0.35-0.1l-0.15-0.05c-1.83-0.27-3.88-0.78-6.15-1.55c-2.2-0.73-4.05-1.57-5.55-2.5
				c-0.47-0.3-0.92-0.57-1.35-0.8l-0.15-0.15C32.64,57.4,32.21,57.05,31.84,56.72z"/>
			<linearGradient id="SVGID_20_" gradientUnits="userSpaceOnUse" x1="31.2637" y1="56.9238" x2="48.5356" y2="62.8967">
				<stop  offset="0" style="stop-color:#4B453D"/>
				<stop  offset="0.3451" style="stop-color:#B8AEA2"/>
				<stop  offset="0.4941" style="stop-color:#DCD6CD"/>
				<stop  offset="0.5882" style="stop-color:#CEC6BC"/>
				<stop  offset="0.7412" style="stop-color:#B4ADA3"/>
				<stop  offset="1" style="stop-color:#4A433E"/>
			</linearGradient>
			<polygon fill-rule="evenodd" clip-rule="evenodd" fill="url(#SVGID_20_)" points="48.54,62.97 48.59,62.82 48.69,62.87 
				48.59,63.02 			"/>
		</g>
	</g>
	<g>
		
			<use xlink:href="#rubber_turn_x5F_a"  width="19.65" height="6.4" x="-9.85" y="-3.2" transform="matrix(0.9197 0.3179 0.3202 -0.9265 42.4424 51.916)" overflow="visible"/>
	</g>
	<g>
		<path fill-rule="evenodd" clip-rule="evenodd" fill="#1774FF" d="M48.44,42.12c0.5,0.13,0.83,0.47,1,1
			c0.23,0.67,0.18,1.62-0.15,2.85c-0.3,1.07-0.67,1.83-1.1,2.3c-0.43,0.57-0.93,0.75-1.5,0.55c-0.53-0.1-0.9-0.45-1.1-1.05
			c-0.17-0.6-0.1-1.52,0.2-2.75c0.27-1.07,0.65-1.87,1.15-2.4C47.34,42.12,47.84,41.95,48.44,42.12z M47.29,43.17
			c-0.27,0.3-0.55,0.98-0.85,2.05c-0.27,1.07-0.33,1.8-0.2,2.2c0.1,0.43,0.32,0.7,0.65,0.8c0.3,0.07,0.58-0.07,0.85-0.4
			c0.33-0.3,0.63-0.98,0.9-2.05c0.27-1.1,0.35-1.85,0.25-2.25c-0.1-0.4-0.33-0.65-0.7-0.75C47.89,42.7,47.59,42.83,47.29,43.17z
			 M45.29,41.32l-1.15,4.3l0.7,0.2l-0.1,0.75l-0.75-0.2l-0.45,1.55l-0.65-0.15l0.4-1.55l-2.3-0.6l0.2-0.75l3.6-3.65L45.29,41.32z
			 M43.49,45.47l0.75-3l-2.4,2.55L43.49,45.47z"/>
	</g>
</g>
<g>
	<g>
		<g>
			<linearGradient id="SVGID_21_" gradientUnits="userSpaceOnUse" x1="14.103" y1="57.542" x2="32.8428" y2="67.414">
				<stop  offset="0" style="stop-color:#222222"/>
				<stop  offset="0.5569" style="stop-color:#626262"/>
				<stop  offset="1" style="stop-color:#1A1A1A"/>
			</linearGradient>
			<path fill-rule="evenodd" clip-rule="evenodd" fill="url(#SVGID_21_)" d="M31.09,69.12c-0.13-0.03-0.25-0.07-0.35-0.1
				c-5.93-1.97-11.28-4.8-16.05-8.5c-0.17-0.13-0.32-0.27-0.45-0.4l2.5-4.75c0.13,0.1,0.27,0.2,0.4,0.3
				c4.73,3.7,10.08,6.55,16.05,8.55c0.13,0.07,0.27,0.1,0.4,0.1L31.09,69.12z M31.19,64.32l-1.85,3.5L31.19,64.32z M31.74,64.52
				l-1.9,3.45L31.74,64.52z M25.94,62.12l-1.85,3.5L25.94,62.12z M23.34,60.77l-1.85,3.5L23.34,60.77z M22.74,60.37l-1.8,3.5
				L22.74,60.37z M25.34,61.82l-1.85,3.5L25.34,61.82z M20.69,59.02l-1.85,3.55L20.69,59.02z M18.04,57.17l-1.8,3.45L18.04,57.17z
				 M17.59,56.82l-1.8,3.5L17.59,56.82z M28.14,63.17l-1.85,3.5L28.14,63.17z M20.09,58.62l-1.85,3.5L20.09,58.62z M28.64,63.37
				l-1.85,3.5L28.64,63.37z"/>
			
				<path fill-rule="evenodd" clip-rule="evenodd" fill="none" stroke="#FFFFFF" stroke-width="0.2" stroke-linecap="square" stroke-linejoin="round" stroke-miterlimit="3" stroke-opacity="0.0863" d="
				M31.74,64.52l-1.9,3.45 M25.94,62.12l-1.85,3.5 M23.34,60.77l-1.85,3.5 M20.69,59.02l-1.85,3.55 M18.04,57.17l-1.8,3.45
				 M28.64,63.37l-1.85,3.5"/>
			
				<path fill-rule="evenodd" clip-rule="evenodd" fill="none" stroke="#000000" stroke-width="0.2" stroke-linecap="square" stroke-linejoin="round" stroke-miterlimit="3" d="
				M31.19,64.32l-1.85,3.5 M22.74,60.37l-1.8,3.5 M25.34,61.82l-1.85,3.5 M17.59,56.82l-1.8,3.5 M28.14,63.17l-1.85,3.5
				 M20.09,58.62l-1.85,3.5"/>
		</g>
	</g>
	<g>
		<g>
			<linearGradient id="SVGID_22_" gradientUnits="userSpaceOnUse" x1="16.9927" y1="36.915" x2="53.7941" y2="55.2823">
				<stop  offset="0" style="stop-color:#454344"/>
				<stop  offset="0.149" style="stop-color:#4D4E4D"/>
				<stop  offset="0.2353" style="stop-color:#949C9E"/>
				<stop  offset="0.302" style="stop-color:#EAECE8"/>
				<stop  offset="0.4431" style="stop-color:#3A4245"/>
				<stop  offset="0.5529" style="stop-color:#768B98"/>
				<stop  offset="0.6941" style="stop-color:#2F261D"/>
				<stop  offset="0.8235" style="stop-color:#31383D"/>
			</linearGradient>
			<path fill-rule="evenodd" clip-rule="evenodd" fill="url(#SVGID_22_)" d="M29.64,71.17l-0.05,0.05c-0.33-0.1-0.68-0.15-1.05-0.15
				c-2.17-0.4-4.6-1.27-7.3-2.6c-2.73-1.37-4.9-2.83-6.5-4.4c-0.3-0.3-0.62-0.6-0.95-0.9c-0.03-0.1-0.08-0.2-0.15-0.3l-0.1-0.05
				l1.15-2.3c4.77,3.7,10.12,6.53,16.05,8.5L29.64,71.17z M36.19,17.07l15.55,8.9L33.29,64.02l-0.1,0.2
				c-5.97-2-11.32-4.85-16.05-8.55l2.35-4.8L36.19,17.07z"/>
			<linearGradient id="SVGID_23_" gradientUnits="userSpaceOnUse" x1="12.6543" y1="64.2832" x2="29.8534" y2="72.8325">
				<stop  offset="0" style="stop-color:#4B453D"/>
				<stop  offset="0.3451" style="stop-color:#B8AEA2"/>
				<stop  offset="0.4941" style="stop-color:#DCD6CD"/>
				<stop  offset="0.5882" style="stop-color:#CEC6BC"/>
				<stop  offset="0.7412" style="stop-color:#B4ADA3"/>
				<stop  offset="1" style="stop-color:#4A433E"/>
			</linearGradient>
			<path fill-rule="evenodd" clip-rule="evenodd" fill="url(#SVGID_23_)" d="M13.64,62.87l-1.25,2.55c0.07,0.07,0.08,0.18,0.05,0.35
				c0-0.13-0.03-0.22-0.1-0.25l-0.1-0.05l1.3-2.65L13.64,62.87z M29.64,71.17l-1.3,2.75l-0.05,0.05l1.3-2.75L29.64,71.17z"/>
			<linearGradient id="SVGID_24_" gradientUnits="userSpaceOnUse" x1="12.4194" y1="64.499" x2="27.5857" y2="72.7191">
				<stop  offset="0" style="stop-color:#290101"/>
				<stop  offset="0.1922" style="stop-color:#C90303"/>
				<stop  offset="0.3216" style="stop-color:#BB0909"/>
				<stop  offset="0.4314" style="stop-color:#FF0000"/>
				<stop  offset="0.5059" style="stop-color:#FF0000"/>
				<stop  offset="0.6824" style="stop-color:#A00101"/>
				<stop  offset="0.8392" style="stop-color:#CF0101"/>
				<stop  offset="1" style="stop-color:#220000"/>
			</linearGradient>
			<path fill-rule="evenodd" clip-rule="evenodd" fill="url(#SVGID_24_)" d="M29.59,71.22l-1.3,2.75l-0.15,0.1
				c-0.1,0.03-0.3-0.02-0.6-0.15c-0.3-0.03-0.6-0.1-0.9-0.2l-0.2,0.05c-0.03-0.07-0.1-0.12-0.2-0.15c-0.03-0.03-0.08-0.05-0.15-0.05
				c0-0.03-0.03-0.03-0.1,0c-1.7-0.43-3.6-1.18-5.7-2.25c-2.1-1.03-3.87-2.1-5.3-3.2c-0.4-0.37-0.78-0.7-1.15-1
				c-0.03-0.1-0.08-0.15-0.15-0.15c-0.5-0.53-0.92-0.93-1.25-1.2c0.03-0.17,0.02-0.28-0.05-0.35l1.25-2.55
				c0.07,0.1,0.12,0.2,0.15,0.3c0.33,0.3,0.65,0.6,0.95,0.9c1.6,1.57,3.77,3.03,6.5,4.4c2.7,1.33,5.13,2.2,7.3,2.6
				C28.91,71.07,29.26,71.12,29.59,71.22z"/>
			<linearGradient id="SVGID_25_" gradientUnits="userSpaceOnUse" x1="10.4272" y1="67.6846" x2="31.118" y2="78.0282">
				<stop  offset="0" style="stop-color:#454344"/>
				<stop  offset="0.149" style="stop-color:#4D4E4D"/>
				<stop  offset="0.2353" style="stop-color:#949C9E"/>
				<stop  offset="0.302" style="stop-color:#EAECE8"/>
				<stop  offset="0.4431" style="stop-color:#3A4245"/>
				<stop  offset="0.5529" style="stop-color:#768B98"/>
				<stop  offset="0.6941" style="stop-color:#2F261D"/>
				<stop  offset="0.8235" style="stop-color:#31383D"/>
			</linearGradient>
			<path fill-rule="evenodd" clip-rule="evenodd" fill="url(#SVGID_25_)" d="M26.24,73.62l-2.15,2.55c-0.43-0.07-0.92-0.23-1.45-0.5
				c-0.47-0.13-0.93-0.23-1.4-0.3l-2.4-1.2c-1.7-0.83-3.25-1.77-4.65-2.8c-0.23-0.1-0.42-0.21-0.55-0.35l-0.25-0.3l0.45-3.6
				c0.37,0.3,0.75,0.63,1.15,1c1.43,1.1,3.2,2.17,5.3,3.2c2.1,1.07,4,1.82,5.7,2.25c0.07-0.03,0.1-0.03,0.1,0
				C26.16,73.57,26.21,73.58,26.24,73.62z"/>
			<linearGradient id="SVGID_26_" gradientUnits="userSpaceOnUse" x1="13.0151" y1="72.8584" x2="24.3021" y2="78.5095">
				<stop  offset="0" style="stop-color:#454344"/>
				<stop  offset="0.149" style="stop-color:#4D4E4D"/>
				<stop  offset="0.2353" style="stop-color:#949C9E"/>
				<stop  offset="0.302" style="stop-color:#EAECE8"/>
				<stop  offset="0.4431" style="stop-color:#3A4245"/>
				<stop  offset="0.5529" style="stop-color:#768B98"/>
				<stop  offset="0.6941" style="stop-color:#2F261D"/>
				<stop  offset="0.8235" style="stop-color:#31383D"/>
			</linearGradient>
			<path fill-rule="evenodd" clip-rule="evenodd" fill="url(#SVGID_26_)" d="M14.19,71.37c1.4,1.04,2.95,1.97,4.65,2.8l2.4,1.2
				c0.47,0.07,0.93,0.17,1.4,0.3l-0.75,1.55c-0.23,0.63-0.92,0.88-2.05,0.75c-0.07-0.03-0.27-0.08-0.6-0.15
				c-1.23-0.33-2.57-0.97-4-1.9c-0.17-0.17-0.33-0.33-0.5-0.5c-0.87-0.67-1.33-1.33-1.4-2L14.19,71.37z"/>
			<linearGradient id="SVGID_27_" gradientUnits="userSpaceOnUse" x1="11.9888" y1="65.875" x2="28.3704" y2="74.0558">
				<stop  offset="0" style="stop-color:#4B453D"/>
				<stop  offset="0.3451" style="stop-color:#B8AEA2"/>
				<stop  offset="0.4941" style="stop-color:#DCD6CD"/>
				<stop  offset="0.5882" style="stop-color:#CEC6BC"/>
				<stop  offset="0.7412" style="stop-color:#B4ADA3"/>
				<stop  offset="1" style="stop-color:#4A433E"/>
			</linearGradient>
			<polygon fill-rule="evenodd" clip-rule="evenodd" fill="url(#SVGID_27_)" points="28.29,73.97 28.34,73.92 28.34,74.02 
				28.14,74.07 			"/>
		</g>
	</g>
	<g>
		<path fill-rule="evenodd" clip-rule="evenodd" fill="#FF0000" d="M29.64,53.82l-2.15,3.85l0.75,0.4l-0.35,0.7l-0.75-0.45l-0.8,1.5
			l-0.55-0.35l0.75-1.4l-2.05-1.2l0.35-0.65l4.35-2.7L29.64,53.82z M28.44,54.67l-3,1.9l1.5,0.75L28.44,54.67z"/>
	</g>
</g>
<g>
	<g>
		<g>
			<g>
				
					<linearGradient id="SVGID_28_" gradientUnits="userSpaceOnUse" x1="48.8682" y1="76.4355" x2="70.0188" y2="76.4355" gradientTransform="matrix(1 -3.546077e-003 0 1 -1.571655e-003 -0.7631)">
					<stop  offset="0" style="stop-color:#222222"/>
					<stop  offset="0.5569" style="stop-color:#626262"/>
					<stop  offset="1" style="stop-color:#1A1A1A"/>
				</linearGradient>
				<path fill-rule="evenodd" clip-rule="evenodd" fill="url(#SVGID_28_)" d="M69.24,77.67c-0.1,0.03-0.22,0.05-0.35,0.05
					c-6.2,1.13-12.28,1.17-18.25,0.1c-0.17-0.03-0.33-0.07-0.5-0.1v-5.35c0.17,0.04,0.33,0.07,0.5,0.1c5.97,1.03,12.07,1,18.3-0.1
					c0.1-0.03,0.18-0.05,0.25-0.05L69.24,77.67z M52.14,73.27v3.95V73.27z M51.59,73.22l-0.05,3.95L51.59,73.22z M57.84,73.92
					l-0.05,3.95L57.84,73.92z M58.44,73.97l0.05,3.95L58.44,73.97z M55.29,73.72v3.9V73.72z M54.59,73.62l0.05,3.95L54.59,73.62z
					 M67.09,73.47l-0.05,4L67.09,73.47z M67.54,73.32l0.05,3.95L67.54,73.32z M61.39,73.92v4.05V73.92z M60.69,73.92v4.05V73.92z
					 M63.79,73.87v3.9V73.87z M64.34,73.77l-0.05,3.95L64.34,73.77z"/>
				
					<path fill-rule="evenodd" clip-rule="evenodd" fill="none" stroke="#FFFFFF" stroke-width="0.2" stroke-linecap="square" stroke-linejoin="round" stroke-miterlimit="3" stroke-opacity="0.0863" d="
					M52.14,73.27v3.95 M58.44,73.97l0.05,3.95 M55.29,73.72v3.9 M67.54,73.32l0.05,3.95 M61.39,73.92v4.05 M64.34,73.77l-0.05,3.95"
					/>
				
					<path fill-rule="evenodd" clip-rule="evenodd" fill="none" stroke="#000000" stroke-width="0.2" stroke-linecap="square" stroke-linejoin="round" stroke-miterlimit="3" d="
					M51.59,73.22l-0.05,3.95 M57.84,73.92l-0.05,3.95 M54.59,73.62l0.05,3.95 M67.09,73.47l-0.05,4 M60.69,73.92v4.05 M63.79,73.87
					v3.9"/>
			</g>
		</g>
		<g>
			<g>
				
					<linearGradient id="SVGID_29_" gradientUnits="userSpaceOnUse" x1="42.4751" y1="55.0156" x2="83.6273" y2="55.0156" gradientTransform="matrix(1 -1.822597e-003 -7.235924e-004 1 -0.1116 -0.3926)">
					<stop  offset="0" style="stop-color:#454344"/>
					<stop  offset="0.149" style="stop-color:#4D4E4D"/>
					<stop  offset="0.2353" style="stop-color:#949C9E"/>
					<stop  offset="0.302" style="stop-color:#EAECE8"/>
					<stop  offset="0.4431" style="stop-color:#3A4245"/>
					<stop  offset="0.5529" style="stop-color:#768B98"/>
					<stop  offset="0.6941" style="stop-color:#2F261D"/>
					<stop  offset="0.8235" style="stop-color:#31383D"/>
				</linearGradient>
				<path fill-rule="evenodd" clip-rule="evenodd" fill="url(#SVGID_29_)" d="M58.24,71.02c0.03-0.03,0.03-0.05,0-0.05l-0.05-0.03
					L58.24,71.02z M52.99,71.27l0.85,0.05l-0.85-0.1V71.27z M50.74,27.07l18.05,0.1l0.1,31.5v0.65l0.05,3.55v4.15l-0.05,1l0.05,4.35
					c-6.23,1.1-12.33,1.13-18.3,0.1v-0.25l-0.05-6.6l0.05-1.05v-4.15v-3.5v-0.65L50.74,27.07z M50.69,80.52h-0.1l0.05-2.7
					c5.97,1.07,12.05,1.03,18.25-0.1l0.05,3l-0.1-0.05c-0.3,0.17-0.65,0.28-1.05,0.35c-2.13,0.7-4.75,1.02-7.85,0.95
					c-3,0.07-5.57-0.2-7.7-0.8c-0.43-0.2-0.78-0.37-1.05-0.5C51.03,80.63,50.86,80.58,50.69,80.52z"/>
				<linearGradient id="SVGID_30_" gradientUnits="userSpaceOnUse" x1="50.708" y1="82.585" x2="68.9646" y2="82.9253">
					<stop  offset="0" style="stop-color:#888888"/>
					<stop  offset="0.298" style="stop-color:#FFFFFF"/>
					<stop  offset="0.5569" style="stop-color:#B3B3B3"/>
					<stop  offset="0.7529" style="stop-color:#E6E6E6"/>
					<stop  offset="0.8863" style="stop-color:#777777"/>
					<stop  offset="1" style="stop-color:#6A6A6A"/>
				</linearGradient>
				<path fill-rule="evenodd" clip-rule="evenodd" fill="url(#SVGID_30_)" d="M52.84,84.22l-0.15-0.1c-0.6-0.17-1.15-0.35-1.65-0.55
					c-0.1-0.1-0.22-0.2-0.35-0.3v-2.75c0.17,0.07,0.33,0.12,0.5,0.15c0.27,0.13,0.62,0.3,1.05,0.5c2.13,0.6,4.7,0.87,7.7,0.8
					c3.1,0.07,5.71-0.25,7.85-0.95c0.4-0.07,0.75-0.18,1.05-0.35v3.05l0.05,0.2c-0.23,0.03-0.47,0.1-0.7,0.2
					c-0.3,0.1-0.6,0.17-0.9,0.2l-0.1,0.05c-0.07,0-0.18,0.02-0.35,0.05h-0.15c-1.83,0.4-3.93,0.6-6.3,0.6c-2.3,0-4.3-0.18-6-0.55
					C53.79,84.37,53.28,84.28,52.84,84.22z"/>
				<linearGradient id="SVGID_31_" gradientUnits="userSpaceOnUse" x1="50.5903" y1="82.1563" x2="69.7664" y2="82.1242">
					<stop  offset="0" style="stop-color:#4B453D"/>
					<stop  offset="0.3451" style="stop-color:#B8AEA2"/>
					<stop  offset="0.4941" style="stop-color:#DCD6CD"/>
					<stop  offset="0.5882" style="stop-color:#CEC6BC"/>
					<stop  offset="0.7412" style="stop-color:#B4ADA3"/>
					<stop  offset="1" style="stop-color:#4A433E"/>
				</linearGradient>
				<path fill-rule="evenodd" clip-rule="evenodd" fill="url(#SVGID_31_)" d="M68.94,80.72v3.05l-0.1-0.05v-3.05L68.94,80.72z
					 M51.04,83.57c-0.13-0.03-0.23-0.1-0.3-0.2l-0.15-0.05v-2.8h0.1v2.75C50.83,83.37,50.94,83.47,51.04,83.57z"/>
				<linearGradient id="SVGID_32_" gradientUnits="userSpaceOnUse" x1="50.2021" y1="83.8877" x2="68.7808" y2="83.8168">
					<stop  offset="0" style="stop-color:#4B453D"/>
					<stop  offset="0.3451" style="stop-color:#B8AEA2"/>
					<stop  offset="0.4941" style="stop-color:#DCD6CD"/>
					<stop  offset="0.5882" style="stop-color:#CEC6BC"/>
					<stop  offset="0.7412" style="stop-color:#B4ADA3"/>
					<stop  offset="1" style="stop-color:#4A433E"/>
				</linearGradient>
				<polygon fill-rule="evenodd" clip-rule="evenodd" fill="url(#SVGID_32_)" points="68.94,83.77 68.94,83.92 68.89,83.92 
					68.84,83.72 				"/>
				<linearGradient id="SVGID_33_" gradientUnits="userSpaceOnUse" x1="54.6177" y1="89.5557" x2="67.269" y2="89.5781">
					<stop  offset="0" style="stop-color:#454344"/>
					<stop  offset="0.149" style="stop-color:#4D4E4D"/>
					<stop  offset="0.2353" style="stop-color:#949C9E"/>
					<stop  offset="0.302" style="stop-color:#EAECE8"/>
					<stop  offset="0.4431" style="stop-color:#3A4245"/>
					<stop  offset="0.5529" style="stop-color:#768B98"/>
					<stop  offset="0.6941" style="stop-color:#2F261D"/>
					<stop  offset="0.8235" style="stop-color:#31383D"/>
				</linearGradient>
				<path fill-rule="evenodd" clip-rule="evenodd" fill="url(#SVGID_33_)" d="M64.39,87.97l0.1,2.05c-0.2,0.27-0.55,0.5-1.05,0.7
					c-2.37,0.8-4.78,0.78-7.25-0.05c-0.53-0.17-0.87-0.37-1-0.6l-0.1-0.15v-2.1c1.63,0.23,3.42,0.33,5.35,0.3l2.65-0.05
					C63.56,88.03,63.99,88,64.39,87.97z"/>
				
					<linearGradient id="SVGID_34_" gradientUnits="userSpaceOnUse" x1="50.8511" y1="86.7559" x2="73.9511" y2="86.7559" gradientTransform="matrix(1 -2.164497e-003 -3.546142e-003 1 -0.5468 -0.4647)">
					<stop  offset="0" style="stop-color:#454344"/>
					<stop  offset="0.149" style="stop-color:#4D4E4D"/>
					<stop  offset="0.2353" style="stop-color:#949C9E"/>
					<stop  offset="0.302" style="stop-color:#EAECE8"/>
					<stop  offset="0.4431" style="stop-color:#3A4245"/>
					<stop  offset="0.5529" style="stop-color:#768B98"/>
					<stop  offset="0.6941" style="stop-color:#2F261D"/>
					<stop  offset="0.8235" style="stop-color:#31383D"/>
				</linearGradient>
				<path fill-rule="evenodd" clip-rule="evenodd" fill="url(#SVGID_34_)" d="M55.09,87.82c-0.33-0.1-0.8-0.3-1.4-0.6l-0.85-3
					c0.43,0.07,0.95,0.15,1.55,0.25c1.7,0.37,3.7,0.55,6,0.55c2.37,0,4.47-0.2,6.3-0.6h0.15l-0.8,3.25
					c-0.53,0.13-1.03,0.22-1.5,0.25c-0.07,0.07-0.12,0.08-0.15,0.05c-0.4,0.03-0.83,0.07-1.3,0.1l-2.65,0.05
					C58.51,88.15,56.73,88.05,55.09,87.82z"/>
			</g>
		</g>
		<g>
			<path fill-rule="evenodd" clip-rule="evenodd" fill="#FFFFFF" d="M60.39,63.92c0.4,0.57,0.62,1.48,0.65,2.75
				c0,1.13-0.17,2-0.5,2.6c-0.3,0.6-0.73,0.88-1.3,0.85c-0.53,0.04-0.97-0.21-1.3-0.75c-0.33-0.5-0.52-1.4-0.55-2.7
				c0-1.1,0.15-1.97,0.45-2.6c0.27-0.53,0.7-0.82,1.3-0.85C59.68,63.18,60.09,63.42,60.39,63.92z M59.14,63.92
				c-0.3-0.03-0.55,0.15-0.75,0.55c-0.23,0.37-0.33,1.12-0.3,2.25c0,1.07,0.1,1.78,0.3,2.15c0.27,0.43,0.55,0.62,0.85,0.55
				c0.3,0,0.55-0.18,0.75-0.55c0.23-0.37,0.33-1.1,0.3-2.2c0-1.1-0.1-1.85-0.3-2.25C59.76,64.08,59.48,63.92,59.14,63.92z
				 M64.69,63.82c0.4,0.6,0.62,1.52,0.65,2.75c0,1.17-0.15,2.05-0.45,2.65c-0.3,0.57-0.75,0.87-1.35,0.9
				c-0.53-0.03-0.97-0.32-1.3-0.85c-0.33-0.47-0.52-1.33-0.55-2.6c0-1.17,0.15-2.03,0.45-2.6c0.3-0.6,0.75-0.93,1.35-1
				C63.99,63.1,64.39,63.35,64.69,63.82z M62.74,64.47c-0.23,0.33-0.33,1.07-0.3,2.2c0,1.07,0.1,1.78,0.3,2.15
				c0.23,0.37,0.52,0.53,0.85,0.5c0.3,0.03,0.55-0.15,0.75-0.55c0.23-0.33,0.33-1.05,0.3-2.15c0-1.1-0.1-1.85-0.3-2.25
				c-0.23-0.37-0.53-0.53-0.9-0.5C63.18,63.87,62.94,64.07,62.74,64.47z M54.34,65.32c-0.27,0.17-0.52,0.3-0.75,0.4l0.05-0.8
				c0.37-0.2,0.68-0.47,0.95-0.8c0.3-0.3,0.5-0.6,0.6-0.9l0.45,0.05l0.1,6.8h-0.7l-0.05-5.3C54.83,64.9,54.61,65.08,54.34,65.32z"/>
		</g>
	</g>
</g>
<g>
	<g>
		<linearGradient id="SVGID_35_" gradientUnits="userSpaceOnUse" x1="19.3174" y1="22.2129" x2="108.7153" y2="33.8038">
			<stop  offset="0" style="stop-color:#A7B7C7"/>
			<stop  offset="0.1647" style="stop-color:#E6E9EE"/>
			<stop  offset="0.6275" style="stop-color:#FAFBFC"/>
			<stop  offset="1" style="stop-color:#ADB9C9"/>
		</linearGradient>
		<path fill-rule="evenodd" clip-rule="evenodd" fill="url(#SVGID_35_)" d="M105.24,37.42c-0.77,0.57-2.08,1.28-3.95,2.15
			c-7.43,3.43-18.93,5.63-34.5,6.6c-24.1-0.27-40.77-4.43-50-12.5c0.6-1.93,1.15-3.63,1.65-5.1c1.3-3.87,2.05-5.98,2.25-6.35
			c0.13-0.3,0.2-0.5,0.2-0.6l4.3-17.7l78.55,12.7L105.24,37.42z"/>
		<linearGradient id="SVGID_36_" gradientUnits="userSpaceOnUse" x1="15.7505" y1="41.2471" x2="103.0688" y2="52.8401">
			<stop  offset="0" style="stop-color:#222222"/>
			<stop  offset="0.0941" style="stop-color:#626262"/>
			<stop  offset="0.3176" style="stop-color:#2B2B2B"/>
			<stop  offset="0.6196" style="stop-color:#5E5E5E"/>
			<stop  offset="1" style="stop-color:#151515"/>
		</linearGradient>
		<path fill-rule="evenodd" clip-rule="evenodd" fill="url(#SVGID_36_)" d="M16.79,33.67c9.23,8.07,25.9,12.23,50,12.5
			c15.57-0.97,27.07-3.17,34.5-6.6c1.87-0.87,3.18-1.58,3.95-2.15l1,14.25c-6.33,4.4-17.77,7.73-34.3,10
			c-16.87,1.27-32.24-0.62-46.1-5.65c-3.13-1.2-5.32-2.2-6.55-3c-1.9-1.37-3.4-2.88-4.5-4.55L16.79,33.67z"/>
	</g>
</g>
<g>
	<g>
		<path fill-rule="evenodd" clip-rule="evenodd" fill="#FFFFFF" fill-opacity="0.0863" d="M23.44,40.52l-0.55,11.55
			c-0.13-0.07-0.28-0.13-0.45-0.2l0.55-11.55C23.13,40.42,23.28,40.48,23.44,40.52z M20.89,39.52l-0.6,11.35
			c-0.17-0.1-0.33-0.18-0.5-0.25l0.6-11.35C20.53,39.33,20.69,39.42,20.89,39.52z M18.44,38.42l-0.55,11.15
			c-0.17-0.1-0.32-0.17-0.45-0.2l0.5-11.15C18.11,38.28,18.28,38.35,18.44,38.42z M25.89,41.42l-0.6,11.75
			c-0.13-0.07-0.27-0.13-0.4-0.2l0.55-11.7C25.58,41.33,25.73,41.38,25.89,41.42z M33.79,43.97l-0.6,12.15
			c-0.13-0.07-0.28-0.13-0.45-0.2l0.55-12.05C33.46,43.93,33.63,43.97,33.79,43.97z M36.19,44.67l-0.6,12.15
			c-0.17-0.03-0.32-0.07-0.45-0.1l0.6-12.15C35.88,44.6,36.03,44.63,36.19,44.67z M31.09,43.22l-0.55,12
			c-0.13-0.07-0.28-0.12-0.45-0.15l0.6-12C30.83,43.1,30.96,43.15,31.09,43.22z M39.49,45.47l-0.6,12.25
			c-0.17-0.07-0.32-0.12-0.45-0.15l0.55-12.15C39.13,45.45,39.29,45.47,39.49,45.47z M41.94,46.07l-0.6,12.2
			c-0.17-0.07-0.33-0.1-0.5-0.1l0.6-12.25C41.61,45.95,41.78,46,41.94,46.07z M46.94,46.97l-0.55,12.25
			c-0.17-0.07-0.32-0.08-0.45-0.05l0.55-12.25C46.66,46.95,46.81,46.97,46.94,46.97z M44.54,46.52l-0.6,12.3
			c-0.17-0.07-0.33-0.1-0.5-0.1l0.65-12.25C44.23,46.5,44.38,46.52,44.54,46.52z M49.84,47.42l-0.55,12.15
			c-0.17,0-0.33-0.02-0.5-0.05l0.6-12.2C49.53,47.35,49.67,47.38,49.84,47.42z M52.29,47.72l-0.55,12.1c-0.17,0-0.33,0-0.5,0
			l0.6-12.15C52.01,47.67,52.16,47.68,52.29,47.72z M54.94,47.97l-0.55,12.05c-0.17,0-0.33,0-0.5,0l0.6-12.1
			C54.66,47.92,54.81,47.93,54.94,47.97z M57.44,48.17l-0.55,12c-0.2-0.03-0.37-0.03-0.5,0l0.55-12.05
			C57.11,48.12,57.27,48.13,57.44,48.17z M60.39,48.27l-0.55,11.95c-0.17,0-0.33-0.02-0.5-0.05l0.6-11.9
			C60.08,48.27,60.23,48.27,60.39,48.27z M65.54,48.32l-0.6,11.75c-0.13,0.03-0.29,0.05-0.45,0.05l0.55-11.75
			C65.21,48.33,65.38,48.32,65.54,48.32z M67.94,48.27l-0.5,11.6c-0.13,0.04-0.3,0.07-0.5,0.1l0.55-11.7
			C67.66,48.27,67.81,48.27,67.94,48.27z M62.84,48.32l-0.55,11.85c-0.17,0-0.32,0-0.45,0l0.55-11.85
			C62.53,48.32,62.68,48.32,62.84,48.32z M28.74,42.42l-0.65,11.9c-0.1-0.07-0.23-0.13-0.4-0.2l0.55-11.85
			C28.41,42.33,28.58,42.38,28.74,42.42z M70.89,48.12l-0.5,11.55c-0.2,0-0.38,0-0.55,0l0.6-11.55
			C70.58,48.12,70.73,48.12,70.89,48.12z M76.04,47.62l-0.5,11.35c-0.17,0.03-0.33,0.07-0.5,0.1l0.55-11.35
			C75.73,47.68,75.88,47.65,76.04,47.62z M73.39,47.87l-0.55,11.5c-0.2,0.04-0.37,0.05-0.5,0.05l0.55-11.45
			C73.03,47.97,73.19,47.93,73.39,47.87z M78.54,47.37l-0.55,11.25c-0.13,0-0.28,0.02-0.45,0.05l0.5-11.3
			C78.21,47.33,78.38,47.33,78.54,47.37z M81.79,46.77l-0.5,11.15c-0.13,0.03-0.28,0.07-0.45,0.1l0.55-11.1
			C81.53,46.85,81.66,46.8,81.79,46.77z M86.99,45.77l-0.5,11c-0.13,0.03-0.3,0.05-0.5,0.05l0.55-10.9
			C86.71,45.88,86.86,45.83,86.99,45.77z M84.39,46.37l-0.6,11c-0.13,0-0.3,0.04-0.5,0.1l0.55-11
			C84.01,46.4,84.19,46.37,84.39,46.37z M94.94,43.77l-0.5,10.65c-0.13,0.03-0.3,0.08-0.5,0.15l0.55-10.6
			C94.63,43.93,94.78,43.87,94.94,43.77z M97.69,43.02l-0.5,10.5c-0.2,0.03-0.37,0.08-0.5,0.15l0.5-10.5
			C97.36,43.1,97.53,43.05,97.69,43.02z M92.39,44.52l-0.45,10.65c-0.17,0.07-0.32,0.12-0.45,0.15l0.5-10.7
			C92.13,44.58,92.26,44.55,92.39,44.52z M102.94,41.22l-0.5,10.35c-0.17,0.03-0.32,0.08-0.45,0.15l0.45-10.3
			C102.61,41.32,102.78,41.25,102.94,41.22z M100.14,42.22l-0.5,10.45c-0.17,0-0.33,0.03-0.5,0.1l0.6-10.45
			C99.88,42.28,100.01,42.25,100.14,42.22z M104.54,50.72v-1.25l0.05,1.25H104.54z M89.49,45.22l-0.5,10.8
			c-0.13,0.07-0.3,0.12-0.5,0.15l0.55-10.8C89.21,45.33,89.36,45.28,89.49,45.22z"/>
		<path fill-rule="evenodd" clip-rule="evenodd" fill-opacity="0.298" d="M19.64,38.97l-0.6,11.25c-0.1-0.1-0.23-0.17-0.4-0.2
			l0.5-11.25C19.31,38.83,19.48,38.9,19.64,38.97z M22.29,40.07l-0.55,11.45c-0.17-0.07-0.33-0.13-0.5-0.2l0.55-11.45
			C21.93,39.93,22.09,40,22.29,40.07z M16.44,48.82l0.4-3.35l-0.15,3.5C16.63,48.9,16.54,48.85,16.44,48.82z M27.49,42.07
			l-0.55,11.8c-0.17-0.1-0.32-0.17-0.45-0.2l0.6-11.85C27.23,41.88,27.36,41.97,27.49,42.07z M23.69,52.47l0.5-11.65
			c0.17,0.03,0.32,0.08,0.45,0.15l-0.55,11.65C23.96,52.55,23.83,52.5,23.69,52.47z M38.29,45.22l-0.6,12.2
			c-0.17-0.07-0.33-0.12-0.5-0.15l0.6-12.2C37.96,45.1,38.13,45.15,38.29,45.22z M34.99,44.37l-0.55,12.1
			c-0.2-0.03-0.35-0.07-0.45-0.1l0.55-12.15C34.67,44.25,34.83,44.3,34.99,44.37z M29.94,42.87l-0.55,11.9
			c-0.17-0.03-0.32-0.08-0.45-0.15l0.55-11.9C29.63,42.75,29.78,42.8,29.94,42.87z M32.59,43.67l-0.6,12.05
			c-0.13-0.03-0.28-0.08-0.45-0.15l0.6-12.05C32.28,43.55,32.43,43.6,32.59,43.67z M40.69,45.77l-0.6,12.2
			c-0.13-0.03-0.28-0.07-0.45-0.1l0.6-12.15C40.38,45.72,40.53,45.73,40.69,45.77z M43.34,46.32l-0.65,12.2
			c-0.13-0.03-0.28-0.05-0.45-0.05l0.65-12.25C43.03,46.25,43.17,46.28,43.34,46.32z M45.79,46.82l-0.6,12.15
			c-0.17,0-0.32-0.02-0.45-0.05l0.6-12.2C45.44,46.72,45.59,46.75,45.79,46.82z M48.64,47.27l-0.6,12.2
			c-0.17-0.03-0.32-0.07-0.45-0.1l0.55-12.2C48.31,47.2,48.48,47.23,48.64,47.27z M56.19,48.02l-0.55,12.1c-0.17,0-0.33,0-0.5,0
			l0.6-12.1C55.91,48.05,56.06,48.05,56.19,48.02z M53.74,47.87l-0.6,12.1c-0.13,0-0.27-0.02-0.4-0.05l0.6-12.1
			C53.48,47.82,53.61,47.83,53.74,47.87z M51.09,47.52l-0.6,12.2c-0.13-0.03-0.28-0.03-0.45,0l0.6-12.2
			C50.78,47.55,50.92,47.55,51.09,47.52z M61.64,48.32l-0.6,11.85c-0.17,0.03-0.32,0.05-0.45,0.05l0.55-11.9
			C61.28,48.32,61.44,48.32,61.64,48.32z M66.79,48.32l-0.6,11.7c-0.13,0-0.29,0.02-0.45,0.05l0.6-11.75
			C66.48,48.32,66.63,48.32,66.79,48.32z M64.34,48.37l-0.6,11.75c-0.17,0-0.33,0.02-0.5,0.05l0.55-11.85
			C63.99,48.32,64.18,48.33,64.34,48.37z M59.19,48.22l-0.6,11.95c-0.17,0.03-0.33,0.03-0.5,0l0.6-11.95
			C58.89,48.22,59.06,48.22,59.19,48.22z M69.64,48.22l-0.5,11.55c-0.17,0-0.33,0.02-0.5,0.05l0.55-11.6
			C69.33,48.22,69.48,48.22,69.64,48.22z M74.84,47.72l-0.55,11.5c-0.17,0-0.33,0-0.5,0l0.55-11.4
			C74.51,47.78,74.68,47.75,74.84,47.72z M72.14,48.02l-0.55,11.5c-0.17,0-0.33,0.03-0.5,0.1l0.65-11.55
			C71.88,48.03,72.01,48.02,72.14,48.02z M77.29,47.47l-0.55,11.3c-0.13,0.03-0.27,0.05-0.4,0.05l0.45-11.3
			C76.96,47.52,77.13,47.5,77.29,47.47z M80.64,47.02l-0.55,11.15c-0.2,0.03-0.35,0.08-0.45,0.15l0.5-11.25
			C80.28,47.03,80.44,47.02,80.64,47.02z M85.74,46.07l-0.4,10.95c-0.2,0.07-0.38,0.12-0.55,0.15l0.55-11
			C85.51,46.17,85.64,46.13,85.74,46.07z M83.14,46.62l-0.6,11c-0.13,0.04-0.28,0.07-0.45,0.1l0.55-11.1
			C82.78,46.62,82.94,46.62,83.14,46.62z M88.34,45.52l-0.6,10.85c-0.13,0.04-0.28,0.08-0.45,0.15l0.55-10.85
			C87.98,45.6,88.14,45.55,88.34,45.52z M98.89,42.62l-0.5,10.45c-0.17,0.03-0.3,0.08-0.4,0.15l0.45-10.45
			C98.58,42.67,98.73,42.62,98.89,42.62z M96.39,43.37l-0.5,10.55c-0.13,0.07-0.3,0.12-0.5,0.15l0.55-10.55
			C96.11,43.48,96.26,43.43,96.39,43.37z M93.69,44.17l-0.5,10.65c-0.17,0-0.32,0.05-0.45,0.15l0.5-10.65
			C93.41,44.25,93.56,44.2,93.69,44.17z M91.24,44.82l-0.5,10.75c-0.17,0.07-0.35,0.12-0.55,0.15l0.55-10.75
			C90.91,44.9,91.08,44.85,91.24,44.82z M101.69,41.67l-0.45,10.35c-0.2,0.07-0.37,0.13-0.5,0.2l0.55-10.35
			c0.03-0.03,0.05-0.07,0.05-0.1C101.48,41.73,101.59,41.7,101.69,41.67z M103.29,51.22l0.45-10.3c0.17-0.03,0.32-0.08,0.45-0.15
			l0.05,0.5l-0.5,9.8C103.58,51.1,103.43,51.15,103.29,51.22z"/>
	</g>
</g>
</svg>
