<?xml version="1.0" encoding="utf-8"?>
<!-- Generator: Adobe Illustrator 16.0.0, SVG Export Plug-In . SVG Version: 6.00 Build 0)  -->
<!DOCTYPE svg PUBLIC "-//W3C//DTD SVG 1.1//EN" "http://www.w3.org/Graphics/SVG/1.1/DTD/svg11.dtd">
<svg version="1.1" id="Layer_1" xmlns="http://www.w3.org/2000/svg" xmlns:xlink="http://www.w3.org/1999/xlink" x="0px" y="0px"
	 width="81px" height="160.5px" viewBox="0 0 81 160.5" enable-background="new 0 0 81 160.5" xml:space="preserve">
<g>
	<g>
		<linearGradient id="SVGID_1_" gradientUnits="userSpaceOnUse" x1="34.8989" y1="81.043" x2="46.3816" y2="123.9659">
			<stop  offset="0" style="stop-color:#000000;stop-opacity:0.4314"/>
			<stop  offset="1" style="stop-color:#585858;stop-opacity:0"/>
		</linearGradient>
		<polygon fill-rule="evenodd" clip-rule="evenodd" fill="url(#SVGID_1_)" points="78.25,48.85 78.25,132.55 11.7,158.65 2.8,155.3 
			2.8,69.9 69.9,46.05 		"/>
	</g>
	<g>
		<g>
			<linearGradient id="SVGID_2_" gradientUnits="userSpaceOnUse" x1="2.7998" y1="15.7002" x2="78.25" y2="15.7002">
				<stop  offset="0" style="stop-color:#000000"/>
				<stop  offset="1" style="stop-color:#585858"/>
			</linearGradient>
			<polygon fill-rule="evenodd" clip-rule="evenodd" fill="url(#SVGID_2_)" points="11.7,30.1 2.8,25.1 69.9,1.3 78.25,4.05 			"/>
			<linearGradient id="SVGID_3_" gradientUnits="userSpaceOnUse" x1="2.7998" y1="15.7002" x2="78.25" y2="15.7002">
				<stop  offset="0" style="stop-color:#000000"/>
				<stop  offset="1" style="stop-color:#585858"/>
			</linearGradient>
			<polygon fill-rule="evenodd" clip-rule="evenodd" fill="url(#SVGID_3_)" points="11.7,30.1 2.8,25.1 69.9,1.3 78.25,4.05 			"/>
			<linearGradient id="SVGID_4_" gradientUnits="userSpaceOnUse" x1="7.25" y1="69.0752" x2="7.25" y2="-6.8748">
				<stop  offset="0" style="stop-color:#000000"/>
				<stop  offset="1" style="stop-color:#585858"/>
			</linearGradient>
			<polygon fill-rule="evenodd" clip-rule="evenodd" fill="url(#SVGID_4_)" points="2.8,25.1 11.7,30.1 11.7,113.8 2.8,110.5 			"/>
			<linearGradient id="SVGID_5_" gradientUnits="userSpaceOnUse" x1="7.25" y1="69.0752" x2="7.25" y2="-6.8748">
				<stop  offset="0" style="stop-color:#000000"/>
				<stop  offset="1" style="stop-color:#585858"/>
			</linearGradient>
			<polygon fill-rule="evenodd" clip-rule="evenodd" fill="url(#SVGID_5_)" points="2.8,25.1 11.7,30.1 11.7,113.8 2.8,110.5 			"/>
			<linearGradient id="SVGID_6_" gradientUnits="userSpaceOnUse" x1="-3.5552" y1="82.9385" x2="93.4255" y2="35">
				<stop  offset="0" style="stop-color:#000000"/>
				<stop  offset="1" style="stop-color:#585858"/>
			</linearGradient>
			<polygon fill-rule="evenodd" clip-rule="evenodd" fill="url(#SVGID_6_)" points="11.7,30.1 78.25,4.05 78.25,87.8 11.7,113.8 			
				"/>
			<linearGradient id="SVGID_7_" gradientUnits="userSpaceOnUse" x1="-3.5552" y1="82.9385" x2="93.4255" y2="35">
				<stop  offset="0" style="stop-color:#000000"/>
				<stop  offset="1" style="stop-color:#585858"/>
			</linearGradient>
			<polygon fill-rule="evenodd" clip-rule="evenodd" fill="url(#SVGID_7_)" points="11.7,30.1 78.25,4.05 78.25,87.8 11.7,113.8 			
				"/>
		</g>
	</g>
	<g>
		<polygon fill-rule="evenodd" clip-rule="evenodd" fill="#151515" points="33.05,33 58.15,24.3 58.15,78.3 33.05,89.2 		"/>
	</g>
</g>
</svg>
