<?xml version="1.0" encoding="utf-8"?>
<!-- Generator: Adobe Illustrator 16.0.0, SVG Export Plug-In . SVG Version: 6.00 Build 0)  -->
<!DOCTYPE svg PUBLIC "-//W3C//DTD SVG 1.1//EN" "http://www.w3.org/Graphics/SVG/1.1/DTD/svg11.dtd">
<svg version="1.1" id="Layer_2" xmlns="http://www.w3.org/2000/svg" xmlns:xlink="http://www.w3.org/1999/xlink" x="0px" y="0px"
	 width="31.583px" height="66.583px" viewBox="0 0 31.583 66.583" enable-background="new 0 0 31.583 66.583" xml:space="preserve">
<g>
	<g>
		<g>
			<polygon fill-rule="evenodd" clip-rule="evenodd" fill="#348F62" points="4.711,11.532 22.66,5.59 26.045,6.209 9.045,11.78 			
				"/>
			
				<linearGradient id="SVGID_1_" gradientUnits="userSpaceOnUse" x1="-204.4775" y1="-209.2368" x2="-157.9516" y2="-209.2368" gradientTransform="matrix(0.004 -0.8252 0.8255 -0.0521 182.2103 -130.4908)">
				<stop  offset="0" style="stop-color:#163F2B"/>
				<stop  offset="1" style="stop-color:#276D4B"/>
			</linearGradient>
			<polygon fill-rule="evenodd" clip-rule="evenodd" fill="url(#SVGID_1_)" points="9.045,11.78 9.002,34.681 12.758,58.366 
				4.711,58.036 4.711,11.532 			"/>
			<polygon fill-rule="evenodd" clip-rule="evenodd" fill="#184630" points="26.045,6.209 25.715,28.45 9.002,34.681 9.045,11.78 
							"/>
			
				<linearGradient id="SVGID_2_" gradientUnits="userSpaceOnUse" x1="-379.6997" y1="-120.6104" x2="-347.0115" y2="-120.6104" gradientTransform="matrix(0.3112 0.7643 -0.7496 0.3474 37.3532 351.8878)">
				<stop  offset="0" style="stop-color:#163F2B"/>
				<stop  offset="1" style="stop-color:#276D4B"/>
			</linearGradient>
			<polygon fill-rule="evenodd" clip-rule="evenodd" fill="url(#SVGID_2_)" points="9.002,34.681 25.715,28.45 30.213,51.309 
				12.758,58.366 			"/>
		</g>
	</g>
	<g>
		<path fill-rule="evenodd" clip-rule="evenodd" fill="#FFFFFF" d="M19.443,36.166c-0.359-0.055-0.689,0.028-0.99,0.248
			c-0.771,1.073-0.881,2.407-0.33,4.002c0.658,1.678,1.607,2.187,2.846,1.526c0.109-0.137,0.221-0.26,0.33-0.371
			c0.303-0.55,0.414-1.251,0.33-2.104c-0.027-0.522-0.123-1.004-0.289-1.444c-0.109-0.33-0.262-0.619-0.453-0.866
			C20.42,36.496,19.938,36.166,19.443,36.166z M22.043,37.61c0.164,0.578,0.273,1.169,0.33,1.775c0.109,1.1-0.098,2.036-0.619,2.805
			c-0.057,0.138-0.111,0.248-0.166,0.33c-0.191,0.221-0.371,0.386-0.537,0.496c-0.301,0.164-0.658,0.233-1.072,0.205
			c-0.715-0.082-1.375-0.535-1.98-1.361c-0.221-0.33-0.412-0.701-0.578-1.113c-0.303-0.578-0.467-1.197-0.494-1.857
			c-0.082-1.128,0.123-2.063,0.619-2.806c0.467-0.715,1.059-1.032,1.773-0.949c0.744,0.055,1.402,0.495,1.98,1.32
			C21.602,36.84,21.85,37.225,22.043,37.61z M20.227,45.574l1.238-0.288l0.949,5.157l-1.197,0.371L20.227,45.574z"/>
	</g>
	<g>
		<g>
			
				<linearGradient id="SVGID_3_" gradientUnits="userSpaceOnUse" x1="-331.3989" y1="-251.3364" x2="-313.0244" y2="-251.3364" gradientTransform="matrix(0.8253 0 0 0.8253 282.7498 216.4727)">
				<stop  offset="0" style="stop-color:#FEFEFE;stop-opacity:0"/>
				<stop  offset="0.5255" style="stop-color:#FEFEFE;stop-opacity:0.6"/>
				<stop  offset="1" style="stop-color:#FEFEFE;stop-opacity:0"/>
			</linearGradient>
			<path fill-rule="evenodd" clip-rule="evenodd" fill="url(#SVGID_3_)" d="M9.684,12.275c-0.152,0.04-0.303,0.026-0.453-0.042
				c-0.164-0.084-0.275-0.214-0.33-0.392v-0.021c-0.063-0.177-0.055-0.349,0.02-0.516c0.084-0.164,0.215-0.274,0.393-0.33
				l15.102-5.116c0.184-0.065,0.363-0.058,0.537,0.021c0.164,0.084,0.273,0.214,0.33,0.392c0.064,0.183,0.059,0.362-0.021,0.537
				c-0.084,0.164-0.215,0.274-0.391,0.33L9.766,12.254C9.742,12.263,9.715,12.27,9.684,12.275z"/>
			
				<linearGradient id="SVGID_4_" gradientUnits="userSpaceOnUse" x1="-328.6997" y1="-246.6411" x2="-334.0818" y2="-229.0928" gradientTransform="matrix(0.8253 0 0 0.8253 282.7498 216.4727)">
				<stop  offset="0" style="stop-color:#FEFEFE;stop-opacity:0"/>
				<stop  offset="0.5255" style="stop-color:#FEFEFE;stop-opacity:0.6"/>
				<stop  offset="1" style="stop-color:#FEFEFE;stop-opacity:0"/>
			</linearGradient>
			<path fill-rule="evenodd" clip-rule="evenodd" fill="url(#SVGID_4_)" d="M9.684,12.275c0.027,0.065,0.041,0.134,0.041,0.206
				l0.041,16.711c-0.002,0.185-0.07,0.343-0.205,0.475c-0.131,0.135-0.289,0.204-0.475,0.206c-0.186-0.002-0.344-0.07-0.475-0.206
				c-0.135-0.13-0.203-0.289-0.207-0.475L8.363,12.481c0.002-0.185,0.07-0.343,0.207-0.475c0.094-0.097,0.203-0.158,0.33-0.186
				v0.021c0.055,0.177,0.166,0.308,0.33,0.392C9.381,12.301,9.531,12.315,9.684,12.275z"/>
			
				<linearGradient id="SVGID_5_" gradientUnits="userSpaceOnUse" x1="-327.791" y1="-222.3911" x2="-330.4051" y2="-204.2427" gradientTransform="matrix(0.8253 0 0 0.8253 282.7498 216.4727)">
				<stop  offset="0" style="stop-color:#FEFEFE;stop-opacity:0"/>
				<stop  offset="0.5255" style="stop-color:#FEFEFE;stop-opacity:0.6"/>
				<stop  offset="1" style="stop-color:#FEFEFE;stop-opacity:0"/>
			</linearGradient>
			<path fill-rule="evenodd" clip-rule="evenodd" fill="url(#SVGID_5_)" d="M8.693,35.65c-0.029-0.181,0.012-0.346,0.125-0.495
				c0.113-0.158,0.264-0.254,0.453-0.289c0.182-0.029,0.346,0.012,0.494,0.124c0.158,0.114,0.254,0.265,0.289,0.454l2.6,16.505
				c0.029,0.181-0.012,0.347-0.123,0.495c-0.115,0.158-0.266,0.254-0.455,0.289c-0.18,0.029-0.346-0.013-0.494-0.123
				c-0.158-0.115-0.254-0.266-0.289-0.455L8.693,35.65z"/>
		</g>
	</g>
</g>
</svg>
