<?xml version="1.0" encoding="utf-8"?>
<!-- Generator: Adobe Illustrator 16.0.0, SVG Export Plug-In . SVG Version: 6.00 Build 0)  -->
<!DOCTYPE svg PUBLIC "-//W3C//DTD SVG 1.1//EN" "http://www.w3.org/Graphics/SVG/1.1/DTD/svg11.dtd">
<svg version="1.1" id="Layer_1" xmlns="http://www.w3.org/2000/svg" xmlns:xlink="http://www.w3.org/1999/xlink" x="0px" y="0px"
	 width="27.67px" height="24px" viewBox="0 0 27.67 24" enable-background="new 0 0 27.67 24" xml:space="preserve">
<g>
	<g>
		<linearGradient id="SVGID_1_" gradientUnits="userSpaceOnUse" x1="4.1831" y1="3.0249" x2="24.4581" y2="3.0249">
			<stop  offset="0" style="stop-color:#2F3A3E"/>
			<stop  offset="1" style="stop-color:#101518"/>
		</linearGradient>
		<path fill-rule="evenodd" clip-rule="evenodd" fill="url(#SVGID_1_)" d="M13.33,5.3C10.97,5.23,8.9,5,7.13,4.6
			C5.37,4.23,4.38,3.7,4.18,3C4.22,2.37,5.2,1.83,7.13,1.4c2-0.43,4.4-0.65,7.2-0.65s5.18,0.22,7.15,0.65
			c2.03,0.43,3.05,0.98,3.05,1.65l0.05,0.1c-0.33,0.6-1.37,1.08-3.1,1.45c-1.97,0.47-4.35,0.7-7.15,0.7C14,5.3,13.67,5.3,13.33,5.3z
			 M19.83,1.75c-1.47-0.37-3.23-0.55-5.3-0.55c-2.13,0-3.9,0.18-5.3,0.55s-2.13,0.8-2.2,1.3c0.07,0.53,0.8,0.98,2.2,1.35
			c0.73,0.17,1.53,0.32,2.4,0.45h5.7c0.93-0.13,1.77-0.28,2.5-0.45c1.37-0.37,2.1-0.82,2.2-1.35C21.93,2.55,21.2,2.12,19.83,1.75z"
			/>
		<linearGradient id="SVGID_2_" gradientUnits="userSpaceOnUse" x1="4.1831" y1="3.0249" x2="24.4581" y2="3.0249">
			<stop  offset="0" style="stop-color:#2F3A3E"/>
			<stop  offset="1" style="stop-color:#101518"/>
		</linearGradient>
		<path fill-rule="evenodd" clip-rule="evenodd" fill="url(#SVGID_2_)" d="M13.33,5.3C10.97,5.23,8.9,5,7.13,4.6
			C5.37,4.23,4.38,3.7,4.18,3C4.22,2.37,5.2,1.83,7.13,1.4c2-0.43,4.4-0.65,7.2-0.65s5.18,0.22,7.15,0.65
			c2.03,0.43,3.05,0.98,3.05,1.65l0.05,0.1c-0.33,0.6-1.37,1.08-3.1,1.45c-1.97,0.47-4.35,0.7-7.15,0.7C14,5.3,13.67,5.3,13.33,5.3z
			 M19.83,1.75c-1.47-0.37-3.23-0.55-5.3-0.55c-2.13,0-3.9,0.18-5.3,0.55s-2.13,0.8-2.2,1.3c0.07,0.53,0.8,0.98,2.2,1.35
			c0.73,0.17,1.53,0.32,2.4,0.45h5.7c0.93-0.13,1.77-0.28,2.5-0.45c1.37-0.37,2.1-0.82,2.2-1.35C21.93,2.55,21.2,2.12,19.83,1.75z"
			/>
		<path fill-rule="evenodd" clip-rule="evenodd" fill="#030706" d="M19.83,1.75c1.37,0.37,2.1,0.8,2.2,1.3
			c-0.1,0.53-0.83,0.98-2.2,1.35c-0.73,0.17-1.57,0.32-2.5,0.45h-5.7c-0.87-0.13-1.67-0.28-2.4-0.45c-1.4-0.37-2.13-0.82-2.2-1.35
			c0.07-0.5,0.8-0.93,2.2-1.3s3.17-0.55,5.3-0.55C16.6,1.2,18.37,1.38,19.83,1.75z"/>
		<path fill-rule="evenodd" clip-rule="evenodd" fill="#030706" d="M19.83,1.75c1.37,0.37,2.1,0.8,2.2,1.3
			c-0.1,0.53-0.83,0.98-2.2,1.35c-0.73,0.17-1.57,0.32-2.5,0.45h-5.7c-0.87-0.13-1.67-0.28-2.4-0.45c-1.4-0.37-2.13-0.82-2.2-1.35
			c0.07-0.5,0.8-0.93,2.2-1.3s3.17-0.55,5.3-0.55C16.6,1.2,18.37,1.38,19.83,1.75z"/>
		<linearGradient id="SVGID_3_" gradientUnits="userSpaceOnUse" x1="11.7197" y1="14.2559" x2="29.6211" y2="12.1924">
			<stop  offset="0" style="stop-color:#111B1D"/>
			<stop  offset="0.3451" style="stop-color:#0F191B"/>
			<stop  offset="0.5725" style="stop-color:#465864"/>
			<stop  offset="0.7216" style="stop-color:#0A1215"/>
			<stop  offset="1" style="stop-color:#182123"/>
		</linearGradient>
		<path fill-rule="evenodd" clip-rule="evenodd" fill="url(#SVGID_3_)" d="M14.13,23.2l-0.8-17.9c0.33,0,0.67,0,1,0
			c2.8,0,5.18-0.23,7.15-0.7c1.73-0.37,2.77-0.85,3.1-1.45L26.78,21C23.72,22.57,19.5,23.3,14.13,23.2z"/>
		<linearGradient id="SVGID_4_" gradientUnits="userSpaceOnUse" x1="11.7197" y1="14.2559" x2="29.6211" y2="12.1924">
			<stop  offset="0" style="stop-color:#111B1D"/>
			<stop  offset="0.3451" style="stop-color:#0F191B"/>
			<stop  offset="0.5725" style="stop-color:#465864"/>
			<stop  offset="0.7216" style="stop-color:#0A1215"/>
			<stop  offset="1" style="stop-color:#182123"/>
		</linearGradient>
		<path fill-rule="evenodd" clip-rule="evenodd" fill="url(#SVGID_4_)" d="M14.13,23.2l-0.8-17.9c0.33,0,0.67,0,1,0
			c2.8,0,5.18-0.23,7.15-0.7c1.73-0.37,2.77-0.85,3.1-1.45L26.78,21C23.72,22.57,19.5,23.3,14.13,23.2z"/>
		<linearGradient id="SVGID_5_" gradientUnits="userSpaceOnUse" x1="3.8574" y1="12.731" x2="31.9075" y2="14.8044">
			<stop  offset="0" style="stop-color:#111B1D"/>
			<stop  offset="0.1176" style="stop-color:#789BAF"/>
			<stop  offset="0.149" style="stop-color:#6B8B9D"/>
			<stop  offset="0.3059" style="stop-color:#0F191B"/>
			<stop  offset="0.7059" style="stop-color:#0A1215"/>
			<stop  offset="1" style="stop-color:#182123"/>
		</linearGradient>
		<path fill-rule="evenodd" clip-rule="evenodd" fill="url(#SVGID_5_)" d="M4.18,3c0.2,0.7,1.18,1.23,2.95,1.6
			c1.77,0.4,3.83,0.63,6.2,0.7l0.8,17.9c-7.57-0.33-11.98-1.27-13.25-2.8L4.18,3z"/>
		<linearGradient id="SVGID_6_" gradientUnits="userSpaceOnUse" x1="3.8574" y1="12.731" x2="31.9075" y2="14.8044">
			<stop  offset="0" style="stop-color:#111B1D"/>
			<stop  offset="0.1176" style="stop-color:#789BAF"/>
			<stop  offset="0.149" style="stop-color:#6B8B9D"/>
			<stop  offset="0.3059" style="stop-color:#0F191B"/>
			<stop  offset="0.7059" style="stop-color:#0A1215"/>
			<stop  offset="1" style="stop-color:#182123"/>
		</linearGradient>
		<path fill-rule="evenodd" clip-rule="evenodd" fill="url(#SVGID_6_)" d="M4.18,3c0.2,0.7,1.18,1.23,2.95,1.6
			c1.77,0.4,3.83,0.63,6.2,0.7l0.8,17.9c-7.57-0.33-11.98-1.27-13.25-2.8L4.18,3z"/>
	</g>
	<g>
		
			<linearGradient id="SVGID_7_" gradientUnits="userSpaceOnUse" x1="-15.0513" y1="3.5288" x2="12.5238" y2="3.5288" gradientTransform="matrix(1 -2.719845e-003 0.0164 1 3.9017 -0.6524)">
			<stop  offset="0" style="stop-color:#FAFAFA;stop-opacity:0"/>
			<stop  offset="0.5098" style="stop-color:#FFFFFF"/>
			<stop  offset="1" style="stop-color:#FEFEFE;stop-opacity:0"/>
		</linearGradient>
		<path fill-rule="evenodd" clip-rule="evenodd" fill="url(#SVGID_7_)" d="M16.73,3.35c-0.77,0.17-1.75,0.25-2.95,0.25
			c-1.17,0-2.17-0.08-3-0.25c-0.8-0.1-1.2-0.27-1.2-0.5s0.4-0.42,1.2-0.55c0.83-0.13,1.83-0.2,3-0.2c1.2,0,2.18,0.07,2.95,0.2
			c0.83,0.13,1.25,0.32,1.25,0.55S17.57,3.25,16.73,3.35z"/>
	</g>
	<g>
		<linearGradient id="SVGID_8_" gradientUnits="userSpaceOnUse" x1="6.0205" y1="2.2139" x2="18.8455" y2="2.2139">
			<stop  offset="0" style="stop-color:#FAFAFA;stop-opacity:0"/>
			<stop  offset="0.5725" style="stop-color:#FFFFFF"/>
			<stop  offset="1" style="stop-color:#FEFEFE;stop-opacity:0"/>
		</linearGradient>
		<path fill-rule="evenodd" clip-rule="evenodd" fill="url(#SVGID_8_)" d="M20.13,2.2c-0.07,0.03-0.12,0.07-0.15,0.1
			c-0.07,0-0.12,0-0.15,0c-0.23-0.07-0.47-0.13-0.7-0.2c-1.2-0.17-2.67-0.25-4.4-0.25c-1.73,0-3.07,0.08-4,0.25
			c-1,0.1-1.9,0.35-2.7,0.75l-0.05,0.1C7.92,2.88,7.87,2.83,7.83,2.8c-0.03-0.03-0.03-0.05,0-0.05c0-0.07,0.02-0.12,0.05-0.15
			c0.8-0.43,1.73-0.72,2.8-0.85C11.65,1.52,13,1.43,14.73,1.5c1.73-0.07,3.23,0.02,4.5,0.25c0.27,0,0.52,0.07,0.75,0.2
			c0.03,0,0.08,0.03,0.15,0.1C20.13,2.08,20.13,2.13,20.13,2.2z"/>
		
			<linearGradient id="SVGID_9_" gradientUnits="userSpaceOnUse" x1="-499.5044" y1="-479.1748" x2="-491.9294" y2="-479.1748" gradientTransform="matrix(-1 0 0 -1 -473.334 -476)">
			<stop  offset="0" style="stop-color:#FAFAFA;stop-opacity:0"/>
			<stop  offset="0.5725" style="stop-color:#FFFFFF;stop-opacity:0.502"/>
			<stop  offset="1" style="stop-color:#FEFEFE;stop-opacity:0"/>
		</linearGradient>
		<path fill-rule="evenodd" clip-rule="evenodd" fill="url(#SVGID_9_)" d="M20.53,2.1l0.15,0.1c1,0.37,1.43,0.73,1.3,1.1
			c-0.1,0.3-0.72,0.62-1.85,0.95h-0.25L19.83,3.9h0.2c0.93-0.23,1.47-0.47,1.6-0.7c0-0.23-0.37-0.47-1.1-0.7l-0.15-0.05L20.53,2.1z"
			/>
		<linearGradient id="SVGID_10_" gradientUnits="userSpaceOnUse" x1="7.8955" y1="4.5283" x2="19.4705" y2="4.5283">
			<stop  offset="0" style="stop-color:#FAFAFA;stop-opacity:0"/>
			<stop  offset="0.5098" style="stop-color:#FFFFFF"/>
			<stop  offset="1" style="stop-color:#FEFEFE;stop-opacity:0"/>
		</linearGradient>
		<path fill-rule="evenodd" clip-rule="evenodd" fill="url(#SVGID_10_)" d="M19.48,4.6c-0.03,0-0.08,0.02-0.15,0.05
			c-5.27,0.5-8.68,0.43-10.25-0.2C9.05,4.42,9.03,4.37,9.03,4.3c-0.07-0.03-0.07-0.07,0-0.1c0-0.07,0.02-0.1,0.05-0.1
			c0.03-0.03,0.08-0.03,0.15,0c1.57,0.6,4.93,0.67,10.1,0.2c0.07-0.03,0.12-0.03,0.15,0c0,0.07,0.02,0.12,0.05,0.15
			C19.53,4.48,19.52,4.53,19.48,4.6z"/>
	</g>
</g>
</svg>
