<?xml version="1.0" encoding="utf-8"?>
<!-- Generator: Adobe Illustrator 16.0.0, SVG Export Plug-In . SVG Version: 6.00 Build 0)  -->
<!DOCTYPE svg PUBLIC "-//W3C//DTD SVG 1.1//EN" "http://www.w3.org/Graphics/SVG/1.1/DTD/svg11.dtd">
<svg version="1.1" id="Layer_1" xmlns="http://www.w3.org/2000/svg" xmlns:xlink="http://www.w3.org/1999/xlink" x="0px" y="0px"
	 width="122.33px" height="27.08px" viewBox="0 0 122.33 27.08" enable-background="new 0 0 122.33 27.08" xml:space="preserve">
<g>
	
		<path fill-rule="evenodd" clip-rule="evenodd" fill="none" stroke="#292F2E" stroke-linecap="round" stroke-linejoin="round" stroke-miterlimit="3" stroke-opacity="0.251" d="
		M76.93,6.65l-0.15,2.5 M77.23,6.75l-0.1,2.55 M80.78,6.95v2.7 M81.13,6.9l0.05,2.65 M81.53,6.9l0.05,2.6"/>
	<g>
		<g>
			<g>
				<polygon fill-rule="evenodd" clip-rule="evenodd" fill="#9BB2C0" points="52.38,17.4 59.83,18.75 59.73,20.2 52.23,18.85 
					52.23,17.35 				"/>
				<polygon fill-rule="evenodd" clip-rule="evenodd" fill="#9BB2C0" points="52.38,17.4 59.83,18.75 59.73,20.2 52.23,18.85 
					52.23,17.35 				"/>
				<linearGradient id="SVGID_1_" gradientUnits="userSpaceOnUse" x1="-1495.8545" y1="14.5088" x2="763.0205" y2="14.5088">
					<stop  offset="0.0157" style="stop-color:#82958F"/>
					<stop  offset="0.2863" style="stop-color:#889B95"/>
					<stop  offset="0.5529" style="stop-color:#395153"/>
					<stop  offset="0.7882" style="stop-color:#A6BDBF"/>
					<stop  offset="1" style="stop-color:#758B89"/>
				</linearGradient>
				<path fill-rule="evenodd" clip-rule="evenodd" fill="url(#SVGID_1_)" d="M111.53,19.35c-2-0.5-3.85-0.92-5.55-1.25h-0.05
					c-6.53-1.2-11.07-1.2-13.6,0c-2.47,1.2-6.27,2.17-11.4,2.9c-1.53,0.23-3.15,0.45-4.85,0.65c-0.03,0-0.08,0-0.15,0
					c-4.23,0.43-9.47,0.88-15.7,1.35c-0.03,0-0.08,0-0.15,0c-3.57,0.23-7.47,0.48-11.7,0.75c-0.1,0-0.17,0-0.2,0
					c-1.9,0.13-3.87,0.25-5.9,0.35l-6.6-1.55c4.27-0.17,8.4-0.37,12.4-0.6c4.07-0.2,7.98-0.47,11.75-0.8c0.03,0,0.07,0,0.1,0
					c5.53-0.57,10.8-1.22,15.8-1.95c1.6-0.23,3.18-0.48,4.75-0.75l0.35-0.15c1.77-0.27,3.22-0.65,4.35-1.15
					c0.73-0.37,1.33-0.8,1.8-1.3l-8.15-1.6c-2.47-0.47-4.48-0.53-6.05-0.2l-12.95,4.7l-7.45-1.35l8.95-3.95l1.6-0.7
					c-5.27-1.67-8.47-2.18-9.6-1.55l5.4-5.9c28.07,0.9,48.7,3.72,61.9,8.45c-3.1,0.33-4.92,1.18-5.45,2.55
					c-1.17,0.47-2.27,1.42-3.3,2.85l-0.1,0.05L111.53,19.35z M30.38,7.55L16.03,12.4l-8.9-1.3l11.1-3.35l0.7-0.1l-0.15-1.2
					c-5.6,0.1-11.5,0.45-17.7,1.05l0.4-0.3l9.45-1.5l9.8-0.35c9.13-0.37,18.25-0.5,27.35-0.4l-5.85,3.5l0.75-1.15l-2.25,1.1
					L30.38,7.55z"/>
				<linearGradient id="SVGID_2_" gradientUnits="userSpaceOnUse" x1="-1495.8545" y1="14.5088" x2="763.0205" y2="14.5088">
					<stop  offset="0.0157" style="stop-color:#82958F"/>
					<stop  offset="0.2863" style="stop-color:#889B95"/>
					<stop  offset="0.5529" style="stop-color:#395153"/>
					<stop  offset="0.7882" style="stop-color:#A6BDBF"/>
					<stop  offset="1" style="stop-color:#758B89"/>
				</linearGradient>
				<path fill-rule="evenodd" clip-rule="evenodd" fill="url(#SVGID_2_)" d="M111.53,19.35c-2-0.5-3.85-0.92-5.55-1.25h-0.05
					c-6.53-1.2-11.07-1.2-13.6,0c-2.47,1.2-6.27,2.17-11.4,2.9c-1.53,0.23-3.15,0.45-4.85,0.65c-0.03,0-0.08,0-0.15,0
					c-4.23,0.43-9.47,0.88-15.7,1.35c-0.03,0-0.08,0-0.15,0c-3.57,0.23-7.47,0.48-11.7,0.75c-0.1,0-0.17,0-0.2,0
					c-1.9,0.13-3.87,0.25-5.9,0.35l-6.6-1.55c4.27-0.17,8.4-0.37,12.4-0.6c4.07-0.2,7.98-0.47,11.75-0.8c0.03,0,0.07,0,0.1,0
					c5.53-0.57,10.8-1.22,15.8-1.95c1.6-0.23,3.18-0.48,4.75-0.75l0.35-0.15c1.77-0.27,3.22-0.65,4.35-1.15
					c0.73-0.37,1.33-0.8,1.8-1.3l-8.15-1.6c-2.47-0.47-4.48-0.53-6.05-0.2l-12.95,4.7l-7.45-1.35l8.95-3.95l1.6-0.7
					c-5.27-1.67-8.47-2.18-9.6-1.55l5.4-5.9c28.07,0.9,48.7,3.72,61.9,8.45c-3.1,0.33-4.92,1.18-5.45,2.55
					c-1.17,0.47-2.27,1.42-3.3,2.85l-0.1,0.05L111.53,19.35z M30.38,7.55L16.03,12.4l-8.9-1.3l11.1-3.35l0.7-0.1l-0.15-1.2
					c-5.6,0.1-11.5,0.45-17.7,1.05l0.4-0.3l9.45-1.5l9.8-0.35c9.13-0.37,18.25-0.5,27.35-0.4l-5.85,3.5l0.75-1.15l-2.25,1.1
					L30.38,7.55z"/>
				<linearGradient id="SVGID_3_" gradientUnits="userSpaceOnUse" x1="59.7329" y1="17.021" x2="86.9834" y2="17.021">
					<stop  offset="0.0157" style="stop-color:#738987"/>
					<stop  offset="0.2118" style="stop-color:#94A7A6"/>
					<stop  offset="0.2863" style="stop-color:#BDCDCE"/>
					<stop  offset="0.4235" style="stop-color:#69888A"/>
					<stop  offset="0.5255" style="stop-color:#A5B8B8"/>
					<stop  offset="0.6471" style="stop-color:#6F8D8F"/>
					<stop  offset="0.7569" style="stop-color:#C5D3D3"/>
					<stop  offset="0.8353" style="stop-color:#A6BDBF"/>
					<stop  offset="1" style="stop-color:#758B89"/>
				</linearGradient>
				<path fill-rule="evenodd" clip-rule="evenodd" fill="url(#SVGID_3_)" d="M59.83,18.75l12.95-4.7c1.57-0.33,3.58-0.27,6.05,0.2
					l8.15,1.6c-0.47,0.5-1.07,0.93-1.8,1.3l-7.5-1.4c-1.03-0.2-2.78-0.2-5.25,0l-12.7,4.45L59.83,18.75z"/>
				<linearGradient id="SVGID_4_" gradientUnits="userSpaceOnUse" x1="59.7329" y1="17.021" x2="86.9834" y2="17.021">
					<stop  offset="0.0157" style="stop-color:#738987"/>
					<stop  offset="0.2118" style="stop-color:#94A7A6"/>
					<stop  offset="0.2863" style="stop-color:#BDCDCE"/>
					<stop  offset="0.4235" style="stop-color:#69888A"/>
					<stop  offset="0.5255" style="stop-color:#A5B8B8"/>
					<stop  offset="0.6471" style="stop-color:#6F8D8F"/>
					<stop  offset="0.7569" style="stop-color:#C5D3D3"/>
					<stop  offset="0.8353" style="stop-color:#A6BDBF"/>
					<stop  offset="1" style="stop-color:#758B89"/>
				</linearGradient>
				<path fill-rule="evenodd" clip-rule="evenodd" fill="url(#SVGID_4_)" d="M59.83,18.75l12.95-4.7c1.57-0.33,3.58-0.27,6.05,0.2
					l8.15,1.6c-0.47,0.5-1.07,0.93-1.8,1.3l-7.5-1.4c-1.03-0.2-2.78-0.2-5.25,0l-12.7,4.45L59.83,18.75z"/>
				<path fill-rule="evenodd" clip-rule="evenodd" fill="#DAE6E4" d="M42.28,10.25l0.45-0.6l10.6,1.55c1.13-0.63,4.33-0.12,9.6,1.55
					l-1.6,0.7L42.28,10.25z"/>
				<path fill-rule="evenodd" clip-rule="evenodd" fill="#DAE6E4" d="M42.28,10.25l0.45-0.6l10.6,1.55c1.13-0.63,4.33-0.12,9.6,1.55
					l-1.6,0.7L42.28,10.25z"/>
				<linearGradient id="SVGID_5_" gradientUnits="userSpaceOnUse" x1="48.6973" y1="12.48" x2="51.5454" y2="1.8612">
					<stop  offset="0.0314" style="stop-color:#90A3A1"/>
					<stop  offset="0.4902" style="stop-color:#63848B"/>
					<stop  offset="1" style="stop-color:#899D92"/>
				</linearGradient>
				<polygon fill-rule="evenodd" clip-rule="evenodd" fill="url(#SVGID_5_)" points="42.73,9.65 44.23,7.3 41.33,9.7 42.23,8.45 
					48.08,4.95 58.73,5.3 53.33,11.2 				"/>
				<linearGradient id="SVGID_6_" gradientUnits="userSpaceOnUse" x1="48.6973" y1="12.48" x2="51.5454" y2="1.8612">
					<stop  offset="0.0314" style="stop-color:#90A3A1"/>
					<stop  offset="0.4902" style="stop-color:#63848B"/>
					<stop  offset="1" style="stop-color:#899D92"/>
				</linearGradient>
				<polygon fill-rule="evenodd" clip-rule="evenodd" fill="url(#SVGID_6_)" points="42.73,9.65 44.23,7.3 41.33,9.7 42.23,8.45 
					48.08,4.95 58.73,5.3 53.33,11.2 				"/>
				<polygon fill-rule="evenodd" clip-rule="evenodd" fill="#395155" points="42.23,8.45 41.33,9.7 44.23,7.3 42.73,9.65 
					42.28,10.25 40.53,9.9 40.73,8.4 42.98,7.3 				"/>
				<polygon fill-rule="evenodd" clip-rule="evenodd" fill="#395155" points="42.23,8.45 41.33,9.7 44.23,7.3 42.73,9.65 
					42.28,10.25 40.53,9.9 40.73,8.4 42.98,7.3 				"/>
				<linearGradient id="SVGID_7_" gradientUnits="userSpaceOnUse" x1="29.4956" y1="8.7246" x2="35.5706" y2="8.7246">
					<stop  offset="0" style="stop-color:#D0E8EA"/>
					<stop  offset="1" style="stop-color:#9EB5C5"/>
				</linearGradient>
				<polygon fill-rule="evenodd" clip-rule="evenodd" fill="url(#SVGID_7_)" points="30.33,9.3 30.38,7.55 40.73,8.4 40.53,9.9 				
					"/>
				<linearGradient id="SVGID_8_" gradientUnits="userSpaceOnUse" x1="29.4956" y1="8.7246" x2="35.5706" y2="8.7246">
					<stop  offset="0" style="stop-color:#D0E8EA"/>
					<stop  offset="1" style="stop-color:#9EB5C5"/>
				</linearGradient>
				<polygon fill-rule="evenodd" clip-rule="evenodd" fill="url(#SVGID_8_)" points="30.33,9.3 30.38,7.55 40.73,8.4 40.53,9.9 				
					"/>
				<polygon fill-rule="evenodd" clip-rule="evenodd" fill="#273A41" points="16.03,12.4 30.38,7.55 30.33,9.3 15.78,14.4 
					15.78,12.45 				"/>
				<polygon fill-rule="evenodd" clip-rule="evenodd" fill="#273A41" points="16.03,12.4 30.38,7.55 30.33,9.3 15.78,14.4 
					15.78,12.45 				"/>
				<polygon fill-rule="evenodd" clip-rule="evenodd" fill="#AAB9C0" points="35.68,22.55 42.28,24.1 42.38,25.55 35.48,23.95 
					35.48,22.45 				"/>
				<polygon fill-rule="evenodd" clip-rule="evenodd" fill="#AAB9C0" points="35.68,22.55 42.28,24.1 42.38,25.55 35.48,23.95 
					35.48,22.45 				"/>
				<linearGradient id="SVGID_9_" gradientUnits="userSpaceOnUse" x1="42.2832" y1="21.375" x2="111.9834" y2="21.375">
					<stop  offset="0.0157" style="stop-color:#678897"/>
					<stop  offset="0.3608" style="stop-color:#B1CACE"/>
					<stop  offset="0.5804" style="stop-color:#9DB5B7"/>
					<stop  offset="0.6941" style="stop-color:#73919C"/>
					<stop  offset="0.7843" style="stop-color:#D1E0DE"/>
					<stop  offset="1" style="stop-color:#758B89"/>
				</linearGradient>
				<path fill-rule="evenodd" clip-rule="evenodd" fill="url(#SVGID_9_)" d="M105.98,18.1c1.7,0.33,3.55,0.75,5.55,1.25l0.45,2.05
					l-6.35-1.75c-6.13-1.03-10.47-0.88-13,0.45c-2.57,1.3-5.15,2.03-7.75,2.2c-2.93,0.43-5.85,0.8-8.75,1.1
					c-11.8,1.33-23.05,2.05-33.75,2.15l-0.1-1.45c2.03-0.1,4-0.22,5.9-0.35c0.03,0,0.1,0,0.2,0c4.23-0.27,8.13-0.52,11.7-0.75
					c0.07,0,0.12,0,0.15,0c6.23-0.47,11.47-0.92,15.7-1.35c0.07,0,0.12,0,0.15,0c1.7-0.2,3.32-0.42,4.85-0.65
					c5.13-0.73,8.93-1.7,11.4-2.9c2.53-1.2,7.07-1.2,13.6,0H105.98z"/>
				<linearGradient id="SVGID_10_" gradientUnits="userSpaceOnUse" x1="42.2832" y1="21.375" x2="111.9834" y2="21.375">
					<stop  offset="0.0157" style="stop-color:#678897"/>
					<stop  offset="0.3608" style="stop-color:#B1CACE"/>
					<stop  offset="0.5804" style="stop-color:#9DB5B7"/>
					<stop  offset="0.6941" style="stop-color:#73919C"/>
					<stop  offset="0.7843" style="stop-color:#D1E0DE"/>
					<stop  offset="1" style="stop-color:#758B89"/>
				</linearGradient>
				<path fill-rule="evenodd" clip-rule="evenodd" fill="url(#SVGID_10_)" d="M105.98,18.1c1.7,0.33,3.55,0.75,5.55,1.25l0.45,2.05
					l-6.35-1.75c-6.13-1.03-10.47-0.88-13,0.45c-2.57,1.3-5.15,2.03-7.75,2.2c-2.93,0.43-5.85,0.8-8.75,1.1
					c-11.8,1.33-23.05,2.05-33.75,2.15l-0.1-1.45c2.03-0.1,4-0.22,5.9-0.35c0.03,0,0.1,0,0.2,0c4.23-0.27,8.13-0.52,11.7-0.75
					c0.07,0,0.12,0,0.15,0c6.23-0.47,11.47-0.92,15.7-1.35c0.07,0,0.12,0,0.15,0c1.7-0.2,3.32-0.42,4.85-0.65
					c5.13-0.73,8.93-1.7,11.4-2.9c2.53-1.2,7.07-1.2,13.6,0H105.98z"/>
				<path fill-rule="evenodd" clip-rule="evenodd" fill="#617775" d="M115.18,16.3c0.53-1.37,2.35-2.22,5.45-2.55l-1.25,1.4
					c-0.73-0.03-1.22,0.25-1.45,0.85C117,15.77,116.08,15.87,115.18,16.3z"/>
				<path fill-rule="evenodd" clip-rule="evenodd" fill="#617775" d="M115.18,16.3c0.53-1.37,2.35-2.22,5.45-2.55l-1.25,1.4
					c-0.73-0.03-1.22,0.25-1.45,0.85C117,15.77,116.08,15.87,115.18,16.3z"/>
				<linearGradient id="SVGID_11_" gradientUnits="userSpaceOnUse" x1="111.5332" y1="18.6387" x2="119.9332" y2="18.6387">
					<stop  offset="0.0157" style="stop-color:#678897"/>
					<stop  offset="1" style="stop-color:#FAFCFC"/>
				</linearGradient>
				<path fill-rule="evenodd" clip-rule="evenodd" fill="url(#SVGID_11_)" d="M111.98,21.4l-0.45-2.05c0.03,0,0.07,0,0.1,0
					c0.07-0.03,0.12-0.08,0.15-0.15l0.1-0.05c1.03-1.43,2.13-2.38,3.3-2.85c0.9-0.43,1.82-0.53,2.75-0.3c0.17,0,0.37,0.03,0.6,0.1
					c1.4,0.47,1.73,1.07,1,1.8C116.7,17.17,114.18,18.33,111.98,21.4z"/>
				<linearGradient id="SVGID_12_" gradientUnits="userSpaceOnUse" x1="111.5332" y1="18.6387" x2="119.9332" y2="18.6387">
					<stop  offset="0.0157" style="stop-color:#678897"/>
					<stop  offset="1" style="stop-color:#FAFCFC"/>
				</linearGradient>
				<path fill-rule="evenodd" clip-rule="evenodd" fill="url(#SVGID_12_)" d="M111.98,21.4l-0.45-2.05c0.03,0,0.07,0,0.1,0
					c0.07-0.03,0.12-0.08,0.15-0.15l0.1-0.05c1.03-1.43,2.13-2.38,3.3-2.85c0.9-0.43,1.82-0.53,2.75-0.3c0.17,0,0.37,0.03,0.6,0.1
					c1.4,0.47,1.73,1.07,1,1.8C116.7,17.17,114.18,18.33,111.98,21.4z"/>
				<linearGradient id="SVGID_13_" gradientUnits="userSpaceOnUse" x1="5.2705" y1="12.75" x2="14.7955" y2="12.75">
					<stop  offset="0" style="stop-color:#5C94AB"/>
					<stop  offset="1" style="stop-color:#B4CBD9"/>
				</linearGradient>
				<polygon fill-rule="evenodd" clip-rule="evenodd" fill="url(#SVGID_13_)" points="7.13,11.1 16.03,12.4 15.78,12.45 15.78,14.4 
					7.13,12.95 				"/>
				<linearGradient id="SVGID_14_" gradientUnits="userSpaceOnUse" x1="5.2705" y1="12.75" x2="14.7955" y2="12.75">
					<stop  offset="0" style="stop-color:#5C94AB"/>
					<stop  offset="1" style="stop-color:#B4CBD9"/>
				</linearGradient>
				<polygon fill-rule="evenodd" clip-rule="evenodd" fill="url(#SVGID_14_)" points="7.13,11.1 16.03,12.4 15.78,12.45 15.78,14.4 
					7.13,12.95 				"/>
				<linearGradient id="SVGID_15_" gradientUnits="userSpaceOnUse" x1="1.0581" y1="7.6001" x2="18.9082" y2="7.6001">
					<stop  offset="0" style="stop-color:#B8CAD8"/>
					<stop  offset="1" style="stop-color:#4D7188"/>
					<stop  offset="1" style="stop-color:#B8CAD8"/>
				</linearGradient>
				<path fill-rule="evenodd" clip-rule="evenodd" fill="url(#SVGID_15_)" d="M1.08,7.5c6.2-0.6,12.1-0.95,17.7-1.05l0.15,1.2
					l-0.7,0.1c-3.53-0.07-9.25,0.27-17.15,1V7.5z"/>
				<linearGradient id="SVGID_16_" gradientUnits="userSpaceOnUse" x1="1.0581" y1="7.6001" x2="18.9082" y2="7.6001">
					<stop  offset="0" style="stop-color:#B8CAD8"/>
					<stop  offset="1" style="stop-color:#4D7188"/>
					<stop  offset="1" style="stop-color:#B8CAD8"/>
				</linearGradient>
				<path fill-rule="evenodd" clip-rule="evenodd" fill="url(#SVGID_16_)" d="M1.08,7.5c6.2-0.6,12.1-0.95,17.7-1.05l0.15,1.2
					l-0.7,0.1c-3.53-0.07-9.25,0.27-17.15,1V7.5z"/>
				
					<line fill-rule="evenodd" clip-rule="evenodd" fill="none" stroke="#DBEAEF" stroke-width="0.1" stroke-linecap="round" stroke-linejoin="round" stroke-miterlimit="3" x1="105.98" y1="18.1" x2="105.93" y2="18.1"/>
				
					<line fill-rule="evenodd" clip-rule="evenodd" fill="none" stroke="#DBEAEF" stroke-width="0.1" stroke-linecap="round" stroke-linejoin="round" stroke-miterlimit="3" x1="105.98" y1="18.1" x2="105.93" y2="18.1"/>
			</g>
		</g>
	</g>
	<g>
		<g>
			<linearGradient id="SVGID_17_" gradientUnits="userSpaceOnUse" x1="53.1831" y1="11.791" x2="59.3831" y2="11.791">
				<stop  offset="0.0157" style="stop-color:#678897;stop-opacity:0"/>
				<stop  offset="0.4863" style="stop-color:#63848B"/>
				<stop  offset="1" style="stop-color:#5A706E"/>
			</linearGradient>
			<path fill-rule="evenodd" clip-rule="evenodd" fill="url(#SVGID_17_)" d="M53.13,11.3c-0.03-0.07-0.03-0.12,0-0.15
				c0.73-0.77,4.02-0.33,9.85,1.3l0.05,0.1c0.07,0.03,0.1,0.07,0.1,0.1c-0.07,0-0.12,0.03-0.15,0.1l-0.05,0.05
				c-5.63-1.6-8.82-2.05-9.55-1.35c-0.03,0.03-0.07,0.05-0.1,0.05c-0.07,0-0.12-0.02-0.15-0.05C53.1,11.38,53.1,11.33,53.13,11.3z"
				/>
			<linearGradient id="SVGID_18_" gradientUnits="userSpaceOnUse" x1="60.5957" y1="16.3086" x2="93.2707" y2="16.3086">
				<stop  offset="0.0157" style="stop-color:#678897;stop-opacity:0"/>
				<stop  offset="0.4863" style="stop-color:#63848B"/>
				<stop  offset="1" style="stop-color:#5A706E;stop-opacity:0"/>
			</linearGradient>
			<path fill-rule="evenodd" clip-rule="evenodd" fill="url(#SVGID_18_)" d="M59.68,18.8c-0.07-0.03-0.07-0.08,0-0.15
				c0-0.03,0.02-0.05,0.05-0.05l12.95-4.7h0.1c1.57-0.37,3.62-0.3,6.15,0.2l8.1,1.6l0.1,0.05c0.03,0,0.05,0.03,0.05,0.1
				c0,0.03-0.02,0.08-0.05,0.15c-0.47,0.5-1.1,0.93-1.9,1.3c-0.03,0.03-0.07,0.05-0.1,0.05c-0.07-0.03-0.1-0.08-0.1-0.15
				c-0.03-0.03-0.03-0.07,0-0.1c0-0.07,0.03-0.1,0.1-0.1c0.6-0.3,1.1-0.63,1.5-1l-7.8-1.55c-2.47-0.47-4.47-0.53-6-0.2l-12.95,4.7
				c-0.03,0-0.08,0-0.15,0C59.7,18.88,59.68,18.83,59.68,18.8z"/>
			<linearGradient id="SVGID_19_" gradientUnits="userSpaceOnUse" x1="42.2578" y1="20.6748" x2="111.6078" y2="20.6748">
				<stop  offset="0.0157" style="stop-color:#678897;stop-opacity:0"/>
				<stop  offset="0.4863" style="stop-color:#63848B"/>
				<stop  offset="1" style="stop-color:#5A706E"/>
			</linearGradient>
			<path fill-rule="evenodd" clip-rule="evenodd" fill="url(#SVGID_19_)" d="M48.18,23.65c0.03,0,0.1,0,0.2,0
				c4.23-0.3,8.13-0.57,11.7-0.8c0.07,0,0.12,0,0.15,0c6.23-0.43,11.47-0.88,15.7-1.35c0.07,0,0.12,0,0.15,0
				c1.67-0.2,3.28-0.42,4.85-0.65c5.1-0.77,8.88-1.72,11.35-2.85c2.53-1.27,7.1-1.27,13.7,0c1.7,0.27,3.57,0.67,5.6,1.2l0.05,0.1
				c0.07,0,0.1,0.03,0.1,0.1c-0.07,0-0.1,0.03-0.1,0.1c-0.03,0.03-0.07,0.05-0.1,0.05c-2-0.5-3.87-0.92-5.6-1.25
				c-6.47-1.17-10.97-1.17-13.5,0c-2.5,1.2-6.32,2.17-11.45,2.9c-1.53,0.2-3.15,0.42-4.85,0.65h-0.05c-0.03,0-0.08,0-0.15,0
				c-4.23,0.47-9.47,0.92-15.7,1.35c-0.03,0-0.08,0-0.15,0c-3.57,0.23-7.47,0.48-11.7,0.75c-0.1,0-0.17,0-0.2,0
				c-1.9,0.17-3.87,0.28-5.9,0.35c-0.03,0-0.05-0.02-0.05-0.05c-0.03-0.03-0.05-0.08-0.05-0.15c-0.07-0.03-0.07-0.05,0-0.05
				c0.03-0.07,0.07-0.1,0.1-0.1C44.32,23.82,46.28,23.72,48.18,23.65z"/>
			<linearGradient id="SVGID_20_" gradientUnits="userSpaceOnUse" x1="15.9453" y1="10.6123" x2="30.2203" y2="10.6123">
				<stop  offset="0.0157" style="stop-color:#678897;stop-opacity:0"/>
				<stop  offset="0.4863" style="stop-color:#FFFFFF"/>
				<stop  offset="1" style="stop-color:#5A706E;stop-opacity:0"/>
			</linearGradient>
			<path fill-rule="evenodd" clip-rule="evenodd" fill="url(#SVGID_20_)" d="M26.93,8.75c0,0.03-0.02,0.08-0.05,0.15
				c0,0.03-0.03,0.07-0.1,0.1l-10.65,3.6c-0.07,0-0.12-0.02-0.15-0.05c-0.07,0-0.1-0.03-0.1-0.1c-0.03-0.03-0.03-0.08,0-0.15
				c0-0.03,0.03-0.05,0.1-0.05l10.65-3.6c0.07-0.03,0.12-0.03,0.15,0C26.85,8.65,26.9,8.68,26.93,8.75z"/>
		</g>
	</g>
	<g>
		<radialGradient id="SVGID_21_" cx="69.9326" cy="13.2998" r="13.6542" gradientUnits="userSpaceOnUse">
			<stop  offset="0" style="stop-color:#FFFFFF;stop-opacity:0.4431"/>
			<stop  offset="0.3333" style="stop-color:#FFFFFF;stop-opacity:0.1412"/>
			<stop  offset="1" style="stop-color:#FFFFFF;stop-opacity:0"/>
		</radialGradient>
		<path fill-rule="evenodd" clip-rule="evenodd" fill="url(#SVGID_21_)" d="M52.93,10.75l-7.4-1.3l4.5-3.55l8.25-0.4l-0.25-0.2
			c8.17,0.23,17.08,0.78,26.75,1.65c0.23,0,0.43,0,0.6,0c10.63,1.2,10.63,2.48,0,3.85c-2.97,0.87-7.15,1.85-12.55,2.95L62.48,17.2
			l-5.2-1.35l7-3.2C58.52,10.65,54.73,10.02,52.93,10.75z"/>
		<radialGradient id="SVGID_22_" cx="69.9326" cy="13.2998" r="13.6542" gradientUnits="userSpaceOnUse">
			<stop  offset="0" style="stop-color:#FFFFFF;stop-opacity:0.4431"/>
			<stop  offset="0.3333" style="stop-color:#FFFFFF;stop-opacity:0.1412"/>
			<stop  offset="1" style="stop-color:#FFFFFF;stop-opacity:0"/>
		</radialGradient>
		<path fill-rule="evenodd" clip-rule="evenodd" fill="url(#SVGID_22_)" d="M52.93,10.75l-7.4-1.3l4.5-3.55l8.25-0.4l-0.25-0.2
			c8.17,0.23,17.08,0.78,26.75,1.65c0.23,0,0.43,0,0.6,0c10.63,1.2,10.63,2.48,0,3.85c-2.97,0.87-7.15,1.85-12.55,2.95L62.48,17.2
			l-5.2-1.35l7-3.2C58.52,10.65,54.73,10.02,52.93,10.75z"/>
	</g>
	<g>
		<g>
			<linearGradient id="SVGID_23_" gradientUnits="userSpaceOnUse" x1="95.4805" y1="1.3779" x2="94.4032" y2="17.3312">
				<stop  offset="0" style="stop-color:#FFFFFF"/>
				<stop  offset="1" style="stop-color:#FFFFFF;stop-opacity:0"/>
			</linearGradient>
			<path fill-rule="evenodd" clip-rule="evenodd" fill="url(#SVGID_23_)" d="M94.53,13.65c2.13,0,3.92-0.18,5.35-0.55
				c1.03-0.2,1.77-0.43,2.2-0.7v6c-0.07,0.03-0.12,0.05-0.15,0.05c-0.73,0.43-1.68,0.78-2.85,1.05c-1.13,0.27-2.57,0.4-4.3,0.4
				c-1.8,0-3.35-0.17-4.65-0.5c-1.27-0.27-2.25-0.63-2.95-1.1c-0.1-0.03-0.17-0.07-0.2-0.1v-5.8c0.4,0.27,1.15,0.5,2.25,0.7
				C90.7,13.47,92.47,13.65,94.53,13.65z"/>
		</g>
		<g>
			<g>
				<linearGradient id="SVGID_24_" gradientUnits="userSpaceOnUse" x1="86.9834" y1="6.252" x2="102.083" y2="6.252">
					<stop  offset="0.0157" style="stop-color:#738987"/>
					<stop  offset="0.6275" style="stop-color:#AFC7C7"/>
					<stop  offset="1" style="stop-color:#BFCFCF"/>
				</linearGradient>
				<path fill-rule="evenodd" clip-rule="evenodd" fill="url(#SVGID_24_)" d="M87.03,6.25v-0.6c0.07-0.1,0.13-0.2,0.2-0.3
					c0.1,0.1,0.45,0.23,1.05,0.4c2.07,0.7,4.8,0.97,8.2,0.8c3.07-0.37,4.88-0.73,5.45-1.1c0.1,0.5,0.17,0.35,0.2-0.45v1.25
					c-0.01,0.23-0.81,0.48-2.4,0.75c-1.6,0.3-3.3,0.47-5.1,0.5s-3.57-0.15-5.3-0.55c-0.67-0.1-1.2-0.22-1.6-0.35
					C87.47,6.5,87.23,6.38,87.03,6.25z"/>
				<linearGradient id="SVGID_25_" gradientUnits="userSpaceOnUse" x1="87.6953" y1="4.6353" x2="101.3703" y2="4.6353">
					<stop  offset="0.0157" style="stop-color:#738987"/>
					<stop  offset="0.6275" style="stop-color:#A6BEBE"/>
					<stop  offset="1" style="stop-color:#BACBCC"/>
				</linearGradient>
				<path fill-rule="evenodd" clip-rule="evenodd" fill="url(#SVGID_25_)" d="M102.13,5c-0.03,0.8-0.1,0.95-0.2,0.45
					c-0.4-0.37-1.07-0.65-2-0.85c-1.47-0.33-3.23-0.5-5.3-0.5c-2.03,0-3.78,0.17-5.25,0.5h-0.05c-0.7,0.1-1.23,0.23-1.6,0.4
					c-0.23,0.13-0.4,0.25-0.5,0.35c-0.13-0.1-0.2-0.18-0.2-0.25V5c0-0.27,0.23-0.47,0.7-0.6c0.33-0.2,0.8-0.37,1.4-0.5
					c1.97-0.3,4.25-0.42,6.85-0.35c2.23,0.1,4.03,0.38,5.4,0.85C101.78,4.57,102.03,4.77,102.13,5z"/>
				<linearGradient id="SVGID_26_" gradientUnits="userSpaceOnUse" x1="86.9834" y1="9.4248" x2="102.083" y2="9.4248">
					<stop  offset="0.0157" style="stop-color:#738987"/>
					<stop  offset="0.302" style="stop-color:#AFC7C7"/>
					<stop  offset="0.5529" style="stop-color:#69888A"/>
					<stop  offset="0.7882" style="stop-color:#A6BDBF"/>
					<stop  offset="1" style="stop-color:#758B89"/>
				</linearGradient>
				<path fill-rule="evenodd" clip-rule="evenodd" fill="url(#SVGID_26_)" d="M87.03,5.65V5.1c0,0.07,0.07,0.15,0.2,0.25
					C87.17,5.45,87.1,5.55,87.03,5.65z M87.23,12.2c-0.07-0.07-0.13-0.12-0.2-0.15v-5.8c0.2,0.13,0.43,0.25,0.7,0.35
					c0.4,0.13,0.93,0.25,1.6,0.35c1.73,0.4,3.5,0.58,5.3,0.55s3.5-0.2,5.1-0.5c1.59-0.27,2.39-0.52,2.4-0.75v6
					c-0.03,0.03-0.08,0.05-0.15,0.05c-0.77,0.43-1.7,0.78-2.8,1.05c-1.2,0.27-2.67,0.4-4.4,0.4c-1.77,0-3.28-0.15-4.55-0.45
					C88.93,13,87.93,12.63,87.23,12.2z"/>
				<linearGradient id="SVGID_27_" gradientUnits="userSpaceOnUse" x1="90.3779" y1="5.3335" x2="100.4781" y2="5.371">
					<stop  offset="0.0157" style="stop-color:#738987"/>
					<stop  offset="0.5373" style="stop-color:#899F9E"/>
					<stop  offset="1" style="stop-color:#AFC7C7"/>
				</linearGradient>
				<path fill-rule="evenodd" clip-rule="evenodd" fill="url(#SVGID_27_)" d="M101.93,5.45c-0.57,0.37-2.38,0.73-5.45,1.1
					c-3.4,0.17-6.13-0.1-8.2-0.8c-0.6-0.17-0.95-0.3-1.05-0.4c0.1-0.1,0.27-0.22,0.5-0.35c0.37-0.17,0.9-0.3,1.6-0.4h0.05
					c1.47-0.33,3.22-0.5,5.25-0.5c2.07,0,3.83,0.17,5.3,0.5C100.87,4.8,101.53,5.08,101.93,5.45z"/>
				<path fill-rule="evenodd" clip-rule="evenodd" fill="#162625" d="M87.23,12.2c0.7,0.43,1.7,0.8,3,1.1
					c1.27,0.3,2.78,0.45,4.55,0.45c1.73,0,3.2-0.13,4.4-0.4c1.1-0.27,2.03-0.62,2.8-1.05c-0.77,0.77-2.1,1.33-4,1.7
					c-1.97,0.27-4.15,0.22-6.55-0.15c-2.27-0.33-3.75-0.88-4.45-1.65H87.23z"/>
			</g>
		</g>
	</g>
	<g>
		<g>
			
				<radialGradient id="SVGID_28_" cx="26.333" cy="6.3501" r="5.2907" gradientTransform="matrix(1 0 0 0.2151 0 4.984)" gradientUnits="userSpaceOnUse">
				<stop  offset="0" style="stop-color:#000000"/>
				<stop  offset="1" style="stop-color:#111111;stop-opacity:0"/>
			</radialGradient>
			<path fill-rule="evenodd" clip-rule="evenodd" fill="url(#SVGID_28_)" d="M31.53,7.45c-1.4,0.2-3.07,0.3-5,0.3
				c-2,0-3.68-0.1-5.05-0.3c-1.43-0.23-2.15-0.53-2.15-0.9c0-0.33,0.72-0.62,2.15-0.85c1.37-0.23,3.05-0.35,5.05-0.35
				c1.93,0,3.6,0.12,5,0.35c1.43,0.23,2.15,0.52,2.15,0.85C33.68,6.92,32.97,7.22,31.53,7.45z"/>
		</g>
		<g>
			
				<linearGradient id="SVGID_29_" gradientUnits="userSpaceOnUse" x1="-89.5708" y1="-391.3555" x2="-83.1099" y2="-391.3555" gradientTransform="matrix(-0.058 0.9983 -0.9968 -0.0838 -369.9207 59.0556)">
				<stop  offset="0" style="stop-color:#FFFFFF"/>
				<stop  offset="1" style="stop-color:#FFFFFF;stop-opacity:0"/>
			</linearGradient>
			<path fill-rule="evenodd" clip-rule="evenodd" fill="url(#SVGID_29_)" d="M23.53,8.95c-0.43-0.13-0.77-0.3-1-0.5
				c-0.07,0-0.1-0.02-0.1-0.05V6.05c0.17,0.13,0.43,0.23,0.8,0.3c0.53,0.13,1.15,0.2,1.85,0.2c0.73,0,1.35-0.07,1.85-0.2
				c0.37-0.07,0.65-0.17,0.85-0.3v2.4l-0.1,0.1c-0.27,0.17-0.62,0.3-1.05,0.4c-0.37,0.1-0.87,0.15-1.5,0.15
				C24.53,9.1,24,9.05,23.53,8.95z"/>
		</g>
		<g>
			<g>
				<linearGradient id="SVGID_30_" gradientUnits="userSpaceOnUse" x1="22.1831" y1="1.3398" x2="28.0831" y2="1.3398">
					<stop  offset="0.0157" style="stop-color:#738987"/>
					<stop  offset="0.6275" style="stop-color:#A6BEBE"/>
					<stop  offset="1" style="stop-color:#BACBCC"/>
				</linearGradient>
				<path fill-rule="evenodd" clip-rule="evenodd" fill="url(#SVGID_30_)" d="M21.98,1.65c-0.07-0.07-0.1-0.12-0.1-0.15
					c0-0.13,0.1-0.23,0.3-0.3c0.13-0.07,0.32-0.13,0.55-0.2c0.87-0.13,1.88-0.17,3.05-0.1c0.9,0.03,1.65,0.13,2.25,0.3
					c0.2,0.1,0.32,0.2,0.35,0.3c-0.03,0.33-0.05,0.4-0.05,0.2c-0.2-0.17-0.5-0.3-0.9-0.4c-0.67-0.13-1.43-0.2-2.3-0.2
					s-1.62,0.07-2.25,0.2c-0.3,0.03-0.53,0.1-0.7,0.2C22.08,1.53,22.02,1.58,21.98,1.65z"/>
				<linearGradient id="SVGID_31_" gradientUnits="userSpaceOnUse" x1="21.5205" y1="8.0161" x2="27.9193" y2="-3.1384">
					<stop  offset="0.0157" style="stop-color:#738987"/>
					<stop  offset="0.1333" style="stop-color:#94A7A3"/>
					<stop  offset="0.3608" style="stop-color:#FFFFFF"/>
					<stop  offset="0.5529" style="stop-color:#69888A"/>
					<stop  offset="0.7882" style="stop-color:#A6BDBF"/>
					<stop  offset="1" style="stop-color:#465351"/>
				</linearGradient>
				<path fill-rule="evenodd" clip-rule="evenodd" fill="url(#SVGID_31_)" d="M21.98,1.65c0.03-0.07,0.1-0.12,0.2-0.15
					c0.17-0.1,0.4-0.17,0.7-0.2c0.63-0.13,1.38-0.2,2.25-0.2s1.63,0.07,2.3,0.2c0.4,0.1,0.7,0.23,0.9,0.4
					c-0.3,0.13-1.08,0.27-2.35,0.4c-1.47,0.1-2.65,0.02-3.55-0.25C22.17,1.75,22.02,1.68,21.98,1.65z"/>
				<linearGradient id="SVGID_32_" gradientUnits="userSpaceOnUse" x1="21.8955" y1="2.0293" x2="28.3705" y2="2.0293">
					<stop  offset="0.0157" style="stop-color:#738987"/>
					<stop  offset="0.6275" style="stop-color:#AFC7C7"/>
					<stop  offset="1" style="stop-color:#BFCFCF"/>
				</linearGradient>
				<path fill-rule="evenodd" clip-rule="evenodd" fill="url(#SVGID_32_)" d="M28.38,2.05c0,0.1-0.35,0.22-1.05,0.35
					c-0.67,0.1-1.4,0.15-2.2,0.15c-0.77,0.03-1.52-0.03-2.25-0.2c-0.3-0.07-0.53-0.12-0.7-0.15c-0.1-0.07-0.2-0.12-0.3-0.15V1.8
					c0-0.07,0.04-0.12,0.1-0.15c0.03,0.03,0.18,0.1,0.45,0.2c0.9,0.27,2.08,0.35,3.55,0.25c1.27-0.13,2.05-0.27,2.35-0.4
					c0,0.2,0.02,0.13,0.05-0.2V2.05z"/>
				<linearGradient id="SVGID_33_" gradientUnits="userSpaceOnUse" x1="21.8955" y1="3.625" x2="28.3705" y2="3.625">
					<stop  offset="0.0157" style="stop-color:#738987"/>
					<stop  offset="0.1333" style="stop-color:#94A7A3"/>
					<stop  offset="0.3608" style="stop-color:#FFFFFF"/>
					<stop  offset="0.5529" style="stop-color:#69888A"/>
					<stop  offset="0.7882" style="stop-color:#A6BDBF"/>
					<stop  offset="1" style="stop-color:#465351"/>
				</linearGradient>
				<path fill-rule="evenodd" clip-rule="evenodd" fill="url(#SVGID_33_)" d="M21.88,4.55v-2.5c0.1,0.03,0.2,0.08,0.3,0.15
					c0.17,0.03,0.4,0.08,0.7,0.15c0.73,0.17,1.48,0.23,2.25,0.2c0.8,0,1.53-0.05,2.2-0.15c0.7-0.13,1.05-0.25,1.05-0.35V4.6
					c-0.2,0.1-0.38,0.2-0.55,0.3c-0.23,0.07-0.48,0.13-0.75,0.2c-0.5,0.07-1.12,0.1-1.85,0.1c-0.8,0-1.47-0.03-2-0.1
					c-0.3-0.1-0.57-0.2-0.8-0.3c-0.17-0.03-0.32-0.1-0.45-0.2L21.88,4.55z"/>
				<linearGradient id="SVGID_34_" gradientUnits="userSpaceOnUse" x1="21.8955" y1="1.6499" x2="28.3705" y2="1.6499">
					<stop  offset="0.0157" style="stop-color:#738987"/>
					<stop  offset="0.302" style="stop-color:#AFC7C7"/>
					<stop  offset="0.5529" style="stop-color:#69888A"/>
					<stop  offset="0.7882" style="stop-color:#A6BDBF"/>
					<stop  offset="1" style="stop-color:#758B89"/>
				</linearGradient>
				<path fill-rule="evenodd" clip-rule="evenodd" fill="url(#SVGID_34_)" d="M21.88,1.8V1.5c0,0.03,0.03,0.08,0.1,0.15
					C21.92,1.68,21.89,1.73,21.88,1.8z"/>
				<linearGradient id="SVGID_35_" gradientUnits="userSpaceOnUse" x1="22.4453" y1="5.7754" x2="27.8203" y2="5.7754">
					<stop  offset="0" style="stop-color:#2B3330"/>
					<stop  offset="0.1882" style="stop-color:#94A7A3"/>
					<stop  offset="0.3608" style="stop-color:#FFFFFF"/>
					<stop  offset="0.5529" style="stop-color:#2D3938"/>
					<stop  offset="0.7882" style="stop-color:#A6BDBF"/>
					<stop  offset="1" style="stop-color:#000000"/>
				</linearGradient>
				<path fill-rule="evenodd" clip-rule="evenodd" fill="url(#SVGID_35_)" d="M27.83,4.95V6.2c-1.53,0.53-3.33,0.53-5.4,0V4.95
					c0.33,0.13,0.78,0.25,1.35,0.35c1,0.13,1.93,0.15,2.8,0.05C27.08,5.25,27.5,5.12,27.83,4.95z"/>
				<path fill-rule="evenodd" clip-rule="evenodd" fill="#162625" d="M28.38,4.6c-0.13,0.13-0.32,0.25-0.55,0.35
					c-0.33,0.17-0.75,0.3-1.25,0.4c-0.87,0.1-1.8,0.08-2.8-0.05c-0.57-0.1-1.02-0.22-1.35-0.35c-0.27-0.1-0.45-0.23-0.55-0.4
					l0.1,0.05c0.13,0.1,0.28,0.17,0.45,0.2c0.23,0.1,0.5,0.2,0.8,0.3c0.53,0.07,1.2,0.1,2,0.1c0.73,0,1.35-0.03,1.85-0.1
					c0.27-0.07,0.52-0.13,0.75-0.2C28,4.8,28.18,4.7,28.38,4.6z"/>
			</g>
		</g>
		<g>
			
				<path fill-rule="evenodd" clip-rule="evenodd" fill="none" stroke="#292F2E" stroke-linecap="round" stroke-linejoin="round" stroke-miterlimit="3" stroke-opacity="0.251" d="
				M25.08,2.9V5 M25.43,2.9V5 M26.18,2.8V5 M26.53,2.8v2.15 M26.93,2.75V4.9 M27.98,2.45V4.6 M27.53,2.55v2.2 M25.83,2.8V5
				 M23.28,2.65V4.8 M22.58,2.45V4.6 M22.23,2.35v2.2 M23.63,2.75V4.9 M24.73,2.9V5 M22.93,2.55v2.2 M24.03,2.8v2.15 M24.38,2.8V5"
				/>
		</g>
	</g>
	<g>
		<g>
			
				<radialGradient id="SVGID_36_" cx="80.9326" cy="10.75" r="5.2875" gradientTransform="matrix(1 0 0 0.2151 0 8.4373)" gradientUnits="userSpaceOnUse">
				<stop  offset="0" style="stop-color:#000000"/>
				<stop  offset="1" style="stop-color:#111111;stop-opacity:0"/>
			</radialGradient>
			<path fill-rule="evenodd" clip-rule="evenodd" fill="url(#SVGID_36_)" d="M86.13,10.1c1.43,0.23,2.15,0.52,2.15,0.85
				c0,0.37-0.72,0.67-2.15,0.9c-1.4,0.23-3.07,0.35-5,0.35c-2,0-3.68-0.12-5.05-0.35c-1.43-0.23-2.15-0.53-2.15-0.9
				c0-0.33,0.72-0.62,2.15-0.85c1.37-0.23,3.05-0.35,5.05-0.35C83.07,9.75,84.73,9.87,86.13,10.1z"/>
		</g>
		<g>
			
				<linearGradient id="SVGID_37_" gradientUnits="userSpaceOnUse" x1="-89.7583" y1="-446.0938" x2="-83.2974" y2="-446.0938" gradientTransform="matrix(-0.058 0.9983 -0.9968 -0.0838 -369.9207 59.0556)">
				<stop  offset="0" style="stop-color:#FFFFFF"/>
				<stop  offset="1" style="stop-color:#FFFFFF;stop-opacity:0"/>
			</linearGradient>
			<path fill-rule="evenodd" clip-rule="evenodd" fill="url(#SVGID_37_)" d="M77.03,10.45c0.13,0.13,0.38,0.23,0.75,0.3
				c0.57,0.13,1.2,0.2,1.9,0.2c0.73,0,1.35-0.07,1.85-0.2c0.37-0.07,0.63-0.17,0.8-0.3v2.4l-0.05,0.1c-0.27,0.17-0.62,0.3-1.05,0.4
				c-0.37,0.1-0.87,0.15-1.5,0.15c-0.6,0-1.13-0.05-1.6-0.15c-0.43-0.13-0.77-0.3-1-0.5c-0.07,0-0.1-0.02-0.1-0.05V10.45z"/>
		</g>
		<g>
			<g>
				<linearGradient id="SVGID_38_" gradientUnits="userSpaceOnUse" x1="76.4951" y1="6.4292" x2="82.9701" y2="6.4292">
					<stop  offset="0.0157" style="stop-color:#738987"/>
					<stop  offset="0.6275" style="stop-color:#AFC7C7"/>
					<stop  offset="1" style="stop-color:#BFCFCF"/>
				</linearGradient>
				<path fill-rule="evenodd" clip-rule="evenodd" fill="url(#SVGID_38_)" d="M76.48,6.2c0-0.07,0.04-0.12,0.1-0.15
					c0.03,0.03,0.18,0.1,0.45,0.2c0.9,0.27,2.08,0.37,3.55,0.3c1.27-0.13,2.03-0.28,2.3-0.45c0,0.2,0.03,0.13,0.1-0.2v0.55
					c0,0.1-0.35,0.22-1.05,0.35c-0.67,0.1-1.4,0.15-2.2,0.15c-0.77,0.03-1.52-0.03-2.25-0.2c-0.3-0.07-0.53-0.12-0.7-0.15
					c-0.1-0.03-0.2-0.08-0.3-0.15V6.2z"/>
				<linearGradient id="SVGID_39_" gradientUnits="userSpaceOnUse" x1="76.7832" y1="5.7422" x2="82.6832" y2="5.7422">
					<stop  offset="0.0157" style="stop-color:#738987"/>
					<stop  offset="0.6275" style="stop-color:#A6BEBE"/>
					<stop  offset="1" style="stop-color:#BACBCC"/>
				</linearGradient>
				<path fill-rule="evenodd" clip-rule="evenodd" fill="url(#SVGID_39_)" d="M82.98,5.9c-0.07,0.33-0.1,0.4-0.1,0.2
					c-0.17-0.17-0.45-0.3-0.85-0.4c-0.67-0.13-1.43-0.2-2.3-0.2c-0.87,0-1.62,0.07-2.25,0.2c-0.3,0.03-0.53,0.1-0.7,0.2
					c-0.1,0.07-0.17,0.12-0.2,0.15c-0.06-0.03-0.1-0.08-0.1-0.15c0-0.13,0.1-0.22,0.3-0.25c0.13-0.1,0.32-0.17,0.55-0.2
					c0.87-0.17,1.87-0.22,3-0.15c0.93,0.03,1.7,0.15,2.3,0.35C82.8,5.72,82.92,5.8,82.98,5.9z"/>
				<linearGradient id="SVGID_40_" gradientUnits="userSpaceOnUse" x1="76.4951" y1="8.0498" x2="82.9701" y2="8.0498">
					<stop  offset="0.0157" style="stop-color:#738987"/>
					<stop  offset="0.1333" style="stop-color:#94A7A3"/>
					<stop  offset="0.3608" style="stop-color:#FFFFFF"/>
					<stop  offset="0.5529" style="stop-color:#69888A"/>
					<stop  offset="0.7882" style="stop-color:#A6BDBF"/>
					<stop  offset="1" style="stop-color:#465351"/>
				</linearGradient>
				<path fill-rule="evenodd" clip-rule="evenodd" fill="url(#SVGID_40_)" d="M76.48,8.95v-2.5c0.1,0.07,0.2,0.12,0.3,0.15
					c0.17,0.03,0.4,0.08,0.7,0.15c0.73,0.17,1.48,0.23,2.25,0.2c0.8,0,1.53-0.05,2.2-0.15c0.7-0.13,1.05-0.25,1.05-0.35V9
					c-0.2,0.1-0.38,0.2-0.55,0.3c-0.23,0.1-0.48,0.17-0.75,0.2c-0.5,0.1-1.13,0.15-1.9,0.15s-1.43-0.05-2-0.15
					c-0.27-0.1-0.52-0.2-0.75-0.3c-0.17-0.03-0.32-0.1-0.45-0.2L76.48,8.95z"/>
				<linearGradient id="SVGID_41_" gradientUnits="userSpaceOnUse" x1="76.1016" y1="12.4053" x2="82.5004" y2="1.2508">
					<stop  offset="0.0157" style="stop-color:#738987"/>
					<stop  offset="0.1333" style="stop-color:#94A7A3"/>
					<stop  offset="0.3608" style="stop-color:#FFFFFF"/>
					<stop  offset="0.5529" style="stop-color:#69888A"/>
					<stop  offset="0.7882" style="stop-color:#A6BDBF"/>
					<stop  offset="1" style="stop-color:#465351"/>
				</linearGradient>
				<path fill-rule="evenodd" clip-rule="evenodd" fill="url(#SVGID_41_)" d="M82.88,6.1c-0.27,0.17-1.03,0.32-2.3,0.45
					c-1.47,0.07-2.65-0.03-3.55-0.3c-0.27-0.1-0.42-0.17-0.45-0.2c0.03-0.03,0.1-0.08,0.2-0.15c0.17-0.1,0.4-0.17,0.7-0.2
					c0.63-0.13,1.38-0.2,2.25-0.2c0.87,0,1.63,0.07,2.3,0.2C82.43,5.8,82.72,5.93,82.88,6.1z"/>
				<path fill-rule="evenodd" clip-rule="evenodd" fill="#162625" d="M82.43,9.35c-0.33,0.2-0.75,0.33-1.25,0.4
					c-0.87,0.1-1.8,0.08-2.8-0.05c-0.57-0.1-1.02-0.22-1.35-0.35c-0.27-0.1-0.45-0.23-0.55-0.4L76.58,9c0.13,0.1,0.28,0.17,0.45,0.2
					c0.23,0.1,0.48,0.2,0.75,0.3c0.57,0.1,1.23,0.15,2,0.15s1.4-0.05,1.9-0.15c0.27-0.03,0.52-0.1,0.75-0.2
					c0.17-0.1,0.35-0.2,0.55-0.3C82.85,9.13,82.67,9.25,82.43,9.35z"/>
				<linearGradient id="SVGID_42_" gradientUnits="userSpaceOnUse" x1="77.0459" y1="10.1875" x2="82.4209" y2="10.1875">
					<stop  offset="0" style="stop-color:#2B3330"/>
					<stop  offset="0.1882" style="stop-color:#94A7A3"/>
					<stop  offset="0.3608" style="stop-color:#FFFFFF"/>
					<stop  offset="0.5529" style="stop-color:#2D3938"/>
					<stop  offset="0.7882" style="stop-color:#A6BDBF"/>
					<stop  offset="1" style="stop-color:#000000"/>
				</linearGradient>
				<path fill-rule="evenodd" clip-rule="evenodd" fill="url(#SVGID_42_)" d="M77.03,9.35c0.33,0.13,0.78,0.25,1.35,0.35
					c1,0.13,1.93,0.15,2.8,0.05c0.5-0.07,0.92-0.2,1.25-0.4v1.25c-1.53,0.57-3.33,0.57-5.4,0V9.35z"/>
				<linearGradient id="SVGID_43_" gradientUnits="userSpaceOnUse" x1="76.4951" y1="6.0498" x2="82.9701" y2="6.0498">
					<stop  offset="0.0157" style="stop-color:#738987"/>
					<stop  offset="0.302" style="stop-color:#AFC7C7"/>
					<stop  offset="0.5529" style="stop-color:#69888A"/>
					<stop  offset="0.7882" style="stop-color:#A6BDBF"/>
					<stop  offset="1" style="stop-color:#758B89"/>
				</linearGradient>
				<path fill-rule="evenodd" clip-rule="evenodd" fill="url(#SVGID_43_)" d="M76.58,6.05c-0.06,0.03-0.1,0.08-0.1,0.15V5.9
					C76.49,5.97,76.52,6.02,76.58,6.05z"/>
			</g>
		</g>
		<g>
			
				<path fill-rule="evenodd" clip-rule="evenodd" fill="none" stroke="#292F2E" stroke-linecap="round" stroke-linejoin="round" stroke-miterlimit="3" stroke-opacity="0.251" d="
				M82.58,6.9V9 M82.13,7.1v2.05 M80.78,7.2v2.25 M81.13,7.2v2.15 M81.53,7.15V9.3 M80.43,7.2v2.25 M80.03,7.3v2.15 M78.23,7.15V9.3
				 M77.88,7.1v2.1 M79.33,7.3v2.15 M78.98,7.2v2.25 M78.63,7.2v2.15 M79.68,7.3v2.15 M77.53,6.95v2.2 M76.83,6.75v2.2 M77.18,6.9V9
				"/>
		</g>
	</g>
</g>
</svg>
