<?xml version="1.0" encoding="utf-8"?>
<!-- Generator: Adobe Illustrator 16.0.0, SVG Export Plug-In . SVG Version: 6.00 Build 0)  -->
<!DOCTYPE svg PUBLIC "-//W3C//DTD SVG 1.1//EN" "http://www.w3.org/Graphics/SVG/1.1/DTD/svg11.dtd">
<svg version="1.1" id="Layer_1" xmlns="http://www.w3.org/2000/svg" xmlns:xlink="http://www.w3.org/1999/xlink" x="0px" y="0px"
	 width="38.83px" height="63.67px" viewBox="0 0 38.83 63.67" enable-background="new 0 0 38.83 63.67" xml:space="preserve">
<g>
	
		<linearGradient id="SVGID_1_" gradientUnits="userSpaceOnUse" x1="-235.8584" y1="-237.5068" x2="-233.4449" y2="-237.5068" gradientTransform="matrix(1.075 0.9007 -0.9296 1.0508 61.3923 469.0638)">
		<stop  offset="0.0157" style="stop-color:#FFFFFF;stop-opacity:0"/>
		<stop  offset="0.502" style="stop-color:#FFFFFF;stop-opacity:0.4627"/>
		<stop  offset="1" style="stop-color:#FFFFFF;stop-opacity:0"/>
	</linearGradient>
	<path fill-rule="evenodd" clip-rule="evenodd" fill="url(#SVGID_1_)" d="M30.82,7.5c0.05,0.69,0,1.4-0.14,2.14
		c-0.02,0.09-0.06,0.16-0.14,0.21c-0.05,0.03-0.09,0.05-0.14,0.07c-0.05,0.01-0.09,0.01-0.14,0c-0.09-0.02-0.16-0.06-0.21-0.14
		C29.99,9.7,29.97,9.6,29.98,9.5c0.14-0.67,0.18-1.31,0.14-1.93c-0.01-0.11,0.01-0.2,0.07-0.28c0.07-0.07,0.15-0.1,0.25-0.1
		c0.11-0.01,0.2,0.01,0.28,0.07C30.79,7.32,30.82,7.41,30.82,7.5z"/>
	
		<linearGradient id="SVGID_2_" gradientUnits="userSpaceOnUse" x1="-222.0928" y1="-235.5371" x2="-219.3965" y2="-233.2078" gradientTransform="matrix(1.4025 0 0 1.4025 340.254 337.539)">
		<stop  offset="0" style="stop-color:#000000;stop-opacity:0"/>
		<stop  offset="0.4941" style="stop-color:#000000"/>
		<stop  offset="1" style="stop-color:#000000;stop-opacity:0"/>
	</linearGradient>
	<path fill-rule="evenodd" clip-rule="evenodd" fill="url(#SVGID_2_)" d="M30.82,7.5c0.28,0.73,0.37,1.55,0.28,2.45
		c-0.01,0.1-0.06,0.18-0.14,0.25c-0.07,0.06-0.15,0.08-0.25,0.07c-0.1-0.01-0.18-0.06-0.25-0.14C30.42,10.07,30.4,10,30.4,9.92
		c0.05-0.02,0.09-0.04,0.14-0.07c0.08-0.05,0.12-0.12,0.14-0.21C30.83,8.91,30.87,8.19,30.82,7.5z"/>
	
		<linearGradient id="SVGID_3_" gradientUnits="userSpaceOnUse" x1="-218.6309" y1="-233.9155" x2="-217.8712" y2="-230.587" gradientTransform="matrix(1.4025 0 0 1.4025 340.254 337.539)">
		<stop  offset="0.0157" style="stop-color:#FFFFFF;stop-opacity:0"/>
		<stop  offset="0.502" style="stop-color:#FFFFFF;stop-opacity:0.4627"/>
		<stop  offset="1" style="stop-color:#FFFFFF;stop-opacity:0"/>
	</linearGradient>
	<path fill-rule="evenodd" clip-rule="evenodd" fill="url(#SVGID_3_)" d="M35.31,12.66c-0.02,0.07-0.05,0.12-0.11,0.18
		c-0.32,0.32-0.63,0.68-0.95,1.09c-0.06,0.08-0.15,0.13-0.25,0.14c-0.08,0.01-0.14,0-0.21-0.03l-0.04-0.04
		c-0.08-0.06-0.13-0.15-0.14-0.25c-0.01-0.09,0.01-0.17,0.07-0.25c0.32-0.41,0.64-0.77,0.95-1.09c0.03-0.03,0.05-0.05,0.07-0.07
		l0.04-0.04c0.07-0.05,0.14-0.07,0.21-0.07h0.07c0.07,0.01,0.13,0.05,0.17,0.11l0.04,0.03c0.04,0.07,0.07,0.14,0.07,0.21V12.66z"/>
	
		<linearGradient id="SVGID_4_" gradientUnits="userSpaceOnUse" x1="-243.5298" y1="-234.3438" x2="-238.4966" y2="-234.3438" gradientTransform="matrix(0.3204 1.3654 -1.3704 0.299 -209.4863 412.2857)">
		<stop  offset="0" style="stop-color:#000000;stop-opacity:0"/>
		<stop  offset="0.4941" style="stop-color:#000000"/>
		<stop  offset="1" style="stop-color:#000000;stop-opacity:0"/>
	</linearGradient>
	<path fill-rule="evenodd" clip-rule="evenodd" fill="url(#SVGID_4_)" d="M35.31,12.66c-0.16,0.78-0.49,1.4-1.02,1.86
		c-0.08,0.07-0.17,0.11-0.28,0.11c-0.09,0-0.16-0.04-0.21-0.11c-0.07-0.08-0.11-0.17-0.11-0.28c0-0.09,0.04-0.16,0.11-0.21
		c0.07,0.03,0.13,0.04,0.21,0.03c0.1-0.01,0.18-0.06,0.25-0.14c0.32-0.41,0.63-0.77,0.95-1.09C35.26,12.78,35.29,12.72,35.31,12.66z
		"/>
	
		<linearGradient id="SVGID_5_" gradientUnits="userSpaceOnUse" x1="-237.8906" y1="-237.0308" x2="-233.367" y2="-237.0308" gradientTransform="matrix(1.1936 0.7363 -0.7621 1.1777 125.4284 458.7732)">
		<stop  offset="0" style="stop-color:#000000;stop-opacity:0"/>
		<stop  offset="0.4941" style="stop-color:#000000"/>
		<stop  offset="1" style="stop-color:#000000;stop-opacity:0"/>
	</linearGradient>
	<path fill-rule="evenodd" clip-rule="evenodd" fill="url(#SVGID_5_)" d="M23.6,3.75c-0.06,0-0.12,0.03-0.18,0.07
		c-0.06,0.04-0.11,0.08-0.14,0.14c0.01-0.04,0.04-0.07,0.07-0.1C23.42,3.79,23.51,3.75,23.6,3.75z M23.25,4.1
		c0,0.06,0.03,0.12,0.07,0.18c0.01,0.02,0.03,0.05,0.04,0.07C23.29,4.28,23.25,4.2,23.25,4.1z M24.72,7.64
		c0.04-0.02,0.08-0.04,0.1-0.07c0.07-0.07,0.11-0.15,0.11-0.25c0-1.18-0.35-2.32-1.05-3.4c-0.04-0.06-0.08-0.11-0.14-0.14
		c0.04,0.01,0.07,0.04,0.11,0.07c1,1.05,1.53,2.28,1.58,3.68c0,0.09-0.04,0.18-0.11,0.25c-0.07,0.07-0.15,0.1-0.25,0.11
		c-0.09,0-0.18-0.04-0.25-0.11C24.78,7.74,24.75,7.7,24.72,7.64z"/>
	
		<linearGradient id="SVGID_6_" gradientUnits="userSpaceOnUse" x1="-238.1152" y1="-236.9746" x2="-235.0492" y2="-236.9746" gradientTransform="matrix(1.1893 0.7433 -0.7707 1.1721 122.5349 459.1669)">
		<stop  offset="0.0157" style="stop-color:#FFFFFF;stop-opacity:0"/>
		<stop  offset="0.502" style="stop-color:#FFFFFF;stop-opacity:0.4627"/>
		<stop  offset="1" style="stop-color:#FFFFFF;stop-opacity:0"/>
	</linearGradient>
	<path fill-rule="evenodd" clip-rule="evenodd" fill="url(#SVGID_6_)" d="M24.72,7.64c-0.04,0.02-0.08,0.04-0.14,0.04
		c-0.1,0-0.18-0.04-0.25-0.1c-0.07-0.07-0.1-0.15-0.11-0.25c0-1.04-0.29-2.03-0.88-2.98c-0.01-0.02-0.02-0.05-0.04-0.07
		c-0.04-0.06-0.07-0.12-0.07-0.18V4.03c0.01-0.02,0.02-0.05,0.04-0.07c0.03-0.06,0.08-0.1,0.14-0.14c0.06-0.04,0.12-0.07,0.18-0.07
		h0.07c0.02,0.01,0.05,0.02,0.07,0.04c0.06,0.03,0.11,0.08,0.14,0.14c0.7,1.08,1.05,2.22,1.05,3.4c0,0.1-0.04,0.18-0.11,0.25
		C24.8,7.6,24.76,7.63,24.72,7.64z"/>
	
		<linearGradient id="SVGID_7_" gradientUnits="userSpaceOnUse" x1="-236.981" y1="-235.4375" x2="-231.2076" y2="-235.4375" gradientTransform="matrix(1.3421 0.4069 -0.2867 1.3786 263.6461 426.4452)">
		<stop  offset="0" style="stop-color:#000000;stop-opacity:0"/>
		<stop  offset="0.4941" style="stop-color:#000000"/>
		<stop  offset="1" style="stop-color:#000000;stop-opacity:0"/>
	</linearGradient>
	<path fill-rule="evenodd" clip-rule="evenodd" fill="url(#SVGID_7_)" d="M18.83,8.38c0-0.08-0.02-0.15-0.07-0.21
		c-1.02-1.31-2.28-2.28-3.79-2.91L14.9,5.22c-0.01-0.03-0.01-0.06,0-0.1c0.03-0.09,0.09-0.16,0.18-0.21
		c0.09-0.05,0.18-0.06,0.28-0.04c0.5,0.15,0.92,0.33,1.26,0.53h-0.04c1.08,0.53,2.02,1.39,2.8,2.56c0.06,0.09,0.08,0.18,0.07,0.28
		c-0.02,0.09-0.06,0.16-0.14,0.21c-0.09,0.06-0.18,0.08-0.28,0.07C18.95,8.5,18.88,8.46,18.83,8.38z"/>
	
		<linearGradient id="SVGID_8_" gradientUnits="userSpaceOnUse" x1="-236.5596" y1="-235.1465" x2="-231.7824" y2="-235.1465" gradientTransform="matrix(1.3431 0.4037 -0.2906 1.3771 263.0325 425.3799)">
		<stop  offset="0.0157" style="stop-color:#FFFFFF;stop-opacity:0"/>
		<stop  offset="0.502" style="stop-color:#FFFFFF;stop-opacity:0.4627"/>
		<stop  offset="1" style="stop-color:#FFFFFF;stop-opacity:0"/>
	</linearGradient>
	<path fill-rule="evenodd" clip-rule="evenodd" fill="url(#SVGID_8_)" d="M18.83,8.38v0.04c-0.01,0.1-0.06,0.18-0.14,0.25
		c-0.07,0.06-0.15,0.08-0.25,0.07c-0.1-0.01-0.18-0.06-0.25-0.14c-0.94-1.21-2.11-2.11-3.51-2.7c-0.08-0.03-0.14-0.09-0.18-0.18
		c-0.04-0.09-0.04-0.19,0-0.28c0.03-0.08,0.09-0.14,0.18-0.18c0.07-0.03,0.14-0.04,0.21-0.04l0.07,0.04
		c1.51,0.63,2.77,1.6,3.79,2.91C18.81,8.23,18.84,8.3,18.83,8.38z"/>
	
		<linearGradient id="SVGID_9_" gradientUnits="userSpaceOnUse" x1="-226.4468" y1="-201.8291" x2="-220.9575" y2="-201.8291" gradientTransform="matrix(1.0475 -0.9325 0 1.8777 258.141 225.6496)">
		<stop  offset="0" style="stop-color:#000000;stop-opacity:0"/>
		<stop  offset="0.4941" style="stop-color:#000000"/>
		<stop  offset="1" style="stop-color:#000000;stop-opacity:0"/>
	</linearGradient>
	<path fill-rule="evenodd" clip-rule="evenodd" fill="url(#SVGID_9_)" d="M21.46,58.9l-0.04,0.04c-0.06,0.08-0.15,0.13-0.25,0.14
		c-0.09,0.01-0.17-0.01-0.25-0.07c-0.08-0.06-0.13-0.15-0.14-0.25c-0.01-0.09,0.01-0.17,0.07-0.25c0.85-1.08,1.41-2.27,1.68-3.58
		c0.03-0.09,0.09-0.16,0.17-0.21c0.08-0.06,0.16-0.08,0.25-0.07c0.09,0.03,0.16,0.09,0.21,0.18l0.04,0.04
		c-0.02,0.02-0.03,0.05-0.04,0.07c-0.22,1.04-0.78,2.27-1.68,3.68c-0.06,0.08-0.08,0.16-0.07,0.25L21.46,58.9z"/>
	
		<linearGradient id="SVGID_10_" gradientUnits="userSpaceOnUse" x1="-225.5767" y1="-201.5146" x2="-220.0874" y2="-201.5146" gradientTransform="matrix(1.0475 -0.9325 0 1.8777 258.141 225.6496)">
		<stop  offset="0.0157" style="stop-color:#FFFFFF;stop-opacity:0"/>
		<stop  offset="0.502" style="stop-color:#FFFFFF;stop-opacity:0.4627"/>
		<stop  offset="1" style="stop-color:#FFFFFF;stop-opacity:0"/>
	</linearGradient>
	<path fill-rule="evenodd" clip-rule="evenodd" fill="url(#SVGID_10_)" d="M21.46,58.9l-0.04-0.04c-0.01-0.09,0.01-0.17,0.07-0.25
		c0.9-1.41,1.46-2.64,1.68-3.68c0.01-0.02,0.02-0.05,0.04-0.07c0.03-0.06,0.07-0.1,0.14-0.14c0.08-0.06,0.16-0.08,0.25-0.07
		c0.09,0.03,0.16,0.09,0.21,0.18c0.06,0.08,0.08,0.16,0.07,0.25c-0.25,1.11-0.85,2.4-1.82,3.89c-0.05,0.09-0.12,0.15-0.21,0.17
		c-0.09,0.01-0.17-0.01-0.25-0.07C21.53,59.04,21.48,58.98,21.46,58.9z"/>
	
		<linearGradient id="SVGID_11_" gradientUnits="userSpaceOnUse" x1="-233.4302" y1="-202.7979" x2="-229.1348" y2="-202.7979" gradientTransform="matrix(1.3713 -0.2939 0 1.4343 333.0519 276.5164)">
		<stop  offset="0" style="stop-color:#000000;stop-opacity:0"/>
		<stop  offset="0.4941" style="stop-color:#000000"/>
		<stop  offset="1" style="stop-color:#000000;stop-opacity:0"/>
	</linearGradient>
	<path fill-rule="evenodd" clip-rule="evenodd" fill="url(#SVGID_11_)" d="M16.34,52.7c-0.06,0.03-0.12,0.08-0.18,0.14
		c-0.55,0.67-1.7,1.52-3.47,2.56c-0.09,0.06-0.15,0.14-0.18,0.25v0.07c-0.06,0-0.12-0.01-0.18-0.04c-0.1-0.03-0.17-0.09-0.21-0.17
		c-0.04-0.08-0.04-0.16,0-0.25c0.03-0.1,0.09-0.17,0.18-0.21c1.64-0.76,2.78-1.65,3.4-2.67c0.06-0.09,0.14-0.15,0.25-0.17
		c0.09-0.02,0.17-0.01,0.25,0.04c0.09,0.06,0.15,0.14,0.18,0.25C16.4,52.57,16.39,52.64,16.34,52.7z"/>
	
		<linearGradient id="SVGID_12_" gradientUnits="userSpaceOnUse" x1="-233.021" y1="-202.4409" x2="-228.7256" y2="-202.4409" gradientTransform="matrix(1.3713 -0.2939 0 1.4343 333.0519 276.5164)">
		<stop  offset="0.0157" style="stop-color:#FFFFFF;stop-opacity:0"/>
		<stop  offset="0.502" style="stop-color:#FFFFFF;stop-opacity:0.4627"/>
		<stop  offset="1" style="stop-color:#FFFFFF;stop-opacity:0"/>
	</linearGradient>
	<path fill-rule="evenodd" clip-rule="evenodd" fill="url(#SVGID_12_)" d="M16.34,52.7h0.07c0.09-0.01,0.17,0.01,0.25,0.07
		c0.08,0.06,0.13,0.15,0.14,0.25c0.01,0.09-0.01,0.17-0.07,0.25c-0.58,0.73-1.8,1.66-3.68,2.77c-0.08,0.05-0.16,0.06-0.25,0.04
		c-0.1-0.03-0.19-0.09-0.25-0.17c-0.04-0.06-0.05-0.12-0.03-0.18v-0.07c0.03-0.1,0.09-0.19,0.18-0.25c1.77-1.04,2.93-1.89,3.47-2.56
		C16.22,52.77,16.28,52.73,16.34,52.7z"/>
	
		<linearGradient id="SVGID_13_" gradientUnits="userSpaceOnUse" x1="-240.4043" y1="-231.3447" x2="-234.6576" y2="-231.3447" gradientTransform="matrix(1.3789 0.2562 -0.2857 1.3734 272.3743 390.4646)">
		<stop  offset="0" style="stop-color:#000000;stop-opacity:0"/>
		<stop  offset="0.4941" style="stop-color:#000000"/>
		<stop  offset="1" style="stop-color:#000000;stop-opacity:0"/>
	</linearGradient>
	<path fill-rule="evenodd" clip-rule="evenodd" fill="url(#SVGID_13_)" d="M13.4,13.57c0.02-0.03,0.03-0.06,0.04-0.11
		c0.01-0.09-0.01-0.17-0.07-0.25c-0.68-0.85-2.03-1.6-4.03-2.24c-0.03-0.01-0.07-0.01-0.11,0c-0.04-0.04-0.08-0.09-0.1-0.14
		c-0.04-0.08-0.04-0.16,0-0.25c0.03-0.09,0.09-0.17,0.18-0.21c0.08-0.04,0.16-0.04,0.25,0c2.22,0.78,3.62,1.67,4.21,2.66
		c0.05,0.08,0.06,0.16,0.04,0.25c-0.03,0.1-0.09,0.19-0.18,0.25C13.54,13.58,13.47,13.59,13.4,13.57z"/>
	
		<linearGradient id="SVGID_14_" gradientUnits="userSpaceOnUse" x1="-240.6655" y1="-231.0195" x2="-235.0708" y2="-231.0195" gradientTransform="matrix(1.3787 0.2569 -0.2851 1.3735 272.4756 390.6477)">
		<stop  offset="0.0157" style="stop-color:#FFFFFF;stop-opacity:0"/>
		<stop  offset="0.502" style="stop-color:#FFFFFF;stop-opacity:0.4627"/>
		<stop  offset="1" style="stop-color:#FFFFFF;stop-opacity:0"/>
	</linearGradient>
	<path fill-rule="evenodd" clip-rule="evenodd" fill="url(#SVGID_14_)" d="M13.4,13.57c-0.02,0.06-0.06,0.1-0.1,0.14
		c-0.07,0.06-0.15,0.08-0.25,0.07c-0.1-0.01-0.18-0.06-0.25-0.14c-0.63-0.74-1.85-1.39-3.68-1.96c-0.09-0.03-0.16-0.09-0.21-0.18
		c-0.05-0.09-0.06-0.18-0.04-0.28c0.03-0.09,0.09-0.16,0.18-0.21c0.06-0.03,0.12-0.04,0.18-0.03c0.04-0.01,0.07-0.01,0.11,0
		c2.01,0.65,3.35,1.39,4.03,2.24c0.06,0.07,0.08,0.15,0.07,0.25C13.43,13.5,13.42,13.54,13.4,13.57z"/>
	
		<linearGradient id="SVGID_15_" gradientUnits="userSpaceOnUse" x1="-241.6846" y1="-225.3613" x2="-236.3448" y2="-225.3613" gradientTransform="matrix(1.3789 0.2561 -0.2796 1.3745 273.714 390.6738)">
		<stop  offset="0.0157" style="stop-color:#FFFFFF;stop-opacity:0"/>
		<stop  offset="0.502" style="stop-color:#FFFFFF;stop-opacity:0.4627"/>
		<stop  offset="1" style="stop-color:#FFFFFF;stop-opacity:0"/>
	</linearGradient>
	<path fill-rule="evenodd" clip-rule="evenodd" fill="url(#SVGID_15_)" d="M9.89,20.06v0.04c0.04,0.08,0.04,0.16,0,0.25
		c-0.03,0.09-0.09,0.16-0.18,0.21c-0.08,0.04-0.16,0.04-0.25,0c-1.51-0.5-2.99-0.77-4.45-0.81c-0.1,0-0.18-0.04-0.25-0.1
		c-0.07-0.07-0.1-0.15-0.11-0.25c0-0.1,0.04-0.18,0.11-0.25l0.04-0.03c0.06-0.05,0.13-0.07,0.21-0.07c1.53,0.05,3.08,0.35,4.66,0.88
		C9.77,19.94,9.84,19.99,9.89,20.06z"/>
	
		<linearGradient id="SVGID_16_" gradientUnits="userSpaceOnUse" x1="-239.7783" y1="-225.7861" x2="-235.3844" y2="-225.7861" gradientTransform="matrix(1.3805 0.2474 0 1.4248 335.1664 399.6451)">
		<stop  offset="0" style="stop-color:#000000;stop-opacity:0"/>
		<stop  offset="0.4941" style="stop-color:#000000"/>
		<stop  offset="1" style="stop-color:#000000;stop-opacity:0"/>
	</linearGradient>
	<path fill-rule="evenodd" clip-rule="evenodd" fill="url(#SVGID_16_)" d="M9.89,20.06c-0.05-0.06-0.12-0.11-0.21-0.14
		c-1.58-0.53-3.13-0.82-4.66-0.88c-0.08,0-0.15,0.02-0.21,0.07c-0.06-0.07-0.08-0.15-0.07-0.25c0-0.1,0.04-0.18,0.1-0.25
		c0.08-0.06,0.18-0.08,0.28-0.07c2.06,0.15,3.61,0.46,4.66,0.95c0.08,0.03,0.14,0.09,0.18,0.18c0.04,0.09,0.04,0.19,0,0.28
		C9.94,20,9.92,20.03,9.89,20.06z"/>
	
		<linearGradient id="SVGID_17_" gradientUnits="userSpaceOnUse" x1="-240.791" y1="-221.3818" x2="-236.3875" y2="-221.3818" gradientTransform="matrix(1.4014 -0.0557 0 1.4036 339.9973 324.8881)">
		<stop  offset="0" style="stop-color:#000000;stop-opacity:0"/>
		<stop  offset="0.4941" style="stop-color:#000000"/>
		<stop  offset="1" style="stop-color:#000000;stop-opacity:0"/>
	</linearGradient>
	<path fill-rule="evenodd" clip-rule="evenodd" fill="url(#SVGID_17_)" d="M3.23,28.05C3.14,28,3.08,27.93,3.05,27.84
		c-0.03-0.1-0.01-0.19,0.04-0.28c0.05-0.09,0.12-0.15,0.21-0.18c1.4-0.38,2.9-0.52,4.49-0.42c0.09,0,0.16,0.04,0.21,0.11
		c0.07,0.08,0.11,0.18,0.11,0.28c0,0.09-0.04,0.16-0.11,0.21c-0.05,0.05-0.11,0.08-0.18,0.1c-1.55-0.19-3.06-0.07-4.52,0.35
		C3.27,28.02,3.25,28.03,3.23,28.05z"/>
	
		<linearGradient id="SVGID_18_" gradientUnits="userSpaceOnUse" x1="-241.48" y1="-220.9043" x2="-236.3261" y2="-220.9043" gradientTransform="matrix(1.4014 -0.0544 -0.039 1.405 331.4818 325.5115)">
		<stop  offset="0.0157" style="stop-color:#FFFFFF;stop-opacity:0"/>
		<stop  offset="0.502" style="stop-color:#FFFFFF;stop-opacity:0.4627"/>
		<stop  offset="1" style="stop-color:#FFFFFF;stop-opacity:0"/>
	</linearGradient>
	<path fill-rule="evenodd" clip-rule="evenodd" fill="url(#SVGID_18_)" d="M3.23,28.05c0.02-0.02,0.04-0.03,0.07-0.04
		c1.46-0.42,2.97-0.54,4.52-0.35c0.03,0,0.07,0,0.11,0c0.1,0.02,0.18,0.06,0.25,0.14c0.06,0.07,0.08,0.15,0.07,0.25
		c-0.01,0.1-0.06,0.18-0.14,0.25c-0.07,0.06-0.15,0.08-0.25,0.07c-1.5-0.18-2.94-0.06-4.35,0.35c-0.1,0.03-0.19,0.01-0.28-0.04
		c-0.09-0.05-0.15-0.12-0.18-0.21c-0.03-0.1-0.01-0.19,0.04-0.28C3.12,28.13,3.17,28.08,3.23,28.05z"/>
	
		<linearGradient id="SVGID_19_" gradientUnits="userSpaceOnUse" x1="-239.207" y1="-212.4844" x2="-234.6566" y2="-212.4844" gradientTransform="matrix(1.3792 0.2543 -0.111 1.4056 310.6293 397.0537)">
		<stop  offset="0.0157" style="stop-color:#FFFFFF;stop-opacity:0"/>
		<stop  offset="0.502" style="stop-color:#FFFFFF;stop-opacity:0.4627"/>
		<stop  offset="1" style="stop-color:#FFFFFF;stop-opacity:0"/>
	</linearGradient>
	<path fill-rule="evenodd" clip-rule="evenodd" fill="url(#SVGID_19_)" d="M8.66,37.55c0.05,0.04,0.08,0.09,0.11,0.14
		c0.04,0.09,0.04,0.19,0,0.28c-0.03,0.08-0.09,0.14-0.18,0.18c-0.09,0.04-0.19,0.04-0.28,0c-0.83-0.33-2.11-0.22-3.82,0.32
		c-0.1,0.03-0.19,0.01-0.28-0.04c-0.09-0.05-0.15-0.12-0.18-0.21c-0.03-0.1-0.01-0.19,0.04-0.28c0.05-0.09,0.12-0.15,0.21-0.18
		c1.93-0.59,3.37-0.67,4.31-0.25L8.66,37.55z"/>
	
		<linearGradient id="SVGID_20_" gradientUnits="userSpaceOnUse" x1="-239.9307" y1="-212.9824" x2="-235.5368" y2="-212.9824" gradientTransform="matrix(1.3805 0.2474 0 1.4248 335.1664 399.6451)">
		<stop  offset="0" style="stop-color:#000000;stop-opacity:0"/>
		<stop  offset="0.4941" style="stop-color:#000000"/>
		<stop  offset="1" style="stop-color:#000000;stop-opacity:0"/>
	</linearGradient>
	<path fill-rule="evenodd" clip-rule="evenodd" fill="url(#SVGID_20_)" d="M8.66,37.55l-0.07-0.04c-0.94-0.42-2.38-0.34-4.31,0.25
		c-0.05-0.05-0.08-0.1-0.1-0.17c-0.03-0.1-0.01-0.19,0.03-0.28c0.05-0.09,0.12-0.15,0.21-0.17c1.81-0.49,3.26-0.58,4.35-0.28
		c0.09,0.03,0.16,0.09,0.21,0.17c0.05,0.09,0.06,0.18,0.03,0.28c-0.03,0.09-0.09,0.16-0.18,0.21C8.79,37.54,8.73,37.56,8.66,37.55z"
		/>
	
		<linearGradient id="SVGID_21_" gradientUnits="userSpaceOnUse" x1="-237.9946" y1="-207.0322" x2="-233.5539" y2="-207.0322" gradientTransform="matrix(1.3896 0.1895 0 1.4154 337.2792 384.211)">
		<stop  offset="0" style="stop-color:#000000;stop-opacity:0"/>
		<stop  offset="0.4941" style="stop-color:#000000"/>
		<stop  offset="1" style="stop-color:#000000;stop-opacity:0"/>
	</linearGradient>
	<path fill-rule="evenodd" clip-rule="evenodd" fill="url(#SVGID_21_)" d="M11.12,46.04c-0.03-0.02-0.07-0.05-0.1-0.07
		c-0.08-0.06-0.16-0.08-0.25-0.07c-1.1,0.24-2.29,0.67-3.58,1.3c-0.09,0.04-0.14,0.12-0.18,0.21H6.98
		c-0.08-0.03-0.14-0.09-0.18-0.17c-0.04-0.09-0.04-0.19,0-0.28c0.03-0.08,0.09-0.14,0.18-0.17c0.23-0.09,0.56-0.23,0.98-0.42H7.93
		c0.54-0.29,1.51-0.61,2.91-0.95c0.09-0.03,0.17-0.01,0.25,0.04c0.09,0.06,0.15,0.14,0.18,0.25c0.03,0.09,0.01,0.17-0.03,0.25
		C11.19,45.98,11.16,46.01,11.12,46.04z"/>
	
		<linearGradient id="SVGID_22_" gradientUnits="userSpaceOnUse" x1="-237.6411" y1="-206.7085" x2="-233.2004" y2="-206.7085" gradientTransform="matrix(1.3896 0.1895 0 1.4154 337.2792 384.211)">
		<stop  offset="0.0157" style="stop-color:#FFFFFF;stop-opacity:0"/>
		<stop  offset="0.502" style="stop-color:#FFFFFF;stop-opacity:0.4627"/>
		<stop  offset="1" style="stop-color:#FFFFFF;stop-opacity:0"/>
	</linearGradient>
	<path fill-rule="evenodd" clip-rule="evenodd" fill="url(#SVGID_22_)" d="M11.12,46.04c0.03,0.04,0.05,0.09,0.07,0.14
		c0.01,0.09-0.01,0.17-0.07,0.25c-0.05,0.09-0.12,0.15-0.21,0.17c-1.05,0.23-2.2,0.64-3.44,1.23c-0.08,0.04-0.16,0.04-0.25,0
		c-0.09-0.03-0.17-0.09-0.21-0.18c-0.04-0.08-0.04-0.16,0-0.25c0.03-0.09,0.09-0.17,0.18-0.21c1.29-0.62,2.48-1.06,3.58-1.3
		c0.09-0.01,0.17,0.01,0.25,0.07C11.05,45.99,11.09,46.01,11.12,46.04z"/>
</g>
</svg>
