<?xml version="1.0" encoding="utf-8"?>
<!-- Generator: Adobe Illustrator 16.0.0, SVG Export Plug-In . SVG Version: 6.00 Build 0)  -->
<!DOCTYPE svg PUBLIC "-//W3C//DTD SVG 1.1//EN" "http://www.w3.org/Graphics/SVG/1.1/DTD/svg11.dtd">
<svg version="1.1" id="Layer_1" xmlns="http://www.w3.org/2000/svg" xmlns:xlink="http://www.w3.org/1999/xlink" x="0px" y="0px"
	 width="79.75px" height="141.25px" viewBox="0 0 79.75 141.25" enable-background="new 0 0 79.75 141.25" xml:space="preserve">
<g>
	<g>
		<g>
			<g>
				<linearGradient id="SVGID_1_" gradientUnits="userSpaceOnUse" x1="2.9126" y1="44.6782" x2="77.7876" y2="44.6782">
					<stop  offset="0" style="stop-color:#000000"/>
					<stop  offset="0.4627" style="stop-color:#000000"/>
					<stop  offset="0.8039" style="stop-color:#555555"/>
					<stop  offset="1" style="stop-color:#000000"/>
				</linearGradient>
				<path fill-rule="evenodd" clip-rule="evenodd" fill="url(#SVGID_1_)" d="M2.1,13.75c2.133,3.066,5.917,5.467,11.35,7.2
					c7.333,2.3,16.267,3.45,26.8,3.45c10.434,0,19.3-1.15,26.6-3.45c6.733-2.067,10.434-4.467,11.101-7.2v52.5
					c-4.2,3.033-9,5.283-14.4,6.75c-1.233,0.434-2.467,0.816-3.7,1.15C54.184,75.384,47.9,75.833,41,75.5
					c-6.733-0.5-12.65-1.2-17.75-2.1c-2.633-0.567-5.05-1.184-7.25-1.851C9.5,69.517,4.867,67.6,2.1,65.8V13.75z"/>
				<linearGradient id="SVGID_2_" gradientUnits="userSpaceOnUse" x1="2.9126" y1="44.6782" x2="77.7876" y2="44.6782">
					<stop  offset="0" style="stop-color:#000000"/>
					<stop  offset="0.4627" style="stop-color:#000000"/>
					<stop  offset="0.8039" style="stop-color:#555555"/>
					<stop  offset="1" style="stop-color:#000000"/>
				</linearGradient>
				<path fill-rule="evenodd" clip-rule="evenodd" fill="url(#SVGID_2_)" d="M2.1,13.75c2.133,3.066,5.917,5.467,11.35,7.2
					c7.333,2.3,16.267,3.45,26.8,3.45c10.434,0,19.3-1.15,26.6-3.45c6.733-2.067,10.434-4.467,11.101-7.2v52.5
					c-4.2,3.033-9,5.283-14.4,6.75c-1.233,0.434-2.467,0.816-3.7,1.15C54.184,75.384,47.9,75.833,41,75.5
					c-6.733-0.5-12.65-1.2-17.75-2.1c-2.633-0.567-5.05-1.184-7.25-1.851C9.5,69.517,4.867,67.6,2.1,65.8V13.75z"/>
				<path fill-rule="evenodd" clip-rule="evenodd" d="M77.95,13.75c-0.667,2.733-4.367,5.133-11.101,7.2
					c-7.3,2.3-16.166,3.45-26.6,3.45c-10.533,0-19.467-1.15-26.8-3.45c-5.434-1.733-9.217-4.134-11.35-7.2
					C2.333,9.917,6.117,6.9,13.45,4.7c0.867-0.267,1.75-0.517,2.65-0.75c-0.4,0.566-0.6,1.183-0.6,1.85v0.8
					c0,0.033,0.033,0.117,0.1,0.25c0.233,2.966,0.2,5.566-0.1,7.8c1.333,1.067,3.417,1.967,6.25,2.7
					c5.2,1.566,11.617,2.35,19.25,2.35c7.467,0,13.9-0.784,19.3-2.35c2.533-0.733,4.483-1.583,5.851-2.55
					c0.366-0.333,0.683-0.583,0.949-0.75v-7.5V5.8c0-0.433-0.083-0.8-0.25-1.1c7.4,2.4,11.101,5.1,11.101,8.1
					C77.95,13.133,77.95,13.45,77.95,13.75z M16.55,7.85c-0.2-0.3-0.25-0.534-0.15-0.7C16.533,6.55,16.583,6.783,16.55,7.85z
					 M63.55,75.05c5.066,1.533,7.601,3.351,7.601,5.45c0,0.667,0,1.134,0,1.4c-1.867,1.967-4.983,3.483-9.351,4.55
					c-6,1.633-13.333,2.45-22,2.45c-8.733,0-16.167-0.817-22.3-2.45c-5.1-1.3-8.15-3.283-9.15-5.95c0-2.1,2.55-3.917,7.65-5.45v5.65
					c5.066,2.934,14.167,4.566,27.3,4.899C56.434,86,63.184,83.533,63.55,78.2V75.05z"/>
				<path fill-rule="evenodd" clip-rule="evenodd" d="M77.95,13.75c-0.667,2.733-4.367,5.133-11.101,7.2
					c-7.3,2.3-16.166,3.45-26.6,3.45c-10.533,0-19.467-1.15-26.8-3.45c-5.434-1.733-9.217-4.134-11.35-7.2
					C2.333,9.917,6.117,6.9,13.45,4.7c0.867-0.267,1.75-0.517,2.65-0.75c-0.4,0.566-0.6,1.183-0.6,1.85v0.8
					c0,0.033,0.033,0.117,0.1,0.25c0.233,2.966,0.2,5.566-0.1,7.8c1.333,1.067,3.417,1.967,6.25,2.7
					c5.2,1.566,11.617,2.35,19.25,2.35c7.467,0,13.9-0.784,19.3-2.35c2.533-0.733,4.483-1.583,5.851-2.55
					c0.366-0.333,0.683-0.583,0.949-0.75v-7.5V5.8c0-0.433-0.083-0.8-0.25-1.1c7.4,2.4,11.101,5.1,11.101,8.1
					C77.95,13.133,77.95,13.45,77.95,13.75z M16.55,7.85c-0.2-0.3-0.25-0.534-0.15-0.7C16.533,6.55,16.583,6.783,16.55,7.85z
					 M63.55,75.05c5.066,1.533,7.601,3.351,7.601,5.45c0,0.667,0,1.134,0,1.4c-1.867,1.967-4.983,3.483-9.351,4.55
					c-6,1.633-13.333,2.45-22,2.45c-8.733,0-16.167-0.817-22.3-2.45c-5.1-1.3-8.15-3.283-9.15-5.95c0-2.1,2.55-3.917,7.65-5.45v5.65
					c5.066,2.934,14.167,4.566,27.3,4.899C56.434,86,63.184,83.533,63.55,78.2V75.05z"/>
				<linearGradient id="SVGID_3_" gradientUnits="userSpaceOnUse" x1="-66.7451" y1="-2.8213" x2="100.1938" y2="13.3608">
					<stop  offset="0" style="stop-color:#000000"/>
					<stop  offset="0.4627" style="stop-color:#000000"/>
					<stop  offset="0.8039" style="stop-color:#555555"/>
					<stop  offset="1" style="stop-color:#000000"/>
				</linearGradient>
				<path fill-rule="evenodd" clip-rule="evenodd" fill="url(#SVGID_3_)" d="M16.1,3.95c0.6-0.167,1.217-0.317,1.85-0.45
					c14.667-3,29.467-3,44.399,0c1.601,0.3,3.101,0.7,4.5,1.2C67.017,5,67.1,5.367,67.1,5.8v0.75c-0.1,1.8-2.6,3.483-7.5,5.05
					c-5.1,1.633-11.217,2.45-18.35,2.45c-4.3,0-8.117-0.283-11.45-0.85c-2.4-0.367-4.616-0.9-6.65-1.6
					c-2.767-0.833-4.8-1.767-6.1-2.8c-0.2-0.167-0.383-0.333-0.55-0.5c0-0.133,0.017-0.233,0.05-0.3c-0.5-0.5-0.816-0.883-0.95-1.15
					c-0.067-0.133-0.1-0.217-0.1-0.25V5.8C15.5,5.133,15.7,4.517,16.1,3.95z M16.55,7.85c0.034-1.067-0.017-1.3-0.15-0.7
					C16.3,7.316,16.35,7.55,16.55,7.85z"/>
				<linearGradient id="SVGID_4_" gradientUnits="userSpaceOnUse" x1="-66.7451" y1="-2.8213" x2="100.1938" y2="13.3608">
					<stop  offset="0" style="stop-color:#000000"/>
					<stop  offset="0.4627" style="stop-color:#000000"/>
					<stop  offset="0.8039" style="stop-color:#555555"/>
					<stop  offset="1" style="stop-color:#000000"/>
				</linearGradient>
				<path fill-rule="evenodd" clip-rule="evenodd" fill="url(#SVGID_4_)" d="M16.1,3.95c0.6-0.167,1.217-0.317,1.85-0.45
					c14.667-3,29.467-3,44.399,0c1.601,0.3,3.101,0.7,4.5,1.2C67.017,5,67.1,5.367,67.1,5.8v0.75c-0.1,1.8-2.6,3.483-7.5,5.05
					c-5.1,1.633-11.217,2.45-18.35,2.45c-4.3,0-8.117-0.283-11.45-0.85c-2.4-0.367-4.616-0.9-6.65-1.6
					c-2.767-0.833-4.8-1.767-6.1-2.8c-0.2-0.167-0.383-0.333-0.55-0.5c0-0.133,0.017-0.233,0.05-0.3c-0.5-0.5-0.816-0.883-0.95-1.15
					c-0.067-0.133-0.1-0.217-0.1-0.25V5.8C15.5,5.133,15.7,4.517,16.1,3.95z M16.55,7.85c0.034-1.067-0.017-1.3-0.15-0.7
					C16.3,7.316,16.35,7.55,16.55,7.85z"/>
				<linearGradient id="SVGID_5_" gradientUnits="userSpaceOnUse" x1="19.4375" y1="13.125" x2="64.5625" y2="13.125">
					<stop  offset="0" style="stop-color:#000000"/>
					<stop  offset="0.4627" style="stop-color:#000000"/>
					<stop  offset="0.8039" style="stop-color:#555555"/>
					<stop  offset="1" style="stop-color:#000000"/>
				</linearGradient>
				<path fill-rule="evenodd" clip-rule="evenodd" fill="url(#SVGID_5_)" d="M15.6,6.85C15.733,7.117,16.05,7.5,16.55,8
					c-0.033,0.066-0.05,0.167-0.05,0.3c0.167,0.167,0.35,0.333,0.55,0.5c1.3,1.034,3.333,1.967,6.1,2.8
					c2.034,0.7,4.25,1.233,6.65,1.6c3.333,0.566,7.15,0.85,11.45,0.85c7.133,0,13.25-0.816,18.35-2.45c4.9-1.567,7.4-3.25,7.5-5.05
					v7.5c-0.267,0.167-0.583,0.417-0.949,0.75c-1.367,0.967-3.317,1.817-5.851,2.55C54.9,18.917,48.467,19.7,41,19.7
					c-7.633,0-14.05-0.784-19.25-2.35c-2.833-0.733-4.917-1.633-6.25-2.7C15.8,12.417,15.833,9.816,15.6,6.85z"/>
				<linearGradient id="SVGID_6_" gradientUnits="userSpaceOnUse" x1="19.4375" y1="13.125" x2="64.5625" y2="13.125">
					<stop  offset="0" style="stop-color:#000000"/>
					<stop  offset="0.4627" style="stop-color:#000000"/>
					<stop  offset="0.8039" style="stop-color:#555555"/>
					<stop  offset="1" style="stop-color:#000000"/>
				</linearGradient>
				<path fill-rule="evenodd" clip-rule="evenodd" fill="url(#SVGID_6_)" d="M15.6,6.85C15.733,7.117,16.05,7.5,16.55,8
					c-0.033,0.066-0.05,0.167-0.05,0.3c0.167,0.167,0.35,0.333,0.55,0.5c1.3,1.034,3.333,1.967,6.1,2.8
					c2.034,0.7,4.25,1.233,6.65,1.6c3.333,0.566,7.15,0.85,11.45,0.85c7.133,0,13.25-0.816,18.35-2.45c4.9-1.567,7.4-3.25,7.5-5.05
					v7.5c-0.267,0.167-0.583,0.417-0.949,0.75c-1.367,0.967-3.317,1.817-5.851,2.55C54.9,18.917,48.467,19.7,41,19.7
					c-7.633,0-14.05-0.784-19.25-2.35c-2.833-0.733-4.917-1.633-6.25-2.7C15.8,12.417,15.833,9.816,15.6,6.85z"/>
				<linearGradient id="SVGID_7_" gradientUnits="userSpaceOnUse" x1="16" y1="78.5957" x2="63.5498" y2="78.5957">
					<stop  offset="0" style="stop-color:#000000"/>
					<stop  offset="0.4627" style="stop-color:#000000"/>
					<stop  offset="0.8039" style="stop-color:#555555"/>
					<stop  offset="1" style="stop-color:#000000"/>
				</linearGradient>
				<path fill-rule="evenodd" clip-rule="evenodd" fill="url(#SVGID_7_)" d="M16,75.05v-3.5c2.2,0.667,4.617,1.283,7.25,1.851
					C28.35,74.3,34.267,75,41,75.5c6.9,0.333,13.184-0.116,18.85-1.35c1.233-0.334,2.467-0.717,3.7-1.15v2.05v3.15
					C63.184,83.533,56.434,86,43.3,85.6C30.167,85.267,21.066,83.634,16,80.7V75.05z"/>
				<linearGradient id="SVGID_8_" gradientUnits="userSpaceOnUse" x1="16" y1="78.5957" x2="63.5498" y2="78.5957">
					<stop  offset="0" style="stop-color:#000000"/>
					<stop  offset="0.4627" style="stop-color:#000000"/>
					<stop  offset="0.8039" style="stop-color:#555555"/>
					<stop  offset="1" style="stop-color:#000000"/>
				</linearGradient>
				<path fill-rule="evenodd" clip-rule="evenodd" fill="url(#SVGID_8_)" d="M16,75.05v-3.5c2.2,0.667,4.617,1.283,7.25,1.851
					C28.35,74.3,34.267,75,41,75.5c6.9,0.333,13.184-0.116,18.85-1.35c1.233-0.334,2.467-0.717,3.7-1.15v2.05v3.15
					C63.184,83.533,56.434,86,43.3,85.6C30.167,85.267,21.066,83.634,16,80.7V75.05z"/>
				<linearGradient id="SVGID_9_" gradientUnits="userSpaceOnUse" x1="8.5874" y1="110.3457" x2="70.2124" y2="110.3457">
					<stop  offset="0" style="stop-color:#000000"/>
					<stop  offset="0.4627" style="stop-color:#000000"/>
					<stop  offset="0.8039" style="stop-color:#555555"/>
					<stop  offset="1" style="stop-color:#000000"/>
				</linearGradient>
				<path fill-rule="evenodd" clip-rule="evenodd" fill="url(#SVGID_9_)" d="M71.15,81.9v49.35c-2.301,2.1-5.917,4.033-10.851,5.8
					c-5.1,1.733-11.934,2.767-20.5,3.101c-8.733,0.233-16.167-0.517-22.3-2.25c-5.1-1.301-8.15-2.934-9.15-4.9V80.5
					c1,2.667,4.05,4.65,9.15,5.95c6.133,1.633,13.566,2.45,22.3,2.45c8.667,0,16-0.817,22-2.45
					C66.167,85.384,69.283,83.867,71.15,81.9z"/>
				<linearGradient id="SVGID_10_" gradientUnits="userSpaceOnUse" x1="8.5874" y1="110.3457" x2="70.2124" y2="110.3457">
					<stop  offset="0" style="stop-color:#000000"/>
					<stop  offset="0.4627" style="stop-color:#000000"/>
					<stop  offset="0.8039" style="stop-color:#555555"/>
					<stop  offset="1" style="stop-color:#000000"/>
				</linearGradient>
				<path fill-rule="evenodd" clip-rule="evenodd" fill="url(#SVGID_10_)" d="M71.15,81.9v49.35c-2.301,2.1-5.917,4.033-10.851,5.8
					c-5.1,1.733-11.934,2.767-20.5,3.101c-8.733,0.233-16.167-0.517-22.3-2.25c-5.1-1.301-8.15-2.934-9.15-4.9V80.5
					c1,2.667,4.05,4.65,9.15,5.95c6.133,1.633,13.566,2.45,22.3,2.45c8.667,0,16-0.817,22-2.45
					C66.167,85.384,69.283,83.867,71.15,81.9z"/>
			</g>
		</g>
		<g>
			<g>
				<path fill-rule="evenodd" clip-rule="evenodd" d="M52.2,26.7c0.066-0.067,0.149-0.067,0.25,0c0.133-0.067,0.25-0.067,0.35,0
					c0.101,0.1,0.15,0.233,0.15,0.4l0.25,40.25c0,0.1-0.084,0.2-0.25,0.3c-0.101,0.133-0.2,0.2-0.3,0.2
					c-0.134,0-0.25-0.067-0.351-0.2c-0.066-0.1-0.066-0.2,0-0.3L52.2,27.1C52.033,26.934,52.033,26.8,52.2,26.7z M61.15,25.5
					c0.1-0.066,0.199-0.066,0.3,0c0.166,0.167,0.25,0.283,0.25,0.35l0.1,39.8c0,0.1-0.033,0.184-0.1,0.25
					c-0.167,0.167-0.3,0.25-0.4,0.25c-0.1,0-0.217-0.083-0.35-0.25c-0.101-0.066-0.101-0.15,0-0.25l-0.15-39.8
					c-0.133-0.067-0.133-0.184,0-0.35C60.9,25.434,61.017,25.434,61.15,25.5z M68.55,24.4c0.167-0.2,0.3-0.3,0.4-0.3
					c0.1-0.067,0.217-0.067,0.35,0c0,0.2,0.05,0.333,0.15,0.4l0.2,39.05c0,0.167-0.067,0.3-0.2,0.4c-0.101,0-0.217,0.033-0.351,0.1
					c-0.1,0-0.149-0.033-0.149-0.1c-0.101-0.1-0.15-0.233-0.15-0.4L68.55,24.5C68.483,24.434,68.483,24.4,68.55,24.4z M11.2,25.4
					c0,0.067,0.066,0.184,0.2,0.35l0.2,38.75c0,0.2-0.067,0.333-0.2,0.4c-0.133,0-0.25,0.083-0.35,0.25c-0.066,0-0.1-0.083-0.1-0.25
					c-0.167-0.066-0.25-0.2-0.25-0.4l-0.1-38.75c-0.2-0.167-0.2-0.25,0-0.25c0.066-0.066,0.183-0.1,0.35-0.1
					C11.017,25.3,11.1,25.3,11.2,25.4z M35.2,27.6c0.1-0.1,0.183-0.1,0.25,0c0.167-0.1,0.283-0.1,0.35,0c0.2,0.066,0.3,0.2,0.3,0.4
					l0.1,40.35c0,0.1-0.034,0.233-0.1,0.4c-0.2,0.066-0.333,0.1-0.4,0.1c-0.167,0-0.284-0.034-0.35-0.1c-0.1-0.167-0.1-0.3,0-0.4
					L35.2,28C35.066,27.8,35.066,27.667,35.2,27.6z M19.2,26.6c0.066,0.066,0.1,0.15,0.1,0.25l0.25,39.8
					c0,0.067-0.083,0.184-0.25,0.35c-0.066,0.066-0.133,0.1-0.2,0.1c-0.2,0-0.333-0.034-0.4-0.1c-0.067-0.167-0.067-0.283,0-0.35
					l-0.1-39.8c-0.167-0.1-0.167-0.184,0-0.25c0.066-0.167,0.133-0.167,0.2,0C19,26.434,19.133,26.434,19.2,26.6z M44.8,27.45
					c0.167,0.1,0.25,0.183,0.25,0.25L45.15,68c0,0.066-0.034,0.184-0.101,0.35c-0.167,0.1-0.283,0.15-0.35,0.15
					c-0.167,0-0.3-0.05-0.4-0.15c-0.066-0.167-0.066-0.284,0-0.35l-0.1-40.3c-0.167-0.067-0.167-0.15,0-0.25
					c0.066-0.134,0.149-0.134,0.25,0C44.616,27.316,44.733,27.316,44.8,27.45z M27.6,27.45c0.066-0.134,0.133-0.134,0.2,0
					c0.167,0.1,0.25,0.183,0.25,0.25l0.1,40.3c0,0.066-0.033,0.184-0.1,0.35c-0.167,0.1-0.283,0.15-0.35,0.15
					c-0.067,0-0.2-0.05-0.4-0.15c-0.066-0.167-0.066-0.284,0-0.35l-0.1-40.3c-0.167-0.067-0.167-0.15,0-0.25
					C27.267,27.316,27.4,27.316,27.6,27.45z"/>
				<linearGradient id="SVGID_11_" gradientUnits="userSpaceOnUse" x1="36.8657" y1="27.4927" x2="36.1904" y2="61.5427">
					<stop  offset="0" style="stop-color:#FFFFFF;stop-opacity:0"/>
					<stop  offset="0.0078" style="stop-color:#FFFFFF;stop-opacity:0"/>
					<stop  offset="0.502" style="stop-color:#FFFFFF;stop-opacity:0.298"/>
					<stop  offset="1" style="stop-color:#FFFFFF;stop-opacity:0"/>
				</linearGradient>
				<path fill-rule="evenodd" clip-rule="evenodd" fill="url(#SVGID_11_)" d="M48.65,27.45c-0.167-0.134-0.167-0.25,0-0.35
					c0.066-0.167,0.133-0.167,0.199,0c0.2-0.167,0.334-0.167,0.4,0c0.1,0.1,0.15,0.216,0.15,0.35v40.4c0,0.1-0.051,0.183-0.15,0.25
					c-0.066,0.167-0.2,0.25-0.4,0.25c-0.066,0-0.133-0.083-0.199-0.25c-0.167-0.067-0.167-0.15,0-0.25V27.45z M65,25
					c0.167-0.1,0.3-0.15,0.4-0.15c0.066-0.133,0.183-0.133,0.35,0c0,0.1,0.033,0.233,0.1,0.4L66.15,64.5
					c0,0.2-0.101,0.333-0.301,0.4c-0.066,0-0.183,0.083-0.35,0.25c-0.066,0-0.1-0.083-0.1-0.25c-0.101-0.066-0.15-0.2-0.15-0.4
					L65,25.25C64.9,25.083,64.9,25,65,25z M57.85,26.25c0.167,0.066,0.25,0.184,0.25,0.35v39.9c0,0.1-0.083,0.184-0.25,0.25
					C57.783,66.917,57.717,67,57.65,67c-0.2,0-0.334-0.083-0.4-0.25c-0.1-0.066-0.1-0.15,0-0.25V26.6c-0.1-0.167-0.1-0.284,0-0.35
					c0.066-0.2,0.2-0.2,0.4,0C57.717,26.05,57.783,26.05,57.85,26.25z M15,25.95c0.067-0.067,0.167-0.067,0.3,0
					c0.133-0.067,0.25-0.067,0.35,0c0.067,0.2,0.1,0.333,0.1,0.4v39.3c0,0.1-0.033,0.184-0.1,0.25c-0.1,0.167-0.217,0.25-0.35,0.25
					s-0.233-0.083-0.3-0.25c-0.167-0.066-0.167-0.15,0-0.25v-39.3C14.833,26.283,14.833,26.15,15,25.95z M23.6,27.1
					c0.1-0.167,0.233-0.167,0.4,0c0.066-0.167,0.15-0.167,0.25,0c0.133,0.1,0.2,0.216,0.2,0.35v41.3c0,0.066-0.067,0.133-0.2,0.2
					c-0.1,0.167-0.184,0.25-0.25,0.25c-0.167,0-0.3-0.083-0.4-0.25c-0.067-0.067-0.067-0.134,0-0.2v-41.3
					C23.533,27.316,23.533,27.2,23.6,27.1z M7,25c-0.133-0.1-0.133-0.217,0-0.35c0.1-0.1,0.217-0.1,0.35,0c0.1-0.1,0.183-0.1,0.25,0
					C7.8,24.783,7.9,24.9,7.9,25v38.55c0,0.167-0.1,0.3-0.3,0.4c-0.067,0.066-0.15,0.1-0.25,0.1c-0.133,0-0.25-0.033-0.35-0.1
					c-0.133-0.1-0.133-0.233,0-0.4V25z M31.65,28c-0.167-0.2-0.167-0.333,0-0.4c0.067-0.1,0.133-0.1,0.2,0c0.167-0.1,0.3-0.1,0.4,0
					c0.167,0.066,0.25,0.2,0.25,0.4v40.35c0,0.1-0.083,0.233-0.25,0.4c-0.1,0.066-0.233,0.1-0.4,0.1c-0.067,0-0.133-0.034-0.2-0.1
					c-0.167-0.167-0.167-0.3,0-0.4V28z M40.65,27.6c0.066-0.1,0.183-0.1,0.35,0c0.066-0.1,0.15-0.1,0.25,0
					c0.133,0.066,0.2,0.2,0.2,0.4v40.35c0,0.1-0.067,0.233-0.2,0.4c-0.1,0.066-0.184,0.1-0.25,0.1c-0.167,0-0.283-0.034-0.35-0.1
					c-0.2-0.167-0.2-0.3,0-0.4V28C40.45,27.8,40.45,27.667,40.65,27.6z"/>
				<linearGradient id="SVGID_12_" gradientUnits="userSpaceOnUse" x1="72.917" y1="25.0093" x2="72.2417" y2="59.0593">
					<stop  offset="0" style="stop-color:#FFFFFF;stop-opacity:0"/>
					<stop  offset="0.0078" style="stop-color:#FFFFFF;stop-opacity:0"/>
					<stop  offset="0.502" style="stop-color:#FFFFFF;stop-opacity:0.298"/>
					<stop  offset="1" style="stop-color:#FFFFFF;stop-opacity:0"/>
				</linearGradient>
				<path fill-rule="evenodd" clip-rule="evenodd" fill="url(#SVGID_12_)" d="M72.5,23.3c0.066-0.1,0.2-0.1,0.4,0
					c0.066,0.167,0.1,0.284,0.1,0.35v39.9c0,0.167-0.033,0.3-0.1,0.4c-0.2,0.066-0.334,0.1-0.4,0.1s-0.184-0.033-0.35-0.1
					c-0.067-0.1-0.067-0.233,0-0.4v-39.9c-0.067-0.066-0.067-0.183,0-0.35C72.316,23.2,72.434,23.2,72.5,23.3z"/>
			</g>
		</g>
		<g>
			<g>
				<linearGradient id="SVGID_13_" gradientUnits="userSpaceOnUse" x1="67.3545" y1="97.0078" x2="66.7938" y2="125.5336">
					<stop  offset="0" style="stop-color:#FFFFFF;stop-opacity:0"/>
					<stop  offset="0.0078" style="stop-color:#FFFFFF;stop-opacity:0"/>
					<stop  offset="0.502" style="stop-color:#FFFFFF;stop-opacity:0.298"/>
					<stop  offset="1" style="stop-color:#FFFFFF;stop-opacity:0"/>
				</linearGradient>
				<path fill-rule="evenodd" clip-rule="evenodd" fill="url(#SVGID_13_)" d="M66.7,95.45c0.1-0.101,0.149-0.101,0.149,0
					c0.167-0.101,0.301-0.101,0.4,0c0.133,0.133,0.2,0.267,0.2,0.399v33.45c0,0.067-0.067,0.15-0.2,0.25c-0.1,0-0.233,0-0.4,0H66.7
					c-0.067-0.1-0.067-0.183,0-0.25V95.85C66.633,95.717,66.633,95.583,66.7,95.45z"/>
				<path fill-rule="evenodd" clip-rule="evenodd" d="M63.65,96.3c0.166-0.066,0.283-0.1,0.35-0.1h0.1
					c0,0.066,0.101,0.184,0.301,0.35l0.1,32.75c0,0.067-0.033,0.15-0.1,0.25H64c-0.066-0.1-0.1-0.183-0.1-0.25l-0.25-32.75
					C63.583,96.384,63.583,96.3,63.65,96.3z M49.95,98.8c-0.167-0.2-0.167-0.333,0-0.399c0.1-0.167,0.149-0.167,0.149,0
					c0.101-0.167,0.217-0.167,0.351,0C50.55,98.467,50.6,98.6,50.6,98.8l0.2,33.55c0,0.101-0.066,0.2-0.2,0.301
					c-0.1,0.133-0.217,0.199-0.35,0.199c-0.1,0-0.15-0.066-0.15-0.199c-0.1-0.101-0.1-0.2,0-0.301L49.95,98.8z M35.7,99.35
					c-0.167-0.066-0.167-0.183,0-0.35c0.066-0.066,0.2-0.066,0.4,0c0-0.066,0.033-0.066,0.1,0c0.066,0.167,0.1,0.283,0.1,0.35
					l0.25,33.75c0,0.2-0.083,0.334-0.25,0.4c-0.066,0.167-0.133,0.25-0.2,0.25l-0.3-0.25c-0.066-0.066-0.066-0.2,0-0.4L35.7,99.35z
					 M57.75,97.4c0.066,0.066,0.1,0.166,0.1,0.3L58.1,131c0,0.1-0.083,0.184-0.25,0.25c-0.066,0-0.133,0-0.199,0
					c-0.2,0-0.334,0-0.4,0c-0.1-0.066-0.1-0.15,0-0.25L57.1,97.7c0-0.134,0-0.233,0-0.3c0.101-0.167,0.184-0.167,0.25,0
					C57.55,97.233,57.684,97.233,57.75,97.4z M29.05,99.25c-0.1-0.167-0.1-0.283,0-0.35c0-0.067,0.034-0.067,0.1,0
					c0.2-0.067,0.333-0.067,0.4,0c0.167,0.066,0.25,0.183,0.25,0.35L29.9,133l-0.1,0.1c-0.167,0.2-0.283,0.301-0.35,0.301
					c-0.2,0-0.333-0.101-0.4-0.301V99.25z M43.85,98.9c0.067,0.066,0.101,0.183,0.101,0.35v33.85c-0.067,0.2-0.15,0.301-0.25,0.301
					c-0.134,0-0.267-0.101-0.4-0.301c-0.133-0.066-0.133-0.1,0-0.1l-0.2-33.75c0-0.167,0-0.283,0-0.35
					c0.134-0.067,0.267-0.067,0.4,0C43.633,98.833,43.75,98.833,43.85,98.9z M21.75,98.15c0.1-0.067,0.15-0.067,0.15,0
					c0.167-0.067,0.284-0.067,0.35,0c0.1,0.166,0.15,0.283,0.15,0.35l0.2,33.25c0,0.167-0.067,0.283-0.2,0.35c-0.1,0-0.183,0-0.25,0
					H21.9c-0.1-0.066-0.1-0.183,0-0.35L21.75,98.5C21.583,98.434,21.583,98.316,21.75,98.15z M15,97.4
					c0.067-0.167,0.15-0.25,0.25-0.25c0.167-0.067,0.283-0.067,0.35,0c0,0.166,0.05,0.283,0.15,0.35v32.65c0,0.1,0,0.183,0,0.25
					c-0.1,0-0.183,0-0.25,0h-0.25c-0.1-0.067-0.15-0.15-0.15-0.25L15,97.4z"/>
				<linearGradient id="SVGID_14_" gradientUnits="userSpaceOnUse" x1="37.0122" y1="99.0098" x2="36.4515" y2="127.5356">
					<stop  offset="0" style="stop-color:#FFFFFF;stop-opacity:0"/>
					<stop  offset="0.0078" style="stop-color:#FFFFFF;stop-opacity:0"/>
					<stop  offset="0.502" style="stop-color:#FFFFFF;stop-opacity:0.298"/>
					<stop  offset="1" style="stop-color:#FFFFFF;stop-opacity:0"/>
				</linearGradient>
				<path fill-rule="evenodd" clip-rule="evenodd" fill="url(#SVGID_14_)" d="M54.15,98.15c-0.067-0.067-0.067-0.15,0-0.25
					c0.1,0,0.216,0,0.35,0h0.15c0.166,0.1,0.25,0.183,0.25,0.25v33.5c0,0.066-0.084,0.183-0.25,0.35l-0.15,0.1
					c-0.134,0-0.25-0.033-0.35-0.1c-0.067-0.167-0.067-0.283,0-0.35V98.15z M61.3,96.8c0,0.167,0.05,0.25,0.15,0.25v33.101
					c0,0.1,0,0.183,0,0.25c-0.101,0-0.2,0-0.3,0h-0.2c-0.101-0.067-0.15-0.15-0.15-0.25L60.6,97.05
					c0.134-0.166,0.25-0.25,0.351-0.25C61.083,96.733,61.2,96.733,61.3,96.8z M47.3,98.8c0.066-0.2,0.101-0.2,0.101,0
					c0.066,0,0.1,0.033,0.1,0.101v33.949c0,0.101-0.033,0.15-0.1,0.15c0,0.066-0.034,0.1-0.101,0.1c-0.2,0-0.333-0.033-0.399-0.1
					c-0.167,0-0.167-0.05,0-0.15V98.9c-0.167-0.067-0.167-0.101,0-0.101C46.967,98.6,47.1,98.6,47.3,98.8z M32.6,99
					c0.1-0.066,0.216-0.066,0.35,0c0.133-0.066,0.233-0.066,0.3,0c0,0.167,0,0.283,0,0.35v33.75c0,0.2,0,0.334,0,0.4
					c-0.066,0.167-0.167,0.25-0.3,0.25c-0.134,0-0.25-0.083-0.35-0.25c-0.067-0.066-0.067-0.2,0-0.4V99.35
					C32.533,99.283,32.533,99.167,32.6,99z M26.45,98.8c0.167,0,0.25,0.033,0.25,0.101v34.6c0,0.167-0.083,0.283-0.25,0.35H26.3
					c-0.066,0-0.183,0-0.35,0c-0.067-0.066-0.067-0.183,0-0.35V98.9c-0.067-0.067-0.067-0.101,0-0.101c0.167-0.2,0.283-0.2,0.35,0
					C26.3,98.6,26.35,98.6,26.45,98.8z M12.3,96.7c0.1-0.101,0.184-0.101,0.25,0c0.167,0.066,0.25,0.184,0.25,0.35v32.25
					c0,0.067-0.083,0.15-0.25,0.25c-0.066,0-0.15,0-0.25,0h-0.25c-0.066-0.1-0.066-0.183,0-0.25V97.05
					c-0.066-0.166-0.066-0.283,0-0.35C12.217,96.6,12.3,96.6,12.3,96.7z M40.25,99c0.066-0.066,0.1-0.066,0.1,0
					c0.2-0.066,0.334-0.066,0.4,0c0.167,0.167,0.25,0.283,0.25,0.35v33.75c0,0.2-0.083,0.334-0.25,0.4
					c-0.066,0.167-0.2,0.25-0.4,0.25l-0.1-0.25c-0.066-0.066-0.066-0.2,0-0.4V99.35C40.184,99.283,40.184,99.167,40.25,99z
					 M19.1,97.9c0.066-0.134,0.133-0.134,0.2,0V131c0,0.1,0,0.184,0,0.25c-0.066,0-0.133,0-0.2,0c-0.2,0-0.333,0-0.4,0
					c-0.1-0.066-0.1-0.15,0-0.25V98.05c-0.1-0.1-0.1-0.149,0-0.149C18.767,97.767,18.9,97.767,19.1,97.9z"/>
			</g>
		</g>
		<g>
			<g>
				<linearGradient id="SVGID_15_" gradientUnits="userSpaceOnUse" x1="27.3901" y1="15.4688" x2="79.4189" y2="6.1986">
					<stop  offset="0" style="stop-color:#FFFFFF"/>
					<stop  offset="0.0078" style="stop-color:#FFFFFF;stop-opacity:0"/>
					<stop  offset="0.4902" style="stop-color:#FFFFFF;stop-opacity:0.451"/>
					<stop  offset="1" style="stop-color:#FFFFFF;stop-opacity:0"/>
				</linearGradient>
				<path fill-rule="evenodd" clip-rule="evenodd" fill="url(#SVGID_15_)" d="M67.45,6c0.1-0.133,0.183-0.133,0.25,0
					C67.9,6,68,6.05,68,6.15c0.066,0.167,0.1,0.3,0.1,0.4c-1.733,4.8-12.25,7.45-31.55,7.95c-0.167,0-0.25-0.066-0.25-0.2
					c-0.066-0.1-0.1-0.183-0.1-0.25c-0.067-0.2-0.067-0.3,0-0.3c0.066-0.066,0.183-0.1,0.35-0.1c18.867-0.566,29.101-3.066,30.7-7.5
					C67.25,6.05,67.316,6,67.45,6z"/>
				<linearGradient id="SVGID_16_" gradientUnits="userSpaceOnUse" x1="32.7671" y1="26.1006" x2="84.7958" y2="16.8305">
					<stop  offset="0" style="stop-color:#FFFFFF"/>
					<stop  offset="0.0078" style="stop-color:#FFFFFF;stop-opacity:0"/>
					<stop  offset="0.4902" style="stop-color:#FFFFFF;stop-opacity:0.451"/>
					<stop  offset="1" style="stop-color:#FFFFFF;stop-opacity:0"/>
				</linearGradient>
				<path fill-rule="evenodd" clip-rule="evenodd" fill="url(#SVGID_16_)" d="M75.35,16.5c0-0.1,0.084-0.1,0.25,0
					c0.101,0,0.217,0.083,0.351,0.25c0.1,0,0.149,0.05,0.149,0.15c-0.1,0.067-0.149,0.184-0.149,0.35
					c-5.3,4.767-16.7,7.233-34.2,7.4c-0.066,0-0.1-0.05-0.1-0.15c-0.134-0.066-0.2-0.2-0.2-0.4c-0.134-0.067-0.134-0.1,0-0.1
					c0.133-0.066,0.233-0.1,0.3-0.1C58.983,23.5,70.184,21.033,75.35,16.5z"/>
				<linearGradient id="SVGID_17_" gradientUnits="userSpaceOnUse" x1="28.313" y1="91.1279" x2="80.3417" y2="81.8578">
					<stop  offset="0" style="stop-color:#FFFFFF"/>
					<stop  offset="0.0078" style="stop-color:#FFFFFF;stop-opacity:0"/>
					<stop  offset="0.4902" style="stop-color:#FFFFFF;stop-opacity:0.451"/>
					<stop  offset="1" style="stop-color:#FFFFFF;stop-opacity:0"/>
				</linearGradient>
				<path fill-rule="evenodd" clip-rule="evenodd" fill="url(#SVGID_17_)" d="M71.15,81.5c0.1,0,0.216,0.1,0.35,0.3
					c0.1,0,0.15,0.033,0.15,0.101c-0.101,0.066-0.15,0.183-0.15,0.35c-5.3,4.767-16.667,7.233-34.1,7.4
					c-0.133,0-0.2-0.033-0.2-0.101c-0.1-0.1-0.15-0.217-0.15-0.35c-0.167-0.134-0.167-0.2,0-0.2c0.1-0.066,0.217-0.1,0.35-0.1
					c17.167-0.4,28.383-2.867,33.65-7.4C71.05,81.434,71.083,81.434,71.15,81.5z"/>
			</g>
		</g>
	</g>
</g>
</svg>
