<?xml version="1.0" encoding="utf-8"?>
<!-- Generator: Adobe Illustrator 16.0.0, SVG Export Plug-In . SVG Version: 6.00 Build 0)  -->
<!DOCTYPE svg PUBLIC "-//W3C//DTD SVG 1.1//EN" "http://www.w3.org/Graphics/SVG/1.1/DTD/svg11.dtd">
<svg version="1.1" id="Layer_2" xmlns="http://www.w3.org/2000/svg" xmlns:xlink="http://www.w3.org/1999/xlink" x="0px" y="0px"
	 width="13.88px" height="18.63px" viewBox="0 0 13.88 18.63" enable-background="new 0 0 13.88 18.63" xml:space="preserve">
<g>
	<g>
		
			<linearGradient id="SVGID_1_" gradientUnits="userSpaceOnUse" x1="-78.4209" y1="82.6592" x2="-67.4463" y2="82.6592" gradientTransform="matrix(0.9331 -0.3596 0.2848 0.9619 51.1263 -96.6162)">
			<stop  offset="0" style="stop-color:#000000"/>
			<stop  offset="1" style="stop-color:#050505"/>
		</linearGradient>
		<path fill-rule="evenodd" clip-rule="evenodd" fill="url(#SVGID_1_)" d="M2.21,12.36c-0.33-0.4-0.55-0.77-0.65-1.1
			c-0.1-0.3-0.1-0.65,0-1.05l8.25-4.45c0.53-0.17,1-0.05,1.4,0.35c0.4,0.43,0.62,1.05,0.65,1.85c0.07,0.8-0.18,1.32-0.75,1.55
			L2.21,12.36z"/>
	</g>
	<g>
		<linearGradient id="SVGID_2_" gradientUnits="userSpaceOnUse" x1="10.9248" y1="5.1235" x2="11.077" y2="7.3998">
			<stop  offset="0.0235" style="stop-color:#FFFFFF"/>
			<stop  offset="1" style="stop-color:#FFFFFF;stop-opacity:0"/>
			<stop  offset="1" style="stop-color:#FFFFFF"/>
		</linearGradient>
		<path fill-rule="evenodd" clip-rule="evenodd" fill="url(#SVGID_2_)" d="M11.31,6.61c0.13,0.2,0.2,0.4,0.2,0.6
			c0.03,0.17,0.02,0.28-0.05,0.35c-0.1,0.07-0.22,0.05-0.35-0.05c-0.13-0.1-0.25-0.25-0.35-0.45c-0.13-0.2-0.2-0.4-0.2-0.6
			c-0.03-0.17-0.02-0.28,0.05-0.35c0.07-0.07,0.17-0.05,0.3,0.05C11.08,6.26,11.21,6.41,11.31,6.61z"/>
		
			<linearGradient id="SVGID_3_" gradientUnits="userSpaceOnUse" x1="73.2578" y1="-405.1172" x2="77.5151" y2="-405.1172" gradientTransform="matrix(0.2879 0.9577 -0.9356 0.3613 -394.9911 82.0975)">
			<stop  offset="0.0235" style="stop-color:#FFFFFF"/>
			<stop  offset="1" style="stop-color:#FFFFFF;stop-opacity:0"/>
			<stop  offset="1" style="stop-color:#FFFFFF"/>
		</linearGradient>
		<path fill-rule="evenodd" clip-rule="evenodd" fill="url(#SVGID_3_)" d="M10.36,7.81l-8.4,3.65c-0.2-0.23-0.22-0.53-0.05-0.9
			l7.8-4.2C10.31,6.63,10.53,7.11,10.36,7.81z"/>
	</g>
</g>
</svg>
