<?xml version="1.0" encoding="utf-8"?>
<!-- Generator: Adobe Illustrator 16.0.0, SVG Export Plug-In . SVG Version: 6.00 Build 0)  -->
<!DOCTYPE svg PUBLIC "-//W3C//DTD SVG 1.1//EN" "http://www.w3.org/Graphics/SVG/1.1/DTD/svg11.dtd">
<svg version="1.1" xmlns="http://www.w3.org/2000/svg" xmlns:xlink="http://www.w3.org/1999/xlink" x="0px" y="0px" width="30.5px"
	 height="62.67px" viewBox="0 0 30.5 62.67" enable-background="new 0 0 30.5 62.67" xml:space="preserve">
<g id="Layer_1">
	<g id="Layer_1_1_">
		<g>
			<g>
				
					<linearGradient id="SVGID_1_" gradientUnits="userSpaceOnUse" x1="238.3145" y1="487.209" x2="242.7667" y2="487.209" gradientTransform="matrix(0.848 0.53 0.5501 -0.8355 -449.0825 283.5398)">
					<stop  offset="0.0157" style="stop-color:#FFFFFF;stop-opacity:0"/>
					<stop  offset="0.502" style="stop-color:#FFFFFF;stop-opacity:0.4627"/>
					<stop  offset="1" style="stop-color:#FFFFFF;stop-opacity:0"/>
				</linearGradient>
				<path fill="url(#SVGID_1_)" d="M22.69,2.1h0.07c0.05,0,0.08,0.02,0.08,0.05c0.05,0,0.1,0.06,0.15,0.16
					c0.71,1.12,1.07,2.29,1.07,3.5c0,0.09-0.03,0.19-0.08,0.29c-0.04,0-0.08,0.03-0.13,0.08c-0.05,0-0.1,0-0.16,0
					c-0.09,0-0.16-0.03-0.21-0.08c-0.1-0.1-0.16-0.2-0.16-0.29c0-1.07-0.29-2.1-0.86-3.08L22.4,2.68c-0.02-0.05-0.03-0.1-0.04-0.14
					c0-0.02-0.01-0.05-0.01-0.07V2.39c0-0.05,0.01-0.08,0.05-0.08c0-0.02,0.01-0.04,0.03-0.07c0.02-0.01,0.03-0.01,0.05-0.01
					c0.02-0.03,0.03-0.05,0.05-0.07c0.01-0.01,0.02-0.01,0.03-0.02C22.59,2.13,22.65,2.11,22.69,2.1z"/>
				
					<linearGradient id="SVGID_2_" gradientUnits="userSpaceOnUse" x1="236.9736" y1="482.1152" x2="243.5437" y2="482.1152" gradientTransform="matrix(0.8515 0.5244 0.5432 -0.8399 -442.5342 283.483)">
					<stop  offset="0" style="stop-color:#010101;stop-opacity:0"/>
					<stop  offset="0.4941" style="stop-color:#010101"/>
					<stop  offset="1" style="stop-color:#010101;stop-opacity:0"/>
				</linearGradient>
				<path fill="url(#SVGID_2_)" d="M22.69,2.1c-0.05,0.01-0.1,0.02-0.15,0.05c-0.01,0-0.02,0.01-0.03,0.02
					C22.57,2.13,22.63,2.11,22.69,2.1z M22.84,2.16c0.05,0,0.1,0.03,0.15,0.08c1,1.07,1.54,2.33,1.59,3.79
					c0,0.11-0.03,0.2-0.08,0.29c-0.1,0.05-0.2,0.08-0.29,0.08c-0.11,0-0.18-0.03-0.23-0.08c-0.04-0.05-0.08-0.09-0.13-0.13
					c0.05-0.05,0.09-0.08,0.13-0.08c0.05-0.1,0.08-0.2,0.08-0.29c0-1.21-0.35-2.38-1.07-3.5C22.94,2.21,22.89,2.16,22.84,2.16z"/>
				
					<linearGradient id="SVGID_3_" gradientUnits="userSpaceOnUse" x1="114.1162" y1="287.4668" x2="122.4521" y2="287.4668" gradientTransform="matrix(0.9568 0.2908 0.2046 -0.983 -156.1232 253.2689)">
					<stop  offset="0" style="stop-color:#010101;stop-opacity:0"/>
					<stop  offset="0.4941" style="stop-color:#010101"/>
					<stop  offset="1" style="stop-color:#010101;stop-opacity:0"/>
				</linearGradient>
				<path fill="url(#SVGID_3_)" d="M17.79,6.9c0-0.09-0.03-0.16-0.08-0.21c-1.06-1.37-2.35-2.37-3.88-3l-0.08-0.05V3.55
					c0.05-0.11,0.12-0.17,0.21-0.21c0.05-0.11,0.15-0.13,0.29-0.08c0.48,0.14,0.92,0.33,1.3,0.58h-0.08
					c1.11,0.53,2.07,1.41,2.89,2.63c0.05,0.09,0.08,0.18,0.08,0.29c0,0.09-0.04,0.16-0.13,0.21C18.2,7.03,18.1,7.06,18,7.06
					C17.91,7.06,17.84,7,17.79,6.9z"/>
				
					<linearGradient id="SVGID_4_" gradientUnits="userSpaceOnUse" x1="116.0205" y1="284.3984" x2="122.9199" y2="284.3984" gradientTransform="matrix(0.9579 0.2872 0.208 -0.9816 -157.8422 250.3635)">
					<stop  offset="0.0157" style="stop-color:#FFFFFF;stop-opacity:0"/>
					<stop  offset="0.502" style="stop-color:#FFFFFF;stop-opacity:0.4627"/>
					<stop  offset="1" style="stop-color:#FFFFFF;stop-opacity:0"/>
				</linearGradient>
				<path fill="url(#SVGID_4_)" d="M17.79,6.9v0.08c0,0.11-0.04,0.17-0.13,0.21c-0.1,0.05-0.18,0.08-0.24,0.08
					c-0.14,0-0.23-0.04-0.29-0.13c-0.95-1.26-2.15-2.2-3.59-2.79c-0.1-0.04-0.16-0.11-0.16-0.21c-0.05-0.09-0.05-0.18,0-0.29
					c0-0.11,0.05-0.16,0.16-0.16c0.04-0.04,0.1-0.05,0.21-0.05l0.08,0.05c1.52,0.63,2.82,1.63,3.88,3
					C17.76,6.74,17.79,6.81,17.79,6.9z"/>
				
					<linearGradient id="SVGID_5_" gradientUnits="userSpaceOnUse" x1="102.2002" y1="197.0566" x2="109.9092" y2="197.0566" gradientTransform="matrix(0.9832 0.1825 0.1985 -0.9802 -137.6312 192.4786)">
					<stop  offset="0.0157" style="stop-color:#FFFFFF;stop-opacity:0"/>
					<stop  offset="0.502" style="stop-color:#FFFFFF;stop-opacity:0.4627"/>
					<stop  offset="1" style="stop-color:#FFFFFF;stop-opacity:0"/>
				</linearGradient>
				<path fill="url(#SVGID_5_)" d="M8.62,19.09c0,0.1,0,0.2,0,0.29c-0.04,0.11-0.1,0.17-0.21,0.21c-0.1,0-0.17,0-0.21,0
					c-1.6-0.53-3.14-0.82-4.63-0.87c-0.09,0-0.16-0.02-0.21-0.08c-0.1-0.09-0.16-0.18-0.16-0.29c0-0.09,0.05-0.16,0.16-0.21v-0.08
					c0.05-0.05,0.12-0.08,0.21-0.08c1.6,0.05,3.21,0.37,4.84,0.95C8.47,18.93,8.53,18.99,8.62,19.09z"/>
				
					<linearGradient id="SVGID_6_" gradientUnits="userSpaceOnUse" x1="3.3877" y1="193.834" x2="9.7248" y2="193.834" gradientTransform="matrix(0.9843 0.1767 0 -1.016 -2.7375 213.5535)">
					<stop  offset="0" style="stop-color:#010101;stop-opacity:0"/>
					<stop  offset="0.4941" style="stop-color:#010101"/>
					<stop  offset="1" style="stop-color:#010101;stop-opacity:0"/>
				</linearGradient>
				<path fill="url(#SVGID_6_)" d="M8.62,19.09c-0.09-0.11-0.16-0.16-0.21-0.16c-1.63-0.58-3.24-0.9-4.84-0.95
					c-0.09,0-0.16,0.03-0.21,0.08c-0.05-0.05-0.08-0.12-0.08-0.21c0-0.14,0.05-0.24,0.16-0.29c0.05-0.05,0.15-0.08,0.29-0.08
					c2.12,0.14,3.71,0.48,4.77,1.03c0.09,0,0.15,0.04,0.21,0.13c0,0.1,0,0.2,0,0.29C8.65,18.99,8.62,19.04,8.62,19.09z"/>
				
					<linearGradient id="SVGID_7_" gradientUnits="userSpaceOnUse" x1="106" y1="206.2969" x2="114.076" y2="206.2969" gradientTransform="matrix(0.9829 0.184 0.2032 -0.9793 -140.9809 192.694)">
					<stop  offset="0.0157" style="stop-color:#FFFFFF;stop-opacity:0"/>
					<stop  offset="0.502" style="stop-color:#FFFFFF;stop-opacity:0.4627"/>
					<stop  offset="1" style="stop-color:#FFFFFF;stop-opacity:0"/>
				</linearGradient>
				<path fill="url(#SVGID_7_)" d="M7.92,9.61c0.04,0,0.08,0,0.13,0c2.02,0.69,3.38,1.46,4.11,2.34c0.05,0.09,0.08,0.18,0.08,0.29
					v0.05c-0.05,0.05-0.11,0.1-0.16,0.16c-0.09,0.05-0.16,0.08-0.21,0.08c-0.14,0-0.23-0.05-0.29-0.16
					c-0.62-0.77-1.88-1.45-3.75-2.03c-0.16-0.05-0.23-0.11-0.23-0.16C7.52,10.1,7.5,10.01,7.56,9.9c0.04-0.14,0.1-0.21,0.21-0.21
					C7.82,9.64,7.87,9.61,7.92,9.61z"/>
				
					<linearGradient id="SVGID_8_" gradientUnits="userSpaceOnUse" x1="106.6494" y1="205.5977" x2="114.9474" y2="205.5977" gradientTransform="matrix(0.9833 0.1822 0.2038 -0.9793 -141.1814 191.7028)">
					<stop  offset="0" style="stop-color:#010101;stop-opacity:0"/>
					<stop  offset="0.4941" style="stop-color:#010101"/>
					<stop  offset="1" style="stop-color:#010101;stop-opacity:0"/>
				</linearGradient>
				<path fill="url(#SVGID_8_)" d="M7.92,9.61C7.87,9.56,7.84,9.51,7.84,9.45c-0.05-0.09-0.05-0.16,0-0.21
					c0-0.14,0.04-0.21,0.13-0.21c0.1-0.05,0.2-0.05,0.29,0c2.28,0.77,3.72,1.7,4.35,2.77c0.04,0.05,0.04,0.12,0,0.21
					c-0.05,0.11-0.1,0.2-0.16,0.29c-0.09,0-0.15,0-0.21,0v-0.05c0-0.11-0.03-0.2-0.08-0.29c-0.73-0.88-2.1-1.66-4.11-2.34
					C8,9.61,7.95,9.61,7.92,9.61z"/>
				
					<linearGradient id="SVGID_9_" gradientUnits="userSpaceOnUse" x1="13.3989" y1="58.7324" x2="20.8376" y2="58.7324" gradientTransform="matrix(0.9993 -0.0385 0.0302 -1.0019 -15.0179 86.9799)">
					<stop  offset="0.0157" style="stop-color:#FFFFFF;stop-opacity:0"/>
					<stop  offset="0.502" style="stop-color:#FFFFFF;stop-opacity:0.4627"/>
					<stop  offset="1" style="stop-color:#FFFFFF;stop-opacity:0"/>
				</linearGradient>
				<path fill="url(#SVGID_9_)" d="M1.78,27.42c0-0.05,0.03-0.08,0.08-0.08c1.49-0.44,3.03-0.56,4.61-0.37c0.05,0,0.1,0,0.16,0
					c0.09,0,0.16,0.05,0.21,0.16c0.05,0.09,0.08,0.18,0.08,0.29c0,0.09-0.05,0.16-0.16,0.21c-0.09,0.05-0.16,0.08-0.21,0.08
					c-1.55-0.2-3.04-0.07-4.48,0.37c-0.14,0.05-0.24,0.05-0.29,0c-0.09-0.11-0.15-0.19-0.21-0.24c-0.05-0.14-0.03-0.24,0.08-0.29
					C1.65,27.46,1.69,27.42,1.78,27.42z"/>
				
					<linearGradient id="SVGID_10_" gradientUnits="userSpaceOnUse" x1="-4.4434" y1="59.2148" x2="1.9147" y2="59.2148" gradientTransform="matrix(0.9992 -0.0389 0 -1.0008 5.3858 86.0055)">
					<stop  offset="0" style="stop-color:#010101;stop-opacity:0"/>
					<stop  offset="0.4941" style="stop-color:#010101"/>
					<stop  offset="1" style="stop-color:#010101;stop-opacity:0"/>
				</linearGradient>
				<path fill="url(#SVGID_10_)" d="M1.78,27.42c-0.09-0.1-0.15-0.17-0.21-0.21c-0.05-0.16-0.03-0.26,0.08-0.32
					c0.04-0.09,0.1-0.16,0.21-0.21c1.39-0.39,2.92-0.53,4.61-0.42c0.05,0,0.12,0.04,0.21,0.13c0.05,0.05,0.08,0.15,0.08,0.29
					c0,0.05-0.03,0.12-0.08,0.21c-0.09,0-0.16,0.03-0.21,0.08c-1.58-0.19-3.11-0.07-4.61,0.37C1.8,27.34,1.78,27.36,1.78,27.42z"/>
				
					<linearGradient id="SVGID_11_" gradientUnits="userSpaceOnUse" x1="3.1807" y1="175.1719" x2="9.5166" y2="175.1719" gradientTransform="matrix(0.9843 0.1767 0 -1.016 -2.7375 213.5535)">
					<stop  offset="0" style="stop-color:#010101;stop-opacity:0"/>
					<stop  offset="0.4941" style="stop-color:#010101"/>
					<stop  offset="1" style="stop-color:#010101;stop-opacity:0"/>
				</linearGradient>
				<path fill="url(#SVGID_11_)" d="M2.87,37.48c-0.1-0.05-0.16-0.09-0.16-0.13c-0.05-0.16-0.03-0.25,0.08-0.29
					c0.05-0.11,0.12-0.18,0.21-0.24c1.82-0.47,3.32-0.57,4.48-0.29c0.05,0.05,0.12,0.12,0.21,0.21c0.05,0.05,0.05,0.16,0,0.32
					c-0.05,0.04-0.09,0.1-0.13,0.21c-0.1,0-0.18,0-0.24,0H7.27C6.29,36.78,4.83,36.85,2.87,37.48z"/>
				
					<linearGradient id="SVGID_12_" gradientUnits="userSpaceOnUse" x1="46.3418" y1="176.9102" x2="52.9076" y2="176.9102" gradientTransform="matrix(0.9836 0.1805 0.0793 -1.0021 -56.7693 206.2108)">
					<stop  offset="0.0157" style="stop-color:#FFFFFF;stop-opacity:0"/>
					<stop  offset="0.502" style="stop-color:#FFFFFF;stop-opacity:0.4627"/>
					<stop  offset="1" style="stop-color:#FFFFFF;stop-opacity:0"/>
				</linearGradient>
				<path fill="url(#SVGID_12_)" d="M2.87,37.48c1.96-0.63,3.42-0.7,4.4-0.21h0.05c0.05,0.05,0.11,0.1,0.16,0.13
					c0,0.11,0,0.21,0,0.32c-0.05,0.09-0.12,0.16-0.21,0.21c-0.1,0-0.2,0-0.29,0c-0.87-0.35-2.17-0.25-3.91,0.29
					c-0.14,0.05-0.24,0.05-0.29,0c-0.1-0.05-0.17-0.12-0.21-0.21c-0.05-0.16-0.04-0.25,0.05-0.29C2.69,37.61,2.77,37.53,2.87,37.48z
					"/>
				
					<linearGradient id="SVGID_13_" gradientUnits="userSpaceOnUse" x1="3.0552" y1="138.8311" x2="9.4647" y2="138.8311" gradientTransform="matrix(0.991 0.134 0 -1.0091 0.9102 185.6686)">
					<stop  offset="0" style="stop-color:#010101;stop-opacity:0"/>
					<stop  offset="0.4941" style="stop-color:#010101"/>
					<stop  offset="1" style="stop-color:#010101;stop-opacity:0"/>
				</linearGradient>
				<path fill="url(#SVGID_13_)" d="M9.85,46.09l-0.05-0.08c-0.1-0.04-0.2-0.05-0.29-0.05c-1.11,0.23-2.34,0.68-3.7,1.37
					c-0.09,0-0.13,0.08-0.13,0.24H5.6c-0.1-0.05-0.16-0.13-0.16-0.24c-0.04-0.09-0.04-0.19,0-0.29c0-0.09,0.05-0.13,0.16-0.13
					c0.25-0.16,0.58-0.31,1.02-0.45c0.52-0.33,1.5-0.67,2.94-1.03c0.1-0.05,0.2-0.03,0.29,0.08c0.05,0.05,0.1,0.12,0.16,0.21
					c0.05,0.11,0.05,0.2,0,0.29C9.95,46.01,9.9,46.04,9.85,46.09z"/>
				
					<linearGradient id="SVGID_14_" gradientUnits="userSpaceOnUse" x1="3.5747" y1="138.3594" x2="9.9866" y2="138.3594" gradientTransform="matrix(0.991 0.134 0 -1.0091 0.9102 185.6686)">
					<stop  offset="0.0157" style="stop-color:#FFFFFF;stop-opacity:0"/>
					<stop  offset="0.502" style="stop-color:#FFFFFF;stop-opacity:0.4627"/>
					<stop  offset="1" style="stop-color:#FFFFFF;stop-opacity:0"/>
				</linearGradient>
				<path fill="url(#SVGID_14_)" d="M9.85,46.09c0.05,0.05,0.08,0.11,0.08,0.16c0,0.09-0.03,0.18-0.08,0.29
					c-0.04,0.04-0.1,0.08-0.21,0.13c-1.11,0.25-2.29,0.68-3.54,1.32c-0.09,0-0.16,0-0.21,0c-0.14-0.05-0.21-0.12-0.21-0.21
					c-0.05-0.11-0.05-0.17,0-0.21c0-0.16,0.04-0.24,0.13-0.24c1.35-0.69,2.59-1.14,3.7-1.37c0.09,0,0.18,0.01,0.29,0.05L9.85,46.09z
					"/>
				
					<linearGradient id="SVGID_15_" gradientUnits="userSpaceOnUse" x1="15.2656" y1="-49.5786" x2="21.458" y2="-49.5786" gradientTransform="matrix(0.9776 -0.2102 0 -1.0229 -6.3594 7.7925)">
					<stop  offset="0" style="stop-color:#010101;stop-opacity:0"/>
					<stop  offset="0.4941" style="stop-color:#010101"/>
					<stop  offset="1" style="stop-color:#010101;stop-opacity:0"/>
				</linearGradient>
				<path fill="url(#SVGID_15_)" d="M15.26,53.02c-0.09,0.05-0.16,0.1-0.21,0.16c-0.57,0.69-1.76,1.58-3.54,2.69
					c-0.09,0.05-0.16,0.13-0.21,0.24v0.05c-0.05,0-0.1,0-0.16,0c-0.14-0.04-0.21-0.1-0.21-0.21c-0.05-0.09-0.05-0.16,0-0.21
					c0-0.16,0.04-0.24,0.13-0.24c1.68-0.83,2.86-1.75,3.54-2.77c0.05-0.09,0.13-0.16,0.23-0.21c0.09-0.05,0.18-0.03,0.29,0.08
					c0.04,0.04,0.08,0.11,0.13,0.21C15.26,52.91,15.26,52.98,15.26,53.02z"/>
				
					<linearGradient id="SVGID_16_" gradientUnits="userSpaceOnUse" x1="15.8384" y1="-50.1201" x2="22.0307" y2="-50.1201" gradientTransform="matrix(0.9776 -0.2102 0 -1.0229 -6.3594 7.7925)">
					<stop  offset="0.0157" style="stop-color:#FFFFFF;stop-opacity:0"/>
					<stop  offset="0.502" style="stop-color:#FFFFFF;stop-opacity:0.4627"/>
					<stop  offset="1" style="stop-color:#FFFFFF;stop-opacity:0"/>
				</linearGradient>
				<path fill="url(#SVGID_16_)" d="M15.26,53.02h0.08c0.05,0,0.12,0.03,0.21,0.08c0.11,0.05,0.16,0.15,0.16,0.29
					c0,0.05-0.03,0.12-0.08,0.21c-0.57,0.79-1.82,1.76-3.75,2.92c-0.1,0.05-0.2,0.05-0.29,0c-0.1-0.04-0.17-0.08-0.21-0.13
					c-0.05-0.11-0.08-0.18-0.08-0.24V56.1c0.05-0.11,0.12-0.18,0.21-0.24c1.79-1.11,2.97-2,3.54-2.69
					C15.11,53.12,15.17,53.07,15.26,53.02z"/>
			</g>
		</g>
	</g>
</g>
<g id="Layer_2">
</g>
</svg>
