<?xml version="1.0" encoding="utf-8"?>
<!-- Generator: Adobe Illustrator 16.0.0, SVG Export Plug-In . SVG Version: 6.00 Build 0)  -->
<!DOCTYPE svg PUBLIC "-//W3C//DTD SVG 1.1//EN" "http://www.w3.org/Graphics/SVG/1.1/DTD/svg11.dtd">
<svg version="1.1" id="Layer_1" xmlns="http://www.w3.org/2000/svg" xmlns:xlink="http://www.w3.org/1999/xlink" x="0px" y="0px"
	 width="20.75px" height="24.25px" viewBox="0 0 20.75 24.25" enable-background="new 0 0 20.75 24.25" xml:space="preserve">
<g>
	<g>
		<path fill-rule="evenodd" clip-rule="evenodd" fill="#FFFFFF" d="M8.98,16.28c-1.99,0-3.72-0.73-5.19-2.2
			c-1.43-1.4-2.15-3.11-2.15-5.13c0-2.02,0.72-3.77,2.15-5.24c1.47-1.43,3.2-2.15,5.19-2.15c2.03,0,3.75,0.72,5.19,2.15
			c1.47,1.47,2.2,3.21,2.2,5.24c0,2.03-0.73,3.74-2.2,5.13C12.73,15.55,11.01,16.28,8.98,16.28z"/>
		<path d="M8.98,17.03c-2.19,0-4.11-0.81-5.72-2.42C1.7,13.08,0.9,11.18,0.9,8.95c0-2.22,0.79-4.16,2.36-5.76
			C4.88,1.61,6.8,0.82,8.98,0.82c2.22,0,4.15,0.8,5.72,2.37c1.61,1.61,2.42,3.55,2.42,5.77c0,2.23-0.82,4.14-2.43,5.68
			C13.13,16.22,11.21,17.03,8.98,17.03z M8.98,2.32c-1.8,0-3.33,0.63-4.66,1.93C3.03,5.57,2.4,7.11,2.4,8.95
			c0,1.83,0.63,3.34,1.92,4.6c1.34,1.34,2.86,1.99,4.66,1.99c1.83,0,3.35-0.65,4.65-1.97c1.34-1.28,1.99-2.78,1.99-4.61
			c0-1.83-0.65-3.38-1.98-4.71C12.34,2.95,10.82,2.32,8.98,2.32z"/>
	</g>
	<g>
		<path fill-rule="evenodd" clip-rule="evenodd" d="M12.35,15.63c0.07-0.43,0.27-0.77,0.6-1c0.37-0.3,0.75-0.42,1.15-0.35
			c0.43,0.07,0.77,0.3,1,0.7l4.4,6.15c0.3,0.33,0.4,0.72,0.3,1.15c-0.07,0.4-0.27,0.75-0.6,1.05c-0.37,0.23-0.75,0.32-1.15,0.25
			c-0.43-0.07-0.78-0.28-1.05-0.65l-4.4-6.1C12.37,16.42,12.28,16.03,12.35,15.63z"/>
	</g>
	<g>
		<polygon fill-rule="evenodd" clip-rule="evenodd" points="8.15,4.83 10.35,4.83 10.35,8.08 13.65,8.08 13.65,10.27 10.35,10.27 
			10.35,13.53 8.15,13.53 8.15,10.27 4.95,10.27 4.95,8.08 8.15,8.08 		"/>
	</g>
</g>
</svg>
