<?xml version="1.0" encoding="utf-8"?>
<!-- Generator: Adobe Illustrator 16.0.0, SVG Export Plug-In . SVG Version: 6.00 Build 0)  -->
<!DOCTYPE svg PUBLIC "-//W3C//DTD SVG 1.1//EN" "http://www.w3.org/Graphics/SVG/1.1/DTD/svg11.dtd">
<svg version="1.1" id="Layer_1" xmlns="http://www.w3.org/2000/svg" xmlns:xlink="http://www.w3.org/1999/xlink" x="0px" y="0px"
	 width="954px" height="947px" viewBox="0 0 954 947" enable-background="new 0 0 954 947" xml:space="preserve">
<g>
	<g>
		
			<radialGradient id="SVGID_1_" cx="450.3401" cy="916.9033" r="833.6375" fx="453.6093" fy="916.9033" gradientTransform="matrix(1 0 0 -0.8938 5.8101 902.4805)" gradientUnits="userSpaceOnUse">
			<stop  offset="0" style="stop-color:#1F4E79;stop-opacity:0.5765"/>
			<stop  offset="0" style="stop-color:#1F4E79;stop-opacity:0.5765"/>
			<stop  offset="1" style="stop-color:#1F4E7A;stop-opacity:0.8902"/>
		</radialGradient>
		<rect x="-5.35" y="-10.05" fill="url(#SVGID_1_)" width="963.5" height="960.45"/>
	</g>
	<g>
		<rect x="0" y="769" fill="#D59548" width="963.5" height="180"/>
		<g>
			
				<linearGradient id="SVGID_2_" gradientUnits="userSpaceOnUse" x1="476.0999" y1="61.7544" x2="476.0147" y2="245.3048" gradientTransform="matrix(1 0 0 -1 5.8101 990.6289)">
				<stop  offset="0" style="stop-color:#7A501D;stop-opacity:0.5765"/>
				<stop  offset="1" style="stop-color:#412402;stop-opacity:0.7804"/>
			</linearGradient>
			<rect x="-0.35" y="752.4" fill="url(#SVGID_2_)" width="964.45" height="201.5"/>
		</g>
		<g>
			
				<linearGradient id="SVGID_3_" gradientUnits="userSpaceOnUse" x1="233.4377" y1="251.8887" x2="935.0145" y2="251.8887" gradientTransform="matrix(0.9504 0.3112 0.5341 -0.8774 -438.9164 810.9675)">
				<stop  offset="0" style="stop-color:#4C210F"/>
				<stop  offset="1" style="stop-color:#A54419;stop-opacity:0"/>
			</linearGradient>
			<rect x="-1" y="737.2" fill="url(#SVGID_3_)" width="964.6" height="220.05"/>
		</g>
		<g>
			<path fill="#B5AC13" fill-opacity="0.298" d="M960.85,858.8c0.33,0,0.65,0.18,0.95,0.55c0.23,0.3,0.35,0.7,0.35,1.2
				c0,0.47-0.12,0.88-0.35,1.25c-0.3,0.37-0.62,0.55-0.95,0.55h-962c-0.33,0-0.63-0.18-0.9-0.55c-0.27-0.37-0.4-0.78-0.4-1.25
				c0-0.5,0.13-0.9,0.4-1.2c0.27-0.37,0.57-0.55,0.9-0.55H960.85z"/>
			<path fill="#301807" d="M962.25,853.95c0.37,0.57,0.55,1.18,0.55,1.85c0,0.73-0.18,1.37-0.55,1.9c-0.4,0.53-0.87,0.8-1.4,0.8
				h-962c-0.53,0-1-0.27-1.4-0.8c-0.4-0.53-0.6-1.17-0.6-1.9c0-0.67,0.2-1.28,0.6-1.85c0.4-0.53,0.87-0.8,1.4-0.8h962
				C961.38,853.15,961.85,853.42,962.25,853.95z"/>
		</g>
		<g>
			<path fill-opacity="0.6392" d="M639.45,756.55c0.4-0.27,0.87-0.4,1.4-0.4s0.98,0.13,1.35,0.4c0.43,0.23,0.65,0.53,0.65,0.9v198.2
				c0,0.33-0.22,0.63-0.65,0.9c-0.37,0.27-0.82,0.4-1.35,0.4s-1-0.13-1.4-0.4c-0.43-0.27-0.65-0.57-0.65-0.9v-198.2
				C638.8,757.08,639.02,756.78,639.45,756.55z M282.85,754.05c0.4-0.23,0.88-0.35,1.45-0.35c0.5,0,0.97,0.12,1.4,0.35
				c0.37,0.27,0.55,0.58,0.55,0.95v198.15c0,0.37-0.18,0.67-0.55,0.9c-0.43,0.3-0.9,0.45-1.4,0.45c-0.57,0-1.05-0.15-1.45-0.45
				c-0.37-0.23-0.55-0.53-0.55-0.9V755C282.3,754.63,282.48,754.32,282.85,754.05z"/>
		</g>
		<g>
			<g>
				
					<radialGradient id="SVGID_4_" cx="471.3899" cy="301.5791" r="24.0249" gradientTransform="matrix(1 0 0 -0.3767 5.8101 931.1117)" gradientUnits="userSpaceOnUse">
					<stop  offset="0" style="stop-color:#000000"/>
					<stop  offset="1" style="stop-color:#070805;stop-opacity:0"/>
				</radialGradient>
				<polygon fill="url(#SVGID_4_)" points="507.15,814.1 507.15,835.8 447.5,835.4 447.5,813.65 				"/>
			</g>
			<g>
				<polygon fill="#585858" points="495.55,815.1 458.9,815.1 459.35,813.7 495.05,813.65 				"/>
				
					<linearGradient id="SVGID_5_" gradientUnits="userSpaceOnUse" x1="451.3894" y1="172.4292" x2="521.2903" y2="172.4292" gradientTransform="matrix(1 0 0 -1 5.8101 990.6289)">
					<stop  offset="0" style="stop-color:#000000"/>
					<stop  offset="0.1294" style="stop-color:#A2A2A2"/>
					<stop  offset="0.2353" style="stop-color:#DDDDDD"/>
					<stop  offset="0.3608" style="stop-color:#484848"/>
					<stop  offset="0.4784" style="stop-color:#FFFFFF"/>
					<stop  offset="0.7451" style="stop-color:#E6E6E6"/>
					<stop  offset="1" style="stop-color:#000000"/>
				</linearGradient>
				<rect x="458.9" y="815.1" fill="url(#SVGID_5_)" width="36.65" height="6.2"/>
			</g>
		</g>
		<g>
			<g>
				
					<radialGradient id="SVGID_6_" cx="804.6399" cy="301.5791" r="24.0249" gradientTransform="matrix(1 0 0 -0.3767 5.8101 931.1117)" gradientUnits="userSpaceOnUse">
					<stop  offset="0" style="stop-color:#000000"/>
					<stop  offset="1" style="stop-color:#070805;stop-opacity:0"/>
				</radialGradient>
				<polygon fill="url(#SVGID_6_)" points="840.45,814.1 840.45,835.8 780.75,835.4 780.75,813.65 				"/>
			</g>
			<g>
				<polygon fill="#585858" points="828.8,815.1 792.15,815.1 792.6,813.7 828.35,813.65 				"/>
				
					<linearGradient id="SVGID_7_" gradientUnits="userSpaceOnUse" x1="784.6399" y1="172.4292" x2="854.5399" y2="172.4292" gradientTransform="matrix(1 0 0 -1 5.8101 990.6289)">
					<stop  offset="0" style="stop-color:#000000"/>
					<stop  offset="0.1294" style="stop-color:#A2A2A2"/>
					<stop  offset="0.2353" style="stop-color:#DDDDDD"/>
					<stop  offset="0.3608" style="stop-color:#484848"/>
					<stop  offset="0.4784" style="stop-color:#FFFFFF"/>
					<stop  offset="0.7451" style="stop-color:#E6E6E6"/>
					<stop  offset="1" style="stop-color:#000000"/>
				</linearGradient>
				<rect x="792.15" y="815.1" fill="url(#SVGID_7_)" width="36.65" height="6.2"/>
			</g>
		</g>
		<g>
			<g>
				
					<radialGradient id="SVGID_8_" cx="111.2898" cy="301.5791" r="24.0249" gradientTransform="matrix(1 0 0 -0.3767 5.8101 931.1117)" gradientUnits="userSpaceOnUse">
					<stop  offset="0" style="stop-color:#000000"/>
					<stop  offset="1" style="stop-color:#070805;stop-opacity:0"/>
				</radialGradient>
				<polygon fill="url(#SVGID_8_)" points="147.1,814.1 147.1,835.8 87.4,835.4 87.4,813.65 				"/>
			</g>
			<g>
				<polygon fill="#585858" points="135.45,815.1 98.8,815.1 99.25,813.7 135,813.65 				"/>
				
					<linearGradient id="SVGID_9_" gradientUnits="userSpaceOnUse" x1="91.2903" y1="172.4292" x2="161.1903" y2="172.4292" gradientTransform="matrix(1 0 0 -1 5.8101 990.6289)">
					<stop  offset="0" style="stop-color:#000000"/>
					<stop  offset="0.1294" style="stop-color:#A2A2A2"/>
					<stop  offset="0.2353" style="stop-color:#DDDDDD"/>
					<stop  offset="0.3608" style="stop-color:#484848"/>
					<stop  offset="0.4784" style="stop-color:#FFFFFF"/>
					<stop  offset="0.7451" style="stop-color:#E6E6E6"/>
					<stop  offset="1" style="stop-color:#000000"/>
				</linearGradient>
				<rect x="98.8" y="815.1" fill="url(#SVGID_9_)" width="36.65" height="6.2"/>
			</g>
		</g>
		<g>
			<path fill="#9C3E14" d="M825.05,683.55c-8.33,0-16.73,0-25.2,0c-1.2,0-2.4,0-3.6,0c0-0.23,0-0.48,0-0.75c0-0.23,0-0.48,0-0.75
				c1.2,0,2.4,0,3.6,0c12.63-0.33,13.83-1.58,3.6-3.75c-1.2,0-2.4,0-3.6,0v-0.35c-8.3,0.13-14.28-0.98-17.95-3.35
				c-1.2,0-2.4,0-3.6,0c-1.2,0-2.4,0-3.6,0c-1.2,0-2.38-0.07-3.55-0.2c-1.23-0.1-2.45-0.28-3.65-0.55c-3.07-0.6-4.83-0.15-5.3,1.35
				c-0.1,0.1-0.72,0.15-1.85,0.15c-1.2,0-2.13-0.17-2.8-0.5c-2.3-1.33-4.98-2.42-8.05-3.25c-32.37,9.1-85.08,11.63-158.15,7.6
				c-1.2-0.03-2.42-0.05-3.65-0.05v-0.5c-3.57,0.23-5.97-0.12-7.2-1.05c-5.83-0.4-10.53-0.05-14.1,1.05c-0.17,0-0.25,0.17-0.25,0.5
				c-1.2,0-2.4,0-3.6,0c-39.97,1.47-77.13,0.95-111.5-1.55c-93.57,2.03-184.63,2.78-273.2,2.25c-1.23,0-2.47,0-3.7,0
				c0-0.23,0-0.47,0-0.7c-25.13,0-50.3,0-75.5,0c-1.2,0-2.38,0-3.55,0c-4.8,0-9.62,0-14.45,0c-1.2,0-2.4,0-3.6,0
				c0-0.33,0-0.62,0-0.85c-19.13,0-38.3,0.12-57.5,0.35v0.5c-6.07,0.03-11.82,0.23-17.25,0.6l4.9-9.45
				c44.63,0.83,89.5,0.78,134.6-0.15c1.2-0.03,2.4-0.05,3.6-0.05c1.17,0,2.38,0,3.65,0c2.4,0,4.78,0,7.15,0c0,0.23,0,0.52,0,0.85
				c-2.37,0-4.75,0-7.15,0c-1.27,0-2.48,0-3.65,0c-12,0-23.98,0.12-35.95,0.35v0.3h-1.8c17.53,2.17,36.1,2.17,55.7,0
				c1.2,0,2.4,0.03,3.6,0.1c17.7,0.73,35.68,0.48,53.95-0.75c1.2,0,2.38,0.03,3.55,0.1c8.8,0.83,17.22,0.8,25.25-0.1
				c1.2,0,2.38,0,3.55,0c85.8,0.43,171.23-0.28,256.3-2.15c-2.73-0.1-5.45-0.17-8.15-0.2c-50.27-0.87-99.42-1.1-147.45-0.7
				c1.23-0.97,3.63-1.45,7.2-1.45c48.53-0.47,97.02-1.2,145.45-2.2c-0.53-0.1-1.07-0.15-1.6-0.15c-47.8,0.43-94.55,0.2-140.25-0.7
				c-36.33,5.63-46.52,6.15-30.55,1.55h-1.8c-12-0.3-22.18-0.42-30.55-0.35c9.9-0.73,12.88-1.63,8.95-2.7
				c136.4-1.3,277.87-0.28,424.4,3.05c1.2,0,2.22-0.18,3.05-0.55c2.43-0.83,7.38-2.4,14.85-4.7c0-0.27,0.1-0.45,0.3-0.55
				c1.57-0.93,4.07-1.72,7.5-2.35h206.2l1.95,3.95c-69.93,1.37-139.5,2.25-208.7,2.65c70.57,1.43,140.92,2.13,211.05,2.1l1.7,3.35
				c-19.73,1.17-39.7,1.9-59.9,2.2c25.8,0.43,46.05,0.33,60.75-0.3l0.35,0.65c-15.77,1.3-33.13,1.75-52.1,1.35v0.4
				c20.53-0.13,38.22-0.07,53.05,0.2l0.9,1.8c-13.3,0.03-25.32,0.85-36.05,2.45c1.2,0,2.4-0.03,3.6-0.1c11.43-0.1,22.47-0.43,33.1-1
				l0.55,1.1c-18.07,0.83-17.82,1.35,0.75,1.55l1.5,3c-28.6,0.07-56.13,0.28-82.6,0.65c-0.23,0-0.47,0.02-0.7,0.05l-2.9-0.05
				c-21.6,0.27-43.18,0.5-64.75,0.7C827.45,683.53,826.25,683.55,825.05,683.55z M830.4,677.6c6.33,4.83,6.93,4.83,1.8,0H830.4z
				 M834,673.15c12.13,2,12.73,2,1.8,0H834z M741.45,666.45c0.3,0,0.58,0,0.85,0c62.97,0.83,80.95,0.33,53.95-1.5
				c-19.63-0.23-38.2,0.2-55.7,1.3c-2.63-0.4-3.47-0.42-2.5-0.05c0.27,0.03,0.53,0.1,0.8,0.2h0.05c9.5,3.03,11.83,3.28,7,0.75
				C744.13,666.88,742.65,666.65,741.45,666.45z M9.8,665.3l0.7-1.55c7.43-0.07,17.67-0.18,30.7-0.35c-8.1,2.27,3.85,2.9,35.85,1.9
				v-0.35c39.37,0.27,76.53-0.75,111.5-3.05c6.3,3.17,25.48,4.57,57.55,4.2c11.47-0.13,21.43-0.32,29.9-0.55
				c-2.1,0.43-2.48,0.97-1.15,1.6c35.1,0.37,26.72,1.35-25.15,2.95c-8.33,0-16.73,0-25.2,0c-1.2,0-2.4,0-3.6,0
				c-1.2,0-2.4,0.02-3.6,0.05c-9.47,0.4-17.85,0.15-25.15-0.75c-13.57,0.5-27.93,0.53-43.1,0.1c-1.27-0.07-2.48-0.1-3.65-0.1
				c-46,0-91.98,0.12-137.95,0.35L8,668.8c3.83-0.33,7.68-0.63,11.55-0.9c-1.2,0-2.28-0.17-3.25-0.5c-1.23-0.4,2.23-0.98,10.4-1.75
				c-1.2,0-2.38,0-3.55,0C17.95,665.55,13.5,665.43,9.8,665.3z M184.95,674.6c-1.13,0-2.27,0.08-3.4,0.25
				C169.55,676.78,170.68,676.7,184.95,674.6z M238.9,667.9c-1.2,0-2.18,0.17-2.95,0.5C232.32,670.13,233.3,669.97,238.9,667.9z
				 M508.6,664.1c1.2,0,2.38,0.05,3.55,0.15c22.63,0.33,44.22,0.05,64.75-0.85c-1.17,0-2.35,0-3.55,0
				C550.68,663.03,529.1,663.27,508.6,664.1z M404.3,674.6c22.67-1.63,61.07-1.88,115.2-0.75c57.13,1.13,82.28-0.35,75.45-4.45
				c-96.57,0-188.87,1.98-276.9,5.95C375.65,675.48,404.4,675.23,404.3,674.6z M659.6,670.95c-1.2,0-2.35,0.08-3.45,0.25
				C615.65,677.73,616.8,677.65,659.6,670.95z"/>
			<path fill="#A8451E" d="M834,673.15h1.8C846.73,675.15,846.13,675.15,834,673.15z"/>
			<path fill="#964317" d="M830.4,677.6h1.8C837.33,682.43,836.73,682.43,830.4,677.6z"/>
			<path fill="#A14318" d="M602.05,712.65c1.2,0,2.4,0,3.6,0c16.67,0.37,32.25,0.12,46.75-0.75c1.2,0,2.4,0,3.6,0
				c8.43,0,16.83,0,25.2,0v0.4c42.57-0.23,85.12-0.58,127.65-1.05c-1.77-0.1-3.57-0.15-5.4-0.15c-1.2,0-2.4,0-3.6,0
				c0-0.2-0.02-0.3-0.05-0.3c-16-0.47-30.35-1.1-43.05-1.9c-8.03-0.3-15.18,0.05-21.45,1.05c-0.07,0.1-0.1,0.27-0.1,0.5
				c-14.67,0.03-29.08,0.25-43.25,0.65c-1.17,0-2.35,0-3.55,0c0-0.2-0.1-0.33-0.3-0.4c-1-0.4-2.1-0.77-3.3-1.1
				c-18.9,0.57-40.45,0.97-64.65,1.2v0.3c-7.27,0-14.47,0-21.6,0c-1.2,0-2.4,0-3.6,0c-17.03,0.83-35.02,1.23-53.95,1.2v0.35
				c19.37,0.3,38.55,0.3,57.55,0C599.68,712.65,600.85,712.65,602.05,712.65z M-21.75,726.15l5.05-9.7c12.1,0,24.18,0,36.25,0
				c1.2,0,2.38,0,3.55,0c18,0,35.98,0,53.95,0c1.2,0,2.4,0,3.6,0c55.13,1.23,98.47,0.22,130-3.05c-3.43,2.07-2.78,2,1.95-0.2
				c1.6-0.2,3.17-0.38,4.7-0.55c1.2,0,2.4-0.03,3.6-0.1c11.6-0.17,11.6-1.15,0-2.95c-1.2,0-2.4,0-3.6,0s-2.4,0-3.6,0v-0.35
				c-38.5-0.27-93.63-0.88-165.4-1.85c-15.87,0.03-31.45,0.27-46.75,0.7c-1.2,0.1-2.38,0.15-3.55,0.15c-1.2,0-2.4,0-3.6,0
				c-1.2,0-2.4,0-3.6,0c-1.07,0-2.13,0-3.2,0l2.65-5.2c8.77-0.17,17.35-0.43,25.75-0.8c-8.43,0-16.87,0-25.3,0l1.2-2.45
				c4.5-0.17,8.92-0.37,13.25-0.6c-4.33,0-8.63,0-12.9,0l0.7-1.3c16.3,0.73,33.58,1.05,51.85,0.95c1.13,0,2.3,0.12,3.5,0.35
				c-1.2,0-2.37,0.07-3.5,0.2c-26.23,2.27-21.47,2.2,14.3-0.2c-1.2,0-2.4,0-3.6,0v-0.35c4.7,0.2,8.32-0.17,10.85-1.1
				c-24.03,0-48.02,0-71.95,0c-0.5,0-0.97,0-1.4,0l7.25-14.05c6.53-0.23,12.97-0.53,19.3-0.9c-6.27,0-12.55,0-18.85,0l0.4-0.65
				c14.23,0.1,28.8,0.07,43.7-0.1c1.13,0,2.3,0,3.5,0s2.4,0,3.6,0c8.4,0,16.78,0,25.15,0c1.2,0.27,2.4,0.4,3.6,0.4
				c94.7,0.7,189.93,0.65,285.7-0.15l21.55-0.05c5.4,0,10.87-0.07,16.4-0.2c1.2,0,2.4,0,3.6,0s2.4,0,3.6,0
				c109.07,0,218.13,0,327.2,0c17,0.9,34.98,1.17,53.95,0.8c1.2-0.03,2.4-0.05,3.6-0.05c0,0.27,0,0.52,0,0.75
				c0,0.27,0.05,0.4,0.15,0.4c11.4,1.3,20.95,1.17,28.65-0.4c1.2,0,2.4-0.02,3.6-0.05c21.57-0.2,43.15-0.43,64.75-0.7l2.9,0.05
				c60.07,0.93,86.68,1.82,79.85,2.65c-0.03,0-0.05,0.1-0.05,0.3c1.8,0,3.57-0.02,5.3-0.05l2.85,5.65
				c-21.87,3-36.58,4.62-44.15,4.85c22.53,1.83,14.37,4.02-24.5,6.55c26.07-0.97,50.37-1.9,72.9-2.8l2.1,4.35
				c-8.83,0.07-12.43,0.25-10.8,0.55c1.13,0.2,2.3,0.3,3.5,0.3c2.8,0.27,5.52,0.52,8.15,0.75l18,36.55c-49.47,0-98.95,0-148.45,0
				c-1.23,0-2.45,0-3.65,0c-30.47-0.1-60.38,0.27-89.75,1.1c-0.07,0-0.1,0.13-0.1,0.4c55.2-0.27,112.73-0.27,172.6,0
				c22.77,0.73,46.28,1.05,70.55,0.95l2.55,5.1c-62.83,0.43-125.55,1.02-188.15,1.75v0.4c0,0.23,0,0.47,0,0.7
				c-13.77,0-27.55,0.08-41.35,0.25l-45-0.25c-8.33,0-16.72,0-25.15,0c-1.2,0-2.4,0-3.6,0c-1.17-0.23-2.35-0.35-3.55-0.35
				c-113.5-0.6-227.38-1.47-341.65-2.6c-11.77,1.33-27.33,1.95-46.7,1.85v0.4c-7.23,0-14.43,0-21.6,0c-1.2,0-2.38,0-3.55,0
				c-13.27,0-26.48,0-39.65,0c-1.17,0-2.35,0-3.55,0c-18.03,0-36.02,0-53.95,0c-1.2,0-2.4,0-3.6,0c0-0.27,0-0.52,0-0.75
				c-18,0-35.98,0-53.95,0c-1.17,0-2.35,0-3.55,0c-1.2,0-2.4,0-3.6,0c-19.03,0.37-37.03,0.12-54-0.75c-8.37,0-16.75,0-25.15,0
				c-1.2,0-2.4,0-3.6,0c-18,0-35.97,0-53.9,0c-1.2,0-2.4,0-3.6,0c0-0.27,0-0.52,0-0.75c-8.23,0-16.5,0-24.8,0l3.15-6.1
				c13.9-0.67,14.22-1.28,0.95-1.85l0.05-0.05c7.57,0.07,14.45-0.23,20.65-0.9c-6.73,0-13.47,0-20.2,0l2.15-4.15
				c6.2-0.23,12.22-0.62,18.05-1.15c-5.8,0-11.62,0-17.45,0l1.05-2.15c49.87-1,99.68-0.8,149.45,0.6c1.47-0.83-2.13-1.8-10.8-2.9h9
				c-12.27-0.9-46.43-2.67-102.5-5.3C5.18,725.73-8.58,725.78-21.75,726.15z M857.35,714.9c-1.2,0-2.38,0-3.55,0
				C806.83,716.2,808.02,716.2,857.35,714.9z M738.7,685c-1.13,0-2.3,0-3.5,0c-19.1-0.37-37.1-0.1-54,0.8c1.2,0,2.4,0,3.6,0
				C703.8,686.17,721.77,685.9,738.7,685z M796.25,705.2c-26.33,0-52.7,0-79.1,0c-1.2,0-2.4,0-3.6,0c-5.97,0-11.97,0-18,0
				c-1.2,0-2.4,0-3.6,0c-18.3,1.73-14.68,2.35,10.85,1.85v-0.35c1.2,0,2.4,0.03,3.6,0.1c11.07,0.53,23.03,0.5,35.9-0.1
				c1.2,0,2.4,0,3.6,0c15.63,0,31.22,0,46.75,0c1.2,0,2.4,0.03,3.6,0.1c24.43,0.8,47.23,0.27,68.4-1.6c-21.63,0-43.23,0-64.8,0
				C798.65,705.2,797.45,705.2,796.25,705.2z M767.5,747.75c1.2,0,2.4,0,3.6,0c19,0.37,36.98,0.08,53.95-0.85c-1.2,0-2.4,0-3.6,0
				C802.45,746.53,784.47,746.82,767.5,747.75z M868.25,730.5c1.2,0,2.4,0,3.6,0c8.37,0,16.75,0,25.15,0
				c25.23,0.33,49.18-0.15,71.85-1.45c-1.17,0-2.35-0.02-3.55-0.05c-40.87-0.43-49.27-2.67-25.2-6.7
				c-62.27,2.6-122.22,5.05-179.85,7.35c-1.13,0.1-2.3,0.15-3.5,0.15c-40.3,0.6-39.1,1.1,3.6,1.5c1.13,0,2.32,0,3.55,0
				c1.2,0,2.4,0.03,3.6,0.1c20.17,1.73,40.55,1.2,61.15-1.6c10.97,0.87,22.97,1.12,36,0.75C865.85,730.52,867.05,730.5,868.25,730.5
				z M767.5,732.85c-1.2,0-2.37,0.02-3.5,0.05C744.1,734.37,745.27,734.35,767.5,732.85z M756.75,717.8h-1.8
				C759.52,720.67,760.12,720.67,756.75,717.8z M738.7,736.5c0,0.27,0.03,0.4,0.1,0.4c30.23,0.6,58.98,0.22,86.25-1.15
				C795.25,735.42,766.47,735.67,738.7,736.5z M857.35,749.95c1.2,0,2.42,0,3.65,0c17.83,0.37,34.62,0.1,50.35-0.8
				c-1.2,0-2.42,0-3.65,0C889.9,748.78,873.12,749.05,857.35,749.95z M882.55,723.1c-1.2,0-2.38-0.03-3.55-0.1
				c-26.33-1.27-53.92-2.72-82.75-4.35c13.23,1.23,16.83,2.22,10.8,2.95c-7.2,0.23-11.8,1.38-13.8,3.45
				C792.02,726.38,821.78,725.73,882.55,723.1z M968.85,687.35c-1.17,0-2.28,0.08-3.35,0.25
				C955.47,689.87,956.58,689.78,968.85,687.35z M907.7,716.45c-31.23,1.23-30.02,1.23,3.65,0
				C910.15,716.45,908.93,716.45,907.7,716.45z M918.55,696.45c-42.57,3.2-41.35,3.13,3.65-0.2
				C921,696.25,919.78,696.32,918.55,696.45z M943.7,715c-19.73,1.23-18.53,1.2,3.6-0.1C946.1,714.9,944.9,714.93,943.7,715z
				 M897.05,692.85c31.77-2.07,42.52-3.9,32.25-5.5c-49.17,0.47-91.12,1.68-125.85,3.65C835.38,694.2,866.58,694.82,897.05,692.85z
				 M911.35,735.75c1.2,0,2.4,0,3.6,0c19.03,0.37,37,0.13,53.9-0.7c-1.17,0-2.35-0.03-3.55-0.1
				C946.27,734.58,928.28,734.85,911.35,735.75z M911.35,738.7c1.2,0,2.4,0.02,3.6,0.05c28.57,0.37,56.12,0.12,82.65-0.75
				c-1.2,0-2.4,0-3.6,0C965.43,737.63,937.88,737.87,911.35,738.7z M897,732.85c-1.2,0-2.4,0.02-3.6,0.05
				C873.5,734.8,874.7,734.78,897,732.85z M997.6,728.3c-1.2,0-2.38,0.02-3.55,0.05C966.88,729.52,968.07,729.5,997.6,728.3z
				 M177.85,697.75c-13.27,0-26.48,0-39.65,0c-1.17,0-2.35,0-3.55,0c-19.2,0.23-38.38,0.6-57.55,1.1c-0.03,0-0.05,0.12-0.05,0.35
				c-1.2,0-2.27,0.13-3.2,0.4c-7.13,2.3-2.45,2.17,14.05-0.4c1.2,0,2.4,0.02,3.6,0.05c16.67,0.33,32.55,0.15,47.65-0.55
				c0.63,0,1.32-0.02,2.05-0.05c0.27,0,0.48,0,0.65,0s0.32,0,0.45,0c1.07-0.03,2.1-0.08,3.1-0.15c1.17,0,2.38,0,3.65,0
				c23.93,0,47.88,0,71.85,0c1.2,0,2.4,0,3.6,0c8.47,0,16.87,0,25.2,0c0,0.23,0.08,0.4,0.25,0.5c10.2,4.77,19.7,4.6,28.5-0.5
				c-4.8,0-9.58,0-14.35,0c-1.2,0-2.4,0-3.6,0v-0.4c-4.73,0.13-8.33-0.23-10.8-1.1c-24,0-47.95,0.12-71.85,0.35V697.75z
				 M184.95,693.2c-1.13,0-2.25,0.17-3.35,0.5C172,696,173.12,695.83,184.95,693.2z M220.9,693.2c1.2,0,2.4,0.05,3.6,0.15
				c19.07,0.3,37.05,0.02,53.95-0.85c-1.23,0-2.43,0-3.6,0C255.85,692.13,237.87,692.37,220.9,693.2z M105.85,702.25
				c-27.57,0-55.15,0-82.75,0c-1.17,0-2.35,0-3.55,0c26.43,0.87,52.8,1.55,79.1,2.05c3.57,0.03,5.97-0.43,7.2-1.4
				c1.2,0,2.4,0.05,3.6,0.15c25.83,0.27,30.63-0.28,14.4-1.65c-6.03,0-12.02,0.17-17.95,0.5
				C105.87,701.9,105.85,702.02,105.85,702.25z M134.65,735.75c-1.2,0-2.4,0-3.6,0c-19.03-0.33-37.03-0.08-54,0.75
				c1.2,0,2.4,0.02,3.6,0.05C99.68,736.92,117.68,736.65,134.65,735.75z M105.85,741.75c1.2,0,2.4,0,3.6,0
				c19.03,0.37,37,0.13,53.9-0.7c-1.2,0-2.38-0.03-3.55-0.1C140.8,740.58,122.82,740.85,105.85,741.75z M256.8,723.1
				c-1.17,0-2.33-0.07-3.5-0.2c-1.2-0.1-2.4-0.3-3.6-0.6c-69.07,1.43-136.2,1.82-201.4,1.15v0.35c96.53,2.4,172.82,3.9,228.85,4.5
				l1.3,3c14.83,3.87,31.18,4.08,49.05,0.65c9.8-1.83,17.42-4.05,22.85-6.65c-21.9-2-45.87-2.77-71.9-2.3c-2.4,0.07-4.8,0.1-7.2,0.1
				c23.97-4.13,50.42-5.43,79.35-3.9h0.1c0.4,0,0.8,0,1.2,0c49.73,2.53,67.2,4.07,52.4,4.6h-5.45c26.7,4.47,41.7,4.47,45,0
				c-1.2,0-2.23-0.13-3.1-0.4c-14.5-5.2-49.42-7.52-104.75-6.95c-73.83,0.8-149.35,1.25-226.55,1.35c-1.2,0-2.4,0-3.6,0
				c46.87,3.37,96,4.22,147.4,2.55C256.48,720.18,257.67,721.1,256.8,723.1z M77.05,743.25c1.2,0,2.4,0,3.6,0
				c28.6,0.37,56.17,0.12,82.7-0.75c-1.2,0-2.38,0-3.55,0C131.17,742.13,103.58,742.38,77.05,743.25z M220.9,751.45
				c1.2,0,2.4,0,3.6,0c23.8,0.37,46.6,0.12,68.4-0.75c-1.2,0-2.4,0-3.6,0C265.43,750.33,242.63,750.58,220.9,751.45z M368.35,705.95
				c-1.2,0-2.4,0.05-3.6,0.15C336.45,707.6,337.65,707.55,368.35,705.95z M364.75,699.2c-1.2,0-2.4,0-3.6,0
				c-21.37-0.37-41.75-0.1-61.15,0.8c1.2,0,2.4,0,3.6,0C325.07,700.33,345.45,700.07,364.75,699.2z M364.75,695.55v-0.5
				c-23.8,0.13-46.57-0.2-68.3-1c-1.2,0-2.38-0.03-3.55-0.1c-20.3-0.33-39.5-0.08-57.6,0.75c4,0,7.62,0.07,10.85,0.2
				C282.62,696.1,322.15,696.32,364.75,695.55z M249.7,688.8c-1.2,0-2.4,0.02-3.6,0.05C218.03,690.22,219.23,690.2,249.7,688.8z
				 M271.25,714.9v0.35c50.9,0.27,84.47-0.6,100.7-2.6C334.82,711.82,301.25,712.57,271.25,714.9z M256.8,712.65
				c-1.17,0-2.33,0.07-3.5,0.2C226.23,715.75,227.4,715.68,256.8,712.65z M303.65,701.6c-26.37,2.03-25.18,1.97,3.55-0.2
				C306,701.4,304.82,701.47,303.65,701.6z M505,688.8c-1.2,0-2.4,0.05-3.6,0.15C456.43,692.12,457.63,692.07,505,688.8z
				 M497.85,706.15c-22.27,2.4-21.08,2.33,3.55-0.2C500.2,705.95,499.02,706.02,497.85,706.15z M515.75,695.55
				c-1.2,0-2.37,0.02-3.5,0.05c-27.2,1.93-54.77,2.9-82.7,2.9c0,0.23,0.02,0.35,0.05,0.35
				C469.77,700.92,498.48,699.82,515.75,695.55z M508.6,685c-1.2,0-2.4,0.02-3.6,0.05c-32.43,0.57-63.6,0.82-93.5,0.75v0.35
				C445.93,687.18,478.3,686.8,508.6,685z M505,702.9c12.7-0.07,25.88-0.07,39.55,0c62,0.37,77.6-0.6,46.8-2.9c-1.2,0-2.42,0-3.65,0
				C560.37,700,532.8,700.97,505,702.9z M537.4,695.55c-1.2,0-2.15,0.13-2.85,0.4C527.55,699.58,528.5,699.45,537.4,695.55z
				 M425.95,695.55c0,0.23,0.02,0.35,0.05,0.35c19.13,1.33,37.1,0.93,53.9-1.2C460.87,694.33,442.88,694.62,425.95,695.55z
				 M418.65,698.6c-27.47,1.03-26.27,1,3.6-0.1C421.05,698.5,419.85,698.53,418.65,698.6z M422.25,705.95c-1.2,0-2.38,0-3.55,0
				C382.77,707.78,383.95,707.78,422.25,705.95z M443.85,712.65c-1.2,0-2.32,0.12-3.35,0.35
				C429.43,715.47,430.55,715.35,443.85,712.65z M451.05,713.4c1.23,0,2.45,0.02,3.65,0.05c24.1,0.47,49.25-0.05,75.45-1.55
				C501.68,711.17,475.32,711.67,451.05,713.4z M440.25,709.6c-1.2,0-2.25,0.18-3.15,0.55C430.4,712.48,431.45,712.3,440.25,709.6z
				 M451.05,735.75c1.23,0,2.45,0,3.65,0c19.03,0.37,37,0.13,53.9-0.7c-1.2,0-2.4-0.03-3.6-0.1
				C486,734.58,468.02,734.85,451.05,735.75z M544.55,718.65c-1.2,0-2.38,0-3.55,0c-1.2,0-2.4,0-3.6,0c0-0.23,0-0.52,0-0.85
				c-18,0-35.97,0-53.9,0c-1.2,0-2.4,0-3.6,0c-37.13,2.13-37.15,2.78-0.05,1.95c0.03,0,0.05-0.13,0.05-0.4c1.2,0,2.4,0,3.6,0
				c1.13,0,2.3,0,3.5,0c9.3,1.7,28.48,1.97,57.55,0.8c1.2-0.03,2.4-0.05,3.6-0.05s2.38,0.03,3.55,0.1
				c7.83,0.53,13.87,0.02,18.1-1.55c-7.27,0-14.48,0-21.65,0C546.95,718.65,545.75,718.65,544.55,718.65z M476.25,691.9
				c-27.63,1.43-26.42,1.4,3.65-0.1C478.67,691.8,477.45,691.83,476.25,691.9z M681.2,696.25l-21.3-0.55
				C700.73,697.83,707.83,698.02,681.2,696.25z M681.2,699.2c-1.17,0-2.33,0.07-3.5,0.2C651.7,702.3,652.87,702.23,681.2,699.2z
				 M566.15,685v0.5c20.17,0.27,39.33-0.13,57.5-1.2C603.38,683.93,584.22,684.17,566.15,685z M566.15,697.75v0.35
				c25.87,0.7,43.87,0.08,54-1.85C600.02,695.45,582.02,695.95,566.15,697.75z M627.25,705.95c-1.2,0-2.37,0-3.5,0
				C588.02,707.12,589.18,707.12,627.25,705.95z M648.85,731.3c1.2,0,2.38,0,3.55,0c53.6-0.3,60.82-1.05,21.65-2.25
				c-7.23,0-14.42,0.13-21.55,0.4c-0.07,0-0.1,0.12-0.1,0.35c-19.1,0-38.25,0.12-57.45,0.35v0.35c15.67,0.9,32.45,1.17,50.35,0.8
				C646.47,731.3,647.65,731.3,648.85,731.3z M659.6,734.2c-6.63,1.47,0.55,1.87,21.55,1.2c0.03,0,0.05-0.12,0.05-0.35
				c1.2,0,2.4,0,3.6,0c19.8,0.6,37.77,0.1,53.9-1.5c-24.33,0.73-49.5,0.95-75.5,0.65C662,734.2,660.8,734.2,659.6,734.2z
				 M400.75,702.9c-1.2,0-2.3,0.17-3.3,0.5C389.18,705.73,390.28,705.57,400.75,702.9z M48.3,694.05c0,0.2,0.02,0.3,0.05,0.3
				c62.8,1.2,81.97,0.82,57.5-1.15C85.72,692.93,66.53,693.22,48.3,694.05z M48.3,736.5c-1.2,0-2.37,0-3.5,0
				c-19.1-0.37-37.1-0.12-54,0.75c1.2,0,2.4,0,3.6,0C13.4,737.62,31.37,737.37,48.3,736.5z M73.6,684.6
				c-21.23,3.63-20.08,3.53,3.45-0.3C75.85,684.3,74.7,684.4,73.6,684.6z"/>
			<path fill="#8D360C" d="M681.2,711.9c0-0.3,0.05-0.45,0.15-0.45c2.3-0.23,4.65-0.35,7.05-0.35c1.2,0,2.38,0,3.55,0
				c14.17-0.4,28.58-0.62,43.25-0.65c19.37,0.8,39.72,1.07,61.05,0.8c1.2-0.1,2.4-0.15,3.6-0.15s2.4,0,3.6,0
				c1.83,0,3.63,0.05,5.4,0.15c-42.53,0.47-85.08,0.82-127.65,1.05V711.9L681.2,711.9z"/>
			<path fill="#A84B23" d="M857.35,714.9c-49.33,1.3-50.52,1.3-3.55,0C854.97,714.9,856.15,714.9,857.35,714.9z"/>
			<path fill="#913308" d="M741.45,666.45c1.2,0.2,2.68,0.43,4.45,0.7c4.83,2.53,2.5,2.28-7-0.75h-0.05c-0.27-0.1-0.53-0.17-0.8-0.2
				c-0.97-0.37-0.13-0.35,2.5,0.05c-0.31,0.09-0.63,0.14-0.95,0.15C740.19,666.4,740.81,666.42,741.45,666.45z"/>
			<path fill="#933207" d="M740.55,666.25c17.5-1.1,36.07-1.53,55.7-1.3c27,1.83,9.02,2.33-53.95,1.5c-0.27,0-0.55,0-0.85,0
				c-0.64-0.03-1.26-0.05-1.85-0.05C739.92,666.39,740.24,666.34,740.55,666.25z M508.6,664.1c20.5-0.83,42.08-1.07,64.75-0.7
				c1.2,0,2.38,0,3.55,0c-20.53,0.9-42.12,1.18-64.75,0.85C510.98,664.15,509.8,664.1,508.6,664.1z"/>
			<path fill="#A03D13" d="M737.8,656.8c-3.93,4.13-4.42,4.13-1.45,0H737.8z"/>
			<path fill="#A8461B" d="M301.85,664.6c-13.73-0.07-22.35,0.25-25.85,0.95c-8.47,0.23-18.43,0.42-29.9,0.55
				c-32.07,0.37-51.25-1.03-57.55-4.2c-34.97,2.3-72.13,3.32-111.5,3.05v-0.35c-10.6,0.1-20.18-0.3-28.75-1.2c-1.2,0-2.37,0-3.5,0
				c-1.2,0-2.4,0-3.6,0c-13.03,0.17-23.27,0.28-30.7,0.35l3.6-6.95h274.15c22.37,0.33,41.27,0.33,56.7,0h391.4
				c-2.97,4.13-2.48,4.13,1.45,0h23.1c-3.43,0.63-5.93,1.42-7.5,2.35c-0.2,0.1-0.3,0.28-0.3,0.55c-7.47,2.3-12.42,3.87-14.85,4.7
				c-0.83,0.37-1.85,0.55-3.05,0.55c-146.53-3.33-288-4.35-424.4-3.05C314.73,662.97,311.75,663.87,301.85,664.6z M8,668.8l1.8-3.5
				c3.7,0.13,8.15,0.25,13.35,0.35c1.17,0,2.35,0,3.55,0c-8.17,0.77-11.63,1.35-10.4,1.75c0.97,0.33,2.05,0.5,3.25,0.5
				C15.68,668.17,11.83,668.47,8,668.8z"/>
			<path fill="#8A370F" d="M566.15,679.15c1.23,0,2.45,0,3.65,0c5.93,0,11.9,0,17.9,0c1.23,0,2.45,0.02,3.65,0.05
				c73.07,4.03,125.78,1.5,158.15-7.6c3.07,0.83,5.75,1.92,8.05,3.25c0.67,0.33,1.6,0.5,2.8,0.5c4.43,6.03,15.23,8.33,32.4,6.9
				c1.13-0.13,2.3-0.2,3.5-0.2c0,0.27,0,0.52,0,0.75c-1.2,0-2.4,0.02-3.6,0.05c-18.97,0.37-36.95,0.1-53.95-0.8
				c-109.07,0-218.13,0-327.2,0c-1.2,0-2.4,0-3.6,0s-2.4,0-3.6,0c-5.53,0.13-11,0.2-16.4,0.2l-21.55,0.05
				c-9.1-0.27-18.02-0.58-26.75-0.95c-47.07,0.77-95.02,1-143.85,0.7c-1.2,0-2.4,0-3.6,0c0-0.23,0.05-0.35,0.15-0.35
				c5.4-0.6-0.65-1.22-18.15-1.85c1.23,0,2.47,0,3.7,0c88.57,0.53,179.63-0.22,273.2-2.25c34.37,2.5,71.53,3.02,111.5,1.55
				C563.75,679.15,564.95,679.15,566.15,679.15z"/>
			<path fill="#7E2B03" d="M796.25,682.05c-1.2,0-2.37,0.07-3.5,0.2c-17.17,1.43-27.97-0.87-32.4-6.9c1.13,0,1.75-0.05,1.85-0.15
				c0.47-1.5,2.23-1.95,5.3-1.35c1.2,0.27,2.42,0.45,3.65,0.55c1.17,0.13,2.35,0.2,3.55,0.2c2.9,3.8,10.12,5.1,21.65,3.9
				c1.13-0.13,2.3-0.2,3.5-0.2s2.4,0,3.6,0c10.23,2.17,9.03,3.42-3.6,3.75C798.65,682.05,797.45,682.05,796.25,682.05z"/>
			<path fill="#AA4D22" d="M738.7,685c-16.93,0.9-34.9,1.17-53.9,0.8c-1.2,0-2.4,0-3.6,0c16.9-0.9,34.9-1.17,54-0.8
				C736.4,685,737.57,685,738.7,685z"/>
			<path fill="#7C3409" d="M742.3,706.7c-12.87,0.6-24.83,0.63-35.9,0.1c-1.2-0.07-2.4-0.1-3.6-0.1c-1.2,0-2.4,0-3.6,0
				c-3.27,0-5.68-0.5-7.25-1.5c1.2,0,2.4,0,3.6,0c6.03,0,12.03,0,18,0c7.33,0.87,15.75,1.12,25.25,0.75c1.13,0,2.3,0,3.5,0
				C742.3,706.18,742.3,706.43,742.3,706.7z"/>
			<path fill="#843612" d="M792.65,705.95c0,0.23,0,0.48,0,0.75c-15.53,0-31.12,0-46.75,0c-1.2,0-2.4,0-3.6,0c0-0.27,0-0.52,0-0.75
				c1.2,0,2.4,0,3.6,0C761.53,705.95,777.12,705.95,792.65,705.95z"/>
			<path fill="#722401" d="M713.55,705.2c1.2,0,2.4,0,3.6,0c26.4,0,52.77,0,79.1,0c0,0.23-0.07,0.37-0.2,0.4
				c-1.07,0.23-2.2,0.35-3.4,0.35c-15.53,0-31.12,0-46.75,0c-1.2,0-2.4,0-3.6,0c-1.2,0-2.37,0-3.5,0
				C729.3,706.32,720.88,706.07,713.55,705.2z"/>
			<path fill="#9B3B09" d="M735.2,710.45c0-0.23,0.03-0.4,0.1-0.5c6.27-1,13.42-1.35,21.45-1.05c12.7,0.8,27.05,1.43,43.05,1.9
				c0.03,0,0.05,0.1,0.05,0.3c-1.2,0-2.4,0.05-3.6,0.15C774.92,711.52,754.57,711.25,735.2,710.45z"/>
			<path fill="#8C360D" d="M799.85,678.3c-1.2,0-2.37,0.07-3.5,0.2c-11.53,1.2-18.75-0.1-21.65-3.9c1.2,0,2.4,0,3.6,0
				c1.2,0,2.4,0,3.6,0c3.67,2.37,9.65,3.48,17.95,3.35V678.3L799.85,678.3z"/>
			<path fill="#A84C22" d="M825.05,683.55c-7.7,1.57-17.25,1.7-28.65,0.4c-0.1,0-0.15-0.13-0.15-0.4c1.2,0,2.4,0,3.6,0
				C808.32,683.55,816.72,683.55,825.05,683.55z"/>
			<path fill="#93350C" d="M792.65,705.95c1.2,0,2.33-0.12,3.4-0.35c0.13-0.03,0.2-0.17,0.2-0.4c1.2,0,2.4,0,3.6,0
				c21.57,0,43.17,0,64.8,0c-21.17,1.87-43.97,2.4-68.4,1.6c-1.2-0.07-2.4-0.1-3.6-0.1C792.65,706.43,792.65,706.18,792.65,705.95z"
				/>
			<path fill="#923711" d="M767.5,732.85c-22.23,1.5-23.4,1.52-3.5,0.05C765.13,732.87,766.3,732.85,767.5,732.85z"/>
			<path fill="#8F380E" d="M763.9,731.3V731c-3.53,0.13-5.92-0.27-7.15-1.2c1.2,0,2.37-0.05,3.5-0.15
				c57.63-2.3,117.58-4.75,179.85-7.35c-24.07,4.03-15.67,6.27,25.2,6.7c1.2,0.03,2.38,0.05,3.55,0.05
				c-22.67,1.3-46.62,1.78-71.85,1.45c0-0.23,0.02-0.35,0.05-0.35c3.17-0.23,5.52-0.85,7.05-1.85c-49.83,0-61.8,0.62-35.9,1.85
				c0.03,0,0.05,0.12,0.05,0.35c-1.2,0-2.4,0.02-3.6,0.05c-13.03,0.37-25.03,0.12-36-0.75c-20.6,2.8-40.98,3.33-61.15,1.6
				C766.3,731.33,765.1,731.3,763.9,731.3z"/>
			<path fill="#842C07" d="M763.9,731.3c-1.23,0-2.42,0-3.55,0c-42.7-0.4-43.9-0.9-3.6-1.5c1.23,0.93,3.62,1.33,7.15,1.2V731.3
				L763.9,731.3z"/>
			<path fill="#96370C" d="M857.35,742.5c25.37,0.87,51.75,1.12,79.15,0.75c1.2,0,2.4,0,3.6,0c0,0.23,0,0.48,0,0.75
				c-59.87-0.27-117.4-0.27-172.6,0c0-0.27,0.03-0.4,0.1-0.4C796.97,742.77,826.88,742.4,857.35,742.5z"/>
			<path fill="#98370C" d="M767.5,747.75c16.97-0.93,34.95-1.22,53.95-0.85c1.2,0,2.4,0,3.6,0c-16.97,0.93-34.95,1.22-53.95,0.85
				C769.9,747.75,768.7,747.75,767.5,747.75z M105.85,702.9c0-0.23,0-0.45,0-0.65c0-0.23,0.02-0.35,0.05-0.35
				c5.93-0.33,11.92-0.5,17.95-0.5c16.23,1.37,11.43,1.92-14.4,1.65C108.25,702.95,107.05,702.9,105.85,702.9z"/>
			<path fill="#9A3E14" d="M681.2,767.1c-18,0-35.98,0-53.95,0c-1.2,0-2.4,0-3.6,0c-7.33-0.83-15.68-1.38-25.05-1.65l-13.05-0.35
				c10.93-0.23,2.05-0.83-26.65-1.8c-7.17,0-14.32,0.17-21.45,0.5c-0.03,0-0.05,0.12-0.05,0.35c-2.4,0-4.82,0-7.25,0
				c-1.17,0-2.35,0-3.55,0c0-0.23,0-0.52,0-0.85c-41.57,1.33-85.93,2.23-133.1,2.7v0.35c-24-0.23-46.78,0.22-68.35,1.35
				c-1.2,0.1-2.37,0.15-3.5,0.15c-43.83,0.6-86.98,1.7-129.45,3.3c-0.03,0-0.05,0.12-0.05,0.35c33.5-0.23,68.27,0.23,104.3,1.4
				c3.53,0.1,7.12,0.15,10.75,0.15c1.2,0,2.4,0.03,3.6,0.1c19.13,0.6,37.12,0.33,53.95-0.8c38.53,2.07,78.12,2.33,118.75,0.8
				c1.13-0.07,2.3-0.1,3.5-0.1c0,0.27,0.03,0.4,0.1,0.4c39.03,1.33,49.78,1.2,32.25-0.4h-1.8c13.83-1.93,42-2.9,84.5-2.9
				c-10.13,2.83,2.25,4.55,37.15,5.15c-55.67,0.2-102.47,0.87-140.4,2H159c-2.07-0.13-4.18-0.3-6.35-0.5c1.2,0,2.38,0,3.55,0
				c11.13,0.2,20.72-0.55,28.75-2.25c-25.9-0.63-37.95-0.08-36.15,1.65c0.17,0.17,0.25,0.37,0.25,0.6c-1.27,0-2.48,0-3.65,0
				c-34.13,0.5-65.3,0-93.5-1.5c-33.67,0.77-48.3,1.43-43.9,2h-44v-6.55c76.77-0.73,146.82-3.22,210.15-7.45
				c-22.07-0.4-43.98-0.85-65.75-1.35c0.37,0,0.72,0,1.05,0c18.87,0,36.83-0.52,53.9-1.55c1.2,0,2.38,0.05,3.55,0.15
				c4.6,0.63,7.02,0.08,7.25-1.65c-13.13,0-26.3,0.12-39.5,0.35v0.4c-1.2,0-2.4,0-3.6,0c-28.47,0.97-56.05,0.72-82.75-0.75
				c-28.57,0.27-56.65,0.87-84.25,1.8v-7c3.77,1.07,9.03,1.18,15.8,0.35c0.03,0,0.05-0.12,0.05-0.35c1.2,0,2.43,0,3.7,0
				c2.4,0,4.8,0,7.2,0c-1.23,0.47-1.83,0.93-1.8,1.4h1.8c0,0.33,0,0.62,0,0.85c-5.8,1.6,13.37,1.93,57.5,1v-0.35c1.2,0,2.4,0,3.6,0
				c4.8,0,9.62,0,14.45,0c1.2,0,2.37,0,3.5,0c10.8,0,21.6,0,32.4,0c0,0.23,0.07,0.4,0.2,0.5c1.07,0.2,2.2,0.3,3.4,0.3v0.4
				c29.8,0.6,58.57,0.47,86.3-0.4c-18,0-35.98,0-53.95,0c-1.17,0-2.35,0-3.55,0c0-0.3,0-0.57,0-0.8c1.2,0,2.38,0.05,3.55,0.15
				c48.57,0.5,95.32-0.05,140.25-1.65c-8.33,0-16.73,0-25.2,0c-1.17,0-2.35,0-3.55,0c0-0.23,0-0.47,0-0.7c0-0.23,0-0.47,0-0.7
				c1.2,0,2.38,0,3.55,0c8.47,0,16.87,0,25.2,0c0,0.23,0.02,0.35,0.05,0.35c14.2,0.6,27.38,0.48,39.55-0.35c1.2,0,2.4,0,3.6,0
				c38.33,0,76.68,0,115.05,0c1.17,0,2.35,0,3.55,0c14.23,0.33,27.45,0.07,39.65-0.8c1.2,0,2.4,0,3.6,0c14.33,0,28.7,0,43.1,0
				c28.97,0.87,58.92,1.13,89.85,0.8c1.27,0,2.5,0,3.7,0c0,0.23,0,0.47,0,0.7c-17.3,0.43-35.3,0.55-54,0.35v0.35
				c18.07,0.93,37.23,1.22,57.5,0.85c1.2,0,2.4,0,3.6,0c8.4,0,16.78,0,25.15,0c-7.7,0.4-15.62,0.72-23.75,0.95
				c53.53,0.87,106.42,1.78,158.65,2.75h-1.8c-7.47,1.2,15.28,1.68,68.25,1.45c21.57-0.03,23.98-0.27,7.25-0.7
				c-35.43-1-21.07-1.38,43.1-1.15c36.1,0.17,73.07,0.48,110.9,0.95v6.35c-6.3,0-12.1-0.32-17.4-0.95c-19.13,0-38.3,0.13-57.5,0.4
				v0.35c24.4,0.6,49.37,0.87,74.9,0.8v3.65c-4.6,0-9.2,0-13.8,0c-1.2,0-2.4,0-3.6,0c-2.4,0-4.78,0-7.15,0c-1.2,0-2.38,0-3.55,0
				c-1.2,0-2.4,0-3.6,0c-81.07-1.77-162.6-3.25-244.6-4.45c-19.17,0-38.33,0.12-57.5,0.35V767.1L681.2,767.1z M767.5,764.8
				c1.2,0,2.4,0,3.6,0c19,0.37,36.98,0.15,53.95-0.65c-1.2,0-2.4-0.03-3.6-0.1C802.45,763.68,784.47,763.93,767.5,764.8z
				 M940.1,763.3c1.2,0,2.4,0.05,3.6,0.15c19.03,0.33,37,0.05,53.9-0.85c-1.2,0-2.4,0-3.6,0
				C975.03,762.23,957.07,762.47,940.1,763.3z M904.1,764.15l-8.1-0.2C919.93,766.98,922.63,767.05,904.1,764.15z M911.35,760.4
				c-1.2,0-2.35,0.1-3.45,0.3C882.43,764.57,883.58,764.47,911.35,760.4z M105.85,758.15c-1.2,0-2.4-0.03-3.6-0.1
				c-15.4-0.27-29.78,0.02-43.15,0.85c1.2,0,2.4,0.02,3.6,0.05C78.13,759.25,92.52,758.98,105.85,758.15z M198.55,762.2l15.15-1.8
				C178.07,761.33,173.02,761.93,198.55,762.2z M220.9,766.35c1.2,0,2.4,0,3.6,0c19.07,0.37,37.05,0.12,53.95-0.75
				c-1.23,0-2.43,0-3.6,0C255.85,765.23,237.87,765.48,220.9,766.35z M174.2,771.05c-19.8,1.87-18.58,1.78,3.65-0.25
				C176.62,770.8,175.4,770.88,174.2,771.05z M278.45,762.6c1.2,0,2.4,0.03,3.6,0.1c20.1,0.73,38.08,0.2,53.95-1.6
				c-1.2,0-2.4,0-3.6,0C313.5,761.1,295.52,761.6,278.45,762.6z M260.5,773.8c-1.2,0-2.4,0.02-3.6,0.05
				C224.03,775.42,225.23,775.4,260.5,773.8z M364.75,761.95v0.3c25.37,0.6,43.33-0.02,53.9-1.85
				C398.62,759.63,380.65,760.15,364.75,761.95z M558.9,755.1c-1.2,0-2.4,0-3.6,0c-16.57-0.33-32.13-0.05-46.7,0.85
				c1.2,0,2.38,0,3.55,0C528.85,756.32,544.43,756.03,558.9,755.1z M515.75,758.15c-1.2,0-2.37,0.03-3.5,0.1
				C488.82,760.15,489.98,760.12,515.75,758.15z M623.65,765.6c1.2,0,2.4,0.02,3.6,0.05c19,0.37,36.98,0.08,53.95-0.85
				c-1.17,0-2.35,0-3.55,0C658.55,764.5,640.55,764.77,623.65,765.6z M-16.4,774.55l-1.9,0.4c10.43-0.27,39.13-0.65,86.1-1.15
				c-13.2-0.37-25.7-1.13-37.5-2.3c-2.4,0-4.8,0.05-7.2,0.15C-12.37,772.25-25.53,773.22-16.4,774.55z M33.95,770.8v0.35
				c44.47,0.07,87.6-0.78,129.4-2.55C118.48,768.3,75.35,769.03,33.95,770.8z"/>
			<path fill="#923107" d="M767.5,764.8c16.97-0.87,34.95-1.12,53.95-0.75c1.2,0.07,2.4,0.1,3.6,0.1
				c-16.97,0.8-34.95,1.02-53.95,0.65C769.9,764.8,768.7,764.8,767.5,764.8z"/>
			<path fill="#7D2D0C" d="M623.65,755.95c0-0.23-0.1-0.42-0.3-0.55c-0.93-0.43-2-0.77-3.2-1c1.2,0,2.37,0,3.5,0
				c20.2,0.37,39.38,0.13,57.55-0.7c1.2,0,2.4,0,3.6,0c9.43,0.33,17.82,0.07,25.15-0.8c1.2,0,2.4,0,3.6,0c8.43,0,16.82,0,25.15,0
				l45,0.25c40.8,0.6,82.13,0.78,124,0.55c1.23,0,2.45,0,3.65,0c9.7,0.83,20.48,1.07,32.35,0.7c1.2,0,2.4,0,3.6,0c1.2,0,2.4,0,3.6,0
				c6,0,11.98,0,17.95,0c0,0.23,0,0.47,0,0.7c-17.07,0-17.58,0.67-1.55,2l5.15,1.05c13.5,0.67,27.68,0.97,42.55,0.9v1.15
				c-37.83-0.47-74.8-0.78-110.9-0.95c-64.17-0.23-78.53,0.15-43.1,1.15c16.73,0.43,14.32,0.67-7.25,0.7
				c-52.97,0.23-75.72-0.25-68.25-1.45h1.8c-52.23-0.97-105.12-1.88-158.65-2.75c8.13-0.23,16.05-0.55,23.75-0.95
				c-8.37,0-16.75,0-25.15,0C626.05,755.95,624.85,755.95,623.65,755.95z M796.25,757.4c-1.2,0-2.4,0-3.6,0
				c-18.97-0.37-36.95-0.12-53.95,0.75c1.2,0,2.4,0,3.6,0C761.33,758.52,779.32,758.27,796.25,757.4z"/>
			<path fill="#863718" d="M796.25,757.4c-16.93,0.87-34.92,1.12-53.95,0.75c-1.2,0-2.4,0-3.6,0c17-0.87,34.98-1.12,53.95-0.75
				C793.85,757.4,795.05,757.4,796.25,757.4z"/>
			<path fill="#96380D" d="M738.7,736.5c27.77-0.83,56.55-1.08,86.35-0.75c-27.27,1.37-56.02,1.75-86.25,1.15
				C738.73,736.9,738.7,736.77,738.7,736.5z"/>
			<path fill="#913A0F" d="M756.75,717.8c3.37,2.87,2.77,2.87-1.8,0H756.75z M882.55,723.1c-60.77,2.63-90.53,3.28-89.3,1.95
				c2-2.07,6.6-3.22,13.8-3.45c6.03-0.73,2.43-1.72-10.8-2.95c28.83,1.63,56.42,3.08,82.75,4.35
				C880.17,723.07,881.35,723.1,882.55,723.1z"/>
			<path fill="#A7471B" d="M764,777.3c1.2-0.13,2.37-0.3,3.5-0.5c-5.97,0.1-11.9,0.25-17.8,0.45l-81.9,0.05
				c-1.53-0.13-3.07-0.3-4.6-0.5c-15.37-0.37-29.85-0.2-43.45,0.5H498.8c37.93-1.13,84.73-1.8,140.4-2
				c-34.9-0.6-47.28-2.32-37.15-5.15c-42.5,0-70.67,0.97-84.5,2.9h1.8c17.53,1.6,6.78,1.73-32.25,0.4c-0.07,0-0.1-0.13-0.1-0.4h6
				c-48.23-1.07-53.82-2.55-16.75-4.45c1.2,0,2.42,0,3.65,0c22.5,0.2,32.07-0.55,28.7-2.25c-9.6,0-19.17,0.12-28.7,0.35v0.4
				c-1.23,0-2.45,0.02-3.65,0.05c-6.97,0.3-12.95,0.03-17.95-0.8c-20.37,0-40.75,0-61.15,0c-1.2,0-2.42,0-3.65,0V766
				c47.17-0.47,91.53-1.37,133.1-2.7c0,0.33,0,0.62,0,0.85h-1.8c5.13,3.2,15.3,3.2,30.5,0c-4.77,0-9.53,0-14.3,0c-1.2,0-2.4,0-3.6,0
				c0-0.23,0.02-0.35,0.05-0.35c7.13-0.33,14.28-0.5,21.45-0.5c28.7,0.97,37.58,1.57,26.65,1.8l13.05,0.35
				c9.37,0.27,17.72,0.82,25.05,1.65h-1.7c4.67,1.07,29.82,1.12,75.45,0.15c-4.17-0.1-8.37-0.15-12.6-0.15c-1.2,0-2.4,0-3.6,0v-0.4
				c19.17-0.23,38.33-0.35,57.5-0.35c82,1.2,163.53,2.68,244.6,4.45c1.2,0,2.4,0,3.6,0c0,0.23,0.02,0.35,0.05,0.35
				c22.93,2.2,26.48,2.08,10.65-0.35c1.2,0,2.4,0,3.6,0c4.6,0,9.2,0,13.8,0v6.5H848.05c1.9-0.13,3.8-0.3,5.7-0.5
				c-22-0.37-43.12-0.2-63.35,0.5H764z M767.5,770.15c1.2,0,2.4,0,3.6,0c28.57,0.3,56.12,0.02,82.65-0.85c-1.17,0-2.35,0-3.55,0
				C821.6,768.93,794.03,769.22,767.5,770.15z M900.5,771.5c1.2,0,2.4,0.05,3.6,0.15c28.77,1.23,35.98,0.95,21.65-0.85
				c-6.03,0-12.05,0-18.05,0c-1.2,0-2.4,0-3.6,0c0-0.23,0-0.45,0-0.65c-21.9,0-24.27,0.43-7.1,1.3
				C898.2,771.48,899.37,771.5,900.5,771.5z M159,777.3H8c-4.4-0.57,10.23-1.23,43.9-2c28.2,1.5,59.37,2,93.5,1.5
				c1.17,0,2.38,0,3.65,0c1.2,0,2.4,0,3.6,0C154.82,777,156.93,777.17,159,777.3z M541,767.85c-1.2,0-2.18,0.17-2.95,0.5
				C530.58,771.75,531.57,771.58,541,767.85z M623.65,771.5c1.2,0,2.4,0.05,3.6,0.15c19,0.33,36.98,0.05,53.95-0.85
				c-1.17,0-2.35,0-3.55,0C658.55,770.43,640.55,770.67,623.65,771.5z M600.25,767.85c20.53,1.97,21.13,1.97,1.8,0H600.25z"/>
			<path fill="#983B12" d="M767.5,770.15c26.53-0.93,54.1-1.22,82.7-0.85c1.2,0,2.38,0,3.55,0c-26.53,0.87-54.08,1.15-82.65,0.85
				C769.9,770.15,768.7,770.15,767.5,770.15z"/>
			<path fill="#B55327" d="M764,777.3l-14.3-0.05c5.9-0.2,11.83-0.35,17.8-0.45C766.37,777,765.2,777.17,764,777.3z"/>
			<path fill="#8A3106" d="M1010.3,744.15c-4.53-0.2-8.77-0.5-12.7-0.9c-17.97,0-35.93,0-53.9,0c-1.2,0-2.4,0-3.6,0s-2.4,0-3.6,0
				c-27.4,0.37-53.78,0.12-79.15-0.75c1.2,0,2.42,0,3.65,0c49.5,0,98.98,0,148.45,0L1010.3,744.15z"/>
			<path fill="#802F09" d="M897,730.5c-8.4,0-16.78,0-25.15,0c-1.2,0-2.4,0-3.6,0c0-0.23-0.02-0.35-0.05-0.35
				c-25.9-1.23-13.93-1.85,35.9-1.85c-1.53,1-3.88,1.62-7.05,1.85C897.02,730.15,897,730.27,897,730.5z"/>
			<path fill="#A84B22" d="M857.35,749.95c15.77-0.9,32.55-1.17,50.35-0.8c1.23,0,2.45,0,3.65,0c-15.73,0.9-32.52,1.17-50.35,0.8
				C859.77,749.95,858.55,749.95,857.35,749.95z"/>
			<path fill="#89300A" d="M825.05,752.9c0-0.23,0-0.47,0-0.7c1.2,0,2.4,0,3.6,0c27.6,0,55.17,0,82.7,0
				c-26.5,0.87-54.07,1.12-82.7,0.75C827.45,752.92,826.25,752.9,825.05,752.9z"/>
			<path fill="#A84D25" d="M825.05,752.2v-0.4c62.6-0.73,125.32-1.32,188.15-1.75l0.75,1.55c-11.43,0-22.85,0.07-34.25,0.2v0.4
				c-21.6,0-43.18,0-64.75,0c-1.2,0-2.4,0-3.6,0c-27.53,0-55.1,0-82.7,0C827.45,752.2,826.25,752.2,825.05,752.2z"/>
			<path fill="#6F2001" d="M943.7,753.7c-9.6,0-19.18,0-28.75,0c-1.2,0-2.4,0-3.6,0s-2.42,0-3.65,0c-41.87,0.23-83.2,0.05-124-0.55
				c13.8-0.17,27.58-0.25,41.35-0.25c1.2,0,2.4,0.02,3.6,0.05c28.63,0.37,56.2,0.12,82.7-0.75c1.2,0,2.4,0,3.6,0
				c21.57,0,43.15,0,64.75,0c1.2,0,2.4,0,3.6,0c10.33,0,20.65,0,30.95,0l0.35,0.7c-23.63,0.03-47.27,0.15-70.9,0.35V753.7
				L943.7,753.7z"/>
			<path fill="#9E3E0E" d="M848.05,777.3H790.4c20.23-0.7,41.35-0.87,63.35-0.5C851.85,777,849.95,777.17,848.05,777.3z"/>
			<path fill="#8D350C" d="M969.05,660.75l2.35,4.75c-70.13,0.03-140.48-0.67-211.05-2.1C829.55,663,899.12,662.12,969.05,660.75z"
				/>
			<path fill="#A1491E" d="M977.35,677.6l0.75,1.55C959.53,678.95,959.28,678.43,977.35,677.6z M66.35,755.95
				c1.2,0,2.37-0.03,3.5-0.1c58.57-1.27,118.52-1.75,179.85-1.45c0,0.23,0,0.47,0,0.7c-37.2,0.23-74.37,0.52-111.5,0.85
				c-1.17,0-2.35,0-3.55,0c-10.67-0.43-20.28-0.25-28.85,0.55c-1.17,0.07-2.35,0.1-3.55,0.1c-10.8,0-21.6,0-32.4,0
				c-1.13,0-2.3,0-3.5,0C66.35,756.37,66.35,756.15,66.35,755.95z"/>
			<path fill="#8C3208" d="M976.15,675.15l0.65,1.35c-10.63,0.57-21.67,0.9-33.1,1c-1.2,0.07-2.4,0.1-3.6,0.1
				C950.83,676,962.85,675.18,976.15,675.15z"/>
			<path fill="#AB4C1F" d="M973.1,668.85l0.85,1.9c-14.7,0.63-34.95,0.73-60.75,0.3C933.4,670.75,953.37,670.02,973.1,668.85z"/>
			<path fill="#AC4B20" d="M968.85,687.35c-12.27,2.43-13.38,2.52-3.35,0.25C966.57,687.43,967.68,687.35,968.85,687.35z M988.5,700
				c-22.53,0.9-46.83,1.83-72.9,2.8c38.87-2.53,47.03-4.72,24.5-6.55c7.57-0.23,22.28-1.85,44.15-4.85L988.5,700z M918.55,696.45
				c1.23-0.13,2.45-0.2,3.65-0.2C877.2,699.58,875.98,699.65,918.55,696.45z M364.75,699.2c-19.3,0.87-39.68,1.13-61.15,0.8
				c-1.2,0-2.4,0-3.6,0c19.4-0.9,39.78-1.17,61.15-0.8C362.35,699.2,363.55,699.2,364.75,699.2z"/>
			<path fill="#AD4D22" d="M979.6,682.15l1.8,3.6c-1.73,0.03-3.5,0.05-5.3,0.05c0-0.2,0.02-0.3,0.05-0.3
				c6.83-0.83-19.78-1.72-79.85-2.65c0.23-0.03,0.47-0.05,0.7-0.05C923.47,682.43,951,682.22,979.6,682.15z"/>
			<path fill="#8C3309" d="M974.3,671.4l0.95,1.95c-14.83-0.27-32.52-0.33-53.05-0.2v-0.4C941.17,673.15,958.53,672.7,974.3,671.4z"
				/>
			<path fill="#893009" d="M907.7,716.45c1.23,0,2.45,0,3.65,0C877.68,717.68,876.47,717.68,907.7,716.45z"/>
			<path fill="#A94C23" d="M943.7,715c1.2-0.07,2.4-0.1,3.6-0.1C925.17,716.2,923.97,716.23,943.7,715z"/>
			<path fill="#AF4C1D" d="M897.05,692.85c-30.47,1.97-61.67,1.35-93.6-1.85c34.73-1.97,76.68-3.18,125.85-3.65
				C939.57,688.95,928.82,690.78,897.05,692.85z"/>
			<path fill="#953C0F" d="M1010.65,744.95c-24.27,0.1-47.78-0.22-70.55-0.95c0-0.27,0-0.52,0-0.75c1.2,0,2.4,0,3.6,0
				c17.97,0,35.93,0,53.9,0c3.93,0.4,8.17,0.7,12.7,0.9L1010.65,744.95z"/>
			<path fill="#A84720" d="M1015,766.55v0.6c-25.53,0.07-50.5-0.2-74.9-0.8V766c19.2-0.27,38.37-0.4,57.5-0.4
				C1002.9,766.23,1008.7,766.55,1015,766.55z"/>
			<path fill="#90330A" d="M940.1,763.3c16.97-0.83,34.93-1.07,53.9-0.7c1.2,0,2.4,0,3.6,0c-16.9,0.9-34.87,1.18-53.9,0.85
				C942.5,763.35,941.3,763.3,940.1,763.3z"/>
			<path fill="#782803" d="M947.3,753.7c-1.2,0-2.4,0-3.6,0v-0.45c23.63-0.2,47.27-0.32,70.9-0.35l0.3,0.7l0.1,0.1
				c-21.37,0-42.73,0-64.1,0C949.7,753.7,948.5,753.7,947.3,753.7z"/>
			<path fill="#954923" d="M1015,754.4c-14.17,0-28.35,0-42.55,0c-1.2,0-2.4,0-3.6,0c-5.97,0-11.95,0-17.95,0c-1.2,0-2.4,0-3.6,0
				c0-0.23,0-0.47,0-0.7c1.2,0,2.4,0,3.6,0c21.37,0,42.73,0,64.1,0V754.4z"/>
			<path fill="#893F24" d="M911.35,753.7c1.2,0,2.4,0,3.6,0c9.57,0,19.15,0,28.75,0c1.2,0,2.4,0,3.6,0c0,0.23,0,0.47,0,0.7
				c-1.2,0-2.4,0-3.6,0C931.83,754.77,921.05,754.53,911.35,753.7z"/>
			<path fill="#9A380B" d="M911.35,735.75c16.93-0.9,34.92-1.17,53.95-0.8c1.2,0.07,2.38,0.1,3.55,0.1
				c-16.9,0.83-34.87,1.07-53.9,0.7C913.75,735.75,912.55,735.75,911.35,735.75z"/>
			<path fill="#983809" d="M911.35,738.7c26.53-0.83,54.08-1.07,82.65-0.7c1.2,0,2.4,0,3.6,0c-26.53,0.87-54.08,1.12-82.65,0.75
				C913.75,738.72,912.55,738.7,911.35,738.7z"/>
			<path fill="#AF4920" d="M897,732.85c-22.3,1.93-23.5,1.95-3.6,0.05C894.6,732.87,895.8,732.85,897,732.85z"/>
			<path fill="#8B2D04" d="M904.1,764.15c18.53,2.9,15.83,2.83-8.1-0.2L904.1,764.15z"/>
			<path fill="#8D3105" d="M911.35,760.4c-27.77,4.07-28.92,4.17-3.45,0.3C909,760.5,910.15,760.4,911.35,760.4z"/>
			<path fill="#95380F" d="M904.1,770.8c1.2,0,2.4,0,3.6,0c6,0,12.02,0,18.05,0c14.33,1.8,7.12,2.08-21.65,0.85
				c-1.2-0.1-2.4-0.15-3.6-0.15c0-0.23,0.1-0.35,0.3-0.35C901.8,770.92,902.9,770.8,904.1,770.8z"/>
			<path fill="#973A11" d="M904.1,770.8c-1.2,0-2.3,0.12-3.3,0.35c-0.2,0-0.3,0.12-0.3,0.35c-1.13,0-2.3-0.02-3.5-0.05
				c-17.17-0.87-14.8-1.3,7.1-1.3C904.1,770.35,904.1,770.57,904.1,770.8z"/>
			<path fill="#7B2D08" d="M48.3,682.05v-0.35c-16.23,0.13-31.78-0.1-46.65-0.7l0.65-1.25c5.43-0.37,11.18-0.57,17.25-0.6
				c1.2,0,2.38,0,3.55,0c8.47,0,16.87,0,25.2,0c0,0.23,0.02,0.35,0.05,0.35c26.97,1.53,32.97,1.42,18-0.35c1.2,0,2.37,0,3.5,0
				c2.4,0,4.8,0,7.2,0c1.2,0,2.4,0,3.6,0c4.83,0,9.65,0,14.45,0c24.13,0.83,49.28,1.07,75.45,0.7c1.2,0,2.4,0,3.6,0
				c17.5,0.63,23.55,1.25,18.15,1.85c-0.1,0-0.15,0.12-0.15,0.35c-1.2,0-2.4,0-3.6,0c-18.9,0-36.87-0.52-53.9-1.55
				c-19.2,0.3-38.38,0.7-57.55,1.2c-0.03,0-0.05,0.12-0.05,0.35c-8.37,0-16.75,0-25.15,0C50.7,682.05,49.5,682.05,48.3,682.05z"/>
			<path fill="#8E3F19" d="M366.35,682.3c-95.77,0.8-191,0.85-285.7,0.15c-1.2,0-2.4-0.13-3.6-0.4c0-0.23,0.02-0.35,0.05-0.35
				c19.17-0.5,38.35-0.9,57.55-1.2c17.03,1.03,35,1.55,53.9,1.55c1.2,0,2.4,0,3.6,0c1.2,0,2.4,0,3.6,0
				c48.83,0.3,96.78,0.07,143.85-0.7C348.33,681.72,357.25,682.03,366.35,682.3z"/>
			<path fill="#933205" d="M184.95,674.6c-14.27,2.1-15.4,2.18-3.4,0.25C182.68,674.68,183.82,674.6,184.95,674.6z"/>
			<path fill="#8A330C" d="M174.15,679.85c-1.2,0-2.4,0-3.6,0c-26.17,0.37-51.32,0.13-75.45-0.7c1.17,0,2.35,0,3.55,0
				c25.2,0,50.37,0,75.5,0C174.15,679.38,174.15,679.62,174.15,679.85z"/>
			<path fill="#883007" d="M109.45,671.6c1.2,0,2.38,0,3.55,0c11.83,0.37,22.63,0.15,32.4-0.65c1.17,0,2.38,0,3.65,0
				c2.4,0,4.78,0,7.15,0c1.2,0,2.4,0,3.6,0c1.17,0,2.35,0,3.55,0c0,0.23,0,0.45,0,0.65c-19.6,2.17-38.17,2.17-55.7,0H109.45z"/>
			<path fill="#8D340E" d="M145.4,670.1c0-0.23,0-0.47,0-0.7c1.17,0,2.38,0.03,3.65,0.1c15.17,0.43,29.53,0.4,43.1-0.1
				c7.3,0.9,15.68,1.15,25.15,0.75c1.2-0.03,2.4-0.05,3.6-0.05c0,0.23,0,0.52,0,0.85c-18.27,1.23-36.25,1.48-53.95,0.75
				c-1.2-0.07-2.4-0.1-3.6-0.1c0-0.2,0-0.42,0-0.65c-1.2,0-2.38,0-3.55,0c-1.2,0-2.4,0-3.6,0c0-0.33,0-0.62,0-0.85
				c-2.37,0-4.75,0-7.15,0C147.78,670.1,146.57,670.1,145.4,670.1z"/>
			<path fill="#822500" d="M139.15,698.7c-2.1,0-3.6-0.32-4.5-0.95c1.2,0,2.38,0,3.55,0c13.17,0,26.38,0,39.65,0c1.2,0,2.4,0,3.6,0
				c13.13,0,26.28,0,39.45,0c0,0.23,0,0.48,0,0.75c-23.97,0-47.92,0-71.85,0c-1.27,0-2.48,0-3.65,0c-1,0.07-2.03,0.12-3.1,0.15
				c-0.13,0-0.28,0-0.45,0s-0.38,0-0.65,0C140.47,698.68,139.78,698.7,139.15,698.7z"/>
			<path fill="#943509" d="M260.5,698.5c-2.47,0-4.88,0-7.25,0c-1.17,0-2.35,0-3.55,0c-8.33,0-16.73,0-25.2,0c-1.2,0-2.4,0-3.6,0
				c0-0.27,0-0.52,0-0.75c-13.17,0-26.32,0-39.45,0c-1.2,0-2.4,0-3.6,0v-0.4c23.9-0.23,47.85-0.35,71.85-0.35
				c2.47,0.87,6.07,1.23,10.8,1.1V698.5L260.5,698.5z"/>
			<path fill="#B04A20" d="M184.95,693.2c-11.83,2.63-12.95,2.8-3.35,0.5C182.7,693.37,183.82,693.2,184.95,693.2z"/>
			<path fill="#883207" d="M249.7,670.1c0,0.23,0,0.52,0,0.85c-8.03,0.9-16.45,0.93-25.25,0.1c-1.17-0.07-2.35-0.1-3.55-0.1
				c0-0.33,0-0.62,0-0.85c1.2,0,2.4,0,3.6,0C232.97,670.1,241.37,670.1,249.7,670.1z"/>
			<path fill="#B04B21" d="M210.65,713.4c-31.53,3.27-74.87,4.28-130,3.05c-1.2,0-2.4,0-3.6,0c0-0.33,0-0.62,0-0.85
				c-19.13,0-38.3,0.12-57.5,0.35v0.5c-12.07,0-24.15,0-36.25,0l1.1-2.1c30.67,0,60.85-0.3,90.55-0.9c-0.47-0.03-0.97-0.05-1.5-0.05
				c-30.07,0.23-59.55,0.17-88.45-0.2l1-1.95c4.07,0.83,34.42,0.28,91.05-1.65v-0.35c-27.63,0.8-53.98,0.47-79.05-1
				c1.17,0,2.35-0.05,3.55-0.15c15.3-0.43,30.88-0.67,46.75-0.7c71.77,0.97,126.9,1.58,165.4,1.85v0.35c-0.9,2.03,0.3,2.93,3.6,2.7
				v0.35c-1.53,0.17-3.1,0.35-4.7,0.55c0.37-0.2,0.73-0.38,1.1-0.55c-1.2,0-2.08,0.18-2.65,0.55
				C210.95,713.23,210.82,713.3,210.65,713.4z M-9.2,708.25c-1.83,0.63-3.25,1.27-4.25,1.9l1.05-1.9
				C-11.33,708.25-10.27,708.25-9.2,708.25z M138.5,711.95c-0.1-0.03-0.2-0.05-0.3-0.05c-39.33-0.37-77.7-0.12-115.1,0.75
				C62.57,713.02,101.03,712.78,138.5,711.95z"/>
			<path fill="#BA552B" d="M212.6,713.2c-4.73,2.2-5.38,2.27-1.95,0.2c0.17-0.1,0.3-0.17,0.4-0.2c0.57-0.37,1.45-0.55,2.65-0.55
				C213.33,712.82,212.97,713,212.6,713.2z M-15.6,714.35l0.6-1.15c28.9,0.37,58.38,0.43,88.45,0.2c0.53,0,1.03,0.02,1.5,0.05
				C45.25,714.05,15.07,714.35-15.6,714.35z"/>
			<path fill="#AD4A1E" d="M220.9,693.2c16.97-0.83,34.95-1.07,53.95-0.7c1.17,0,2.37,0,3.6,0c-16.9,0.87-34.88,1.15-53.95,0.85
				C223.3,693.25,222.1,693.2,220.9,693.2z"/>
			<path fill="#953108" d="M213.7,709.6c1.2,0,2.4,0,3.6,0s2.4,0,3.6,0c11.6,1.8,11.6,2.78,0,2.95c-1.2,0.07-2.4,0.1-3.6,0.1v-0.35
				C214,712.53,212.8,711.63,213.7,709.6z"/>
			<path fill="#903109" d="M77.05,664.95v0.35c-32,1-43.95,0.37-35.85-1.9c1.2,0,2.4,0,3.6,0c1.13,0,2.3,0,3.5,0
				c8.57,0.9,18.15,1.3,28.75,1.2V664.95z"/>
			<path fill="#913712" d="M145.4,670.95c-9.77,0.8-20.57,1.02-32.4,0.65c-1.17,0-2.35,0-3.55,0v-0.3
				C121.42,671.07,133.4,670.95,145.4,670.95z"/>
			<path fill="#8A360E" d="M66.35,679.15c-4.83,0-9.65,0-14.45,0c-1.2,0-2.4,0-3.6,0c-8.33,0-16.73,0-25.2,0c-1.17,0-2.35,0-3.55,0
				v-0.5c19.2-0.23,38.37-0.35,57.5-0.35c0,0.23,0,0.52,0,0.85c-2.4,0-4.8,0-7.2,0C68.72,679.15,67.55,679.15,66.35,679.15z"/>
			<path fill="#AD4C21" d="M249.7,698.5c1.2,0,2.38,0,3.55,0c2.37,0,4.78,0,7.25,0c1.2,0,2.4,0,3.6,0c4.77,0,9.55,0,14.35,0
				c-8.8,5.1-18.3,5.27-28.5,0.5C249.78,698.9,249.7,698.73,249.7,698.5z M77.05,699.2c1.2,0,2.4,0,3.6,0c2.43,0,4.85,0,7.25,0
				c-16.5,2.57-21.18,2.7-14.05,0.4C74.78,699.33,75.85,699.2,77.05,699.2z M-8.1,699.8l0.35-0.6c4.27,0,8.57,0,12.9,0
				C0.82,699.43-3.6,699.63-8.1,699.8z M220.9,751.45c21.73-0.87,44.53-1.12,68.4-0.75c1.2,0,2.4,0,3.6,0
				c-21.8,0.87-44.6,1.12-68.4,0.75C223.3,751.45,222.1,751.45,220.9,751.45z M303.65,701.6c1.17-0.13,2.35-0.2,3.55-0.2
				C278.47,703.57,277.28,703.63,303.65,701.6z M681.2,699.2c-28.33,3.03-29.5,3.1-3.5,0.2C678.87,699.27,680.03,699.2,681.2,699.2z
				 M681.2,696.25c26.63,1.77,19.53,1.58-21.3-0.55L681.2,696.25z M48.3,736.5c-16.93,0.87-34.9,1.12-53.9,0.75c-1.2,0-2.4,0-3.6,0
				c16.9-0.87,34.9-1.12,54-0.75C45.93,736.5,47.1,736.5,48.3,736.5z"/>
			<path fill="#8E2D03" d="M134.65,697.75c0.9,0.63,2.4,0.95,4.5,0.95c-15.1,0.7-30.98,0.88-47.65,0.55c-1.2-0.03-2.4-0.05-3.6-0.05
				c-2.4,0-4.82,0-7.25,0c-1.2,0-2.4,0-3.6,0c0-0.23,0.02-0.35,0.05-0.35C96.27,698.35,115.45,697.98,134.65,697.75z"/>
			<path fill="#B85329" d="M-13.45,710.15c1-0.63,2.42-1.27,4.25-1.9c1.2,0,2.4,0,3.6,0c1.2,0,2.4,0,3.6,0
				c25.07,1.47,51.42,1.8,79.05,1v0.35c-56.63,1.93-86.98,2.48-91.05,1.65L-13.45,710.15z M77.05,716.45c-17.97,0-35.95,0-53.95,0
				c-1.17,0-2.35,0-3.55,0v-0.5c19.2-0.23,38.37-0.35,57.5-0.35C77.05,715.83,77.05,716.12,77.05,716.45z"/>
			<path fill="#953409" d="M105.85,702.9c-1.23,0.97-3.63,1.43-7.2,1.4c-26.3-0.5-52.67-1.18-79.1-2.05c1.2,0,2.38,0,3.55,0
				c27.6,0,55.18,0,82.75,0C105.85,702.45,105.85,702.67,105.85,702.9z"/>
			<path fill="#8D330B" d="M7.2,670.3l0.25-0.55c45.97-0.23,91.95-0.35,137.95-0.35c0,0.23,0,0.47,0,0.7c-1.2,0-2.4,0.02-3.6,0.05
				C96.7,671.08,51.83,671.13,7.2,670.3z"/>
			<path fill="#A43F15" d="M138.5,711.95c-37.47,0.83-75.93,1.07-115.4,0.7c37.4-0.87,75.77-1.12,115.1-0.75
				C138.3,711.9,138.4,711.92,138.5,711.95z"/>
			<path fill="#AE4D22" d="M48.3,699.2c1.2,0,2.4,0,3.6,0c1.2,0,2.4,0,3.6,0s2.4,0,3.6,0c-35.77,2.4-40.53,2.47-14.3,0.2
				C45.93,699.27,47.1,699.2,48.3,699.2z M134.65,735.75c-16.97,0.9-34.97,1.17-54,0.8c-1.2-0.03-2.4-0.05-3.6-0.05
				c16.97-0.83,34.97-1.08,54-0.75C132.25,735.75,133.45,735.75,134.65,735.75z M-25.6,733.6l3.85-7.45
				c13.17-0.37,26.93-0.42,41.3-0.15c56.07,2.63,90.23,4.4,102.5,5.3h-9c8.67,1.1,12.27,2.07,10.8,2.9
				C74.08,732.8,24.27,732.6-25.6,733.6z M-27.25,736.9l0.6-1.15c5.83,0,11.65,0,17.45,0C-15.03,736.28-21.05,736.67-27.25,736.9z
				 M364.75,695.55c-42.6,0.77-82.13,0.55-118.6-0.65c-3.23-0.13-6.85-0.2-10.85-0.2c18.1-0.83,37.3-1.08,57.6-0.75
				c1.17,0.07,2.35,0.1,3.55,0.1c21.73,0.8,44.5,1.13,68.3,1V695.55z"/>
			<path fill="#A6461E" d="M-36,770.75l0.05-10.05c27.6-0.93,55.68-1.53,84.25-1.8c26.7,1.47,54.28,1.72,82.75,0.75
				c1.2,0,2.4,0,3.6,0c7.27,0.83,15.65,1.12,25.15,0.85c1.17-0.07,2.35-0.1,3.55-0.1c-17.07,1.03-35.03,1.55-53.9,1.55
				c-0.33,0-0.68,0-1.05,0c21.77,0.5,43.68,0.95,65.75,1.35C110.82,767.53,40.77,770.02-36,770.75z M-9.2,753.7c1.2,0,2.4,0,3.6,0
				c27.57,0,55.12,0,82.65,0c-27.07,0.77-54.62,1.23-82.65,1.4c-1.2,0-2.4,0-3.6,0H-11C-11.03,754.63-10.43,754.17-9.2,753.7z"/>
			<path fill="#91380E" d="M102.25,756.6c1.2,0,2.38-0.03,3.55-0.1c8.57-0.8,18.18-0.98,28.85-0.55c0,0.2,0,0.42,0,0.65
				c0,0.23,0,0.5,0,0.8c-8.37,0-16.77,0-25.2,0c-1.2,0-2.4,0-3.6,0s-2.33-0.1-3.4-0.3C102.32,757,102.25,756.83,102.25,756.6z"/>
			<path fill="#7F2B05" d="M48.3,751.45c0-0.27,0-0.52,0-0.75c1.2,0,2.4,0,3.6,0c8.4,0,16.78,0,25.15,0
				c16.97,0.87,34.97,1.12,54,0.75c1.2,0,2.4,0,3.6,0c0,0.23,0,0.48,0,0.75c-1.2,0-2.4,0-3.6,0
				C102.45,752.53,74.87,752.28,48.3,751.45z"/>
			<path fill="#8A300A" d="M192.15,752.2c-18,0-35.98,0-53.95,0c-1.17,0-2.35,0-3.55,0c0-0.27,0-0.52,0-0.75c1.2,0,2.38,0,3.55,0
				c17.97,0,35.95,0,53.95,0C192.15,751.68,192.15,751.93,192.15,752.2z"/>
			<path fill="#933810" d="M-9.2,755.1c1.2,0,2.4,0,3.6,0c28.03-0.17,55.58-0.63,82.65-1.4c-27.53,0-55.08,0-82.65,0
				c-1.2,0-2.4,0-3.6,0c-2.4,0-4.8,0-7.2,0c-1.27,0-2.5,0-3.7,0c0-0.3,0-0.57,0-0.8c-4.73,0-9.5,0-14.3,0c-0.37,0-0.75,0-1.15,0
				l1.55-2.95c8.3,0,16.57,0,24.8,0c0,0.23,0,0.48,0,0.75c16.9,0.87,34.9,1.12,54,0.75c1.13,0,2.3,0,3.5,0
				c26.57,0.83,54.15,1.08,82.75,0.75c1.2,0,2.4,0,3.6,0c16.9,0.87,34.87,1.12,53.9,0.75c1.2-0.03,2.4-0.05,3.6-0.05
				c16.93,0.87,34.92,1.13,53.95,0.8c1.2,0,2.4,0,3.6,0c0,0.23,0,0.47,0,0.7c-61.33-0.3-121.28,0.18-179.85,1.45
				c-1.13,0.07-2.3,0.1-3.5,0.1c-14.37,0-28.78,0-43.25,0c-1.17,0-2.35,0-3.55,0c-8.37,0-16.75,0-25.15,0c-1.2,0-2.4,0-3.6,0
				C-9.2,755.72-9.2,755.43-9.2,755.1z"/>
			<path fill="#A0431A" d="M163.35,760.4c-1.2,0-2.38,0.03-3.55,0.1c-9.5,0.27-17.88-0.02-25.15-0.85v-0.4
				c13.2-0.23,26.37-0.35,39.5-0.35c-0.23,1.73-2.65,2.28-7.25,1.65C165.73,760.45,164.55,760.4,163.35,760.4z"/>
			<path fill="#8B3309" d="M134.65,755.95c1.2,0,2.38,0,3.55,0c37.13-0.33,74.3-0.62,111.5-0.85c1.2,0,2.38,0,3.55,0
				c8.47,0,16.87,0,25.2,0c-44.93,1.6-91.68,2.15-140.25,1.65c-1.17-0.1-2.35-0.15-3.55-0.15
				C134.65,756.37,134.65,756.15,134.65,755.95z"/>
			<path fill="#7D2400" d="M249.7,752.2c-16.93,0.87-34.92,1.12-53.95,0.75c-1.2-0.03-2.4-0.05-3.6-0.05c-1.2,0-2.4,0.02-3.6,0.05
				c-19.03,0.37-37,0.12-53.9-0.75c1.2,0,2.38,0,3.55,0c17.97,0,35.95,0,53.95,0c1.2,0,2.4,0,3.6,0
				C213.68,752.2,231.67,752.2,249.7,752.2z"/>
			<path fill="#A64A21" d="M105.85,757.4c1.2,0,2.4,0,3.6,0c8.43,0,16.83,0,25.2,0c1.2,0,2.38,0,3.55,0c17.97,0,35.95,0,53.95,0
				c-27.73,0.87-56.5,1-86.3,0.4V757.4z"/>
			<path fill="#933A0F" d="M105.85,741.75c16.97-0.9,34.95-1.17,53.95-0.8c1.17,0.07,2.35,0.1,3.55,0.1
				c-16.9,0.83-34.87,1.07-53.9,0.7C108.25,741.75,107.05,741.75,105.85,741.75z"/>
			<path fill="#91370E" d="M351.9,719.2c0.57-0.2,1.25-0.38,2.05-0.55c-1.2,0-2.27,0.13-3.2,0.4c-0.03,0-0.08,0.05-0.15,0.15
				c-28.93-1.53-55.38-0.23-79.35,3.9c-3.63,0-7.22,0-10.75,0c-1.2,0-2.43,0-3.7,0c0.87-2-0.32-2.92-3.55-2.75
				c-51.4,1.67-100.53,0.82-147.4-2.55c1.2,0,2.4,0,3.6,0c77.2-0.1,152.72-0.55,226.55-1.35c55.33-0.57,90.25,1.75,104.75,6.95
				c0.87,0.27,1.9,0.4,3.1,0.4c-3.3,4.47-18.3,4.47-45,0h5.45C419.1,723.27,401.63,721.73,351.9,719.2z"/>
			<path fill="#94390E" d="M77.05,743.25c26.53-0.87,54.12-1.12,82.75-0.75c1.17,0,2.35,0,3.55,0c-26.53,0.87-54.1,1.12-82.7,0.75
				C79.45,743.25,78.25,743.25,77.05,743.25z"/>
			<path fill="#A74A21" d="M105.85,758.15c-13.33,0.83-27.72,1.1-43.15,0.8c-1.2-0.03-2.4-0.05-3.6-0.05
				c13.37-0.83,27.75-1.12,43.15-0.85C103.45,758.12,104.65,758.15,105.85,758.15z M33.95,770.8c41.4-1.77,84.53-2.5,129.4-2.2
				c-41.8,1.77-84.93,2.62-129.4,2.55V770.8z"/>
			<path fill="#89360C" d="M152.65,776.8c-1.2,0-2.4,0-3.6,0c0-0.23-0.08-0.43-0.25-0.6c-1.8-1.73,10.25-2.28,36.15-1.65
				c-8.03,1.7-17.62,2.45-28.75,2.25C155.03,776.8,153.85,776.8,152.65,776.8z"/>
			<path fill="#8A3207" d="M220.9,766.35c16.97-0.87,34.95-1.12,53.95-0.75c1.17,0,2.37,0,3.6,0c-16.9,0.87-34.88,1.12-53.95,0.75
				C223.3,766.35,222.1,766.35,220.9,766.35z"/>
			<path fill="#A8471F" d="M198.55,762.2c-25.53-0.27-20.48-0.87,15.15-1.8L198.55,762.2z"/>
			<path fill="#9F491F" d="M174.2,771.05c1.2-0.17,2.42-0.25,3.65-0.25C155.62,772.83,154.4,772.92,174.2,771.05z"/>
			<path fill="#A6471F" d="M321.65,767.85c3.2,2.03-1.58,3.65-14.35,4.85c-0.07,0-0.1,0.12-0.1,0.35c-3.63,0-7.22-0.05-10.75-0.15
				c-36.03-1.17-70.8-1.63-104.3-1.4c0-0.23,0.02-0.35,0.05-0.35C234.67,769.55,277.82,768.45,321.65,767.85z"/>
			<path fill="#832B02" d="M249.7,753.7c-1.2,0-2.4,0-3.6,0c-19.03,0.33-37.02,0.07-53.95-0.8c1.2,0,2.4,0.02,3.6,0.05
				c19.03,0.37,37.02,0.12,53.95-0.75c1.2,0,2.38,0,3.55,0c13.17,0,26.38,0,39.65,0c0,0.23,0,0.47,0,0.7c-4.8,0-9.6,0.12-14.4,0.35
				c-0.03,0-0.05,0.15-0.05,0.45c-8.33,0-16.73,0-25.2,0C252.08,753.7,250.9,753.7,249.7,753.7z"/>
			<path fill="#8D350B" d="M249.7,670.95c0-0.33,0-0.62,0-0.85c51.87-1.6,60.25-2.58,25.15-2.95c-1.33-0.63-0.95-1.17,1.15-1.6
				c3.5-0.7,12.12-1.02,25.85-0.95c8.37-0.07,18.55,0.05,30.55,0.35h1.8c-15.97,4.6-5.78,4.08,30.55-1.55
				c45.7,0.9,92.45,1.13,140.25,0.7c0.53,0,1.07,0.05,1.6,0.15c-48.43,1-96.92,1.73-145.45,2.2c-3.57,0-5.97,0.48-7.2,1.45
				c48.03-0.4,97.18-0.17,147.45,0.7c2.7,0.03,5.42,0.1,8.15,0.2c-85.07,1.87-170.5,2.58-256.3,2.15
				C252.08,670.95,250.9,670.95,249.7,670.95z"/>
			<path fill="#95330C" d="M368.35,705.95c-30.7,1.6-31.9,1.65-3.6,0.15C365.95,706,367.15,705.95,368.35,705.95z"/>
			<path fill="#AA4C20" d="M249.7,688.8c-30.47,1.4-31.67,1.42-3.6,0.05C247.3,688.82,248.5,688.8,249.7,688.8z"/>
			<path fill="#AF4D24" d="M271.25,714.9c30-2.33,63.57-3.08,100.7-2.25c-16.23,2-49.8,2.87-100.7,2.6V714.9z"/>
			<path fill="#B04F24" d="M256.8,712.65c-29.4,3.03-30.57,3.1-3.5,0.2C254.47,712.72,255.63,712.65,256.8,712.65z"/>
			<path fill="#B04C1F" d="M256.8,723.1c1.27,0,2.5,0,3.7,0c3.53,0,7.12,0,10.75,0c2.4,0,4.8-0.03,7.2-0.1
				c26.03-0.47,50,0.3,71.9,2.3c-5.43,2.6-13.05,4.82-22.85,6.65c-17.87,3.43-34.22,3.22-49.05-0.65l-1.3-3
				c-56.03-0.6-132.32-2.1-228.85-4.5v-0.35c65.2,0.67,132.33,0.28,201.4-1.15c1.2,0.3,2.4,0.5,3.6,0.6
				C254.47,723.03,255.63,723.1,256.8,723.1z"/>
			<path fill="#91340B" d="M292.9,752.9c0-0.23,0-0.47,0-0.7c1.17,0,2.35,0,3.55,0c7.17,0,14.37,0,21.6,0c1.2,0,2.4,0,3.6,0
				c2.33,0,4.72,0,7.15,0c0,0.23,0,0.47,0,0.7c-10.8,0-21.58,0-32.35,0C295.25,752.9,294.07,752.9,292.9,752.9z"/>
			<path fill="#752200" d="M328.8,752.9c1.2,0,2.4,0,3.6,0c20.37,0,40.73,0,61.1,0c1.23,0,2.45,0,3.65,0c13.13,0,26.32,0,39.55,0
				c0,0.23,0,0.5,0,0.8c-38.37,0-76.72,0-115.05,0c-1.2,0-2.4,0-3.6,0c-12.03,0-24.03,0-36,0c-1.2,0-2.4,0-3.6,0
				c0-0.3,0.02-0.45,0.05-0.45c4.8-0.23,9.6-0.35,14.4-0.35c1.17,0,2.35,0,3.55,0C307.22,752.9,318,752.9,328.8,752.9z"/>
			<path fill="#9D4A28" d="M278.45,753.7c1.2,0,2.4,0,3.6,0c11.97,0,23.97,0,36,0c-12.17,0.83-25.35,0.95-39.55,0.35
				C278.47,754.05,278.45,753.93,278.45,753.7z"/>
			<path fill="#A7461B" d="M278.45,762.6c17.07-1,35.05-1.5,53.95-1.5c1.2,0,2.4,0,3.6,0c-15.87,1.8-33.85,2.33-53.95,1.6
				C280.85,762.63,279.65,762.6,278.45,762.6z"/>
			<path fill="#87380B" d="M260.5,773.8c-35.27,1.6-36.47,1.62-3.6,0.05C258.1,773.82,259.3,773.8,260.5,773.8z"/>
			<path fill="#AF4F26" d="M479.9,767.1c-1.23,0.23-2.35,0.55-3.35,0.95c-0.2,0.1-0.3,0.28-0.3,0.55
				c-37.07,1.9-31.48,3.38,16.75,4.45h-6c-1.2,0-2.37,0.03-3.5,0.1c-40.63,1.53-80.22,1.27-118.75-0.8
				c-16.83,1.13-34.82,1.4-53.95,0.8c-1.2-0.07-2.4-0.1-3.6-0.1c0-0.23,0.03-0.35,0.1-0.35c12.77-1.2,17.55-2.82,14.35-4.85
				c1.13,0,2.3-0.05,3.5-0.15c21.57-1.13,44.35-1.58,68.35-1.35c1.23,0,2.45,0,3.65,0c20.4,0,40.78,0,61.15,0
				c5,0.83,10.98,1.1,17.95,0.8C477.45,767.12,478.67,767.1,479.9,767.1z M354,768.75c-12.77,1.6-11.58,1.55,3.55-0.15
				C356.35,768.6,355.17,768.65,354,768.75z"/>
			<path fill="#A8451C" d="M364.75,761.95c15.9-1.8,33.87-2.32,53.9-1.55c-10.57,1.83-28.53,2.45-53.9,1.85V761.95z"/>
			<path fill="#AC4D22" d="M709.95,752.9c-19.17,0-38.35,0.12-57.55,0.35v0.45c-9.57,0-19.15,0-28.75,0c-1.13,0-2.3,0-3.5,0
				s-2.43,0-3.7,0c-30.93,0.33-60.88,0.07-89.85-0.8c-14.4,0-28.77,0-43.1,0c-1.2,0-2.4,0-3.6,0c-13.27,0-26.48,0-39.65,0
				c-1.2,0-2.38,0-3.55,0c-13.23,0-26.42,0-39.55,0c-1.2,0-2.42,0-3.65,0c0-0.23,0-0.47,0-0.7c-20.37,0-40.73,0-61.1,0
				c-1.2,0-2.4,0-3.6,0c-2.43,0-4.82,0-7.15,0c-1.2,0-2.4,0-3.6,0v-0.4c19.37,0.1,34.93-0.52,46.7-1.85
				c114.27,1.13,228.15,2,341.65,2.6C707.6,752.55,708.78,752.67,709.95,752.9z"/>
			<path fill="#9A3D12" d="M328.8,752.2c1.2,0,2.4,0,3.6,0c20.37,0,40.73,0,61.1,0c0,0.23,0,0.47,0,0.7c-20.37,0-40.73,0-61.1,0
				c-1.2,0-2.4,0-3.6,0C328.8,752.67,328.8,752.43,328.8,752.2z"/>
			<path fill="#883103" d="M350.6,719.2c0.07-0.1,0.12-0.15,0.15-0.15c0.93-0.27,2-0.4,3.2-0.4c-0.8,0.17-1.48,0.35-2.05,0.55
				c-0.4,0-0.8,0-1.2,0H350.6L350.6,719.2z"/>
			<path fill="#A7441D" d="M354,768.75c1.17-0.1,2.35-0.15,3.55-0.15C342.42,770.3,341.23,770.35,354,768.75z"/>
			<path fill="#8E370C" d="M238.9,667.9c-5.6,2.07-6.58,2.23-2.95,0.5C236.72,668.07,237.7,667.9,238.9,667.9z"/>
			<path fill="#A94C22" d="M508.6,685c-30.3,1.8-62.67,2.18-97.1,1.15v-0.35c29.9,0.07,61.07-0.18,93.5-0.75
				C506.2,685.02,507.4,685,508.6,685z"/>
			<path fill="#AC4C1C" d="M515.75,695.55c-17.27,4.27-45.98,5.37-86.15,3.3c-0.03,0-0.05-0.12-0.05-0.35
				c27.93,0,55.5-0.97,82.7-2.9C513.38,695.57,514.55,695.55,515.75,695.55z M418.65,698.6c1.2-0.07,2.4-0.1,3.6-0.1
				C392.38,699.6,391.18,699.63,418.65,698.6z M425.95,695.55c16.93-0.93,34.92-1.22,53.95-0.85c-16.8,2.13-34.77,2.53-53.9,1.2
				C425.97,695.9,425.95,695.78,425.95,695.55z"/>
			<path fill="#93360D" d="M497.85,706.15c1.17-0.13,2.35-0.2,3.55-0.2C476.77,708.48,475.58,708.55,497.85,706.15z"/>
			<path fill="#AC4919" d="M505,688.8c-47.37,3.27-48.57,3.32-3.6,0.15C502.6,688.85,503.8,688.8,505,688.8z"/>
			<path fill="#AD4D1D" d="M537.4,695.55c-8.9,3.9-9.85,4.03-2.85,0.4C535.25,695.68,536.2,695.55,537.4,695.55z M505,702.9
				c27.8-1.93,55.37-2.9,82.7-2.9c1.23,0,2.45,0,3.65,0c30.8,2.3,15.2,3.27-46.8,2.9C530.88,702.83,517.7,702.83,505,702.9z
				 M566.15,697.75c15.87-1.8,33.87-2.3,54-1.5c-10.13,1.93-28.13,2.55-54,1.85V697.75z"/>
			<path fill="#8F360B" d="M594.95,711.1c1.23,0.97,3.6,1.37,7.1,1.2v0.35c-1.2,0-2.37,0-3.5,0c-19,0.3-38.18,0.3-57.55,0v-0.35
				C559.93,712.33,577.92,711.93,594.95,711.1z"/>
			<path fill="#94320B" d="M422.25,705.95c-38.3,1.83-39.48,1.83-3.55,0C419.87,705.95,421.05,705.95,422.25,705.95z"/>
			<path fill="#92350C" d="M451.05,713.4c24.27-1.73,50.63-2.23,79.1-1.5c-26.2,1.5-51.35,2.02-75.45,1.55
				C453.5,713.42,452.28,713.4,451.05,713.4z"/>
			<path fill="#B04F27" d="M443.85,712.65c-13.3,2.7-14.42,2.82-3.35,0.35C441.53,712.77,442.65,712.65,443.85,712.65z"/>
			<path fill="#AC4B24" d="M440.25,709.6c-8.8,2.7-9.85,2.88-3.15,0.55C438,709.78,439.05,709.6,440.25,709.6z"/>
			<path fill="#AC4A23" d="M451.05,735.75c16.97-0.9,34.95-1.17,53.95-0.8c1.2,0.07,2.4,0.1,3.6,0.1c-16.9,0.83-34.87,1.07-53.9,0.7
				C453.5,735.75,452.28,735.75,451.05,735.75z"/>
			<path fill="#823103" d="M479.9,752.9c-12.2,0.87-25.42,1.13-39.65,0.8c-1.2,0-2.38,0-3.55,0c0-0.3,0-0.57,0-0.8
				c1.17,0,2.35,0,3.55,0C453.42,752.9,466.63,752.9,479.9,752.9z"/>
			<path fill="#B8542A" d="M476.25,768.6c0-0.27,0.1-0.45,0.3-0.55c1-0.4,2.12-0.72,3.35-0.95v-0.4c9.53-0.23,19.1-0.35,28.7-0.35
				c3.37,1.7-6.2,2.45-28.7,2.25C478.67,768.6,477.45,768.6,476.25,768.6z"/>
			<path fill="#90380D" d="M544.55,718.65c1.2,0,2.4,0,3.6,0c7.17,0,14.38,0,21.65,0c-4.23,1.57-10.27,2.08-18.1,1.55
				c-1.17-0.07-2.35-0.1-3.55-0.1c0-0.23-0.1-0.4-0.3-0.5C546.85,719.2,545.75,718.88,544.55,718.65z"/>
			<path fill="#8D360B" d="M487,719.35c1.2,0,2.4,0,3.6,0c16.63,0.37,32.23,0.13,46.8-0.7c1.2,0,2.4,0,3.6,0c1.17,0,2.35,0,3.55,0
				c1.2,0.23,2.3,0.55,3.3,0.95c0.2,0.1,0.3,0.27,0.3,0.5c-1.2,0-2.4,0.02-3.6,0.05C515.48,721.32,496.3,721.05,487,719.35z"/>
			<path fill="#7F2802" d="M479.9,719.35c-1.23,0-2.45-0.03-3.65-0.1c-4.37-0.17-3.15-0.65,3.65-1.45c1.2,0,2.4,0,3.6,0
				c17.93,0,35.9,0,53.9,0c0,0.33,0,0.62,0,0.85c-14.57,0.83-30.17,1.07-46.8,0.7c-1.2,0-2.4,0-3.6,0c-1.2,0-2.37,0-3.5,0
				C482.3,719.35,481.1,719.35,479.9,719.35z"/>
			<path fill="#B2532B" d="M526.6,764.15c1.2,0,2.38,0,3.55,0c2.43,0,4.85,0,7.25,0c1.2,0,2.4,0,3.6,0c4.77,0,9.53,0,14.3,0
				c-15.2,3.2-25.37,3.2-30.5,0H526.6z"/>
			<path fill="#8B3408" d="M558.9,755.1c-14.47,0.93-30.05,1.22-46.75,0.85c-1.17,0-2.35,0-3.55,0c14.57-0.9,30.13-1.18,46.7-0.85
				C556.5,755.1,557.7,755.1,558.9,755.1z"/>
			<path fill="#8E360C" d="M479.9,717.8c-6.8,0.8-8.02,1.28-3.65,1.45c1.2,0.07,2.42,0.1,3.65,0.1c0,0.27-0.02,0.4-0.05,0.4
				C442.75,720.58,442.77,719.93,479.9,717.8z"/>
			<path fill="#A5491E" d="M515.75,758.15c-25.77,1.97-26.93,2-3.5,0.1C513.38,758.18,514.55,758.15,515.75,758.15z"/>
			<path fill="#AF5229" d="M541,767.85c-9.43,3.73-10.42,3.9-2.95,0.5C538.82,768.02,539.8,767.85,541,767.85z"/>
			<path fill="#A8491E" d="M404.3,674.6c0.1,0.63-28.65,0.88-86.25,0.75c88.03-3.97,180.33-5.95,276.9-5.95
				c6.83,4.1-18.32,5.58-75.45,4.45C465.37,672.72,426.97,672.97,404.3,674.6z"/>
			<path fill="#A43F0F" d="M476.25,691.9c1.2-0.07,2.42-0.1,3.65-0.1C449.83,693.3,448.62,693.33,476.25,691.9z"/>
			<path fill="#A9461E" d="M659.6,670.95c-42.8,6.7-43.95,6.78-3.45,0.25C657.25,671.03,658.4,670.95,659.6,670.95z"/>
			<path fill="#8B370F" d="M620.15,711.1v-0.3c24.2-0.23,45.75-0.63,64.65-1.2c1.2,0.33,2.3,0.7,3.3,1.1c0.2,0.07,0.3,0.2,0.3,0.4
				c-2.4,0-4.75,0.12-7.05,0.35c-0.1,0-0.15,0.15-0.15,0.45c-8.37,0-16.77,0-25.2,0c-1.2,0-2.4,0-3.6,0c0-0.3,0-0.57,0-0.8
				c-9.57,0-19.15,0-28.75,0C622.52,711.1,621.35,711.1,620.15,711.1z"/>
			<path fill="#842F05" d="M652.4,711.9c-14.5,0.87-30.08,1.12-46.75,0.75c-1.2,0-2.4,0-3.6,0v-0.35c-3.5,0.17-5.87-0.23-7.1-1.2
				c1.2,0,2.4,0,3.6,0c7.13,0,14.33,0,21.6,0c1.2,0,2.37,0,3.5,0c9.6,0,19.18,0,28.75,0C652.4,711.33,652.4,711.6,652.4,711.9z"/>
			<path fill="#87390F" d="M702.8,706.7v0.35c-25.53,0.5-29.15-0.12-10.85-1.85c1.57,1,3.98,1.5,7.25,1.5
				C700.4,706.7,701.6,706.7,702.8,706.7z"/>
			<path fill="#9C431E" d="M587.7,679.15c-6,0-11.97,0-17.9,0c-1.2,0-2.42,0-3.65,0c0-0.33,0.08-0.5,0.25-0.5
				c3.57-1.1,8.27-1.45,14.1-1.05c1.23,0.93,3.63,1.28,7.2,1.05V679.15L587.7,679.15z"/>
			<path fill="#A64C27" d="M566.15,685c18.07-0.83,37.23-1.07,57.5-0.7c-18.17,1.07-37.33,1.47-57.5,1.2V685z"/>
			<path fill="#90340B" d="M627.25,705.95c-38.07,1.17-39.23,1.17-3.5,0C624.88,705.95,626.05,705.95,627.25,705.95z"/>
			<path fill="#8D3511" d="M652.4,753.7c1.2,0,2.4,0,3.6,0c8.43,0,16.83,0,25.2,0c-18.17,0.83-37.35,1.07-57.55,0.7
				c-1.13,0-2.3,0-3.5,0c0-0.23,0-0.47,0-0.7c1.2,0,2.37,0,3.5,0C633.25,753.7,642.83,753.7,652.4,753.7z"/>
			<path fill="#A7461C" d="M623.65,765.6c16.9-0.83,34.9-1.1,54-0.8c1.2,0,2.38,0,3.55,0c-16.97,0.93-34.95,1.22-53.95,0.85
				C626.05,765.62,624.85,765.6,623.65,765.6z"/>
			<path fill="#8D3007" d="M623.65,755.95c-20.27,0.37-39.43,0.08-57.5-0.85v-0.35c18.7,0.2,36.7,0.08,54-0.35
				c1.2,0.23,2.27,0.57,3.2,1C623.55,755.53,623.65,755.72,623.65,755.95z"/>
			<path fill="#792702" d="M652.4,729.8c1.2,0,2.4,0,3.6,0c4.8,0,9.6,0,14.4,0c-6.13,0.87-13.32,1.27-21.55,1.2v0.3
				c-1.2,0-2.38,0-3.55,0c-17.9,0.37-34.68,0.1-50.35-0.8v-0.35C614.15,729.92,633.3,729.8,652.4,729.8z"/>
			<path fill="#B4532C" d="M623.65,767.1c1.2,0,2.4,0,3.6,0c17.97,0,35.95,0,53.95,0c1.2,0,2.4,0,3.6,0c4.23,0,8.43,0.05,12.6,0.15
				c-45.63,0.97-70.78,0.92-75.45-0.15H623.65z"/>
			<path fill="#B04F28" d="M623.65,771.5c16.9-0.83,34.9-1.07,54-0.7c1.2,0,2.38,0,3.55,0c-16.97,0.9-34.95,1.18-53.95,0.85
				C626.05,771.55,624.85,771.5,623.65,771.5z"/>
			<path fill="#984015" d="M600.25,767.85h1.8C621.38,769.82,620.78,769.82,600.25,767.85z"/>
			<path fill="#95401D" d="M681.2,753.7c-8.37,0-16.77,0-25.2,0c-1.2,0-2.4,0-3.6,0v-0.45c19.2-0.23,38.38-0.35,57.55-0.35
				c-7.33,0.87-15.72,1.13-25.15,0.8C683.6,753.7,682.4,753.7,681.2,753.7z"/>
			<path fill="#8D3309" d="M659.6,734.2c1.2,0,2.4,0,3.6,0c26,0.3,51.17,0.08,75.5-0.65c-16.13,1.6-34.1,2.1-53.9,1.5
				c-1.2,0-2.4,0-3.6,0c-1.17,0-2.35,0-3.55,0C670.62,735.42,664.6,735.13,659.6,734.2z"/>
			<path fill="#92390F" d="M681.2,735.05c0,0.23-0.02,0.35-0.05,0.35c-21,0.67-28.18,0.27-21.55-1.2c5,0.93,11.02,1.22,18.05,0.85
				C678.85,735.05,680.03,735.05,681.2,735.05z"/>
			<path fill="#8B3710" d="M652.4,729.8c0-0.23,0.03-0.35,0.1-0.35c7.13-0.27,14.32-0.4,21.55-0.4c39.17,1.2,31.95,1.95-21.65,2.25
				c-1.17,0-2.35,0-3.55,0V731c8.23,0.07,15.42-0.33,21.55-1.2c-4.8,0-9.6,0-14.4,0C654.8,729.8,653.6,729.8,652.4,729.8z"/>
			<path fill="#BA5626" d="M667.8,777.3h-48.05c13.6-0.7,28.08-0.87,43.45-0.5C664.73,777,666.27,777.17,667.8,777.3z"/>
			<path fill="#97370A" d="M400.75,702.9c-10.47,2.67-11.57,2.83-3.3,0.5C398.45,703.07,399.55,702.9,400.75,702.9z"/>
			<path fill="#A64E28" d="M0.25,683.7l0.45-0.9c6.3,0,12.58,0,18.85,0C13.22,683.17,6.78,683.47,0.25,683.7z"/>
			<path fill="#8C340D" d="M1.65,681c14.87,0.6,30.42,0.83,46.65,0.7v0.35c-1.2,0-2.37,0-3.5,0c-14.9,0.17-29.47,0.2-43.7,0.1
				L1.65,681z"/>
			<path fill="#6B2603" d="M48.3,679.15c1.2,0,2.4,0,3.6,0c4.8,0,9.62,0,14.45,0c14.97,1.77,8.97,1.88-18,0.35
				C48.32,679.5,48.3,679.38,48.3,679.15z"/>
			<path fill="#AF4E23" d="M48.3,694.05c18.23-0.83,37.42-1.12,57.55-0.85c24.47,1.97,5.3,2.35-57.5,1.15
				C48.32,694.35,48.3,694.25,48.3,694.05z"/>
			<path fill="#913005" d="M-7.05,697.9l0.05-0.15c0.43,0,0.9,0,1.4,0c23.93,0,47.92,0,71.95,0c-2.53,0.93-6.15,1.3-10.85,1.1v0.35
				c-1.2,0-2.4,0-3.6,0c-1.2,0-2.4,0-3.6,0c-1.2-0.23-2.37-0.35-3.5-0.35C26.53,698.95,9.25,698.63-7.05,697.9z"/>
			<path fill="#96350A" d="M-9.75,703.05l0.45-0.8c8.43,0,16.87,0,25.3,0C7.6,702.62-0.98,702.88-9.75,703.05z"/>
			<path fill="#85370B" d="M-16.4,774.55c-9.13-1.33,4.03-2.3,39.5-2.9c2.4-0.1,4.8-0.15,7.2-0.15c11.8,1.17,24.3,1.93,37.5,2.3
				c-46.97,0.5-75.67,0.88-86.1,1.15L-16.4,774.55z"/>
			<path fill="#7D2200" d="M48.3,751.45c-1.2,0-2.37,0-3.5,0c-19.1,0.37-37.1,0.12-54-0.75c1.2,0,2.4,0,3.6,0c17.93,0,35.9,0,53.9,0
				C48.3,750.93,48.3,751.18,48.3,751.45z"/>
			<path fill="#AE4D26" d="M19.55,755.95c1.2,0,2.38,0,3.55,0c14.47,0,28.88,0,43.25,0c0,0.2,0,0.42,0,0.65c-4.83,0-9.65,0-14.45,0
				c-1.2,0-2.4,0-3.6,0s-2.37,0.05-3.5,0.15C35.3,757.02,26.88,756.75,19.55,755.95z"/>
			<path fill="#A7461E" d="M-9.2,755.95c1.2,0,2.4,0,3.6,0c8.4,0,16.78,0,25.15,0c7.33,0.8,15.75,1.07,25.25,0.8
				c1.13-0.1,2.3-0.15,3.5-0.15v0.35C4.17,757.88-15,757.55-9.2,755.95z"/>
			<path fill="#A44E27" d="M73.6,684.6c1.1-0.2,2.25-0.3,3.45-0.3C53.52,688.13,52.37,688.23,73.6,684.6z"/>
		</g>
		<g>
			
				<linearGradient id="SVGID_10_" gradientUnits="userSpaceOnUse" x1="-183.4099" y1="225.1792" x2="1150.4895" y2="225.1792" gradientTransform="matrix(1 0 0 -1 5.8101 990.6289)">
				<stop  offset="0" style="stop-color:#000000;stop-opacity:0.6314"/>
				<stop  offset="0.4471" style="stop-color:#000000;stop-opacity:0.4235"/>
				<stop  offset="1" style="stop-color:#000000;stop-opacity:0.6824"/>
			</linearGradient>
			<rect x="-36" y="753.6" fill="url(#SVGID_10_)" width="1050.9" height="23.7"/>
		</g>
		<g>
			
				<linearGradient id="SVGID_11_" gradientUnits="userSpaceOnUse" x1="475.5652" y1="212.8799" x2="475.5652" y2="98.6799" gradientTransform="matrix(1 0 0 -1 5.8101 990.6289)">
				<stop  offset="0" style="stop-color:#000000;stop-opacity:0.7059"/>
				<stop  offset="0.5882" style="stop-color:#000000;stop-opacity:7.843138e-003"/>
				<stop  offset="0.7882" style="stop-color:#000000;stop-opacity:0"/>
				<stop  offset="1" style="stop-color:#000000;stop-opacity:0"/>
			</linearGradient>
			<polygon fill="url(#SVGID_11_)" points="963.75,777.3 963.3,880.85 -1,880.85 -1,777.3 			"/>
		</g>
	</g>
</g>
<g id="Layer_2">
</g>
</svg>
