<?xml version="1.0" encoding="utf-8"?>
<!-- Generator: Adobe Illustrator 16.0.0, SVG Export Plug-In . SVG Version: 6.00 Build 0)  -->
<!DOCTYPE svg PUBLIC "-//W3C//DTD SVG 1.1//EN" "http://www.w3.org/Graphics/SVG/1.1/DTD/svg11.dtd">
<svg version="1.1" id="Layer_2" xmlns="http://www.w3.org/2000/svg" xmlns:xlink="http://www.w3.org/1999/xlink" x="0px" y="0px"
	 width="118.5px" height="98.5px" viewBox="0 0 118.5 98.5" enable-background="new 0 0 118.5 98.5" xml:space="preserve">
<symbol  id="rubber_turn_x5F_a" viewBox="-9.85 -3.2 19.65 6.4">
	<linearGradient id="SVGID_1_" gradientUnits="userSpaceOnUse" x1="-11.2002" y1="0" x2="10.5998" y2="0">
		<stop  offset="0" style="stop-color:#222222"/>
		<stop  offset="0.5569" style="stop-color:#626262"/>
		<stop  offset="1" style="stop-color:#1A1A1A"/>
	</linearGradient>
	<path fill-rule="evenodd" clip-rule="evenodd" fill="url(#SVGID_1_)" d="M9.8,3.2v-5.5C3.1-3.5-3.45-3.5-9.85-2.3v5.5
		C-3.45,2,3.1,2,9.8,3.2z"/>
</symbol>
<g>
	<g>
		<linearGradient id="SVGID_2_" gradientUnits="userSpaceOnUse" x1="70.4795" y1="61.3672" x2="89.4388" y2="58.6018">
			<stop  offset="0" style="stop-color:#4B453D"/>
			<stop  offset="0.3451" style="stop-color:#B8AEA2"/>
			<stop  offset="0.4941" style="stop-color:#DCD6CD"/>
			<stop  offset="0.5882" style="stop-color:#CEC6BC"/>
			<stop  offset="0.7412" style="stop-color:#B4ADA3"/>
			<stop  offset="1" style="stop-color:#4A433E"/>
		</linearGradient>
		<path fill-rule="evenodd" clip-rule="evenodd" fill="url(#SVGID_2_)" d="M88.82,60.29h-0.05l-0.45-3l0.05,0.05L88.82,60.29z
			 M70.37,59.79l0.45,2.7c0.1,0.1,0.2,0.17,0.3,0.2c-0.13,0-0.23-0.03-0.3-0.1c-0.03-0.03-0.07-0.03-0.1,0L70.37,59.79z"/>
		<linearGradient id="SVGID_3_" gradientUnits="userSpaceOnUse" x1="70.1699" y1="63.0791" x2="88.7026" y2="60.3721">
			<stop  offset="0" style="stop-color:#4B453D"/>
			<stop  offset="0.3451" style="stop-color:#B8AEA2"/>
			<stop  offset="0.4941" style="stop-color:#DCD6CD"/>
			<stop  offset="0.5882" style="stop-color:#CEC6BC"/>
			<stop  offset="0.7412" style="stop-color:#B4ADA3"/>
			<stop  offset="1" style="stop-color:#4A433E"/>
		</linearGradient>
		<polygon fill-rule="evenodd" clip-rule="evenodd" fill="url(#SVGID_3_)" points="88.77,60.29 88.82,60.29 88.77,60.44 		"/>
	</g>
	<g>
		<g>
			<linearGradient id="SVGID_4_" gradientUnits="userSpaceOnUse" x1="58.2632" y1="33.7505" x2="98.9019" y2="27.8952">
				<stop  offset="0" style="stop-color:#454344"/>
				<stop  offset="0.149" style="stop-color:#4D4E4D"/>
				<stop  offset="0.2353" style="stop-color:#949C9E"/>
				<stop  offset="0.302" style="stop-color:#EAECE8"/>
				<stop  offset="0.4431" style="stop-color:#3A4245"/>
				<stop  offset="0.5529" style="stop-color:#768B98"/>
				<stop  offset="0.6941" style="stop-color:#2F261D"/>
				<stop  offset="0.8235" style="stop-color:#31383D"/>
			</linearGradient>
			<path fill-rule="evenodd" clip-rule="evenodd" fill="url(#SVGID_4_)" d="M87.27,48.94c-6.03,2-12.05,2.92-18.05,2.75l-2.15-15.1
				l-4.8-32.7l18-2.7l5.5,37.9L87.27,48.94z M69.97,56.94c6,0.2,12.02-0.68,18.05-2.65l0.4,3.1l-0.1-0.05
				c-0.23,0.23-0.55,0.43-0.95,0.6c-2.03,0.87-4.55,1.57-7.55,2.1c-3,0.37-5.58,0.42-7.75,0.15c-0.5-0.03-0.92-0.13-1.25-0.3
				c-0.17-0.07-0.32-0.1-0.45-0.1L69.97,56.94z"/>
			<linearGradient id="SVGID_5_" gradientUnits="userSpaceOnUse" x1="67.8662" y1="54.918" x2="88.724" y2="51.8162">
				<stop  offset="0" style="stop-color:#222222"/>
				<stop  offset="0.5569" style="stop-color:#626262"/>
				<stop  offset="1" style="stop-color:#1A1A1A"/>
			</linearGradient>
			<path fill-rule="evenodd" clip-rule="evenodd" fill="url(#SVGID_5_)" d="M88.02,54.29c-6.03,1.97-12.05,2.85-18.05,2.65
				c-0.17,0.03-0.33,0.05-0.5,0.05l-0.75-5.3c0.17-0.03,0.33-0.03,0.5,0c6,0.17,12.02-0.75,18.05-2.75c0.07,0,0.15-0.03,0.25-0.1
				l0.8,5.35C88.19,54.19,88.09,54.22,88.02,54.29z M80.07,51.59l0.55,3.9L80.07,51.59z M85.57,50.24l0.55,3.95L85.57,50.24z
				 M86.12,50.09l0.55,3.95L86.12,50.09z M82.42,51.19l0.55,3.9L82.42,51.19z M82.97,51.04l0.55,3.85L82.97,51.04z M70.32,52.29
				l0.55,3.95L70.32,52.29z M70.87,52.29l0.55,3.9L70.87,52.29z M77.22,51.99l0.55,3.95L77.22,51.99z M73.32,52.29l0.55,3.9
				L73.32,52.29z M79.37,51.69l0.55,3.95L79.37,51.69z M76.47,52.09l0.6,3.9L76.47,52.09z M74.07,52.24l0.55,3.95L74.07,52.24z"/>
			<linearGradient id="SVGID_6_" gradientUnits="userSpaceOnUse" x1="70.9717" y1="62.1963" x2="88.6007" y2="59.0886">
				<stop  offset="0.0667" style="stop-color:#0C0E27"/>
				<stop  offset="0.2824" style="stop-color:#9A9BFE"/>
				<stop  offset="0.4902" style="stop-color:#3242EE"/>
				<stop  offset="0.5647" style="stop-color:#091477"/>
				<stop  offset="0.7608" style="stop-color:#4A56F2"/>
				<stop  offset="1" style="stop-color:#000000"/>
			</linearGradient>
			<path fill-rule="evenodd" clip-rule="evenodd" fill="url(#SVGID_6_)" d="M86.92,61.44l-0.15-0.05c-1.73,0.7-3.75,1.23-6.05,1.6
				c-2.27,0.3-4.33,0.4-6.2,0.3c-0.47-0.03-0.97-0.1-1.5-0.2c-0.07,0-0.13-0.02-0.2-0.05c-0.67-0.07-1.22-0.17-1.65-0.3
				c-0.13-0.03-0.23-0.1-0.3-0.2l-0.5-2.75c0.13,0,0.29,0.03,0.45,0.1c0.33,0.17,0.75,0.27,1.25,0.3c2.17,0.27,4.75,0.22,7.75-0.15
				c3-0.53,5.52-1.23,7.55-2.1c0.4-0.17,0.72-0.37,0.95-0.6l0.5,3.05v0.1c-0.13,0.1-0.32,0.2-0.55,0.3
				c-0.33,0.13-0.63,0.28-0.9,0.45c0-0.07-0.05-0.03-0.15,0.1C87.12,61.3,87.02,61.34,86.92,61.44z"/>
			
				<linearGradient id="SVGID_7_" gradientUnits="userSpaceOnUse" x1="38.3867" y1="104.7861" x2="61.4068" y2="104.7861" gradientTransform="matrix(0.9894 -0.1455 0.135 0.9909 18.5239 -32.7633)">
				<stop  offset="0" style="stop-color:#454344"/>
				<stop  offset="0.149" style="stop-color:#4D4E4D"/>
				<stop  offset="0.2353" style="stop-color:#949C9E"/>
				<stop  offset="0.302" style="stop-color:#EAECE8"/>
				<stop  offset="0.4431" style="stop-color:#3A4245"/>
				<stop  offset="0.5529" style="stop-color:#768B98"/>
				<stop  offset="0.6941" style="stop-color:#2F261D"/>
				<stop  offset="0.8235" style="stop-color:#31383D"/>
			</linearGradient>
			<path fill-rule="evenodd" clip-rule="evenodd" fill="url(#SVGID_7_)" d="M85.12,65.24c-0.46,0.07-0.95,0.17-1.45,0.3l-2.55,0.45
				c-1.87,0.3-3.63,0.43-5.3,0.4c-0.23,0-0.5-0.02-0.8-0.05c-0.33-0.03-0.57-0.12-0.7-0.25l-1.3-3c0.53,0.1,1.03,0.17,1.5,0.2
				c1.87,0.1,3.93,0,6.2-0.3c2.3-0.37,4.32-0.9,6.05-1.6l0.15,0.05l-0.6,3.25L85.12,65.24z"/>
			<linearGradient id="SVGID_8_" gradientUnits="userSpaceOnUse" x1="75.4883" y1="68.0791" x2="87.9709" y2="66.316">
				<stop  offset="0" style="stop-color:#454344"/>
				<stop  offset="0.149" style="stop-color:#4D4E4D"/>
				<stop  offset="0.2353" style="stop-color:#949C9E"/>
				<stop  offset="0.302" style="stop-color:#EAECE8"/>
				<stop  offset="0.4431" style="stop-color:#3A4245"/>
				<stop  offset="0.5529" style="stop-color:#768B98"/>
				<stop  offset="0.6941" style="stop-color:#2F261D"/>
				<stop  offset="0.8235" style="stop-color:#31383D"/>
			</linearGradient>
			<path fill-rule="evenodd" clip-rule="evenodd" fill="url(#SVGID_8_)" d="M75.82,66.39c1.67,0.03,3.43-0.1,5.3-0.4l2.55-0.45
				c0.5-0.13,0.98-0.23,1.45-0.3l0.2,1.55c0,0.4-0.2,0.82-0.6,1.25c-0.53,0.4-1.58,0.67-3.15,0.8c-1.6,0.27-2.82,0.37-3.65,0.3
				c-0.93,0-1.55-0.42-1.85-1.25L75.82,66.39z"/>
			
				<path fill-rule="evenodd" clip-rule="evenodd" fill="none" stroke="#FFFFFF" stroke-width="0.2" stroke-linecap="square" stroke-linejoin="round" stroke-miterlimit="3" stroke-opacity="0.0863" d="
				M80.07,51.59l0.55,3.9 M86.12,50.09l0.55,3.95 M82.97,51.04l0.55,3.85 M70.87,52.29l0.55,3.9 M77.22,51.99l0.55,3.95
				 M74.07,52.24l0.55,3.95"/>
			
				<path fill-rule="evenodd" clip-rule="evenodd" fill="none" stroke="#000000" stroke-width="0.2" stroke-linecap="square" stroke-linejoin="round" stroke-miterlimit="3" d="
				M85.57,50.24l0.55,3.95 M82.42,51.19l0.55,3.9 M70.32,52.29l0.55,3.95 M73.32,52.29l0.55,3.9 M79.37,51.69l0.55,3.95
				 M76.47,52.09l0.6,3.9"/>
		</g>
	</g>
	<g>
		<path fill-rule="evenodd" clip-rule="evenodd" fill="#1774FF" d="M78.72,41.19c0.5-0.07,0.95,0.08,1.35,0.45
			c0.47,0.53,0.8,1.43,1,2.7c0.17,1.07,0.17,1.93,0,2.6c-0.2,0.67-0.6,1.02-1.2,1.05c-0.53,0.17-1,0-1.4-0.5
			c-0.4-0.43-0.72-1.28-0.95-2.55c-0.17-1.1-0.15-1.98,0.05-2.65C77.74,41.65,78.12,41.29,78.72,41.19z M78.12,42.59
			c-0.13,0.4-0.1,1.15,0.1,2.25c0.17,1.07,0.38,1.77,0.65,2.1c0.3,0.33,0.62,0.5,0.95,0.5c0.27-0.1,0.47-0.35,0.6-0.75
			c0.17-0.43,0.15-1.18-0.05-2.25c-0.2-1.13-0.42-1.85-0.65-2.15c-0.27-0.33-0.58-0.47-0.95-0.4
			C78.47,41.92,78.25,42.15,78.12,42.59z M75.52,41.79l0.7,4.35l0.75-0.1l0.1,0.75l-0.7,0.1l0.25,1.6l-0.65,0.15l-0.3-1.6l-2.3,0.4
			l-0.15-0.8l1.8-4.75L75.52,41.79z M75.07,43.24l-1.2,3.3l1.7-0.25L75.07,43.24z"/>
	</g>
</g>
<g>
	<g>
		<g>
			<linearGradient id="SVGID_9_" gradientUnits="userSpaceOnUse" x1="75.0918" y1="48.3838" x2="115.1997" y2="38.6342">
				<stop  offset="0" style="stop-color:#454344"/>
				<stop  offset="0.149" style="stop-color:#4D4E4D"/>
				<stop  offset="0.2353" style="stop-color:#949C9E"/>
				<stop  offset="0.302" style="stop-color:#EAECE8"/>
				<stop  offset="0.4431" style="stop-color:#3A4245"/>
				<stop  offset="0.5529" style="stop-color:#768B98"/>
				<stop  offset="0.6941" style="stop-color:#2F261D"/>
				<stop  offset="0.8235" style="stop-color:#31383D"/>
			</linearGradient>
			<path fill-rule="evenodd" clip-rule="evenodd" fill="url(#SVGID_9_)" d="M105.42,60.79c-0.67,0.3-1.37,0.57-2.1,0.8
				c-5.2,1.87-10.45,2.88-15.75,3.05l-1.3-5.3l-4.9-20.75l-4.45-18.95l7.65-2.1l7.55-2.2l2.15-0.6l0.3,0.95l0.75,3.2l5.35,22.3
				L105.42,60.79z M88.77,69.94c6.07-0.23,12.03-1.57,17.9-4l0.5,2.2v0.05c-0.37,0.1-0.68,0.25-0.95,0.45
				c-1.97,1.23-4.42,2.22-7.35,2.95c-2.93,0.67-5.5,0.97-7.7,0.9c-0.5-0.07-0.95-0.12-1.35-0.15c-0.1-0.07-0.22-0.08-0.35-0.05
				l-0.2,0.05L88.77,69.94z"/>
			<linearGradient id="SVGID_10_" gradientUnits="userSpaceOnUse" x1="86.46" y1="67.9697" x2="107.2199" y2="63.5156">
				<stop  offset="0" style="stop-color:#222222"/>
				<stop  offset="0.5569" style="stop-color:#626262"/>
				<stop  offset="1" style="stop-color:#1A1A1A"/>
			</linearGradient>
			<path fill-rule="evenodd" clip-rule="evenodd" fill="url(#SVGID_10_)" d="M106.67,65.94c-5.87,2.43-11.83,3.77-17.9,4
				c-0.2-0.04-0.38-0.05-0.55-0.05l-1.1-5.2c0.13-0.04,0.29-0.05,0.45-0.05c5.3-0.17,10.55-1.18,15.75-3.05
				c0.73-0.23,1.43-0.5,2.1-0.8c0.13-0.03,0.27-0.1,0.4-0.2l1.1,5.3C106.82,65.92,106.74,65.94,106.67,65.94z M104.42,61.99
				l0.85,3.9L104.42,61.99z M103.97,62.19l0.8,3.9L103.97,62.19z M97.82,64.04l0.8,3.85L97.82,64.04z M98.47,63.89l0.8,3.9
				L98.47,63.89z M100.82,63.24l0.85,3.85L100.82,63.24z M101.32,63.09l0.8,3.9L101.32,63.09z M92.47,64.89l0.8,3.9L92.47,64.89z
				 M91.77,64.94l0.85,3.9L91.77,64.94z M94.92,64.59l0.8,3.9L94.92,64.59z M95.62,64.49l0.8,3.9L95.62,64.49z M88.72,65.14
				l0.85,3.95L88.72,65.14z M89.27,65.14l0.8,3.9L89.27,65.14z"/>
			<linearGradient id="SVGID_11_" gradientUnits="userSpaceOnUse" x1="87.998" y1="75.0176" x2="108.9458" y2="69.8655">
				<stop  offset="0.0392" style="stop-color:#041A04"/>
				<stop  offset="0.298" style="stop-color:#78C278"/>
				<stop  offset="0.3647" style="stop-color:#1C971C"/>
				<stop  offset="0.5373" style="stop-color:#062006"/>
				<stop  offset="0.7882" style="stop-color:#1D991D"/>
				<stop  offset="0.9333" style="stop-color:#0A340A"/>
				<stop  offset="1" style="stop-color:#010701"/>
			</linearGradient>
			<path fill-rule="evenodd" clip-rule="evenodd" fill="url(#SVGID_11_)" d="M107.17,68.19l0.2,0.7l0.45,2.1
				c-0.47,0.57-1.08,0.98-1.85,1.25l-1.1,0.6c-1,0.43-2.63,0.97-4.9,1.6c-2.27,0.5-4.3,0.8-6.1,0.9c-0.46-0.07-0.95-0.1-1.45-0.1
				h-0.15c-0.63,0.03-1.32-0.05-2.05-0.25h-0.1l-0.65-2.25c0-0.1,0-0.25,0-0.45c0.13-0.03,0.25-0.02,0.35,0.05
				c0.4,0.03,0.85,0.08,1.35,0.15c2.2,0.07,4.77-0.23,7.7-0.9c2.93-0.73,5.38-1.72,7.35-2.95C106.49,68.44,106.8,68.29,107.17,68.19
				z"/>
			<linearGradient id="SVGID_12_" gradientUnits="userSpaceOnUse" x1="90.1182" y1="77.9131" x2="112.6076" y2="72.4403">
				<stop  offset="0" style="stop-color:#454344"/>
				<stop  offset="0.149" style="stop-color:#4D4E4D"/>
				<stop  offset="0.2353" style="stop-color:#949C9E"/>
				<stop  offset="0.302" style="stop-color:#EAECE8"/>
				<stop  offset="0.4431" style="stop-color:#3A4245"/>
				<stop  offset="0.5529" style="stop-color:#768B98"/>
				<stop  offset="0.6941" style="stop-color:#2F261D"/>
				<stop  offset="0.8235" style="stop-color:#31383D"/>
			</linearGradient>
			<path fill-rule="evenodd" clip-rule="evenodd" fill="url(#SVGID_12_)" d="M104.67,76.24c-0.47,0.2-0.93,0.37-1.4,0.5l-2.5,0.7
				c-1.93,0.4-3.68,0.65-5.25,0.75c-0.23,0.1-0.53,0.13-0.9,0.1l-0.7-0.05l-1.5-3c0.5,0,0.98,0.03,1.45,0.1
				c1.8-0.1,3.83-0.4,6.1-0.9c2.27-0.63,3.9-1.17,4.9-1.6l1.1-0.6l0.1,3.5C105.57,75.8,105.1,75.97,104.67,76.24z"/>
			<linearGradient id="SVGID_13_" gradientUnits="userSpaceOnUse" x1="89.4854" y1="72.7617" x2="108.1966" y2="68.2097">
				<stop  offset="0" style="stop-color:#4B453D"/>
				<stop  offset="0.3451" style="stop-color:#B8AEA2"/>
				<stop  offset="0.4941" style="stop-color:#DCD6CD"/>
				<stop  offset="0.5882" style="stop-color:#CEC6BC"/>
				<stop  offset="0.7412" style="stop-color:#B4ADA3"/>
				<stop  offset="1" style="stop-color:#4A433E"/>
			</linearGradient>
			<path fill-rule="evenodd" clip-rule="evenodd" fill="url(#SVGID_13_)" d="M107.37,68.89l-0.2-0.7v-0.05L107.37,68.89z
				 M89.27,72.34l0.2-0.05c0,0.2,0,0.35,0,0.45L89.27,72.34z"/>
			<linearGradient id="SVGID_14_" gradientUnits="userSpaceOnUse" x1="95.4277" y1="80.0205" x2="107.7842" y2="77.0191">
				<stop  offset="0" style="stop-color:#454344"/>
				<stop  offset="0.149" style="stop-color:#4D4E4D"/>
				<stop  offset="0.2353" style="stop-color:#949C9E"/>
				<stop  offset="0.302" style="stop-color:#EAECE8"/>
				<stop  offset="0.4431" style="stop-color:#3A4245"/>
				<stop  offset="0.5529" style="stop-color:#768B98"/>
				<stop  offset="0.6941" style="stop-color:#2F261D"/>
				<stop  offset="0.8235" style="stop-color:#31383D"/>
			</linearGradient>
			<path fill-rule="evenodd" clip-rule="evenodd" fill="url(#SVGID_14_)" d="M95.52,78.19c1.57-0.1,3.32-0.35,5.25-0.75l2.5-0.7
				c0.47-0.13,0.93-0.3,1.4-0.5l0.35,1.65c-0.03,0.93-0.62,1.57-1.75,1.9c-1,0.47-2.43,0.77-4.3,0.9c-1.8,0.2-2.82-0.05-3.05-0.75
				L95.52,78.19z"/>
			
				<path fill-rule="evenodd" clip-rule="evenodd" fill="none" stroke="#FFFFFF" stroke-width="0.2" stroke-linecap="square" stroke-linejoin="round" stroke-miterlimit="3" stroke-opacity="0.0902" d="
				M104.42,61.99l0.85,3.9 M98.47,63.89l0.8,3.9 M101.32,63.09l0.8,3.9 M92.47,64.89l0.8,3.9 M95.62,64.49l0.8,3.9 M89.27,65.14
				l0.8,3.9"/>
			
				<path fill-rule="evenodd" clip-rule="evenodd" fill="none" stroke="#000000" stroke-width="0.2" stroke-linecap="square" stroke-linejoin="round" stroke-miterlimit="3" d="
				M103.97,62.19l0.8,3.9 M97.82,64.04l0.8,3.85 M100.82,63.24l0.85,3.85 M91.77,64.94l0.85,3.9 M94.92,64.59l0.8,3.9 M88.72,65.14
				l0.85,3.95"/>
		</g>
	</g>
	<g>
		<path fill-rule="evenodd" clip-rule="evenodd" fill="#269C26" d="M94.77,55.44c-0.1,0.17-0.13,0.43-0.1,0.8
			c0.1,0.27,0.25,0.48,0.45,0.65c0.2,0.2,0.43,0.27,0.7,0.2c0.2-0.07,0.37-0.22,0.5-0.45c0.13-0.27,0.18-0.53,0.15-0.8
			c-0.07-0.33-0.23-0.57-0.5-0.7c-0.17-0.17-0.37-0.21-0.6-0.15C95.1,55.02,94.9,55.17,94.77,55.44z M96.37,54.49
			c0.4,0.3,0.65,0.7,0.75,1.2c0.1,0.3,0.1,0.58,0,0.85c-0.1,0.27-0.27,0.48-0.5,0.65c0.4,0.1,0.7,0.27,0.9,0.5
			c0.23,0.27,0.4,0.58,0.5,0.95c0.13,0.6,0.08,1.15-0.15,1.65c-0.3,0.47-0.7,0.75-1.2,0.85c-0.5,0.1-0.95,0-1.35-0.3
			c-0.43-0.3-0.72-0.75-0.85-1.35c-0.1-0.47-0.08-0.87,0.05-1.2c0.13-0.33,0.33-0.57,0.6-0.7c-0.3-0.07-0.53-0.2-0.7-0.4
			c-0.2-0.23-0.33-0.52-0.4-0.85c-0.1-0.53-0.05-0.97,0.15-1.3c0.23-0.37,0.58-0.6,1.05-0.7C95.65,54.17,96.04,54.22,96.37,54.49z
			 M95.17,59.34c0.07,0.37,0.23,0.65,0.5,0.85c0.27,0.23,0.57,0.32,0.9,0.25c0.3-0.07,0.52-0.25,0.65-0.55
			c0.23-0.3,0.28-0.65,0.15-1.05c-0.1-0.43-0.3-0.72-0.6-0.85c-0.27-0.27-0.55-0.33-0.85-0.2c-0.27,0.03-0.48,0.18-0.65,0.45
			C95.1,58.54,95.07,58.9,95.17,59.34z"/>
	</g>
</g>
<g>
	<g>
		<g>
			<linearGradient id="SVGID_15_" gradientUnits="userSpaceOnUse" x1="32.1655" y1="28.9692" x2="71.1309" y2="42.4868">
				<stop  offset="0" style="stop-color:#454344"/>
				<stop  offset="0.149" style="stop-color:#4D4E4D"/>
				<stop  offset="0.2353" style="stop-color:#949C9E"/>
				<stop  offset="0.302" style="stop-color:#EAECE8"/>
				<stop  offset="0.4431" style="stop-color:#3A4245"/>
				<stop  offset="0.5529" style="stop-color:#768B98"/>
				<stop  offset="0.6941" style="stop-color:#2F261D"/>
				<stop  offset="0.8235" style="stop-color:#31383D"/>
			</linearGradient>
			<path fill-rule="evenodd" clip-rule="evenodd" fill="url(#SVGID_15_)" d="M32.47,53.79h-0.1l10-29.1l5.6-16.15l17.7,5.75
				l-4.55,12.95l-11.45,32.8l-0.05-0.05c-0.37,0-0.75-0.02-1.15-0.05c-2.23-0.07-4.82-0.63-7.75-1.7c-2.87-0.97-5.22-2.1-7.05-3.4
				c-0.3-0.3-0.58-0.55-0.85-0.75C32.69,53.96,32.57,53.85,32.47,53.79z"/>
			<linearGradient id="SVGID_16_" gradientUnits="userSpaceOnUse" x1="31.7363" y1="55.2891" x2="49.9197" y2="61.5649">
				<stop  offset="0" style="stop-color:#4B453D"/>
				<stop  offset="0.3451" style="stop-color:#B8AEA2"/>
				<stop  offset="0.4941" style="stop-color:#DCD6CD"/>
				<stop  offset="0.5882" style="stop-color:#CEC6BC"/>
				<stop  offset="0.7412" style="stop-color:#B4ADA3"/>
				<stop  offset="1" style="stop-color:#4A433E"/>
			</linearGradient>
			<path fill-rule="evenodd" clip-rule="evenodd" fill="url(#SVGID_16_)" d="M48.67,62.89l-0.1-0.05l1.05-2.85l0.05,0.05
				L48.67,62.89z M32.37,53.79h0.1l-0.95,2.65c0.13,0.1,0.23,0.2,0.3,0.3c-0.13-0.07-0.22-0.15-0.25-0.25l-0.15-0.05L32.37,53.79z"
				/>
			<linearGradient id="SVGID_17_" gradientUnits="userSpaceOnUse" x1="33.189" y1="63.627" x2="45.1424" y2="67.8172">
				<stop  offset="0" style="stop-color:#454344"/>
				<stop  offset="0.149" style="stop-color:#4D4E4D"/>
				<stop  offset="0.2353" style="stop-color:#949C9E"/>
				<stop  offset="0.302" style="stop-color:#EAECE8"/>
				<stop  offset="0.4431" style="stop-color:#3A4245"/>
				<stop  offset="0.5529" style="stop-color:#768B98"/>
				<stop  offset="0.6941" style="stop-color:#2F261D"/>
				<stop  offset="0.8235" style="stop-color:#31383D"/>
			</linearGradient>
			<path fill-rule="evenodd" clip-rule="evenodd" fill="url(#SVGID_17_)" d="M34.22,62.09c1.47,0.83,3.12,1.55,4.95,2.15l2.5,0.8
				c0.47,0.13,0.92,0.25,1.35,0.35l-0.65,1.95c-0.27,0.23-0.65,0.37-1.15,0.4c-2.57-0.07-4.87-0.9-6.9-2.5
				c-0.43-0.33-0.68-0.65-0.75-0.95l-0.05-0.2L34.22,62.09z"/>
			<linearGradient id="SVGID_18_" gradientUnits="userSpaceOnUse" x1="29.9634" y1="58.9131" x2="51.8286" y2="66.5212">
				<stop  offset="0" style="stop-color:#454344"/>
				<stop  offset="0.149" style="stop-color:#4D4E4D"/>
				<stop  offset="0.2353" style="stop-color:#949C9E"/>
				<stop  offset="0.302" style="stop-color:#EAECE8"/>
				<stop  offset="0.4431" style="stop-color:#3A4245"/>
				<stop  offset="0.5529" style="stop-color:#768B98"/>
				<stop  offset="0.6941" style="stop-color:#2F261D"/>
				<stop  offset="0.8235" style="stop-color:#31383D"/>
			</linearGradient>
			<path fill-rule="evenodd" clip-rule="evenodd" fill="url(#SVGID_18_)" d="M33.27,57.94c0.43,0.23,0.88,0.5,1.35,0.8
				c1.5,0.93,3.35,1.77,5.55,2.5c2.27,0.77,4.32,1.28,6.15,1.55l0.15,0.05l-1.85,2.85c-0.5-0.1-0.98-0.2-1.45-0.3
				c-0.07,0-0.12,0-0.15,0c-0.43-0.1-0.88-0.22-1.35-0.35l-2.5-0.8c-1.83-0.6-3.48-1.32-4.95-2.15c-0.3-0.17-0.68-0.48-1.15-0.95
				L33.27,57.94z"/>
			<linearGradient id="SVGID_19_" gradientUnits="userSpaceOnUse" x1="31.1831" y1="55.7188" x2="48.4994" y2="61.7718">
				<stop  offset="0" style="stop-color:#290101"/>
				<stop  offset="0.1922" style="stop-color:#C90303"/>
				<stop  offset="0.3216" style="stop-color:#BB0909"/>
				<stop  offset="0.4314" style="stop-color:#FF0000"/>
				<stop  offset="0.5059" style="stop-color:#FF0000"/>
				<stop  offset="0.6824" style="stop-color:#A00101"/>
				<stop  offset="0.8392" style="stop-color:#CF0101"/>
				<stop  offset="1" style="stop-color:#220000"/>
			</linearGradient>
			<path fill-rule="evenodd" clip-rule="evenodd" fill="url(#SVGID_19_)" d="M31.82,56.74c-0.07-0.1-0.17-0.2-0.3-0.3l0.95-2.65
				c0.1,0.07,0.22,0.17,0.35,0.3c0.27,0.2,0.55,0.45,0.85,0.75c1.83,1.3,4.18,2.43,7.05,3.4c2.93,1.07,5.52,1.63,7.75,1.7
				c0.4,0.03,0.78,0.05,1.15,0.05l-1.05,2.85l-0.05,0.15c-0.2,0-0.43,0-0.7,0c-0.3-0.03-0.6-0.07-0.9-0.1l-0.1,0.05
				c-0.1-0.07-0.22-0.1-0.35-0.1l-0.15-0.05c-1.83-0.27-3.88-0.78-6.15-1.55c-2.2-0.73-4.05-1.57-5.55-2.5
				c-0.47-0.3-0.92-0.57-1.35-0.8l-0.15-0.15C32.62,57.42,32.19,57.07,31.82,56.74z"/>
			<linearGradient id="SVGID_20_" gradientUnits="userSpaceOnUse" x1="31.2422" y1="56.9443" x2="48.5141" y2="62.9172">
				<stop  offset="0" style="stop-color:#4B453D"/>
				<stop  offset="0.3451" style="stop-color:#B8AEA2"/>
				<stop  offset="0.4941" style="stop-color:#DCD6CD"/>
				<stop  offset="0.5882" style="stop-color:#CEC6BC"/>
				<stop  offset="0.7412" style="stop-color:#B4ADA3"/>
				<stop  offset="1" style="stop-color:#4A433E"/>
			</linearGradient>
			<polygon fill-rule="evenodd" clip-rule="evenodd" fill="url(#SVGID_20_)" points="48.52,62.99 48.57,62.84 48.67,62.89 
				48.57,63.04 			"/>
		</g>
	</g>
	<g>
		
			<use xlink:href="#rubber_turn_x5F_a"  width="19.65" height="6.4" x="-9.85" y="-3.2" transform="matrix(0.9197 0.3179 0.3202 -0.9265 42.4199 51.9375)" overflow="visible"/>
	</g>
	<g>
		<path fill-rule="evenodd" clip-rule="evenodd" fill="#FF0000" d="M47.77,41.59l-1.4,4.15l0.7,0.25l-0.2,0.75l-0.75-0.2l-0.5,1.5
			l-0.7-0.2l0.55-1.5l-2.25-0.85l0.25-0.65l3.8-3.45L47.77,41.59z M46.77,42.64l-2.7,2.35l1.65,0.55L46.77,42.64z"/>
	</g>
</g>
<g>
	<g>
		<g>
			<linearGradient id="SVGID_21_" gradientUnits="userSpaceOnUse" x1="14.0815" y1="57.5635" x2="32.8213" y2="67.4355">
				<stop  offset="0" style="stop-color:#222222"/>
				<stop  offset="0.5569" style="stop-color:#626262"/>
				<stop  offset="1" style="stop-color:#1A1A1A"/>
			</linearGradient>
			<path fill-rule="evenodd" clip-rule="evenodd" fill="url(#SVGID_21_)" d="M31.07,69.14c-0.13-0.03-0.25-0.07-0.35-0.1
				c-5.93-1.97-11.28-4.8-16.05-8.5c-0.17-0.13-0.32-0.27-0.45-0.4l2.5-4.75c0.13,0.1,0.27,0.2,0.4,0.3
				c4.73,3.7,10.08,6.55,16.05,8.55c0.13,0.07,0.27,0.1,0.4,0.1L31.07,69.14z M31.17,64.34l-1.85,3.5L31.17,64.34z M31.72,64.54
				l-1.9,3.45L31.72,64.54z M25.92,62.14l-1.85,3.5L25.92,62.14z M23.32,60.79l-1.85,3.5L23.32,60.79z M22.72,60.39l-1.8,3.5
				L22.72,60.39z M25.32,61.84l-1.85,3.5L25.32,61.84z M20.67,59.04l-1.85,3.55L20.67,59.04z M17.57,56.84l-1.8,3.5L17.57,56.84z
				 M18.02,57.19l-1.8,3.45L18.02,57.19z M28.12,63.19l-1.85,3.5L28.12,63.19z M20.07,58.64l-1.85,3.5L20.07,58.64z M28.62,63.39
				l-1.85,3.5L28.62,63.39z"/>
			
				<path fill-rule="evenodd" clip-rule="evenodd" fill="none" stroke="#FFFFFF" stroke-width="0.2" stroke-linecap="square" stroke-linejoin="round" stroke-miterlimit="3" stroke-opacity="0.0863" d="
				M31.72,64.54l-1.9,3.45 M25.92,62.14l-1.85,3.5 M23.32,60.79l-1.85,3.5 M20.67,59.04l-1.85,3.55 M18.02,57.19l-1.8,3.45
				 M28.62,63.39l-1.85,3.5"/>
			
				<path fill-rule="evenodd" clip-rule="evenodd" fill="none" stroke="#000000" stroke-width="0.2" stroke-linecap="square" stroke-linejoin="round" stroke-miterlimit="3" d="
				M31.17,64.34l-1.85,3.5 M22.72,60.39l-1.8,3.5 M25.32,61.84l-1.85,3.5 M17.57,56.84l-1.8,3.5 M28.12,63.19l-1.85,3.5
				 M20.07,58.64l-1.85,3.5"/>
		</g>
	</g>
	<g>
		<g>
			<linearGradient id="SVGID_22_" gradientUnits="userSpaceOnUse" x1="16.9702" y1="36.9355" x2="53.7716" y2="55.3028">
				<stop  offset="0" style="stop-color:#454344"/>
				<stop  offset="0.149" style="stop-color:#4D4E4D"/>
				<stop  offset="0.2353" style="stop-color:#949C9E"/>
				<stop  offset="0.302" style="stop-color:#EAECE8"/>
				<stop  offset="0.4431" style="stop-color:#3A4245"/>
				<stop  offset="0.5529" style="stop-color:#768B98"/>
				<stop  offset="0.6941" style="stop-color:#2F261D"/>
				<stop  offset="0.8235" style="stop-color:#31383D"/>
			</linearGradient>
			<path fill-rule="evenodd" clip-rule="evenodd" fill="url(#SVGID_22_)" d="M29.62,71.19l-0.05,0.05c-0.33-0.1-0.68-0.15-1.05-0.15
				c-2.17-0.4-4.6-1.27-7.3-2.6c-2.73-1.37-4.9-2.83-6.5-4.4c-0.3-0.3-0.62-0.6-0.95-0.9c-0.03-0.1-0.08-0.2-0.15-0.3l-0.1-0.05
				l1.15-2.3c4.77,3.7,10.12,6.53,16.05,8.5L29.62,71.19z M36.17,17.09l15.55,8.9L33.27,64.04l-0.1,0.2
				c-5.97-2-11.32-4.85-16.05-8.55l2.35-4.8L36.17,17.09z"/>
			<linearGradient id="SVGID_23_" gradientUnits="userSpaceOnUse" x1="12.6328" y1="64.3047" x2="29.8329" y2="72.8545">
				<stop  offset="0" style="stop-color:#4B453D"/>
				<stop  offset="0.3451" style="stop-color:#B8AEA2"/>
				<stop  offset="0.4941" style="stop-color:#DCD6CD"/>
				<stop  offset="0.5882" style="stop-color:#CEC6BC"/>
				<stop  offset="0.7412" style="stop-color:#B4ADA3"/>
				<stop  offset="1" style="stop-color:#4A433E"/>
			</linearGradient>
			<path fill-rule="evenodd" clip-rule="evenodd" fill="url(#SVGID_23_)" d="M13.62,62.89l-1.25,2.55c0.07,0.07,0.08,0.18,0.05,0.35
				c0-0.13-0.03-0.22-0.1-0.25l-0.1-0.05l1.3-2.65L13.62,62.89z M29.62,71.19l-1.3,2.75l-0.05,0.05l1.3-2.75L29.62,71.19z"/>
			<linearGradient id="SVGID_24_" gradientUnits="userSpaceOnUse" x1="12.3975" y1="64.5195" x2="27.5629" y2="72.7391">
				<stop  offset="0" style="stop-color:#888888"/>
				<stop  offset="0.298" style="stop-color:#FFFFFF"/>
				<stop  offset="0.5569" style="stop-color:#B3B3B3"/>
				<stop  offset="0.7529" style="stop-color:#E6E6E6"/>
				<stop  offset="0.8863" style="stop-color:#777777"/>
				<stop  offset="1" style="stop-color:#6A6A6A"/>
			</linearGradient>
			<path fill-rule="evenodd" clip-rule="evenodd" fill="url(#SVGID_24_)" d="M29.57,71.24l-1.3,2.75l-0.15,0.1
				c-0.1,0.03-0.3-0.02-0.6-0.15c-0.3-0.04-0.6-0.1-0.9-0.2l-0.2,0.05c-0.03-0.07-0.1-0.12-0.2-0.15c-0.03-0.03-0.08-0.05-0.15-0.05
				c0-0.03-0.03-0.03-0.1,0c-1.7-0.43-3.6-1.18-5.7-2.25c-2.1-1.03-3.87-2.1-5.3-3.2c-0.4-0.37-0.78-0.7-1.15-1
				c-0.03-0.1-0.08-0.15-0.15-0.15c-0.5-0.53-0.92-0.93-1.25-1.2c0.03-0.17,0.02-0.28-0.05-0.35l1.25-2.55
				c0.07,0.1,0.12,0.2,0.15,0.3c0.33,0.3,0.65,0.6,0.95,0.9c1.6,1.57,3.77,3.03,6.5,4.4c2.7,1.33,5.13,2.2,7.3,2.6
				C28.89,71.09,29.24,71.14,29.57,71.24z"/>
			<linearGradient id="SVGID_25_" gradientUnits="userSpaceOnUse" x1="10.4053" y1="67.707" x2="31.0974" y2="78.0514">
				<stop  offset="0" style="stop-color:#454344"/>
				<stop  offset="0.149" style="stop-color:#4D4E4D"/>
				<stop  offset="0.2353" style="stop-color:#949C9E"/>
				<stop  offset="0.302" style="stop-color:#EAECE8"/>
				<stop  offset="0.4431" style="stop-color:#3A4245"/>
				<stop  offset="0.5529" style="stop-color:#768B98"/>
				<stop  offset="0.6941" style="stop-color:#2F261D"/>
				<stop  offset="0.8235" style="stop-color:#31383D"/>
			</linearGradient>
			<path fill-rule="evenodd" clip-rule="evenodd" fill="url(#SVGID_25_)" d="M26.22,73.64l-2.15,2.55c-0.43-0.07-0.92-0.23-1.45-0.5
				c-0.47-0.13-0.93-0.23-1.4-0.3l-2.4-1.2c-1.7-0.83-3.25-1.77-4.65-2.8c-0.23-0.1-0.42-0.22-0.55-0.35l-0.25-0.3l0.45-3.6
				c0.37,0.3,0.75,0.63,1.15,1c1.43,1.1,3.2,2.17,5.3,3.2c2.1,1.07,4,1.82,5.7,2.25c0.07-0.03,0.1-0.03,0.1,0
				C26.14,73.59,26.19,73.6,26.22,73.64z"/>
			<linearGradient id="SVGID_26_" gradientUnits="userSpaceOnUse" x1="12.9932" y1="72.8799" x2="24.2802" y2="78.531">
				<stop  offset="0" style="stop-color:#454344"/>
				<stop  offset="0.149" style="stop-color:#4D4E4D"/>
				<stop  offset="0.2353" style="stop-color:#949C9E"/>
				<stop  offset="0.302" style="stop-color:#EAECE8"/>
				<stop  offset="0.4431" style="stop-color:#3A4245"/>
				<stop  offset="0.5529" style="stop-color:#768B98"/>
				<stop  offset="0.6941" style="stop-color:#2F261D"/>
				<stop  offset="0.8235" style="stop-color:#31383D"/>
			</linearGradient>
			<path fill-rule="evenodd" clip-rule="evenodd" fill="url(#SVGID_26_)" d="M14.17,71.39c1.4,1.03,2.95,1.97,4.65,2.8l2.4,1.2
				c0.47,0.07,0.93,0.17,1.4,0.3l-0.75,1.55c-0.23,0.63-0.92,0.88-2.05,0.75c-0.07-0.03-0.27-0.08-0.6-0.15
				c-1.23-0.33-2.57-0.97-4-1.9c-0.17-0.17-0.33-0.33-0.5-0.5c-0.87-0.67-1.33-1.33-1.4-2L14.17,71.39z"/>
			<linearGradient id="SVGID_27_" gradientUnits="userSpaceOnUse" x1="11.8657" y1="65.8457" x2="28.3497" y2="74.0777">
				<stop  offset="0" style="stop-color:#4B453D"/>
				<stop  offset="0.3451" style="stop-color:#B8AEA2"/>
				<stop  offset="0.4941" style="stop-color:#DCD6CD"/>
				<stop  offset="0.5882" style="stop-color:#CEC6BC"/>
				<stop  offset="0.7412" style="stop-color:#B4ADA3"/>
				<stop  offset="1" style="stop-color:#4A433E"/>
			</linearGradient>
			<polygon fill-rule="evenodd" clip-rule="evenodd" fill="url(#SVGID_27_)" points="28.27,73.99 28.32,73.94 28.32,74.04 
				28.12,74.09 			"/>
		</g>
	</g>
	<g>
		<path fill-rule="evenodd" clip-rule="evenodd" fill="#FFFFFF" d="M21.87,51.64l0.45-0.65c0.4-0.03,0.78-0.12,1.15-0.25
			c0.43-0.13,0.77-0.32,1-0.55l0.35,0.25l-3.2,6l-0.6-0.35l2.55-4.7c-0.23,0.07-0.52,0.13-0.85,0.2
			C22.42,51.62,22.14,51.64,21.87,51.64z M26.67,52.84c-0.33,0.2-0.77,0.8-1.3,1.8c-0.53,0.97-0.8,1.65-0.8,2.05
			c0.03,0.47,0.22,0.77,0.55,0.9c0.23,0.17,0.52,0.13,0.85-0.1c0.4-0.23,0.85-0.83,1.35-1.8c0.5-1,0.75-1.72,0.75-2.15
			c-0.03-0.4-0.18-0.68-0.45-0.85S27.04,52.57,26.67,52.84z M27.97,52.09c0.43,0.23,0.7,0.63,0.8,1.2c0.03,0.7-0.23,1.62-0.8,2.75
			c-0.57,0.97-1.13,1.65-1.7,2.05c-0.5,0.37-1.02,0.38-1.55,0.05c-0.47-0.23-0.73-0.63-0.8-1.2c-0.03-0.63,0.25-1.5,0.85-2.6
			c0.53-1.03,1.07-1.73,1.6-2.1C26.9,51.87,27.44,51.82,27.97,52.09z M31.77,54.14c0.47,0.23,0.72,0.63,0.75,1.2
			c0,0.7-0.27,1.6-0.8,2.7c-0.5,1.03-1.03,1.73-1.6,2.1c-0.53,0.4-1.07,0.43-1.6,0.1c-0.47-0.23-0.72-0.68-0.75-1.35
			c-0.07-0.57,0.2-1.42,0.8-2.55c0.53-1.03,1.05-1.73,1.55-2.1C30.69,53.87,31.24,53.84,31.77,54.14z M31.37,54.69
			c-0.23-0.1-0.53-0.03-0.9,0.2c-0.33,0.2-0.77,0.8-1.3,1.8c-0.5,0.93-0.73,1.62-0.7,2.05c0,0.43,0.15,0.73,0.45,0.9
			c0.23,0.17,0.53,0.13,0.9-0.1c0.37-0.27,0.82-0.87,1.35-1.8c0.47-0.97,0.7-1.68,0.7-2.15C31.87,55.19,31.7,54.89,31.37,54.69z"/>
	</g>
</g>
<g>
	<g>
		<g>
			<g>
				
					<linearGradient id="SVGID_28_" gradientUnits="userSpaceOnUse" x1="48.8467" y1="76.457" x2="69.9974" y2="76.457" gradientTransform="matrix(1 -3.546077e-003 0 1 -1.571655e-003 -0.7631)">
					<stop  offset="0" style="stop-color:#222222"/>
					<stop  offset="0.5569" style="stop-color:#626262"/>
					<stop  offset="1" style="stop-color:#1A1A1A"/>
				</linearGradient>
				<path fill-rule="evenodd" clip-rule="evenodd" fill="url(#SVGID_28_)" d="M69.22,77.69c-0.1,0.03-0.22,0.05-0.35,0.05
					c-6.2,1.13-12.28,1.17-18.25,0.1c-0.17-0.03-0.33-0.07-0.5-0.1v-5.35c0.17,0.03,0.33,0.07,0.5,0.1c5.97,1.03,12.07,1,18.3-0.1
					c0.1-0.03,0.18-0.05,0.25-0.05L69.22,77.69z M51.57,73.24l-0.05,3.95L51.57,73.24z M52.12,73.29v3.95V73.29z M57.82,73.94
					l-0.05,3.95L57.82,73.94z M58.42,73.99l0.05,3.95L58.42,73.99z M54.57,73.64l0.05,3.95L54.57,73.64z M55.27,73.74v3.9V73.74z
					 M67.07,73.49l-0.05,4L67.07,73.49z M67.52,73.34l0.05,3.95L67.52,73.34z M61.37,73.94v4.05V73.94z M60.67,73.94v4.05V73.94z
					 M63.77,73.89v3.9V73.89z M64.32,73.79l-0.05,3.95L64.32,73.79z"/>
				
					<path fill-rule="evenodd" clip-rule="evenodd" fill="none" stroke="#000000" stroke-width="0.2" stroke-linecap="square" stroke-linejoin="round" stroke-miterlimit="3" d="
					M51.57,73.24l-0.05,3.95 M57.82,73.94l-0.05,3.95 M54.57,73.64l0.05,3.95 M67.07,73.49l-0.05,4 M60.67,73.94v4.05 M63.77,73.89
					v3.9"/>
				
					<path fill-rule="evenodd" clip-rule="evenodd" fill="none" stroke="#FFFFFF" stroke-width="0.2" stroke-linecap="square" stroke-linejoin="round" stroke-miterlimit="3" stroke-opacity="0.0863" d="
					M52.12,73.29v3.95 M58.42,73.99l0.05,3.95 M55.27,73.74v3.9 M67.52,73.34l0.05,3.95 M61.37,73.94v4.05 M64.32,73.79l-0.05,3.95"
					/>
			</g>
		</g>
		<g>
			<g>
				
					<linearGradient id="SVGID_29_" gradientUnits="userSpaceOnUse" x1="42.4546" y1="55.0361" x2="83.6025" y2="55.0361" gradientTransform="matrix(1 -1.822597e-003 -7.235924e-004 1 -0.1116 -0.3926)">
					<stop  offset="0" style="stop-color:#454344"/>
					<stop  offset="0.149" style="stop-color:#4D4E4D"/>
					<stop  offset="0.2353" style="stop-color:#949C9E"/>
					<stop  offset="0.302" style="stop-color:#EAECE8"/>
					<stop  offset="0.4431" style="stop-color:#3A4245"/>
					<stop  offset="0.5529" style="stop-color:#768B98"/>
					<stop  offset="0.6941" style="stop-color:#2F261D"/>
					<stop  offset="0.8235" style="stop-color:#31383D"/>
				</linearGradient>
				<path fill-rule="evenodd" clip-rule="evenodd" fill="url(#SVGID_29_)" d="M58.22,71.04c0.03-0.03,0.03-0.05,0-0.05l-0.05-0.03
					L58.22,71.04z M52.97,71.29l0.85,0.05l-0.85-0.1V71.29z M50.72,27.09l18.05,0.1l0.1,31.5v0.65l0.05,3.55v4.15l-0.05,1l0.05,4.35
					c-6.23,1.1-12.33,1.13-18.3,0.1v-0.25l-0.05-6.6l0.05-1.05v-4.15v-3.5v-0.65L50.72,27.09z M50.67,80.54h-0.1l0.05-2.7
					c5.97,1.07,12.05,1.03,18.25-0.1l0.05,3l-0.1-0.05c-0.3,0.17-0.65,0.28-1.05,0.35c-2.13,0.7-4.75,1.02-7.85,0.95
					c-3,0.07-5.57-0.2-7.7-0.8c-0.43-0.2-0.78-0.37-1.05-0.5C51,80.65,50.84,80.6,50.67,80.54z"/>
				<linearGradient id="SVGID_30_" gradientUnits="userSpaceOnUse" x1="50.7041" y1="82.8965" x2="68.9554" y2="82.5056">
					<stop  offset="0.0392" style="stop-color:#545401"/>
					<stop  offset="0.2824" style="stop-color:#FFFF00"/>
					<stop  offset="0.4392" style="stop-color:#ACAB00"/>
					<stop  offset="0.5529" style="stop-color:#545401"/>
					<stop  offset="0.7059" style="stop-color:#8E8D02"/>
					<stop  offset="0.9294" style="stop-color:#141401"/>
					<stop  offset="1" style="stop-color:#000000"/>
				</linearGradient>
				<path fill-rule="evenodd" clip-rule="evenodd" fill="url(#SVGID_30_)" d="M52.82,84.24l-0.15-0.1c-0.6-0.17-1.15-0.35-1.65-0.55
					c-0.1-0.1-0.22-0.2-0.35-0.3v-2.75c0.17,0.07,0.33,0.12,0.5,0.15c0.27,0.13,0.62,0.3,1.05,0.5c2.13,0.6,4.7,0.87,7.7,0.8
					c3.1,0.07,5.72-0.25,7.85-0.95c0.4-0.07,0.75-0.18,1.05-0.35v3.05l0.05,0.2c-0.23,0.03-0.46,0.1-0.7,0.2
					c-0.3,0.1-0.6,0.17-0.9,0.2l-0.1,0.05c-0.07,0-0.18,0.02-0.35,0.05h-0.15c-1.83,0.4-3.93,0.6-6.3,0.6c-2.3,0-4.3-0.18-6-0.55
					C53.77,84.39,53.25,84.3,52.82,84.24z"/>
				<linearGradient id="SVGID_31_" gradientUnits="userSpaceOnUse" x1="50.5688" y1="82.1787" x2="69.7429" y2="82.1467">
					<stop  offset="0" style="stop-color:#4B453D"/>
					<stop  offset="0.3451" style="stop-color:#B8AEA2"/>
					<stop  offset="0.4941" style="stop-color:#DCD6CD"/>
					<stop  offset="0.5882" style="stop-color:#CEC6BC"/>
					<stop  offset="0.7412" style="stop-color:#B4ADA3"/>
					<stop  offset="1" style="stop-color:#4A433E"/>
				</linearGradient>
				<path fill-rule="evenodd" clip-rule="evenodd" fill="url(#SVGID_31_)" d="M68.92,80.74v3.05l-0.1-0.05v-3.05L68.92,80.74z
					 M51.02,83.59c-0.13-0.03-0.23-0.1-0.3-0.2l-0.15-0.05v-2.8h0.1v2.75C50.8,83.39,50.92,83.49,51.02,83.59z"/>
				<linearGradient id="SVGID_32_" gradientUnits="userSpaceOnUse" x1="50.6289" y1="83.9082" x2="68.761" y2="83.839">
					<stop  offset="0" style="stop-color:#4B453D"/>
					<stop  offset="0.3451" style="stop-color:#B8AEA2"/>
					<stop  offset="0.4941" style="stop-color:#DCD6CD"/>
					<stop  offset="0.5882" style="stop-color:#CEC6BC"/>
					<stop  offset="0.7412" style="stop-color:#B4ADA3"/>
					<stop  offset="1" style="stop-color:#4A433E"/>
				</linearGradient>
				<polygon fill-rule="evenodd" clip-rule="evenodd" fill="url(#SVGID_32_)" points="68.92,83.79 68.92,83.94 68.87,83.94 
					68.82,83.74 				"/>
				<linearGradient id="SVGID_33_" gradientUnits="userSpaceOnUse" x1="54.5972" y1="89.5762" x2="67.2471" y2="89.5986">
					<stop  offset="0" style="stop-color:#454344"/>
					<stop  offset="0.149" style="stop-color:#4D4E4D"/>
					<stop  offset="0.2353" style="stop-color:#949C9E"/>
					<stop  offset="0.302" style="stop-color:#EAECE8"/>
					<stop  offset="0.4431" style="stop-color:#3A4245"/>
					<stop  offset="0.5529" style="stop-color:#768B98"/>
					<stop  offset="0.6941" style="stop-color:#2F261D"/>
					<stop  offset="0.8235" style="stop-color:#31383D"/>
				</linearGradient>
				<path fill-rule="evenodd" clip-rule="evenodd" fill="url(#SVGID_33_)" d="M64.37,87.99l0.1,2.05c-0.2,0.27-0.55,0.5-1.05,0.7
					c-2.37,0.8-4.78,0.78-7.25-0.05c-0.53-0.17-0.87-0.37-1-0.6l-0.1-0.15v-2.1c1.63,0.23,3.42,0.33,5.35,0.3l2.65-0.05
					C63.54,88.05,63.97,88.02,64.37,87.99z"/>
				
					<linearGradient id="SVGID_34_" gradientUnits="userSpaceOnUse" x1="50.8296" y1="86.7773" x2="73.9313" y2="86.7773" gradientTransform="matrix(1 -2.164497e-003 -3.546142e-003 1 -0.5468 -0.4647)">
					<stop  offset="0" style="stop-color:#454344"/>
					<stop  offset="0.149" style="stop-color:#4D4E4D"/>
					<stop  offset="0.2353" style="stop-color:#949C9E"/>
					<stop  offset="0.302" style="stop-color:#EAECE8"/>
					<stop  offset="0.4431" style="stop-color:#3A4245"/>
					<stop  offset="0.5529" style="stop-color:#768B98"/>
					<stop  offset="0.6941" style="stop-color:#2F261D"/>
					<stop  offset="0.8235" style="stop-color:#31383D"/>
				</linearGradient>
				<path fill-rule="evenodd" clip-rule="evenodd" fill="url(#SVGID_34_)" d="M55.07,87.84c-0.33-0.1-0.8-0.3-1.4-0.6l-0.85-3
					c0.43,0.07,0.95,0.15,1.55,0.25c1.7,0.37,3.7,0.55,6,0.55c2.37,0,4.47-0.2,6.3-0.6h0.15l-0.8,3.25
					c-0.53,0.13-1.03,0.21-1.5,0.25c-0.07,0.07-0.12,0.08-0.15,0.05c-0.4,0.03-0.83,0.07-1.3,0.1l-2.65,0.05
					C58.49,88.17,56.7,88.07,55.07,87.84z"/>
			</g>
		</g>
		<g>
			<path fill-rule="evenodd" clip-rule="evenodd" fill="#CECE00" d="M60.67,64.29c-0.23,0.37-0.38,1.17-0.45,2.4
				c-0.1,1.2-0.05,2.02,0.15,2.45c0.2,0.4,0.48,0.62,0.85,0.65c0.33,0.03,0.62-0.17,0.85-0.6c0.27-0.33,0.43-1.12,0.5-2.35
				c0.07-1.2,0.02-2.03-0.15-2.5c-0.2-0.37-0.48-0.58-0.85-0.65C61.2,63.65,60.9,63.85,60.67,64.29z M63.02,63.79
				c0.3,0.67,0.4,1.7,0.3,3.1c-0.03,1.23-0.25,2.15-0.65,2.75c-0.4,0.63-0.9,0.93-1.5,0.9s-1.07-0.33-1.4-0.9
				c-0.33-0.63-0.47-1.63-0.4-3c0.13-1.27,0.38-2.2,0.75-2.8c0.4-0.67,0.9-0.97,1.5-0.9C62.22,62.97,62.69,63.25,63.02,63.79z
				 M56.17,64.84c-0.33,0.23-0.62,0.4-0.85,0.5l0.05-0.9c0.43-0.2,0.83-0.47,1.2-0.8c0.3-0.3,0.53-0.63,0.7-1l0.5,0.05l-0.5,7.5
				l-0.8-0.15l0.4-5.75C56.7,64.45,56.47,64.64,56.17,64.84z"/>
		</g>
	</g>
</g>
<g>
	<g>
		<linearGradient id="SVGID_35_" gradientUnits="userSpaceOnUse" x1="19.2949" y1="22.2339" x2="108.6929" y2="33.8248">
			<stop  offset="0" style="stop-color:#A7B7C7"/>
			<stop  offset="0.1647" style="stop-color:#E6E9EE"/>
			<stop  offset="0.6275" style="stop-color:#FAFBFC"/>
			<stop  offset="1" style="stop-color:#ADB9C9"/>
		</linearGradient>
		<path fill-rule="evenodd" clip-rule="evenodd" fill="url(#SVGID_35_)" d="M105.22,37.44c-0.77,0.57-2.08,1.28-3.95,2.15
			c-7.43,3.43-18.93,5.63-34.5,6.6c-24.1-0.27-40.77-4.43-50-12.5c0.6-1.93,1.15-3.63,1.65-5.1c1.3-3.87,2.05-5.98,2.25-6.35
			c0.13-0.3,0.2-0.5,0.2-0.6l4.3-17.7l78.55,12.7L105.22,37.44z"/>
		<linearGradient id="SVGID_36_" gradientUnits="userSpaceOnUse" x1="15.728" y1="41.2676" x2="103.0473" y2="52.8608">
			<stop  offset="0" style="stop-color:#222222"/>
			<stop  offset="0.0941" style="stop-color:#626262"/>
			<stop  offset="0.3176" style="stop-color:#2B2B2B"/>
			<stop  offset="0.6196" style="stop-color:#5E5E5E"/>
			<stop  offset="1" style="stop-color:#151515"/>
		</linearGradient>
		<path fill-rule="evenodd" clip-rule="evenodd" fill="url(#SVGID_36_)" d="M16.77,33.69c9.23,8.07,25.9,12.23,50,12.5
			c15.57-0.97,27.07-3.17,34.5-6.6c1.87-0.87,3.18-1.58,3.95-2.15l1,14.25c-6.33,4.4-17.77,7.73-34.3,10
			c-16.87,1.27-32.23-0.62-46.1-5.65c-3.13-1.2-5.32-2.2-6.55-3c-1.9-1.37-3.4-2.88-4.5-4.55L16.77,33.69z"/>
	</g>
</g>
<g>
	<g>
		<path fill-rule="evenodd" clip-rule="evenodd" fill-opacity="0.298" d="M23.42,40.54l-0.55,11.55c-0.13-0.07-0.28-0.13-0.45-0.2
			l0.55-11.55C23.1,40.44,23.25,40.5,23.42,40.54z M20.87,39.54l-0.6,11.35c-0.17-0.1-0.33-0.18-0.5-0.25l0.6-11.35
			C20.5,39.35,20.67,39.44,20.87,39.54z M18.42,38.44l-0.55,11.15c-0.17-0.1-0.32-0.17-0.45-0.2l0.5-11.15
			C18.09,38.3,18.25,38.37,18.42,38.44z M16.42,48.84l0.4-3.35l-0.15,3.5C16.6,48.92,16.52,48.87,16.42,48.84z M25.87,41.44
			l-0.6,11.75c-0.13-0.07-0.27-0.13-0.4-0.2l0.55-11.7C25.55,41.35,25.7,41.4,25.87,41.44z M33.77,43.99l-0.6,12.15
			c-0.13-0.07-0.28-0.13-0.45-0.2l0.55-12.05C33.44,43.95,33.6,43.99,33.77,43.99z M36.17,44.69l-0.6,12.15
			c-0.17-0.03-0.32-0.07-0.45-0.1l0.6-12.15C35.85,44.62,36,44.65,36.17,44.69z M31.07,43.24l-0.55,12
			c-0.13-0.07-0.28-0.12-0.45-0.15l0.6-12C30.8,43.12,30.94,43.17,31.07,43.24z M41.92,46.09l-0.6,12.2c-0.17-0.07-0.33-0.1-0.5-0.1
			l0.6-12.25C41.59,45.97,41.75,46.02,41.92,46.09z M39.47,45.49l-0.6,12.25c-0.17-0.07-0.32-0.12-0.45-0.15l0.55-12.15
			C39.1,45.47,39.27,45.49,39.47,45.49z M46.92,46.99l-0.55,12.25c-0.17-0.07-0.32-0.08-0.45-0.05l0.55-12.25
			C46.64,46.97,46.79,46.99,46.92,46.99z M44.52,46.54l-0.6,12.3c-0.17-0.07-0.33-0.1-0.5-0.1l0.65-12.25
			C44.2,46.52,44.35,46.54,44.52,46.54z M49.82,47.44l-0.55,12.15c-0.17,0-0.33-0.02-0.5-0.05l0.6-12.2
			C49.5,47.37,49.65,47.4,49.82,47.44z M52.27,47.74l-0.55,12.1c-0.17,0-0.33,0-0.5,0l0.6-12.15
			C51.99,47.69,52.14,47.71,52.27,47.74z M54.92,47.99l-0.55,12.05c-0.17,0-0.33,0-0.5,0l0.6-12.1
			C54.64,47.94,54.79,47.96,54.92,47.99z M57.42,48.19l-0.55,12c-0.2-0.03-0.37-0.03-0.5,0l0.55-12.05
			C57.09,48.14,57.25,48.15,57.42,48.19z M60.37,48.29l-0.55,11.95c-0.17,0-0.33-0.02-0.5-0.05l0.6-11.9
			C60.05,48.29,60.2,48.29,60.37,48.29z M65.52,48.34l-0.6,11.75c-0.13,0.03-0.28,0.05-0.45,0.05l0.55-11.75
			C65.19,48.35,65.35,48.34,65.52,48.34z M67.92,48.29l-0.5,11.6c-0.13,0.04-0.3,0.07-0.5,0.1l0.55-11.7
			C67.64,48.29,67.79,48.29,67.92,48.29z M62.82,48.34l-0.55,11.85c-0.17,0-0.32,0-0.45,0l0.55-11.85
			C62.5,48.34,62.65,48.34,62.82,48.34z M28.72,42.44l-0.65,11.9c-0.1-0.07-0.23-0.13-0.4-0.2l0.55-11.85
			C28.39,42.35,28.55,42.4,28.72,42.44z M70.87,48.14l-0.5,11.55c-0.2,0-0.38,0-0.55,0l0.6-11.55
			C70.55,48.14,70.7,48.14,70.87,48.14z M76.02,47.64l-0.5,11.35c-0.17,0.03-0.33,0.07-0.5,0.1l0.55-11.35
			C75.7,47.71,75.85,47.67,76.02,47.64z M73.37,47.89l-0.55,11.5c-0.2,0.04-0.37,0.05-0.5,0.05l0.55-11.45
			C73,47.99,73.17,47.96,73.37,47.89z M78.52,47.39l-0.55,11.25c-0.13,0-0.28,0.02-0.45,0.05l0.5-11.3
			C78.19,47.35,78.35,47.35,78.52,47.39z M81.77,46.79l-0.5,11.15c-0.13,0.03-0.28,0.07-0.45,0.1l0.55-11.1
			C81.5,46.87,81.64,46.82,81.77,46.79z M84.37,46.39l-0.6,11c-0.13,0-0.3,0.04-0.5,0.1l0.55-11
			C83.99,46.42,84.17,46.39,84.37,46.39z M86.97,45.79l-0.5,11c-0.13,0.03-0.3,0.05-0.5,0.05l0.55-10.9
			C86.69,45.9,86.84,45.85,86.97,45.79z M94.92,43.79l-0.5,10.65c-0.13,0.03-0.3,0.08-0.5,0.15l0.55-10.6
			C94.6,43.95,94.75,43.89,94.92,43.79z M97.67,43.04l-0.5,10.5c-0.2,0.03-0.37,0.08-0.5,0.15l0.5-10.5
			C97.34,43.12,97.5,43.07,97.67,43.04z M92.37,44.54l-0.45,10.65c-0.17,0.07-0.32,0.12-0.45,0.15l0.5-10.7
			C92.1,44.6,92.24,44.57,92.37,44.54z M102.92,41.24l-0.5,10.35c-0.17,0.03-0.32,0.08-0.45,0.15l0.45-10.3
			C102.59,41.34,102.75,41.27,102.92,41.24z M100.12,42.24l-0.5,10.45c-0.17,0-0.33,0.03-0.5,0.1l0.6-10.45
			C99.85,42.3,99.99,42.27,100.12,42.24z M89.47,45.24l-0.5,10.8c-0.13,0.07-0.3,0.12-0.5,0.15l0.55-10.8
			C89.19,45.35,89.34,45.3,89.47,45.24z"/>
		<path fill-rule="evenodd" clip-rule="evenodd" fill="#FFFFFF" fill-opacity="0.0863" d="M19.62,38.99l-0.6,11.25
			c-0.1-0.1-0.23-0.17-0.4-0.2l0.5-11.25C19.29,38.85,19.45,38.92,19.62,38.99z M22.27,40.09l-0.55,11.45
			c-0.17-0.07-0.33-0.13-0.5-0.2l0.55-11.45C21.9,39.95,22.07,40.02,22.27,40.09z M27.47,42.09l-0.55,11.8
			c-0.17-0.1-0.32-0.17-0.45-0.2l0.6-11.85C27.2,41.9,27.34,41.99,27.47,42.09z M23.67,52.49l0.5-11.65
			c0.17,0.03,0.32,0.08,0.45,0.15l-0.55,11.65C23.94,52.57,23.8,52.52,23.67,52.49z M38.27,45.24l-0.6,12.2
			c-0.17-0.07-0.33-0.12-0.5-0.15l0.6-12.2C37.94,45.12,38.1,45.17,38.27,45.24z M34.97,44.39l-0.55,12.1
			c-0.2-0.03-0.35-0.07-0.45-0.1l0.55-12.15C34.65,44.27,34.8,44.32,34.97,44.39z M29.92,42.89l-0.55,11.9
			c-0.17-0.03-0.32-0.08-0.45-0.15l0.55-11.9C29.6,42.77,29.75,42.82,29.92,42.89z M32.57,43.69l-0.6,12.05
			c-0.13-0.03-0.28-0.08-0.45-0.15l0.6-12.05C32.25,43.57,32.4,43.62,32.57,43.69z M40.67,45.79l-0.6,12.2
			c-0.13-0.03-0.28-0.07-0.45-0.1l0.6-12.15C40.35,45.74,40.5,45.75,40.67,45.79z M45.77,46.84l-0.6,12.15
			c-0.17,0-0.32-0.02-0.45-0.05l0.6-12.2C45.42,46.74,45.57,46.77,45.77,46.84z M43.32,46.34l-0.65,12.2
			c-0.13-0.03-0.28-0.05-0.45-0.05l0.65-12.25C43,46.27,43.15,46.3,43.32,46.34z M48.62,47.29l-0.6,12.2
			c-0.17-0.03-0.32-0.07-0.45-0.1l0.55-12.2C48.29,47.22,48.45,47.25,48.62,47.29z M56.17,48.04l-0.55,12.1c-0.17,0-0.33,0-0.5,0
			l0.6-12.1C55.89,48.07,56.04,48.07,56.17,48.04z M53.72,47.89l-0.6,12.1c-0.13,0-0.27-0.02-0.4-0.05l0.6-12.1
			C53.45,47.84,53.59,47.85,53.72,47.89z M51.07,47.54l-0.6,12.2c-0.13-0.03-0.28-0.03-0.45,0l0.6-12.2
			C50.75,47.57,50.9,47.57,51.07,47.54z M61.62,48.34l-0.6,11.85c-0.17,0.03-0.32,0.05-0.45,0.05l0.55-11.9
			C61.25,48.34,61.42,48.34,61.62,48.34z M66.77,48.34l-0.6,11.7c-0.13,0-0.28,0.02-0.45,0.05l0.6-11.75
			C66.45,48.34,66.6,48.34,66.77,48.34z M64.32,48.39l-0.6,11.75c-0.17,0-0.33,0.02-0.5,0.05l0.55-11.85
			C63.97,48.34,64.15,48.35,64.32,48.39z M59.17,48.24l-0.6,11.95c-0.17,0.03-0.33,0.03-0.5,0l0.6-11.95
			C58.87,48.24,59.04,48.24,59.17,48.24z M69.62,48.24l-0.5,11.55c-0.17,0-0.33,0.02-0.5,0.05l0.55-11.6
			C69.3,48.24,69.45,48.24,69.62,48.24z M74.82,47.74l-0.55,11.5c-0.17,0-0.33,0-0.5,0l0.55-11.4
			C74.49,47.8,74.65,47.77,74.82,47.74z M72.12,48.04l-0.55,11.5c-0.17,0-0.33,0.03-0.5,0.1l0.65-11.55
			C71.85,48.05,71.99,48.04,72.12,48.04z M77.27,47.49l-0.55,11.3c-0.13,0.03-0.27,0.05-0.4,0.05l0.45-11.3
			C76.94,47.54,77.1,47.52,77.27,47.49z M80.62,47.04l-0.55,11.15c-0.2,0.03-0.35,0.08-0.45,0.15l0.5-11.25
			C80.25,47.05,80.42,47.04,80.62,47.04z M85.72,46.09l-0.4,10.95c-0.2,0.07-0.38,0.12-0.55,0.15l0.55-11
			C85.49,46.19,85.62,46.15,85.72,46.09z M83.12,46.64l-0.6,11c-0.13,0.04-0.28,0.07-0.45,0.1l0.55-11.1
			C82.75,46.64,82.92,46.64,83.12,46.64z M88.32,45.54l-0.6,10.85c-0.13,0.04-0.28,0.08-0.45,0.15l0.55-10.85
			C87.95,45.62,88.12,45.57,88.32,45.54z M98.87,42.64l-0.5,10.45c-0.17,0.03-0.3,0.08-0.4,0.15l0.45-10.45
			C98.55,42.69,98.7,42.64,98.87,42.64z M96.37,43.39l-0.5,10.55c-0.13,0.07-0.3,0.12-0.5,0.15l0.55-10.55
			C96.09,43.5,96.24,43.45,96.37,43.39z M93.67,44.19l-0.5,10.65c-0.17,0-0.32,0.05-0.45,0.15l0.5-10.65
			C93.39,44.27,93.54,44.22,93.67,44.19z M91.22,44.84l-0.5,10.75c-0.17,0.07-0.35,0.12-0.55,0.15l0.55-10.75
			C90.89,44.92,91.05,44.87,91.22,44.84z M101.67,41.69l-0.45,10.35c-0.2,0.07-0.37,0.13-0.5,0.2l0.55-10.35
			c0.03-0.03,0.05-0.07,0.05-0.1C101.45,41.75,101.57,41.72,101.67,41.69z M103.27,51.24l0.45-10.3c0.17-0.03,0.32-0.08,0.45-0.15
			l0.05,0.5l-0.5,9.8C103.55,51.12,103.4,51.17,103.27,51.24z M104.52,50.74v-1.25l0.05,1.25H104.52z"/>
	</g>
</g>
</svg>
