<?xml version="1.0" encoding="utf-8"?>
<!-- Generator: Adobe Illustrator 16.0.0, SVG Export Plug-In . SVG Version: 6.00 Build 0)  -->
<!DOCTYPE svg PUBLIC "-//W3C//DTD SVG 1.1//EN" "http://www.w3.org/Graphics/SVG/1.1/DTD/svg11.dtd">
<svg version="1.1" id="Layer_2" xmlns="http://www.w3.org/2000/svg" xmlns:xlink="http://www.w3.org/1999/xlink" x="0px" y="0px"
	 width="118.5px" height="98.5px" viewBox="0 0 118.5 98.5" enable-background="new 0 0 118.5 98.5" xml:space="preserve">
<symbol  id="rubber_turn_x5F_a" viewBox="-9.85 -3.2 19.65 6.4">
	<linearGradient id="SVGID_1_" gradientUnits="userSpaceOnUse" x1="-11.2002" y1="0" x2="10.5998" y2="0">
		<stop  offset="0" style="stop-color:#222222"/>
		<stop  offset="0.5569" style="stop-color:#626262"/>
		<stop  offset="1" style="stop-color:#1A1A1A"/>
	</linearGradient>
	<path fill-rule="evenodd" clip-rule="evenodd" fill="url(#SVGID_1_)" d="M9.8,3.2v-5.5C3.1-3.5-3.45-3.5-9.85-2.3v5.5
		C-3.45,2,3.1,2,9.8,3.2z"/>
</symbol>
<g>
	<g>
		<linearGradient id="SVGID_2_" gradientUnits="userSpaceOnUse" x1="70.4902" y1="61.3613" x2="89.4495" y2="58.5959">
			<stop  offset="0" style="stop-color:#4B453D"/>
			<stop  offset="0.3451" style="stop-color:#B8AEA2"/>
			<stop  offset="0.4941" style="stop-color:#DCD6CD"/>
			<stop  offset="0.5882" style="stop-color:#CEC6BC"/>
			<stop  offset="0.7412" style="stop-color:#B4ADA3"/>
			<stop  offset="1" style="stop-color:#4A433E"/>
		</linearGradient>
		<path fill-rule="evenodd" clip-rule="evenodd" fill="url(#SVGID_2_)" d="M88.83,60.28h-0.05l-0.45-3l0.05,0.05L88.83,60.28z
			 M70.38,59.78l0.45,2.7c0.1,0.1,0.2,0.17,0.3,0.2c-0.13,0-0.23-0.03-0.3-0.1c-0.03-0.03-0.07-0.03-0.1,0L70.38,59.78z"/>
		<linearGradient id="SVGID_3_" gradientUnits="userSpaceOnUse" x1="70.5586" y1="63.0186" x2="88.7157" y2="60.3665">
			<stop  offset="0" style="stop-color:#4B453D"/>
			<stop  offset="0.3451" style="stop-color:#B8AEA2"/>
			<stop  offset="0.4941" style="stop-color:#DCD6CD"/>
			<stop  offset="0.5882" style="stop-color:#CEC6BC"/>
			<stop  offset="0.7412" style="stop-color:#B4ADA3"/>
			<stop  offset="1" style="stop-color:#4A433E"/>
		</linearGradient>
		<polygon fill-rule="evenodd" clip-rule="evenodd" fill="url(#SVGID_3_)" points="88.78,60.28 88.83,60.28 88.78,60.43 		"/>
	</g>
	<g>
		<g>
			<linearGradient id="SVGID_4_" gradientUnits="userSpaceOnUse" x1="58.2749" y1="33.7446" x2="98.9137" y2="27.8893">
				<stop  offset="0" style="stop-color:#454344"/>
				<stop  offset="0.149" style="stop-color:#4D4E4D"/>
				<stop  offset="0.2353" style="stop-color:#949C9E"/>
				<stop  offset="0.302" style="stop-color:#EAECE8"/>
				<stop  offset="0.4431" style="stop-color:#3A4245"/>
				<stop  offset="0.5529" style="stop-color:#768B98"/>
				<stop  offset="0.6941" style="stop-color:#2F261D"/>
				<stop  offset="0.8235" style="stop-color:#31383D"/>
			</linearGradient>
			<path fill-rule="evenodd" clip-rule="evenodd" fill="url(#SVGID_4_)" d="M87.28,48.93c-6.03,2-12.05,2.92-18.05,2.75l-2.15-15.1
				l-4.8-32.7l18-2.7l5.5,37.9L87.28,48.93z M69.98,56.93c6,0.2,12.02-0.68,18.05-2.65l0.4,3.1l-0.1-0.05
				c-0.23,0.23-0.55,0.43-0.95,0.6c-2.03,0.87-4.55,1.57-7.55,2.1c-3,0.37-5.58,0.42-7.75,0.15c-0.5-0.03-0.92-0.13-1.25-0.3
				c-0.17-0.07-0.32-0.1-0.45-0.1L69.98,56.93z"/>
			<linearGradient id="SVGID_5_" gradientUnits="userSpaceOnUse" x1="67.877" y1="54.9131" x2="88.7342" y2="51.8114">
				<stop  offset="0" style="stop-color:#222222"/>
				<stop  offset="0.5569" style="stop-color:#626262"/>
				<stop  offset="1" style="stop-color:#1A1A1A"/>
			</linearGradient>
			<path fill-rule="evenodd" clip-rule="evenodd" fill="url(#SVGID_5_)" d="M88.03,54.28c-6.03,1.97-12.05,2.85-18.05,2.65
				c-0.17,0.03-0.33,0.05-0.5,0.05l-0.75-5.3c0.17-0.03,0.33-0.03,0.5,0c6,0.17,12.02-0.75,18.05-2.75c0.07,0,0.15-0.03,0.25-0.1
				l0.8,5.35C88.2,54.18,88.1,54.21,88.03,54.28z M80.08,51.58l0.55,3.9L80.08,51.58z M85.58,50.23l0.55,3.95L85.58,50.23z
				 M86.13,50.08l0.55,3.95L86.13,50.08z M82.43,51.18l0.55,3.9L82.43,51.18z M82.98,51.03l0.55,3.85L82.98,51.03z M70.33,52.28
				l0.55,3.95L70.33,52.28z M70.88,52.28l0.55,3.9L70.88,52.28z M77.23,51.98l0.55,3.95L77.23,51.98z M73.33,52.28l0.55,3.9
				L73.33,52.28z M79.38,51.68l0.55,3.95L79.38,51.68z M76.48,52.08l0.6,3.9L76.48,52.08z M74.08,52.23l0.55,3.95L74.08,52.23z"/>
			<linearGradient id="SVGID_6_" gradientUnits="userSpaceOnUse" x1="70.9834" y1="62.1904" x2="88.6115" y2="59.0829">
				<stop  offset="0" style="stop-color:#888888"/>
				<stop  offset="0.298" style="stop-color:#FFFFFF"/>
				<stop  offset="0.5569" style="stop-color:#B3B3B3"/>
				<stop  offset="0.7529" style="stop-color:#E6E6E6"/>
				<stop  offset="0.8863" style="stop-color:#777777"/>
				<stop  offset="1" style="stop-color:#6A6A6A"/>
			</linearGradient>
			<path fill-rule="evenodd" clip-rule="evenodd" fill="url(#SVGID_6_)" d="M86.93,61.43l-0.15-0.05c-1.73,0.7-3.75,1.23-6.05,1.6
				c-2.27,0.3-4.33,0.4-6.2,0.3c-0.47-0.03-0.97-0.1-1.5-0.2c-0.07,0-0.13-0.02-0.2-0.05c-0.67-0.07-1.22-0.17-1.65-0.3
				c-0.13-0.03-0.23-0.1-0.3-0.2l-0.5-2.75c0.13,0,0.28,0.03,0.45,0.1c0.33,0.17,0.75,0.27,1.25,0.3c2.17,0.27,4.75,0.22,7.75-0.15
				c3-0.53,5.52-1.23,7.55-2.1c0.4-0.17,0.72-0.37,0.95-0.6l0.5,3.05v0.1c-0.13,0.1-0.32,0.2-0.55,0.3
				c-0.33,0.13-0.63,0.28-0.9,0.45c0-0.07-0.05-0.03-0.15,0.1C87.13,61.3,87.03,61.33,86.93,61.43z"/>
			
				<linearGradient id="SVGID_7_" gradientUnits="userSpaceOnUse" x1="38.3989" y1="104.7813" x2="61.419" y2="104.7813" gradientTransform="matrix(0.9894 -0.1455 0.135 0.9909 18.5239 -32.7633)">
				<stop  offset="0" style="stop-color:#454344"/>
				<stop  offset="0.149" style="stop-color:#4D4E4D"/>
				<stop  offset="0.2353" style="stop-color:#949C9E"/>
				<stop  offset="0.302" style="stop-color:#EAECE8"/>
				<stop  offset="0.4431" style="stop-color:#3A4245"/>
				<stop  offset="0.5529" style="stop-color:#768B98"/>
				<stop  offset="0.6941" style="stop-color:#2F261D"/>
				<stop  offset="0.8235" style="stop-color:#31383D"/>
			</linearGradient>
			<path fill-rule="evenodd" clip-rule="evenodd" fill="url(#SVGID_7_)" d="M85.13,65.23c-0.47,0.07-0.95,0.17-1.45,0.3l-2.55,0.45
				c-1.87,0.3-3.63,0.43-5.3,0.4c-0.23,0-0.5-0.02-0.8-0.05c-0.33-0.03-0.57-0.12-0.7-0.25l-1.3-3c0.53,0.1,1.03,0.17,1.5,0.2
				c1.87,0.1,3.93,0,6.2-0.3c2.3-0.37,4.32-0.9,6.05-1.6l0.15,0.05l-0.6,3.25L85.13,65.23z"/>
			<linearGradient id="SVGID_8_" gradientUnits="userSpaceOnUse" x1="75.499" y1="68.0732" x2="87.9829" y2="66.31">
				<stop  offset="0" style="stop-color:#454344"/>
				<stop  offset="0.149" style="stop-color:#4D4E4D"/>
				<stop  offset="0.2353" style="stop-color:#949C9E"/>
				<stop  offset="0.302" style="stop-color:#EAECE8"/>
				<stop  offset="0.4431" style="stop-color:#3A4245"/>
				<stop  offset="0.5529" style="stop-color:#768B98"/>
				<stop  offset="0.6941" style="stop-color:#2F261D"/>
				<stop  offset="0.8235" style="stop-color:#31383D"/>
			</linearGradient>
			<path fill-rule="evenodd" clip-rule="evenodd" fill="url(#SVGID_8_)" d="M75.83,66.38c1.67,0.03,3.43-0.1,5.3-0.4l2.55-0.45
				c0.5-0.13,0.98-0.23,1.45-0.3l0.2,1.55c0,0.4-0.2,0.82-0.6,1.25c-0.53,0.4-1.58,0.67-3.15,0.8c-1.6,0.27-2.82,0.37-3.65,0.3
				c-0.93,0-1.55-0.42-1.85-1.25L75.83,66.38z"/>
			
				<path fill-rule="evenodd" clip-rule="evenodd" fill="none" stroke="#FFFFFF" stroke-width="0.2" stroke-linecap="square" stroke-linejoin="round" stroke-miterlimit="3" stroke-opacity="0.0863" d="
				M80.08,51.58l0.55,3.9 M86.13,50.08l0.55,3.95 M82.98,51.03l0.55,3.85 M70.88,52.28l0.55,3.9 M77.23,51.98l0.55,3.95
				 M74.08,52.23l0.55,3.95"/>
			
				<path fill-rule="evenodd" clip-rule="evenodd" fill="none" stroke="#000000" stroke-width="0.2" stroke-linecap="square" stroke-linejoin="round" stroke-miterlimit="3" d="
				M85.58,50.23l0.55,3.95 M82.43,51.18l0.55,3.9 M70.33,52.28l0.55,3.95 M73.33,52.28l0.55,3.9 M79.38,51.68l0.55,3.95
				 M76.48,52.08l0.6,3.9"/>
		</g>
	</g>
	<g>
		<path fill-rule="evenodd" clip-rule="evenodd" fill="#FFFFFF" d="M76.98,41.38c0.5-0.03,0.95,0.15,1.35,0.55
			c0.43,0.53,0.73,1.43,0.9,2.7c0.17,1.1,0.12,1.98-0.15,2.65c-0.23,0.6-0.65,0.93-1.25,1c-0.5,0.07-0.93-0.13-1.3-0.6
			c-0.4-0.47-0.67-1.33-0.8-2.6c-0.17-1.13-0.17-2,0-2.6C76,41.88,76.42,41.51,76.98,41.38z M76.38,42.78
			c-0.17,0.4-0.18,1.15-0.05,2.25c0.13,1.1,0.32,1.8,0.55,2.1c0.3,0.4,0.62,0.55,0.95,0.45c0.3-0.07,0.52-0.27,0.65-0.6
			c0.2-0.43,0.22-1.18,0.05-2.25c-0.13-1.1-0.33-1.85-0.6-2.25c-0.27-0.27-0.55-0.37-0.85-0.3C76.78,42.12,76.55,42.31,76.38,42.78z
			 M71.73,43.83c0.33-0.27,0.6-0.57,0.8-0.9c0.27-0.33,0.45-0.65,0.55-0.95l0.4-0.1l0.85,6.8l-0.7,0.05l-0.65-5.3
			c-0.13,0.23-0.3,0.45-0.5,0.65c-0.27,0.23-0.52,0.42-0.75,0.55V43.83z M80.63,42.23c-0.17,0.33-0.17,1.07,0,2.2
			c0.1,1.07,0.28,1.75,0.55,2.05c0.3,0.37,0.62,0.53,0.95,0.5c0.27-0.03,0.48-0.25,0.65-0.65c0.17-0.4,0.18-1.13,0.05-2.2
			c-0.17-1.1-0.35-1.83-0.55-2.2c-0.27-0.33-0.6-0.48-1-0.45C81.05,41.55,80.83,41.8,80.63,42.23z M79.93,44.53
			c-0.17-1.17-0.13-2.05,0.1-2.65c0.23-0.57,0.63-0.92,1.2-1.05c0.53-0.1,0.98,0.07,1.35,0.5c0.43,0.53,0.73,1.43,0.9,2.7
			c0.13,1.13,0.1,2-0.1,2.6c-0.23,0.63-0.67,1-1.3,1.1c-0.47,0.03-0.92-0.18-1.35-0.65C80.33,46.62,80.06,45.76,79.93,44.53z"/>
	</g>
</g>
<g>
	<g>
		<g>
			<linearGradient id="SVGID_9_" gradientUnits="userSpaceOnUse" x1="75.1045" y1="48.377" x2="115.2114" y2="38.6276">
				<stop  offset="0" style="stop-color:#454344"/>
				<stop  offset="0.149" style="stop-color:#4D4E4D"/>
				<stop  offset="0.2353" style="stop-color:#949C9E"/>
				<stop  offset="0.302" style="stop-color:#EAECE8"/>
				<stop  offset="0.4431" style="stop-color:#3A4245"/>
				<stop  offset="0.5529" style="stop-color:#768B98"/>
				<stop  offset="0.6941" style="stop-color:#2F261D"/>
				<stop  offset="0.8235" style="stop-color:#31383D"/>
			</linearGradient>
			<path fill-rule="evenodd" clip-rule="evenodd" fill="url(#SVGID_9_)" d="M105.43,60.78c-0.67,0.3-1.37,0.57-2.1,0.8
				c-5.2,1.87-10.45,2.88-15.75,3.05l-1.3-5.3l-4.9-20.75l-4.45-18.95l7.65-2.1l7.55-2.2l2.15-0.6l0.3,0.95l0.75,3.2l5.35,22.3
				L105.43,60.78z M88.78,69.93c6.07-0.23,12.03-1.57,17.9-4l0.5,2.2v0.05c-0.37,0.1-0.68,0.25-0.95,0.45
				c-1.97,1.23-4.42,2.22-7.35,2.95c-2.93,0.67-5.5,0.97-7.7,0.9c-0.5-0.07-0.95-0.12-1.35-0.15c-0.1-0.07-0.22-0.08-0.35-0.05
				l-0.2,0.05L88.78,69.93z"/>
			<linearGradient id="SVGID_10_" gradientUnits="userSpaceOnUse" x1="86.4707" y1="67.9629" x2="107.2311" y2="63.5086">
				<stop  offset="0" style="stop-color:#222222"/>
				<stop  offset="0.5569" style="stop-color:#626262"/>
				<stop  offset="1" style="stop-color:#1A1A1A"/>
			</linearGradient>
			<path fill-rule="evenodd" clip-rule="evenodd" fill="url(#SVGID_10_)" d="M106.68,65.93c-5.87,2.43-11.83,3.77-17.9,4
				c-0.2-0.03-0.38-0.05-0.55-0.05l-1.1-5.2c0.13-0.03,0.28-0.05,0.45-0.05c5.3-0.17,10.55-1.18,15.75-3.05
				c0.73-0.23,1.43-0.5,2.1-0.8c0.13-0.03,0.27-0.1,0.4-0.2l1.1,5.3C106.83,65.92,106.75,65.93,106.68,65.93z M104.43,61.98
				l0.85,3.9L104.43,61.98z M103.98,62.18l0.8,3.9L103.98,62.18z M97.83,64.03l0.8,3.85L97.83,64.03z M98.48,63.88l0.8,3.9
				L98.48,63.88z M100.83,63.23l0.85,3.85L100.83,63.23z M101.33,63.08l0.8,3.9L101.33,63.08z M92.48,64.88l0.8,3.9L92.48,64.88z
				 M91.78,64.93l0.85,3.9L91.78,64.93z M94.93,64.58l0.8,3.9L94.93,64.58z M95.63,64.48l0.8,3.9L95.63,64.48z M88.73,65.13
				l0.85,3.95L88.73,65.13z M89.28,65.13l0.8,3.9L89.28,65.13z"/>
			<linearGradient id="SVGID_11_" gradientUnits="userSpaceOnUse" x1="89.5273" y1="74.2412" x2="108.6784" y2="70.2462">
				<stop  offset="0" style="stop-color:#290101"/>
				<stop  offset="0.1922" style="stop-color:#C90303"/>
				<stop  offset="0.3216" style="stop-color:#BB0909"/>
				<stop  offset="0.4314" style="stop-color:#FF0000"/>
				<stop  offset="0.5059" style="stop-color:#FF0000"/>
				<stop  offset="0.6824" style="stop-color:#A00101"/>
				<stop  offset="0.8392" style="stop-color:#CF0101"/>
				<stop  offset="1" style="stop-color:#220000"/>
			</linearGradient>
			<path fill-rule="evenodd" clip-rule="evenodd" fill="url(#SVGID_11_)" d="M107.18,68.18l0.2,0.7l0.45,2.1
				c-0.47,0.57-1.08,0.98-1.85,1.25l-1.1,0.6c-1,0.43-2.63,0.97-4.9,1.6c-2.27,0.5-4.3,0.8-6.1,0.9c-0.47-0.07-0.95-0.1-1.45-0.1
				h-0.15c-0.63,0.03-1.32-0.05-2.05-0.25h-0.1l-0.65-2.25c0-0.1,0-0.25,0-0.45c0.13-0.03,0.25-0.02,0.35,0.05
				c0.4,0.03,0.85,0.08,1.35,0.15c2.2,0.07,4.77-0.23,7.7-0.9c2.93-0.73,5.38-1.72,7.35-2.95C106.5,68.43,106.81,68.28,107.18,68.18
				z"/>
			<linearGradient id="SVGID_12_" gradientUnits="userSpaceOnUse" x1="90.1299" y1="77.9072" x2="112.6177" y2="72.4348">
				<stop  offset="0" style="stop-color:#454344"/>
				<stop  offset="0.149" style="stop-color:#4D4E4D"/>
				<stop  offset="0.2353" style="stop-color:#949C9E"/>
				<stop  offset="0.302" style="stop-color:#EAECE8"/>
				<stop  offset="0.4431" style="stop-color:#3A4245"/>
				<stop  offset="0.5529" style="stop-color:#768B98"/>
				<stop  offset="0.6941" style="stop-color:#2F261D"/>
				<stop  offset="0.8235" style="stop-color:#31383D"/>
			</linearGradient>
			<path fill-rule="evenodd" clip-rule="evenodd" fill="url(#SVGID_12_)" d="M104.68,76.23c-0.47,0.2-0.93,0.37-1.4,0.5l-2.5,0.7
				c-1.93,0.4-3.68,0.65-5.25,0.75c-0.23,0.1-0.53,0.13-0.9,0.1l-0.7-0.05l-1.5-3c0.5,0,0.98,0.03,1.45,0.1
				c1.8-0.1,3.83-0.4,6.1-0.9c2.27-0.63,3.9-1.17,4.9-1.6l1.1-0.6l0.1,3.5C105.58,75.8,105.11,75.96,104.68,76.23z"/>
			<linearGradient id="SVGID_13_" gradientUnits="userSpaceOnUse" x1="89.4971" y1="72.7549" x2="108.2088" y2="68.2027">
				<stop  offset="0" style="stop-color:#4B453D"/>
				<stop  offset="0.3451" style="stop-color:#B8AEA2"/>
				<stop  offset="0.4941" style="stop-color:#DCD6CD"/>
				<stop  offset="0.5882" style="stop-color:#CEC6BC"/>
				<stop  offset="0.7412" style="stop-color:#B4ADA3"/>
				<stop  offset="1" style="stop-color:#4A433E"/>
			</linearGradient>
			<path fill-rule="evenodd" clip-rule="evenodd" fill="url(#SVGID_13_)" d="M107.38,68.88l-0.2-0.7v-0.05L107.38,68.88z
				 M89.28,72.33l0.2-0.05c0,0.2,0,0.35,0,0.45L89.28,72.33z"/>
			<linearGradient id="SVGID_14_" gradientUnits="userSpaceOnUse" x1="95.4395" y1="80.0137" x2="107.7952" y2="77.0124">
				<stop  offset="0" style="stop-color:#454344"/>
				<stop  offset="0.149" style="stop-color:#4D4E4D"/>
				<stop  offset="0.2353" style="stop-color:#949C9E"/>
				<stop  offset="0.302" style="stop-color:#EAECE8"/>
				<stop  offset="0.4431" style="stop-color:#3A4245"/>
				<stop  offset="0.5529" style="stop-color:#768B98"/>
				<stop  offset="0.6941" style="stop-color:#2F261D"/>
				<stop  offset="0.8235" style="stop-color:#31383D"/>
			</linearGradient>
			<path fill-rule="evenodd" clip-rule="evenodd" fill="url(#SVGID_14_)" d="M95.53,78.18c1.57-0.1,3.32-0.35,5.25-0.75l2.5-0.7
				c0.47-0.13,0.93-0.3,1.4-0.5l0.35,1.65c-0.03,0.93-0.62,1.57-1.75,1.9c-1,0.47-2.43,0.77-4.3,0.9c-1.8,0.2-2.82-0.05-3.05-0.75
				L95.53,78.18z"/>
			
				<path fill-rule="evenodd" clip-rule="evenodd" fill="none" stroke="#FFFFFF" stroke-width="0.2" stroke-linecap="square" stroke-linejoin="round" stroke-miterlimit="3" stroke-opacity="0.0863" d="
				M104.43,61.98l0.85,3.9 M98.48,63.88l0.8,3.9 M101.33,63.08l0.8,3.9 M92.48,64.88l0.8,3.9 M95.63,64.48l0.8,3.9 M89.28,65.13
				l0.8,3.9"/>
			
				<path fill-rule="evenodd" clip-rule="evenodd" fill="none" stroke="#000000" stroke-width="0.2" stroke-linecap="square" stroke-linejoin="round" stroke-miterlimit="3" d="
				M103.98,62.18l0.8,3.9 M97.83,64.03l0.8,3.85 M100.83,63.23l0.85,3.85 M91.78,64.93l0.85,3.9 M94.93,64.58l0.8,3.9 M88.73,65.13
				l0.85,3.95"/>
		</g>
	</g>
	<g>
		<path fill-rule="evenodd" clip-rule="evenodd" fill="#FF0000" d="M95.98,54.53l0.85,4.3l0.8-0.15l0.1,0.75l-0.7,0.2l0.3,1.55
			l-0.7,0.2l-0.35-1.6l-2.3,0.45l-0.15-0.75l1.6-4.85L95.98,54.53z M96.18,58.98l-0.6-3.05l-1.05,3.4L96.18,58.98z"/>
	</g>
</g>
<g>
	<g>
		<g>
			<linearGradient id="SVGID_15_" gradientUnits="userSpaceOnUse" x1="32.1753" y1="28.9624" x2="71.1448" y2="42.4814">
				<stop  offset="0" style="stop-color:#454344"/>
				<stop  offset="0.149" style="stop-color:#4D4E4D"/>
				<stop  offset="0.2353" style="stop-color:#949C9E"/>
				<stop  offset="0.302" style="stop-color:#EAECE8"/>
				<stop  offset="0.4431" style="stop-color:#3A4245"/>
				<stop  offset="0.5529" style="stop-color:#768B98"/>
				<stop  offset="0.6941" style="stop-color:#2F261D"/>
				<stop  offset="0.8235" style="stop-color:#31383D"/>
			</linearGradient>
			<path fill-rule="evenodd" clip-rule="evenodd" fill="url(#SVGID_15_)" d="M49.63,59.98c-0.37,0-0.75-0.02-1.15-0.05
				c-2.23-0.07-4.82-0.63-7.75-1.7c-2.87-0.97-5.22-2.1-7.05-3.4c-0.3-0.3-0.58-0.55-0.85-0.75c-0.13-0.13-0.25-0.23-0.35-0.3h-0.1
				l10-29.1l5.6-16.15l17.7,5.75l-4.55,12.95l-11.45,32.8L49.63,59.98z"/>
			<linearGradient id="SVGID_16_" gradientUnits="userSpaceOnUse" x1="31.7046" y1="55.4082" x2="49.888" y2="61.684">
				<stop  offset="0" style="stop-color:#888888"/>
				<stop  offset="0.298" style="stop-color:#FFFFFF"/>
				<stop  offset="0.5569" style="stop-color:#B3B3B3"/>
				<stop  offset="0.7529" style="stop-color:#E6E6E6"/>
				<stop  offset="0.8863" style="stop-color:#777777"/>
				<stop  offset="1" style="stop-color:#6A6A6A"/>
			</linearGradient>
			<polygon fill-rule="evenodd" clip-rule="evenodd" fill="url(#SVGID_16_)" points="48.68,62.88 48.58,62.83 49.63,59.98 
				49.68,60.03 			"/>
			<linearGradient id="SVGID_17_" gradientUnits="userSpaceOnUse" x1="33.1997" y1="63.6201" x2="45.1531" y2="67.8103">
				<stop  offset="0" style="stop-color:#454344"/>
				<stop  offset="0.149" style="stop-color:#4D4E4D"/>
				<stop  offset="0.2353" style="stop-color:#949C9E"/>
				<stop  offset="0.302" style="stop-color:#EAECE8"/>
				<stop  offset="0.4431" style="stop-color:#3A4245"/>
				<stop  offset="0.5529" style="stop-color:#768B98"/>
				<stop  offset="0.6941" style="stop-color:#2F261D"/>
				<stop  offset="0.8235" style="stop-color:#31383D"/>
			</linearGradient>
			<path fill-rule="evenodd" clip-rule="evenodd" fill="url(#SVGID_17_)" d="M34.23,62.08c1.47,0.83,3.12,1.55,4.95,2.15l2.5,0.8
				c0.47,0.13,0.92,0.25,1.35,0.35l-0.65,1.95c-0.27,0.23-0.65,0.37-1.15,0.4c-2.57-0.07-4.87-0.9-6.9-2.5
				c-0.43-0.33-0.68-0.65-0.75-0.95l-0.05-0.2L34.23,62.08z"/>
			<linearGradient id="SVGID_18_" gradientUnits="userSpaceOnUse" x1="29.9746" y1="58.9072" x2="51.8383" y2="66.5148">
				<stop  offset="0" style="stop-color:#454344"/>
				<stop  offset="0.149" style="stop-color:#4D4E4D"/>
				<stop  offset="0.2353" style="stop-color:#949C9E"/>
				<stop  offset="0.302" style="stop-color:#EAECE8"/>
				<stop  offset="0.4431" style="stop-color:#3A4245"/>
				<stop  offset="0.5529" style="stop-color:#768B98"/>
				<stop  offset="0.6941" style="stop-color:#2F261D"/>
				<stop  offset="0.8235" style="stop-color:#31383D"/>
			</linearGradient>
			<path fill-rule="evenodd" clip-rule="evenodd" fill="url(#SVGID_18_)" d="M33.28,57.93c0.43,0.23,0.88,0.5,1.35,0.8
				c1.5,0.93,3.35,1.77,5.55,2.5c2.27,0.77,4.32,1.28,6.15,1.55l0.15,0.05l-1.85,2.85c-0.5-0.1-0.98-0.2-1.45-0.3
				c-0.07,0-0.12,0-0.15,0c-0.43-0.1-0.88-0.22-1.35-0.35l-2.5-0.8c-1.83-0.6-3.48-1.32-4.95-2.15c-0.3-0.17-0.68-0.48-1.15-0.95
				L33.28,57.93z"/>
			<linearGradient id="SVGID_19_" gradientUnits="userSpaceOnUse" x1="31.3657" y1="55.3135" x2="48.4386" y2="62.0216">
				<stop  offset="0.0392" style="stop-color:#545401"/>
				<stop  offset="0.2824" style="stop-color:#FFFF00"/>
				<stop  offset="0.4392" style="stop-color:#ACAB00"/>
				<stop  offset="0.5529" style="stop-color:#545401"/>
				<stop  offset="0.7059" style="stop-color:#8E8D02"/>
				<stop  offset="1" style="stop-color:#141401"/>
			</linearGradient>
			<path fill-rule="evenodd" clip-rule="evenodd" fill="url(#SVGID_19_)" d="M32.38,53.78h0.1c0.1,0.07,0.22,0.17,0.35,0.3
				c0.27,0.2,0.55,0.45,0.85,0.75c1.83,1.3,4.18,2.43,7.05,3.4c2.93,1.07,5.52,1.63,7.75,1.7c0.4,0.03,0.78,0.05,1.15,0.05
				l-1.05,2.85l-0.05,0.15c-0.2,0-0.43,0-0.7,0c-0.3-0.03-0.6-0.07-0.9-0.1l-0.1,0.05c-0.1-0.07-0.22-0.1-0.35-0.1l-0.15-0.05
				c-1.83-0.27-3.88-0.78-6.15-1.55c-2.2-0.73-4.05-1.57-5.55-2.5c-0.47-0.3-0.92-0.57-1.35-0.8l-0.15-0.15
				c-0.5-0.37-0.93-0.72-1.3-1.05c-0.13-0.07-0.22-0.15-0.25-0.25l-0.15-0.05L32.38,53.78z"/>
			<linearGradient id="SVGID_20_" gradientUnits="userSpaceOnUse" x1="31.0991" y1="56.8857" x2="48.5239" y2="62.9115">
				<stop  offset="0" style="stop-color:#4B453D"/>
				<stop  offset="0.3451" style="stop-color:#B8AEA2"/>
				<stop  offset="0.4941" style="stop-color:#DCD6CD"/>
				<stop  offset="0.5882" style="stop-color:#CEC6BC"/>
				<stop  offset="0.7412" style="stop-color:#B4ADA3"/>
				<stop  offset="1" style="stop-color:#4A433E"/>
			</linearGradient>
			<polygon fill-rule="evenodd" clip-rule="evenodd" fill="url(#SVGID_20_)" points="48.53,62.98 48.58,62.83 48.68,62.88 
				48.58,63.03 			"/>
		</g>
	</g>
	<g>
		
			<use xlink:href="#rubber_turn_x5F_a"  width="19.65" height="6.4" x="-9.85" y="-3.2" transform="matrix(0.9197 0.3179 0.3202 -0.9265 42.4312 51.9316)" overflow="visible"/>
	</g>
	<g>
		<path fill-rule="evenodd" clip-rule="evenodd" fill="#CECE00" d="M45.23,40.58l-2.6,7.05l-0.75-0.35l2.1-5.4
			c-0.27,0.17-0.57,0.28-0.9,0.35c-0.37,0.1-0.68,0.18-0.95,0.25l0.3-0.85c0.5-0.13,0.97-0.3,1.4-0.5c0.4-0.17,0.72-0.42,0.95-0.75
			L45.23,40.58z M47.18,42.33c0.53-0.47,1.1-0.58,1.7-0.35c0.57,0.2,0.92,0.6,1.05,1.2c0.13,0.7-0.07,1.72-0.6,3.05
			c-0.37,1.13-0.82,1.95-1.35,2.45c-0.57,0.43-1.15,0.55-1.75,0.35c-0.57-0.17-0.92-0.58-1.05-1.25s0.05-1.65,0.55-2.95
			C46.16,43.66,46.65,42.83,47.18,42.33z M47.53,42.98c-0.37,0.3-0.73,1.02-1.1,2.15c-0.43,1.13-0.63,1.92-0.6,2.35
			c0.07,0.47,0.28,0.77,0.65,0.9c0.37,0.13,0.72,0.02,1.05-0.35c0.33-0.2,0.72-0.87,1.15-2c0.4-1.17,0.6-1.98,0.6-2.45
			c-0.1-0.47-0.33-0.78-0.7-0.95C48.28,42.5,47.93,42.62,47.53,42.98z"/>
	</g>
</g>
<g>
	<g>
		<g>
			<linearGradient id="SVGID_21_" gradientUnits="userSpaceOnUse" x1="14.0923" y1="57.5576" x2="32.8321" y2="67.4296">
				<stop  offset="0" style="stop-color:#222222"/>
				<stop  offset="0.5569" style="stop-color:#626262"/>
				<stop  offset="1" style="stop-color:#1A1A1A"/>
			</linearGradient>
			<path fill-rule="evenodd" clip-rule="evenodd" fill="url(#SVGID_21_)" d="M31.08,69.13c-0.13-0.03-0.25-0.07-0.35-0.1
				c-5.93-1.97-11.28-4.8-16.05-8.5c-0.17-0.13-0.32-0.27-0.45-0.4l2.5-4.75c0.13,0.1,0.27,0.2,0.4,0.3
				c4.73,3.7,10.08,6.55,16.05,8.55c0.13,0.07,0.27,0.1,0.4,0.1L31.08,69.13z M31.18,64.33l-1.85,3.5L31.18,64.33z M31.73,64.53
				l-1.9,3.45L31.73,64.53z M25.93,62.13l-1.85,3.5L25.93,62.13z M23.33,60.78l-1.85,3.5L23.33,60.78z M22.73,60.38l-1.8,3.5
				L22.73,60.38z M25.33,61.83l-1.85,3.5L25.33,61.83z M20.68,59.03l-1.85,3.55L20.68,59.03z M17.58,56.83l-1.8,3.5L17.58,56.83z
				 M18.03,57.18l-1.8,3.45L18.03,57.18z M28.13,63.18l-1.85,3.5L28.13,63.18z M20.08,58.63l-1.85,3.5L20.08,58.63z M28.63,63.38
				l-1.85,3.5L28.63,63.38z"/>
			
				<path fill-rule="evenodd" clip-rule="evenodd" fill="none" stroke="#FFFFFF" stroke-width="0.2" stroke-linecap="square" stroke-linejoin="round" stroke-miterlimit="3" stroke-opacity="0.0863" d="
				M31.73,64.53l-1.9,3.45 M25.93,62.13l-1.85,3.5 M23.33,60.78l-1.85,3.5 M20.68,59.03l-1.85,3.55 M18.03,57.18l-1.8,3.45
				 M28.63,63.38l-1.85,3.5"/>
			
				<path fill-rule="evenodd" clip-rule="evenodd" fill="none" stroke="#000000" stroke-width="0.2" stroke-linecap="square" stroke-linejoin="round" stroke-miterlimit="3" d="
				M31.18,64.33l-1.85,3.5 M22.73,60.38l-1.8,3.5 M25.33,61.83l-1.85,3.5 M17.58,56.83l-1.8,3.5 M28.13,63.18l-1.85,3.5
				 M20.08,58.63l-1.85,3.5"/>
		</g>
	</g>
	<g>
		<g>
			<linearGradient id="SVGID_22_" gradientUnits="userSpaceOnUse" x1="16.981" y1="36.9292" x2="53.7843" y2="55.2974">
				<stop  offset="0" style="stop-color:#454344"/>
				<stop  offset="0.149" style="stop-color:#4D4E4D"/>
				<stop  offset="0.2353" style="stop-color:#949C9E"/>
				<stop  offset="0.302" style="stop-color:#EAECE8"/>
				<stop  offset="0.4431" style="stop-color:#3A4245"/>
				<stop  offset="0.5529" style="stop-color:#768B98"/>
				<stop  offset="0.6941" style="stop-color:#2F261D"/>
				<stop  offset="0.8235" style="stop-color:#31383D"/>
			</linearGradient>
			<path fill-rule="evenodd" clip-rule="evenodd" fill="url(#SVGID_22_)" d="M29.63,71.18l-0.05,0.05c-0.33-0.1-0.68-0.15-1.05-0.15
				c-2.17-0.4-4.6-1.27-7.3-2.6c-2.73-1.37-4.9-2.83-6.5-4.4c-0.3-0.3-0.62-0.6-0.95-0.9c-0.03-0.1-0.08-0.2-0.15-0.3l-0.1-0.05
				l1.15-2.3c4.77,3.7,10.12,6.53,16.05,8.5L29.63,71.18z M36.18,17.08l15.55,8.9L33.28,64.03l-0.1,0.2
				c-5.97-2-11.32-4.85-16.05-8.55l2.35-4.8L36.18,17.08z"/>
			<linearGradient id="SVGID_23_" gradientUnits="userSpaceOnUse" x1="12.6431" y1="64.2988" x2="29.8422" y2="72.8482">
				<stop  offset="0" style="stop-color:#4B453D"/>
				<stop  offset="0.3451" style="stop-color:#B8AEA2"/>
				<stop  offset="0.4941" style="stop-color:#DCD6CD"/>
				<stop  offset="0.5882" style="stop-color:#CEC6BC"/>
				<stop  offset="0.7412" style="stop-color:#B4ADA3"/>
				<stop  offset="1" style="stop-color:#4A433E"/>
			</linearGradient>
			<path fill-rule="evenodd" clip-rule="evenodd" fill="url(#SVGID_23_)" d="M13.63,62.88l-1.25,2.55c0.07,0.07,0.08,0.18,0.05,0.35
				c0-0.13-0.03-0.22-0.1-0.25l-0.1-0.05l1.3-2.65L13.63,62.88z M29.63,71.18l-1.3,2.75l-0.05,0.05l1.3-2.75L29.63,71.18z"/>
			<linearGradient id="SVGID_24_" gradientUnits="userSpaceOnUse" x1="12.4092" y1="64.5137" x2="27.5746" y2="72.7333">
				<stop  offset="0.0392" style="stop-color:#041A04"/>
				<stop  offset="0.298" style="stop-color:#78C278"/>
				<stop  offset="0.3647" style="stop-color:#1C971C"/>
				<stop  offset="0.5373" style="stop-color:#062006"/>
				<stop  offset="0.7882" style="stop-color:#1D991D"/>
				<stop  offset="0.9333" style="stop-color:#0A340A"/>
				<stop  offset="1" style="stop-color:#010701"/>
			</linearGradient>
			<path fill-rule="evenodd" clip-rule="evenodd" fill="url(#SVGID_24_)" d="M29.58,71.23l-1.3,2.75l-0.15,0.1
				c-0.1,0.03-0.3-0.02-0.6-0.15c-0.3-0.03-0.6-0.1-0.9-0.2l-0.2,0.05c-0.03-0.07-0.1-0.12-0.2-0.15c-0.03-0.03-0.08-0.05-0.15-0.05
				c0-0.03-0.03-0.03-0.1,0c-1.7-0.43-3.6-1.18-5.7-2.25c-2.1-1.03-3.87-2.1-5.3-3.2c-0.4-0.37-0.78-0.7-1.15-1
				c-0.03-0.1-0.08-0.15-0.15-0.15c-0.5-0.53-0.92-0.93-1.25-1.2c0.03-0.17,0.02-0.28-0.05-0.35l1.25-2.55
				c0.07,0.1,0.12,0.2,0.15,0.3c0.33,0.3,0.65,0.6,0.95,0.9c1.6,1.57,3.77,3.03,6.5,4.4c2.7,1.33,5.13,2.2,7.3,2.6
				C28.9,71.08,29.25,71.13,29.58,71.23z"/>
			<linearGradient id="SVGID_25_" gradientUnits="userSpaceOnUse" x1="10.4165" y1="67.7002" x2="31.1072" y2="78.0438">
				<stop  offset="0" style="stop-color:#454344"/>
				<stop  offset="0.149" style="stop-color:#4D4E4D"/>
				<stop  offset="0.2353" style="stop-color:#949C9E"/>
				<stop  offset="0.302" style="stop-color:#EAECE8"/>
				<stop  offset="0.4431" style="stop-color:#3A4245"/>
				<stop  offset="0.5529" style="stop-color:#768B98"/>
				<stop  offset="0.6941" style="stop-color:#2F261D"/>
				<stop  offset="0.8235" style="stop-color:#31383D"/>
			</linearGradient>
			<path fill-rule="evenodd" clip-rule="evenodd" fill="url(#SVGID_25_)" d="M26.23,73.63l-2.15,2.55c-0.43-0.07-0.92-0.23-1.45-0.5
				c-0.47-0.13-0.93-0.23-1.4-0.3l-2.4-1.2c-1.7-0.83-3.25-1.77-4.65-2.8c-0.23-0.1-0.42-0.22-0.55-0.35l-0.25-0.3l0.45-3.6
				c0.37,0.3,0.75,0.63,1.15,1c1.43,1.1,3.2,2.17,5.3,3.2c2.1,1.07,4,1.82,5.7,2.25c0.07-0.03,0.1-0.03,0.1,0
				C26.15,73.58,26.2,73.6,26.23,73.63z"/>
			<linearGradient id="SVGID_26_" gradientUnits="userSpaceOnUse" x1="13.0044" y1="72.874" x2="24.2914" y2="78.5251">
				<stop  offset="0" style="stop-color:#454344"/>
				<stop  offset="0.149" style="stop-color:#4D4E4D"/>
				<stop  offset="0.2353" style="stop-color:#949C9E"/>
				<stop  offset="0.302" style="stop-color:#EAECE8"/>
				<stop  offset="0.4431" style="stop-color:#3A4245"/>
				<stop  offset="0.5529" style="stop-color:#768B98"/>
				<stop  offset="0.6941" style="stop-color:#2F261D"/>
				<stop  offset="0.8235" style="stop-color:#31383D"/>
			</linearGradient>
			<path fill-rule="evenodd" clip-rule="evenodd" fill="url(#SVGID_26_)" d="M14.18,71.38c1.4,1.03,2.95,1.97,4.65,2.8l2.4,1.2
				c0.47,0.07,0.93,0.17,1.4,0.3l-0.75,1.55c-0.23,0.63-0.92,0.88-2.05,0.75c-0.07-0.03-0.27-0.08-0.6-0.15
				c-1.23-0.33-2.57-0.97-4-1.9c-0.17-0.17-0.33-0.33-0.5-0.5c-0.87-0.67-1.33-1.33-1.4-2L14.18,71.38z"/>
			<linearGradient id="SVGID_27_" gradientUnits="userSpaceOnUse" x1="11.8765" y1="65.8389" x2="28.3605" y2="74.0708">
				<stop  offset="0" style="stop-color:#4B453D"/>
				<stop  offset="0.3451" style="stop-color:#B8AEA2"/>
				<stop  offset="0.4941" style="stop-color:#DCD6CD"/>
				<stop  offset="0.5882" style="stop-color:#CEC6BC"/>
				<stop  offset="0.7412" style="stop-color:#B4ADA3"/>
				<stop  offset="1" style="stop-color:#4A433E"/>
			</linearGradient>
			<polygon fill-rule="evenodd" clip-rule="evenodd" fill="url(#SVGID_27_)" points="28.33,73.93 28.33,74.03 28.13,74.08 
				28.28,73.98 			"/>
		</g>
	</g>
	<g>
		<path fill-rule="evenodd" clip-rule="evenodd" fill="#269C26" d="M28.98,53.23c0.4,0.23,0.65,0.53,0.75,0.9
			c0.1,0.5,0.03,0.97-0.2,1.4c-0.23,0.27-0.43,0.48-0.6,0.65c-0.27,0.1-0.55,0.13-0.85,0.1c0.23,0.3,0.33,0.63,0.3,1
			c0.03,0.3-0.07,0.63-0.3,1c-0.27,0.53-0.65,0.88-1.15,1.05c-0.5,0.13-1,0.08-1.5-0.15c-0.4-0.27-0.65-0.67-0.75-1.2
			c-0.17-0.47-0.08-0.98,0.25-1.55c0.27-0.4,0.57-0.67,0.9-0.8c0.3-0.13,0.58-0.18,0.85-0.15c-0.13-0.23-0.22-0.48-0.25-0.75
			c0.03-0.23,0.13-0.52,0.3-0.85c0.27-0.47,0.6-0.75,1-0.85C28.16,52.9,28.58,52.96,28.98,53.23z M29.03,54.33
			c-0.03-0.23-0.17-0.4-0.4-0.5c-0.2-0.13-0.43-0.17-0.7-0.1c-0.2,0.07-0.4,0.23-0.6,0.5c-0.17,0.3-0.23,0.58-0.2,0.85
			c0.03,0.23,0.15,0.42,0.35,0.55c0.23,0.13,0.48,0.13,0.75,0c0.3-0.03,0.5-0.18,0.6-0.45C29.06,54.92,29.13,54.63,29.03,54.33z
			 M26.33,56.13c-0.3,0.1-0.57,0.33-0.8,0.7c-0.2,0.33-0.25,0.65-0.15,0.95c0.03,0.37,0.18,0.63,0.45,0.8
			c0.27,0.17,0.55,0.2,0.85,0.1c0.37-0.1,0.65-0.35,0.85-0.75c0.2-0.33,0.27-0.67,0.2-1c-0.1-0.33-0.28-0.57-0.55-0.7
			C26.91,56.03,26.63,56,26.33,56.13z"/>
	</g>
</g>
<g>
	<g>
		<g>
			<g>
				
					<linearGradient id="SVGID_28_" gradientUnits="userSpaceOnUse" x1="48.8579" y1="76.4512" x2="70.008" y2="76.4512" gradientTransform="matrix(1 -3.546077e-003 0 1 -1.571655e-003 -0.7631)">
					<stop  offset="0" style="stop-color:#222222"/>
					<stop  offset="0.5569" style="stop-color:#626262"/>
					<stop  offset="1" style="stop-color:#1A1A1A"/>
				</linearGradient>
				<path fill-rule="evenodd" clip-rule="evenodd" fill="url(#SVGID_28_)" d="M69.23,77.68c-0.1,0.03-0.22,0.05-0.35,0.05
					c-6.2,1.13-12.28,1.17-18.25,0.1c-0.17-0.03-0.33-0.07-0.5-0.1v-5.35c0.17,0.03,0.33,0.07,0.5,0.1c5.97,1.03,12.07,1,18.3-0.1
					c0.1-0.03,0.18-0.05,0.25-0.05L69.23,77.68z M51.58,73.23l-0.05,3.95L51.58,73.23z M52.13,73.28v3.95V73.28z M57.83,73.93
					l-0.05,3.95L57.83,73.93z M58.43,73.98l0.05,3.95L58.43,73.98z M54.58,73.63l0.05,3.95L54.58,73.63z M55.28,73.73v3.9V73.73z
					 M67.08,73.48l-0.05,4L67.08,73.48z M67.53,73.33l0.05,3.95L67.53,73.33z M61.38,73.93v4.05V73.93z M60.68,73.93v4.05V73.93z
					 M63.78,73.88v3.9V73.88z M64.33,73.78l-0.05,3.95L64.33,73.78z"/>
				
					<path fill-rule="evenodd" clip-rule="evenodd" fill="none" stroke="#000000" stroke-width="0.2" stroke-linecap="square" stroke-linejoin="round" stroke-miterlimit="3" d="
					M51.58,73.23l-0.05,3.95 M57.83,73.93l-0.05,3.95 M54.58,73.63l0.05,3.95 M67.08,73.48l-0.05,4 M60.68,73.93v4.05 M63.78,73.88
					v3.9"/>
				
					<path fill-rule="evenodd" clip-rule="evenodd" fill="none" stroke="#FFFFFF" stroke-width="0.2" stroke-linecap="square" stroke-linejoin="round" stroke-miterlimit="3" stroke-opacity="0.0863" d="
					M52.13,73.28v3.95 M58.43,73.98l0.05,3.95 M55.28,73.73v3.9 M67.53,73.33l0.05,3.95 M61.38,73.93v4.05 M64.33,73.78l-0.05,3.95"
					/>
			</g>
		</g>
		<g>
			<g>
				
					<linearGradient id="SVGID_29_" gradientUnits="userSpaceOnUse" x1="42.4648" y1="55.0293" x2="83.6149" y2="55.0293" gradientTransform="matrix(1 -1.822597e-003 -7.235924e-004 1 -0.1116 -0.3926)">
					<stop  offset="0" style="stop-color:#454344"/>
					<stop  offset="0.149" style="stop-color:#4D4E4D"/>
					<stop  offset="0.2353" style="stop-color:#949C9E"/>
					<stop  offset="0.302" style="stop-color:#EAECE8"/>
					<stop  offset="0.4431" style="stop-color:#3A4245"/>
					<stop  offset="0.5529" style="stop-color:#768B98"/>
					<stop  offset="0.6941" style="stop-color:#2F261D"/>
					<stop  offset="0.8235" style="stop-color:#31383D"/>
				</linearGradient>
				<path fill-rule="evenodd" clip-rule="evenodd" fill="url(#SVGID_29_)" d="M58.23,71.03c0.03-0.03,0.03-0.05,0-0.05l-0.05-0.03
					L58.23,71.03z M52.98,71.28l0.85,0.05l-0.85-0.1V71.28z M50.73,27.08l18.05,0.1l0.1,31.5v0.65l0.05,3.55v4.15l-0.05,1l0.05,4.35
					c-6.23,1.1-12.33,1.13-18.3,0.1v-0.25l-0.05-6.6l0.05-1.05v-4.15v-3.5v-0.65L50.73,27.08z M50.68,80.53h-0.1l0.05-2.7
					c5.97,1.07,12.05,1.03,18.25-0.1l0.05,3l-0.1-0.05c-0.3,0.17-0.65,0.28-1.05,0.35c-2.13,0.7-4.75,1.02-7.85,0.95
					c-3,0.07-5.57-0.2-7.7-0.8c-0.43-0.2-0.78-0.37-1.05-0.5C51.01,80.65,50.85,80.6,50.68,80.53z"/>
				<linearGradient id="SVGID_30_" gradientUnits="userSpaceOnUse" x1="50.7148" y1="82.8896" x2="68.9661" y2="82.4988">
					<stop  offset="0.0667" style="stop-color:#0C0E27"/>
					<stop  offset="0.2824" style="stop-color:#9A9BFE"/>
					<stop  offset="0.4902" style="stop-color:#3242EE"/>
					<stop  offset="0.5647" style="stop-color:#091477"/>
					<stop  offset="0.7608" style="stop-color:#4A56F2"/>
					<stop  offset="1" style="stop-color:#000000"/>
				</linearGradient>
				<path fill-rule="evenodd" clip-rule="evenodd" fill="url(#SVGID_30_)" d="M52.83,84.23l-0.15-0.1c-0.6-0.17-1.15-0.35-1.65-0.55
					c-0.1-0.1-0.22-0.2-0.35-0.3v-2.75c0.17,0.07,0.33,0.12,0.5,0.15c0.27,0.13,0.62,0.3,1.05,0.5c2.13,0.6,4.7,0.87,7.7,0.8
					c3.1,0.07,5.72-0.25,7.85-0.95c0.4-0.07,0.75-0.18,1.05-0.35v3.05l0.05,0.2c-0.23,0.03-0.47,0.1-0.7,0.2
					c-0.3,0.1-0.6,0.17-0.9,0.2l-0.1,0.05c-0.07,0-0.18,0.02-0.35,0.05h-0.15c-1.83,0.4-3.93,0.6-6.3,0.6c-2.3,0-4.3-0.18-6-0.55
					C53.78,84.38,53.26,84.3,52.83,84.23z"/>
				<linearGradient id="SVGID_31_" gradientUnits="userSpaceOnUse" x1="50.5796" y1="82.1719" x2="69.7546" y2="82.1398">
					<stop  offset="0" style="stop-color:#4B453D"/>
					<stop  offset="0.3451" style="stop-color:#B8AEA2"/>
					<stop  offset="0.4941" style="stop-color:#DCD6CD"/>
					<stop  offset="0.5882" style="stop-color:#CEC6BC"/>
					<stop  offset="0.7412" style="stop-color:#B4ADA3"/>
					<stop  offset="1" style="stop-color:#4A433E"/>
				</linearGradient>
				<path fill-rule="evenodd" clip-rule="evenodd" fill="url(#SVGID_31_)" d="M68.93,80.73v3.05l-0.1-0.05v-3.05L68.93,80.73z
					 M51.03,83.58c-0.13-0.03-0.23-0.1-0.3-0.2l-0.15-0.05v-2.8h0.1v2.75C50.81,83.38,50.93,83.48,51.03,83.58z"/>
				<linearGradient id="SVGID_32_" gradientUnits="userSpaceOnUse" x1="50.4604" y1="83.9023" x2="68.7711" y2="83.8324">
					<stop  offset="0" style="stop-color:#4B453D"/>
					<stop  offset="0.3451" style="stop-color:#B8AEA2"/>
					<stop  offset="0.4941" style="stop-color:#DCD6CD"/>
					<stop  offset="0.5882" style="stop-color:#CEC6BC"/>
					<stop  offset="0.7412" style="stop-color:#B4ADA3"/>
					<stop  offset="1" style="stop-color:#4A433E"/>
				</linearGradient>
				<polygon fill-rule="evenodd" clip-rule="evenodd" fill="url(#SVGID_32_)" points="68.93,83.78 68.93,83.93 68.88,83.93 
					68.83,83.73 				"/>
				<linearGradient id="SVGID_33_" gradientUnits="userSpaceOnUse" x1="54.6079" y1="89.5703" x2="67.2579" y2="89.5927">
					<stop  offset="0" style="stop-color:#454344"/>
					<stop  offset="0.149" style="stop-color:#4D4E4D"/>
					<stop  offset="0.2353" style="stop-color:#949C9E"/>
					<stop  offset="0.302" style="stop-color:#EAECE8"/>
					<stop  offset="0.4431" style="stop-color:#3A4245"/>
					<stop  offset="0.5529" style="stop-color:#768B98"/>
					<stop  offset="0.6941" style="stop-color:#2F261D"/>
					<stop  offset="0.8235" style="stop-color:#31383D"/>
				</linearGradient>
				<path fill-rule="evenodd" clip-rule="evenodd" fill="url(#SVGID_33_)" d="M64.38,87.98l0.1,2.05c-0.2,0.27-0.55,0.5-1.05,0.7
					c-2.37,0.8-4.78,0.78-7.25-0.05c-0.53-0.17-0.87-0.37-1-0.6l-0.1-0.15v-2.1c1.63,0.23,3.42,0.33,5.35,0.3l2.65-0.05
					C63.55,88.05,63.98,88.01,64.38,87.98z"/>
				
					<linearGradient id="SVGID_34_" gradientUnits="userSpaceOnUse" x1="50.8403" y1="86.7715" x2="73.942" y2="86.7715" gradientTransform="matrix(1 -2.164497e-003 -3.546142e-003 1 -0.5468 -0.4647)">
					<stop  offset="0" style="stop-color:#454344"/>
					<stop  offset="0.149" style="stop-color:#4D4E4D"/>
					<stop  offset="0.2353" style="stop-color:#949C9E"/>
					<stop  offset="0.302" style="stop-color:#EAECE8"/>
					<stop  offset="0.4431" style="stop-color:#3A4245"/>
					<stop  offset="0.5529" style="stop-color:#768B98"/>
					<stop  offset="0.6941" style="stop-color:#2F261D"/>
					<stop  offset="0.8235" style="stop-color:#31383D"/>
				</linearGradient>
				<path fill-rule="evenodd" clip-rule="evenodd" fill="url(#SVGID_34_)" d="M55.08,87.83c-0.33-0.1-0.8-0.3-1.4-0.6l-0.85-3
					c0.43,0.07,0.95,0.15,1.55,0.25c1.7,0.37,3.7,0.55,6,0.55c2.37,0,4.47-0.2,6.3-0.6h0.15l-0.8,3.25
					c-0.53,0.13-1.03,0.22-1.5,0.25c-0.07,0.07-0.12,0.08-0.15,0.05c-0.4,0.03-0.83,0.07-1.3,0.1l-2.65,0.05
					C58.5,88.17,56.71,88.06,55.08,87.83z"/>
			</g>
		</g>
		<g>
			<path fill-rule="evenodd" clip-rule="evenodd" fill="#1774FF" d="M62.08,64.13c0.5,0,0.9,0.22,1.2,0.65
				c0.43,0.57,0.67,1.5,0.7,2.8c0.03,1.1-0.1,1.95-0.4,2.55c-0.23,0.63-0.65,0.93-1.25,0.9c-0.57,0.07-1.02-0.15-1.35-0.65
				c-0.33-0.5-0.53-1.42-0.6-2.75c-0.1-1.1,0.02-1.97,0.35-2.6C60.96,64.43,61.42,64.13,62.08,64.13z M61.98,64.88
				c-0.3-0.03-0.53,0.15-0.7,0.55c-0.17,0.4-0.25,1.13-0.25,2.2c0.07,1.1,0.22,1.82,0.45,2.15c0.23,0.4,0.52,0.62,0.85,0.65
				c0.27-0.07,0.52-0.28,0.75-0.65c0.17-0.37,0.2-1.12,0.1-2.25c0-1.1-0.1-1.82-0.3-2.15C62.65,64.98,62.35,64.81,61.98,64.88z
				 M58.83,64.28l0.1,4.45h0.75l0.05,0.7l-0.75,0.05l0.1,1.65h-0.7l-0.1-1.6l-2.35,0.15l0.05-0.85l2.25-4.55H58.83z M58.33,68.78
				l-0.2-3.1l-1.6,3.15L58.33,68.78z"/>
		</g>
	</g>
</g>
<g>
	<g>
		<linearGradient id="SVGID_35_" gradientUnits="userSpaceOnUse" x1="19.3066" y1="22.2275" x2="108.7046" y2="33.8185">
			<stop  offset="0" style="stop-color:#A7B7C7"/>
			<stop  offset="0.1647" style="stop-color:#E6E9EE"/>
			<stop  offset="0.6275" style="stop-color:#FAFBFC"/>
			<stop  offset="1" style="stop-color:#ADB9C9"/>
		</linearGradient>
		<path fill-rule="evenodd" clip-rule="evenodd" fill="url(#SVGID_35_)" d="M105.23,37.43c-0.77,0.57-2.08,1.28-3.95,2.15
			c-7.43,3.43-18.93,5.63-34.5,6.6c-24.1-0.27-40.77-4.43-50-12.5c0.6-1.93,1.15-3.63,1.65-5.1c1.3-3.87,2.05-5.98,2.25-6.35
			c0.13-0.3,0.2-0.5,0.2-0.6l4.3-17.7l78.55,12.7L105.23,37.43z"/>
		<linearGradient id="SVGID_36_" gradientUnits="userSpaceOnUse" x1="15.7397" y1="41.2612" x2="103.059" y2="52.8544">
			<stop  offset="0" style="stop-color:#222222"/>
			<stop  offset="0.0941" style="stop-color:#626262"/>
			<stop  offset="0.3176" style="stop-color:#2B2B2B"/>
			<stop  offset="0.6196" style="stop-color:#5E5E5E"/>
			<stop  offset="1" style="stop-color:#151515"/>
		</linearGradient>
		<path fill-rule="evenodd" clip-rule="evenodd" fill="url(#SVGID_36_)" d="M16.78,33.68c9.23,8.07,25.9,12.23,50,12.5
			c15.57-0.97,27.07-3.17,34.5-6.6c1.87-0.87,3.18-1.58,3.95-2.15l1,14.25c-6.33,4.4-17.77,7.73-34.3,10
			c-16.87,1.27-32.23-0.62-46.1-5.65c-3.13-1.2-5.32-2.2-6.55-3c-1.9-1.37-3.4-2.88-4.5-4.55L16.78,33.68z"/>
	</g>
</g>
<g>
	<g>
		<path fill-rule="evenodd" clip-rule="evenodd" fill-opacity="0.298" d="M23.43,40.53l-0.55,11.55c-0.13-0.07-0.28-0.13-0.45-0.2
			l0.55-11.55C23.11,40.43,23.26,40.5,23.43,40.53z M20.88,39.53l-0.6,11.35c-0.17-0.1-0.33-0.18-0.5-0.25l0.6-11.35
			C20.51,39.35,20.68,39.43,20.88,39.53z M18.43,38.43l-0.55,11.15c-0.17-0.1-0.32-0.17-0.45-0.2l0.5-11.15
			C18.1,38.3,18.26,38.36,18.43,38.43z M16.43,48.83l0.4-3.35l-0.15,3.5C16.61,48.92,16.53,48.86,16.43,48.83z M25.88,41.43
			l-0.6,11.75c-0.13-0.07-0.27-0.13-0.4-0.2l0.55-11.7C25.56,41.35,25.71,41.4,25.88,41.43z M33.78,43.98l-0.6,12.15
			c-0.13-0.07-0.28-0.13-0.45-0.2l0.55-12.05C33.45,43.95,33.61,43.98,33.78,43.98z M36.18,44.68l-0.6,12.15
			c-0.17-0.03-0.32-0.07-0.45-0.1l0.6-12.15C35.86,44.62,36.01,44.65,36.18,44.68z M31.08,43.23l-0.55,12
			c-0.13-0.07-0.28-0.12-0.45-0.15l0.6-12C30.81,43.12,30.95,43.16,31.08,43.23z M39.48,45.48l-0.6,12.25
			c-0.17-0.07-0.32-0.12-0.45-0.15l0.55-12.15C39.11,45.46,39.28,45.48,39.48,45.48z M41.93,46.08l-0.6,12.2
			c-0.17-0.07-0.33-0.1-0.5-0.1l0.6-12.25C41.6,45.96,41.76,46.01,41.93,46.08z M46.93,46.98l-0.55,12.25
			c-0.17-0.07-0.32-0.08-0.45-0.05l0.55-12.25C46.65,46.96,46.8,46.98,46.93,46.98z M44.53,46.53l-0.6,12.3
			c-0.17-0.07-0.33-0.1-0.5-0.1l0.65-12.25C44.21,46.51,44.36,46.53,44.53,46.53z M49.83,47.43l-0.55,12.15
			c-0.17,0-0.33-0.02-0.5-0.05l0.6-12.2C49.51,47.36,49.66,47.4,49.83,47.43z M52.28,47.73l-0.55,12.1c-0.17,0-0.33,0-0.5,0
			l0.6-12.15C52,47.68,52.15,47.7,52.28,47.73z M54.93,47.98l-0.55,12.05c-0.17,0-0.33,0-0.5,0l0.6-12.1
			C54.65,47.93,54.8,47.95,54.93,47.98z M57.43,48.18l-0.55,12c-0.2-0.03-0.37-0.03-0.5,0l0.55-12.05
			C57.1,48.13,57.26,48.15,57.43,48.18z M60.38,48.28l-0.55,11.95c-0.17,0-0.33-0.02-0.5-0.05l0.6-11.9
			C60.06,48.28,60.21,48.28,60.38,48.28z M65.53,48.33l-0.6,11.75c-0.13,0.03-0.28,0.05-0.45,0.05l0.55-11.75
			C65.2,48.35,65.36,48.33,65.53,48.33z M67.93,48.28l-0.5,11.6c-0.13,0.03-0.3,0.07-0.5,0.1l0.55-11.7
			C67.65,48.28,67.8,48.28,67.93,48.28z M62.83,48.33l-0.55,11.85c-0.17,0-0.32,0-0.45,0l0.55-11.85
			C62.51,48.33,62.67,48.33,62.83,48.33z M28.73,42.43l-0.65,11.9c-0.1-0.07-0.23-0.13-0.4-0.2l0.55-11.85
			C28.4,42.35,28.56,42.4,28.73,42.43z M70.88,48.13l-0.5,11.55c-0.2,0-0.38,0-0.55,0l0.6-11.55
			C70.56,48.13,70.71,48.13,70.88,48.13z M76.03,47.63l-0.5,11.35c-0.17,0.03-0.33,0.07-0.5,0.1l0.55-11.35
			C75.71,47.7,75.86,47.67,76.03,47.63z M73.38,47.88l-0.55,11.5c-0.2,0.03-0.37,0.05-0.5,0.05l0.55-11.45
			C73.01,47.98,73.18,47.95,73.38,47.88z M78.53,47.38l-0.55,11.25c-0.13,0-0.28,0.02-0.45,0.05l0.5-11.3
			C78.2,47.35,78.36,47.35,78.53,47.38z M81.78,46.78l-0.5,11.15c-0.13,0.03-0.28,0.07-0.45,0.1l0.55-11.1
			C81.51,46.86,81.65,46.81,81.78,46.78z M86.98,45.78l-0.5,11c-0.13,0.03-0.3,0.05-0.5,0.05l0.55-10.9
			C86.7,45.9,86.85,45.85,86.98,45.78z M84.38,46.38l-0.6,11c-0.13,0-0.3,0.03-0.5,0.1l0.55-11C84,46.41,84.18,46.38,84.38,46.38z
			 M94.93,43.78l-0.5,10.65c-0.13,0.03-0.3,0.08-0.5,0.15l0.55-10.6C94.61,43.95,94.76,43.88,94.93,43.78z M97.68,43.03l-0.5,10.5
			c-0.2,0.03-0.37,0.08-0.5,0.15l0.5-10.5C97.35,43.12,97.51,43.06,97.68,43.03z M92.38,44.53l-0.45,10.65
			c-0.17,0.07-0.32,0.12-0.45,0.15l0.5-10.7C92.11,44.6,92.25,44.56,92.38,44.53z M102.93,41.23l-0.5,10.35
			c-0.17,0.03-0.32,0.08-0.45,0.15l0.45-10.3C102.6,41.33,102.76,41.26,102.93,41.23z M100.13,42.23l-0.5,10.45
			c-0.17,0-0.33,0.03-0.5,0.1l0.6-10.45C99.86,42.3,100,42.26,100.13,42.23z M89.48,45.23l-0.5,10.8c-0.13,0.07-0.3,0.12-0.5,0.15
			l0.55-10.8C89.2,45.35,89.35,45.3,89.48,45.23z"/>
		<path fill-rule="evenodd" clip-rule="evenodd" fill="#FFFFFF" fill-opacity="0.0863" d="M19.63,38.98l-0.6,11.25
			c-0.1-0.1-0.23-0.17-0.4-0.2l0.5-11.25C19.3,38.85,19.46,38.91,19.63,38.98z M22.28,40.08l-0.55,11.45
			c-0.17-0.07-0.33-0.13-0.5-0.2l0.55-11.45C21.91,39.95,22.08,40.01,22.28,40.08z M27.48,42.08l-0.55,11.8
			c-0.17-0.1-0.32-0.17-0.45-0.2l0.6-11.85C27.21,41.9,27.35,41.98,27.48,42.08z M23.68,52.48l0.5-11.65
			c0.17,0.03,0.32,0.08,0.45,0.15l-0.55,11.65C23.95,52.56,23.81,52.51,23.68,52.48z M38.28,45.23l-0.6,12.2
			c-0.17-0.07-0.33-0.12-0.5-0.15l0.6-12.2C37.95,45.12,38.11,45.16,38.28,45.23z M34.98,44.38l-0.55,12.1
			c-0.2-0.03-0.35-0.07-0.45-0.1l0.55-12.15C34.66,44.26,34.81,44.31,34.98,44.38z M29.93,42.88l-0.55,11.9
			c-0.17-0.03-0.32-0.08-0.45-0.15l0.55-11.9C29.61,42.76,29.76,42.81,29.93,42.88z M32.58,43.68l-0.6,12.05
			c-0.13-0.03-0.28-0.08-0.45-0.15l0.6-12.05C32.26,43.56,32.41,43.62,32.58,43.68z M40.68,45.78l-0.6,12.2
			c-0.13-0.03-0.28-0.07-0.45-0.1l0.6-12.15C40.36,45.73,40.51,45.75,40.68,45.78z M43.33,46.33l-0.65,12.2
			c-0.13-0.03-0.28-0.05-0.45-0.05l0.65-12.25C43.01,46.26,43.16,46.3,43.33,46.33z M45.78,46.83l-0.6,12.15
			c-0.17,0-0.32-0.02-0.45-0.05l0.6-12.2C45.43,46.73,45.58,46.76,45.78,46.83z M48.63,47.28l-0.6,12.2
			c-0.17-0.03-0.32-0.07-0.45-0.1l0.55-12.2C48.3,47.21,48.46,47.25,48.63,47.28z M56.18,48.03l-0.55,12.1c-0.17,0-0.33,0-0.5,0
			l0.6-12.1C55.9,48.06,56.05,48.06,56.18,48.03z M53.73,47.88l-0.6,12.1c-0.13,0-0.27-0.02-0.4-0.05l0.6-12.1
			C53.46,47.83,53.6,47.85,53.73,47.88z M51.08,47.53l-0.6,12.2c-0.13-0.03-0.28-0.03-0.45,0l0.6-12.2
			C50.76,47.56,50.91,47.56,51.08,47.53z M61.63,48.33l-0.6,11.85c-0.17,0.03-0.32,0.05-0.45,0.05l0.55-11.9
			C61.26,48.33,61.43,48.33,61.63,48.33z M66.78,48.33l-0.6,11.7c-0.13,0-0.28,0.02-0.45,0.05l0.6-11.75
			C66.46,48.33,66.61,48.33,66.78,48.33z M64.33,48.38l-0.6,11.75c-0.17,0-0.33,0.02-0.5,0.05l0.55-11.85
			C63.98,48.33,64.17,48.35,64.33,48.38z M59.18,48.23l-0.6,11.95c-0.17,0.03-0.33,0.03-0.5,0l0.6-11.95
			C58.88,48.23,59.05,48.23,59.18,48.23z M69.63,48.23l-0.5,11.55c-0.17,0-0.33,0.02-0.5,0.05l0.55-11.6
			C69.31,48.23,69.46,48.23,69.63,48.23z M74.83,47.73l-0.55,11.5c-0.17,0-0.33,0-0.5,0l0.55-11.4
			C74.5,47.8,74.67,47.76,74.83,47.73z M72.13,48.03l-0.55,11.5c-0.17,0-0.33,0.03-0.5,0.1l0.65-11.55
			C71.86,48.05,72,48.03,72.13,48.03z M77.28,47.48l-0.55,11.3c-0.13,0.03-0.27,0.05-0.4,0.05l0.45-11.3
			C76.95,47.53,77.11,47.51,77.28,47.48z M80.63,47.03l-0.55,11.15c-0.2,0.03-0.35,0.08-0.45,0.15l0.5-11.25
			C80.26,47.05,80.43,47.03,80.63,47.03z M85.73,46.08l-0.4,10.95c-0.2,0.07-0.38,0.12-0.55,0.15l0.55-11
			C85.5,46.18,85.63,46.15,85.73,46.08z M83.13,46.63l-0.6,11c-0.13,0.03-0.28,0.07-0.45,0.1l0.55-11.1
			C82.76,46.63,82.93,46.63,83.13,46.63z M88.33,45.53l-0.6,10.85c-0.13,0.03-0.28,0.08-0.45,0.15l0.55-10.85
			C87.96,45.62,88.13,45.56,88.33,45.53z M98.88,42.63l-0.5,10.45c-0.17,0.03-0.3,0.08-0.4,0.15l0.45-10.45
			C98.56,42.68,98.71,42.63,98.88,42.63z M96.38,43.38l-0.5,10.55c-0.13,0.07-0.3,0.12-0.5,0.15l0.55-10.55
			C96.1,43.5,96.25,43.45,96.38,43.38z M93.68,44.18l-0.5,10.65c-0.17,0-0.32,0.05-0.45,0.15l0.5-10.65
			C93.4,44.26,93.55,44.21,93.68,44.18z M91.23,44.83l-0.5,10.75c-0.17,0.07-0.35,0.12-0.55,0.15l0.55-10.75
			C90.9,44.91,91.06,44.87,91.23,44.83z M101.68,41.68l-0.45,10.35c-0.2,0.07-0.37,0.13-0.5,0.2l0.55-10.35
			c0.03-0.03,0.05-0.07,0.05-0.1C101.46,41.75,101.58,41.71,101.68,41.68z M103.28,51.23l0.45-10.3c0.17-0.03,0.32-0.08,0.45-0.15
			l0.05,0.5l-0.5,9.8C103.56,51.11,103.42,51.17,103.28,51.23z M104.53,50.73v-1.25l0.05,1.25H104.53z"/>
	</g>
</g>
</svg>
