<?xml version="1.0" encoding="utf-8"?>
<!-- Generator: Adobe Illustrator 16.0.0, SVG Export Plug-In . SVG Version: 6.00 Build 0)  -->
<!DOCTYPE svg PUBLIC "-//W3C//DTD SVG 1.1//EN" "http://www.w3.org/Graphics/SVG/1.1/DTD/svg11.dtd">
<svg version="1.1" xmlns="http://www.w3.org/2000/svg" xmlns:xlink="http://www.w3.org/1999/xlink" x="0px" y="0px"
	 width="31.583px" height="66.583px" viewBox="0 0 31.583 66.583" enable-background="new 0 0 31.583 66.583" xml:space="preserve">
<g id="Layer_1">
	<g>
		<g>
			
				<radialGradient id="SVGID_1_" cx="30.1357" cy="35.1167" r="21.3375" gradientTransform="matrix(1 0 -0.157 1.7879 -10.2225 -27.6696)" gradientUnits="userSpaceOnUse">
				<stop  offset="0.2039" style="stop-color:#9CC1FF;stop-opacity:0.5373"/>
				<stop  offset="0.6314" style="stop-color:#8257FF;stop-opacity:0.6588"/>
				<stop  offset="1" style="stop-color:#977BE9;stop-opacity:0"/>
			</radialGradient>
			<path fill-rule="evenodd" clip-rule="evenodd" fill="url(#SVGID_1_)" d="M1.2,9.167l25-8.45l-0.25,53.9
				c-4.367,1.733-9.717,4.05-16.05,6.95c-2.734,1.233-5.634,2.6-8.7,4.1V9.167z"/>
		</g>
		<g>
			<g>
				<g>
					<polygon fill-rule="evenodd" clip-rule="evenodd" fill="#348F62" points="28.7,6.017 12.7,11.566 4.7,11.566 25.35,5.466 					
						"/>
					<polygon fill-rule="evenodd" clip-rule="evenodd" fill="#348F62" points="28.7,6.017 12.7,11.566 4.7,11.566 25.35,5.466 					
						"/>
					
						<linearGradient id="SVGID_2_" gradientUnits="userSpaceOnUse" x1="-477.9707" y1="132.5737" x2="-439.5703" y2="132.5737" gradientTransform="matrix(0.0046 -1 1.0003 -0.0631 -121.9059 -420.4254)">
						<stop  offset="0" style="stop-color:#163F2B"/>
						<stop  offset="1" style="stop-color:#276D4B"/>
					</linearGradient>
					<polygon fill-rule="evenodd" clip-rule="evenodd" fill="url(#SVGID_2_)" points="8.95,34.716 8.95,58.966 4.7,58.067 
						4.7,11.566 12.7,11.566 8.95,34.617 					"/>
					
						<linearGradient id="SVGID_3_" gradientUnits="userSpaceOnUse" x1="-477.9707" y1="132.5737" x2="-439.5703" y2="132.5737" gradientTransform="matrix(0.0046 -1 1.0003 -0.0631 -121.9059 -420.4254)">
						<stop  offset="0" style="stop-color:#163F2B"/>
						<stop  offset="1" style="stop-color:#276D4B"/>
					</linearGradient>
					<polygon fill-rule="evenodd" clip-rule="evenodd" fill="url(#SVGID_3_)" points="8.95,34.716 8.95,58.966 4.7,58.067 
						4.7,11.566 12.7,11.566 8.95,34.617 					"/>
					<polygon fill-rule="evenodd" clip-rule="evenodd" fill="#184630" points="12.7,11.566 28.7,6.017 25.45,28.517 8.95,34.716 
						8.95,34.617 					"/>
					<polygon fill-rule="evenodd" clip-rule="evenodd" fill="#184630" points="12.7,11.566 28.7,6.017 25.45,28.517 8.95,34.716 
						8.95,34.617 					"/>
					
						<linearGradient id="SVGID_4_" gradientUnits="userSpaceOnUse" x1="-1.0864" y1="-337.9502" x2="25.858" y2="-337.9502" gradientTransform="matrix(0.373 0.9278 -0.9071 0.4246 -298.2674 165.0525)">
						<stop  offset="0" style="stop-color:#163F2B"/>
						<stop  offset="1" style="stop-color:#276D4B"/>
					</linearGradient>
					<polygon fill-rule="evenodd" clip-rule="evenodd" fill="url(#SVGID_4_)" points="8.95,34.716 25.45,28.517 26.15,50.566 
						8.95,58.966 					"/>
					
						<linearGradient id="SVGID_5_" gradientUnits="userSpaceOnUse" x1="-1.0864" y1="-337.9502" x2="25.858" y2="-337.9502" gradientTransform="matrix(0.373 0.9278 -0.9071 0.4246 -298.2674 165.0525)">
						<stop  offset="0" style="stop-color:#163F2B"/>
						<stop  offset="1" style="stop-color:#276D4B"/>
					</linearGradient>
					<polygon fill-rule="evenodd" clip-rule="evenodd" fill="url(#SVGID_5_)" points="8.95,34.716 25.45,28.517 26.15,50.566 
						8.95,58.966 					"/>
				</g>
			</g>
			<g>
				<g>
					<linearGradient id="SVGID_6_" gradientUnits="userSpaceOnUse" x1="12.0273" y1="9.3843" x2="27.1517" y2="8.6453">
						<stop  offset="0" style="stop-color:#FEFEFE;stop-opacity:0"/>
						<stop  offset="0.5255" style="stop-color:#FEFEFE;stop-opacity:0.6"/>
						<stop  offset="1" style="stop-color:#FEFEFE;stop-opacity:0"/>
					</linearGradient>
					<path fill-rule="evenodd" clip-rule="evenodd" fill="url(#SVGID_6_)" d="M12.75,12.267H12.6
						c-0.066,0.033-0.133,0.05-0.199,0.05c-0.067,0-0.134-0.017-0.2-0.05c-0.101-0.067-0.184-0.15-0.25-0.25
						c-0.066-0.133-0.05-0.267,0.05-0.4c0.066-0.1,0.15-0.184,0.25-0.25l15.7-5.7c0.133-0.033,0.267-0.017,0.399,0.05
						c0.101,0.067,0.184,0.15,0.25,0.25c0.034,0.133,0.034,0.267,0,0.4c-0.1,0.1-0.199,0.183-0.3,0.25L12.75,12.267z"/>
					<linearGradient id="SVGID_7_" gradientUnits="userSpaceOnUse" x1="14.9717" y1="9.0664" x2="10.5357" y2="23.538">
						<stop  offset="0" style="stop-color:#FEFEFE;stop-opacity:0"/>
						<stop  offset="0.5255" style="stop-color:#FEFEFE;stop-opacity:0.6"/>
						<stop  offset="1" style="stop-color:#FEFEFE;stop-opacity:0"/>
					</linearGradient>
					<path fill-rule="evenodd" clip-rule="evenodd" fill="url(#SVGID_7_)" d="M12.75,12.267c0.134,0,0.233,0.066,0.3,0.2
						c0.066,0.067,0.101,0.167,0.101,0.3l-2.75,16.75c-0.034,0.133-0.101,0.233-0.2,0.3c-0.134,0.067-0.267,0.1-0.4,0.1
						c-0.133-0.033-0.233-0.1-0.3-0.2c-0.066-0.133-0.083-0.267-0.05-0.4l2.75-16.7c0-0.133,0.066-0.233,0.2-0.3
						c0.066,0,0.133-0.017,0.199-0.05H12.75z"/>
					<linearGradient id="SVGID_8_" gradientUnits="userSpaceOnUse" x1="11.5049" y1="35.0381" x2="7.0689" y2="49.5097">
						<stop  offset="0" style="stop-color:#FEFEFE;stop-opacity:0"/>
						<stop  offset="0.5255" style="stop-color:#FEFEFE;stop-opacity:0.6"/>
						<stop  offset="1" style="stop-color:#FEFEFE;stop-opacity:0"/>
					</linearGradient>
					<path fill-rule="evenodd" clip-rule="evenodd" fill="url(#SVGID_8_)" d="M9.4,34.267c0.066,0.066,0.116,0.167,0.149,0.3
						l0.05,16.7c-0.033,0.133-0.083,0.25-0.149,0.35c-0.101,0.066-0.217,0.117-0.351,0.15c-0.133-0.033-0.233-0.083-0.3-0.15
						c-0.1-0.1-0.149-0.217-0.149-0.35L8.6,34.566c0-0.133,0.051-0.233,0.15-0.3c0.066-0.1,0.167-0.15,0.3-0.15
						C9.217,34.117,9.333,34.167,9.4,34.267z"/>
				</g>
			</g>
			<g>
				<path fill-rule="evenodd" clip-rule="evenodd" fill="#FFFF00" d="M15.7,41.417c-0.2-0.5-0.283-1.083-0.25-1.75
					c0.1-1.1,0.434-2.033,1-2.8c0.6-0.8,1.267-1.2,2-1.2c0.8,0,1.434,0.333,1.899,1c0.2,0.4,0.384,0.783,0.551,1.15
					c0.1,0.533,0.133,1.083,0.1,1.65c-0.066,1.1-0.4,2.067-1,2.9c-0.066,0.1-0.15,0.216-0.25,0.35c-0.2,0.233-0.417,0.417-0.65,0.55
					c-0.333,0.2-0.699,0.3-1.1,0.3c-0.733,0-1.366-0.367-1.9-1.1C15.934,42.2,15.8,41.85,15.7,41.417z M17.8,45.917l1.3-0.4
					l0.051,4.95l-1.301,0.55L17.8,45.917z M20.15,38.267c-0.067-0.3-0.167-0.567-0.301-0.8c-0.399-0.566-0.866-0.833-1.399-0.8
					c-0.367-0.033-0.717,0.1-1.05,0.4c-0.967,1.133-1.267,2.467-0.9,4c0.434,1.6,1.333,1.983,2.7,1.15
					c0.166-0.133,0.3-0.267,0.399-0.4c0.367-0.6,0.584-1.316,0.65-2.15C20.283,39.167,20.25,38.7,20.15,38.267z"/>
			</g>
		</g>
	</g>
</g>
<g id="Layer_2">
</g>
</svg>
