<?xml version="1.0" encoding="utf-8"?>
<!-- Generator: Adobe Illustrator 16.0.0, SVG Export Plug-In . SVG Version: 6.00 Build 0)  -->
<!DOCTYPE svg PUBLIC "-//W3C//DTD SVG 1.1//EN" "http://www.w3.org/Graphics/SVG/1.1/DTD/svg11.dtd">
<svg version="1.1" id="Layer_1" xmlns="http://www.w3.org/2000/svg" xmlns:xlink="http://www.w3.org/1999/xlink" x="0px" y="0px"
	 width="32.13px" height="92.5px" viewBox="0 0 32.13 92.5" enable-background="new 0 0 32.13 92.5" xml:space="preserve">
<g>
	<g>
		<path fill-rule="evenodd" clip-rule="evenodd" d="M9.58,1V0.95l1-0.2v0.4C10.34,1.05,10.01,1,9.58,1z M23.88,1.15V0.6l1,0.25h-0.1
			v0.1C24.41,0.98,24.11,1.05,23.88,1.15z M27.08,37.75v-0.3c0-0.17-0.03-0.32-0.1-0.45c3,0.97,4.5,2.07,4.5,3.3
			c0,0.13,0,0.27,0,0.4c-0.27,1.1-1.77,2.07-4.5,2.9c-2.97,0.93-6.57,1.4-10.8,1.4c-4.27,0-7.9-0.47-10.9-1.4
			c-2.2-0.7-3.73-1.67-4.6-2.9c0.1-1.57,1.63-2.8,4.6-3.7c0.37-0.1,0.73-0.2,1.1-0.3c-0.17,0.23-0.25,0.48-0.25,0.75v0.3v1.1
			c0.03-0.1,0.12-0.28,0.25-0.55c0-0.1,0.03-0.2,0.1-0.3c0.07-0.27,0.08-0.12,0.05,0.45c-0.1,0.5-0.23,1.37-0.4,2.6
			c0.53,0.43,1.38,0.8,2.55,1.1c2.1,0.63,4.7,0.95,7.8,0.95c3.03,0,5.65-0.32,7.85-0.95c1.03-0.3,1.82-0.65,2.35-1.05
			c0.17-0.13,0.3-0.23,0.4-0.3V37.75z M3.22,67.8c0-0.87,1.03-1.62,3.1-2.25v2.3c2.07,1.2,5.77,1.87,11.1,2
			c5.33,0.17,8.07-0.83,8.2-3v-1.3c2.07,0.63,3.1,1.38,3.1,2.25c0,0.27,0,0.45,0,0.55c-0.77,0.8-2.03,1.42-3.8,1.85
			c-2.43,0.67-5.42,1-8.95,1c-3.53,0-6.55-0.33-9.05-1C4.86,69.67,3.63,68.87,3.22,67.8z"/>
		<path fill-rule="evenodd" clip-rule="evenodd" d="M9.58,1V0.95l1-0.2v0.4C10.34,1.05,10.01,1,9.58,1z M23.88,1.15V0.6l1,0.25h-0.1
			v0.1C24.41,0.98,24.11,1.05,23.88,1.15z M27.08,37.75v-0.3c0-0.17-0.03-0.32-0.1-0.45c3,0.97,4.5,2.07,4.5,3.3
			c0,0.13,0,0.27,0,0.4c-0.27,1.1-1.77,2.07-4.5,2.9c-2.97,0.93-6.57,1.4-10.8,1.4c-4.27,0-7.9-0.47-10.9-1.4
			c-2.2-0.7-3.73-1.67-4.6-2.9c0.1-1.57,1.63-2.8,4.6-3.7c0.37-0.1,0.73-0.2,1.1-0.3c-0.17,0.23-0.25,0.48-0.25,0.75v0.3v1.1
			c0.03-0.1,0.12-0.28,0.25-0.55c0-0.1,0.03-0.2,0.1-0.3c0.07-0.27,0.08-0.12,0.05,0.45c-0.1,0.5-0.23,1.37-0.4,2.6
			c0.53,0.43,1.38,0.8,2.55,1.1c2.1,0.63,4.7,0.95,7.8,0.95c3.03,0,5.65-0.32,7.85-0.95c1.03-0.3,1.82-0.65,2.35-1.05
			c0.17-0.13,0.3-0.23,0.4-0.3V37.75z M3.22,67.8c0-0.87,1.03-1.62,3.1-2.25v2.3c2.07,1.2,5.77,1.87,11.1,2
			c5.33,0.17,8.07-0.83,8.2-3v-1.3c2.07,0.63,3.1,1.38,3.1,2.25c0,0.27,0,0.45,0,0.55c-0.77,0.8-2.03,1.42-3.8,1.85
			c-2.43,0.67-5.42,1-8.95,1c-3.53,0-6.55-0.33-9.05-1C4.86,69.67,3.63,68.87,3.22,67.8z"/>
		<linearGradient id="SVGID_1_" gradientUnits="userSpaceOnUse" x1="9.5127" y1="20.1504" x2="24.7377" y2="20.1504">
			<stop  offset="0" style="stop-color:#000000"/>
			<stop  offset="0.4627" style="stop-color:#000000"/>
			<stop  offset="0.8039" style="stop-color:#555555"/>
			<stop  offset="1" style="stop-color:#000000"/>
		</linearGradient>
		<path fill-rule="evenodd" clip-rule="evenodd" fill="url(#SVGID_1_)" d="M24.78,0.95v35.5v1.35c-4.9,2.07-9.97,2.07-15.2,0v-1.7V1
			c0.43,0,0.77,0.05,1,0.15c4.8,1,9.23,1,13.3,0C24.11,1.05,24.41,0.98,24.78,0.95z"/>
		<linearGradient id="SVGID_2_" gradientUnits="userSpaceOnUse" x1="9.5127" y1="20.1504" x2="24.7377" y2="20.1504">
			<stop  offset="0" style="stop-color:#000000"/>
			<stop  offset="0.4627" style="stop-color:#000000"/>
			<stop  offset="0.8039" style="stop-color:#555555"/>
			<stop  offset="1" style="stop-color:#000000"/>
		</linearGradient>
		<path fill-rule="evenodd" clip-rule="evenodd" fill="url(#SVGID_2_)" d="M24.78,0.95v35.5v1.35c-4.9,2.07-9.97,2.07-15.2,0v-1.7V1
			c0.43,0,0.77,0.05,1,0.15c4.8,1,9.23,1,13.3,0C24.11,1.05,24.41,0.98,24.78,0.95z"/>
		<linearGradient id="SVGID_3_" gradientUnits="userSpaceOnUse" x1="-27.2734" y1="34.041" x2="40.5048" y2="40.6333">
			<stop  offset="0" style="stop-color:#000000"/>
			<stop  offset="0.4627" style="stop-color:#000000"/>
			<stop  offset="0.8039" style="stop-color:#555555"/>
			<stop  offset="1" style="stop-color:#000000"/>
		</linearGradient>
		<path fill-rule="evenodd" clip-rule="evenodd" fill="url(#SVGID_3_)" d="M6.53,38.45c0.03-0.57,0.02-0.72-0.05-0.45
			c-0.07,0.1-0.1,0.2-0.1,0.3c-0.16-0.23-0.25-0.41-0.25-0.55v-0.3c0-0.27,0.08-0.52,0.25-0.75c0.97-0.27,2.03-0.47,3.2-0.6v1.7
			c5.23,2.07,10.3,2.07,15.2,0v-1.35c0.8,0.13,1.53,0.32,2.2,0.55c0.07,0.13,0.1,0.28,0.1,0.45v0.3c-0.03,0.73-1.05,1.42-3.05,2.05
			c-2.07,0.67-4.55,1-7.45,1c-1.73,0-3.28-0.12-4.65-0.35c-0.97-0.13-1.87-0.35-2.7-0.65C7.89,39.4,6.99,38.95,6.53,38.45z"/>
		<linearGradient id="SVGID_4_" gradientUnits="userSpaceOnUse" x1="-27.2734" y1="34.041" x2="40.5048" y2="40.6333">
			<stop  offset="0" style="stop-color:#000000"/>
			<stop  offset="0.4627" style="stop-color:#000000"/>
			<stop  offset="0.8039" style="stop-color:#555555"/>
			<stop  offset="1" style="stop-color:#000000"/>
		</linearGradient>
		<path fill-rule="evenodd" clip-rule="evenodd" fill="url(#SVGID_4_)" d="M6.53,38.45c0.03-0.57,0.02-0.72-0.05-0.45
			c-0.07,0.1-0.1,0.2-0.1,0.3c-0.16-0.23-0.25-0.41-0.25-0.55v-0.3c0-0.27,0.08-0.52,0.25-0.75c0.97-0.27,2.03-0.47,3.2-0.6v1.7
			c5.23,2.07,10.3,2.07,15.2,0v-1.35c0.8,0.13,1.53,0.32,2.2,0.55c0.07,0.13,0.1,0.28,0.1,0.45v0.3c-0.03,0.73-1.05,1.42-3.05,2.05
			c-2.07,0.67-4.55,1-7.45,1c-1.73,0-3.28-0.12-4.65-0.35c-0.97-0.13-1.87-0.35-2.7-0.65C7.89,39.4,6.99,38.95,6.53,38.45z"/>
		<linearGradient id="SVGID_5_" gradientUnits="userSpaceOnUse" x1="7.7129" y1="40.4248" x2="26.0379" y2="40.4248">
			<stop  offset="0" style="stop-color:#000000"/>
			<stop  offset="0.4627" style="stop-color:#000000"/>
			<stop  offset="0.8039" style="stop-color:#555555"/>
			<stop  offset="1" style="stop-color:#000000"/>
		</linearGradient>
		<path fill-rule="evenodd" clip-rule="evenodd" fill="url(#SVGID_5_)" d="M6.13,37.75c0,0.14,0.09,0.32,0.25,0.55
			c-0.13,0.27-0.22,0.45-0.25,0.55V37.75z M27.08,37.75v3.05c-0.1,0.07-0.23,0.17-0.4,0.3c-0.53,0.4-1.32,0.75-2.35,1.05
			c-2.2,0.63-4.82,0.95-7.85,0.95c-3.1,0-5.7-0.32-7.8-0.95c-1.17-0.3-2.02-0.67-2.55-1.1c0.17-1.23,0.3-2.1,0.4-2.6
			c0.47,0.5,1.37,0.95,2.7,1.35c0.83,0.3,1.73,0.52,2.7,0.65c1.37,0.23,2.92,0.35,4.65,0.35c2.9,0,5.38-0.33,7.45-1
			C26.03,39.17,27.04,38.48,27.08,37.75z"/>
		<linearGradient id="SVGID_6_" gradientUnits="userSpaceOnUse" x1="7.7129" y1="40.4248" x2="26.0379" y2="40.4248">
			<stop  offset="0" style="stop-color:#000000"/>
			<stop  offset="0.4627" style="stop-color:#000000"/>
			<stop  offset="0.8039" style="stop-color:#555555"/>
			<stop  offset="1" style="stop-color:#000000"/>
		</linearGradient>
		<path fill-rule="evenodd" clip-rule="evenodd" fill="url(#SVGID_6_)" d="M6.13,37.75c0,0.14,0.09,0.32,0.25,0.55
			c-0.13,0.27-0.22,0.45-0.25,0.55V37.75z M27.08,37.75v3.05c-0.1,0.07-0.23,0.17-0.4,0.3c-0.53,0.4-1.32,0.75-2.35,1.05
			c-2.2,0.63-4.82,0.95-7.85,0.95c-3.1,0-5.7-0.32-7.8-0.95c-1.17-0.3-2.02-0.67-2.55-1.1c0.17-1.23,0.3-2.1,0.4-2.6
			c0.47,0.5,1.37,0.95,2.7,1.35c0.83,0.3,1.73,0.52,2.7,0.65c1.37,0.23,2.92,0.35,4.65,0.35c2.9,0,5.38-0.33,7.45-1
			C26.03,39.17,27.04,38.48,27.08,37.75z"/>
		<linearGradient id="SVGID_7_" gradientUnits="userSpaceOnUse" x1="1.0254" y1="53.2461" x2="31.4254" y2="53.2461">
			<stop  offset="0" style="stop-color:#000000"/>
			<stop  offset="0.4627" style="stop-color:#000000"/>
			<stop  offset="0.8039" style="stop-color:#555555"/>
			<stop  offset="1" style="stop-color:#000000"/>
		</linearGradient>
		<path fill-rule="evenodd" clip-rule="evenodd" fill="url(#SVGID_7_)" d="M0.67,40.7c0.87,1.23,2.4,2.2,4.6,2.9
			c3,0.93,6.63,1.4,10.9,1.4c4.23,0,7.83-0.47,10.8-1.4c2.73-0.83,4.23-1.8,4.5-2.9V62c-1.7,1.23-3.65,2.15-5.85,2.75
			c-0.5,0.17-1,0.32-1.5,0.45c-2.3,0.5-4.85,0.68-7.65,0.55c-2.73-0.2-5.13-0.48-7.2-0.85c-1.07-0.23-2.05-0.48-2.95-0.75
			c-2.63-0.83-4.52-1.62-5.65-2.35V40.7z"/>
		<linearGradient id="SVGID_8_" gradientUnits="userSpaceOnUse" x1="1.0254" y1="53.2461" x2="31.4254" y2="53.2461">
			<stop  offset="0" style="stop-color:#000000"/>
			<stop  offset="0.4627" style="stop-color:#000000"/>
			<stop  offset="0.8039" style="stop-color:#555555"/>
			<stop  offset="1" style="stop-color:#000000"/>
		</linearGradient>
		<path fill-rule="evenodd" clip-rule="evenodd" fill="url(#SVGID_8_)" d="M0.67,40.7c0.87,1.23,2.4,2.2,4.6,2.9
			c3,0.93,6.63,1.4,10.9,1.4c4.23,0,7.83-0.47,10.8-1.4c2.73-0.83,4.23-1.8,4.5-2.9V62c-1.7,1.23-3.65,2.15-5.85,2.75
			c-0.5,0.17-1,0.32-1.5,0.45c-2.3,0.5-4.85,0.68-7.65,0.55c-2.73-0.2-5.13-0.48-7.2-0.85c-1.07-0.23-2.05-0.48-2.95-0.75
			c-2.63-0.83-4.52-1.62-5.65-2.35V40.7z"/>
		<linearGradient id="SVGID_9_" gradientUnits="userSpaceOnUse" x1="6.3252" y1="67.0088" x2="25.625" y2="67.0088">
			<stop  offset="0" style="stop-color:#000000"/>
			<stop  offset="0.4627" style="stop-color:#000000"/>
			<stop  offset="0.8039" style="stop-color:#555555"/>
			<stop  offset="1" style="stop-color:#000000"/>
		</linearGradient>
		<path fill-rule="evenodd" clip-rule="evenodd" fill="url(#SVGID_9_)" d="M6.33,65.55v-1.4c0.9,0.27,1.88,0.52,2.95,0.75
			c2.07,0.37,4.47,0.65,7.2,0.85c2.8,0.13,5.35-0.05,7.65-0.55c0.5-0.13,1-0.28,1.5-0.45v0.8v1.3c-0.13,2.17-2.87,3.17-8.2,3
			c-5.33-0.13-9.03-0.8-11.1-2V65.55z"/>
		<linearGradient id="SVGID_10_" gradientUnits="userSpaceOnUse" x1="6.3252" y1="67.0088" x2="25.625" y2="67.0088">
			<stop  offset="0" style="stop-color:#000000"/>
			<stop  offset="0.4627" style="stop-color:#000000"/>
			<stop  offset="0.8039" style="stop-color:#555555"/>
			<stop  offset="1" style="stop-color:#000000"/>
		</linearGradient>
		<path fill-rule="evenodd" clip-rule="evenodd" fill="url(#SVGID_10_)" d="M6.33,65.55v-1.4c0.9,0.27,1.88,0.52,2.95,0.75
			c2.07,0.37,4.47,0.65,7.2,0.85c2.8,0.13,5.35-0.05,7.65-0.55c0.5-0.13,1-0.28,1.5-0.45v0.8v1.3c-0.13,2.17-2.87,3.17-8.2,3
			c-5.33-0.13-9.03-0.8-11.1-2V65.55z"/>
		<linearGradient id="SVGID_11_" gradientUnits="userSpaceOnUse" x1="3.3125" y1="79.9092" x2="28.3375" y2="79.9092">
			<stop  offset="0" style="stop-color:#000000"/>
			<stop  offset="0.4627" style="stop-color:#000000"/>
			<stop  offset="0.8039" style="stop-color:#555555"/>
			<stop  offset="1" style="stop-color:#000000"/>
		</linearGradient>
		<path fill-rule="evenodd" clip-rule="evenodd" fill="url(#SVGID_11_)" d="M28.72,68.35V88.4c-0.93,0.83-2.4,1.62-4.4,2.35
			c-2.07,0.7-4.85,1.12-8.35,1.25c-3.53,0.1-6.55-0.2-9.05-0.9c-2.07-0.53-3.3-1.2-3.7-2V67.8c0.4,1.07,1.63,1.87,3.7,2.4
			c2.5,0.67,5.52,1,9.05,1c3.53,0,6.52-0.33,8.95-1C26.69,69.77,27.96,69.15,28.72,68.35z"/>
		<linearGradient id="SVGID_12_" gradientUnits="userSpaceOnUse" x1="3.3125" y1="79.9092" x2="28.3375" y2="79.9092">
			<stop  offset="0" style="stop-color:#000000"/>
			<stop  offset="0.4627" style="stop-color:#000000"/>
			<stop  offset="0.8039" style="stop-color:#555555"/>
			<stop  offset="1" style="stop-color:#000000"/>
		</linearGradient>
		<path fill-rule="evenodd" clip-rule="evenodd" fill="url(#SVGID_12_)" d="M28.72,68.35V88.4c-0.93,0.83-2.4,1.62-4.4,2.35
			c-2.07,0.7-4.85,1.12-8.35,1.25c-3.53,0.1-6.55-0.2-9.05-0.9c-2.07-0.53-3.3-1.2-3.7-2V67.8c0.4,1.07,1.63,1.87,3.7,2.4
			c2.5,0.67,5.52,1,9.05,1c3.53,0,6.52-0.33,8.95-1C26.69,69.77,27.96,69.15,28.72,68.35z"/>
	</g>
	<g>
		<linearGradient id="SVGID_13_" gradientUnits="userSpaceOnUse" x1="16.2422" y1="71.2295" x2="28.9396" y2="68.9652">
			<stop  offset="7.843138e-003" style="stop-color:#FFFFFF;stop-opacity:0"/>
			<stop  offset="0.4902" style="stop-color:#FFFFFF;stop-opacity:0.451"/>
			<stop  offset="1" style="stop-color:#FFFFFF;stop-opacity:0"/>
		</linearGradient>
		<path fill-rule="evenodd" clip-rule="evenodd" fill="url(#SVGID_13_)" d="M28.88,68.3c0.03,0,0.05,0.02,0.05,0.05
			c-0.03,0.03-0.05,0.08-0.05,0.15c-2.17,1.93-6.78,2.93-13.85,3c-0.07,0-0.1-0.02-0.1-0.05c-0.03-0.03-0.05-0.08-0.05-0.15
			c-0.07-0.03-0.07-0.05,0-0.05c0.03-0.03,0.08-0.05,0.15-0.05c6.97-0.17,11.52-1.17,13.65-3c0-0.03,0.02-0.03,0.05,0
			C28.76,68.2,28.81,68.23,28.88,68.3z"/>
		<linearGradient id="SVGID_14_" gradientUnits="userSpaceOnUse" x1="16.2422" y1="71.2295" x2="28.9396" y2="68.9652">
			<stop  offset="7.843138e-003" style="stop-color:#FFFFFF;stop-opacity:0"/>
			<stop  offset="0.4902" style="stop-color:#FFFFFF;stop-opacity:0.451"/>
			<stop  offset="1" style="stop-color:#FFFFFF;stop-opacity:0"/>
		</linearGradient>
		<path fill-rule="evenodd" clip-rule="evenodd" fill="url(#SVGID_14_)" d="M28.88,68.3c0.03,0,0.05,0.02,0.05,0.05
			c-0.03,0.03-0.05,0.08-0.05,0.15c-2.17,1.93-6.78,2.93-13.85,3c-0.07,0-0.1-0.02-0.1-0.05c-0.03-0.03-0.05-0.08-0.05-0.15
			c-0.07-0.03-0.07-0.05,0-0.05c0.03-0.03,0.08-0.05,0.15-0.05c6.97-0.17,11.52-1.17,13.65-3c0-0.03,0.02-0.03,0.05,0
			C28.76,68.2,28.81,68.23,28.88,68.3z"/>
		<linearGradient id="SVGID_15_" gradientUnits="userSpaceOnUse" x1="14.6973" y1="40.7158" x2="28.343" y2="38.2916">
			<stop  offset="7.843138e-003" style="stop-color:#FFFFFF;stop-opacity:0"/>
			<stop  offset="0.4902" style="stop-color:#FFFFFF;stop-opacity:0.451"/>
			<stop  offset="1" style="stop-color:#FFFFFF;stop-opacity:0"/>
		</linearGradient>
		<path fill-rule="evenodd" clip-rule="evenodd" fill="url(#SVGID_15_)" d="M14.67,41c-0.07,0-0.1-0.03-0.1-0.1
			c-0.03-0.03-0.05-0.07-0.05-0.1c-0.03-0.07-0.03-0.1,0-0.1c0.03-0.03,0.08-0.05,0.15-0.05c7.67-0.23,11.82-1.25,12.45-3.05
			c0-0.03,0.03-0.05,0.1-0.05c0.03-0.07,0.07-0.07,0.1,0c0.07,0,0.1,0.02,0.1,0.05c0.03,0.07,0.05,0.12,0.05,0.15
			C26.78,39.72,22.51,40.8,14.67,41z"/>
		<linearGradient id="SVGID_16_" gradientUnits="userSpaceOnUse" x1="14.6973" y1="40.7158" x2="28.343" y2="38.2916">
			<stop  offset="7.843138e-003" style="stop-color:#FFFFFF;stop-opacity:0"/>
			<stop  offset="0.4902" style="stop-color:#FFFFFF;stop-opacity:0.451"/>
			<stop  offset="1" style="stop-color:#FFFFFF;stop-opacity:0"/>
		</linearGradient>
		<path fill-rule="evenodd" clip-rule="evenodd" fill="url(#SVGID_16_)" d="M14.67,41c-0.07,0-0.1-0.03-0.1-0.1
			c-0.03-0.03-0.05-0.07-0.05-0.1c-0.03-0.07-0.03-0.1,0-0.1c0.03-0.03,0.08-0.05,0.15-0.05c7.67-0.23,11.82-1.25,12.45-3.05
			c0-0.03,0.03-0.05,0.1-0.05c0.03-0.07,0.07-0.07,0.1,0c0.07,0,0.1,0.02,0.1,0.05c0.03,0.07,0.05,0.12,0.05,0.15
			C26.78,39.72,22.51,40.8,14.67,41z"/>
		<linearGradient id="SVGID_17_" gradientUnits="userSpaceOnUse" x1="17.1328" y1="44.9785" x2="31.4785" y2="42.429">
			<stop  offset="7.843138e-003" style="stop-color:#FFFFFF;stop-opacity:0"/>
			<stop  offset="0.4902" style="stop-color:#FFFFFF;stop-opacity:0.451"/>
			<stop  offset="1" style="stop-color:#FFFFFF;stop-opacity:0"/>
		</linearGradient>
		<path fill-rule="evenodd" clip-rule="evenodd" fill="url(#SVGID_17_)" d="M16.78,45.1c-0.03,0-0.05-0.02-0.05-0.05
			c-0.03-0.03-0.05-0.08-0.05-0.15c-0.07-0.03-0.07-0.05,0-0.05c0.03-0.03,0.07-0.05,0.1-0.05c7-0.17,11.55-1.17,13.65-3
			c0-0.03,0.03-0.03,0.1,0c0.03,0,0.08,0.03,0.15,0.1c0.03,0,0.05,0.02,0.05,0.05c-0.03,0.03-0.05,0.08-0.05,0.15
			C28.51,44.03,23.88,45.03,16.78,45.1z"/>
		<linearGradient id="SVGID_18_" gradientUnits="userSpaceOnUse" x1="17.1328" y1="44.9785" x2="31.4785" y2="42.429">
			<stop  offset="7.843138e-003" style="stop-color:#FFFFFF;stop-opacity:0"/>
			<stop  offset="0.4902" style="stop-color:#FFFFFF;stop-opacity:0.451"/>
			<stop  offset="1" style="stop-color:#FFFFFF;stop-opacity:0"/>
		</linearGradient>
		<path fill-rule="evenodd" clip-rule="evenodd" fill="url(#SVGID_18_)" d="M16.78,45.1c-0.03,0-0.05-0.02-0.05-0.05
			c-0.03-0.03-0.05-0.08-0.05-0.15c-0.07-0.03-0.07-0.05,0-0.05c0.03-0.03,0.07-0.05,0.1-0.05c7-0.17,11.55-1.17,13.65-3
			c0-0.03,0.03-0.03,0.1,0c0.03,0,0.08,0.03,0.15,0.1c0.03,0,0.05,0.02,0.05,0.05c-0.03,0.03-0.05,0.08-0.05,0.15
			C28.51,44.03,23.88,45.03,16.78,45.1z"/>
	</g>
	<g>
		<linearGradient id="SVGID_19_" gradientUnits="userSpaceOnUse" x1="15.2627" y1="1.3301" x2="24.7877" y2="1.3301">
			<stop  offset="0" style="stop-color:#000000"/>
			<stop  offset="0.298" style="stop-color:#000000"/>
			<stop  offset="0.5804" style="stop-color:#737373"/>
			<stop  offset="0.8039" style="stop-color:#515151"/>
			<stop  offset="1" style="stop-color:#000000"/>
		</linearGradient>
		<path fill-rule="evenodd" clip-rule="evenodd" fill="url(#SVGID_19_)" d="M24.33,1.3c-0.57,0.13-1.15,0.27-1.75,0.4l-5.5,0.4
			l-5.45-0.35c-0.6-0.1-1.15-0.22-1.65-0.35H9.92c-0.1-0.03-0.18-0.07-0.25-0.1C9.64,1.2,9.63,1.1,9.63,1c0.03-0.1,0.1-0.17,0.2-0.2
			c0.07-0.03,0.13-0.05,0.2-0.05c2,0.43,4.33,0.65,7,0.65c2.73,0,5.1-0.27,7.1-0.8c0.07-0.07,0.15-0.05,0.25,0.05
			c0.03,0.07,0.08,0.13,0.15,0.2c0.03,0.1,0.03,0.2,0,0.3C24.46,1.18,24.39,1.23,24.33,1.3z"/>
		<linearGradient id="SVGID_20_" gradientUnits="userSpaceOnUse" x1="15.2627" y1="1.3301" x2="24.7877" y2="1.3301">
			<stop  offset="0" style="stop-color:#000000"/>
			<stop  offset="0.298" style="stop-color:#000000"/>
			<stop  offset="0.5804" style="stop-color:#737373"/>
			<stop  offset="0.8039" style="stop-color:#515151"/>
			<stop  offset="1" style="stop-color:#000000"/>
		</linearGradient>
		<path fill-rule="evenodd" clip-rule="evenodd" fill="url(#SVGID_20_)" d="M24.33,1.3c-0.57,0.13-1.15,0.27-1.75,0.4l-5.5,0.4
			l-5.45-0.35c-0.6-0.1-1.15-0.22-1.65-0.35H9.92c-0.1-0.03-0.18-0.07-0.25-0.1C9.64,1.2,9.63,1.1,9.63,1c0.03-0.1,0.1-0.17,0.2-0.2
			c0.07-0.03,0.13-0.05,0.2-0.05c2,0.43,4.33,0.65,7,0.65c2.73,0,5.1-0.27,7.1-0.8c0.07-0.07,0.15-0.05,0.25,0.05
			c0.03,0.07,0.08,0.13,0.15,0.2c0.03,0.1,0.03,0.2,0,0.3C24.46,1.18,24.39,1.23,24.33,1.3z"/>
		<linearGradient id="SVGID_21_" gradientUnits="userSpaceOnUse" x1="15.2627" y1="4.2915" x2="24.7877" y2="4.2915">
			<stop  offset="0" style="stop-color:#000000"/>
			<stop  offset="0.298" style="stop-color:#000000"/>
			<stop  offset="0.5804" style="stop-color:#737373"/>
			<stop  offset="0.8039" style="stop-color:#515151"/>
			<stop  offset="1" style="stop-color:#000000"/>
		</linearGradient>
		<path fill-rule="evenodd" clip-rule="evenodd" fill="url(#SVGID_21_)" d="M24.33,4.25c-0.57,0.13-1.15,0.27-1.75,0.4l-5.5,0.4
			l-5.45-0.3c-0.6-0.1-1.15-0.22-1.65-0.35H9.92c-0.1-0.07-0.18-0.12-0.25-0.15c-0.03-0.1-0.05-0.2-0.05-0.3
			c0.03-0.07,0.1-0.13,0.2-0.2c0.07-0.03,0.13-0.05,0.2-0.05c2,0.47,4.33,0.7,7,0.7c2.73,0,5.1-0.28,7.1-0.85
			c0.07-0.03,0.15-0.02,0.25,0.05c0.03,0.07,0.08,0.15,0.15,0.25c0.03,0.07,0.03,0.15,0,0.25C24.46,4.13,24.39,4.18,24.33,4.25z"/>
		<linearGradient id="SVGID_22_" gradientUnits="userSpaceOnUse" x1="15.2627" y1="4.2915" x2="24.7877" y2="4.2915">
			<stop  offset="0" style="stop-color:#000000"/>
			<stop  offset="0.298" style="stop-color:#000000"/>
			<stop  offset="0.5804" style="stop-color:#737373"/>
			<stop  offset="0.8039" style="stop-color:#515151"/>
			<stop  offset="1" style="stop-color:#000000"/>
		</linearGradient>
		<path fill-rule="evenodd" clip-rule="evenodd" fill="url(#SVGID_22_)" d="M24.33,4.25c-0.57,0.13-1.15,0.27-1.75,0.4l-5.5,0.4
			l-5.45-0.3c-0.6-0.1-1.15-0.22-1.65-0.35H9.92c-0.1-0.07-0.18-0.12-0.25-0.15c-0.03-0.1-0.05-0.2-0.05-0.3
			c0.03-0.07,0.1-0.13,0.2-0.2c0.07-0.03,0.13-0.05,0.2-0.05c2,0.47,4.33,0.7,7,0.7c2.73,0,5.1-0.28,7.1-0.85
			c0.07-0.03,0.15-0.02,0.25,0.05c0.03,0.07,0.08,0.15,0.15,0.25c0.03,0.07,0.03,0.15,0,0.25C24.46,4.13,24.39,4.18,24.33,4.25z"/>
		<linearGradient id="SVGID_23_" gradientUnits="userSpaceOnUse" x1="0.4248" y1="2.0498" x2="31.9248" y2="2.0498">
			<stop  offset="0" style="stop-color:#000000"/>
			<stop  offset="0.298" style="stop-color:#000000"/>
			<stop  offset="0.5804" style="stop-color:#000000"/>
			<stop  offset="1" style="stop-color:#000000"/>
		</linearGradient>
		<path fill-rule="evenodd" clip-rule="evenodd" fill="url(#SVGID_23_)" d="M24.33,1.3c0.03,0,0.07,0.02,0.1,0.05
			c0.07,0.03,0.12,0.1,0.15,0.2c0.07,0.1,0.07,0.2,0,0.3c-0.1,0.03-0.17,0.07-0.2,0.1c-2.03,0.57-4.47,0.85-7.3,0.85
			c-2.77,0-5.13-0.23-7.1-0.7c-0.1-0.03-0.17-0.08-0.2-0.15C9.71,1.88,9.67,1.8,9.67,1.7c0.07-0.1,0.15-0.17,0.25-0.2V1.4h0.05
			c0.5,0.13,1.05,0.25,1.65,0.35l5.45,0.35l5.5-0.4C23.17,1.57,23.76,1.43,24.33,1.3z"/>
		<linearGradient id="SVGID_24_" gradientUnits="userSpaceOnUse" x1="0.4248" y1="2.0498" x2="31.9248" y2="2.0498">
			<stop  offset="0" style="stop-color:#000000"/>
			<stop  offset="0.298" style="stop-color:#000000"/>
			<stop  offset="0.5804" style="stop-color:#000000"/>
			<stop  offset="1" style="stop-color:#000000"/>
		</linearGradient>
		<path fill-rule="evenodd" clip-rule="evenodd" fill="url(#SVGID_24_)" d="M24.33,1.3c0.03,0,0.07,0.02,0.1,0.05
			c0.07,0.03,0.12,0.1,0.15,0.2c0.07,0.1,0.07,0.2,0,0.3c-0.1,0.03-0.17,0.07-0.2,0.1c-2.03,0.57-4.47,0.85-7.3,0.85
			c-2.77,0-5.13-0.23-7.1-0.7c-0.1-0.03-0.17-0.08-0.2-0.15C9.71,1.88,9.67,1.8,9.67,1.7c0.07-0.1,0.15-0.17,0.25-0.2V1.4h0.05
			c0.5,0.13,1.05,0.25,1.65,0.35l5.45,0.35l5.5-0.4C23.17,1.57,23.76,1.43,24.33,1.3z"/>
		<linearGradient id="SVGID_25_" gradientUnits="userSpaceOnUse" x1="0.4248" y1="5" x2="31.9248" y2="5">
			<stop  offset="0" style="stop-color:#000000"/>
			<stop  offset="0.298" style="stop-color:#000000"/>
			<stop  offset="0.5804" style="stop-color:#000000"/>
			<stop  offset="1" style="stop-color:#000000"/>
		</linearGradient>
		<path fill-rule="evenodd" clip-rule="evenodd" fill="url(#SVGID_25_)" d="M24.33,4.25c0.03,0,0.07,0.02,0.1,0.05
			c0.07,0.07,0.12,0.13,0.15,0.2c0.07,0.1,0.07,0.2,0,0.3c-0.1,0.03-0.17,0.08-0.2,0.15c-2.03,0.53-4.47,0.8-7.3,0.8
			c-2.77,0-5.13-0.23-7.1-0.7c-0.1-0.03-0.17-0.07-0.2-0.1c-0.07-0.1-0.1-0.2-0.1-0.3c0.07-0.1,0.15-0.17,0.25-0.2V4.4h0.05
			c0.5,0.13,1.05,0.25,1.65,0.35l5.45,0.3l5.5-0.4C23.17,4.52,23.76,4.38,24.33,4.25z"/>
		<linearGradient id="SVGID_26_" gradientUnits="userSpaceOnUse" x1="0.4248" y1="5" x2="31.9248" y2="5">
			<stop  offset="0" style="stop-color:#000000"/>
			<stop  offset="0.298" style="stop-color:#000000"/>
			<stop  offset="0.5804" style="stop-color:#000000"/>
			<stop  offset="1" style="stop-color:#000000"/>
		</linearGradient>
		<path fill-rule="evenodd" clip-rule="evenodd" fill="url(#SVGID_26_)" d="M24.33,4.25c0.03,0,0.07,0.02,0.1,0.05
			c0.07,0.07,0.12,0.13,0.15,0.2c0.07,0.1,0.07,0.2,0,0.3c-0.1,0.03-0.17,0.08-0.2,0.15c-2.03,0.53-4.47,0.8-7.3,0.8
			c-2.77,0-5.13-0.23-7.1-0.7c-0.1-0.03-0.17-0.07-0.2-0.1c-0.07-0.1-0.1-0.2-0.1-0.3c0.07-0.1,0.15-0.17,0.25-0.2V4.4h0.05
			c0.5,0.13,1.05,0.25,1.65,0.35l5.45,0.3l5.5-0.4C23.17,4.52,23.76,4.38,24.33,4.25z"/>
	</g>
</g>
</svg>
