<?xml version="1.0" encoding="utf-8"?>
<!-- Generator: Adobe Illustrator 16.0.0, SVG Export Plug-In . SVG Version: 6.00 Build 0)  -->
<!DOCTYPE svg PUBLIC "-//W3C//DTD SVG 1.1//EN" "http://www.w3.org/Graphics/SVG/1.1/DTD/svg11.dtd">
<svg version="1.1" xmlns="http://www.w3.org/2000/svg" xmlns:xlink="http://www.w3.org/1999/xlink" x="0px" y="0px" width="11.63px"
	 height="20.38px" viewBox="0 0 11.63 20.38" enable-background="new 0 0 11.63 20.38" xml:space="preserve">
<g id="Layer_2">
</g>
<g id="Layer_1">
	<g>
		<g>
			
				<radialGradient id="SVGID_1_" cx="-216.2529" cy="-318.374" r="25.8528" gradientTransform="matrix(0.1794 0 -0.0282 0.3207 35.0275 113.0529)" gradientUnits="userSpaceOnUse">
				<stop  offset="7.843138e-003" style="stop-color:#FFFF00;stop-opacity:0.5255"/>
				<stop  offset="0.4902" style="stop-color:#FFFF00;stop-opacity:0.451"/>
				<stop  offset="1" style="stop-color:#FFFF00;stop-opacity:0"/>
			</radialGradient>
			<path fill-rule="evenodd" clip-rule="evenodd" fill="url(#SVGID_1_)" d="M5.93,2.67c1.61,0,2.92,0.81,3.9,2.42
				c0.99,1.62,1.39,3.57,1.19,5.86c-0.2,2.29-0.94,4.24-2.22,5.86c-1.27,1.62-2.71,2.43-4.32,2.43c-1.61,0-2.91-0.81-3.91-2.43
				c-0.99-1.61-1.39-3.57-1.18-5.86c0.2-2.28,0.94-4.24,2.22-5.86C2.88,3.48,4.32,2.67,5.93,2.67z"/>
		</g>
		<g>
			<g>
				<polygon fill-rule="evenodd" clip-rule="evenodd" fill="#348F62" points="3.09,6.53 7.59,5.2 8.31,5.33 4.83,6.53 				"/>
				
					<linearGradient id="SVGID_2_" gradientUnits="userSpaceOnUse" x1="-188.7358" y1="-210.3027" x2="-142.2103" y2="-210.3027" gradientTransform="matrix(8.676500e-004 -0.1794 0.1795 -0.0113 41.8311 -21.5253)">
					<stop  offset="0" style="stop-color:#163F2B"/>
					<stop  offset="1" style="stop-color:#276D4B"/>
				</linearGradient>
				<polygon fill-rule="evenodd" clip-rule="evenodd" fill="url(#SVGID_2_)" points="4.02,11.56 4.02,16.84 3.09,16.64 3.09,6.53 
					4.83,6.53 4.02,11.55 				"/>
				<polygon fill-rule="evenodd" clip-rule="evenodd" fill="#184630" points="8.31,5.33 7.61,10.22 4.02,11.56 4.02,11.55 
					4.83,6.53 				"/>
				
					<linearGradient id="SVGID_3_" gradientUnits="userSpaceOnUse" x1="-317.8774" y1="-299.9058" x2="-285.2229" y2="-299.9058" gradientTransform="matrix(0.0669 0.1665 -0.1627 0.0762 -23.7559 84.2589)">
					<stop  offset="0" style="stop-color:#163F2B"/>
					<stop  offset="1" style="stop-color:#276D4B"/>
				</linearGradient>
				<polygon fill-rule="evenodd" clip-rule="evenodd" fill="url(#SVGID_3_)" points="4.02,11.56 7.61,10.22 7.76,15.01 4.02,16.84 
									"/>
			</g>
			<g>
				
					<linearGradient id="SVGID_4_" gradientUnits="userSpaceOnUse" x1="-212.1499" y1="-345.6685" x2="-193.825" y2="-346.5453" gradientTransform="matrix(0.1794 0 0 0.1794 42.7484 68.08)">
					<stop  offset="0" style="stop-color:#FEFEFE;stop-opacity:0"/>
					<stop  offset="0.5255" style="stop-color:#FEFEFE;stop-opacity:0.6"/>
					<stop  offset="1" style="stop-color:#FEFEFE;stop-opacity:0"/>
				</linearGradient>
				<path fill-rule="evenodd" clip-rule="evenodd" fill="url(#SVGID_4_)" d="M4.84,6.68L4.81,6.69C4.79,6.7,4.78,6.7,4.77,6.7
					c-0.02,0-0.03,0-0.04-0.01C4.7,6.68,4.68,6.65,4.67,6.63C4.66,6.6,4.66,6.57,4.68,6.55C4.69,6.53,4.71,6.51,4.74,6.5l3.42-1.24
					c0.03-0.01,0.06-0.01,0.08,0.01C8.26,5.28,8.28,5.3,8.29,5.32c0.01,0.03,0.01,0.06,0,0.08C8.27,5.43,8.25,5.44,8.22,5.46
					L4.84,6.68z"/>
				
					<linearGradient id="SVGID_5_" gradientUnits="userSpaceOnUse" x1="-208.5767" y1="-346.0522" x2="-213.9587" y2="-328.5044" gradientTransform="matrix(0.1794 0 0 0.1794 42.7484 68.08)">
					<stop  offset="0" style="stop-color:#FEFEFE;stop-opacity:0"/>
					<stop  offset="0.5255" style="stop-color:#FEFEFE;stop-opacity:0.6"/>
					<stop  offset="1" style="stop-color:#FEFEFE;stop-opacity:0"/>
				</linearGradient>
				<path fill-rule="evenodd" clip-rule="evenodd" fill="url(#SVGID_5_)" d="M4.84,6.68c0.03,0,0.05,0.02,0.07,0.04
					C4.93,6.75,4.93,6.77,4.93,6.8l-0.6,3.63c-0.01,0.03-0.02,0.05-0.04,0.07c-0.02,0.01-0.05,0.02-0.08,0.02
					c-0.03-0.01-0.05-0.02-0.06-0.04c-0.02-0.02-0.02-0.05-0.02-0.08l0.6-3.63c0-0.03,0.01-0.05,0.04-0.06c0.01,0,0.02,0,0.04-0.01
					L4.84,6.68z"/>
				
					<linearGradient id="SVGID_6_" gradientUnits="userSpaceOnUse" x1="-212.7495" y1="-314.6021" x2="-218.1315" y2="-297.0542" gradientTransform="matrix(0.1794 0 0 0.1794 42.7484 68.08)">
					<stop  offset="0" style="stop-color:#FEFEFE;stop-opacity:0"/>
					<stop  offset="0.5255" style="stop-color:#FEFEFE;stop-opacity:0.6"/>
					<stop  offset="1" style="stop-color:#FEFEFE;stop-opacity:0"/>
				</linearGradient>
				<path fill-rule="evenodd" clip-rule="evenodd" fill="url(#SVGID_6_)" d="M4.12,11.47c0.02,0.02,0.03,0.04,0.04,0.07l0.01,3.63
					c-0.01,0.03-0.02,0.05-0.04,0.07c-0.02,0.02-0.04,0.03-0.07,0.04C4.02,15.27,4,15.26,3.98,15.24c-0.02-0.02-0.03-0.04-0.03-0.07
					l-0.01-3.63c0-0.03,0.01-0.05,0.03-0.07c0.02-0.02,0.04-0.03,0.07-0.03C4.07,11.44,4.1,11.45,4.12,11.47z"/>
			</g>
			<g>
				<path fill-rule="evenodd" clip-rule="evenodd" fill="#FFFF00" d="M6.45,12.35c-0.01-0.07-0.03-0.13-0.06-0.18
					C6.3,12.04,6.2,11.98,6.08,12C6,11.99,5.93,12.02,5.86,12.08c-0.21,0.25-0.27,0.54-0.2,0.87c0.1,0.35,0.29,0.43,0.59,0.25
					c0.03-0.03,0.06-0.06,0.08-0.09c0.08-0.13,0.13-0.28,0.14-0.46C6.48,12.54,6.47,12.43,6.45,12.35z M6.64,12.61
					c-0.01,0.24-0.08,0.45-0.22,0.63c-0.02,0.02-0.04,0.05-0.05,0.07c-0.05,0.05-0.1,0.1-0.14,0.13c-0.07,0.04-0.15,0.06-0.24,0.06
					c-0.16,0-0.29-0.08-0.4-0.24c-0.04-0.06-0.07-0.13-0.09-0.22c-0.05-0.11-0.07-0.23-0.05-0.38c0.02-0.25,0.09-0.45,0.21-0.62
					c0.13-0.17,0.28-0.26,0.43-0.25c0.17-0.01,0.31,0.07,0.41,0.22c0.05,0.08,0.09,0.17,0.13,0.25C6.64,12.36,6.64,12.48,6.64,12.61
					z M6.22,13.92l0.01,1.08l-0.28,0.12L5.95,14L6.22,13.92z"/>
			</g>
		</g>
	</g>
</g>
</svg>
