<?xml version="1.0" encoding="utf-8"?>
<!-- Generator: Adobe Illustrator 16.0.0, SVG Export Plug-In . SVG Version: 6.00 Build 0)  -->
<!DOCTYPE svg PUBLIC "-//W3C//DTD SVG 1.1//EN" "http://www.w3.org/Graphics/SVG/1.1/DTD/svg11.dtd">
<svg version="1.1" id="Layer_2" xmlns="http://www.w3.org/2000/svg" xmlns:xlink="http://www.w3.org/1999/xlink" x="0px" y="0px"
	 width="11.63px" height="20.38px" viewBox="0 0 11.63 20.38" enable-background="new 0 0 11.63 20.38" xml:space="preserve">
<g>
	<g>
		<polygon fill-rule="evenodd" clip-rule="evenodd" fill="#348F62" points="3.09,6.52 6.99,5.23 7.73,5.37 4.03,6.58 		"/>
		
			<linearGradient id="SVGID_1_" gradientUnits="userSpaceOnUse" x1="926.1406" y1="-855.4951" x2="972.6654" y2="-855.4951" gradientTransform="matrix(8.676500e-004 -0.1794 0.1795 -0.0113 156.6813 171.1689)">
			<stop  offset="0" style="stop-color:#163F2B"/>
			<stop  offset="1" style="stop-color:#276D4B"/>
		</linearGradient>
		<polygon fill-rule="evenodd" clip-rule="evenodd" fill="url(#SVGID_1_)" points="4.03,6.58 4.02,11.56 4.84,16.71 3.09,16.63 
			3.09,6.52 		"/>
		<polygon fill-rule="evenodd" clip-rule="evenodd" fill="#184630" points="7.73,5.37 7.66,10.2 4.02,11.56 4.03,6.58 		"/>
		
			<linearGradient id="SVGID_2_" gradientUnits="userSpaceOnUse" x1="-1563.1733" y1="-114.5991" x2="-1530.4857" y2="-114.5991" gradientTransform="matrix(0.0676 0.1662 -0.163 0.0755 91.2254 276.7233)">
			<stop  offset="0" style="stop-color:#163F2B"/>
			<stop  offset="1" style="stop-color:#276D4B"/>
		</linearGradient>
		<polygon fill-rule="evenodd" clip-rule="evenodd" fill="url(#SVGID_2_)" points="4.02,11.56 7.66,10.2 8.63,15.17 4.84,16.71 		
			"/>
	</g>
	<g>
		<path fill-rule="evenodd" clip-rule="evenodd" fill="#FFFFFF" d="M6.7,12.28c-0.02-0.07-0.06-0.13-0.1-0.19
			c-0.1-0.14-0.21-0.21-0.31-0.21c-0.08-0.01-0.15,0.01-0.22,0.05C5.91,12.17,5.88,12.46,6,12.8c0.14,0.36,0.35,0.48,0.62,0.33
			c0.02-0.03,0.05-0.06,0.07-0.08c0.07-0.12,0.09-0.27,0.07-0.46C6.76,12.48,6.74,12.38,6.7,12.28z M6.86,12.19
			c0.04,0.13,0.06,0.25,0.07,0.39c0.02,0.24-0.02,0.44-0.13,0.61c-0.01,0.03-0.02,0.05-0.04,0.07c-0.04,0.05-0.08,0.08-0.12,0.11
			c-0.07,0.04-0.14,0.05-0.23,0.04c-0.16-0.02-0.3-0.12-0.43-0.3c-0.05-0.07-0.09-0.15-0.13-0.24c-0.07-0.13-0.1-0.26-0.11-0.4
			c-0.02-0.25,0.03-0.45,0.13-0.61c0.1-0.16,0.23-0.22,0.39-0.21c0.16,0.01,0.31,0.11,0.43,0.29C6.76,12.03,6.82,12.11,6.86,12.19z
			 M6.46,13.92l0.27-0.06l0.21,1.12l-0.26,0.08L6.46,13.92z"/>
	</g>
	<g>
		
			<linearGradient id="SVGID_3_" gradientUnits="userSpaceOnUse" x1="-855.6812" y1="-1420.1582" x2="-837.3062" y2="-1420.1582" gradientTransform="matrix(0.1794 0 0 0.1794 157.5984 260.7802)">
			<stop  offset="0" style="stop-color:#FEFEFE;stop-opacity:0"/>
			<stop  offset="0.5255" style="stop-color:#FEFEFE;stop-opacity:0.6"/>
			<stop  offset="1" style="stop-color:#FEFEFE;stop-opacity:0"/>
		</linearGradient>
		<path fill-rule="evenodd" clip-rule="evenodd" fill="url(#SVGID_3_)" d="M4.17,6.69C4.14,6.69,4.1,6.69,4.07,6.68
			C4.04,6.66,4.01,6.63,4,6.59v0C3.99,6.55,3.99,6.51,4,6.47C4.02,6.44,4.05,6.42,4.09,6.4l3.28-1.11c0.04-0.01,0.08-0.01,0.12,0
			c0.04,0.02,0.06,0.05,0.07,0.08c0.01,0.04,0.01,0.08,0,0.12C7.54,5.53,7.51,5.56,7.47,5.57L4.19,6.68
			C4.18,6.68,4.18,6.68,4.17,6.69z"/>
		
			<linearGradient id="SVGID_4_" gradientUnits="userSpaceOnUse" x1="-852.9795" y1="-1415.4585" x2="-858.3615" y2="-1397.9106" gradientTransform="matrix(0.1794 0 0 0.1794 157.5984 260.7802)">
			<stop  offset="0" style="stop-color:#FEFEFE;stop-opacity:0"/>
			<stop  offset="0.5255" style="stop-color:#FEFEFE;stop-opacity:0.6"/>
			<stop  offset="1" style="stop-color:#FEFEFE;stop-opacity:0"/>
		</linearGradient>
		<path fill-rule="evenodd" clip-rule="evenodd" fill="url(#SVGID_4_)" d="M4.17,6.69C4.18,6.7,4.18,6.71,4.18,6.73l0.01,3.63
			c0,0.04-0.02,0.07-0.04,0.1c-0.03,0.03-0.06,0.04-0.1,0.04c-0.04,0-0.07-0.02-0.1-0.04c-0.03-0.03-0.04-0.06-0.04-0.1L3.88,6.73
			c0-0.04,0.01-0.07,0.04-0.1C3.95,6.61,3.97,6.59,4,6.59v0c0.01,0.04,0.04,0.07,0.07,0.09C4.1,6.69,4.14,6.69,4.17,6.69z"/>
		
			<linearGradient id="SVGID_5_" gradientUnits="userSpaceOnUse" x1="-852.0723" y1="-1391.209" x2="-854.6863" y2="-1373.061" gradientTransform="matrix(0.1794 0 0 0.1794 157.5984 260.7802)">
			<stop  offset="0" style="stop-color:#FEFEFE;stop-opacity:0"/>
			<stop  offset="0.5255" style="stop-color:#FEFEFE;stop-opacity:0.6"/>
			<stop  offset="1" style="stop-color:#FEFEFE;stop-opacity:0"/>
		</linearGradient>
		<path fill-rule="evenodd" clip-rule="evenodd" fill="url(#SVGID_5_)" d="M3.96,11.77c-0.01-0.04,0-0.08,0.03-0.11
			c0.02-0.04,0.06-0.06,0.1-0.06c0.04-0.01,0.08,0,0.11,0.03c0.03,0.02,0.05,0.06,0.06,0.1l0.57,3.59c0.01,0.04,0,0.08-0.03,0.11
			c-0.02,0.03-0.06,0.06-0.1,0.06c-0.04,0.01-0.08,0-0.11-0.03c-0.03-0.02-0.05-0.06-0.06-0.1L3.96,11.77z"/>
	</g>
</g>
</svg>
