<?xml version="1.0" encoding="utf-8"?>
<!-- Generator: Adobe Illustrator 16.0.0, SVG Export Plug-In . SVG Version: 6.00 Build 0)  -->
<!DOCTYPE svg PUBLIC "-//W3C//DTD SVG 1.1//EN" "http://www.w3.org/Graphics/SVG/1.1/DTD/svg11.dtd">
<svg version="1.1" id="Layer_2" xmlns="http://www.w3.org/2000/svg" xmlns:xlink="http://www.w3.org/1999/xlink" x="0px" y="0px"
	 width="73.33px" height="124px" viewBox="0 0 73.33 124" enable-background="new 0 0 73.33 124" xml:space="preserve">
<g>
	<g>
		
			<linearGradient id="SVGID_1_" gradientUnits="userSpaceOnUse" x1="121.8999" y1="-266.6445" x2="135.9006" y2="-266.6445" gradientTransform="matrix(0.7071 0.7071 -0.72 0.6943 -220.8079 112.7151)">
			<stop  offset="0" style="stop-color:#000000;stop-opacity:0"/>
			<stop  offset="0.4941" style="stop-color:#000000"/>
			<stop  offset="1" style="stop-color:#000000;stop-opacity:0"/>
		</linearGradient>
		<path fill-rule="evenodd" clip-rule="evenodd" fill="url(#SVGID_1_)" d="M62.12,21.03h0.15c0.1-0.17,0.18-0.3,0.25-0.4
			c0.3-1.1,0.48-2.17,0.55-3.2c0-0.17-0.03-0.35-0.1-0.55h0.1c0.1,0,0.25,0.05,0.45,0.15c0.17,0.1,0.25,0.28,0.25,0.55
			c0.1,1.2,0.02,2.45-0.25,3.75c-0.1,0.2-0.2,0.33-0.3,0.4c-0.17,0.1-0.35,0.15-0.55,0.15c-0.17-0.1-0.3-0.18-0.4-0.25
			C62.17,21.43,62.12,21.23,62.12,21.03z"/>
		<linearGradient id="SVGID_2_" gradientUnits="userSpaceOnUse" x1="56.9819" y1="13.6191" x2="63.6622" y2="20.3886">
			<stop  offset="0.0157" style="stop-color:#FFFFFF;stop-opacity:0"/>
			<stop  offset="0.502" style="stop-color:#FFFFFF;stop-opacity:0.4627"/>
			<stop  offset="1" style="stop-color:#FFFFFF;stop-opacity:0"/>
		</linearGradient>
		<path fill-rule="evenodd" clip-rule="evenodd" fill="url(#SVGID_2_)" d="M62.12,21.03c-0.2,0-0.33,0-0.4,0
			c-0.2-0.07-0.35-0.15-0.45-0.25c-0.17-0.2-0.2-0.38-0.1-0.55c0.27-1.03,0.45-2,0.55-2.9c0-0.3,0.08-0.48,0.25-0.55
			c0.2-0.1,0.38-0.15,0.55-0.15c0.2,0,0.35,0.08,0.45,0.25c0.07,0.2,0.1,0.38,0.1,0.55c-0.07,1.03-0.25,2.1-0.55,3.2
			c-0.07,0.1-0.15,0.23-0.25,0.4H62.12z"/>
		
			<linearGradient id="SVGID_3_" gradientUnits="userSpaceOnUse" x1="114.9204" y1="-168.2456" x2="128.921" y2="-168.2456" gradientTransform="matrix(0.866 0.5 -0.5179 0.8557 -139.7852 94.4801)">
			<stop  offset="0" style="stop-color:#000000;stop-opacity:0"/>
			<stop  offset="0.4941" style="stop-color:#000000"/>
			<stop  offset="1" style="stop-color:#000000;stop-opacity:0"/>
		</linearGradient>
		<path fill-rule="evenodd" clip-rule="evenodd" fill="url(#SVGID_3_)" d="M52.97,14.38v-0.1c0.1-0.1,0.15-0.25,0.15-0.45
			c0-2.1-0.52-4.13-1.55-6.1l-0.1-0.1c0.07-0.1,0.2-0.15,0.4-0.15s0.33,0.08,0.4,0.25c1.3,1.87,2,4.13,2.1,6.8
			c0,0.2-0.05,0.38-0.15,0.55c-0.17,0.1-0.35,0.15-0.55,0.15s-0.33-0.05-0.4-0.15c-0.2-0.17-0.3-0.35-0.3-0.55
			C52.97,14.48,52.97,14.43,52.97,14.38z"/>
		
			<linearGradient id="SVGID_4_" gradientUnits="userSpaceOnUse" x1="114.4673" y1="-165.9961" x2="123.9622" y2="-165.9961" gradientTransform="matrix(0.8689 0.495 -0.5174 0.8561 -138.9712 93.3373)">
			<stop  offset="0.0157" style="stop-color:#FFFFFF;stop-opacity:0"/>
			<stop  offset="0.502" style="stop-color:#FFFFFF;stop-opacity:0.4627"/>
			<stop  offset="1" style="stop-color:#FFFFFF;stop-opacity:0"/>
		</linearGradient>
		<path fill-rule="evenodd" clip-rule="evenodd" fill="url(#SVGID_4_)" d="M52.97,14.38c-0.17,0.1-0.35,0.15-0.55,0.15
			c-0.17,0-0.3-0.05-0.4-0.15c-0.2-0.17-0.3-0.35-0.3-0.55c0-1.93-0.47-3.73-1.4-5.4c-0.17-0.17-0.2-0.35-0.1-0.55
			c0.07-0.17,0.2-0.3,0.4-0.4c0.1-0.2,0.28-0.25,0.55-0.15c0.1,0,0.2,0.1,0.3,0.3l0.1,0.1c1.03,1.97,1.55,4,1.55,6.1
			c0,0.2-0.05,0.35-0.15,0.45V14.38z"/>
		
			<linearGradient id="SVGID_5_" gradientUnits="userSpaceOnUse" x1="34.895" y1="9.7578" x2="50.82" y2="9.7578" gradientTransform="matrix(1 0 -0.0225 1 -4.6345 0)">
			<stop  offset="0" style="stop-color:#000000;stop-opacity:0"/>
			<stop  offset="0.4941" style="stop-color:#000000"/>
			<stop  offset="1" style="stop-color:#000000;stop-opacity:0"/>
		</linearGradient>
		<path fill-rule="evenodd" clip-rule="evenodd" fill="url(#SVGID_5_)" d="M32.22,7.18c0-0.07,0-0.15,0-0.25
			c0.07-0.2,0.2-0.33,0.4-0.4c0.1-0.2,0.23-0.25,0.4-0.15c3.5,0.9,6.18,2.83,8.05,5.8c0.1,0.1,0.15,0.23,0.15,0.4
			c-0.1,0.2-0.2,0.35-0.3,0.45c-0.17,0.1-0.35,0.15-0.55,0.15c-0.2-0.1-0.33-0.2-0.4-0.3c0-0.1-0.05-0.2-0.15-0.3
			c0-0.07,0-0.15,0-0.25c-1.47-2.6-3.78-4.35-6.95-5.25c-0.27-0.1-0.45-0.07-0.55,0.1H32.22z"/>
		
			<linearGradient id="SVGID_6_" gradientUnits="userSpaceOnUse" x1="35.48" y1="10.1924" x2="46.28" y2="10.1924" gradientTransform="matrix(1 0 -0.0262 1 -5.3945 0)">
			<stop  offset="0.0157" style="stop-color:#FFFFFF;stop-opacity:0"/>
			<stop  offset="0.502" style="stop-color:#FFFFFF;stop-opacity:0.4627"/>
			<stop  offset="1" style="stop-color:#FFFFFF;stop-opacity:0"/>
		</linearGradient>
		<path fill-rule="evenodd" clip-rule="evenodd" fill="url(#SVGID_6_)" d="M32.22,7.18h0.1c0.1-0.17,0.28-0.2,0.55-0.1
			c3.17,0.9,5.48,2.65,6.95,5.25c0,0.1,0,0.18,0,0.25c0,0.1,0,0.2,0,0.3c-0.1,0.1-0.2,0.23-0.3,0.4c-0.17,0.1-0.35,0.1-0.55,0
			c-0.17-0.07-0.3-0.15-0.4-0.25c-1.4-2.33-3.43-3.87-6.1-4.6c-0.17-0.07-0.3-0.15-0.4-0.25c-0.2-0.2-0.25-0.38-0.15-0.55
			C32.02,7.43,32.12,7.28,32.22,7.18z"/>
		
			<linearGradient id="SVGID_7_" gradientUnits="userSpaceOnUse" x1="55.8794" y1="215.543" x2="65.5562" y2="215.543" gradientTransform="matrix(0.5141 -0.8577 0 1.9451 -120.6613 -18.628)">
			<stop  offset="0.0157" style="stop-color:#FFFFFF;stop-opacity:0"/>
			<stop  offset="0.502" style="stop-color:#FFFFFF;stop-opacity:0.4627"/>
			<stop  offset="1" style="stop-color:#FFFFFF;stop-opacity:0"/>
		</linearGradient>
		<path fill-rule="evenodd" clip-rule="evenodd" fill="url(#SVGID_7_)" d="M55.07,109.98c-0.1-0.1-0.2-0.18-0.3-0.25
			c-0.1-0.2-0.15-0.4-0.15-0.6c0.47-2.03,0.57-3.65,0.3-4.85c0-0.17,0.05-0.3,0.15-0.4c0.07-0.17,0.2-0.3,0.4-0.4
			c0.2,0,0.38,0.05,0.55,0.15c0.1,0.07,0.2,0.2,0.3,0.4c0.27,1.37,0.17,3.17-0.3,5.4c-0.1,0.2-0.18,0.33-0.25,0.4
			c-0.2,0.1-0.4,0.15-0.6,0.15H55.07z"/>
		
			<linearGradient id="SVGID_8_" gradientUnits="userSpaceOnUse" x1="54.479" y1="214.9014" x2="64.1558" y2="214.9014" gradientTransform="matrix(0.5141 -0.8577 0 1.9451 -120.6613 -18.628)">
			<stop  offset="0" style="stop-color:#000000;stop-opacity:0"/>
			<stop  offset="0.4941" style="stop-color:#000000"/>
			<stop  offset="1" style="stop-color:#000000;stop-opacity:0"/>
		</linearGradient>
		<path fill-rule="evenodd" clip-rule="evenodd" fill="url(#SVGID_8_)" d="M55.07,109.98c-0.1,0-0.2,0.05-0.3,0.15
			c-0.17,0-0.3,0-0.4,0c-0.27-0.1-0.4-0.23-0.4-0.4c-0.1-0.2-0.1-0.35,0-0.45c0.43-1.57,0.43-3.08,0-4.55
			c-0.1-0.3-0.07-0.48,0.1-0.55c0.1-0.2,0.25-0.35,0.45-0.45c0.17-0.07,0.35-0.02,0.55,0.15c-0.1,0.1-0.15,0.23-0.15,0.4
			c0.27,1.2,0.17,2.82-0.3,4.85c0,0.2,0.05,0.4,0.15,0.6C54.87,109.8,54.97,109.88,55.07,109.98z"/>
		
			<linearGradient id="SVGID_9_" gradientUnits="userSpaceOnUse" x1="35.7544" y1="214.8477" x2="47.955" y2="214.8477" gradientTransform="matrix(0.8463 -0.5328 0 1.1817 -38.1768 -94.9405)">
			<stop  offset="0" style="stop-color:#000000;stop-opacity:0"/>
			<stop  offset="0.4941" style="stop-color:#000000"/>
			<stop  offset="1" style="stop-color:#000000;stop-opacity:0"/>
		</linearGradient>
		<path fill-rule="evenodd" clip-rule="evenodd" fill="url(#SVGID_9_)" d="M40.67,107.48c-0.2,0-0.3,0.13-0.3,0.4
			c-0.63,1.6-2.3,3.97-5,7.1c-0.07,0.1-0.1,0.28-0.1,0.55l0.1,0.15c-0.17,0.07-0.35,0.1-0.55,0.1c-0.17,0-0.3-0.03-0.4-0.1
			c-0.2-0.2-0.3-0.38-0.3-0.55c0-0.2,0.1-0.35,0.3-0.45c2.57-2.57,4.18-5.02,4.85-7.35c0.1-0.17,0.23-0.3,0.4-0.4
			c0.1-0.17,0.28-0.22,0.55-0.15c0.1,0.1,0.25,0.25,0.45,0.45V107.48z"/>
		
			<linearGradient id="SVGID_10_" gradientUnits="userSpaceOnUse" x1="37.1538" y1="215.751" x2="49.3545" y2="215.751" gradientTransform="matrix(0.8463 -0.5328 0 1.1817 -38.1768 -94.9405)">
			<stop  offset="0.0157" style="stop-color:#FFFFFF;stop-opacity:0"/>
			<stop  offset="0.502" style="stop-color:#FFFFFF;stop-opacity:0.4627"/>
			<stop  offset="1" style="stop-color:#FFFFFF;stop-opacity:0"/>
		</linearGradient>
		<path fill-rule="evenodd" clip-rule="evenodd" fill="url(#SVGID_10_)" d="M40.67,107.48c0.17-0.1,0.35-0.1,0.55,0
			c0.17,0,0.3,0.1,0.4,0.3c0,0.17,0,0.35,0,0.55c-0.57,1.67-2.28,4.2-5.15,7.6c-0.07,0.1-0.2,0.15-0.4,0.15
			c-0.17,0-0.35-0.05-0.55-0.15c-0.1-0.1-0.15-0.18-0.15-0.25l-0.1-0.15c0-0.27,0.03-0.45,0.1-0.55c2.7-3.13,4.37-5.5,5-7.1
			C40.37,107.62,40.47,107.48,40.67,107.48z"/>
		
			<linearGradient id="SVGID_11_" gradientUnits="userSpaceOnUse" x1="23.7061" y1="-10.7803" x2="36.9277" y2="-10.7803" gradientTransform="matrix(0.9946 0.104 -0.0259 1.0027 -6.6687 26.3907)">
			<stop  offset="0.0157" style="stop-color:#FFFFFF;stop-opacity:0"/>
			<stop  offset="0.502" style="stop-color:#FFFFFF;stop-opacity:0.4627"/>
			<stop  offset="1" style="stop-color:#FFFFFF;stop-opacity:0"/>
		</linearGradient>
		<path fill-rule="evenodd" clip-rule="evenodd" fill="url(#SVGID_11_)" d="M28.17,20.78c0,0.17-0.05,0.3-0.15,0.4
			c-0.07,0.2-0.2,0.3-0.4,0.3c-0.17,0-0.35-0.05-0.55-0.15c-2.3-1.93-4.93-3.27-7.9-4c-0.17-0.1-0.3-0.2-0.4-0.3
			c-0.2-0.17-0.25-0.35-0.15-0.55c0.1-0.2,0.23-0.33,0.4-0.4c0.1-0.1,0.2-0.15,0.3-0.15h0.15c3.13,0.73,5.95,2.17,8.45,4.3
			C28.08,20.33,28.17,20.52,28.17,20.78z"/>
		
			<linearGradient id="SVGID_12_" gradientUnits="userSpaceOnUse" x1="21.7466" y1="-12.6597" x2="37.7647" y2="-12.6597" gradientTransform="matrix(0.9942 0.1077 -0.0226 1.0034 -6.0948 27.4428)">
			<stop  offset="0" style="stop-color:#000000;stop-opacity:0"/>
			<stop  offset="0.4941" style="stop-color:#000000"/>
			<stop  offset="1" style="stop-color:#000000;stop-opacity:0"/>
		</linearGradient>
		<path fill-rule="evenodd" clip-rule="evenodd" fill="url(#SVGID_12_)" d="M28.17,20.78c0-0.27-0.08-0.45-0.25-0.55
			c-2.5-2.13-5.32-3.57-8.45-4.3h-0.15c0-0.1,0-0.2,0-0.3c0-0.17,0.08-0.3,0.25-0.4c0.2-0.1,0.4-0.15,0.6-0.15
			c0.9,0.2,1.72,0.38,2.45,0.55l0.15,0.15c2.23,0.73,4.37,2.07,6.4,4c0.07,0.1,0.1,0.25,0.1,0.45c0,0.17-0.03,0.35-0.1,0.55
			c-0.2,0.1-0.38,0.15-0.55,0.15C28.42,20.93,28.27,20.88,28.17,20.78z"/>
		
			<linearGradient id="SVGID_13_" gradientUnits="userSpaceOnUse" x1="9.9478" y1="33.5078" x2="25.4728" y2="33.5078" gradientTransform="matrix(1 0 -0.0201 1 -4.1271 0)">
			<stop  offset="0.0157" style="stop-color:#FFFFFF;stop-opacity:0"/>
			<stop  offset="0.502" style="stop-color:#FFFFFF;stop-opacity:0.4627"/>
			<stop  offset="1" style="stop-color:#FFFFFF;stop-opacity:0"/>
		</linearGradient>
		<path fill-rule="evenodd" clip-rule="evenodd" fill="url(#SVGID_13_)" d="M19.32,35.03c0,0.1-0.05,0.2-0.15,0.3
			c-0.1,0.17-0.23,0.25-0.4,0.25c-0.2,0-0.38-0.03-0.55-0.1c-1.5-1.2-4.08-2.08-7.75-2.65c-0.3,0-0.48-0.1-0.55-0.3
			c-0.1-0.17-0.15-0.3-0.15-0.4c0-0.27,0.08-0.45,0.25-0.55h0.15c0.1-0.1,0.23-0.15,0.4-0.15c3.97,0.57,6.78,1.53,8.45,2.9
			c0.2,0.1,0.3,0.28,0.3,0.55V35.03z"/>
		
			<linearGradient id="SVGID_14_" gradientUnits="userSpaceOnUse" x1="11.332" y1="32.6084" x2="27.257" y2="32.6084" gradientTransform="matrix(1 0 -0.0225 1 -4.6345 0)">
			<stop  offset="0" style="stop-color:#000000;stop-opacity:0"/>
			<stop  offset="0.4941" style="stop-color:#000000"/>
			<stop  offset="1" style="stop-color:#000000;stop-opacity:0"/>
		</linearGradient>
		<path fill-rule="evenodd" clip-rule="evenodd" fill="url(#SVGID_14_)" d="M19.32,35.03v-0.15c0-0.27-0.1-0.45-0.3-0.55
			c-1.67-1.37-4.48-2.33-8.45-2.9c-0.17,0-0.3,0.05-0.4,0.15c0-0.1-0.05-0.2-0.15-0.3c-0.07-0.17-0.1-0.3-0.1-0.4
			c0-0.27,0.08-0.45,0.25-0.55c0.2-0.1,0.38-0.15,0.55-0.15c4.43,0.67,7.43,1.92,9,3.75c0.1,0.1,0.15,0.28,0.15,0.55
			c0,0.1-0.05,0.23-0.15,0.4C19.55,34.88,19.42,34.93,19.32,35.03z"/>
		
			<linearGradient id="SVGID_15_" gradientUnits="userSpaceOnUse" x1="7.3496" y1="48.3994" x2="22.1746" y2="48.3994" gradientTransform="matrix(1 0 -0.0181 1 -3.717 0)">
			<stop  offset="0.0157" style="stop-color:#FFFFFF;stop-opacity:0"/>
			<stop  offset="0.502" style="stop-color:#FFFFFF;stop-opacity:0.4627"/>
			<stop  offset="1" style="stop-color:#FFFFFF;stop-opacity:0"/>
		</linearGradient>
		<path fill-rule="evenodd" clip-rule="evenodd" fill="url(#SVGID_15_)" d="M5.62,48.08c0-0.2,0.08-0.3,0.25-0.3
			c3.07-0.47,6.22-0.42,9.45,0.15c0.17,0,0.3,0.08,0.4,0.25c0.1,0.2,0.15,0.4,0.15,0.6c0,0.17-0.1,0.3-0.3,0.4
			c-0.17,0.1-0.35,0.15-0.55,0.15c-3.03-0.57-5.98-0.62-8.85-0.15c-0.2,0-0.38-0.05-0.55-0.15c-0.2-0.1-0.3-0.23-0.3-0.4
			c0-0.2,0.05-0.38,0.15-0.55H5.62z"/>
		<linearGradient id="SVGID_16_" gradientUnits="userSpaceOnUse" x1="4.3667" y1="47.3447" x2="16.5667" y2="47.3447">
			<stop  offset="0" style="stop-color:#000000;stop-opacity:0"/>
			<stop  offset="0.4941" style="stop-color:#000000"/>
			<stop  offset="1" style="stop-color:#000000;stop-opacity:0"/>
		</linearGradient>
		<path fill-rule="evenodd" clip-rule="evenodd" fill="url(#SVGID_16_)" d="M5.62,48.08c-0.2-0.2-0.3-0.35-0.3-0.45
			c0-0.17,0.05-0.35,0.15-0.55c0.1-0.17,0.28-0.25,0.55-0.25c4.07-0.47,7.2-0.43,9.4,0.1c0.1,0.1,0.25,0.25,0.45,0.45
			c0.07,0.1,0.07,0.28,0,0.55c0,0.1-0.05,0.18-0.15,0.25c-0.1-0.17-0.23-0.25-0.4-0.25c-3.23-0.57-6.38-0.62-9.45-0.15
			C5.7,47.78,5.62,47.88,5.62,48.08z"/>
		
			<linearGradient id="SVGID_17_" gradientUnits="userSpaceOnUse" x1="3.8164" y1="76.2334" x2="16.0257" y2="76.2334" gradientTransform="matrix(0.9992 -0.0389 0 1.0008 -0.1878 -9.5058)">
			<stop  offset="0" style="stop-color:#000000;stop-opacity:0"/>
			<stop  offset="0.4941" style="stop-color:#000000"/>
			<stop  offset="1" style="stop-color:#000000;stop-opacity:0"/>
		</linearGradient>
		<path fill-rule="evenodd" clip-rule="evenodd" fill="url(#SVGID_17_)" d="M14.17,66.78c-3.03-0.37-5.98-0.13-8.85,0.7
			c-0.1,0-0.15,0.03-0.15,0.1c-0.17-0.17-0.3-0.3-0.4-0.4c-0.1-0.27-0.05-0.45,0.15-0.55c0.1-0.2,0.23-0.33,0.4-0.4
			c2.67-0.77,5.62-1.05,8.85-0.85c0.1,0,0.25,0.1,0.45,0.3c0.07,0.07,0.1,0.25,0.1,0.55c0,0.07-0.03,0.2-0.1,0.4
			C14.42,66.63,14.27,66.68,14.17,66.78z"/>
		
			<linearGradient id="SVGID_18_" gradientUnits="userSpaceOnUse" x1="10.8325" y1="77.4346" x2="25.1181" y2="77.4346" gradientTransform="matrix(0.9993 -0.0385 -0.0302 1.0019 -6.397 -9.1687)">
			<stop  offset="0.0157" style="stop-color:#FFFFFF;stop-opacity:0"/>
			<stop  offset="0.502" style="stop-color:#FFFFFF;stop-opacity:0.4627"/>
			<stop  offset="1" style="stop-color:#FFFFFF;stop-opacity:0"/>
		</linearGradient>
		<path fill-rule="evenodd" clip-rule="evenodd" fill="url(#SVGID_18_)" d="M14.17,66.78c0.1,0,0.2,0,0.3,0
			c0.17,0,0.3,0.08,0.4,0.25c0.1,0.2,0.15,0.38,0.15,0.55c0,0.2-0.1,0.35-0.3,0.45c-0.17,0.07-0.3,0.1-0.4,0.1
			c-2.93-0.37-5.8-0.13-8.6,0.7c-0.27,0.1-0.45,0.1-0.55,0c-0.17-0.17-0.3-0.3-0.4-0.4c-0.1-0.27-0.05-0.45,0.15-0.55
			c0-0.2,0.08-0.3,0.25-0.3c0-0.07,0.05-0.1,0.15-0.1C8.18,66.65,11.13,66.42,14.17,66.78z"/>
		<linearGradient id="SVGID_19_" gradientUnits="userSpaceOnUse" x1="8.9165" y1="85.3916" x2="21.1165" y2="85.3916">
			<stop  offset="0" style="stop-color:#000000;stop-opacity:0"/>
			<stop  offset="0.4941" style="stop-color:#000000"/>
			<stop  offset="1" style="stop-color:#000000;stop-opacity:0"/>
		</linearGradient>
		<path fill-rule="evenodd" clip-rule="evenodd" fill="url(#SVGID_19_)" d="M9.62,87.13c-0.2-0.1-0.3-0.23-0.3-0.4
			c-0.07-0.2-0.07-0.35,0-0.45c0-0.27,0.1-0.4,0.3-0.4c3.4-1.67,6.17-2.4,8.3-2.2c0.2,0,0.35,0.08,0.45,0.25
			c0.07,0.2,0.1,0.38,0.1,0.55c0,0.2-0.08,0.35-0.25,0.45l-0.15,0.1c-0.1-0.07-0.2-0.1-0.3-0.1C15.83,84.47,13.12,85.2,9.62,87.13z"
			/>
		
			<linearGradient id="SVGID_20_" gradientUnits="userSpaceOnUse" x1="-21.0264" y1="86.6279" x2="-8.4264" y2="86.6279" gradientTransform="matrix(1 0 0.1044 1 21.4781 0)">
			<stop  offset="0.0157" style="stop-color:#FFFFFF;stop-opacity:0"/>
			<stop  offset="0.502" style="stop-color:#FFFFFF;stop-opacity:0.4627"/>
			<stop  offset="1" style="stop-color:#FFFFFF;stop-opacity:0"/>
		</linearGradient>
		<path fill-rule="evenodd" clip-rule="evenodd" fill="url(#SVGID_20_)" d="M9.62,87.13c3.5-1.93,6.22-2.67,8.15-2.2
			c0.1,0,0.2,0.03,0.3,0.1l0.15,0.15c0.1,0.2,0.15,0.38,0.15,0.55c0,0.2-0.1,0.35-0.3,0.45c-0.2,0.07-0.38,0.1-0.55,0.1
			c-1.77-0.27-4.17,0.43-7.2,2.1c-0.2,0.1-0.38,0.1-0.55,0c-0.2-0.1-0.35-0.2-0.45-0.3c-0.17-0.17-0.2-0.35-0.1-0.55
			C9.28,87.37,9.42,87.23,9.62,87.13z"/>
		
			<linearGradient id="SVGID_21_" gradientUnits="userSpaceOnUse" x1="17.9165" y1="111.9004" x2="30.1257" y2="111.9004" gradientTransform="matrix(0.9992 -0.0389 0 1.0008 -0.1878 -9.5058)">
			<stop  offset="0" style="stop-color:#000000;stop-opacity:0"/>
			<stop  offset="0.4941" style="stop-color:#000000"/>
			<stop  offset="1" style="stop-color:#000000;stop-opacity:0"/>
		</linearGradient>
		<path fill-rule="evenodd" clip-rule="evenodd" fill="url(#SVGID_21_)" d="M27.22,99.73c-0.1-0.1-0.23-0.15-0.4-0.15
			c-0.2,0-0.35,0.1-0.45,0.3c-2.03,1.73-4.3,3.07-6.8,4c-0.27,0-0.4,0.1-0.4,0.3l-0.15,0.1c-0.07,0-0.15,0-0.25,0
			c-0.2-0.17-0.33-0.3-0.4-0.4c-0.1-0.27-0.07-0.45,0.1-0.55c0.1-0.17,0.25-0.3,0.45-0.4c0.53-0.2,1.13-0.35,1.8-0.45
			c1.47-0.63,3.27-1.78,5.4-3.45c0.17-0.1,0.35-0.15,0.55-0.15c0.17,0,0.3,0.1,0.4,0.3C27.17,99.35,27.22,99.53,27.22,99.73z"/>
		
			<linearGradient id="SVGID_22_" gradientUnits="userSpaceOnUse" x1="18.8667" y1="112.6973" x2="31.0759" y2="112.6973" gradientTransform="matrix(0.9992 -0.0389 0 1.0008 -0.1878 -9.5058)">
			<stop  offset="0.0157" style="stop-color:#FFFFFF;stop-opacity:0"/>
			<stop  offset="0.502" style="stop-color:#FFFFFF;stop-opacity:0.4627"/>
			<stop  offset="1" style="stop-color:#FFFFFF;stop-opacity:0"/>
		</linearGradient>
		<path fill-rule="evenodd" clip-rule="evenodd" fill="url(#SVGID_22_)" d="M27.22,99.73l0.15,0.15c0.07,0.1,0.1,0.23,0.1,0.4
			c0,0.2-0.03,0.38-0.1,0.55c-2.13,1.87-4.58,3.3-7.35,4.3c-0.2,0-0.38,0-0.55,0c-0.2-0.1-0.3-0.23-0.3-0.4
			c-0.1-0.2-0.15-0.35-0.15-0.45l0.15-0.1c0-0.2,0.13-0.3,0.4-0.3c2.5-0.93,4.77-2.27,6.8-4c0.1-0.2,0.25-0.3,0.45-0.3
			C26.98,99.58,27.12,99.63,27.22,99.73z"/>
	</g>
</g>
</svg>
