<?xml version="1.0" encoding="utf-8"?>
<!-- Generator: Adobe Illustrator 16.0.0, SVG Export Plug-In . SVG Version: 6.00 Build 0)  -->
<!DOCTYPE svg PUBLIC "-//W3C//DTD SVG 1.1//EN" "http://www.w3.org/Graphics/SVG/1.1/DTD/svg11.dtd">
<svg version="1.1" xmlns="http://www.w3.org/2000/svg" xmlns:xlink="http://www.w3.org/1999/xlink" x="0px" y="0px" width="73.33px"
	 height="124px" viewBox="0 0 73.33 124" enable-background="new 0 0 73.33 124" xml:space="preserve">
<g id="Layer_1">
	<g>
		<g>
			
				<linearGradient id="SVGID_1_" gradientUnits="userSpaceOnUse" x1="124.2349" y1="-233.376" x2="130.9248" y2="-233.376" gradientTransform="matrix(0.7661 0.6428 -0.6617 0.7502 -194.1717 108.2455)">
				<stop  offset="0.0157" style="stop-color:#FFFFFF;stop-opacity:0"/>
				<stop  offset="0.502" style="stop-color:#FFFFFF;stop-opacity:0.4627"/>
				<stop  offset="1" style="stop-color:#FFFFFF;stop-opacity:0"/>
			</linearGradient>
			<path fill-rule="evenodd" clip-rule="evenodd" fill="url(#SVGID_1_)" d="M59.77,13.98c0.1,1.3,0,2.68-0.3,4.15
				c0,0.2-0.08,0.35-0.25,0.45c-0.1,0.07-0.2,0.1-0.3,0.1s-0.18,0-0.25,0c-0.2,0-0.35-0.08-0.45-0.25c-0.07-0.2-0.1-0.38-0.1-0.55
				c0.27-1.3,0.35-2.55,0.25-3.75c0-0.27,0.05-0.45,0.15-0.55c0.1-0.2,0.28-0.3,0.55-0.3c0.2,0,0.38,0.05,0.55,0.15
				C59.72,13.53,59.77,13.72,59.77,13.98z"/>
			
				<linearGradient id="SVGID_2_" gradientUnits="userSpaceOnUse" x1="111.9106" y1="-178.6758" x2="120.4012" y2="-178.6758" gradientTransform="matrix(0.848 0.53 -0.5501 0.8355 -150.8791 97.7746)">
				<stop  offset="0.0157" style="stop-color:#FFFFFF;stop-opacity:0"/>
				<stop  offset="0.502" style="stop-color:#FFFFFF;stop-opacity:0.4627"/>
				<stop  offset="1" style="stop-color:#FFFFFF;stop-opacity:0"/>
			</linearGradient>
			<path fill-rule="evenodd" clip-rule="evenodd" fill="url(#SVGID_2_)" d="M45.49,6.53h0.13c0.1,0,0.15,0.03,0.15,0.1
				c0.1,0.01,0.2,0.11,0.3,0.3c1.37,2.13,2.05,4.35,2.05,6.65c0,0.17-0.05,0.35-0.15,0.55c-0.07,0-0.15,0.05-0.25,0.15
				c-0.1,0-0.2,0-0.3,0c-0.17,0-0.3-0.05-0.4-0.15c-0.2-0.2-0.3-0.38-0.3-0.55c0-2.03-0.55-3.98-1.65-5.85l-0.15-0.1
				c-0.03-0.1-0.06-0.19-0.08-0.27c-0.01-0.04-0.02-0.09-0.02-0.13V7.08c0-0.1,0.03-0.15,0.1-0.15c0-0.04,0.02-0.08,0.05-0.13
				c0.03-0.02,0.06-0.02,0.1-0.02c0.03-0.05,0.06-0.09,0.1-0.13c0.02-0.01,0.03-0.02,0.05-0.03C45.3,6.57,45.4,6.54,45.49,6.53z"/>
			
				<linearGradient id="SVGID_3_" gradientUnits="userSpaceOnUse" x1="111.9604" y1="-176.3701" x2="124.4978" y2="-176.3701" gradientTransform="matrix(0.8515 0.5244 -0.5432 0.8399 -148.6151 97.3002)">
				<stop  offset="0" style="stop-color:#000000;stop-opacity:0"/>
				<stop  offset="0.4941" style="stop-color:#000000"/>
				<stop  offset="1" style="stop-color:#000000;stop-opacity:0"/>
			</linearGradient>
			<path fill-rule="evenodd" clip-rule="evenodd" fill="url(#SVGID_3_)" d="M45.49,6.53c-0.1,0.01-0.19,0.04-0.28,0.1
				c-0.02,0.01-0.03,0.02-0.05,0.03C45.25,6.58,45.36,6.54,45.49,6.53z M45.77,6.63c0.1,0,0.2,0.05,0.3,0.15
				c1.93,2.03,2.95,4.43,3.05,7.2c0,0.2-0.05,0.38-0.15,0.55c-0.2,0.1-0.38,0.15-0.55,0.15c-0.2,0-0.35-0.05-0.45-0.15
				c-0.07-0.1-0.15-0.18-0.25-0.25c0.1-0.1,0.18-0.15,0.25-0.15c0.1-0.2,0.15-0.38,0.15-0.55c0-2.3-0.68-4.52-2.05-6.65
				C45.97,6.74,45.87,6.64,45.77,6.63z"/>
			
				<linearGradient id="SVGID_4_" gradientUnits="userSpaceOnUse" x1="64.1724" y1="-78.8496" x2="80.1634" y2="-78.8496" gradientTransform="matrix(0.9568 0.2908 -0.2046 0.983 -52.801 68.7149)">
				<stop  offset="0" style="stop-color:#000000;stop-opacity:0"/>
				<stop  offset="0.4941" style="stop-color:#000000"/>
				<stop  offset="1" style="stop-color:#000000;stop-opacity:0"/>
			</linearGradient>
			<path fill-rule="evenodd" clip-rule="evenodd" fill="url(#SVGID_4_)" d="M36.07,15.63c0-0.17-0.05-0.3-0.15-0.4
				c-2.03-2.6-4.52-4.5-7.45-5.7l-0.15-0.1V9.28c0.1-0.2,0.23-0.33,0.4-0.4c0.1-0.2,0.28-0.25,0.55-0.15
				c0.93,0.27,1.77,0.63,2.5,1.1h-0.15c2.13,1,3.98,2.67,5.55,5c0.1,0.17,0.15,0.35,0.15,0.55c0,0.17-0.08,0.3-0.25,0.4
				c-0.2,0.1-0.4,0.15-0.6,0.15C36.3,15.93,36.17,15.83,36.07,15.63z"/>
			
				<linearGradient id="SVGID_5_" gradientUnits="userSpaceOnUse" x1="65.8726" y1="-76.7607" x2="79.1049" y2="-76.7607" gradientTransform="matrix(0.9579 0.2872 -0.208 0.9816 -53.2438 67.5323)">
				<stop  offset="0.0157" style="stop-color:#FFFFFF;stop-opacity:0"/>
				<stop  offset="0.502" style="stop-color:#FFFFFF;stop-opacity:0.4627"/>
				<stop  offset="1" style="stop-color:#FFFFFF;stop-opacity:0"/>
			</linearGradient>
			<path fill-rule="evenodd" clip-rule="evenodd" fill="url(#SVGID_5_)" d="M36.07,15.63v0.15c0,0.2-0.08,0.33-0.25,0.4
				c-0.2,0.1-0.35,0.15-0.45,0.15c-0.27,0-0.45-0.08-0.55-0.25c-1.83-2.4-4.13-4.17-6.9-5.3c-0.2-0.07-0.3-0.2-0.3-0.4
				c-0.1-0.17-0.1-0.35,0-0.55c0-0.2,0.1-0.3,0.3-0.3c0.07-0.07,0.2-0.1,0.4-0.1l0.15,0.1c2.93,1.2,5.42,3.1,7.45,5.7
				C36.02,15.33,36.07,15.47,36.07,15.63z"/>
			<linearGradient id="SVGID_6_" gradientUnits="userSpaceOnUse" x1="65.2993" y1="17.8301" x2="67.4029" y2="27.0408">
				<stop  offset="0.0157" style="stop-color:#FFFFFF;stop-opacity:0"/>
				<stop  offset="0.502" style="stop-color:#FFFFFF;stop-opacity:0.4627"/>
				<stop  offset="1" style="stop-color:#FFFFFF;stop-opacity:0"/>
			</linearGradient>
			<path fill-rule="evenodd" clip-rule="evenodd" fill="url(#SVGID_6_)" d="M68.59,24.23c-0.03,0.09-0.07,0.19-0.13,0.3
				c-0.63,0.53-1.27,1.22-1.9,2.05c-0.1,0.2-0.25,0.3-0.45,0.3c-0.17,0-0.3,0-0.4,0l-0.15-0.15c-0.17-0.1-0.25-0.23-0.25-0.4
				c0-0.2,0.03-0.38,0.1-0.55c0.67-0.83,1.32-1.53,1.95-2.1c0-0.1,0.05-0.15,0.15-0.15v-0.1c0.1-0.1,0.23-0.15,0.4-0.15h0.15
				c0.2,0,0.33,0.08,0.4,0.25c0.1,0.1,0.15,0.25,0.15,0.45v0.1C68.61,24.14,68.6,24.19,68.59,24.23z"/>
			
				<linearGradient id="SVGID_7_" gradientUnits="userSpaceOnUse" x1="36.8931" y1="-460.0059" x2="50.8344" y2="-460.0059" gradientTransform="matrix(0.2277 0.9737 -0.9775 0.2115 -392.8209 79.645)">
				<stop  offset="0" style="stop-color:#000000;stop-opacity:0"/>
				<stop  offset="0.4941" style="stop-color:#000000"/>
				<stop  offset="1" style="stop-color:#000000;stop-opacity:0"/>
			</linearGradient>
			<path fill-rule="evenodd" clip-rule="evenodd" fill="url(#SVGID_7_)" d="M68.59,24.23c-0.29,1.5-0.93,2.7-1.92,3.6
				c-0.17,0.1-0.35,0.15-0.55,0.15c-0.17,0-0.3-0.05-0.4-0.15c-0.2-0.17-0.3-0.35-0.3-0.55c0-0.17,0.1-0.3,0.3-0.4
				c0.1,0,0.23,0,0.4,0c0.2,0,0.35-0.1,0.45-0.3c0.63-0.83,1.27-1.52,1.9-2.05C68.52,24.42,68.56,24.32,68.59,24.23z"/>
			<linearGradient id="SVGID_8_" gradientUnits="userSpaceOnUse" x1="55.6899" y1="13.3496" x2="63.1565" y2="19.8094">
				<stop  offset="0" style="stop-color:#000000;stop-opacity:0"/>
				<stop  offset="0.4941" style="stop-color:#000000"/>
				<stop  offset="1" style="stop-color:#000000;stop-opacity:0"/>
			</linearGradient>
			<path fill-rule="evenodd" clip-rule="evenodd" fill="url(#SVGID_8_)" d="M59.77,13.98c0.53,1.4,0.72,3.02,0.55,4.85
				c0,0.2-0.1,0.33-0.3,0.4c-0.17,0.1-0.3,0.15-0.4,0.15c-0.27,0-0.45-0.08-0.55-0.25c-0.1-0.1-0.15-0.25-0.15-0.45
				c0.1,0,0.2-0.03,0.3-0.1c0.17-0.1,0.25-0.25,0.25-0.45C59.77,16.67,59.87,15.28,59.77,13.98z"/>
			
				<linearGradient id="SVGID_9_" gradientUnits="userSpaceOnUse" x1="48.7593" y1="-13.7627" x2="63.5577" y2="-13.7627" gradientTransform="matrix(0.9832 0.1825 -0.1985 0.9802 -44.9841 41.2457)">
				<stop  offset="0.0157" style="stop-color:#FFFFFF;stop-opacity:0"/>
				<stop  offset="0.502" style="stop-color:#FFFFFF;stop-opacity:0.4627"/>
				<stop  offset="1" style="stop-color:#FFFFFF;stop-opacity:0"/>
			</linearGradient>
			<path fill-rule="evenodd" clip-rule="evenodd" fill="url(#SVGID_9_)" d="M18.47,38.78c0,0.2,0,0.38,0,0.55
				c-0.07,0.2-0.2,0.33-0.4,0.4c-0.2,0-0.33,0-0.4,0c-3.07-1-6.03-1.55-8.9-1.65c-0.17,0-0.3-0.05-0.4-0.15
				c-0.2-0.17-0.3-0.35-0.3-0.55c0-0.17,0.1-0.3,0.3-0.4v-0.15c0.1-0.1,0.23-0.15,0.4-0.15c3.07,0.1,6.17,0.7,9.3,1.8
				C18.17,38.48,18.3,38.58,18.47,38.78z"/>
			
				<linearGradient id="SVGID_10_" gradientUnits="userSpaceOnUse" x1="7.0791" y1="-13.022" x2="19.2456" y2="-13.022" gradientTransform="matrix(0.9843 0.1767 0 1.016 -3.9084 47.1727)">
				<stop  offset="0" style="stop-color:#000000;stop-opacity:0"/>
				<stop  offset="0.4941" style="stop-color:#000000"/>
				<stop  offset="1" style="stop-color:#000000;stop-opacity:0"/>
			</linearGradient>
			<path fill-rule="evenodd" clip-rule="evenodd" fill="url(#SVGID_10_)" d="M18.47,38.78c-0.17-0.2-0.3-0.3-0.4-0.3
				c-3.13-1.1-6.23-1.7-9.3-1.8c-0.17,0-0.3,0.05-0.4,0.15c-0.1-0.1-0.15-0.23-0.15-0.4c0-0.27,0.1-0.45,0.3-0.55
				c0.1-0.1,0.28-0.15,0.55-0.15c4.07,0.27,7.12,0.92,9.15,1.95c0.17,0,0.3,0.08,0.4,0.25c0,0.2,0,0.38,0,0.55
				C18.52,38.58,18.47,38.68,18.47,38.78z"/>
			
				<linearGradient id="SVGID_11_" gradientUnits="userSpaceOnUse" x1="52.6177" y1="-29.9111" x2="68.1071" y2="-29.9111" gradientTransform="matrix(0.9829 0.184 -0.2032 0.9793 -46.0301 41.4416)">
				<stop  offset="0.0157" style="stop-color:#FFFFFF;stop-opacity:0"/>
				<stop  offset="0.502" style="stop-color:#FFFFFF;stop-opacity:0.4627"/>
				<stop  offset="1" style="stop-color:#FFFFFF;stop-opacity:0"/>
			</linearGradient>
			<path fill-rule="evenodd" clip-rule="evenodd" fill="url(#SVGID_11_)" d="M17.12,20.78c0.07,0,0.15,0,0.25,0
				c3.87,1.3,6.5,2.78,7.9,4.45c0.1,0.17,0.15,0.35,0.15,0.55v0.1c-0.1,0.1-0.2,0.2-0.3,0.3c-0.17,0.1-0.3,0.15-0.4,0.15
				c-0.27,0-0.45-0.1-0.55-0.3c-1.2-1.47-3.6-2.75-7.2-3.85c-0.3-0.1-0.45-0.2-0.45-0.3c-0.17-0.17-0.2-0.35-0.1-0.55
				c0.07-0.27,0.2-0.4,0.4-0.4C16.92,20.83,17.02,20.78,17.12,20.78z"/>
			
				<linearGradient id="SVGID_12_" gradientUnits="userSpaceOnUse" x1="53.4487" y1="-30.2393" x2="69.3652" y2="-30.2393" gradientTransform="matrix(0.9833 0.1822 -0.2038 0.9793 -46.0669 40.9822)">
				<stop  offset="0" style="stop-color:#000000;stop-opacity:0"/>
				<stop  offset="0.4941" style="stop-color:#000000"/>
				<stop  offset="1" style="stop-color:#000000;stop-opacity:0"/>
			</linearGradient>
			<path fill-rule="evenodd" clip-rule="evenodd" fill="url(#SVGID_12_)" d="M17.12,20.78c-0.1-0.1-0.15-0.2-0.15-0.3
				c-0.1-0.17-0.1-0.3,0-0.4c0-0.27,0.08-0.4,0.25-0.4c0.2-0.1,0.38-0.1,0.55,0c4.37,1.47,7.15,3.22,8.35,5.25
				c0.07,0.1,0.07,0.23,0,0.4c-0.1,0.2-0.2,0.38-0.3,0.55c-0.17,0-0.3,0-0.4,0v-0.1c0-0.2-0.05-0.38-0.15-0.55
				c-1.4-1.67-4.03-3.15-7.9-4.45C17.27,20.78,17.18,20.78,17.12,20.78z"/>
			
				<linearGradient id="SVGID_13_" gradientUnits="userSpaceOnUse" x1="10.5386" y1="64.4248" x2="24.8242" y2="64.4248" gradientTransform="matrix(0.9993 -0.0385 -0.0302 1.0019 -6.397 -9.1687)">
				<stop  offset="0.0157" style="stop-color:#FFFFFF;stop-opacity:0"/>
				<stop  offset="0.502" style="stop-color:#FFFFFF;stop-opacity:0.4627"/>
				<stop  offset="1" style="stop-color:#FFFFFF;stop-opacity:0"/>
			</linearGradient>
			<path fill-rule="evenodd" clip-rule="evenodd" fill="url(#SVGID_13_)" d="M5.32,54.58c0-0.1,0.05-0.15,0.15-0.15
				c2.87-0.83,5.82-1.07,8.85-0.7c0.1,0,0.2,0,0.3,0c0.17,0,0.3,0.1,0.4,0.3c0.1,0.17,0.15,0.35,0.15,0.55c0,0.17-0.1,0.3-0.3,0.4
				c-0.17,0.1-0.3,0.15-0.4,0.15c-2.97-0.37-5.83-0.13-8.6,0.7c-0.27,0.1-0.45,0.1-0.55,0c-0.17-0.2-0.3-0.35-0.4-0.45
				c-0.1-0.27-0.05-0.45,0.15-0.55C5.07,54.67,5.15,54.58,5.32,54.58z"/>
			
				<linearGradient id="SVGID_14_" gradientUnits="userSpaceOnUse" x1="3.9165" y1="63.2471" x2="16.1257" y2="63.2471" gradientTransform="matrix(0.9992 -0.0389 0 1.0008 -0.1878 -9.5058)">
				<stop  offset="0" style="stop-color:#000000;stop-opacity:0"/>
				<stop  offset="0.4941" style="stop-color:#000000"/>
				<stop  offset="1" style="stop-color:#000000;stop-opacity:0"/>
			</linearGradient>
			<path fill-rule="evenodd" clip-rule="evenodd" fill="url(#SVGID_14_)" d="M5.32,54.58c-0.17-0.2-0.3-0.33-0.4-0.4
				c-0.1-0.3-0.05-0.5,0.15-0.6c0.07-0.17,0.2-0.3,0.4-0.4c2.67-0.73,5.62-1,8.85-0.8c0.1,0,0.23,0.08,0.4,0.25
				c0.1,0.1,0.15,0.28,0.15,0.55c0,0.1-0.05,0.23-0.15,0.4c-0.17,0-0.3,0.05-0.4,0.15c-3.03-0.37-5.98-0.13-8.85,0.7
				C5.37,54.43,5.32,54.48,5.32,54.58z"/>
			
				<linearGradient id="SVGID_15_" gradientUnits="userSpaceOnUse" x1="6.6792" y1="22.416" x2="18.8457" y2="22.416" gradientTransform="matrix(0.9843 0.1767 0 1.016 -3.9084 47.1727)">
				<stop  offset="0" style="stop-color:#000000;stop-opacity:0"/>
				<stop  offset="0.4941" style="stop-color:#000000"/>
				<stop  offset="1" style="stop-color:#000000;stop-opacity:0"/>
			</linearGradient>
			<path fill-rule="evenodd" clip-rule="evenodd" fill="url(#SVGID_15_)" d="M7.42,73.68c-0.2-0.1-0.3-0.18-0.3-0.25
				c-0.1-0.3-0.05-0.48,0.15-0.55c0.1-0.2,0.23-0.35,0.4-0.45c3.5-0.9,6.37-1.08,8.6-0.55c0.1,0.1,0.23,0.23,0.4,0.4
				c0.1,0.1,0.1,0.3,0,0.6c-0.1,0.07-0.18,0.2-0.25,0.4c-0.2,0-0.35,0-0.45,0h-0.1C14,72.35,11.18,72.48,7.42,73.68z"/>
			
				<linearGradient id="SVGID_16_" gradientUnits="userSpaceOnUse" x1="30.0337" y1="22.6064" x2="42.6407" y2="22.6064" gradientTransform="matrix(0.9836 0.1805 -0.0793 1.0021 -20.3831 45.2544)">
				<stop  offset="0.0157" style="stop-color:#FFFFFF;stop-opacity:0"/>
				<stop  offset="0.502" style="stop-color:#FFFFFF;stop-opacity:0.4627"/>
				<stop  offset="1" style="stop-color:#FFFFFF;stop-opacity:0"/>
			</linearGradient>
			<path fill-rule="evenodd" clip-rule="evenodd" fill="url(#SVGID_16_)" d="M7.42,73.68c3.77-1.2,6.58-1.33,8.45-0.4h0.1
				c0.1,0.1,0.2,0.18,0.3,0.25c0,0.2,0,0.4,0,0.6c-0.1,0.17-0.23,0.3-0.4,0.4c-0.2,0-0.38,0-0.55,0c-1.67-0.67-4.17-0.48-7.5,0.55
				c-0.27,0.1-0.45,0.1-0.55,0c-0.2-0.1-0.33-0.23-0.4-0.4c-0.1-0.3-0.07-0.48,0.1-0.55C7.07,73.93,7.22,73.78,7.42,73.68z"/>
			
				<linearGradient id="SVGID_17_" gradientUnits="userSpaceOnUse" x1="11.8164" y1="52.6035" x2="24.1275" y2="52.6035" gradientTransform="matrix(0.991 0.134 0 1.0091 -2.2404 35.155)">
				<stop  offset="0" style="stop-color:#000000;stop-opacity:0"/>
				<stop  offset="0.4941" style="stop-color:#000000"/>
				<stop  offset="1" style="stop-color:#000000;stop-opacity:0"/>
			</linearGradient>
			<path fill-rule="evenodd" clip-rule="evenodd" fill="url(#SVGID_17_)" d="M20.82,90.03l-0.1-0.15c-0.2-0.07-0.38-0.1-0.55-0.1
				c-2.13,0.43-4.5,1.3-7.1,2.6c-0.17,0-0.25,0.15-0.25,0.45h-0.15c-0.2-0.1-0.3-0.25-0.3-0.45c-0.07-0.17-0.07-0.35,0-0.55
				c0-0.17,0.1-0.25,0.3-0.25c0.47-0.3,1.12-0.58,1.95-0.85c1-0.63,2.88-1.28,5.65-1.95c0.2-0.1,0.38-0.05,0.55,0.15
				c0.1,0.1,0.2,0.23,0.3,0.4c0.1,0.2,0.1,0.38,0,0.55C21.02,89.88,20.92,89.93,20.82,90.03z"/>
			
				<linearGradient id="SVGID_18_" gradientUnits="userSpaceOnUse" x1="12.8164" y1="53.499" x2="25.1275" y2="53.499" gradientTransform="matrix(0.991 0.134 0 1.0091 -2.2404 35.155)">
				<stop  offset="0.0157" style="stop-color:#FFFFFF;stop-opacity:0"/>
				<stop  offset="0.502" style="stop-color:#FFFFFF;stop-opacity:0.4627"/>
				<stop  offset="1" style="stop-color:#FFFFFF;stop-opacity:0"/>
			</linearGradient>
			<path fill-rule="evenodd" clip-rule="evenodd" fill="url(#SVGID_18_)" d="M20.82,90.03c0.1,0.1,0.15,0.2,0.15,0.3
				c0,0.17-0.05,0.35-0.15,0.55c-0.07,0.07-0.2,0.15-0.4,0.25c-2.13,0.47-4.4,1.3-6.8,2.5c-0.17,0-0.3,0-0.4,0
				c-0.27-0.1-0.4-0.23-0.4-0.4c-0.1-0.2-0.1-0.33,0-0.4c0-0.3,0.08-0.45,0.25-0.45c2.6-1.3,4.97-2.17,7.1-2.6
				c0.17,0,0.35,0.03,0.55,0.1L20.82,90.03z"/>
			
				<linearGradient id="SVGID_19_" gradientUnits="userSpaceOnUse" x1="40.2417" y1="224.5469" x2="55.4349" y2="224.5469" gradientTransform="matrix(0.747 -0.6648 0 1.3386 -62.8171 -95.4455)">
				<stop  offset="0" style="stop-color:#000000;stop-opacity:0"/>
				<stop  offset="0.4941" style="stop-color:#000000"/>
				<stop  offset="1" style="stop-color:#000000;stop-opacity:0"/>
			</linearGradient>
			<path fill-rule="evenodd" clip-rule="evenodd" fill="url(#SVGID_19_)" d="M44.82,107.48l-0.15,0.15
				c-0.47,2.03-1.58,4.48-3.35,7.35c-0.07,0.1-0.1,0.23-0.1,0.4l0.1,0.15h-0.1c-0.1,0.17-0.25,0.25-0.45,0.25
				c-0.17,0-0.35-0.03-0.55-0.1c-0.17-0.1-0.25-0.25-0.25-0.45c0-0.17,0.03-0.35,0.1-0.55c1.67-2.1,2.78-4.45,3.35-7.05
				c0.1-0.2,0.23-0.33,0.4-0.4c0.1-0.1,0.25-0.15,0.45-0.15c0.17,0.1,0.3,0.23,0.4,0.4H44.82z"/>
			
				<linearGradient id="SVGID_20_" gradientUnits="userSpaceOnUse" x1="42.0415" y1="225.3994" x2="57.2347" y2="225.3994" gradientTransform="matrix(0.747 -0.6648 0 1.3386 -62.8171 -95.4455)">
				<stop  offset="0.0157" style="stop-color:#FFFFFF;stop-opacity:0"/>
				<stop  offset="0.502" style="stop-color:#FFFFFF;stop-opacity:0.4627"/>
				<stop  offset="1" style="stop-color:#FFFFFF;stop-opacity:0"/>
			</linearGradient>
			<path fill-rule="evenodd" clip-rule="evenodd" fill="url(#SVGID_20_)" d="M44.82,107.48c0-0.1,0.08-0.18,0.25-0.25
				c0.1-0.1,0.25-0.15,0.45-0.15c0.17,0.1,0.3,0.23,0.4,0.4c0.1,0.1,0.15,0.23,0.15,0.4c-0.47,2.23-1.67,4.83-3.6,7.8
				c-0.1,0.07-0.25,0.15-0.45,0.25c-0.17,0-0.3-0.05-0.4-0.15c-0.2-0.07-0.3-0.15-0.3-0.25l-0.1-0.15c0-0.17,0.03-0.3,0.1-0.4
				c1.77-2.87,2.88-5.32,3.35-7.35L44.82,107.48z"/>
			
				<linearGradient id="SVGID_21_" gradientUnits="userSpaceOnUse" x1="24.4541" y1="156.6055" x2="36.3449" y2="156.6055" gradientTransform="matrix(0.9776 -0.2102 0 1.0229 -5.5504 -47.5093)">
				<stop  offset="0" style="stop-color:#000000;stop-opacity:0"/>
				<stop  offset="0.4941" style="stop-color:#000000"/>
				<stop  offset="1" style="stop-color:#000000;stop-opacity:0"/>
			</linearGradient>
			<path fill-rule="evenodd" clip-rule="evenodd" fill="url(#SVGID_21_)" d="M31.22,103.18c-0.17,0.1-0.3,0.2-0.4,0.3
				c-1.1,1.3-3.37,3-6.8,5.1c-0.17,0.1-0.3,0.25-0.4,0.45v0.1c-0.1,0-0.2,0-0.3,0c-0.27-0.07-0.4-0.2-0.4-0.4
				c-0.1-0.17-0.1-0.3,0-0.4c0-0.3,0.08-0.45,0.25-0.45c3.23-1.57,5.5-3.32,6.8-5.25c0.1-0.17,0.25-0.3,0.45-0.4
				c0.17-0.1,0.35-0.05,0.55,0.15c0.07,0.07,0.15,0.2,0.25,0.4C31.22,102.98,31.22,103.12,31.22,103.18z"/>
			
				<linearGradient id="SVGID_22_" gradientUnits="userSpaceOnUse" x1="25.5542" y1="157.6338" x2="37.445" y2="157.6338" gradientTransform="matrix(0.9776 -0.2102 0 1.0229 -5.5504 -47.5093)">
				<stop  offset="0.0157" style="stop-color:#FFFFFF;stop-opacity:0"/>
				<stop  offset="0.502" style="stop-color:#FFFFFF;stop-opacity:0.4627"/>
				<stop  offset="1" style="stop-color:#FFFFFF;stop-opacity:0"/>
			</linearGradient>
			<path fill-rule="evenodd" clip-rule="evenodd" fill="url(#SVGID_22_)" d="M31.22,103.18h0.15c0.1,0,0.23,0.05,0.4,0.15
				c0.2,0.1,0.3,0.28,0.3,0.55c0,0.1-0.05,0.23-0.15,0.4c-1.1,1.5-3.5,3.35-7.2,5.55c-0.2,0.1-0.38,0.1-0.55,0
				c-0.2-0.07-0.33-0.15-0.4-0.25c-0.1-0.2-0.15-0.35-0.15-0.45v-0.1c0.1-0.2,0.23-0.35,0.4-0.45c3.43-2.1,5.7-3.8,6.8-5.1
				C30.92,103.38,31.05,103.28,31.22,103.18z"/>
		</g>
	</g>
</g>
<g id="Layer_2">
</g>
</svg>
