<?xml version="1.0" encoding="utf-8"?>
<!-- Generator: Adobe Illustrator 16.0.0, SVG Export Plug-In . SVG Version: 6.00 Build 0)  -->
<!DOCTYPE svg PUBLIC "-//W3C//DTD SVG 1.1//EN" "http://www.w3.org/Graphics/SVG/1.1/DTD/svg11.dtd">
<svg version="1.1" id="Layer_2" xmlns="http://www.w3.org/2000/svg" xmlns:xlink="http://www.w3.org/1999/xlink" x="0px" y="0px"
	 width="20.75px" height="24.25px" viewBox="0 0 20.75 24.25" enable-background="new 0 0 20.75 24.25" xml:space="preserve">
<g>
	<g>
		<path fill-rule="evenodd" clip-rule="evenodd" fill="#FFFFFF" d="M4.32,4.24C5.64,2.96,7.2,2.32,9,2.32c1.8,0,3.34,0.64,4.62,1.92
			c1.32,1.32,1.98,2.9,1.97,4.73c0,1.78-0.66,3.3-1.97,4.55v0.02c-1.29,1.31-2.83,1.97-4.62,1.98c-1.8,0-3.36-0.66-4.67-1.98
			C3.04,12.29,2.4,10.76,2.4,8.97C2.39,7.14,3.04,5.56,4.32,4.24z"/>
		<path fill-rule="evenodd" clip-rule="evenodd" d="M0.9,8.97c0-2.24,0.79-4.16,2.38-5.77C4.89,1.61,6.8,0.82,9,0.82
			c2.2,0,4.1,0.79,5.68,2.38c1.62,1.61,2.42,3.54,2.42,5.77c0,2.22-0.8,4.1-2.42,5.65v-0.03c-1.58,1.62-3.47,2.43-5.68,2.43
			c-2.2,0-4.11-0.81-5.73-2.43C1.69,13.05,0.9,11.18,0.9,8.97z M4.32,4.24C3.04,5.56,2.39,7.14,2.4,8.97c0,1.79,0.64,3.32,1.93,4.58
			C5.64,14.86,7.2,15.52,9,15.52c1.79,0,3.34-0.66,4.62-1.98v-0.02c1.31-1.25,1.97-2.77,1.97-4.55c0-1.83-0.66-3.4-1.97-4.73
			C12.33,2.96,10.79,2.32,9,2.32C7.2,2.32,5.64,2.96,4.32,4.24z"/>
	</g>
	<g>
		<path fill-rule="evenodd" clip-rule="evenodd" d="M14.1,14.27c0.43,0.07,0.77,0.3,1,0.7l4.4,6.15c0.3,0.33,0.4,0.72,0.3,1.15
			c-0.07,0.4-0.27,0.75-0.6,1.05c-0.37,0.23-0.75,0.32-1.15,0.25c-0.43-0.07-0.78-0.28-1.05-0.65l-4.4-6.1
			c-0.23-0.4-0.32-0.8-0.25-1.2c0.07-0.43,0.27-0.77,0.6-1C13.31,14.32,13.7,14.2,14.1,14.27z"/>
	</g>
	<g>
		<rect x="4.95" y="8.07" fill-rule="evenodd" clip-rule="evenodd" width="8.7" height="2.2"/>
	</g>
</g>
</svg>
