<?xml version="1.0" encoding="utf-8"?>
<!-- Generator: Adobe Illustrator 16.0.0, SVG Export Plug-In . SVG Version: 6.00 Build 0)  -->
<!DOCTYPE svg PUBLIC "-//W3C//DTD SVG 1.1//EN" "http://www.w3.org/Graphics/SVG/1.1/DTD/svg11.dtd">
<svg version="1.1" xmlns="http://www.w3.org/2000/svg" xmlns:xlink="http://www.w3.org/1999/xlink" x="0px" y="0px"
	 width="898.45px" height="854.75px" viewBox="0 0 898.45 854.75" enable-background="new 0 0 898.45 854.75" xml:space="preserve">
<g id="Layer_2">
	<g>
		<g>
			
				<radialGradient id="SVGID_1_" cx="50.4873" cy="-133.2998" r="433.1" gradientTransform="matrix(1.3823 0 0 1.3823 510.1283 436.3898)" gradientUnits="userSpaceOnUse">
				<stop  offset="0" style="stop-color:#6A658E"/>
				<stop  offset="1" style="stop-color:#3F3D54"/>
			</radialGradient>
			<rect x="-18.63" y="-1.74" fill-rule="evenodd" clip-rule="evenodd" fill="url(#SVGID_1_)" width="944.27" height="552.03"/>
		</g>
		<g>
			
				<linearGradient id="SVGID_2_" gradientUnits="userSpaceOnUse" x1="-40.9888" y1="-31.2725" x2="-40.9369" y2="-203.3725" gradientTransform="matrix(1.3823 0 0 1.3823 510.1283 436.3898)">
				<stop  offset="0" style="stop-color:#121218"/>
				<stop  offset="1" style="stop-color:#000000;stop-opacity:0"/>
			</linearGradient>
			<rect x="-18.63" y="-1.74" fill-rule="evenodd" clip-rule="evenodd" fill="url(#SVGID_2_)" width="944.27" height="552.03"/>
		</g>
		<g>
			
				<linearGradient id="SVGID_3_" gradientUnits="userSpaceOnUse" x1="-40.9629" y1="-34.5249" x2="-40.9629" y2="276.6251" gradientTransform="matrix(1.3823 0 0 1.3823 510.1283 436.3898)">
				<stop  offset="0" style="stop-color:#874E1F"/>
				<stop  offset="1" style="stop-color:#9C5D26"/>
			</linearGradient>
			<path fill-rule="evenodd" clip-rule="evenodd" fill="url(#SVGID_3_)" d="M652.98,316.47c9.12,0,18.27,0,27.44,0
				c0.83,0,1.66,0,2.49,0c2.53,0,5.04,0,7.53,0c0.83,0,1.66,0,2.49,0c11.66,0,23.32,0,34.97,0c0.83,0,1.66,0,2.49,0
				c37.46,0,74.92,0,112.38,0c0.83,0,1.66,0,2.49,0c7.51,0,15.02,0,22.53,0c0.83,0,1.66,0,2.49,0c4.15,0,8.29,0,12.44,0
				c0.88,0,1.73,0,2.56,0c13.46,0,26.91,0,40.36,0v540.49c-17.6,0-35.23,0-52.87,0c-0.83,0-1.66,0-2.49,0
				c-5.85-0.05-11.68-0.05-17.49,0c-0.83,0-1.66,0-2.49,0c-99.11,0-198.2,0-297.27,0c-0.83,0-1.66,0-2.49,0c-17.51,0-35,0-52.46,0
				c-0.83,0-1.66,0-2.49,0c-6.68,0-13.34,0-19.98,0c-0.83,0-1.68,0-2.56,0c-1.66,0-3.32,0-4.98,0c-0.83,0-1.66,0-2.49,0
				c-2.49,0-4.98,0-7.46,0c-0.83,0-1.66,0-2.49,0c-44.14,0-88.28,0-132.43,0c-0.83,0-1.66,0-2.49,0c-2.49,0-4.98,0-7.46,0
				c-0.88,0-1.73,0-2.56,0c-14.98,0-29.95,0-44.93,0c-0.83,0-1.66,0-2.49,0c-93.95,0-187.93,0-281.92,0V316.47
				c29.86,0,59.72,0,89.57,0c0.83,0,1.66,0,2.49,0c168.23,0,336.41,0,504.55,0c8.34,0,16.68,0,25.02,0c9.17,0,18.32,0,27.44,0
				c0.83,0,1.66,0,2.49,0c5.85,0,11.68,0,17.49,0C651.29,316.47,652.15,316.47,652.98,316.47z"/>
		</g>
		<g>
			
				<linearGradient id="SVGID_4_" gradientUnits="userSpaceOnUse" x1="-94.0596" y1="-325.6763" x2="-27.1298" y2="239.2262" gradientTransform="matrix(1.3823 0 0 1.3823 510.1283 436.3898)">
				<stop  offset="0" style="stop-color:#010101"/>
				<stop  offset="1" style="stop-color:#000000;stop-opacity:0"/>
			</linearGradient>
			<rect x="-18.63" y="316.54" fill-rule="evenodd" clip-rule="evenodd" fill="url(#SVGID_4_)" width="942.26" height="561.36"/>
		</g>
	</g>
</g>
<g id="Layer_3">
	<g>
		
			<linearGradient id="SVGID_5_" gradientUnits="userSpaceOnUse" x1="102.373" y1="86.2368" x2="212.7448" y2="86.2368" gradientTransform="matrix(1.378 -0.1088 0.1983 1.371 509.7994 439.3944)">
			<stop  offset="0" style="stop-color:#000000"/>
			<stop  offset="1" style="stop-color:#000000;stop-opacity:0"/>
		</linearGradient>
		<path fill-rule="evenodd" clip-rule="evenodd" fill="url(#SVGID_5_)" d="M642.06,354.74l90.06-8.36
			c15.07,2.21,25.76,10.44,32.07,24.67l80.24,327.48l-81.21,61.31l-74.28,27.58c-205.56,25.83-361.73,21.25-537.43,1.39l0.13,0.18
			l-18.81-445.52l498.44,18.73L642.06,354.74z"/>
		
			<path fill-rule="evenodd" clip-rule="evenodd" fill="none" stroke="#000000" stroke-width="5.9" stroke-linecap="round" stroke-linejoin="round" stroke-miterlimit="3" d="
			M132.18,336.17c-5.21,0-13.62-0.44-25.23-1.31c-11.61-0.92-18.55-1.38-20.8-1.38c-21.61,0-41.1,3.32-58.47,9.95
			c-10.46,4.01-24.1,11.31-40.92,21.91c-7.1,4.42-13.57,8.27-19.42,11.54"/>
	</g>
</g>
<g id="Layer_4">
	<g>
		<g>
			<path fill-rule="evenodd" clip-rule="evenodd" d="M97.28,267.09c1.7-0.37,3.34-0.16,4.91,0.62c1.57,0.78,2.58,1.91,3.04,3.39
				c0.46,1.47,0.25,2.88-0.62,4.22c-0.92,1.38-2.26,2.28-4.01,2.7c-17.88,4.05-37.14,4.58-57.78,1.59
				c-29.17,0.05-52.92,24.08-71.26,72.09c-0.55,1.48-1.64,2.56-3.25,3.25c-1.61,0.69-3.29,0.81-5.05,0.35
				c-1.71-0.51-2.97-1.45-3.8-2.83c-0.78-1.38-0.9-2.81-0.35-4.28c20.92-54.83,49.07-81.42,84.46-79.76c0.28,0,0.58,0.02,0.9,0.07
				C63.32,271.23,80.92,270.77,97.28,267.09z"/>
		</g>
		<g>
			<path fill-rule="evenodd" clip-rule="evenodd" fill="none" d="M98.94,272.55c-17.19,3.87-35.71,4.35-55.57,1.45
				c-24.88-0.69-46.03,14.12-63.45,44.44"/>
		</g>
	</g>
	<g>
		
			<linearGradient id="SVGID_6_" gradientUnits="userSpaceOnUse" x1="-122.1284" y1="314.6274" x2="-94.0257" y2="314.6274" gradientTransform="matrix(0.1181 1.3773 -1.3798 0.0883 547.8569 401.5818)">
			<stop  offset="0" style="stop-color:#2F2F2F"/>
			<stop  offset="0.1098" style="stop-color:#171513"/>
			<stop  offset="0.3216" style="stop-color:#171513"/>
		</linearGradient>
		<path fill-rule="evenodd" clip-rule="evenodd" fill="url(#SVGID_6_)" d="M78.34,261.56l0.28,4.77h4.01l0.28-3.66
			c0-0.32,0-0.6,0-0.83c0.09-0.09,0.14-0.18,0.14-0.28c0-0.05,0-0.11,0-0.21V261l8.36-0.62v0.14l0.28,5.18h3.94l0.48-4.01
			c0-0.32,0-0.6,0-0.83c0-0.09,0-0.18,0-0.28v-0.55l7.05-0.55l0.28,5.74v0.14h4.01l0.42-4.49c0-0.32,0-0.6,0-0.83
			c0-0.09,0-0.18,0-0.28c0-0.18,0.05-0.35,0.14-0.48v-0.14l7.53-0.62l0.42,6.08v0.14h3.94l0.48-4.84c0-0.32,0-0.62,0-0.9
			c0-0.05,0-0.12,0-0.21c0-0.18,0.05-0.3,0.14-0.35v-0.28l8.23-0.62v11.13l-58.2,3.59v-8.71v-1.59l6.98-0.48l0.83-0.14V261.56z
			 M82.01,262.66l-0.28,2.97h-2.42l-0.14-2.7L82.01,262.66z M92.37,261.97l2.97-0.28l-0.28,3.18h-2.7l-0.14-2.9H92.37z
			 M104.33,264.74v-3.66h0.14l2.56-0.21l-0.14,3.87H104.33z M116.49,260.11l2.97-0.21l-0.14,4.22h-2.56l-0.41-4.01H116.49z"/>
		<path fill-rule="evenodd" clip-rule="evenodd" fill="#989494" d="M116.77,264.12h-0.14l-0.69,0.48l-0.42-6.08l0.83-0.07l0.14,1.66
			h-0.14L116.77,264.12z M104.47,261.07h-0.14v3.66l-0.9,0.48l-0.28-5.74h1.17L104.47,261.07z M92.37,264.88v0.14l-0.69,0.69
			l-0.28-5.18h0.83l0.14,1.45h-0.14L92.37,264.88z M79.31,265.64h-0.14l-0.55,0.69l-0.28-4.77h0.83v1.38L79.31,265.64z"/>
		<path fill-rule="evenodd" clip-rule="evenodd" d="M115.94,264.6l0.69-0.48h0.14h2.56l0.14-4.22h0.9l-0.48,4.84h-3.94V264.6z
			 M107.03,260.87h0.83l-0.42,4.49h-4.01v-0.14l0.9-0.48h2.56L107.03,260.87z M95.34,261.7h0.76l-0.48,4.01h-3.94l0.69-0.69v-0.14
			h2.7L95.34,261.7z M82.01,262.66h0.9l-0.28,3.66h-4.01l0.55-0.69h0.14h2.42L82.01,262.66z M82.9,289l-0.9-0.14l-0.28-2.9h-2.42
			h-0.14l-0.55-0.62l4.01-0.14L82.9,289z M96.1,289.83h-0.76l-0.28-3.32h-2.7l-0.69-0.83h3.94L96.1,289.83z M107.85,290.59h-0.83
			l-0.14-4.08l-2.56,0.14l-0.9-0.48v-0.14h4.01L107.85,290.59z M119.47,291.42l-0.14-4.29h-2.7l-0.69-0.48v-0.14h3.94l0.48,4.91
			H119.47z"/>
		<polygon fill-rule="evenodd" clip-rule="evenodd" fill="#171513" points="128.73,268.68 128.73,284.23 70.53,282.16 70.53,276.07 
			70.53,272.27 		"/>
		
			<linearGradient id="SVGID_7_" gradientUnits="userSpaceOnUse" x1="-73.9893" y1="331.5098" x2="-67.6821" y2="331.5098" gradientTransform="matrix(-0.0658 1.3808 -1.3814 -0.0513 552.8947 401.8001)">
			<stop  offset="0.4275" style="stop-color:#171513"/>
			<stop  offset="0.6941" style="stop-color:#000000"/>
			<stop  offset="1" style="stop-color:#000000"/>
		</linearGradient>
		<path fill-rule="evenodd" clip-rule="evenodd" fill="url(#SVGID_7_)" d="M128.73,284.23l-0.14,5.25v3.52l-8.23-0.62v-0.14
			c0-0.23,0-0.51,0-0.83l-0.48-4.91h-3.94v0.14l-0.28,4.42v1.04l-7.81-0.48v-1.04l-0.42-4.56h-4.01v0.14l-0.28,4.15v0.97l-7.05-0.48
			v-0.97l-0.48-4.15h-3.94l-0.14,3.8l-0.14,1.11l-8.5-0.62V289l-0.28-3.8l-4.01,0.14l-0.28,3.25v1.11l-7.81-0.62v-0.97v-5.94
			L128.73,284.23z M95.34,289.83l-3.11-0.28l0.14-3.04h2.7L95.34,289.83z M82.01,288.86l-2.83-0.14l0.14-2.76h2.42L82.01,288.86z
			 M104.33,286.65l2.56-0.14l0.14,4.08l-2.7-0.28V286.65z M119.47,291.42l-3.11-0.28l0.41-3.87l-0.14-0.14h2.7L119.47,291.42z"/>
		<path fill-rule="evenodd" clip-rule="evenodd" fill="#38322E" d="M79.17,288.72l-0.83-0.14l0.28-3.25l0.55,0.62h0.14L79.17,288.72
			z M92.23,289.55l-0.69-0.07l0.14-3.8l0.69,0.83L92.23,289.55z M103.43,286.16l0.9,0.48v3.66h-1.17L103.43,286.16z M116.36,291.14
			l-0.69-0.07l0.28-4.42l0.69,0.48l0.14,0.14L116.36,291.14z"/>
		<path fill-rule="evenodd" clip-rule="evenodd" fill="#181715" d="M133.08,257.2c1.24,6.4,1.87,12.69,1.87,18.87
			c-0.09,4.56-0.53,9.03-1.31,13.41h-5.05l0.14-5.25v-15.55v-11.13v-0.35H133.08z"/>
		<path fill-rule="evenodd" clip-rule="evenodd" fill="#222120" d="M128.73,257.2v-5.46c0.46-2.21,2.49-3.48,6.08-3.8l41.4,0.14
			v10.37l-26.54-0.76l-16.59-0.48H128.73z"/>
		
			<linearGradient id="SVGID_8_" gradientUnits="userSpaceOnUse" x1="288.7939" y1="129.2744" x2="329.4763" y2="129.2744" gradientTransform="matrix(-1.382 0.0316 -0.0316 -1.382 585.9072 441.7448)">
			<stop  offset="0" style="stop-color:#222222"/>
			<stop  offset="1" style="stop-color:#121110"/>
		</linearGradient>
		<path fill-rule="evenodd" clip-rule="evenodd" fill="url(#SVGID_8_)" d="M176.21,258.45v29.79l-42.58,1.24
			c0.78-4.38,1.22-8.85,1.31-13.41c0-6.17-0.62-12.46-1.87-18.87l16.59,0.48L176.21,258.45z"/>
		
			<linearGradient id="SVGID_9_" gradientUnits="userSpaceOnUse" x1="131.2373" y1="-283.9521" x2="135.0623" y2="-283.9521" gradientTransform="matrix(3.613920e-004 -1.3823 1.3823 -1.382324e-003 544.8661 477.3618)">
			<stop  offset="0" style="stop-color:#040000"/>
			<stop  offset="1" style="stop-color:#191816"/>
		</linearGradient>
		<path fill-rule="evenodd" clip-rule="evenodd" fill="url(#SVGID_9_)" d="M128.59,289.48h5.05l42.58-1.24v9.47h-41.26
			c-3.5-0.32-5.62-1.89-6.36-4.7V289.48z"/>
	</g>
	<g>
		
			<linearGradient id="SVGID_10_" gradientUnits="userSpaceOnUse" x1="67.6899" y1="-64.2769" x2="140.2403" y2="-78.4499" gradientTransform="matrix(1.3823 0 0 1.3823 510.1283 436.3898)">
			<stop  offset="0" style="stop-color:#D9D9D9"/>
			<stop  offset="0.098" style="stop-color:#D9D9D9"/>
			<stop  offset="0.1686" style="stop-color:#D9D9D9"/>
			<stop  offset="0.9098" style="stop-color:#CFCDCE"/>
			<stop  offset="1" style="stop-color:#675C61"/>
		</linearGradient>
		<path fill-rule="evenodd" clip-rule="evenodd" fill="url(#SVGID_10_)" d="M631.62,443.96l-32.97-213.22l25.09-2.49
			c7.7-0.65,18.82-2.17,33.38-4.56c13.68-2.35,21.98,0.76,24.88,9.33l3.52,18.11l19.15,98.15l17.97,92.13
			c-15.48,4.56-32.32,6.84-50.52,6.84C658.02,448.24,644.52,446.81,631.62,443.96z"/>
		
			<linearGradient id="SVGID_11_" gradientUnits="userSpaceOnUse" x1="67.6899" y1="-64.2769" x2="140.2403" y2="-78.4499" gradientTransform="matrix(1.3823 0 0 1.3823 510.1283 436.3898)">
			<stop  offset="0" style="stop-color:#D9D9D9"/>
			<stop  offset="0.098" style="stop-color:#D9D9D9"/>
			<stop  offset="0.1686" style="stop-color:#D9D9D9"/>
			<stop  offset="0.9098" style="stop-color:#CFCDCE"/>
			<stop  offset="1" style="stop-color:#675C61"/>
		</linearGradient>
		<path fill-rule="evenodd" clip-rule="evenodd" fill="url(#SVGID_11_)" d="M631.62,443.96l-32.97-213.22l25.09-2.49
			c7.7-0.65,18.82-2.17,33.38-4.56c13.68-2.35,21.98,0.76,24.88,9.33l3.52,18.11l19.15,98.15l17.97,92.13
			c-15.48,4.56-32.32,6.84-50.52,6.84C658.02,448.24,644.52,446.81,631.62,443.96z"/>
		
			<linearGradient id="SVGID_12_" gradientUnits="userSpaceOnUse" x1="67.6899" y1="-64.2769" x2="140.2403" y2="-78.4499" gradientTransform="matrix(1.3823 0 0 1.3823 510.1283 436.3898)">
			<stop  offset="0" style="stop-color:#D9D9D9"/>
			<stop  offset="0.098" style="stop-color:#D9D9D9"/>
			<stop  offset="0.1686" style="stop-color:#D9D9D9"/>
			<stop  offset="0.9098" style="stop-color:#CFCDCE"/>
			<stop  offset="1" style="stop-color:#675C61"/>
		</linearGradient>
		<path fill-rule="evenodd" clip-rule="evenodd" fill="url(#SVGID_12_)" d="M631.62,443.96l-32.97-213.22l25.09-2.49
			c7.7-0.65,18.82-2.17,33.38-4.56c13.68-2.35,21.98,0.76,24.88,9.33l3.52,18.11l19.15,98.15l17.97,92.13
			c-15.48,4.56-32.32,6.84-50.52,6.84C658.02,448.24,644.52,446.81,631.62,443.96z"/>
		
			<linearGradient id="SVGID_13_" gradientUnits="userSpaceOnUse" x1="67.6899" y1="-64.2769" x2="140.2403" y2="-78.4499" gradientTransform="matrix(1.3823 0 0 1.3823 510.1283 436.3898)">
			<stop  offset="0" style="stop-color:#D9D9D9"/>
			<stop  offset="0.098" style="stop-color:#D9D9D9"/>
			<stop  offset="0.1686" style="stop-color:#D9D9D9"/>
			<stop  offset="0.9098" style="stop-color:#CFCDCE"/>
			<stop  offset="1" style="stop-color:#675C61"/>
		</linearGradient>
		<path fill-rule="evenodd" clip-rule="evenodd" fill="url(#SVGID_13_)" d="M631.62,443.96l-32.97-213.22l25.09-2.49
			c7.7-0.65,18.82-2.17,33.38-4.56c13.68-2.35,21.98,0.76,24.88,9.33l3.52,18.11l19.15,98.15l17.97,92.13
			c-15.48,4.56-32.32,6.84-50.52,6.84C658.02,448.24,644.52,446.81,631.62,443.96z"/>
		
			<linearGradient id="SVGID_14_" gradientUnits="userSpaceOnUse" x1="-55.2363" y1="-79.9087" x2="39.2136" y2="-85.659" gradientTransform="matrix(1.3823 0 0 1.3823 510.1283 436.3898)">
			<stop  offset="0" style="stop-color:#C7C7C7"/>
			<stop  offset="0.4902" style="stop-color:#C7C7C7"/>
			<stop  offset="0.5255" style="stop-color:#D9D9D9"/>
			<stop  offset="0.5529" style="stop-color:#A19797"/>
			<stop  offset="0.6627" style="stop-color:#B8B4B5"/>
			<stop  offset="0.8314" style="stop-color:#D8D8D8"/>
			<stop  offset="1" style="stop-color:#D9D9D9"/>
		</linearGradient>
		<path fill-rule="evenodd" clip-rule="evenodd" fill="url(#SVGID_14_)" d="M449.84,325.08l-3.11-130.01h50.59l0.41-0.35
			c9.17,9.17,19.15,16.68,29.93,22.53l0.35,0.14c7.28,3.82,14.84,6.84,22.67,9.05c11.15,3.18,22.85,4.77,35.11,4.77
			c0.32,0,0.62,0,0.9,0s0.58,0,0.9,0c3.82-0.05,7.51-0.23,11.06-0.55v0.07l32.97,213.22c-24.47-5.48-46.82-16.13-67.04-31.93
			c-6.13-4.79-12.05-10.04-17.76-15.76c-1.66-1.66-3.25-3.32-4.77-4.98c-0.92-0.97-1.82-1.94-2.7-2.9
			c-12.72-14.84-21.86-27.88-27.44-39.12c-2.4-4.75-4.12-9.19-5.18-13.34c-0.28-0.6-0.53-1.2-0.76-1.8
			c-0.05-0.18-0.12-0.37-0.21-0.55c-0.23-0.41-0.44-0.78-0.62-1.11c-1.52-2.35-3.32-4.15-5.39-5.39c-1.89-1.11-3.99-1.77-6.29-2
			H449.84z"/>
		
			<linearGradient id="SVGID_15_" gradientUnits="userSpaceOnUse" x1="-55.2363" y1="-79.9087" x2="39.2136" y2="-85.659" gradientTransform="matrix(1.3823 0 0 1.3823 510.1283 436.3898)">
			<stop  offset="0" style="stop-color:#C7C7C7"/>
			<stop  offset="0.4902" style="stop-color:#C7C7C7"/>
			<stop  offset="0.5255" style="stop-color:#D9D9D9"/>
			<stop  offset="0.5529" style="stop-color:#A19797"/>
			<stop  offset="0.6627" style="stop-color:#B8B4B5"/>
			<stop  offset="0.8314" style="stop-color:#D8D8D8"/>
			<stop  offset="1" style="stop-color:#D9D9D9"/>
		</linearGradient>
		<path fill-rule="evenodd" clip-rule="evenodd" fill="url(#SVGID_15_)" d="M449.84,325.08l-3.11-130.01h50.59l0.41-0.35
			c9.17,9.17,19.15,16.68,29.93,22.53l0.35,0.14c7.28,3.82,14.84,6.84,22.67,9.05c11.15,3.18,22.85,4.77,35.11,4.77
			c0.32,0,0.62,0,0.9,0s0.58,0,0.9,0c3.82-0.05,7.51-0.23,11.06-0.55v0.07l32.97,213.22c-24.47-5.48-46.82-16.13-67.04-31.93
			c-6.13-4.79-12.05-10.04-17.76-15.76c-1.66-1.66-3.25-3.32-4.77-4.98c-0.92-0.97-1.82-1.94-2.7-2.9
			c-12.72-14.84-21.86-27.88-27.44-39.12c-2.4-4.75-4.12-9.19-5.18-13.34c-0.28-0.6-0.53-1.2-0.76-1.8
			c-0.05-0.18-0.12-0.37-0.21-0.55c-0.23-0.41-0.44-0.78-0.62-1.11c-1.52-2.35-3.32-4.15-5.39-5.39c-1.89-1.11-3.99-1.77-6.29-2
			H449.84z"/>
		
			<linearGradient id="SVGID_16_" gradientUnits="userSpaceOnUse" x1="-55.2363" y1="-79.9087" x2="39.2136" y2="-85.659" gradientTransform="matrix(1.3823 0 0 1.3823 510.1283 436.3898)">
			<stop  offset="0" style="stop-color:#C7C7C7"/>
			<stop  offset="0.4902" style="stop-color:#C7C7C7"/>
			<stop  offset="0.5255" style="stop-color:#D9D9D9"/>
			<stop  offset="0.5529" style="stop-color:#A19797"/>
			<stop  offset="0.6627" style="stop-color:#B8B4B5"/>
			<stop  offset="0.8314" style="stop-color:#D8D8D8"/>
			<stop  offset="1" style="stop-color:#D9D9D9"/>
		</linearGradient>
		<path fill-rule="evenodd" clip-rule="evenodd" fill="url(#SVGID_16_)" d="M449.84,325.08l-3.11-130.01h50.59l0.41-0.35
			c9.17,9.17,19.15,16.68,29.93,22.53l0.35,0.14c7.28,3.82,14.84,6.84,22.67,9.05c11.15,3.18,22.85,4.77,35.11,4.77
			c0.32,0,0.62,0,0.9,0s0.58,0,0.9,0c3.82-0.05,7.51-0.23,11.06-0.55v0.07l32.97,213.22c-24.47-5.48-46.82-16.13-67.04-31.93
			c-6.13-4.79-12.05-10.04-17.76-15.76c-1.66-1.66-3.25-3.32-4.77-4.98c-0.92-0.97-1.82-1.94-2.7-2.9
			c-12.72-14.84-21.86-27.88-27.44-39.12c-2.4-4.75-4.12-9.19-5.18-13.34c-0.28-0.6-0.53-1.2-0.76-1.8
			c-0.05-0.18-0.12-0.37-0.21-0.55c-0.23-0.41-0.44-0.78-0.62-1.11c-1.52-2.35-3.32-4.15-5.39-5.39c-1.89-1.11-3.99-1.77-6.29-2
			H449.84z"/>
		
			<linearGradient id="SVGID_17_" gradientUnits="userSpaceOnUse" x1="-55.2363" y1="-79.9087" x2="39.2136" y2="-85.659" gradientTransform="matrix(1.3823 0 0 1.3823 510.1283 436.3898)">
			<stop  offset="0" style="stop-color:#C7C7C7"/>
			<stop  offset="0.4902" style="stop-color:#C7C7C7"/>
			<stop  offset="0.5255" style="stop-color:#D9D9D9"/>
			<stop  offset="0.5529" style="stop-color:#A19797"/>
			<stop  offset="0.6627" style="stop-color:#B8B4B5"/>
			<stop  offset="0.8314" style="stop-color:#D8D8D8"/>
			<stop  offset="1" style="stop-color:#D9D9D9"/>
		</linearGradient>
		<path fill-rule="evenodd" clip-rule="evenodd" fill="url(#SVGID_17_)" d="M449.84,325.08l-3.11-130.01h50.59l0.41-0.35
			c9.17,9.17,19.15,16.68,29.93,22.53l0.35,0.14c7.28,3.82,14.84,6.84,22.67,9.05c11.15,3.18,22.85,4.77,35.11,4.77
			c0.32,0,0.62,0,0.9,0s0.58,0,0.9,0c3.82-0.05,7.51-0.23,11.06-0.55v0.07l32.97,213.22c-24.47-5.48-46.82-16.13-67.04-31.93
			c-6.13-4.79-12.05-10.04-17.76-15.76c-1.66-1.66-3.25-3.32-4.77-4.98c-0.92-0.97-1.82-1.94-2.7-2.9
			c-12.72-14.84-21.86-27.88-27.44-39.12c-2.4-4.75-4.12-9.19-5.18-13.34c-0.28-0.6-0.53-1.2-0.76-1.8
			c-0.05-0.18-0.12-0.37-0.21-0.55c-0.23-0.41-0.44-0.78-0.62-1.11c-1.52-2.35-3.32-4.15-5.39-5.39c-1.89-1.11-3.99-1.77-6.29-2
			H449.84z"/>
		
			<linearGradient id="SVGID_18_" gradientUnits="userSpaceOnUse" x1="-266.354" y1="-135.709" x2="-133.2821" y2="-119.2672" gradientTransform="matrix(1.3823 0 0 1.3823 510.1283 436.3898)">
			<stop  offset="0" style="stop-color:#5E5E5E"/>
			<stop  offset="0.0353" style="stop-color:#B3B3B3"/>
			<stop  offset="0.1647" style="stop-color:#C1C1C1"/>
			<stop  offset="1" style="stop-color:#C7C7C7"/>
		</linearGradient>
		<polygon fill-rule="evenodd" clip-rule="evenodd" fill="url(#SVGID_18_)" points="329.72,195.07 321.56,325.14 138.06,325.21 
			135.57,324.94 151.88,195.07 327.51,195.07 		"/>
		
			<linearGradient id="SVGID_19_" gradientUnits="userSpaceOnUse" x1="-266.354" y1="-135.709" x2="-133.2821" y2="-119.2672" gradientTransform="matrix(1.3823 0 0 1.3823 510.1283 436.3898)">
			<stop  offset="0" style="stop-color:#5E5E5E"/>
			<stop  offset="0.0353" style="stop-color:#B3B3B3"/>
			<stop  offset="0.1647" style="stop-color:#C1C1C1"/>
			<stop  offset="1" style="stop-color:#C7C7C7"/>
		</linearGradient>
		<polygon fill-rule="evenodd" clip-rule="evenodd" fill="url(#SVGID_19_)" points="329.72,195.07 321.56,325.14 138.06,325.21 
			135.57,324.94 151.88,195.07 327.51,195.07 		"/>
		
			<linearGradient id="SVGID_20_" gradientUnits="userSpaceOnUse" x1="-266.354" y1="-135.709" x2="-133.2821" y2="-119.2672" gradientTransform="matrix(1.3823 0 0 1.3823 510.1283 436.3898)">
			<stop  offset="0" style="stop-color:#5E5E5E"/>
			<stop  offset="0.0353" style="stop-color:#B3B3B3"/>
			<stop  offset="0.1647" style="stop-color:#C1C1C1"/>
			<stop  offset="1" style="stop-color:#C7C7C7"/>
		</linearGradient>
		<polygon fill-rule="evenodd" clip-rule="evenodd" fill="url(#SVGID_20_)" points="329.72,195.07 321.56,325.14 138.06,325.21 
			135.57,324.94 151.88,195.07 327.51,195.07 		"/>
		
			<linearGradient id="SVGID_21_" gradientUnits="userSpaceOnUse" x1="-266.354" y1="-135.709" x2="-133.2821" y2="-119.2672" gradientTransform="matrix(1.3823 0 0 1.3823 510.1283 436.3898)">
			<stop  offset="0" style="stop-color:#5E5E5E"/>
			<stop  offset="0.0353" style="stop-color:#B3B3B3"/>
			<stop  offset="0.1647" style="stop-color:#C1C1C1"/>
			<stop  offset="1" style="stop-color:#C7C7C7"/>
		</linearGradient>
		<polygon fill-rule="evenodd" clip-rule="evenodd" fill="url(#SVGID_21_)" points="329.72,195.07 321.56,325.14 138.06,325.21 
			135.57,324.94 151.88,195.07 327.51,195.07 		"/>
		
			<linearGradient id="SVGID_22_" gradientUnits="userSpaceOnUse" x1="-46.7534" y1="-129.6191" x2="19.0965" y2="-132.996" gradientTransform="matrix(1.3823 0 0 1.3823 510.1283 436.3898)">
			<stop  offset="0" style="stop-color:#C7C7C7"/>
			<stop  offset="0.4902" style="stop-color:#C7C7C7"/>
			<stop  offset="0.5255" style="stop-color:#D9D9D9"/>
			<stop  offset="0.5529" style="stop-color:#A19797"/>
			<stop  offset="0.6627" style="stop-color:#B8B4B5"/>
			<stop  offset="0.8314" style="stop-color:#D8D8D8"/>
			<stop  offset="1" style="stop-color:#D9D9D9"/>
		</linearGradient>
		<polygon fill-rule="evenodd" clip-rule="evenodd" fill="url(#SVGID_22_)" points="321.56,325.14 329.72,195.07 446.73,195.07 
			449.84,325.08 327.51,325.14 		"/>
		
			<linearGradient id="SVGID_23_" gradientUnits="userSpaceOnUse" x1="-46.7534" y1="-129.6191" x2="19.0965" y2="-132.996" gradientTransform="matrix(1.3823 0 0 1.3823 510.1283 436.3898)">
			<stop  offset="0" style="stop-color:#C7C7C7"/>
			<stop  offset="0.4902" style="stop-color:#C7C7C7"/>
			<stop  offset="0.5255" style="stop-color:#D9D9D9"/>
			<stop  offset="0.5529" style="stop-color:#A19797"/>
			<stop  offset="0.6627" style="stop-color:#B8B4B5"/>
			<stop  offset="0.8314" style="stop-color:#D8D8D8"/>
			<stop  offset="1" style="stop-color:#D9D9D9"/>
		</linearGradient>
		<polygon fill-rule="evenodd" clip-rule="evenodd" fill="url(#SVGID_23_)" points="321.56,325.14 329.72,195.07 446.73,195.07 
			449.84,325.08 327.51,325.14 		"/>
		
			<linearGradient id="SVGID_24_" gradientUnits="userSpaceOnUse" x1="-46.7534" y1="-129.6191" x2="19.0965" y2="-132.996" gradientTransform="matrix(1.3823 0 0 1.3823 510.1283 436.3898)">
			<stop  offset="0" style="stop-color:#C7C7C7"/>
			<stop  offset="0.4902" style="stop-color:#C7C7C7"/>
			<stop  offset="0.5255" style="stop-color:#D9D9D9"/>
			<stop  offset="0.5529" style="stop-color:#A19797"/>
			<stop  offset="0.6627" style="stop-color:#B8B4B5"/>
			<stop  offset="0.8314" style="stop-color:#D8D8D8"/>
			<stop  offset="1" style="stop-color:#D9D9D9"/>
		</linearGradient>
		<polygon fill-rule="evenodd" clip-rule="evenodd" fill="url(#SVGID_24_)" points="321.56,325.14 329.72,195.07 446.73,195.07 
			449.84,325.08 327.51,325.14 		"/>
		
			<linearGradient id="SVGID_25_" gradientUnits="userSpaceOnUse" x1="-46.7534" y1="-129.6191" x2="19.0965" y2="-132.996" gradientTransform="matrix(1.3823 0 0 1.3823 510.1283 436.3898)">
			<stop  offset="0" style="stop-color:#C7C7C7"/>
			<stop  offset="0.4902" style="stop-color:#C7C7C7"/>
			<stop  offset="0.5255" style="stop-color:#D9D9D9"/>
			<stop  offset="0.5529" style="stop-color:#A19797"/>
			<stop  offset="0.6627" style="stop-color:#B8B4B5"/>
			<stop  offset="0.8314" style="stop-color:#D8D8D8"/>
			<stop  offset="1" style="stop-color:#D9D9D9"/>
		</linearGradient>
		<polygon fill-rule="evenodd" clip-rule="evenodd" fill="url(#SVGID_25_)" points="321.56,325.14 329.72,195.07 446.73,195.07 
			449.84,325.08 327.51,325.14 		"/>
	</g>
	<g>
		<polygon fill-rule="evenodd" clip-rule="evenodd" fill="#B7B7B7" points="591.94,402.9 643.51,403.25 642.12,409.6 592.64,409.6 
					"/>
		<path fill-rule="evenodd" clip-rule="evenodd" fill="#F4F4F4" d="M594.78,399.72h45.13l-3.11-24.95l-43.2-0.07L594.78,399.72z
			 M643.51,403.25l-51.56-0.35l-1.17-30.55h48.52l4.35,30.69v4.7L643.51,403.25z"/>
		
			<linearGradient id="SVGID_26_" gradientUnits="userSpaceOnUse" x1="77.4404" y1="-45.2007" x2="76.7622" y2="-23.6763" gradientTransform="matrix(1.3823 0 0 1.3823 510.1283 436.3898)">
			<stop  offset="0" style="stop-color:#777777"/>
			<stop  offset="1" style="stop-color:#000000"/>
		</linearGradient>
		<polygon fill-rule="evenodd" clip-rule="evenodd" fill="url(#SVGID_26_)" points="594.78,399.72 593.6,374.7 636.8,374.77 
			639.91,399.72 		"/>
	</g>
	<g>
		<g>
			
				<radialGradient id="SVGID_27_" cx="-8.4629" cy="222.9736" r="121.1641" gradientTransform="matrix(1.3823 -7.965192e-003 3.936190e-004 0.0683 510.0404 729.3129)" gradientUnits="userSpaceOnUse">
				<stop  offset="0" style="stop-color:#FFFFFF;stop-opacity:0.498"/>
				<stop  offset="0.1333" style="stop-color:#FFFFFF;stop-opacity:0.498"/>
				<stop  offset="0.3176" style="stop-color:#FFFFFF;stop-opacity:0.3294"/>
				<stop  offset="0.4157" style="stop-color:#FFFFFF;stop-opacity:0.298"/>
				<stop  offset="0.5686" style="stop-color:#FEFEFE;stop-opacity:0.149"/>
				<stop  offset="0.7686" style="stop-color:#FCFCFC;stop-opacity:0.0275"/>
				<stop  offset="1" style="stop-color:#F9F9F9;stop-opacity:0"/>
			</radialGradient>
			<path fill-rule="evenodd" clip-rule="evenodd" fill="url(#SVGID_27_)" d="M661.27,743.78c0,2.26-15.78,4.24-47.34,5.94
				c-32.3,1.7-71.17,2.67-116.6,2.9c-44.65,0.23-83.17-0.32-115.56-1.66c-31.56-1.38-47.34-3.2-47.34-5.46s15.78-4.26,47.34-6.01
				c32.3-1.8,70.78-2.81,115.42-3.04c45.43-0.23,84.34,0.37,116.74,1.8C645.49,739.68,661.27,741.52,661.27,743.78z"/>
		</g>
		<g>
			
				<radialGradient id="SVGID_28_" cx="-7.2129" cy="-121.0269" r="1.8784" gradientTransform="matrix(1.3799 -0.0825 1.7914 29.9698 726.9154 3895.6445)" gradientUnits="userSpaceOnUse">
				<stop  offset="0" style="stop-color:#FFFFFF;stop-opacity:0.498"/>
				<stop  offset="0.1333" style="stop-color:#FFFFFF;stop-opacity:0.498"/>
				<stop  offset="0.3176" style="stop-color:#FFFFFF;stop-opacity:0.3294"/>
				<stop  offset="0.4157" style="stop-color:#FFFFFF;stop-opacity:0.298"/>
				<stop  offset="0.5686" style="stop-color:#FEFEFE;stop-opacity:0.149"/>
				<stop  offset="0.7686" style="stop-color:#FCFCFC;stop-opacity:0.0275"/>
				<stop  offset="1" style="stop-color:#F9F9F9;stop-opacity:0"/>
			</radialGradient>
			<path fill-rule="evenodd" clip-rule="evenodd" fill="url(#SVGID_28_)" d="M496.84,213.59c0.69-0.05,1.61,5.34,2.77,16.17
				c1.11,10.87,2.12,23.94,3.04,39.19c0.92,15.25,1.47,28.31,1.66,39.19c0.09,10.18-0.21,15.3-0.9,15.34s-1.59-4.98-2.7-15.07
				c-1.15-10.87-2.19-23.94-3.11-39.19s-1.45-28.31-1.59-39.19C495.87,219.12,496.15,213.64,496.84,213.59z"/>
		</g>
		<g>
			
				<radialGradient id="SVGID_29_" cx="-9.8628" cy="-172.3262" r="2.8283" gradientTransform="matrix(1.3807 0.0661 -0.0932 1.9488 494.0445 534.6553)" gradientUnits="userSpaceOnUse">
				<stop  offset="0" style="stop-color:#FFFFFF;stop-opacity:0.498"/>
				<stop  offset="0.1333" style="stop-color:#FFFFFF;stop-opacity:0.498"/>
				<stop  offset="0.3176" style="stop-color:#FFFFFF;stop-opacity:0.3294"/>
				<stop  offset="0.4157" style="stop-color:#FFFFFF;stop-opacity:0.298"/>
				<stop  offset="0.5686" style="stop-color:#FEFEFE;stop-opacity:0.149"/>
				<stop  offset="0.7686" style="stop-color:#FCFCFC;stop-opacity:0.0275"/>
				<stop  offset="1" style="stop-color:#F9F9F9;stop-opacity:0"/>
			</radialGradient>
			<path fill-rule="evenodd" clip-rule="evenodd" fill="url(#SVGID_29_)" d="M498.98,202.19c-0.78,0.92-1.7,1.36-2.76,1.31
				c-1.06-0.05-1.93-0.58-2.63-1.59c-0.69-1.15-0.99-2.46-0.9-3.94c0.09-1.47,0.53-2.74,1.31-3.8c0.78-1.01,1.7-1.5,2.76-1.45
				c1.06,0.05,1.94,0.62,2.63,1.73c0.69,1.15,0.99,2.46,0.9,3.94C500.2,199.86,499.77,201.13,498.98,202.19z"/>
		</g>
		<g>
			
				<radialGradient id="SVGID_30_" cx="-32.2627" cy="-78.5264" r="2.8283" gradientTransform="matrix(1.3807 0.0661 -0.0932 1.9488 502.7553 483.0024)" gradientUnits="userSpaceOnUse">
				<stop  offset="0" style="stop-color:#FFFFFF;stop-opacity:0.498"/>
				<stop  offset="0.1333" style="stop-color:#FFFFFF;stop-opacity:0.498"/>
				<stop  offset="0.3176" style="stop-color:#FFFFFF;stop-opacity:0.3294"/>
				<stop  offset="0.4157" style="stop-color:#FFFFFF;stop-opacity:0.298"/>
				<stop  offset="0.5686" style="stop-color:#FEFEFE;stop-opacity:0.149"/>
				<stop  offset="0.7686" style="stop-color:#FCFCFC;stop-opacity:0.0275"/>
				<stop  offset="1" style="stop-color:#F9F9F9;stop-opacity:0"/>
			</radialGradient>
			<path fill-rule="evenodd" clip-rule="evenodd" fill="url(#SVGID_30_)" d="M468.02,331.85c-0.78,0.92-1.71,1.36-2.76,1.31
				s-1.93-0.58-2.63-1.59c-0.69-1.15-0.99-2.47-0.9-3.94c0.09-1.47,0.53-2.74,1.31-3.8c0.78-1.01,1.71-1.5,2.76-1.45
				c1.06,0.05,1.94,0.62,2.63,1.73c0.69,1.15,0.99,2.47,0.9,3.94C469.24,329.52,468.8,330.79,468.02,331.85z"/>
		</g>
	</g>
</g>
<g id="Layer_1">
	<g>
		<g>
			<g>
				
					<linearGradient id="SVGID_31_" gradientUnits="userSpaceOnUse" x1="101.936" y1="-163.4023" x2="113.4367" y2="-163.4023" gradientTransform="matrix(0.015 -1.3822 1.3824 4.755420e-004 544.465 477.3559)">
					<stop  offset="0.2745" style="stop-color:#9E9E9E;stop-opacity:0.7961"/>
					<stop  offset="0.5804" style="stop-color:#878787;stop-opacity:0.502"/>
					<stop  offset="1" style="stop-color:#000000;stop-opacity:0"/>
				</linearGradient>
				<path fill-rule="evenodd" clip-rule="evenodd" fill="url(#SVGID_31_)" d="M137.37,313.64c0.14-0.46,0.3-0.88,0.48-1.24h351.11
					c8.16,4.65,14.01,12.21,17.56,22.67l-2.35,8.57H133.64L137.37,313.64z"/>
			</g>
			<g>
				
					<linearGradient id="SVGID_32_" gradientUnits="userSpaceOnUse" x1="-31.1626" y1="-23.9766" x2="161.0374" y2="-23.9766" gradientTransform="matrix(1.3823 0 0 1.3823 510.1283 436.3898)">
					<stop  offset="0" style="stop-color:#E8E6E7"/>
					<stop  offset="1" style="stop-color:#C6C5C3"/>
				</linearGradient>
				<path fill-rule="evenodd" clip-rule="evenodd" fill="url(#SVGID_32_)" d="M732.73,473.95c-18.06,5.02-37.69,7.53-58.89,7.53
					c-12.67,0-24.95-0.94-36.84-2.83h-0.07c-24.74-4.01-47.81-12.1-69.19-24.26c-16.91-9.68-32.76-21.89-47.55-36.63
					c-15.62-15.67-28.34-32.51-38.15-50.52c-6.08-11.1-10.83-21.98-14.24-32.62c-1.43-4.56-2.42-7.74-2.97-9.54
					c0.05-0.05,0.09-0.07,0.14-0.07c0,0.05,0.02,0.07,0.07,0.07h28.41c2.3,0.23,4.4,0.9,6.29,2c2.07,1.24,3.87,3.04,5.39,5.39
					l1.59,3.46c1.06,4.15,2.79,8.59,5.18,13.34c1.8,3.64,3.96,7.46,6.5,11.47c5.35,8.39,12.33,17.6,20.94,27.65
					c0.88,0.97,1.77,1.94,2.7,2.9c1.52,1.66,3.11,3.32,4.77,4.98c5.71,5.71,11.63,10.97,17.76,15.76
					c20.23,15.81,42.58,26.45,67.04,31.93c12.9,2.86,26.4,4.29,40.5,4.29c18.2,0,35.04-2.28,50.52-6.84
					c3.59-0.74,5.8,0.51,6.63,3.73L732.73,473.95z"/>
				
					<linearGradient id="SVGID_33_" gradientUnits="userSpaceOnUse" x1="-31.1626" y1="-23.9766" x2="161.0374" y2="-23.9766" gradientTransform="matrix(1.3823 0 0 1.3823 510.1283 436.3898)">
					<stop  offset="0" style="stop-color:#E8E6E7"/>
					<stop  offset="1" style="stop-color:#C6C5C3"/>
				</linearGradient>
				<path fill-rule="evenodd" clip-rule="evenodd" fill="url(#SVGID_33_)" d="M732.73,473.95c-18.06,5.02-37.69,7.53-58.89,7.53
					c-12.67,0-24.95-0.94-36.84-2.83h-0.07c-24.74-4.01-47.81-12.1-69.19-24.26c-16.91-9.68-32.76-21.89-47.55-36.63
					c-15.62-15.67-28.34-32.51-38.15-50.52c-6.08-11.1-10.83-21.98-14.24-32.62c-1.43-4.56-2.42-7.74-2.97-9.54
					c0.05-0.05,0.09-0.07,0.14-0.07c0,0.05,0.02,0.07,0.07,0.07h28.41c2.3,0.23,4.4,0.9,6.29,2c2.07,1.24,3.87,3.04,5.39,5.39
					l1.59,3.46c1.06,4.15,2.79,8.59,5.18,13.34c1.8,3.64,3.96,7.46,6.5,11.47c5.35,8.39,12.33,17.6,20.94,27.65
					c0.88,0.97,1.77,1.94,2.7,2.9c1.52,1.66,3.11,3.32,4.77,4.98c5.71,5.71,11.63,10.97,17.76,15.76
					c20.23,15.81,42.58,26.45,67.04,31.93c12.9,2.86,26.4,4.29,40.5,4.29c18.2,0,35.04-2.28,50.52-6.84
					c3.59-0.74,5.8,0.51,6.63,3.73L732.73,473.95z"/>
				
					<linearGradient id="SVGID_34_" gradientUnits="userSpaceOnUse" x1="-31.1626" y1="-23.9766" x2="161.0374" y2="-23.9766" gradientTransform="matrix(1.3823 0 0 1.3823 510.1283 436.3898)">
					<stop  offset="0" style="stop-color:#E8E6E7"/>
					<stop  offset="1" style="stop-color:#C6C5C3"/>
				</linearGradient>
				<path fill-rule="evenodd" clip-rule="evenodd" fill="url(#SVGID_34_)" d="M732.73,473.95c-18.06,5.02-37.69,7.53-58.89,7.53
					c-12.67,0-24.95-0.94-36.84-2.83h-0.07c-24.74-4.01-47.81-12.1-69.19-24.26c-16.91-9.68-32.76-21.89-47.55-36.63
					c-15.62-15.67-28.34-32.51-38.15-50.52c-6.08-11.1-10.83-21.98-14.24-32.62c-1.43-4.56-2.42-7.74-2.97-9.54
					c0.05-0.05,0.09-0.07,0.14-0.07c0,0.05,0.02,0.07,0.07,0.07h28.41c2.3,0.23,4.4,0.9,6.29,2c2.07,1.24,3.87,3.04,5.39,5.39
					l1.59,3.46c1.06,4.15,2.79,8.59,5.18,13.34c1.8,3.64,3.96,7.46,6.5,11.47c5.35,8.39,12.33,17.6,20.94,27.65
					c0.88,0.97,1.77,1.94,2.7,2.9c1.52,1.66,3.11,3.32,4.77,4.98c5.71,5.71,11.63,10.97,17.76,15.76
					c20.23,15.81,42.58,26.45,67.04,31.93c12.9,2.86,26.4,4.29,40.5,4.29c18.2,0,35.04-2.28,50.52-6.84
					c3.59-0.74,5.8,0.51,6.63,3.73L732.73,473.95z"/>
				
					<linearGradient id="SVGID_35_" gradientUnits="userSpaceOnUse" x1="-31.1626" y1="-23.9766" x2="161.0374" y2="-23.9766" gradientTransform="matrix(1.3823 0 0 1.3823 510.1283 436.3898)">
					<stop  offset="0" style="stop-color:#E8E6E7"/>
					<stop  offset="1" style="stop-color:#C6C5C3"/>
				</linearGradient>
				<path fill-rule="evenodd" clip-rule="evenodd" fill="url(#SVGID_35_)" d="M732.73,473.95c-18.06,5.02-37.69,7.53-58.89,7.53
					c-12.67,0-24.95-0.94-36.84-2.83h-0.07c-24.74-4.01-47.81-12.1-69.19-24.26c-16.91-9.68-32.76-21.89-47.55-36.63
					c-15.62-15.67-28.34-32.51-38.15-50.52c-6.08-11.1-10.83-21.98-14.24-32.62c-1.43-4.56-2.42-7.74-2.97-9.54
					c0.05-0.05,0.09-0.07,0.14-0.07c0,0.05,0.02,0.07,0.07,0.07h28.41c2.3,0.23,4.4,0.9,6.29,2c2.07,1.24,3.87,3.04,5.39,5.39
					l1.59,3.46c1.06,4.15,2.79,8.59,5.18,13.34c1.8,3.64,3.96,7.46,6.5,11.47c5.35,8.39,12.33,17.6,20.94,27.65
					c0.88,0.97,1.77,1.94,2.7,2.9c1.52,1.66,3.11,3.32,4.77,4.98c5.71,5.71,11.63,10.97,17.76,15.76
					c20.23,15.81,42.58,26.45,67.04,31.93c12.9,2.86,26.4,4.29,40.5,4.29c18.2,0,35.04-2.28,50.52-6.84
					c3.59-0.74,5.8,0.51,6.63,3.73L732.73,473.95z"/>
				
					<radialGradient id="SVGID_36_" cx="-46.063" cy="98.1172" r="605.9722" gradientTransform="matrix(1.3823 0 0 0.3623 510.1283 536.4706)" gradientUnits="userSpaceOnUse">
					<stop  offset="0" style="stop-color:#D7D7D7"/>
					<stop  offset="0.7569" style="stop-color:#D3D3D3"/>
					<stop  offset="0.7882" style="stop-color:#E6E6E6"/>
					<stop  offset="0.8157" style="stop-color:#808080"/>
					<stop  offset="1" style="stop-color:#626262"/>
				</radialGradient>
				<path fill-rule="evenodd" clip-rule="evenodd" fill="url(#SVGID_36_)" d="M741.14,548.81l9.01,79.68l10.09,90.54l-0.07-0.07
					c-0.28,4.19-3.41,8.43-9.4,12.72l-40.92,33.94l-19.56,16.24c-21.1,3.09-42.14,5.88-63.1,8.36
					c-139.34,16.31-278.68,16.79-418.01,1.45c-18.85-2.07-37.14-4.42-54.88-7.05c-2.86-1.89-5.14-3.78-6.84-5.67l-56.61-51.91
					c-3.04-3.69-4.33-7.1-3.87-10.23l16.59-168.44h544.15l17.17-0.02"/>
				
					<radialGradient id="SVGID_37_" cx="-46.063" cy="98.1172" r="605.9722" gradientTransform="matrix(1.3823 0 0 0.3623 510.1283 536.4706)" gradientUnits="userSpaceOnUse">
					<stop  offset="0" style="stop-color:#D7D7D7"/>
					<stop  offset="0.7569" style="stop-color:#D3D3D3"/>
					<stop  offset="0.7882" style="stop-color:#E6E6E6"/>
					<stop  offset="0.8157" style="stop-color:#808080"/>
					<stop  offset="1" style="stop-color:#626262"/>
				</radialGradient>
				<path fill-rule="evenodd" clip-rule="evenodd" fill="url(#SVGID_37_)" d="M741.14,548.81l9.01,79.68l10.09,90.54l-0.07-0.07
					c-0.28,4.19-3.41,8.43-9.4,12.72l-40.92,33.94l-19.56,16.24c-21.1,3.09-42.14,5.88-63.1,8.36
					c-139.34,16.31-278.68,16.79-418.01,1.45c-18.85-2.07-37.14-4.42-54.88-7.05c-2.86-1.89-5.14-3.78-6.84-5.67l-56.61-51.91
					c-3.04-3.69-4.33-7.1-3.87-10.23l16.59-168.44h544.15l17.17-0.02"/>
				
					<radialGradient id="SVGID_38_" cx="-46.063" cy="98.1172" r="605.9722" gradientTransform="matrix(1.3823 0 0 0.3623 510.1283 536.4706)" gradientUnits="userSpaceOnUse">
					<stop  offset="0" style="stop-color:#D7D7D7"/>
					<stop  offset="0.7569" style="stop-color:#D3D3D3"/>
					<stop  offset="0.7882" style="stop-color:#E6E6E6"/>
					<stop  offset="0.8157" style="stop-color:#808080"/>
					<stop  offset="1" style="stop-color:#626262"/>
				</radialGradient>
				<path fill-rule="evenodd" clip-rule="evenodd" fill="url(#SVGID_38_)" d="M741.14,548.81l9.01,79.68l10.09,90.54l-0.07-0.07
					c-0.28,4.19-3.41,8.43-9.4,12.72l-40.92,33.94l-19.56,16.24c-21.1,3.09-42.14,5.88-63.1,8.36
					c-139.34,16.31-278.68,16.79-418.01,1.45c-18.85-2.07-37.14-4.42-54.88-7.05c-2.86-1.89-5.14-3.78-6.84-5.67l-56.61-51.91
					c-3.04-3.69-4.33-7.1-3.87-10.23l16.59-168.44h544.15l17.17-0.02"/>
				
					<radialGradient id="SVGID_39_" cx="-46.063" cy="98.1172" r="605.9722" gradientTransform="matrix(1.3823 0 0 0.3623 510.1283 536.4706)" gradientUnits="userSpaceOnUse">
					<stop  offset="0" style="stop-color:#D7D7D7"/>
					<stop  offset="0.7569" style="stop-color:#D3D3D3"/>
					<stop  offset="0.7882" style="stop-color:#E6E6E6"/>
					<stop  offset="0.8157" style="stop-color:#808080"/>
					<stop  offset="1" style="stop-color:#626262"/>
				</radialGradient>
				<path fill-rule="evenodd" clip-rule="evenodd" fill="url(#SVGID_39_)" d="M741.14,548.81l9.01,79.68l10.09,90.54l-0.07-0.07
					c-0.28,4.19-3.41,8.43-9.4,12.72l-40.92,33.94l-19.56,16.24c-21.1,3.09-42.14,5.88-63.1,8.36
					c-139.34,16.31-278.68,16.79-418.01,1.45c-18.85-2.07-37.14-4.42-54.88-7.05c-2.86-1.89-5.14-3.78-6.84-5.67l-56.61-51.91
					c-3.04-3.69-4.33-7.1-3.87-10.23l16.59-168.44h544.15l17.17-0.02"/>
				<path fill-rule="evenodd" clip-rule="evenodd" fill="#D5D5D5" d="M741.17,548.7h-93.51l0.07-0.31H103.57l1.04-10.99
					l16.73-170.16l4.15-42.02l0.21-0.14h339.15c0.55,1.8,1.54,4.98,2.97,9.54c3.41,10.64,8.16,21.52,14.24,32.62
					c9.82,18.02,22.53,34.86,38.15,50.52c14.79,14.75,30.64,26.96,47.55,36.63c21.38,12.16,44.44,20.25,69.19,24.26h0.07
					c11.89,1.89,24.17,2.83,36.84,2.83c21.2,0,40.83-2.51,58.89-7.53L741.17,548.7z"/>
				<path fill-rule="evenodd" clip-rule="evenodd" fill="#D5D5D5" d="M741.17,548.7h-93.51l0.07-0.31H103.57l1.04-10.99
					l16.73-170.16l4.15-42.02l0.21-0.14h339.15c0.55,1.8,1.54,4.98,2.97,9.54c3.41,10.64,8.16,21.52,14.24,32.62
					c9.82,18.02,22.53,34.86,38.15,50.52c14.79,14.75,30.64,26.96,47.55,36.63c21.38,12.16,44.44,20.25,69.19,24.26h0.07
					c11.89,1.89,24.17,2.83,36.84,2.83c21.2,0,40.83-2.51,58.89-7.53L741.17,548.7z"/>
				<path fill-rule="evenodd" clip-rule="evenodd" fill="#D5D5D5" d="M741.17,548.7h-93.51l0.07-0.31H103.57l1.04-10.99
					l16.73-170.16l4.15-42.02l0.21-0.14h339.15c0.55,1.8,1.54,4.98,2.97,9.54c3.41,10.64,8.16,21.52,14.24,32.62
					c9.82,18.02,22.53,34.86,38.15,50.52c14.79,14.75,30.64,26.96,47.55,36.63c21.38,12.16,44.44,20.25,69.19,24.26h0.07
					c11.89,1.89,24.17,2.83,36.84,2.83c21.2,0,40.83-2.51,58.89-7.53L741.17,548.7z"/>
				<path fill-rule="evenodd" clip-rule="evenodd" fill="#D5D5D5" d="M741.17,548.7h-93.51l0.07-0.31H103.57l1.04-10.99
					l16.73-170.16l4.15-42.02l0.21-0.14h339.15c0.55,1.8,1.54,4.98,2.97,9.54c3.41,10.64,8.16,21.52,14.24,32.62
					c9.82,18.02,22.53,34.86,38.15,50.52c14.79,14.75,30.64,26.96,47.55,36.63c21.38,12.16,44.44,20.25,69.19,24.26h0.07
					c11.89,1.89,24.17,2.83,36.84,2.83c21.2,0,40.83-2.51,58.89-7.53L741.17,548.7z"/>
			</g>
			<g>
				<path fill-rule="evenodd" clip-rule="evenodd" fill="#FFFFFF" fill-opacity="0.5765" d="M511.35,434.04
					c-17.46-17.51-31.33-36.49-41.61-56.95h-331.9l-32.76,331.14H738.4l-23.5-211.08c-28.52,4.61-59.05,3.64-91.58-2.9
					C581.02,486.36,543.7,466.29,511.35,434.04z M135.71,376.4c0-0.18,0.07-0.35,0.21-0.48c0.14-0.14,0.3-0.21,0.48-0.21h333.76
					c0.14,0,0.28,0.05,0.41,0.14c0.09,0.05,0.16,0.14,0.21,0.28c10.23,20.46,24.08,39.44,41.54,56.95
					c32.16,32.07,69.25,52,111.28,59.79c32.62,6.59,63.24,7.51,91.86,2.76c0.09,0,0.21,0.02,0.35,0.07
					c0.09,0.05,0.18,0.12,0.28,0.21c0.09,0.09,0.14,0.21,0.14,0.35l23.64,212.6c0,0.14-0.02,0.28-0.07,0.42
					c-0.05,0.09-0.12,0.18-0.21,0.28c-0.14,0.05-0.28,0.07-0.42,0.07H104.33c-0.14,0-0.25-0.02-0.35-0.07
					c-0.14-0.09-0.23-0.18-0.28-0.28c-0.05-0.14-0.07-0.28-0.07-0.42l32.83-331.76h-0.07c-0.18,0-0.35-0.07-0.48-0.21
					C135.78,376.74,135.71,376.58,135.71,376.4z"/>
			</g>
			<g>
				<path fill-rule="evenodd" clip-rule="evenodd" fill="#999999" d="M511.35,431.97c-17.46-17.51-31.33-36.49-41.61-56.95h-331.9
					l-32.76,331.14H738.4l-23.5-211.08c-28.52,4.61-59.05,3.64-91.58-2.9C581.02,484.29,543.7,464.22,511.35,431.97z M135.71,374.32
					c0-0.18,0.07-0.35,0.21-0.48c0.14-0.14,0.3-0.21,0.48-0.21h333.76c0.14,0,0.28,0.05,0.41,0.14c0.09,0.05,0.16,0.14,0.21,0.28
					c10.23,20.46,24.08,39.44,41.54,56.95c32.16,32.07,69.25,52,111.28,59.79c32.62,6.59,63.24,7.51,91.86,2.76
					c0.09,0,0.21,0.02,0.35,0.07c0.09,0.05,0.18,0.12,0.28,0.21c0.09,0.09,0.14,0.21,0.14,0.35l23.64,212.6
					c0,0.14-0.02,0.28-0.07,0.41c-0.05,0.09-0.12,0.18-0.21,0.28c-0.14,0.05-0.28,0.07-0.42,0.07H104.33
					c-0.14,0-0.25-0.02-0.35-0.07c-0.14-0.09-0.23-0.18-0.28-0.28c-0.05-0.14-0.07-0.28-0.07-0.41l32.83-331.76h-0.07
					c-0.18,0-0.35-0.07-0.48-0.21C135.78,374.67,135.71,374.51,135.71,374.32z"/>
			</g>
			<g>
				<path fill-rule="evenodd" clip-rule="evenodd" fill="#B4AEB0" d="M637.28,551.26c-59.03,0-109.73-20.14-152.13-60.41
					l31.72-39.54c36.59,31.89,79.09,49.44,127.52,52.67l-3.66,47.28C639.59,551.26,638.44,551.26,637.28,551.26z"/>
			</g>
			<g>
				<path fill-rule="evenodd" clip-rule="evenodd" fill="#1377B9" d="M151.26,508.96l-0.07,0.35h-3.46l0.07-0.69l12.23-117.57h3.32
					h0.14h4.49l0.55,0.28c0.05-0.09,0.14-0.18,0.28-0.28h158.69H394l0.07,1.87H163.49v0.76L151.26,508.96z"/>
				
					<linearGradient id="SVGID_40_" gradientUnits="userSpaceOnUse" x1="-166.4194" y1="61.5386" x2="-177.0224" y2="-39.2107" gradientTransform="matrix(1.3823 0 0 1.3823 510.1283 436.3898)">
					<stop  offset="0" style="stop-color:#8DCCF8"/>
					<stop  offset="1" style="stop-color:#72BDF0"/>
				</linearGradient>
				<polygon fill-rule="evenodd" clip-rule="evenodd" fill="url(#SVGID_40_)" points="156.86,509.31 151.26,508.96 163.49,393.68 
					163.49,392.92 394.06,392.92 394.06,397.48 394.13,399.55 395.52,509.31 327.51,509.31 				"/>
				<path fill-rule="evenodd" clip-rule="evenodd" fill="#72BDF0" d="M168.82,391.05c-0.14,0.09-0.23,0.18-0.28,0.28l-0.55-0.28
					H168.82z M151.26,508.96l3.18,0.35h-3.25L151.26,508.96z"/>
				
					<linearGradient id="SVGID_41_" gradientUnits="userSpaceOnUse" x1="-260.5952" y1="74.8354" x2="-68.4389" y2="5.5528" gradientTransform="matrix(1.3823 0 0 1.3823 510.1283 436.3898)">
					<stop  offset="0" style="stop-color:#D7D7D7"/>
					<stop  offset="0.302" style="stop-color:#FFFFFF"/>
					<stop  offset="0.5725" style="stop-color:#FBFBFB"/>
					<stop  offset="0.8627" style="stop-color:#FFFFFF"/>
					<stop  offset="1" style="stop-color:#D7D7D7"/>
				</linearGradient>
				<path fill-rule="evenodd" clip-rule="evenodd" fill="url(#SVGID_41_)" d="M147.73,509.31h3.46h3.25h2.42h170.65h68.01
					l-1.38-109.76l-0.07-2.07v-4.56l0.35-2.21l2,2.42l0.07,1.87v4.56l1.45,109.76c0,0.18,0,0.37,0,0.55v1.52h-2.42h-68.01H156.86
					h-3.25h-1.66h-0.9l-3.46-2.07H147.73z"/>
			</g>
			<g>
				
					<linearGradient id="SVGID_42_" gradientUnits="userSpaceOnUse" x1="-46.3926" y1="-86.3423" x2="126.2074" y2="40.7078" gradientTransform="matrix(1.3823 0 0 1.3823 510.1283 436.3898)">
					<stop  offset="0" style="stop-color:#FFFFFF;stop-opacity:0"/>
					<stop  offset="0.1451" style="stop-color:#FFFFFF"/>
					<stop  offset="0.8" style="stop-color:#FFFFFF"/>
					<stop  offset="1" style="stop-color:#FFFFFF;stop-opacity:0"/>
				</linearGradient>
				<path fill-rule="evenodd" clip-rule="evenodd" fill="url(#SVGID_42_)" d="M467.19,333.82c-1.01-3.13-1.77-5.62-2.28-7.46
					c-0.09-0.18-0.09-0.35,0-0.48c0.09-0.18,0.23-0.3,0.42-0.35c0.18-0.09,0.37-0.09,0.55,0c0.14,0.09,0.25,0.23,0.35,0.42
					c0.55,1.84,1.31,4.33,2.28,7.46c2.86,9.08,6.73,18.32,11.61,27.72c0.78,1.57,1.64,3.16,2.56,4.77
					c9.77,17.97,22.44,34.77,38.01,50.39c14.74,14.7,32.35,27.85,52.8,39.46c18.34,10.37,37.35,17.12,57.02,20.25h0.9
					c0.05,0,0.09,0,0.14,0c31.33,5.76,62.69,5.14,94.07-1.87c0.18-0.05,0.37,0,0.55,0.14c0.14,0.09,0.23,0.23,0.28,0.42
					c0.05,0.18,0.02,0.37-0.07,0.55c-0.14,0.14-0.3,0.23-0.48,0.28c-31.56,7-63.1,7.63-94.62,1.87h-0.97
					c-19.81-3.13-38.98-9.95-57.5-20.46c-20.55-11.66-38.24-24.88-53.08-39.67c-15.67-15.71-28.43-32.6-38.29-50.66h0.07
					c-0.97-1.61-1.84-3.23-2.63-4.84C473.99,352.3,470.09,342.99,467.19,333.82z"/>
			</g>
			<g>
				<path fill-rule="evenodd" clip-rule="evenodd" fill="#0947A3" d="M199.43,343.43c0.18,0.65,0.28,1.38,0.28,2.21
					c-0.09,0.88-0.39,1.68-0.9,2.42c-0.65,0.78-1.36,1.36-2.14,1.73c1.06,0.32,1.87,0.9,2.42,1.73c0.6,0.78,0.85,1.73,0.76,2.83
					c-0.18,0.88-0.48,1.73-0.9,2.56c-0.46,0.78-1.06,1.43-1.8,1.94c-0.88,0.51-1.82,0.81-2.83,0.9c-0.65,0.09-2.21,0.14-4.7,0.14
					h-6.57l2.21-18.87h7.6c1.52,0,2.63,0.05,3.32,0.14c0.65,0.14,1.31,0.41,2,0.83C198.65,342.35,199.07,342.83,199.43,343.43z
					 M208.35,346.12l-1.31,13.75h-3.73l1.38-13.75H208.35z M204.89,344.33l0.35-3.32h3.66l-0.35,3.32H204.89z M194.25,344.12
					c-0.37-0.05-1.45-0.07-3.25-0.07h-2.21l-0.48,4.35h2.49c1.52,0,2.46,0,2.83,0c0.65-0.14,1.2-0.39,1.66-0.76
					c0.37-0.32,0.58-0.81,0.62-1.45c0-0.6-0.11-1.04-0.35-1.31C195.29,344.47,194.85,344.21,194.25,344.12z M187.89,351.58
					l-0.55,5.11H191c1.34,0,2.19-0.02,2.56-0.07c0.55-0.14,1.04-0.41,1.45-0.83c0.42-0.42,0.69-0.97,0.83-1.66
					c0.05-0.55-0.05-1.01-0.28-1.38c-0.28-0.41-0.67-0.74-1.17-0.97c-0.51-0.14-1.61-0.21-3.32-0.21H187.89z M211.46,352.76
					c0.05-1.2,0.46-2.37,1.25-3.52c0.64-1.11,1.54-1.96,2.69-2.56c1.15-0.6,2.37-0.9,3.66-0.9c2.07,0,3.78,0.69,5.11,2.07
					c1.24,1.34,1.75,3.02,1.52,5.05c-0.18,2.12-0.99,3.87-2.42,5.25c-1.52,1.38-3.29,2.07-5.32,2.07c-1.29,0-2.47-0.3-3.52-0.9
					c-1.2-0.55-2.05-1.38-2.56-2.49C211.41,355.73,211.28,354.37,211.46,352.76z M292.46,349.23c0.65-1.11,1.57-1.96,2.76-2.56
					c1.06-0.6,2.23-0.9,3.53-0.9c2.03,0,3.73,0.69,5.11,2.07c1.34,1.34,1.98,3.02,1.94,5.05c-0.14,2.12-0.9,3.87-2.28,5.25
					s-3.11,2.07-5.18,2.07c-1.29,0-2.49-0.3-3.59-0.9c-1.15-0.55-2.03-1.38-2.63-2.49c-0.6-1.11-0.81-2.47-0.62-4.08
					C291.5,351.56,291.82,350.39,292.46,349.23z M289.08,349.03h-2.56l-0.21,5.53c-0.09,1.15-0.09,1.8,0,1.94
					c0,0.23,0.14,0.39,0.41,0.48c0.09,0.09,0.28,0.14,0.55,0.14c0.28,0,0.76-0.09,1.45-0.28l0.21,2.83
					c-0.92,0.37-1.91,0.55-2.97,0.55c-0.65,0-1.24-0.11-1.8-0.35c-0.6-0.18-0.94-0.46-1.04-0.83c-0.28-0.37-0.44-0.85-0.48-1.45
					c-0.14-0.46-0.14-1.31,0-2.56l0.21-6.01h-1.73l0.28-2.9h1.73l0.14-2.7l3.66-2.07l-0.21,4.77h2.49L289.08,349.03z M278.85,352.9
					c-0.14,2.12-0.88,3.87-2.21,5.25c-1.52,1.38-3.27,2.07-5.25,2.07c-1.38,0-2.58-0.3-3.59-0.9c-1.24-0.55-2.12-1.38-2.63-2.49
					c-0.55-1.11-0.74-2.47-0.55-4.08c0-1.2,0.35-2.37,1.04-3.52c0.65-1.11,1.52-1.96,2.63-2.56c1.11-0.6,2.37-0.9,3.8-0.9
					c2.03,0,3.69,0.69,4.98,2.07C278.3,349.19,278.89,350.87,278.85,352.9z M269.38,349.86c-0.74,0.74-1.11,1.77-1.11,3.11
					c-0.14,1.38,0.14,2.44,0.83,3.18c0.55,0.74,1.34,1.11,2.35,1.11c0.92,0,1.73-0.37,2.42-1.11c0.74-0.74,1.15-1.8,1.24-3.18
					c0-1.34-0.32-2.37-0.97-3.11c-0.55-0.74-1.29-1.11-2.21-1.11C270.92,348.75,270.07,349.12,269.38,349.86z M295.99,356.15
					c0.6,0.74,1.41,1.11,2.42,1.11c0.92,0,1.75-0.37,2.49-1.11c0.65-0.74,0.99-1.8,1.04-3.18c0.09-1.34-0.18-2.37-0.83-3.11
					c-0.65-0.74-1.43-1.11-2.35-1.11c-1.06,0-1.89,0.37-2.49,1.11c-0.74,0.74-1.11,1.77-1.11,3.11
					C295.02,354.35,295.3,355.41,295.99,356.15z M312.92,353.17l-0.21,6.7h-3.8l0.48-13.75h3.39v1.87c1.2-1.47,2.65-2.21,4.35-2.21
					c0.83,0,1.57,0.18,2.21,0.55c0.69,0.37,1.27,0.92,1.73,1.66c0.51-0.74,1.15-1.29,1.94-1.66c0.69-0.37,1.43-0.55,2.21-0.55
					c1.01,0,1.87,0.21,2.56,0.62c0.69,0.37,1.22,0.97,1.59,1.8c0.14,0.6,0.21,1.54,0.21,2.83l-0.07,8.85h-3.66l0.14-7.88
					c-0.05-1.38-0.18-2.28-0.41-2.7c-0.32-0.51-0.81-0.76-1.45-0.76c-0.6,0-1.13,0.16-1.59,0.48c-0.46,0.32-0.76,0.78-0.9,1.38
					c-0.28,0.6-0.41,1.54-0.41,2.83l-0.14,6.63h-3.59l0.14-7.6c0-1.29-0.07-2.14-0.21-2.56c-0.14-0.37-0.32-0.67-0.55-0.9
					c-0.28-0.18-0.64-0.28-1.11-0.28c-0.6,0-1.11,0.16-1.52,0.48c-0.51,0.32-0.83,0.76-0.97,1.31
					C313.04,350.89,312.92,351.84,312.92,353.17z M233.65,349.51h2.07c1.47,0,2.53-0.11,3.18-0.35c0.46-0.23,0.88-0.55,1.24-0.97
					c0.32-0.42,0.51-0.9,0.55-1.45c0-0.69-0.16-1.27-0.48-1.73c-0.42-0.41-0.92-0.67-1.52-0.76c-0.46-0.09-1.36-0.14-2.7-0.14h-1.87
					L233.65,349.51z M235.93,352.69h-2.56l-0.55,7.19h-3.94l1.59-18.87h6.22c2.26,0,3.78,0.09,4.56,0.28
					c1.01,0.28,1.87,0.9,2.56,1.87c0.55,0.83,0.81,2,0.76,3.53c-0.09,1.2-0.37,2.19-0.83,2.97c-0.51,0.78-1.06,1.41-1.66,1.87
					c-0.74,0.46-1.45,0.78-2.14,0.97C238.97,352.62,237.63,352.69,235.93,352.69z M218.99,348.75c-1.06,0-1.89,0.37-2.49,1.11
					c-0.83,0.74-1.29,1.77-1.38,3.11c-0.14,1.38,0.11,2.44,0.76,3.18c0.51,0.74,1.29,1.11,2.35,1.11c0.92,0,1.77-0.37,2.56-1.11
					c0.69-0.74,1.08-1.8,1.17-3.18c0.09-1.34-0.14-2.37-0.69-3.11C220.63,349.12,219.87,348.75,218.99,348.75z M258.74,346.26
					c0.65,0.32,1.13,0.71,1.45,1.18c0.28,0.46,0.51,1.01,0.69,1.66c0.09,0.55,0.09,1.45,0,2.69l-0.55,8.09h-3.66l0.48-7.26
					c0.09-1.47,0.09-2.4,0-2.76c-0.18-0.41-0.42-0.71-0.69-0.9c-0.42-0.28-0.88-0.41-1.38-0.41c-0.65,0-1.2,0.16-1.66,0.48
					c-0.51,0.32-0.88,0.76-1.11,1.31c-0.28,0.55-0.46,1.43-0.55,2.63l-0.42,6.91h-3.73l1.38-18.87h3.66l-0.55,6.84
					c1.24-1.38,2.74-2.07,4.49-2.07C257.28,345.78,258,345.94,258.74,346.26z M381.07,349.1c-0.55,0-0.97,0.14-1.24,0.41
					c-0.42,0.23-0.69,0.71-0.83,1.45c-0.28,0.78-0.37,2.35-0.28,4.7l0.14,4.22h-3.8l-0.14-13.75h3.46v1.94
					c0.55-0.92,1.06-1.54,1.52-1.87c0.42-0.28,0.94-0.41,1.59-0.41c0.83,0,1.64,0.23,2.42,0.69l-1.11,3.18
					C382.2,349.28,381.62,349.1,381.07,349.1z M348.24,346.12h1.73l0.07-2.7l3.59-2.07l-0.07,4.77h2.56v2.9h-2.49v5.53
					c-0.05,1.15-0.02,1.8,0.07,1.94c0,0.23,0.14,0.39,0.41,0.48c0.09,0.09,0.28,0.14,0.55,0.14c0.28,0,0.76-0.09,1.45-0.28
					l0.41,2.83c-0.97,0.37-1.96,0.55-2.97,0.55c-0.69,0-1.29-0.11-1.8-0.35c-0.64-0.18-1.04-0.46-1.17-0.83
					c-0.32-0.37-0.51-0.85-0.55-1.45c-0.05-0.46-0.07-1.31-0.07-2.56l0.07-6.01h-1.73L348.24,346.12z M339.6,348.54
					c-0.83,0-1.48,0.32-1.94,0.97c-0.6,0.55-0.9,1.31-0.9,2.28h5.53c0-1.06-0.21-1.87-0.62-2.42
					C341.08,348.82,340.39,348.54,339.6,348.54z M344.3,347.85c1.11,1.34,1.64,3.39,1.59,6.15h-9.12c-0.05,1.11,0.25,1.98,0.9,2.63
					c0.46,0.55,1.15,0.83,2.07,0.83c0.55,0,1.06-0.16,1.52-0.48c0.37-0.32,0.65-0.81,0.83-1.45l3.66,0.62
					c-0.51,1.29-1.22,2.3-2.14,3.04c-1.15,0.69-2.46,1.04-3.94,1.04c-2.49,0-4.26-0.78-5.32-2.35c-0.97-1.24-1.43-2.83-1.38-4.77
					c0-2.3,0.65-4.08,1.94-5.32c1.2-1.34,2.72-2,4.56-2C341.49,345.78,343.1,346.47,344.3,347.85z M367.04,349.37
					c-0.6-0.55-1.29-0.83-2.07-0.83c-0.83,0-1.5,0.32-2,0.97c-0.51,0.55-0.76,1.31-0.76,2.28h5.6
					C367.75,350.73,367.5,349.93,367.04,349.37z M360.2,347.78c1.15-1.34,2.67-2,4.56-2c2.03,0,3.66,0.69,4.91,2.07
					c1.11,1.34,1.66,3.39,1.66,6.15h-9.19c-0.05,1.11,0.25,1.98,0.9,2.63c0.6,0.55,1.34,0.83,2.21,0.83c0.55,0,1.04-0.16,1.45-0.48
					c0.37-0.32,0.65-0.81,0.83-1.45l3.73,0.62c-0.46,1.29-1.2,2.3-2.21,3.04c-1.06,0.69-2.33,1.04-3.8,1.04
					c-2.49,0-4.31-0.78-5.46-2.35c-0.97-1.24-1.43-2.83-1.38-4.77C358.36,350.8,358.95,349.03,360.2,347.78z"/>
			</g>
		</g>
		<g>
			<path fill-rule="evenodd" clip-rule="evenodd" fill="#C4C4C4" d="M222.24,542.97c-0.05,0.51-0.12,1.04-0.21,1.59
				c-0.78,4.29-3.2,8.02-7.26,11.2c-4.52,3.69-9.7,5.53-15.55,5.53H161.7c-5.9-0.05-10.71-1.87-14.44-5.46
				c-3.55-3.36-5.11-7.35-4.7-11.96c0-0.28,0.02-0.55,0.07-0.83v-0.07c0.05-0.6,0.14-1.17,0.28-1.73c0.09-0.46,0.21-0.88,0.35-1.24
				c1.06-3.64,3.48-6.84,7.26-9.61c1.98-1.61,4.12-2.86,6.43-3.73c2.81-1.06,5.81-1.54,8.99-1.45h36.42
				c3.09-0.05,5.97,0.44,8.64,1.45c2.21,0.88,4.24,2.12,6.08,3.73c3.09,2.86,4.81,6.27,5.18,10.23
				C222.29,541.35,222.29,542.14,222.24,542.97z"/>
		</g>
		<g>
			<path fill-rule="evenodd" clip-rule="evenodd" fill="#C4C4C4" d="M340.29,525.2h36.35c5.76-0.14,10.81,1.57,15.14,5.12
				c4.01,3.22,6.31,7.07,6.91,11.54c0,0.32,0.02,0.67,0.07,1.04v0.14c0.09,4.93-1.87,9.19-5.88,12.79
				c-4.01,3.59-8.96,5.42-14.86,5.46h-37.39c-6.04,0-11.1-1.82-15.21-5.46c-4.33-3.59-6.45-7.86-6.36-12.79v-0.14
				c0-0.51,0.02-0.99,0.07-1.45c0.37-4.29,2.47-7.99,6.29-11.13C329.4,526.77,334.35,525.07,340.29,525.2z"/>
		</g>
		<g>
			<path fill-rule="evenodd" clip-rule="evenodd" fill="#C4C4C4" d="M143.66,570.48c1.66-1.29,3.41-2.35,5.25-3.18
				c3.36-1.57,7-2.33,10.92-2.28h37.39c3.87-0.05,7.35,0.71,10.44,2.28c1.57,0.83,3.06,1.89,4.49,3.18
				c3.78,3.46,5.64,7.67,5.6,12.65c-0.05,0.23-0.07,0.51-0.07,0.83v0.07c-0.41,5.21-2.93,9.72-7.53,13.55
				c-4.88,3.78-10.32,5.69-16.31,5.74h-38.43c-6.27-0.05-11.27-1.96-15-5.74c-3.87-3.83-5.48-8.29-4.84-13.41c0-0.05,0-0.09,0-0.14
				v-0.07C136.26,578.56,138.96,574.07,143.66,570.48z"/>
		</g>
		<g>
			<path fill-rule="evenodd" clip-rule="evenodd" fill="#C4C4C4" d="M233.85,571.86c4.42-3.69,9.65-5.48,15.69-5.39h37.53
				c5.94-0.18,11.04,1.63,15.27,5.46c3.82,3.36,5.94,7.42,6.36,12.16c0,0.37,0,0.78,0,1.24v0.07c-0.18,5.25-2.42,9.81-6.7,13.69
				c-4.42,3.78-9.77,5.69-16.03,5.74h-38.5c-6.17-0.05-11.29-1.96-15.34-5.74c-4.01-3.69-5.87-8.06-5.6-13.13c0-0.18,0-0.37,0-0.55
				l-0.07-0.07c0-0.14,0-0.23,0-0.28C226.83,579.9,229.29,575.5,233.85,571.86z"/>
		</g>
		<g>
			<path fill-rule="evenodd" clip-rule="evenodd" fill="#C4C4C4" d="M340.15,566.4h37.46c5.9-0.09,11.1,1.73,15.62,5.46
				c4.19,3.5,6.59,7.79,7.19,12.86c0.05,0.18,0.07,0.39,0.07,0.62v0.07c0.09,5.21-1.96,9.72-6.15,13.55
				c-4.15,3.78-9.24,5.69-15.28,5.74H340.5c-6.17-0.05-11.43-1.96-15.76-5.74c-4.33-3.82-6.45-8.34-6.36-13.55v-0.07
				c0-0.41,0.02-0.83,0.07-1.24c0.28-4.84,2.4-8.94,6.36-12.3C329,568.15,334.12,566.35,340.15,566.4z"/>
		</g>
		<g>
			<path fill-rule="evenodd" clip-rule="evenodd" fill="#C4C4C4" d="M156.17,609.25h38.5c6.17-0.09,11.36,1.84,15.55,5.81
				c3.46,3.36,5.32,7.33,5.6,11.89c0,0.74-0.02,1.54-0.07,2.42v0.07c-0.51,5.53-3.13,10.32-7.88,14.38
				c-4.93,4.1-10.55,6.17-16.86,6.22h-39.74c-6.27,0-11.36-2.05-15.27-6.15c-3.92-3.96-5.51-8.66-4.77-14.1c0-0.14,0-0.25,0-0.34
				v-0.07c0.69-5.58,3.48-10.32,8.36-14.24C144.42,611.16,149.95,609.2,156.17,609.25z"/>
		</g>
		<g>
			<path fill-rule="evenodd" clip-rule="evenodd" fill="#C4C4C4" d="M287,609.46c6.13-0.09,11.36,1.84,15.69,5.81
				c3.73,3.36,5.83,7.44,6.29,12.23c0.09,0.65,0.14,1.34,0.14,2.07h-0.14c-0.14,5.58-2.37,10.37-6.7,14.38
				c-4.56,4.06-10.07,6.11-16.52,6.15h-39.67c-6.4-0.05-11.66-2.1-15.76-6.15c-4.29-3.92-6.22-8.71-5.81-14.38v-0.07
				c0.32-5.58,2.83-10.37,7.53-14.38c4.56-3.87,10-5.78,16.31-5.74L287,609.46z"/>
		</g>
		<g>
			<path fill-rule="evenodd" clip-rule="evenodd" fill="#C4C4C4" d="M402.77,629.85c0.28,5.58-1.77,10.41-6.15,14.51
				c-4.38,4.05-9.65,6.11-15.83,6.15l-39.74,0.07c-6.4-0.09-11.82-2.19-16.24-6.29c-4.47-4.05-6.68-8.85-6.63-14.38l0.07-0.07
				c0-0.23,0-0.44,0-0.62c0.18-5.39,2.37-9.93,6.57-13.62c4.24-3.96,9.52-5.9,15.83-5.81l38.64-0.07c6.08-0.09,11.4,1.84,15.97,5.81
				c4.56,3.87,7.07,8.52,7.53,13.96c0,0.09,0,0.18,0,0.28V629.85z"/>
		</g>
		<g>
			<path fill-rule="evenodd" clip-rule="evenodd" fill="#C4C4C4" d="M125.69,676.36c0.88-5.85,3.73-10.74,8.57-14.65
				c5.02-4.24,10.76-6.31,17.21-6.22l39.74-0.07c6.45,0,11.77,2.1,15.97,6.29c3.82,3.73,5.74,8.34,5.74,13.82
				c0,0.41-0.02,0.85-0.07,1.31v0.14c-0.55,5.85-3.27,10.94-8.16,15.27c-5.07,4.29-10.83,6.5-17.28,6.63l-41.12,0.07
				c-6.4-0.14-11.66-2.37-15.76-6.71c-3.46-3.59-5.16-7.72-5.11-12.37c-0.05-1.06,0.02-2.05,0.21-2.97v-0.07
				C125.62,676.71,125.64,676.55,125.69,676.36z"/>
		</g>
		<g>
			<path fill-rule="evenodd" clip-rule="evenodd" fill="#C4C4C4" d="M229.64,662.19c4.65-4.05,10.14-6.08,16.45-6.08h39.88
				c6.36-0.09,11.68,1.94,15.97,6.08c4.29,4.05,6.45,8.99,6.5,14.79c-0.05,0.05-0.07,0.12-0.07,0.21
				c-0.14,5.85-2.49,10.94-7.05,15.27c-4.7,4.19-10.16,6.31-16.38,6.36h-41.26c-6.4,0-11.75-2.12-16.04-6.36
				c-4.33-4.33-6.27-9.38-5.81-15.14v-0.14C222.2,671.29,224.8,666.29,229.64,662.19z"/>
		</g>
		<g>
			<path fill-rule="evenodd" clip-rule="evenodd" fill="#C4C4C4" d="M325.36,692.4c-4.61-4.33-6.89-9.4-6.84-15.21l0.07-0.07
				c-0.05-5.9,2.21-10.87,6.77-14.93c4.33-4.05,9.63-6.06,15.9-6.01h39.95c6.31-0.05,11.77,1.96,16.38,6.01
				c4.65,4.1,7.16,9.1,7.53,15c0.23,5.8-1.84,10.87-6.22,15.21c-4.33,4.19-9.7,6.31-16.1,6.36l-41.06,0.14
				C335.29,698.75,329.83,696.59,325.36,692.4z"/>
		</g>
		<g>
			<path fill-rule="evenodd" clip-rule="evenodd" fill="#0947A3" d="M518.61,492.1c0,4.52-0.71,8.75-2.14,12.72
				c-1.34,3.73-3.32,7.19-5.94,10.37c-0.18,0.23-0.37,0.46-0.55,0.69c-0.74,0.83-1.5,1.64-2.28,2.42c-0.42,0.41-0.85,0.85-1.31,1.31
				c-3.59,3.27-7.53,5.71-11.82,7.33c-4.05,1.52-8.43,2.28-13.13,2.28c-4.65,0-9.01-0.76-13.06-2.28c-4.84-1.8-9.24-4.68-13.2-8.64
				c-7.23-7.23-10.85-15.97-10.85-26.2c0-5.07,0.88-9.75,2.63-14.03c1.8-4.47,4.54-8.55,8.22-12.23
				c7.28-7.28,16.04-10.92,26.26-10.92c6.63,0,12.65,1.54,18.04,4.63c2.44,1.34,4.75,3.02,6.91,5.04c0.46,0.42,0.9,0.83,1.31,1.24
				c1.01,1.01,1.96,2.05,2.83,3.11C515.92,475.53,518.61,483.25,518.61,492.1z"/>
		</g>
		<g>
			<path fill-rule="evenodd" clip-rule="evenodd" fill="#0947A3" d="M679.03,555.48c0,10.28-3.64,19.03-10.92,26.26
				c-7.23,7.28-15.99,10.92-26.26,10.92c-10.23,0-18.98-3.64-26.26-10.92c-7.23-7.23-10.85-15.99-10.85-26.26
				c0-10.23,3.62-18.98,10.85-26.26c7.28-7.23,16.04-10.85,26.26-10.85c10.28,0,19.03,3.62,26.26,10.85
				C675.39,536.49,679.03,545.25,679.03,555.48z"/>
		</g>
		<g>
			<path fill-rule="evenodd" clip-rule="evenodd" fill="#023283" d="M625.4,644.08c-6.5-0.09-11.98-2.19-16.45-6.29
				c-4.61-4.19-6.89-9.1-6.84-14.72l0.14-0.07c0-5.76,2.24-10.6,6.71-14.51v0.07c4.29-4.05,9.63-6.04,16.04-5.94l38.63-0.07
				c6.17-0.09,11.61,1.87,16.31,5.88h-0.14c4.79,3.96,7.35,8.8,7.67,14.51V623c0.28,5.67-1.8,10.62-6.22,14.86
				c-4.47,4.05-9.84,6.11-16.1,6.15L625.4,644.08z M609.5,637.24c4.29,4.01,9.58,6.06,15.9,6.15l39.74-0.07
				c6.08-0.05,11.29-2.05,15.62-6.01c4.29-4.05,6.27-8.8,5.95-14.24V623c-0.32-5.48-2.76-10.16-7.33-14.03
				c-4.52-3.92-9.77-5.81-15.76-5.67l-38.63,0.07c-6.22-0.09-11.38,1.8-15.48,5.67c-4.38,3.73-6.57,8.39-6.57,13.96l-0.07,0.07
				C602.82,628.51,605.03,633.23,609.5,637.24z"/>
			<path fill-rule="evenodd" clip-rule="evenodd" fill="#D6D6D6" d="M609.5,637.24c-4.47-4.01-6.68-8.73-6.63-14.17l0.07-0.07
				c0-5.58,2.19-10.23,6.57-13.96c4.1-3.87,9.26-5.76,15.48-5.67l38.63-0.07c5.99-0.14,11.24,1.75,15.76,5.67
				c4.56,3.87,7,8.55,7.33,14.03v0.07c0.32,5.44-1.66,10.18-5.95,14.24c-4.33,3.96-9.54,5.97-15.62,6.01l-39.74,0.07
				C619.08,643.3,613.79,641.25,609.5,637.24z"/>
		</g>
		<g>
			<path fill-rule="evenodd" clip-rule="evenodd" fill="#023283" d="M606.18,674.15l-0.07,0.07c-0.05,5.81,2.23,10.87,6.84,15.21
				c4.47,4.19,9.95,6.34,16.45,6.43l41.05-0.07c6.36-0.05,11.73-2.17,16.1-6.36c4.38-4.33,6.45-9.4,6.22-15.21
				c-0.42-5.9-2.95-10.9-7.6-15c-4.61-4.05-10.04-6.06-16.31-6.01h-39.95c-6.31-0.05-11.63,1.96-15.97,6.01
				C608.4,663.28,606.14,668.25,606.18,674.15z M605.49,674.15c-0.05-6.13,2.28-11.27,6.98-15.41c4.47-4.24,9.95-6.34,16.45-6.29
				h39.95c6.45-0.05,12.05,2.05,16.79,6.29v-0.07c4.84,4.15,7.44,9.31,7.81,15.48v0.07c0.23,5.99-1.91,11.22-6.43,15.69
				c-4.51,4.38-10.04,6.59-16.59,6.63l-41.05,0.07c-6.68-0.09-12.33-2.33-16.93-6.7c-4.75-4.47-7.1-9.7-7.05-15.69L605.49,674.15z"
				/>
			<path fill-rule="evenodd" clip-rule="evenodd" fill="#D4D4D4" fill-opacity="0.9843" d="M606.18,674.15
				c-0.05-5.9,2.21-10.87,6.77-14.93c4.33-4.05,9.65-6.06,15.97-6.01h39.95c6.27-0.05,11.7,1.96,16.31,6.01
				c4.65,4.1,7.19,9.1,7.6,15c0.23,5.81-1.84,10.87-6.22,15.21c-4.38,4.19-9.75,6.31-16.1,6.36l-41.05,0.07
				c-6.5-0.09-11.98-2.24-16.45-6.43c-4.61-4.33-6.89-9.4-6.84-15.21L606.18,674.15z"/>
		</g>
		<g>
			<path fill-rule="evenodd" clip-rule="evenodd" fill="#D8D8D8" d="M592.29,536.95c0,4.05-0.58,7.9-1.73,11.54
				c-1.75,5.44-4.81,10.34-9.19,14.72c-7.23,7.28-15.99,10.92-26.26,10.92c-10.23,0-18.98-3.64-26.26-10.92
				s-10.92-16.04-10.92-26.26c0-10.23,3.64-18.98,10.92-26.26s16.04-10.92,26.26-10.92c10.28,0,19.03,3.64,26.26,10.92
				c4.38,4.38,7.44,9.31,9.19,14.79C591.71,529.07,592.29,532.9,592.29,536.95z"/>
			
				<path fill-rule="evenodd" clip-rule="evenodd" fill="none" stroke="#0947A3" stroke-width="0.1" stroke-linecap="round" stroke-linejoin="round" stroke-miterlimit="3" d="
				M592.29,536.95c0,4.05-0.58,7.9-1.73,11.54c-1.75,5.44-4.81,10.34-9.19,14.72c-7.23,7.28-15.99,10.92-26.26,10.92
				c-10.23,0-18.98-3.64-26.26-10.92s-10.92-16.04-10.92-26.26c0-10.23,3.64-18.98,10.92-26.26s16.04-10.92,26.26-10.92
				c10.28,0,19.03,3.64,26.26,10.92c4.38,4.38,7.44,9.31,9.19,14.79C591.71,529.07,592.29,532.9,592.29,536.95z"/>
		</g>
		<g>
			<path fill-rule="evenodd" clip-rule="evenodd" fill="#C4C4C4" d="M235.24,557.27c-3.96-3.59-5.81-7.83-5.53-12.72v-0.07
				c0.41-5.02,2.81-9.29,7.19-12.79c4.33-3.41,9.45-5.12,15.34-5.12h36.42c5.71,0,10.67,1.71,14.86,5.12
				c4.01,3.5,6.01,7.76,6.01,12.79c-0.14,4.93-2.35,9.19-6.63,12.79c-4.29,3.55-9.35,5.34-15.21,5.39h-37.46
				C244.24,562.62,239.24,560.82,235.24,557.27z"/>
		</g>
	</g>
</g>
</svg>
