<?xml version="1.0" encoding="utf-8"?>
<!-- Generator: Adobe Illustrator 16.0.0, SVG Export Plug-In . SVG Version: 6.00 Build 0)  -->
<!DOCTYPE svg PUBLIC "-//W3C//DTD SVG 1.1//EN" "http://www.w3.org/Graphics/SVG/1.1/DTD/svg11.dtd">
<svg version="1.1" id="Layer_1" xmlns="http://www.w3.org/2000/svg" xmlns:xlink="http://www.w3.org/1999/xlink" x="0px" y="0px"
	 width="190px" height="142.67px" viewBox="0 0 190 142.67" enable-background="new 0 0 190 142.67" xml:space="preserve">
<g>
	<g>
		
			<path fill-rule="evenodd" clip-rule="evenodd" fill="none" stroke="#CA0202" stroke-width="4" stroke-linecap="round" stroke-linejoin="round" stroke-miterlimit="3" d="
			M8.95,15.13c1.1-11.3,3.33-12.53,6.7-3.7c3.3,8.8,6.62,12.88,9.95,12.25c3.3-0.63,4.85,0.58,4.65,3.65s1.33,4.6,4.6,4.6
			s6.17,1.35,8.7,4.05c2.47,2.67,4.28,6.97,5.45,12.9c1.17,6,2.15,13.87,2.95,23.6c0.83,9.73,15.2,15.08,43.1,16.05
			c24.73-0.2,40.02-10.3,45.85-30.3c5.43-18.6,10.45-26.68,15.05-24.25c4.9,2.6,9.88-2.42,14.95-15.05
			c5.03-12.67,8.08-12.77,9.15-0.3"/>
	</g>
	<g>
		
			<path fill-rule="evenodd" clip-rule="evenodd" fill="none" stroke="#000000" stroke-width="4" stroke-linecap="round" stroke-linejoin="round" stroke-miterlimit="3" stroke-opacity="0.2471" d="
			M153.9,42.73c3.47-0.03,6.37-0.17,8.7-0.4c3.07-0.4,5.5-2.48,7.3-6.25c0.03-0.7,0.57-1.13,1.6-1.3c-0.63-4.47-0.4-7.95,0.7-10.45
			c1.33-2.9,3.17-4.35,5.5-4.35 M28.55,128.13c-0.23,12.7,9.12,11.75,28.05-2.85c18.97-14.6,35.03-25.32,48.2-32.15
			c3.07-0.57,5.8-1.57,8.2-3c2.33-1.47,5.87-3.23,10.6-5.3c4.67-2.17,7.9-3.7,9.7-4.6c1.77-0.93,3.82-2.28,6.15-4.05
			c2.27-1.8,6.2-5.15,11.8-10.05 M16.9,33.53c0.2,0.07,2,0.27,5.4,0.6c3.37,0.3,5.37,0.6,6,0.9c0.73,0.33,1.1,1.3,1.1,2.9
			c0,1.57,0.5,2.45,1.5,2.65c1.87,0.37,3.55,1.72,5.05,4.05c1.13,1.8,1.7,3.12,1.7,3.95c0,1.37-0.58,4.92-1.75,10.65 M30.6,72.98
			c0,4.87-0.38,10.85-1.15,17.95c-0.4,3.57-0.78,6.98-1.15,10.25c0,0.93,0.13,2.88,0.4,5.85c0.3,2.97,0.45,4.77,0.45,5.4
			c0,2.87-0.48,7.15-1.45,12.85c0,0.97,0.1,1.75,0.3,2.35"/>
	</g>
	<g>
		<radialGradient id="SVGID_1_" cx="167.5" cy="22.9712" r="10.5222" gradientUnits="userSpaceOnUse">
			<stop  offset="0" style="stop-color:#FFFFFF"/>
			<stop  offset="1" style="stop-color:#FFFFFF;stop-opacity:0"/>
		</radialGradient>
		<path fill-rule="evenodd" clip-rule="evenodd" fill="url(#SVGID_1_)" d="M172.15,13.03c0.13-0.1,0.33-0.1,0.6,0
			c0.13,0.03,0.25,0.15,0.35,0.35c0.1,0.17,0.12,0.37,0.05,0.6c-2.6,7.43-5.95,13.68-10.05,18.75c-0.13,0.17-0.3,0.25-0.5,0.25
			c-0.2,0-0.38-0.05-0.55-0.15c-0.17-0.17-0.25-0.33-0.25-0.5c-0.07-0.2-0.02-0.38,0.15-0.55c3.97-4.9,7.25-11,9.85-18.3
			C171.83,13.28,171.95,13.13,172.15,13.03z"/>
		<radialGradient id="SVGID_2_" cx="147.2627" cy="45.2349" r="14.3055" gradientUnits="userSpaceOnUse">
			<stop  offset="0" style="stop-color:#FFFFFF"/>
			<stop  offset="1" style="stop-color:#FFFFFF;stop-opacity:0"/>
		</radialGradient>
		<path fill-rule="evenodd" clip-rule="evenodd" fill="url(#SVGID_2_)" d="M154.75,32.53c0.07,0.2,0.05,0.4-0.05,0.6
			c-0.13,0.13-0.3,0.22-0.5,0.25c-4.97,1.23-9.3,9.45-13,24.65c-0.07,0.13-0.2,0.27-0.4,0.4c-0.17,0.1-0.33,0.13-0.5,0.1
			c-0.2-0.07-0.35-0.18-0.45-0.35c-0.13-0.2-0.15-0.38-0.05-0.55c3.83-16,8.53-24.57,14.1-25.7c0.2-0.03,0.4,0.02,0.6,0.15
			C154.63,32.18,154.72,32.33,154.75,32.53z"/>
		<radialGradient id="SVGID_3_" cx="42.25" cy="43.5249" r="14.1068" gradientUnits="userSpaceOnUse">
			<stop  offset="0" style="stop-color:#FFFFFF"/>
			<stop  offset="1" style="stop-color:#FFFFFF;stop-opacity:0"/>
		</radialGradient>
		<path fill-rule="evenodd" clip-rule="evenodd" fill="url(#SVGID_3_)" d="M49.6,55.88c-0.2-0.13-0.3-0.3-0.3-0.5
			c-1.6-15.83-6.53-23.45-14.8-22.85c-0.2,0-0.37-0.05-0.5-0.15c-0.2-0.13-0.3-0.3-0.3-0.5c0-0.2,0.07-0.37,0.2-0.5
			c0.1-0.2,0.25-0.3,0.45-0.3c9.23-0.9,14.7,7.15,16.4,24.15c0,0.2-0.03,0.4-0.1,0.6c-0.17,0.13-0.35,0.2-0.55,0.2
			C49.9,56.03,49.73,55.98,49.6,55.88z"/>
	</g>
</g>
</svg>
