<?xml version="1.0" encoding="utf-8"?>
<!-- Generator: Adobe Illustrator 16.0.0, SVG Export Plug-In . SVG Version: 6.00 Build 0)  -->
<!DOCTYPE svg PUBLIC "-//W3C//DTD SVG 1.1//EN" "http://www.w3.org/Graphics/SVG/1.1/DTD/svg11.dtd">
<svg version="1.1" id="Layer_1" xmlns="http://www.w3.org/2000/svg" xmlns:xlink="http://www.w3.org/1999/xlink" x="0px" y="0px"
	 width="17.44px" height="8.13px" viewBox="0 0 17.44 8.13" enable-background="new 0 0 17.44 8.13" xml:space="preserve">
<g>
	<g>
		<g>
			
				<radialGradient id="SVGID_1_" cx="50.3838" cy="-38.3726" r="2.9407" gradientTransform="matrix(0.9862 0.1658 -0.1233 0.6631 -46.0288 23.6924)" gradientUnits="userSpaceOnUse">
				<stop  offset="0" style="stop-color:#FFFFFF"/>
				<stop  offset="0.1137" style="stop-color:#FCFCFC"/>
				<stop  offset="0.2118" style="stop-color:#F9F9F9;stop-opacity:0.6431"/>
				<stop  offset="0.3961" style="stop-color:#F9F9F9;stop-opacity:0"/>
			</radialGradient>
			<path fill-rule="evenodd" clip-rule="evenodd" fill="url(#SVGID_1_)" d="M10.29,6.5c0.4-0.33,0.62-0.75,0.65-1.25
				c0,0.07,0,0.12,0,0.15c0,0.53-0.22,1-0.65,1.4C9.85,7.23,9.34,7.45,8.74,7.45c-0.57,0-1.07-0.22-1.5-0.65
				c-0.4-0.4-0.6-0.87-0.6-1.4c0-0.03,0-0.08,0-0.15c0.03,0.5,0.23,0.92,0.6,1.25c0.43,0.4,0.93,0.6,1.5,0.6
				C9.34,7.1,9.85,6.9,10.29,6.5z"/>
		</g>
		<g>
			<linearGradient id="SVGID_2_" gradientUnits="userSpaceOnUse" x1="8.7246" y1="7" x2="8.7496" y2="2.9">
				<stop  offset="0" style="stop-color:#81858A"/>
				<stop  offset="0.549" style="stop-color:#808989"/>
				<stop  offset="1" style="stop-color:#4F504E"/>
			</linearGradient>
			<path fill-rule="evenodd" clip-rule="evenodd" fill="url(#SVGID_2_)" d="M10.19,6.45C9.82,6.82,9.34,7,8.74,7
				c-0.53,0-1-0.18-1.4-0.55c-0.43-0.4-0.65-0.9-0.65-1.5c0-0.57,0.22-1.05,0.65-1.45c0.4-0.37,0.87-0.55,1.4-0.55
				c0.6,0,1.08,0.18,1.45,0.55c0.4,0.4,0.6,0.88,0.6,1.45C10.79,5.55,10.59,6.05,10.19,6.45z"/>
		</g>
		<g>
			
				<radialGradient id="SVGID_3_" cx="-291.0669" cy="107.1387" r="0.9108" gradientTransform="matrix(0.6862 -0.7274 0.9607 0.7274 104.3948 -285.4026)" gradientUnits="userSpaceOnUse">
				<stop  offset="0" style="stop-color:#FFFFFF"/>
				<stop  offset="0.1765" style="stop-color:#FFFFFF"/>
				<stop  offset="0.3059" style="stop-color:#FFFFFF;stop-opacity:0.4235"/>
				<stop  offset="0.4902" style="stop-color:#FFFFFF;stop-opacity:0.2314"/>
				<stop  offset="0.651" style="stop-color:#FFFFFF;stop-opacity:0.0824"/>
				<stop  offset="1" style="stop-color:#FFFFFF;stop-opacity:0"/>
			</radialGradient>
			<path fill-rule="evenodd" clip-rule="evenodd" fill="url(#SVGID_3_)" d="M7.44,3.35c0.3,0,0.55,0.08,0.75,0.25
				c0.27,0.2,0.4,0.43,0.4,0.7C8.65,4.57,8.6,4.78,8.44,4.95C8.27,5.12,8.04,5.2,7.74,5.2c-0.27,0-0.52-0.1-0.75-0.3
				C6.75,4.77,6.6,4.57,6.54,4.3C6.5,4.03,6.55,3.82,6.69,3.65C6.89,3.45,7.14,3.35,7.44,3.35z"/>
		</g>
		<g>
			
				<radialGradient id="SVGID_4_" cx="115.9746" cy="-285.3535" r="0.897" gradientTransform="matrix(0.6264 0.7795 -0.8352 0.8909 -301.4826 167.7105)" gradientUnits="userSpaceOnUse">
				<stop  offset="0" style="stop-color:#FFFFFF"/>
				<stop  offset="0.1765" style="stop-color:#FFFFFF"/>
				<stop  offset="0.3059" style="stop-color:#FFFFFF;stop-opacity:0.4235"/>
				<stop  offset="0.4902" style="stop-color:#FFFFFF;stop-opacity:0.2314"/>
				<stop  offset="0.651" style="stop-color:#FFFFFF;stop-opacity:0.0824"/>
				<stop  offset="1" style="stop-color:#FFFFFF;stop-opacity:0"/>
			</radialGradient>
			<path fill-rule="evenodd" clip-rule="evenodd" fill="url(#SVGID_4_)" d="M9.39,4.9C9.15,4.93,8.94,4.87,8.74,4.7
				C8.6,4.5,8.55,4.25,8.59,3.95c0-0.3,0.13-0.55,0.4-0.75c0.17-0.23,0.38-0.35,0.65-0.35c0.23-0.03,0.42,0.03,0.55,0.2
				c0.2,0.2,0.28,0.45,0.25,0.75c0,0.3-0.12,0.55-0.35,0.75C9.89,4.78,9.65,4.9,9.39,4.9z"/>
		</g>
		<g>
			<path fill-rule="evenodd" clip-rule="evenodd" fill="#6C6E6E" d="M9.69,4.9v0.05c0,0.3-0.1,0.55-0.3,0.75C9.22,5.9,8.99,6,8.69,6
				C8.42,6,8.2,5.9,8.04,5.7c-0.2-0.13-0.3-0.3-0.3-0.5c-0.07-0.07-0.1-0.15-0.1-0.25l0.1-0.05c0-0.23,0.1-0.43,0.3-0.6
				C8.2,4.07,8.42,3.95,8.69,3.95c0.3,0,0.53,0.12,0.7,0.35c0.1,0.1,0.18,0.2,0.25,0.3C9.67,4.77,9.69,4.87,9.69,4.9z"/>
		</g>
		<g>
			<radialGradient id="SVGID_5_" cx="8.7373" cy="5.5498" r="1.0375" gradientUnits="userSpaceOnUse">
				<stop  offset="0" style="stop-color:#676A60"/>
				<stop  offset="0.4431" style="stop-color:#70736B"/>
				<stop  offset="0.502" style="stop-color:#74776F"/>
				<stop  offset="1" style="stop-color:#7E7F77"/>
			</radialGradient>
			<path fill-rule="evenodd" clip-rule="evenodd" fill="url(#SVGID_5_)" d="M8.59,5.75H8.54V5.7H8.39v0.05
				c-0.1-0.03-0.2-0.1-0.3-0.2c-0.1-0.1-0.17-0.22-0.2-0.35c0-0.07,0-0.12,0-0.15v-0.1c0-0.17,0.1-0.35,0.3-0.55
				C8.32,4.23,8.5,4.15,8.74,4.15C9,4.15,9.22,4.23,9.39,4.4c0.1,0.1,0.18,0.22,0.25,0.35v0.2c0,0.2-0.1,0.4-0.3,0.6V5.5
				c-0.1,0.13-0.22,0.22-0.35,0.25c-0.07,0-0.15,0-0.25,0C8.7,5.75,8.65,5.75,8.59,5.75z"/>
			<path fill-rule="evenodd" clip-rule="evenodd" fill="#989C9A" d="M9.34,5.55c-0.07,0.23-0.27,0.33-0.6,0.3
				c0.1-0.06,0.18-0.1,0.25-0.1C9.12,5.72,9.24,5.63,9.34,5.5V5.55z"/>
			<path fill-rule="evenodd" clip-rule="evenodd" fill="#7E8687" d="M8.39,5.75v0.1L8.44,5.9h0.1V5.85c0.03,0,0.05-0.03,0.05-0.1
				c0.07,0,0.12,0,0.15,0c0.1,0,0.18,0,0.25,0c-0.07,0-0.15,0.04-0.25,0.1c0.33,0.03,0.53-0.07,0.6-0.3c0.2-0.2,0.3-0.4,0.3-0.6
				v-0.2l0.05,0.2v0.1c0,0.3-0.1,0.52-0.3,0.65C9.22,5.9,9,6,8.74,6C8.5,6,8.32,5.9,8.19,5.7c-0.17-0.13-0.27-0.3-0.3-0.5
				c0.03,0.13,0.1,0.25,0.2,0.35C8.19,5.65,8.29,5.72,8.39,5.75z"/>
			<path fill-rule="evenodd" clip-rule="evenodd" fill="#E0E6EA" d="M8.39,5.75V5.7h0.15v0.05h0.05c0,0.07-0.02,0.1-0.05,0.1V5.9
				h-0.1L8.39,5.85V5.75z"/>
		</g>
		<g>
			
				<radialGradient id="SVGID_6_" cx="-223.7471" cy="-599.4155" r="0.4257" gradientTransform="matrix(-0.7634 0.6459 -0.9102 -0.8221 -707.3506 -343.5569)" gradientUnits="userSpaceOnUse">
				<stop  offset="0" style="stop-color:#FFFFFF;stop-opacity:0.2118"/>
				<stop  offset="0.298" style="stop-color:#FFFFFF;stop-opacity:0.2196"/>
				<stop  offset="0.4902" style="stop-color:#FFFFFF;stop-opacity:0.1059"/>
				<stop  offset="0.651" style="stop-color:#FFFFFF;stop-opacity:0.0471"/>
				<stop  offset="1" style="stop-color:#FFFFFF;stop-opacity:0"/>
			</radialGradient>
			<path fill-rule="evenodd" clip-rule="evenodd" fill="url(#SVGID_6_)" d="M9.49,5.05C9.39,5.08,9.27,5.1,9.14,5.1
				c-0.17,0-0.3-0.05-0.4-0.15C8.64,4.88,8.59,4.77,8.59,4.6c-0.03-0.13,0-0.23,0.1-0.3c0.1-0.1,0.22-0.12,0.35-0.05
				c0.13,0,0.25,0.05,0.35,0.15c0.1,0.1,0.15,0.2,0.15,0.3C9.54,4.83,9.52,4.95,9.49,5.05z"/>
		</g>
		<g>
			
				<radialGradient id="SVGID_7_" cx="-223.2554" cy="-599.3159" r="0.4257" gradientTransform="matrix(-0.7634 0.6459 -0.9102 -0.8221 -707.3346 -343.5424)" gradientUnits="userSpaceOnUse">
				<stop  offset="0" style="stop-color:#FFFFFF;stop-opacity:0.2118"/>
				<stop  offset="0.298" style="stop-color:#FFFFFF;stop-opacity:0.2196"/>
				<stop  offset="0.4902" style="stop-color:#FFFFFF;stop-opacity:0.102"/>
				<stop  offset="0.651" style="stop-color:#FFFFFF;stop-opacity:0.0471"/>
				<stop  offset="1" style="stop-color:#FFFFFF;stop-opacity:0"/>
			</radialGradient>
			<path fill-rule="evenodd" clip-rule="evenodd" fill="url(#SVGID_7_)" d="M8.99,5.25c-0.1,0.1-0.23,0.13-0.4,0.1
				c-0.13,0-0.25-0.05-0.35-0.15C8.14,5.1,8.09,5,8.09,4.9c0-0.13,0.05-0.23,0.15-0.3c0.03-0.1,0.13-0.12,0.3-0.05
				c0.13,0,0.25,0.05,0.35,0.15c0.1,0.1,0.15,0.18,0.15,0.25C9.04,5.12,9.02,5.22,8.99,5.25z"/>
		</g>
		<g>
			
				<radialGradient id="SVGID_8_" cx="-439.1289" cy="75.085" r="0.3321" gradientTransform="matrix(0.3387 -0.9409 3.199 0.6774 -83.0197 -457.2369)" gradientUnits="userSpaceOnUse">
				<stop  offset="0" style="stop-color:#FFFFFF"/>
				<stop  offset="0.1765" style="stop-color:#FFFFFF"/>
				<stop  offset="0.3059" style="stop-color:#FFFFFF;stop-opacity:0.4235"/>
				<stop  offset="0.4902" style="stop-color:#FFFFFF;stop-opacity:0.2314"/>
				<stop  offset="0.651" style="stop-color:#FFFFFF;stop-opacity:0.0824"/>
				<stop  offset="1" style="stop-color:#FFFFFF;stop-opacity:0"/>
			</radialGradient>
			<path fill-rule="evenodd" clip-rule="evenodd" fill="url(#SVGID_8_)" d="M9.49,6.95c0,0.1-0.12,0.17-0.35,0.2
				c-0.2,0-0.48-0.02-0.85-0.05C8.05,7,7.84,6.9,7.64,6.8c-0.2-0.1-0.27-0.17-0.2-0.2c0-0.1,0.12-0.18,0.35-0.25
				c0.2,0,0.45,0.03,0.75,0.1c0.3,0.1,0.53,0.18,0.7,0.25C9.44,6.8,9.52,6.88,9.49,6.95z"/>
		</g>
		<g>
			
				<radialGradient id="SVGID_9_" cx="-595.7959" cy="-264.8423" r="0.3363" gradientTransform="matrix(-0.7433 -0.669 1.5609 -2.1556 -19.2668 -963.2976)" gradientUnits="userSpaceOnUse">
				<stop  offset="0" style="stop-color:#FFFFFF"/>
				<stop  offset="0.1765" style="stop-color:#FFFFFF"/>
				<stop  offset="0.3059" style="stop-color:#FFFFFF;stop-opacity:0.4235"/>
				<stop  offset="0.4902" style="stop-color:#FFFFFF;stop-opacity:0.2314"/>
				<stop  offset="0.651" style="stop-color:#FFFFFF;stop-opacity:0.0824"/>
				<stop  offset="1" style="stop-color:#FFFFFF;stop-opacity:0"/>
			</radialGradient>
			<path fill-rule="evenodd" clip-rule="evenodd" fill="url(#SVGID_9_)" d="M10.44,6.35c-0.1,0.2-0.22,0.35-0.35,0.45
				c-0.2,0.1-0.33,0.12-0.4,0.05c-0.03-0.03-0.03-0.15,0-0.35c0.07-0.2,0.17-0.4,0.3-0.6c0.13-0.17,0.28-0.3,0.45-0.4
				c0.13-0.1,0.23-0.13,0.3-0.1c0.1,0.07,0.1,0.18,0,0.35C10.67,5.95,10.57,6.15,10.44,6.35z"/>
		</g>
	</g>
	<g>
		<g>
			<path fill-rule="evenodd" clip-rule="evenodd" fill="#151515" d="M1.54,3.8c0.03-0.03,0.1-0.08,0.2-0.15l7.3-1.1h0.1l7,1.05
				c0.37,0.13,0.6,0.32,0.7,0.55c0,0.07,0,0.12,0,0.15c-0.1-0.27-0.33-0.45-0.7-0.55l-7-1.05h-0.1L1.54,3.8z"/>
			<path fill-rule="evenodd" clip-rule="evenodd" fill="#262722" d="M16.84,4.3v0.1c-0.03,0.3-0.2,0.52-0.5,0.65
				c-0.04,0.03-0.1,0.05-0.2,0.05l-7,1.05l-7.75-1.1v-0.1c-0.07-0.13-0.12-0.27-0.15-0.4c0-0.3,0.1-0.55,0.3-0.75l7.5-1.1h0.1
				l7,1.05C16.5,3.85,16.74,4.03,16.84,4.3z"/>
			<path fill-rule="evenodd" clip-rule="evenodd" d="M0.84,5.05h0.55l7.75,1.1l7-1.05c0.1,0,0.17-0.02,0.2-0.05
				C16.2,5.18,15.92,5.3,15.49,5.4L8.84,6.3l-7.6-1.2C1.07,5.1,0.94,5.08,0.84,5.05z"/>
			<linearGradient id="SVGID_10_" gradientUnits="userSpaceOnUse" x1="1.1626" y1="3.5752" x2="1.1626" y2="5.3252">
				<stop  offset="0" style="stop-color:#000000"/>
				<stop  offset="0.4431" style="stop-color:#444444"/>
				<stop  offset="0.9804" style="stop-color:#000000"/>
			</linearGradient>
			<path fill-rule="evenodd" clip-rule="evenodd" fill="url(#SVGID_10_)" d="M0.84,5.05H0.79c-0.13-0.1-0.2-0.35-0.2-0.75
				C0.62,4.03,0.8,3.85,1.14,3.75l0.6-0.1c-0.1,0.07-0.17,0.12-0.2,0.15c-0.2,0.2-0.3,0.45-0.3,0.75c0.03,0.13,0.08,0.27,0.15,0.4
				v0.1H0.84z"/>
		</g>
		<g>
			<path fill-rule="evenodd" clip-rule="evenodd" fill="#0D0D0B" d="M15.34,4.45c0,0.17-0.08,0.3-0.25,0.4
				c-0.13,0.07-0.3,0.1-0.5,0.1c-0.2,0-0.37-0.03-0.5-0.1c-0.17-0.1-0.25-0.23-0.25-0.4c0-0.13,0.08-0.25,0.25-0.35
				c0.13-0.1,0.3-0.15,0.5-0.15c0.23,0,0.4,0.05,0.5,0.15C15.25,4.2,15.34,4.32,15.34,4.45z"/>
		</g>
		<g>
			
				<radialGradient id="SVGID_11_" cx="8.4902" cy="-501.4414" r="0.5993" gradientTransform="matrix(8.333330e-004 1 1.4375 8.333330e-004 734.6526 -3.6215)" gradientUnits="userSpaceOnUse">
				<stop  offset="0" style="stop-color:#FFFFFF;stop-opacity:0.7059"/>
				<stop  offset="0.251" style="stop-color:#FCFCFC;stop-opacity:0.102"/>
				<stop  offset="1" style="stop-color:#FCFCFC;stop-opacity:7.843138e-003"/>
			</radialGradient>
			<path fill-rule="evenodd" clip-rule="evenodd" fill="url(#SVGID_11_)" d="M13.59,4.45c0,0.17,0.07,0.3,0.2,0.4
				c0.13,0.06,0.23,0.1,0.33,0.1c-0.19,0-0.35-0.04-0.47-0.1c-0.13-0.1-0.2-0.23-0.2-0.4c0-0.13,0.07-0.25,0.2-0.35
				c0.13-0.1,0.3-0.15,0.5-0.15c-0.1,0-0.22,0.05-0.35,0.15C13.65,4.2,13.59,4.32,13.59,4.45z"/>
		</g>
		<g>
			<linearGradient id="SVGID_12_" gradientUnits="userSpaceOnUse" x1="13.5254" y1="4.4751" x2="15.8504" y2="4.4751">
				<stop  offset="0" style="stop-color:#782E1E"/>
				<stop  offset="0.6275" style="stop-color:#6C281B"/>
				<stop  offset="1" style="stop-color:#581D16"/>
			</linearGradient>
			<path fill-rule="evenodd" clip-rule="evenodd" fill="url(#SVGID_12_)" d="M15.19,4.1c0.13,0.1,0.2,0.22,0.2,0.35
				c0,0.17-0.07,0.3-0.2,0.4c-0.1,0.07-0.25,0.1-0.45,0.1s-0.37-0.03-0.5-0.1c-0.17-0.1-0.25-0.23-0.25-0.4
				c0-0.13,0.08-0.25,0.25-0.35c0.13-0.07,0.3-0.1,0.5-0.1S15.09,4.03,15.19,4.1z"/>
		</g>
		<g>
			
				<radialGradient id="SVGID_13_" cx="5.3379" cy="5.6504" r="2.6622" gradientTransform="matrix(-4.371139e-008 1 -1.4742 -6.443839e-008 13.6675 0.3125)" gradientUnits="userSpaceOnUse">
				<stop  offset="0" style="stop-color:#FFFFFF;stop-opacity:0.5098"/>
				<stop  offset="0.5804" style="stop-color:#FFFFFF;stop-opacity:0.2941"/>
				<stop  offset="1" style="stop-color:#FFFFFF;stop-opacity:0"/>
			</radialGradient>
			<path fill-rule="evenodd" clip-rule="evenodd" fill="url(#SVGID_13_)" d="M9.04,6.15L1.54,5.1V5.05c0.9-0.13,3.43,0.23,7.6,1.1
				H9.04z"/>
		</g>
		<g>
			
				<radialGradient id="SVGID_14_" cx="56.0254" cy="-383.48" r="0.455" gradientTransform="matrix(0.3571 0.9341 -0.4121 0.0824 -176.7463 -15.8762)" gradientUnits="userSpaceOnUse">
				<stop  offset="0" style="stop-color:#FFFFFF"/>
				<stop  offset="0.1765" style="stop-color:#FFFFFF"/>
				<stop  offset="0.3059" style="stop-color:#FFFFFF;stop-opacity:0.4235"/>
				<stop  offset="0.4902" style="stop-color:#FFFFFF;stop-opacity:0.2314"/>
				<stop  offset="0.651" style="stop-color:#FFFFFF;stop-opacity:0.0824"/>
				<stop  offset="1" style="stop-color:#FFFFFF;stop-opacity:0"/>
			</radialGradient>
			<path fill-rule="evenodd" clip-rule="evenodd" fill="url(#SVGID_14_)" d="M1.14,4.4c0.07,0,0.12,0.05,0.15,0.15
				c0.07,0.03,0.12,0.13,0.15,0.3C1.5,4.92,1.54,5,1.54,5.1c0,0.1-0.03,0.15-0.1,0.15C1.4,5.25,1.35,5.2,1.29,5.1
				C1.19,5.07,1.12,5,1.09,4.9c0-0.13,0-0.25,0-0.35C1.09,4.48,1.1,4.43,1.14,4.4z"/>
		</g>
		<g>
			
				<radialGradient id="SVGID_15_" cx="-132.4976" cy="-594.71" r="0.2298" gradientTransform="matrix(-0.7071 0.7071 -0.7071 -0.3807 -512.7762 -128.846)" gradientUnits="userSpaceOnUse">
				<stop  offset="0" style="stop-color:#FFFFFF"/>
				<stop  offset="0.1765" style="stop-color:#FFFFFF"/>
				<stop  offset="0.3059" style="stop-color:#FFFFFF;stop-opacity:0.4235"/>
				<stop  offset="0.4902" style="stop-color:#FFFFFF;stop-opacity:0.2314"/>
				<stop  offset="0.651" style="stop-color:#FFFFFF;stop-opacity:0.0824"/>
				<stop  offset="1" style="stop-color:#FFFFFF;stop-opacity:0"/>
			</radialGradient>
			<path fill-rule="evenodd" clip-rule="evenodd" fill="url(#SVGID_15_)" d="M1.59,3.75c0.07,0,0.1,0.02,0.1,0.05
				c0,0.07-0.03,0.12-0.1,0.15C1.55,3.98,1.5,4,1.44,4C1.4,4.07,1.35,4.07,1.29,4C1.25,4,1.24,3.98,1.24,3.95
				c0-0.03,0.02-0.08,0.05-0.15C1.35,3.77,1.4,3.75,1.44,3.75C1.5,3.68,1.55,3.68,1.59,3.75z"/>
		</g>
	</g>
	<g>
		<g>
			
				<radialGradient id="SVGID_16_" cx="50.1641" cy="-39.5562" r="2.9407" gradientTransform="matrix(0.9862 0.1658 -0.1233 0.6631 -45.9583 23.3134)" gradientUnits="userSpaceOnUse">
				<stop  offset="0" style="stop-color:#FFFFFF"/>
				<stop  offset="0.1137" style="stop-color:#FCFCFC"/>
				<stop  offset="0.2118" style="stop-color:#F9F9F9;stop-opacity:0.6431"/>
				<stop  offset="0.3961" style="stop-color:#F9F9F9;stop-opacity:0"/>
			</radialGradient>
			<path fill-rule="evenodd" clip-rule="evenodd" fill="url(#SVGID_16_)" d="M10.94,4.1v0.15c0,0.53-0.22,1-0.65,1.4
				C9.89,6.08,9.37,6.3,8.74,6.3c-0.57,0-1.05-0.22-1.45-0.65c-0.43-0.4-0.65-0.87-0.65-1.4V4.1c0.03,0.5,0.25,0.92,0.65,1.25
				C7.69,5.72,8.17,5.9,8.74,5.9c0.63,0,1.15-0.18,1.55-0.55C10.69,5.02,10.9,4.6,10.94,4.1z"/>
		</g>
		<g>
			<linearGradient id="SVGID_17_" gradientUnits="userSpaceOnUse" x1="8.7744" y1="5.8496" x2="8.7994" y2="1.7506">
				<stop  offset="0" style="stop-color:#81858A"/>
				<stop  offset="0.549" style="stop-color:#808989"/>
				<stop  offset="1" style="stop-color:#4F504E"/>
			</linearGradient>
			<path fill-rule="evenodd" clip-rule="evenodd" fill="url(#SVGID_17_)" d="M10.79,3.8c0,0.6-0.2,1.08-0.6,1.45
				c-0.37,0.4-0.85,0.6-1.45,0.6c-0.53,0-1-0.2-1.4-0.6C6.97,4.88,6.79,4.4,6.79,3.8c0-0.57,0.18-1.05,0.55-1.45
				c0.4-0.4,0.87-0.6,1.4-0.6c0.6,0,1.08,0.2,1.45,0.6C10.59,2.75,10.79,3.23,10.79,3.8z"/>
		</g>
		<g>
			
				<radialGradient id="SVGID_18_" cx="-290.105" cy="106.3154" r="0.9108" gradientTransform="matrix(0.6862 -0.7274 0.9607 0.7274 104.5255 -285.3037)" gradientUnits="userSpaceOnUse">
				<stop  offset="0" style="stop-color:#FFFFFF"/>
				<stop  offset="0.1765" style="stop-color:#FFFFFF"/>
				<stop  offset="0.3059" style="stop-color:#FFFFFF;stop-opacity:0.4235"/>
				<stop  offset="0.4902" style="stop-color:#FFFFFF;stop-opacity:0.2314"/>
				<stop  offset="0.651" style="stop-color:#FFFFFF;stop-opacity:0.0824"/>
				<stop  offset="1" style="stop-color:#FFFFFF;stop-opacity:0"/>
			</radialGradient>
			<path fill-rule="evenodd" clip-rule="evenodd" fill="url(#SVGID_18_)" d="M7.44,2.2c0.3,0,0.57,0.07,0.8,0.2
				c0.23,0.2,0.35,0.45,0.35,0.75c0.07,0.23,0.02,0.43-0.15,0.6C8.3,3.92,8.07,4,7.74,4C7.47,4,7.22,3.92,6.99,3.75
				C6.75,3.58,6.6,3.38,6.54,3.15C6.5,2.85,6.55,2.63,6.69,2.5C6.89,2.3,7.14,2.2,7.44,2.2z"/>
		</g>
		<g>
			
				<radialGradient id="SVGID_19_" cx="115.1826" cy="-286.146" r="0.898" gradientTransform="matrix(0.6264 0.7795 -0.8352 0.8909 -301.597 167.8326)" gradientUnits="userSpaceOnUse">
				<stop  offset="0" style="stop-color:#FFFFFF"/>
				<stop  offset="0.1765" style="stop-color:#FFFFFF"/>
				<stop  offset="0.3059" style="stop-color:#FFFFFF;stop-opacity:0.4235"/>
				<stop  offset="0.4902" style="stop-color:#FFFFFF;stop-opacity:0.2314"/>
				<stop  offset="0.651" style="stop-color:#FFFFFF;stop-opacity:0.0824"/>
				<stop  offset="1" style="stop-color:#FFFFFF;stop-opacity:0"/>
			</radialGradient>
			<path fill-rule="evenodd" clip-rule="evenodd" fill="url(#SVGID_19_)" d="M9.39,3.75C9.15,3.78,8.94,3.7,8.74,3.5
				C8.6,3.3,8.55,3.07,8.59,2.8c0-0.3,0.13-0.55,0.4-0.75C9.15,1.82,9.37,1.7,9.64,1.7c0.23-0.07,0.45,0,0.65,0.2
				c0.13,0.2,0.18,0.45,0.15,0.75c0,0.27-0.1,0.5-0.3,0.7C9.9,3.62,9.65,3.75,9.39,3.75z"/>
		</g>
		<g>
			<path fill-rule="evenodd" clip-rule="evenodd" fill="#6C6E6E" d="M9.69,3.8c0,0.3-0.07,0.55-0.2,0.75C9.25,4.75,9,4.85,8.74,4.85
				c-0.3,0-0.53-0.1-0.7-0.3C7.87,4.38,7.77,4.2,7.74,4c0-0.03,0-0.1,0-0.2V3.75c0-0.27,0.1-0.47,0.3-0.6
				C8.2,2.92,8.44,2.8,8.74,2.8C9,2.8,9.25,2.92,9.49,3.15c0.1,0.1,0.17,0.2,0.2,0.3c0,0.13,0,0.23,0,0.3V3.8z"/>
		</g>
		<g>
			<radialGradient id="SVGID_20_" cx="8.7373" cy="4.3999" r="1.0375" gradientUnits="userSpaceOnUse">
				<stop  offset="0" style="stop-color:#676A60"/>
				<stop  offset="0.4431" style="stop-color:#70736B"/>
				<stop  offset="0.502" style="stop-color:#74776F"/>
				<stop  offset="1" style="stop-color:#7E7F77"/>
			</radialGradient>
			<path fill-rule="evenodd" clip-rule="evenodd" fill="url(#SVGID_20_)" d="M9.04,4.6c-0.1,0-0.2,0-0.3,0c-0.03,0-0.08,0-0.15,0
				H8.54V4.55H8.39c-0.1,0-0.2-0.05-0.3-0.15S7.92,4.17,7.89,4c0-0.03,0-0.07,0-0.1V3.8c0-0.2,0.1-0.4,0.3-0.6
				C8.32,3.07,8.5,3,8.74,3c0.3,0,0.52,0.07,0.65,0.2c0.1,0.1,0.18,0.2,0.25,0.3v0.1v0.2c0,0.2-0.08,0.4-0.25,0.6H9.34V4.3
				C9.24,4.47,9.14,4.57,9.04,4.6z"/>
			<path fill-rule="evenodd" clip-rule="evenodd" fill="#7E8687" d="M9.04,4.6c-0.1,0-0.2,0.04-0.3,0.1c0.33,0.03,0.53-0.07,0.6-0.3
				h0.05C9.55,4.2,9.64,4,9.64,3.8V3.6c0.03,0.1,0.05,0.17,0.05,0.2v0.1c0,0.27-0.1,0.48-0.3,0.65c-0.13,0.2-0.35,0.3-0.65,0.3
				c-0.23,0-0.42-0.1-0.55-0.3C8.02,4.38,7.92,4.2,7.89,4c0.03,0.17,0.1,0.3,0.2,0.4s0.2,0.15,0.3,0.15V4.7
				c0.03,0,0.05,0.02,0.05,0.05h0.1V4.7h0.05V4.6c0.07,0,0.12,0,0.15,0C8.83,4.6,8.93,4.6,9.04,4.6z"/>
			<path fill-rule="evenodd" clip-rule="evenodd" fill="#989C9A" d="M9.34,4.4c-0.07,0.23-0.27,0.33-0.6,0.3
				c0.1-0.06,0.2-0.1,0.3-0.1c0.1-0.03,0.2-0.13,0.3-0.3V4.4z"/>
			<path fill-rule="evenodd" clip-rule="evenodd" fill="#E0E6EA" d="M8.39,4.55h0.15V4.6h0.05v0.1H8.54v0.05h-0.1
				c0-0.03-0.02-0.05-0.05-0.05V4.55z"/>
		</g>
		<g>
			
				<radialGradient id="SVGID_21_" cx="-224.7129" cy="-598.564" r="0.4257" gradientTransform="matrix(-0.7634 0.6459 -0.9102 -0.8221 -707.2133 -343.4328)" gradientUnits="userSpaceOnUse">
				<stop  offset="0" style="stop-color:#FFFFFF;stop-opacity:0.2118"/>
				<stop  offset="0.298" style="stop-color:#FFFFFF;stop-opacity:0.2196"/>
				<stop  offset="0.4902" style="stop-color:#FFFFFF;stop-opacity:0.1059"/>
				<stop  offset="0.651" style="stop-color:#FFFFFF;stop-opacity:0.0471"/>
				<stop  offset="1" style="stop-color:#FFFFFF;stop-opacity:0"/>
			</radialGradient>
			<path fill-rule="evenodd" clip-rule="evenodd" fill="url(#SVGID_21_)" d="M9.49,3.9c-0.1,0.03-0.22,0.05-0.35,0.05
				c-0.17,0-0.3-0.05-0.4-0.15c-0.1-0.1-0.15-0.22-0.15-0.35c0-0.17,0.03-0.27,0.1-0.3c0.1-0.1,0.22-0.13,0.35-0.1
				c0.13,0,0.25,0.05,0.35,0.15c0.1,0.1,0.15,0.2,0.15,0.3C9.54,3.67,9.52,3.8,9.49,3.9z"/>
		</g>
		<g>
			
				<radialGradient id="SVGID_22_" cx="-224.1538" cy="-598.3994" r="0.4257" gradientTransform="matrix(-0.7634 0.6459 -0.9102 -0.8221 -707.1866 -343.4088)" gradientUnits="userSpaceOnUse">
				<stop  offset="0" style="stop-color:#FFFFFF;stop-opacity:0.2118"/>
				<stop  offset="0.298" style="stop-color:#FFFFFF;stop-opacity:0.2196"/>
				<stop  offset="0.4902" style="stop-color:#FFFFFF;stop-opacity:0.102"/>
				<stop  offset="0.651" style="stop-color:#FFFFFF;stop-opacity:0.0471"/>
				<stop  offset="1" style="stop-color:#FFFFFF;stop-opacity:0"/>
			</radialGradient>
			<path fill-rule="evenodd" clip-rule="evenodd" fill="url(#SVGID_22_)" d="M8.99,4.1c-0.1,0.1-0.23,0.12-0.4,0.05
				C8.45,4.15,8.34,4.1,8.24,4c-0.1-0.07-0.15-0.15-0.15-0.25c0-0.17,0.05-0.27,0.15-0.3c0.03-0.1,0.13-0.15,0.3-0.15
				c0.13,0.03,0.25,0.1,0.35,0.2c0.1,0.1,0.15,0.2,0.15,0.3C9.1,3.93,9.09,4.03,8.99,4.1z"/>
		</g>
		<g>
			
				<radialGradient id="SVGID_23_" cx="-437.8945" cy="74.6621" r="0.3321" gradientTransform="matrix(0.3387 -0.9409 3.199 0.6774 -82.0845 -457.0389)" gradientUnits="userSpaceOnUse">
				<stop  offset="0" style="stop-color:#FFFFFF"/>
				<stop  offset="0.1765" style="stop-color:#FFFFFF"/>
				<stop  offset="0.3059" style="stop-color:#FFFFFF;stop-opacity:0.4235"/>
				<stop  offset="0.4902" style="stop-color:#FFFFFF;stop-opacity:0.2314"/>
				<stop  offset="0.651" style="stop-color:#FFFFFF;stop-opacity:0.0824"/>
				<stop  offset="1" style="stop-color:#FFFFFF;stop-opacity:0"/>
			</radialGradient>
			<path fill-rule="evenodd" clip-rule="evenodd" fill="url(#SVGID_23_)" d="M9.49,5.75c0,0.1-0.12,0.18-0.35,0.25
				c-0.2,0-0.45-0.03-0.75-0.1c-0.3-0.1-0.55-0.18-0.75-0.25c-0.2-0.1-0.27-0.18-0.2-0.25c0-0.1,0.12-0.17,0.35-0.2
				c0.2,0,0.45,0.02,0.75,0.05c0.3,0.07,0.53,0.17,0.7,0.3C9.44,5.65,9.52,5.72,9.49,5.75z"/>
		</g>
		<g>
			
				<radialGradient id="SVGID_24_" cx="-595.0879" cy="-263.9507" r="0.3363" gradientTransform="matrix(-0.7433 -0.669 1.5609 -2.1556 -20.1326 -962.1019)" gradientUnits="userSpaceOnUse">
				<stop  offset="0" style="stop-color:#FFFFFF"/>
				<stop  offset="0.1765" style="stop-color:#FFFFFF"/>
				<stop  offset="0.3059" style="stop-color:#FFFFFF;stop-opacity:0.4235"/>
				<stop  offset="0.4902" style="stop-color:#FFFFFF;stop-opacity:0.2314"/>
				<stop  offset="0.651" style="stop-color:#FFFFFF;stop-opacity:0.0824"/>
				<stop  offset="1" style="stop-color:#FFFFFF;stop-opacity:0"/>
			</radialGradient>
			<path fill-rule="evenodd" clip-rule="evenodd" fill="url(#SVGID_24_)" d="M10.44,5.2c-0.1,0.2-0.22,0.35-0.35,0.45
				c-0.17,0.07-0.3,0.08-0.4,0.05c-0.03-0.1-0.03-0.22,0-0.35c0.07-0.2,0.17-0.4,0.3-0.6c0.13-0.2,0.28-0.35,0.45-0.45
				c0.13-0.1,0.23-0.12,0.3-0.05c0.1,0.03,0.12,0.15,0.05,0.35C10.69,4.8,10.57,5,10.44,5.2z"/>
		</g>
	</g>
	<g>
		<g>
			
				<radialGradient id="SVGID_25_" cx="50.0635" cy="-40.0986" r="2.9407" gradientTransform="matrix(0.9862 0.1658 -0.1233 0.6631 -45.926 23.1397)" gradientUnits="userSpaceOnUse">
				<stop  offset="0" style="stop-color:#FFFFFF"/>
				<stop  offset="0.1137" style="stop-color:#FCFCFC"/>
				<stop  offset="0.2118" style="stop-color:#F9F9F9;stop-opacity:0.6431"/>
				<stop  offset="0.3961" style="stop-color:#F9F9F9;stop-opacity:0"/>
			</radialGradient>
			<path fill-rule="evenodd" clip-rule="evenodd" fill="url(#SVGID_25_)" d="M10.94,3.5c0,0.07,0,0.12,0,0.15
				c0,0.53-0.22,1.02-0.65,1.45c-0.4,0.4-0.92,0.6-1.55,0.6c-0.57,0-1.05-0.2-1.45-0.6C6.85,4.67,6.64,4.18,6.64,3.65
				c0-0.03,0-0.08,0-0.15C6.67,4,6.89,4.42,7.29,4.75c0.4,0.4,0.88,0.6,1.45,0.6c0.63,0,1.15-0.2,1.55-0.6
				C10.69,4.42,10.9,4,10.94,3.5z"/>
		</g>
		<g>
			<linearGradient id="SVGID_26_" gradientUnits="userSpaceOnUse" x1="8.7754" y1="5.25" x2="8.8004" y2="1.1505">
				<stop  offset="0" style="stop-color:#81858A"/>
				<stop  offset="0.549" style="stop-color:#808989"/>
				<stop  offset="1" style="stop-color:#4F504E"/>
			</linearGradient>
			<path fill-rule="evenodd" clip-rule="evenodd" fill="url(#SVGID_26_)" d="M8.74,5.25c-0.53,0-1-0.18-1.4-0.55
				C6.97,4.3,6.79,3.8,6.79,3.2c0-0.53,0.18-1.02,0.55-1.45c0.4-0.4,0.87-0.6,1.4-0.6c0.6,0,1.08,0.2,1.45,0.6
				c0.4,0.43,0.6,0.92,0.6,1.45c0,0.6-0.2,1.1-0.6,1.5C9.82,5.07,9.34,5.25,8.74,5.25z"/>
		</g>
		<g>
			
				<radialGradient id="SVGID_27_" cx="-289.6636" cy="105.9375" r="0.9108" gradientTransform="matrix(0.6862 -0.7274 0.9607 0.7274 104.5855 -285.2583)" gradientUnits="userSpaceOnUse">
				<stop  offset="0" style="stop-color:#FFFFFF"/>
				<stop  offset="0.1765" style="stop-color:#FFFFFF"/>
				<stop  offset="0.3059" style="stop-color:#FFFFFF;stop-opacity:0.4235"/>
				<stop  offset="0.4902" style="stop-color:#FFFFFF;stop-opacity:0.2314"/>
				<stop  offset="0.651" style="stop-color:#FFFFFF;stop-opacity:0.0824"/>
				<stop  offset="1" style="stop-color:#FFFFFF;stop-opacity:0"/>
			</radialGradient>
			<path fill-rule="evenodd" clip-rule="evenodd" fill="url(#SVGID_27_)" d="M7.74,3.45c-0.27,0-0.52-0.1-0.75-0.3
				C6.75,3.02,6.6,2.82,6.54,2.55C6.5,2.25,6.55,2.03,6.69,1.9c0.2-0.2,0.45-0.3,0.75-0.3S8,1.7,8.24,1.9
				c0.23,0.13,0.35,0.35,0.35,0.65C8.65,2.82,8.6,3.03,8.44,3.2C8.3,3.37,8.07,3.45,7.74,3.45z"/>
		</g>
		<g>
			
				<radialGradient id="SVGID_28_" cx="114.7676" cy="-286.522" r="0.898" gradientTransform="matrix(0.6264 0.7795 -0.8352 0.8909 -301.6513 167.8905)" gradientUnits="userSpaceOnUse">
				<stop  offset="0" style="stop-color:#FFFFFF"/>
				<stop  offset="0.1765" style="stop-color:#FFFFFF"/>
				<stop  offset="0.3059" style="stop-color:#FFFFFF;stop-opacity:0.4235"/>
				<stop  offset="0.4902" style="stop-color:#FFFFFF;stop-opacity:0.2314"/>
				<stop  offset="0.651" style="stop-color:#FFFFFF;stop-opacity:0.0824"/>
				<stop  offset="1" style="stop-color:#FFFFFF;stop-opacity:0"/>
			</radialGradient>
			<path fill-rule="evenodd" clip-rule="evenodd" fill="url(#SVGID_28_)" d="M9.39,3.15c-0.23,0.03-0.45-0.03-0.65-0.2
				C8.6,2.75,8.55,2.5,8.59,2.2c0-0.23,0.13-0.48,0.4-0.75C9.15,1.22,9.37,1.1,9.64,1.1c0.23,0,0.45,0.07,0.65,0.2
				c0.13,0.2,0.18,0.45,0.15,0.75c0,0.3-0.1,0.57-0.3,0.8C9.9,3.05,9.65,3.15,9.39,3.15z"/>
		</g>
		<g>
			<path fill-rule="evenodd" clip-rule="evenodd" fill="#6C6E6E" d="M7.74,3.45c0-0.07,0-0.12,0-0.15c0-0.07,0-0.12,0-0.15
				c0-0.23,0.1-0.43,0.3-0.6c0.17-0.2,0.4-0.3,0.7-0.3c0.27,0,0.52,0.1,0.75,0.3c0.1,0.1,0.17,0.2,0.2,0.3v0.3c0,0.03,0,0.08,0,0.15
				c0,0.23-0.07,0.45-0.2,0.65C9.25,4.18,9,4.3,8.74,4.3c-0.3,0-0.53-0.12-0.7-0.35C7.87,3.82,7.77,3.65,7.74,3.45z"/>
		</g>
		<g>
			<radialGradient id="SVGID_29_" cx="8.7373" cy="3.7998" r="1.0375" gradientUnits="userSpaceOnUse">
				<stop  offset="0" style="stop-color:#676A60"/>
				<stop  offset="0.4431" style="stop-color:#70736B"/>
				<stop  offset="0.502" style="stop-color:#74776F"/>
				<stop  offset="1" style="stop-color:#7E7F77"/>
			</radialGradient>
			<path fill-rule="evenodd" clip-rule="evenodd" fill="url(#SVGID_29_)" d="M9.64,3v0.2c0,0.2-0.08,0.4-0.25,0.6H9.34V3.75
				C9.24,3.88,9.14,3.97,9.04,4c-0.1,0-0.2,0-0.3,0C8.7,4,8.65,4,8.59,4H8.54V3.95h-0.1L8.39,4c-0.1-0.03-0.2-0.1-0.3-0.2
				c-0.1-0.1-0.17-0.2-0.2-0.3c0-0.1,0-0.17,0-0.2V3.2c0-0.17,0.1-0.33,0.3-0.5C8.32,2.5,8.5,2.4,8.74,2.4c0.3,0,0.52,0.1,0.65,0.3
				C9.49,2.77,9.57,2.87,9.64,3z"/>
			<path fill-rule="evenodd" clip-rule="evenodd" fill="#7E8687" d="M9.04,4c-0.1,0.07-0.2,0.1-0.3,0.1c0.33,0.03,0.53-0.07,0.6-0.3
				h0.05c0.17-0.2,0.25-0.4,0.25-0.6V3l0.05,0.2v0.1c0,0.3-0.1,0.52-0.3,0.65c-0.13,0.2-0.35,0.3-0.65,0.3
				c-0.23,0-0.42-0.1-0.55-0.3C8.02,3.82,7.92,3.67,7.89,3.5c0.03,0.1,0.1,0.2,0.2,0.3c0.1,0.1,0.2,0.17,0.3,0.2v0.1
				c0.03,0,0.05,0.02,0.05,0.05h0.1V4.1h0.05V4C8.65,4,8.7,4,8.74,4C8.84,4,8.94,4,9.04,4z"/>
			<path fill-rule="evenodd" clip-rule="evenodd" fill="#E0E6EA" d="M8.59,4v0.1H8.54v0.05h-0.1c0-0.03-0.02-0.05-0.05-0.05V4
				l0.05-0.05h0.1V4H8.59z"/>
			<path fill-rule="evenodd" clip-rule="evenodd" fill="#989C9A" d="M9.34,3.8c-0.07,0.23-0.27,0.33-0.6,0.3c0.1,0,0.2-0.03,0.3-0.1
				c0.1-0.03,0.2-0.12,0.3-0.25V3.8z"/>
		</g>
		<g>
			
				<radialGradient id="SVGID_30_" cx="-225.125" cy="-598.144" r="0.4257" gradientTransform="matrix(-0.7634 0.6459 -0.9102 -0.8221 -707.1454 -343.3716)" gradientUnits="userSpaceOnUse">
				<stop  offset="0" style="stop-color:#FFFFFF;stop-opacity:0.2118"/>
				<stop  offset="0.298" style="stop-color:#FFFFFF;stop-opacity:0.2196"/>
				<stop  offset="0.4902" style="stop-color:#FFFFFF;stop-opacity:0.1059"/>
				<stop  offset="0.651" style="stop-color:#FFFFFF;stop-opacity:0.0471"/>
				<stop  offset="1" style="stop-color:#FFFFFF;stop-opacity:0"/>
			</radialGradient>
			<path fill-rule="evenodd" clip-rule="evenodd" fill="url(#SVGID_30_)" d="M9.49,3.3c-0.1,0.03-0.22,0.05-0.35,0.05
				c-0.17,0-0.3-0.05-0.4-0.15c-0.1-0.1-0.15-0.22-0.15-0.35c0-0.1,0.03-0.2,0.1-0.3C8.79,2.52,8.9,2.5,9.04,2.5
				c0.13,0,0.25,0.05,0.35,0.15c0.1,0.1,0.15,0.2,0.15,0.3C9.54,3.08,9.52,3.2,9.49,3.3z"/>
		</g>
		<g>
			
				<radialGradient id="SVGID_31_" cx="-224.5659" cy="-597.98" r="0.4257" gradientTransform="matrix(-0.7634 0.6459 -0.9102 -0.8221 -707.119 -343.3477)" gradientUnits="userSpaceOnUse">
				<stop  offset="0" style="stop-color:#FFFFFF;stop-opacity:0.2118"/>
				<stop  offset="0.298" style="stop-color:#FFFFFF;stop-opacity:0.2196"/>
				<stop  offset="0.4902" style="stop-color:#FFFFFF;stop-opacity:0.102"/>
				<stop  offset="0.651" style="stop-color:#FFFFFF;stop-opacity:0.0471"/>
				<stop  offset="1" style="stop-color:#FFFFFF;stop-opacity:0"/>
			</radialGradient>
			<path fill-rule="evenodd" clip-rule="evenodd" fill="url(#SVGID_31_)" d="M8.99,3.5c-0.1,0.1-0.23,0.15-0.4,0.15
				c-0.13-0.03-0.25-0.1-0.35-0.2c-0.1-0.1-0.15-0.2-0.15-0.3c0-0.13,0.05-0.23,0.15-0.3c0.03-0.1,0.13-0.12,0.3-0.05
				c0.13,0,0.25,0.05,0.35,0.15C8.99,3.02,9.04,3.1,9.04,3.2C9.1,3.37,9.09,3.47,8.99,3.5z"/>
		</g>
		<g>
			
				<radialGradient id="SVGID_32_" cx="-437.4009" cy="74.4922" r="0.3321" gradientTransform="matrix(0.3387 -0.9409 3.199 0.6774 -81.7087 -456.9593)" gradientUnits="userSpaceOnUse">
				<stop  offset="0" style="stop-color:#FFFFFF"/>
				<stop  offset="0.1765" style="stop-color:#FFFFFF"/>
				<stop  offset="0.3059" style="stop-color:#FFFFFF;stop-opacity:0.4235"/>
				<stop  offset="0.4902" style="stop-color:#FFFFFF;stop-opacity:0.2314"/>
				<stop  offset="0.651" style="stop-color:#FFFFFF;stop-opacity:0.0824"/>
				<stop  offset="1" style="stop-color:#FFFFFF;stop-opacity:0"/>
			</radialGradient>
			<path fill-rule="evenodd" clip-rule="evenodd" fill="url(#SVGID_32_)" d="M9.49,5.25c0,0.07-0.12,0.12-0.35,0.15
				c-0.2,0-0.45-0.02-0.75-0.05C8.09,5.28,7.84,5.2,7.64,5.1C7.44,5,7.37,4.92,7.44,4.85c0-0.1,0.12-0.15,0.35-0.15
				c0.2-0.07,0.45-0.07,0.75,0c0.3,0.1,0.53,0.18,0.7,0.25C9.44,5.05,9.52,5.15,9.49,5.25z"/>
		</g>
		<g>
			
				<radialGradient id="SVGID_33_" cx="-594.7637" cy="-263.5415" r="0.3363" gradientTransform="matrix(-0.7433 -0.669 1.5609 -2.1556 -20.53 -961.5532)" gradientUnits="userSpaceOnUse">
				<stop  offset="0" style="stop-color:#FFFFFF"/>
				<stop  offset="0.1765" style="stop-color:#FFFFFF"/>
				<stop  offset="0.3059" style="stop-color:#FFFFFF;stop-opacity:0.4235"/>
				<stop  offset="0.4902" style="stop-color:#FFFFFF;stop-opacity:0.2314"/>
				<stop  offset="0.651" style="stop-color:#FFFFFF;stop-opacity:0.0824"/>
				<stop  offset="1" style="stop-color:#FFFFFF;stop-opacity:0"/>
			</radialGradient>
			<path fill-rule="evenodd" clip-rule="evenodd" fill="url(#SVGID_33_)" d="M10.44,4.6c-0.1,0.2-0.22,0.35-0.35,0.45
				c-0.17,0.1-0.3,0.12-0.4,0.05c-0.03-0.03-0.03-0.15,0-0.35c0.07-0.2,0.17-0.4,0.3-0.6c0.13-0.17,0.28-0.3,0.45-0.4
				c0.13-0.1,0.23-0.13,0.3-0.1c0.1,0.07,0.12,0.18,0.05,0.35C10.69,4.2,10.57,4.4,10.44,4.6z"/>
		</g>
	</g>
	<g>
		<g>
			
				<radialGradient id="SVGID_34_" cx="49.9541" cy="-40.6899" r="2.9407" gradientTransform="matrix(0.9862 0.1658 -0.1233 0.6631 -45.8908 22.9504)" gradientUnits="userSpaceOnUse">
				<stop  offset="0" style="stop-color:#FFFFFF"/>
				<stop  offset="0.1137" style="stop-color:#FCFCFC"/>
				<stop  offset="0.2118" style="stop-color:#F9F9F9;stop-opacity:0.6431"/>
				<stop  offset="0.3961" style="stop-color:#F9F9F9;stop-opacity:0"/>
			</radialGradient>
			<path fill-rule="evenodd" clip-rule="evenodd" fill="url(#SVGID_34_)" d="M10.94,2.95c0,0.03,0,0.07,0,0.1
				c0,0.6-0.22,1.1-0.65,1.5C9.89,4.92,9.37,5.1,8.74,5.1c-0.57,0-1.05-0.18-1.45-0.55c-0.43-0.4-0.65-0.9-0.65-1.5
				c0-0.03,0-0.07,0-0.1c0.03,0.47,0.25,0.87,0.65,1.2c0.4,0.47,0.88,0.7,1.45,0.7c0.63,0,1.15-0.23,1.55-0.7
				C10.69,3.82,10.9,3.42,10.94,2.95z"/>
		</g>
		<g>
			<linearGradient id="SVGID_35_" gradientUnits="userSpaceOnUse" x1="8.7744" y1="4.7007" x2="8.7994" y2="0.6007">
				<stop  offset="0" style="stop-color:#81858A"/>
				<stop  offset="0.549" style="stop-color:#808989"/>
				<stop  offset="1" style="stop-color:#4F504E"/>
			</linearGradient>
			<path fill-rule="evenodd" clip-rule="evenodd" fill="url(#SVGID_35_)" d="M8.74,4.7c-0.53,0-1-0.2-1.4-0.6
				C6.97,3.7,6.79,3.22,6.79,2.65c0-0.53,0.18-1.03,0.55-1.5C7.74,0.78,8.2,0.6,8.74,0.6c0.6,0,1.08,0.18,1.45,0.55
				c0.4,0.47,0.6,0.97,0.6,1.5c0,0.57-0.2,1.05-0.6,1.45C9.82,4.5,9.34,4.7,8.74,4.7z"/>
		</g>
		<g>
			
				<radialGradient id="SVGID_36_" cx="-289.2627" cy="105.5947" r="0.9108" gradientTransform="matrix(0.6862 -0.7274 0.9607 0.7274 104.64 -285.217)" gradientUnits="userSpaceOnUse">
				<stop  offset="0" style="stop-color:#FFFFFF"/>
				<stop  offset="0.1765" style="stop-color:#FFFFFF"/>
				<stop  offset="0.3059" style="stop-color:#FFFFFF;stop-opacity:0.4235"/>
				<stop  offset="0.4902" style="stop-color:#FFFFFF;stop-opacity:0.2314"/>
				<stop  offset="0.651" style="stop-color:#FFFFFF;stop-opacity:0.0824"/>
				<stop  offset="1" style="stop-color:#FFFFFF;stop-opacity:0"/>
			</radialGradient>
			<path fill-rule="evenodd" clip-rule="evenodd" fill="url(#SVGID_36_)" d="M6.99,2.55C6.75,2.42,6.6,2.23,6.54,2
				C6.5,1.7,6.55,1.47,6.69,1.3c0.2-0.17,0.45-0.25,0.75-0.25S8,1.13,8.24,1.3C8.47,1.47,8.59,1.7,8.59,2
				C8.65,2.23,8.6,2.45,8.44,2.65c-0.13,0.13-0.37,0.2-0.7,0.2C7.47,2.85,7.22,2.75,6.99,2.55z"/>
		</g>
		<g>
			
				<radialGradient id="SVGID_37_" cx="114.3877" cy="-286.8662" r="0.898" gradientTransform="matrix(0.6264 0.7795 -0.8352 0.8909 -301.701 167.9436)" gradientUnits="userSpaceOnUse">
				<stop  offset="0" style="stop-color:#FFFFFF"/>
				<stop  offset="0.1765" style="stop-color:#FFFFFF"/>
				<stop  offset="0.3059" style="stop-color:#FFFFFF;stop-opacity:0.4235"/>
				<stop  offset="0.4902" style="stop-color:#FFFFFF;stop-opacity:0.2314"/>
				<stop  offset="0.651" style="stop-color:#FFFFFF;stop-opacity:0.0824"/>
				<stop  offset="1" style="stop-color:#FFFFFF;stop-opacity:0"/>
			</radialGradient>
			<path fill-rule="evenodd" clip-rule="evenodd" fill="url(#SVGID_37_)" d="M8.74,2.35C8.6,2.15,8.55,1.9,8.59,1.6
				c0-0.23,0.13-0.47,0.4-0.7c0.17-0.2,0.38-0.33,0.65-0.4c0.23,0,0.45,0.08,0.65,0.25c0.13,0.2,0.18,0.43,0.15,0.7
				c0,0.3-0.1,0.57-0.3,0.8c-0.23,0.2-0.48,0.33-0.75,0.4C9.15,2.65,8.94,2.55,8.74,2.35z"/>
		</g>
		<g>
			<path fill-rule="evenodd" clip-rule="evenodd" fill="#6C6E6E" d="M8.04,3.35c-0.17-0.13-0.27-0.3-0.3-0.5c0-0.03,0-0.08,0-0.15
				c0-0.03,0-0.08,0-0.15c0-0.23,0.1-0.42,0.3-0.55c0.17-0.2,0.4-0.3,0.7-0.3C9,1.7,9.25,1.8,9.49,2c0.1,0.07,0.17,0.15,0.2,0.25
				v0.3c0,0.07,0,0.12,0,0.15c0,0.3-0.07,0.52-0.2,0.65C9.25,3.62,9,3.75,8.74,3.75C8.44,3.75,8.2,3.62,8.04,3.35z"/>
		</g>
		<g>
			<radialGradient id="SVGID_38_" cx="8.7373" cy="3.2002" r="1.0375" gradientUnits="userSpaceOnUse">
				<stop  offset="0" style="stop-color:#676A60"/>
				<stop  offset="0.4431" style="stop-color:#70736B"/>
				<stop  offset="0.502" style="stop-color:#74776F"/>
				<stop  offset="1" style="stop-color:#7E7F77"/>
			</radialGradient>
			<path fill-rule="evenodd" clip-rule="evenodd" fill="url(#SVGID_38_)" d="M9.64,2.4v0.25c0,0.23-0.08,0.42-0.25,0.55
				c-0.03,0-0.05,0.03-0.05,0.1c0-0.07,0-0.12,0-0.15c-0.1,0.13-0.2,0.23-0.3,0.3c-0.1,0.03-0.2,0.05-0.3,0.05
				c-0.03,0-0.08-0.02-0.15-0.05H8.54v-0.1h-0.1l-0.05,0.1c-0.1-0.07-0.2-0.15-0.3-0.25c-0.1-0.1-0.17-0.18-0.2-0.25
				c0-0.07,0-0.15,0-0.25c0-0.23,0.1-0.43,0.3-0.6C8.32,1.93,8.5,1.85,8.74,1.85c0.3,0,0.52,0.08,0.65,0.25
				C9.49,2.2,9.57,2.3,9.64,2.4z"/>
			<path fill-rule="evenodd" clip-rule="evenodd" fill="#7E8687" d="M8.41,3.58C8.33,3.52,8.25,3.45,8.19,3.35
				c-0.17-0.13-0.27-0.27-0.3-0.4c0.03,0.07,0.1,0.15,0.2,0.25c0.1,0.1,0.2,0.18,0.3,0.25V3.5L8.41,3.58z M8.49,3.6h0.05V3.5h0.05
				V3.45C8.65,3.48,8.7,3.5,8.74,3.5c0.33,0.07,0.53,0,0.6-0.2c0-0.07,0.02-0.1,0.05-0.1c0.17-0.13,0.25-0.32,0.25-0.55V2.4
				c0.03,0.17,0.05,0.27,0.05,0.3c0,0.3-0.1,0.52-0.3,0.65c-0.13,0.2-0.35,0.3-0.65,0.3C8.64,3.65,8.56,3.63,8.49,3.6z"/>
			<polygon fill-rule="evenodd" clip-rule="evenodd" fill="#E0E6EA" points="8.49,3.6 8.44,3.6 8.41,3.58 8.39,3.5 8.39,3.45 
				8.44,3.35 8.54,3.35 8.54,3.45 8.59,3.45 8.59,3.5 8.54,3.5 8.54,3.6 			"/>
			<path fill-rule="evenodd" clip-rule="evenodd" fill="#989C9A" d="M9.34,3.3c-0.07,0.2-0.27,0.27-0.6,0.2c0.1,0,0.2-0.02,0.3-0.05
				c0.1-0.07,0.2-0.17,0.3-0.3C9.34,3.18,9.34,3.23,9.34,3.3z"/>
		</g>
		<g>
			
				<radialGradient id="SVGID_39_" cx="-225.5742" cy="-597.686" r="0.4257" gradientTransform="matrix(-0.7634 0.6459 -0.9102 -0.8221 -707.0715 -343.3049)" gradientUnits="userSpaceOnUse">
				<stop  offset="0" style="stop-color:#FFFFFF;stop-opacity:0.2118"/>
				<stop  offset="0.298" style="stop-color:#FFFFFF;stop-opacity:0.2196"/>
				<stop  offset="0.4902" style="stop-color:#FFFFFF;stop-opacity:0.1059"/>
				<stop  offset="0.651" style="stop-color:#FFFFFF;stop-opacity:0.0471"/>
				<stop  offset="1" style="stop-color:#FFFFFF;stop-opacity:0"/>
			</radialGradient>
			<path fill-rule="evenodd" clip-rule="evenodd" fill="url(#SVGID_39_)" d="M9.49,2.7c-0.1,0.07-0.22,0.1-0.35,0.1
				c-0.17,0-0.3-0.05-0.4-0.15c-0.1-0.1-0.15-0.23-0.15-0.4c0-0.1,0.03-0.18,0.1-0.25c0.1-0.07,0.22-0.1,0.35-0.1
				c0.13,0,0.25,0.05,0.35,0.15c0.1,0.1,0.15,0.22,0.15,0.35C9.54,2.5,9.52,2.6,9.49,2.7z"/>
		</g>
		<g>
			
				<radialGradient id="SVGID_40_" cx="-224.9775" cy="-597.5601" r="0.4257" gradientTransform="matrix(-0.7634 0.6459 -0.9102 -0.8221 -707.0512 -343.2865)" gradientUnits="userSpaceOnUse">
				<stop  offset="0" style="stop-color:#FFFFFF;stop-opacity:0.2118"/>
				<stop  offset="0.298" style="stop-color:#FFFFFF;stop-opacity:0.2196"/>
				<stop  offset="0.4902" style="stop-color:#FFFFFF;stop-opacity:0.102"/>
				<stop  offset="0.651" style="stop-color:#FFFFFF;stop-opacity:0.0471"/>
				<stop  offset="1" style="stop-color:#FFFFFF;stop-opacity:0"/>
			</radialGradient>
			<path fill-rule="evenodd" clip-rule="evenodd" fill="url(#SVGID_40_)" d="M8.99,2.95c-0.1,0.07-0.23,0.1-0.4,0.1
				c-0.13-0.03-0.25-0.07-0.35-0.1c-0.1-0.17-0.15-0.3-0.15-0.4c0-0.13,0.05-0.23,0.15-0.3c0.03-0.1,0.13-0.12,0.3-0.05
				c0.13,0,0.25,0.05,0.35,0.15c0.1,0.1,0.15,0.2,0.15,0.3C9.1,2.78,9.09,2.88,8.99,2.95z"/>
		</g>
		<g>
			
				<radialGradient id="SVGID_41_" cx="-436.8081" cy="74.2891" r="0.3321" gradientTransform="matrix(0.3387 -0.9409 3.199 0.6774 -81.2595 -456.8642)" gradientUnits="userSpaceOnUse">
				<stop  offset="0" style="stop-color:#FFFFFF"/>
				<stop  offset="0.1765" style="stop-color:#FFFFFF"/>
				<stop  offset="0.3059" style="stop-color:#FFFFFF;stop-opacity:0.4235"/>
				<stop  offset="0.4902" style="stop-color:#FFFFFF;stop-opacity:0.2314"/>
				<stop  offset="0.651" style="stop-color:#FFFFFF;stop-opacity:0.0824"/>
				<stop  offset="1" style="stop-color:#FFFFFF;stop-opacity:0"/>
			</radialGradient>
			<path fill-rule="evenodd" clip-rule="evenodd" fill="url(#SVGID_41_)" d="M9.49,4.7c0,0.03-0.12,0.08-0.35,0.15
				c-0.2,0-0.45-0.03-0.75-0.1c-0.3-0.03-0.55-0.1-0.75-0.2c-0.2-0.1-0.27-0.2-0.2-0.3c0-0.1,0.12-0.15,0.35-0.15
				c0.2-0.07,0.45-0.07,0.75,0c0.3,0.1,0.53,0.2,0.7,0.3C9.44,4.5,9.52,4.6,9.49,4.7z"/>
		</g>
		<g>
			
				<radialGradient id="SVGID_42_" cx="-594.4097" cy="-263.0957" r="0.3363" gradientTransform="matrix(-0.7433 -0.669 1.5609 -2.1556 -20.9629 -960.9554)" gradientUnits="userSpaceOnUse">
				<stop  offset="0" style="stop-color:#FFFFFF"/>
				<stop  offset="0.1765" style="stop-color:#FFFFFF"/>
				<stop  offset="0.3059" style="stop-color:#FFFFFF;stop-opacity:0.4235"/>
				<stop  offset="0.4902" style="stop-color:#FFFFFF;stop-opacity:0.2314"/>
				<stop  offset="0.651" style="stop-color:#FFFFFF;stop-opacity:0.0824"/>
				<stop  offset="1" style="stop-color:#FFFFFF;stop-opacity:0"/>
			</radialGradient>
			<path fill-rule="evenodd" clip-rule="evenodd" fill="url(#SVGID_42_)" d="M10.44,4c-0.1,0.2-0.22,0.35-0.35,0.45
				c-0.17,0.1-0.3,0.13-0.4,0.1c-0.03-0.07-0.03-0.2,0-0.4C9.75,3.98,9.85,3.8,9.99,3.6c0.13-0.2,0.28-0.35,0.45-0.45
				c0.13-0.1,0.23-0.13,0.3-0.1c0.1,0.07,0.12,0.2,0.05,0.4C10.69,3.65,10.57,3.83,10.44,4z"/>
		</g>
	</g>
</g>
</svg>
