<?xml version="1.0" encoding="utf-8"?>
<!-- Generator: Adobe Illustrator 16.0.0, SVG Export Plug-In . SVG Version: 6.00 Build 0)  -->
<!DOCTYPE svg PUBLIC "-//W3C//DTD SVG 1.1//EN" "http://www.w3.org/Graphics/SVG/1.1/DTD/svg11.dtd">
<svg version="1.1" id="Layer_1" xmlns="http://www.w3.org/2000/svg" xmlns:xlink="http://www.w3.org/1999/xlink" x="0px" y="0px"
	 width="181.33px" height="156.33px" viewBox="0 0 181.33 156.33" enable-background="new 0 0 181.33 156.33" xml:space="preserve">
<g>
	<g>
		
			<path fill="none" stroke="#000000" stroke-width="4" stroke-linecap="round" stroke-linejoin="round" stroke-miterlimit="3" stroke-opacity="0.2471" d="
			M18.32,141.39c3.93,3.01,9.16,3.971,15.71,2.9c4.81-0.41,7.07,1.92,6.79,7c12.6-3.99,20.94-3.87,25.01,0.359l12.87-8.879
			c16.32-18.451,30.49-32.67,42.49-42.66c11.959-9.99,20.72-18.48,26.289-25.48c5.511-7.03,11.58-24.41,18.221-52.13
			c4.199-9.77,7.609-14.74,10.22-14.92"/>
	</g>
	<g>
		<path fill="none" stroke="#660000" stroke-width="4" stroke-linecap="round" stroke-linejoin="round" stroke-miterlimit="3" d="
			M5.53,139.069c3.41,1.561,6.36,1.801,8.84,0.721c2.47-1.07,6.73-1.471,12.77-1.2c6.05,0.271,11.43,2.17,16.12,5.69
			c4.69,3.51,11.63,0.109,20.81-10.19c1.98-2.22,4.05-2.159,6.2,0.19c3.88,7.81,10.62,4.699,20.23-9.34
			c9.601-14.03,18.5-23.92,26.71-29.67c8.21-5.74,15.29-11.25,21.24-16.53c5.949-5.28,9.56-10.84,10.84-16.69
			c1.27-5.84,3.93-15.85,7.96-30.03c7.78-20.01,13.38-29.3,16.81-27.88c0.36,0.14,0.791,0.42,1.291,0.85
			c0.319,0.27,0.75,0.42,1.31,0.44"/>
	</g>
	<g>
		
			<radialGradient id="SVGID_1_" cx="-342.9941" cy="405.8818" r="16.535" gradientTransform="matrix(1.4189 -0.3419 -0.3419 -1.4189 783.3145 496.4141)" gradientUnits="userSpaceOnUse">
			<stop  offset="0" style="stop-color:#FFFFFF;stop-opacity:0.6902"/>
			<stop  offset="1" style="stop-color:#FFFFFF;stop-opacity:0.0235"/>
		</radialGradient>
		<path fill="url(#SVGID_1_)" d="M165.97,14.89c0.01,0.1-0.02,0.2-0.08,0.28c-6.07,8.1-11.209,23.27-15.42,45.52
			c-0.01,0.09-0.06,0.17-0.13,0.22c-0.09,0.06-0.18,0.08-0.28,0.07c-0.09-0.01-0.17-0.06-0.22-0.13c-0.06-0.09-0.08-0.18-0.069-0.28
			c4.239-22.42,9.43-37.7,15.56-45.86c0.06-0.08,0.13-0.12,0.229-0.13c0.101-0.01,0.2,0.02,0.28,0.08
			C165.91,14.71,165.96,14.79,165.97,14.89z"/>
		
			<radialGradient id="SVGID_2_" cx="-323.3345" cy="425.3574" r="4.05" gradientTransform="matrix(1.4189 -0.3419 -0.3419 -1.4189 783.3145 496.4141)" gradientUnits="userSpaceOnUse">
			<stop  offset="0" style="stop-color:#FFFFFF;stop-opacity:0.6902"/>
			<stop  offset="1" style="stop-color:#FFFFFF;stop-opacity:0.0235"/>
		</radialGradient>
		<path fill="url(#SVGID_2_)" d="M173.11,4.34c-0.09-0.03-0.16-0.09-0.19-0.18c-0.04-0.1-0.04-0.2,0-0.3
			c0.03-0.09,0.09-0.16,0.181-0.19c0.1-0.04,0.199-0.04,0.299,0c1.631,0.64,2.92,1.04,3.891,1.2c0.09,0.01,0.17,0.06,0.22,0.13
			c0.06,0.09,0.08,0.18,0.07,0.28c-0.011,0.09-0.06,0.17-0.13,0.22c-0.08,0.06-0.18,0.08-0.28,0.07
			C176.149,5.42,174.8,5.01,173.11,4.34z"/>
		
			<radialGradient id="SVGID_3_" cx="-388.1343" cy="366.8086" r="17.4504" gradientTransform="matrix(1.4189 -0.3419 -0.3419 -1.4189 783.3145 496.4141)" gradientUnits="userSpaceOnUse">
			<stop  offset="0" style="stop-color:#FFFFFF;stop-opacity:0.6902"/>
			<stop  offset="1" style="stop-color:#FFFFFF;stop-opacity:0.0235"/>
		</radialGradient>
		<path fill="url(#SVGID_3_)" d="M126.601,88.74c-0.031,0.1-0.08,0.17-0.17,0.229c-14.611,9.11-26.871,21.801-36.771,38.061
			c-0.05,0.09-0.13,0.14-0.22,0.17c-0.1,0.02-0.19,0.01-0.27-0.051c-0.09-0.049-0.14-0.129-0.17-0.219
			c-0.02-0.101-0.01-0.19,0.05-0.271c9.971-16.351,22.311-29.11,37.02-38.271c0.08-0.06,0.16-0.08,0.25-0.06
			c0.101,0.03,0.171,0.08,0.23,0.17C126.601,88.56,126.62,88.649,126.601,88.74z"/>
		
			<radialGradient id="SVGID_4_" cx="-414.0845" cy="352.458" r="3.9032" gradientTransform="matrix(1.4189 -0.3419 -0.3419 -1.4189 783.3145 496.4141)" gradientUnits="userSpaceOnUse">
			<stop  offset="0" style="stop-color:#FFFFFF;stop-opacity:0.6902"/>
			<stop  offset="1" style="stop-color:#FFFFFF;stop-opacity:0.0235"/>
		</radialGradient>
		<path fill="url(#SVGID_4_)" d="M82.09,135.3c0.08,0.061,0.12,0.141,0.13,0.23c-0.01,0.1-0.05,0.18-0.13,0.26
			c-1.99,2.12-3.96,3.21-5.93,3.27c-1.98,0.09-3.95-0.869-5.91-2.859c-0.07-0.07-0.1-0.15-0.09-0.24c0-0.109,0.04-0.21,0.12-0.29
			c0.07-0.069,0.15-0.101,0.24-0.101c0.11,0,0.21,0.041,0.29,0.121c1.77,1.819,3.54,2.699,5.33,2.66c1.8-0.08,3.62-1.091,5.46-3.041
			c0.06-0.08,0.14-0.119,0.23-0.129C81.93,135.181,82.01,135.22,82.09,135.3z"/>
		
			<radialGradient id="SVGID_5_" cx="-447.6299" cy="359.708" r="5.6964" gradientTransform="matrix(1.4189 -0.3419 -0.3419 -1.4189 783.3145 496.4141)" gradientUnits="userSpaceOnUse">
			<stop  offset="0" style="stop-color:#FFFFFF;stop-opacity:0.6902"/>
			<stop  offset="1" style="stop-color:#FFFFFF;stop-opacity:0.0235"/>
		</radialGradient>
		<path fill="url(#SVGID_5_)" d="M33.54,138.819c0.1,0.031,0.18,0.08,0.23,0.171c0.06,0.079,0.08,0.159,0.06,0.25
			c-0.03,0.1-0.08,0.17-0.17,0.229c-0.08,0.061-0.16,0.08-0.25,0.061c-5.26-1.211-10.75-1.301-16.47-0.271
			c-0.09,0.021-0.17,0-0.24-0.05c-0.09-0.07-0.15-0.15-0.17-0.26c-0.02-0.09,0-0.17,0.05-0.24c0.06-0.09,0.15-0.15,0.26-0.17
			C22.64,137.479,28.21,137.58,33.54,138.819z"/>
		
			<radialGradient id="SVGID_6_" cx="-430.6338" cy="354.6064" r="6.8496" gradientTransform="matrix(1.4189 -0.3419 -0.3419 -1.4189 783.3145 496.4141)" gradientUnits="userSpaceOnUse">
			<stop  offset="0" style="stop-color:#FFFFFF;stop-opacity:0.6902"/>
			<stop  offset="1" style="stop-color:#FFFFFF;stop-opacity:0.0235"/>
		</radialGradient>
		<path fill="url(#SVGID_6_)" d="M49.69,145.7c-3.35,0.91-6.21,0.13-8.56-2.33c-0.07-0.08-0.11-0.17-0.1-0.27
			c0.01-0.101,0.05-0.19,0.13-0.261c0.08-0.069,0.17-0.1,0.27-0.1c0.1,0.01,0.19,0.05,0.26,0.13c2.14,2.26,4.74,2.97,7.8,2.14
			c3.16-0.87,6.79-3.34,10.9-7.39c0.07-0.07,0.15-0.1,0.24-0.09c0.11,0,0.21,0.039,0.29,0.119c0.07,0.07,0.1,0.15,0.09,0.24
			c0,0.11-0.04,0.211-0.12,0.291C56.67,142.31,52.94,144.83,49.69,145.7z"/>
		
			<radialGradient id="SVGID_7_" cx="-457.5801" cy="362.0576" r="3.4962" gradientTransform="matrix(1.4189 -0.3419 -0.3419 -1.4189 783.3145 496.4141)" gradientUnits="userSpaceOnUse">
			<stop  offset="0" style="stop-color:#FFFFFF;stop-opacity:0.6902"/>
			<stop  offset="1" style="stop-color:#FFFFFF;stop-opacity:0.0235"/>
		</radialGradient>
		<path fill="url(#SVGID_7_)" d="M5.11,138.569c0.1-0.02,0.19-0.01,0.27,0.051c3.05,1.82,6.32,1.949,9.81,0.38
			c0.1-0.04,0.2-0.04,0.3,0c0.09,0.03,0.16,0.09,0.19,0.181c0.04,0.1,0.04,0.199,0,0.299c-0.03,0.09-0.09,0.15-0.18,0.19
			c-3.74,1.67-7.24,1.53-10.5-0.44c-0.09-0.049-0.14-0.129-0.17-0.22c-0.02-0.1-0.01-0.19,0.05-0.27
			C4.94,138.649,5.01,138.601,5.11,138.569z"/>
	</g>
</g>
</svg>
