<?xml version="1.0" encoding="utf-8"?>
<!-- Generator: Adobe Illustrator 16.0.0, SVG Export Plug-In . SVG Version: 6.00 Build 0)  -->
<!DOCTYPE svg PUBLIC "-//W3C//DTD SVG 1.1//EN" "http://www.w3.org/Graphics/SVG/1.1/DTD/svg11.dtd">
<svg version="1.1" id="Layer_1" xmlns="http://www.w3.org/2000/svg" xmlns:xlink="http://www.w3.org/1999/xlink" x="0px" y="0px"
	 width="194.67px" height="128.5px" viewBox="0 0 194.67 128.5" enable-background="new 0 0 194.67 128.5" xml:space="preserve">
<g>
	<g>
		
			<path fill="none" stroke="#000000" stroke-width="4" stroke-linecap="round" stroke-linejoin="round" stroke-miterlimit="3" stroke-opacity="0.2471" d="
			M42.82,122.28c15.29-6.33,25.02-6.33,29.21,0c8.18-1.46,22.37-11.681,42.581-30.671C142.12,65.66,158.601,49.4,164.05,42.83
			c5.45-6.57,9.49-16.33,12.12-29.29c1.36-1.46,2.56-1.97,3.58-1.53"/>
	</g>
	<g>
		<path fill="none" stroke="#660000" stroke-width="4" stroke-linecap="round" stroke-linejoin="round" stroke-miterlimit="3" d="
			M5.35,104.54c2.01,1.92,4.43,1.89,7.27-0.11c11.56-0.199,18.34,3.32,20.34,10.551c0.48,8.209,6.35,9.02,17.6,2.449
			c11.24-6.57,17.91-8.729,20.01-6.46c6.39,3.681,13.4,0.431,21.03-9.75c7.64-10.189,18.4-19.89,32.28-29.1
			c13.891-9.22,24.91-18.67,33.08-28.37c8.18-9.7,12.439-18.48,12.78-26.33c0.36-7.85,3.76-11.26,10.22-10.22 M180.771,7.52
			c3.709,1.97,6.75,1.91,9.129-0.18"/>
	</g>
	<g>
		
			<radialGradient id="SVGID_1_" cx="-279.5947" cy="444.5088" r="4.1" gradientTransform="matrix(1.4606 0 0 -1.4606 591.8493 656.0748)" gradientUnits="userSpaceOnUse">
			<stop  offset="0" style="stop-color:#FFFFFF;stop-opacity:0.6902"/>
			<stop  offset="1" style="stop-color:#FFFFFF;stop-opacity:0.0235"/>
		</radialGradient>
		<path fill="url(#SVGID_1_)" d="M189.42,7.11c0.09,0,0.16,0.04,0.22,0.11c0.07,0.08,0.11,0.18,0.11,0.29
			c0,0.09-0.04,0.16-0.11,0.22c-2.43,2.24-6.539,1.82-12.34-1.24c-0.09-0.05-0.15-0.12-0.18-0.22c-0.03-0.1-0.01-0.2,0.04-0.29
			s0.12-0.15,0.22-0.18c0.1-0.03,0.2-0.01,0.29,0.04c5.399,2.88,9.22,3.34,11.46,1.39C189.22,7.15,189.319,7.11,189.42,7.11z"/>
		
			<radialGradient id="SVGID_2_" cx="-299.5" cy="422.2578" r="17.7044" gradientTransform="matrix(1.4606 0 0 -1.4606 591.8493 656.0748)" gradientUnits="userSpaceOnUse">
			<stop  offset="0" style="stop-color:#FFFFFF;stop-opacity:0.6902"/>
			<stop  offset="1" style="stop-color:#FFFFFF;stop-opacity:0.0235"/>
		</radialGradient>
		<path fill="url(#SVGID_2_)" d="M169.96,18.22c0.061,0.08,0.09,0.16,0.07,0.26c-1.41,11.77-11.631,25.78-30.67,42.03
			c-0.07,0.06-0.16,0.08-0.26,0.07c-0.101-0.01-0.19-0.06-0.261-0.15c-0.06-0.07-0.09-0.16-0.069-0.26
			c0.01-0.1,0.06-0.19,0.149-0.26C157.76,43.84,167.89,30,169.31,18.4c0.01-0.1,0.061-0.19,0.15-0.26c0.08-0.06,0.16-0.09,0.26-0.07
			C169.81,18.08,169.899,18.13,169.96,18.22z"/>
		
			<radialGradient id="SVGID_3_" cx="-323.79" cy="397.1094" r="13.6467" gradientTransform="matrix(1.4606 0 0 -1.4606 591.8493 656.0748)" gradientUnits="userSpaceOnUse">
			<stop  offset="0" style="stop-color:#FFFFFF;stop-opacity:0.6902"/>
			<stop  offset="1" style="stop-color:#FFFFFF;stop-opacity:0.0235"/>
		</radialGradient>
		<path fill="url(#SVGID_3_)" d="M135.569,64.59c-0.029,0.11-0.09,0.19-0.18,0.26c-11.869,7.24-22.709,14.9-32.539,22.971
			c-0.07,0.06-0.16,0.09-0.261,0.07c-0.1-0.021-0.19-0.061-0.25-0.15c-0.06-0.07-0.09-0.16-0.069-0.26
			c0.01-0.101,0.06-0.19,0.149-0.261c9.851-8.09,20.72-15.77,32.61-23.04c0.08-0.05,0.17-0.06,0.26-0.04
			c0.109,0.03,0.189,0.09,0.26,0.18C135.58,64.41,135.59,64.5,135.569,64.59z"/>
		
			<radialGradient id="SVGID_4_" cx="-348.895" cy="376.5645" r="7.4018" gradientTransform="matrix(1.4606 0 0 -1.4606 591.8493 656.0748)" gradientUnits="userSpaceOnUse">
			<stop  offset="0" style="stop-color:#FFFFFF;stop-opacity:0.6902"/>
			<stop  offset="1" style="stop-color:#FFFFFF;stop-opacity:0.0235"/>
		</radialGradient>
		<path fill="url(#SVGID_4_)" d="M91.56,100.05c0.09,0.06,0.15,0.15,0.18,0.261c0.03,0.09,0.01,0.18-0.04,0.25
			c-5.11,8.33-11.34,12.159-18.7,11.5c-0.1-0.011-0.19-0.061-0.26-0.15c-0.06-0.07-0.09-0.16-0.07-0.26
			c0.01-0.101,0.06-0.19,0.15-0.26c0.07-0.061,0.16-0.08,0.26-0.07c7.06,0.609,13.05-3.11,17.96-11.141
			c0.06-0.09,0.15-0.149,0.26-0.18C91.4,99.98,91.49,100,91.56,100.05z"/>
		
			<radialGradient id="SVGID_5_" cx="-388.4854" cy="374.6602" r="4.8453" gradientTransform="matrix(1.4606 0 0 -1.4606 591.8493 656.0748)" gradientUnits="userSpaceOnUse">
			<stop  offset="0" style="stop-color:#FFFFFF;stop-opacity:0.6902"/>
			<stop  offset="1" style="stop-color:#FFFFFF;stop-opacity:0.0235"/>
		</radialGradient>
		<path fill="url(#SVGID_5_)" d="M18.1,104.87c0.07-0.07,0.15-0.11,0.26-0.11c6.83-0.3,10.99,2.26,12.49,7.71
			c0.03,0.101,0.01,0.2-0.04,0.29c-0.05,0.09-0.12,0.15-0.22,0.18c-0.1,0.03-0.2,0.011-0.29-0.039c-0.09-0.051-0.15-0.12-0.18-0.221
			c-1.43-5.07-5.35-7.47-11.76-7.189c-0.1,0-0.18-0.04-0.26-0.11c-0.07-0.069-0.11-0.149-0.11-0.26
			C17.99,105.02,18.02,104.939,18.1,104.87z"/>
		
			<radialGradient id="SVGID_6_" cx="-373.5957" cy="369.71" r="9.3502" gradientTransform="matrix(1.4606 0 0 -1.4606 591.8493 656.0748)" gradientUnits="userSpaceOnUse">
			<stop  offset="0" style="stop-color:#FFFFFF;stop-opacity:0.6902"/>
			<stop  offset="1" style="stop-color:#FFFFFF;stop-opacity:0.0235"/>
		</radialGradient>
		<path fill="url(#SVGID_6_)" d="M59.69,112.641c-0.03,0.09-0.09,0.17-0.18,0.219c-14.6,9.311-23.54,11.601-26.84,6.871
			c-0.06-0.09-0.09-0.19-0.07-0.291c0.02-0.09,0.06-0.17,0.15-0.22c0.09-0.06,0.19-0.09,0.29-0.069c0.09,0.02,0.17,0.06,0.22,0.149
			c3.13,4.32,11.76,1.98,25.89-7.01c0.08-0.06,0.16-0.09,0.26-0.07c0.09,0.03,0.17,0.091,0.22,0.181
			C59.68,112.47,59.7,112.55,59.69,112.641z"/>
		
			<radialGradient id="SVGID_7_" cx="-398.6943" cy="377.5586" r="2.9" gradientTransform="matrix(1.4606 0 0 -1.4606 591.8493 656.0748)" gradientUnits="userSpaceOnUse">
			<stop  offset="0" style="stop-color:#FFFFFF;stop-opacity:0.6902"/>
			<stop  offset="1" style="stop-color:#FFFFFF;stop-opacity:0.0235"/>
		</radialGradient>
		<path fill="url(#SVGID_7_)" d="M14.01,104.5c-0.02,0.1-0.07,0.17-0.15,0.22c-2.48,1.24-4.44,1.89-5.88,1.931
			c-1.59,0.069-2.6-0.521-3.03-1.791c-0.04-0.09-0.04-0.17,0-0.26c0.05-0.09,0.12-0.149,0.22-0.18c0.09-0.04,0.17-0.04,0.26,0
			c0.09,0.05,0.15,0.12,0.18,0.221c0.35,0.93,1.13,1.369,2.34,1.31c1.36-0.07,3.21-0.71,5.55-1.9c0.1-0.04,0.19-0.04,0.29,0
			c0.1,0.03,0.17,0.091,0.22,0.181C14.04,104.33,14.04,104.41,14.01,104.5z"/>
	</g>
</g>
</svg>
