<?xml version="1.0" encoding="utf-8"?>
<!-- Generator: Adobe Illustrator 16.0.0, SVG Export Plug-In . SVG Version: 6.00 Build 0)  -->
<!DOCTYPE svg PUBLIC "-//W3C//DTD SVG 1.1//EN" "http://www.w3.org/Graphics/SVG/1.1/DTD/svg11.dtd">
<svg version="1.1" id="Layer_1" xmlns="http://www.w3.org/2000/svg" xmlns:xlink="http://www.w3.org/1999/xlink" x="0px" y="0px"
	 width="191.67px" height="137.67px" viewBox="0 0 191.67 137.67" enable-background="new 0 0 191.67 137.67" xml:space="preserve">
<g>
	<g>
		
			<path fill="none" stroke="#000000" stroke-width="4" stroke-linecap="round" stroke-linejoin="round" stroke-miterlimit="3" stroke-opacity="0.2471" d="
			M20.35,128.13c8.91-5.71,16.54-4.42,22.91,3.87c1.54,2.51,4.95,2.16,10.24-1.04c5.29-3.25,10.4-3.561,15.33-0.93
			c6.66,1.479,13.36-1.971,20.13-10.35c8.391-8.69,21.41-20.051,39.04-34.091c17.64-13.989,28.14-26.27,31.5-36.84
			c3.36-10.56,7.34-23.02,11.94-37.37l5.06-2.54"/>
	</g>
	<g>
		<path fill="none" stroke="#660000" stroke-width="4" stroke-linecap="round" stroke-linejoin="round" stroke-miterlimit="3" d="
			M14.38,121.51c4.83-1.31,8.35-1.1,10.56,0.65c2.2,1.75,5.63,1.83,10.29,0.239c3.87-2.539,7.69-1.39,11.46,3.44
			s8.9,4.101,15.4-2.19c3.63-1.83,7.33-1.01,11.12,2.451c4.49,1.84,10.1-2.17,16.83-12.011c9.24-10.8,17.17-18.56,23.79-23.271
			c6.62-4.709,13.86-9.92,21.72-15.659c7.86-5.729,13.53-13.89,17.03-24.46c3.489-10.58,5.89-18.9,7.22-24.94
			s3.43-10.78,6.301-14.24c2.869-3.47,5.08-5.47,6.609-6c1.54-0.53,3.359-0.5,5.46,0.1c3.55,1.34,6.33,1.42,8.34,0.22 M5.47,122.61
			c2.48,1.85,5.33,1.5,8.55-1.051"/>
	</g>
	<g>
		
			<radialGradient id="SVGID_1_" cx="-303.9229" cy="430.0273" r="3.8" gradientTransform="matrix(1.449 -0.1787 -0.1787 -1.449 697.8006 574.1968)" gradientUnits="userSpaceOnUse">
			<stop  offset="0" style="stop-color:#FFFFFF;stop-opacity:0.6902"/>
			<stop  offset="1" style="stop-color:#FFFFFF;stop-opacity:0.0235"/>
		</radialGradient>
		<path fill="url(#SVGID_1_)" d="M174.72,4.86c0.04-0.09,0.1-0.16,0.2-0.21c0.08-0.05,0.17-0.06,0.25-0.03
			c6.06,1.94,9.57,2.27,10.53,0.98c0.05-0.08,0.119-0.12,0.199-0.14c0.11-0.01,0.211,0.01,0.301,0.07c0.08,0.05,0.119,0.11,0.14,0.2
			c0.011,0.11-0.01,0.21-0.069,0.3c-1.041,1.61-4.801,1.36-11.311-0.74c-0.09-0.04-0.16-0.1-0.21-0.19
			C174.71,5.03,174.7,4.95,174.72,4.86z"/>
		
			<radialGradient id="SVGID_2_" cx="-316.6724" cy="421.2236" r="8.1506" gradientTransform="matrix(1.449 -0.1787 -0.1787 -1.449 697.8006 574.1968)" gradientUnits="userSpaceOnUse">
			<stop  offset="0" style="stop-color:#FFFFFF;stop-opacity:0.6902"/>
			<stop  offset="1" style="stop-color:#FFFFFF;stop-opacity:0.0235"/>
		</radialGradient>
		<path fill="url(#SVGID_2_)" d="M158.67,31.56c0.09-0.43,0.181-0.88,0.28-1.32c0.029-0.09,0.02-0.18-0.03-0.25
			c-0.021-0.021-0.03-0.04-0.05-0.07c2.17-10.92,5.25-17.83,9.25-20.74c0.09-0.06,0.18-0.09,0.29-0.07
			c0.1,0.02,0.18,0.07,0.239,0.15c0.061,0.09,0.091,0.18,0.07,0.29c-0.02,0.1-0.07,0.18-0.15,0.24c-4.02,2.98-7.09,10.2-9.209,21.66
			c-0.021,0.1-0.07,0.18-0.15,0.24c-0.09,0.06-0.18,0.09-0.29,0.07c-0.101-0.02-0.18-0.07-0.239-0.15L158.67,31.56z"/>
		
			<radialGradient id="SVGID_3_" cx="-330.1729" cy="401.0273" r="14.45" gradientTransform="matrix(1.449 -0.1787 -0.1787 -1.449 697.8006 574.1968)" gradientUnits="userSpaceOnUse">
			<stop  offset="0" style="stop-color:#FFFFFF;stop-opacity:0.6902"/>
			<stop  offset="1" style="stop-color:#FFFFFF;stop-opacity:0.0235"/>
		</radialGradient>
		<path fill="url(#SVGID_3_)" d="M158.67,31.56c-4.601,20.69-11.17,34.38-19.72,41.08c-0.07,0.061-0.16,0.08-0.25,0.07
			c-0.11-0.02-0.2-0.07-0.28-0.15c-0.06-0.069-0.08-0.16-0.069-0.25c0.02-0.109,0.069-0.199,0.149-0.279
			c8.62-6.771,15.2-20.75,19.76-41.94c0.021-0.1,0.07-0.18,0.15-0.24c0.079-0.05,0.159-0.06,0.25-0.03
			c0.079,0.02,0.14,0.04,0.19,0.09c0.02,0.02,0.029,0.05,0.049,0.07c0.051,0.08,0.061,0.16,0.031,0.25
			C158.851,30.68,158.76,31.12,158.67,31.56z"/>
		
			<radialGradient id="SVGID_4_" cx="-358.5454" cy="374.376" r="20.8682" gradientTransform="matrix(1.449 -0.1787 -0.1787 -1.449 697.8006 574.1968)" gradientUnits="userSpaceOnUse">
			<stop  offset="0" style="stop-color:#FFFFFF;stop-opacity:0.6902"/>
			<stop  offset="1" style="stop-color:#FFFFFF;stop-opacity:0.0235"/>
		</radialGradient>
		<path fill="url(#SVGID_4_)" d="M134.5,75.62c-0.021,0.1-0.069,0.18-0.149,0.24c-21,14.33-36.16,27.779-45.48,40.33
			c-0.06,0.08-0.14,0.129-0.24,0.14c-0.1,0.01-0.19-0.011-0.27-0.08c-0.08-0.06-0.13-0.14-0.14-0.24c-0.01-0.1,0.02-0.19,0.08-0.27
			c9.34-12.601,24.551-26.101,45.61-40.49c0.09-0.06,0.18-0.09,0.29-0.069c0.1,0.02,0.18,0.069,0.24,0.149
			C134.49,75.42,134.521,75.51,134.5,75.62z"/>
		
			<radialGradient id="SVGID_5_" cx="-385.0732" cy="358.1768" r="4.0006" gradientTransform="matrix(1.449 -0.1787 -0.1787 -1.449 697.8006 574.1968)" gradientUnits="userSpaceOnUse">
			<stop  offset="0" style="stop-color:#FFFFFF;stop-opacity:0.6902"/>
			<stop  offset="1" style="stop-color:#FFFFFF;stop-opacity:0.0235"/>
		</radialGradient>
		<path fill="url(#SVGID_5_)" d="M81.94,123.55c0,0.09-0.04,0.17-0.12,0.24c-3.56,3.3-7.57,3.62-12.02,0.97
			c-0.09-0.06-0.15-0.13-0.18-0.239c-0.03-0.09-0.01-0.181,0.04-0.261c0.06-0.09,0.13-0.149,0.24-0.18
			c0.09-0.021,0.18-0.011,0.26,0.04c4.13,2.47,7.84,2.18,11.15-0.86c0.08-0.069,0.17-0.11,0.28-0.11c0.09,0,0.17,0.041,0.24,0.121
			C81.9,123.351,81.94,123.44,81.94,123.55z"/>
		
			<radialGradient id="SVGID_6_" cx="-416.2729" cy="364.0752" r="4.9005" gradientTransform="matrix(1.449 -0.1787 -0.1787 -1.449 697.8006 574.1968)" gradientUnits="userSpaceOnUse">
			<stop  offset="0" style="stop-color:#FFFFFF;stop-opacity:0.6902"/>
			<stop  offset="1" style="stop-color:#FFFFFF;stop-opacity:0.0235"/>
		</radialGradient>
		<path fill="url(#SVGID_6_)" d="M23.12,121.64c0.08-0.08,0.17-0.13,0.28-0.14c0.09-0.01,0.17,0.021,0.23,0.08
			c3.41,2.979,7.69,2.96,12.83-0.04c0.09-0.05,0.19-0.061,0.29-0.04c0.09,0.021,0.16,0.08,0.2,0.16c0.05,0.09,0.06,0.19,0.04,0.29
			c-0.02,0.09-0.08,0.16-0.16,0.199c-5.47,3.211-10.02,3.211-13.65-0.01c-0.08-0.08-0.13-0.17-0.14-0.279
			C23.03,121.79,23.05,121.71,23.12,121.64z"/>
		
			<radialGradient id="SVGID_7_" cx="-402.5229" cy="356.8779" r="4.4998" gradientTransform="matrix(1.449 -0.1787 -0.1787 -1.449 697.8006 574.1968)" gradientUnits="userSpaceOnUse">
			<stop  offset="0" style="stop-color:#FFFFFF;stop-opacity:0.6902"/>
			<stop  offset="1" style="stop-color:#FFFFFF;stop-opacity:0.0235"/>
		</radialGradient>
		<path fill="url(#SVGID_7_)" d="M46.72,126.05c0.1,0.02,0.18,0.07,0.24,0.15c1.6,1.97,3.45,2.93,5.54,2.88
			c2.13-0.07,4.52-1.181,7.17-3.31c0.07-0.07,0.15-0.11,0.24-0.101c0.1,0.021,0.18,0.07,0.24,0.149c0.07,0.07,0.11,0.15,0.1,0.25
			c-0.02,0.101-0.07,0.181-0.15,0.24c-2.8,2.26-5.33,3.42-7.59,3.471c-2.31,0.08-4.33-0.971-6.09-3.15
			c-0.07-0.07-0.11-0.15-0.1-0.24c0.02-0.1,0.07-0.18,0.15-0.24C46.55,126.08,46.63,126.05,46.72,126.05z"/>
		
			<radialGradient id="SVGID_8_" cx="-429.5674" cy="364.9785" r="2.9961" gradientTransform="matrix(1.449 -0.1787 -0.1787 -1.449 697.8006 574.1968)" gradientUnits="userSpaceOnUse">
			<stop  offset="0" style="stop-color:#FFFFFF;stop-opacity:0.6902"/>
			<stop  offset="1" style="stop-color:#FFFFFF;stop-opacity:0.0235"/>
		</radialGradient>
		<path fill="url(#SVGID_8_)" d="M14.84,121.601c-0.02,0.109-0.07,0.199-0.15,0.279c-3.43,2.68-6.48,3.01-9.15,0.98
			c-0.08-0.061-0.13-0.141-0.14-0.24c-0.01-0.1,0.01-0.189,0.08-0.27c0.06-0.08,0.14-0.131,0.24-0.141c0.1-0.01,0.19,0.01,0.27,0.08
			c2.41,1.76,5.16,1.42,8.26-1.02c0.07-0.061,0.16-0.08,0.25-0.07c0.11,0.02,0.2,0.07,0.28,0.15
			C14.83,121.42,14.85,121.51,14.84,121.601z"/>
	</g>
</g>
</svg>
