<?xml version="1.0" encoding="utf-8"?>
<!-- Generator: Adobe Illustrator 16.0.0, SVG Export Plug-In . SVG Version: 6.00 Build 0)  -->
<!DOCTYPE svg PUBLIC "-//W3C//DTD SVG 1.1//EN" "http://www.w3.org/Graphics/SVG/1.1/DTD/svg11.dtd">
<svg version="1.1" id="Layer_1" xmlns="http://www.w3.org/2000/svg" xmlns:xlink="http://www.w3.org/1999/xlink" x="0px" y="0px"
	 width="78.63px" height="42.25px" viewBox="0 0 78.63 42.25" enable-background="new 0 0 78.63 42.25" xml:space="preserve">
<g>
	<g>
		<path fill-rule="evenodd" clip-rule="evenodd" fill="#042557" d="M60.05,6.38c4.87,0,9.02,1.72,12.45,5.15
			c3.47,3.47,5.2,7.63,5.2,12.5s-1.73,9.02-5.2,12.45c-3.43,3.47-7.58,5.2-12.45,5.2h-41.2c-4.87,0-9.03-1.73-12.5-5.2
			C2.92,33.04,1.2,28.89,1.2,24.02s1.72-9.03,5.15-12.5c3.47-3.43,7.63-5.15,12.5-5.15H60.05z"/>
	</g>
	<g>
		<path fill-rule="evenodd" clip-rule="evenodd" fill="#74ABFF" d="M60.05,2.17c4.87,0,9.02,1.72,12.45,5.15
			c3.47,3.47,5.2,7.63,5.2,12.5s-1.73,9.02-5.2,12.45c-3.43,3.47-7.58,5.2-12.45,5.2h-41.2c-4.87,0-9.03-1.73-12.5-5.2
			C2.92,28.84,1.2,24.69,1.2,19.83s1.72-9.03,5.15-12.5c3.47-3.43,7.63-5.15,12.5-5.15H60.05z"/>
	</g>
	<g>
		<linearGradient id="SVGID_1_" gradientUnits="userSpaceOnUse" x1="39.4497" y1="1.125" x2="39.4497" y2="36.4253">
			<stop  offset="0" style="stop-color:#136AEC"/>
			<stop  offset="0.5647" style="stop-color:#0C4FB4"/>
			<stop  offset="1" style="stop-color:#00388C"/>
		</linearGradient>
		<path fill-rule="evenodd" clip-rule="evenodd" fill="url(#SVGID_1_)" d="M60.05,1.13c4.87,0,9.02,1.72,12.45,5.15
			c3.47,3.47,5.2,7.63,5.2,12.5s-1.73,9.02-5.2,12.45c-3.43,3.47-7.58,5.2-12.45,5.2h-41.2c-4.87,0-9.03-1.73-12.5-5.2
			C2.92,27.79,1.2,23.64,1.2,18.77s1.72-9.03,5.15-12.5c3.47-3.43,7.63-5.15,12.5-5.15H60.05z"/>
	</g>
</g>
</svg>
