<?xml version="1.0" encoding="utf-8"?>
<!-- Generator: Adobe Illustrator 15.0.0, SVG Export Plug-In . SVG Version: 6.00 Build 0)  -->
<!DOCTYPE svg PUBLIC "-//W3C//DTD SVG 1.1//EN" "http://www.w3.org/Graphics/SVG/1.1/DTD/svg11.dtd">
<svg version="1.1" id="Layer_1" xmlns="http://www.w3.org/2000/svg" xmlns:xlink="http://www.w3.org/1999/xlink" x="0px" y="0px"
	 width="87.167px" height="43.833px" viewBox="0 0 87.167 43.833" enable-background="new 0 0 87.167 43.833" xml:space="preserve">
<g>
	<path fill="#023283" d="M24.342,42.705c-6.5-0.09-11.98-2.19-16.451-6.29c-4.609-4.19-6.891-9.1-6.84-14.72l0.141-0.07
		c0-5.76,2.24-10.6,6.709-14.51v0.07c4.291-4.051,9.631-6.04,16.041-5.94l38.629-0.07c6.17-0.09,11.611,1.87,16.311,5.88h-0.141
		c4.791,3.96,7.352,8.801,7.67,14.511v0.06c0.281,5.67-1.799,10.62-6.219,14.86c-4.471,4.05-9.84,6.109-16.1,6.149L24.342,42.705z
		 M8.442,35.865c4.289,4.01,9.58,6.06,15.9,6.149l39.738-0.069c6.08-0.051,11.291-2.051,15.621-6.011
		c4.289-4.05,6.27-8.8,5.949-14.239v-0.07c-0.32-5.48-2.76-10.16-7.33-14.03c-4.52-3.92-9.77-5.81-15.76-5.67l-38.629,0.07
		c-6.221-0.09-11.381,1.8-15.48,5.67c-4.381,3.729-6.57,8.39-6.57,13.96l-0.07,0.07C1.762,27.135,3.971,31.855,8.442,35.865z"/>
	<path fill="#B4AEB0" d="M8.442,35.865c-4.471-4.01-6.68-8.73-6.631-14.17l0.07-0.07c0-5.58,2.189-10.23,6.57-13.96
		c4.1-3.87,9.26-5.76,15.48-5.67l38.629-0.07c5.99-0.14,11.24,1.75,15.76,5.67c4.561,3.87,7,8.55,7.33,14.03v0.07
		c0.32,5.439-1.66,10.18-5.949,14.239c-4.33,3.96-9.541,5.971-15.621,6.011l-39.738,0.069C18.022,41.925,12.731,39.875,8.442,35.865
		z"/>
</g>
</svg>
