<?xml version="1.0" encoding="utf-8"?>
<!-- Generator: Adobe Illustrator 16.0.0, SVG Export Plug-In . SVG Version: 6.00 Build 0)  -->
<!DOCTYPE svg PUBLIC "-//W3C//DTD SVG 1.1//EN" "http://www.w3.org/Graphics/SVG/1.1/DTD/svg11.dtd">
<svg version="1.1" id="Layer_1" xmlns="http://www.w3.org/2000/svg" xmlns:xlink="http://www.w3.org/1999/xlink" x="0px" y="0px"
	 width="128.25px" height="87.5px" viewBox="0 0 128.25 87.5" enable-background="new 0 0 128.25 87.5" xml:space="preserve">
<g>
	<g>
		<g>
			<g>
				
					<radialGradient id="SVGID_1_" cx="55.5" cy="51.0498" r="107.375" gradientTransform="matrix(1 0 0 0.4958 0 25.7388)" gradientUnits="userSpaceOnUse">
					<stop  offset="0" style="stop-color:#FFFFFF;stop-opacity:0.0627"/>
					<stop  offset="1" style="stop-color:#020202;stop-opacity:0.251"/>
				</radialGradient>
				<path fill-rule="evenodd" clip-rule="evenodd" fill="url(#SVGID_1_)" d="M24.4,14.6v-0.05c11.1-6.43,24.45-9.37,40.05-8.8
					c13.4,0.5,25.1,3.45,35.1,8.85c1.7,0.87,3.35,1.83,4.95,2.9c11.03,7.27,16.53,15.75,16.5,25.45c0,4.27-1.07,8.2-3.2,11.8
					c-0.27,0.4-0.53,0.82-0.8,1.25c-0.3,0.43-0.65,0.9-1.05,1.4h-0.05c0.33-0.5,0.65-0.97,0.95-1.4c0.27-0.43,0.53-0.85,0.8-1.25
					c2.13-3.6,3.23-7.53,3.3-11.8c0-9.67-5.52-18.12-16.55-25.35c-1.63-1.07-3.33-2.07-5.1-3c-9.93-5.3-21.55-8.2-34.85-8.7
					c-15.5-0.57-28.78,2.33-39.85,8.7c-0.03,0-0.08,0.02-0.15,0.05C13.42,21.05,7.87,29.08,7.8,38.75c0,0.4,0,0.8,0,1.2
					c0.3,5.53,2.42,10.67,6.35,15.4H14.1c-4-4.73-6.12-9.87-6.35-15.4c0-0.4,0-0.8,0-1.2C7.75,29.08,13.3,21.03,24.4,14.6z"/>
			</g>
			<g>
				
					<radialGradient id="SVGID_2_" cx="95.1504" cy="70.25" r="16.8861" gradientTransform="matrix(0.9184 -0.3957 0.0972 0.2257 0.9359 92.0492)" gradientUnits="userSpaceOnUse">
					<stop  offset="0" style="stop-color:#FFFFFF"/>
					<stop  offset="0.102" style="stop-color:#FFFFFF"/>
					<stop  offset="0.2118" style="stop-color:#FFFFFF;stop-opacity:0.498"/>
					<stop  offset="0.3804" style="stop-color:#FFFFFF;stop-opacity:0.102"/>
					<stop  offset="0.6471" style="stop-color:#FEFEFE;stop-opacity:0"/>
					<stop  offset="1" style="stop-color:#FDFDFD;stop-opacity:0"/>
				</radialGradient>
				<path fill-rule="evenodd" clip-rule="evenodd" fill="url(#SVGID_2_)" d="M108.35,67.6c-3,2.2-6.87,4.32-11.6,6.35
					c-4.77,2.07-9,3.43-12.7,4.1c-3.67,0.73-5.72,0.62-6.15-0.35c-0.43-1.03,0.87-2.63,3.9-4.8c3.07-2.2,6.98-4.33,11.75-6.4
					c4.7-2.03,8.88-3.42,12.55-4.15c3.7-0.73,5.77-0.58,6.2,0.45S111.42,65.43,108.35,67.6z"/>
			</g>
			<g>
				
					<radialGradient id="SVGID_3_" cx="18.5352" cy="58.7002" r="17.3102" gradientTransform="matrix(0.7657 0.6432 -0.32 0.3808 23.125 24.4217)" gradientUnits="userSpaceOnUse">
					<stop  offset="0" style="stop-color:#FFFFFF;stop-opacity:0.498"/>
					<stop  offset="0.102" style="stop-color:#FFFFFF;stop-opacity:0.498"/>
					<stop  offset="0.2118" style="stop-color:#FFFFFF;stop-opacity:0.2588"/>
					<stop  offset="0.3804" style="stop-color:#FFFFFF;stop-opacity:0.0667"/>
					<stop  offset="0.6471" style="stop-color:#FEFEFE;stop-opacity:0"/>
					<stop  offset="1" style="stop-color:#FDFDFD;stop-opacity:0"/>
				</radialGradient>
				<path fill-rule="evenodd" clip-rule="evenodd" fill="url(#SVGID_3_)" d="M3.85,46.35c1.5-1.73,4.2-2.07,8.1-1
					c3.97,1.2,7.97,3.52,12,6.95c4.03,3.4,6.98,6.9,8.85,10.5c1.73,3.7,1.87,6.43,0.4,8.2c-1.43,1.73-4.1,2.02-8,0.85
					c-3.97-1.07-7.97-3.3-12-6.7c-4.1-3.43-7.05-7.02-8.85-10.75C2.55,50.8,2.38,48.12,3.85,46.35z"/>
			</g>
			<g>
				
					<radialGradient id="SVGID_4_" cx="-112.1255" cy="-600.7275" r="19.8412" gradientTransform="matrix(-0.5229 0.8524 -0.1764 -0.1021 -48.0487 88.8148)" gradientUnits="userSpaceOnUse">
					<stop  offset="0" style="stop-color:#FFFFFF;stop-opacity:0.498"/>
					<stop  offset="0.102" style="stop-color:#FFFFFF;stop-opacity:0.498"/>
					<stop  offset="0.2118" style="stop-color:#FFFFFF;stop-opacity:0.2588"/>
					<stop  offset="0.3804" style="stop-color:#FFFFFF;stop-opacity:0.0667"/>
					<stop  offset="0.6471" style="stop-color:#FEFEFE;stop-opacity:0"/>
					<stop  offset="1" style="stop-color:#FDFDFD;stop-opacity:0"/>
				</radialGradient>
				<path fill-rule="evenodd" clip-rule="evenodd" fill="url(#SVGID_4_)" d="M124.05,37.95c0.4,2.27,0.93,4.95,1.6,8.05
					c-1.5,3.17-3.42,6.67-5.75,10.5c-3.17,5.17-6.18,9.38-9.05,12.65c-2.97,3.27-4.92,4.63-5.85,4.1s-0.58-2.85,1.05-6.95
					c1.53-4,3.88-8.6,7.05-13.8c3.17-5.17,6.23-9.38,9.2-12.65C122.93,39.12,123.52,38.48,124.05,37.95z"/>
			</g>
		</g>
		<g>
			<g>
				<radialGradient id="SVGID_5_" cx="90.8496" cy="64.8496" r="25.8875" gradientUnits="userSpaceOnUse">
					<stop  offset="0" style="stop-color:#FFFFFF"/>
					<stop  offset="1" style="stop-color:#F6F6F6;stop-opacity:0.0235"/>
				</radialGradient>
				<path fill-rule="evenodd" clip-rule="evenodd" fill="url(#SVGID_5_)" d="M69.35,77.7l-5.85-0.2c21.9-1.73,38.8-8.38,50.7-19.95
					C105.3,70.35,90.35,77.07,69.35,77.7z"/>
			</g>
			<g>
				
					<radialGradient id="SVGID_6_" cx="59.0498" cy="76.6504" r="39.7303" gradientTransform="matrix(0.998 0.0636 -8.177386e-003 0.1284 0.7462 63.057)" gradientUnits="userSpaceOnUse">
					<stop  offset="0" style="stop-color:#FFFFFF;stop-opacity:0.251"/>
					<stop  offset="0.102" style="stop-color:#FFFFFF;stop-opacity:0.251"/>
					<stop  offset="0.2118" style="stop-color:#FFFFFF;stop-opacity:0.2588"/>
					<stop  offset="0.3804" style="stop-color:#FFFFFF;stop-opacity:0.0667"/>
					<stop  offset="0.6471" style="stop-color:#FEFEFE;stop-opacity:0"/>
					<stop  offset="1" style="stop-color:#FDFDFD;stop-opacity:0"/>
				</radialGradient>
				<path fill-rule="evenodd" clip-rule="evenodd" fill="url(#SVGID_6_)" d="M99,78.5c-1.73,0.93-4.8,2.15-9.2,3.65
					c-9.33,1.93-19.18,2.57-29.55,1.9c-10.37-0.67-18.57-2.2-24.6-4.6c-9.03-4.37-11.52-7.12-7.45-8.25
					c8.67-0.43,19.08-0.27,31.25,0.5c12.1,0.8,22.37,1.95,30.8,3.45C97.85,76.45,100.77,77.57,99,78.5z"/>
			</g>
		</g>
	</g>
	<g>
		
			<radialGradient id="SVGID_7_" cx="39.3501" cy="7.7998" r="7.9466" gradientTransform="matrix(0.9685 -0.2488 0.0496 0.1933 0.8504 16.0837)" gradientUnits="userSpaceOnUse">
			<stop  offset="0" style="stop-color:#FFFFFF"/>
			<stop  offset="0.102" style="stop-color:#FFFFFF"/>
			<stop  offset="0.2118" style="stop-color:#FFFFFF;stop-opacity:0.498"/>
			<stop  offset="0.3804" style="stop-color:#FFFFFF;stop-opacity:0.1098"/>
			<stop  offset="0.6471" style="stop-color:#FEFEFE;stop-opacity:0"/>
			<stop  offset="1" style="stop-color:#FDFDFD;stop-opacity:0"/>
		</radialGradient>
		<path fill-rule="evenodd" clip-rule="evenodd" fill="url(#SVGID_7_)" d="M39.7,9.25c-2.33,0.63-4.37,1.03-6.1,1.2
			c-1.77,0.13-2.7,0-2.8-0.4C30.7,9.62,31.43,9.03,33,8.3c1.6-0.73,3.57-1.38,5.9-1.95c2.4-0.63,4.45-1.02,6.15-1.15
			c1.77-0.17,2.68-0.05,2.75,0.35c0.1,0.43-0.65,1.02-2.25,1.75C43.98,8.03,42.03,8.68,39.7,9.25z"/>
	</g>
	<g>
		<radialGradient id="SVGID_8_" cx="21.7998" cy="20.9502" r="14.2375" gradientUnits="userSpaceOnUse">
			<stop  offset="0" style="stop-color:#FFFFFF"/>
			<stop  offset="1" style="stop-color:#F6F6F6;stop-opacity:0.0235"/>
		</radialGradient>
		<path fill-rule="evenodd" clip-rule="evenodd" fill="url(#SVGID_8_)" d="M37.6,8.6v0.1l-0.05,0.05c-7.7,3.27-13.43,7.17-17.2,11.7
			c-4.57,5.53-6.2,12.03-4.9,19.5V40l-0.05,0.1h-0.1L15.25,40c-1.3-7.53,0.35-14.1,4.95-19.7c3.77-4.53,9.52-8.45,17.25-11.75h0.1
			C37.55,8.58,37.57,8.6,37.6,8.6z"/>
	</g>
	<g>
		<linearGradient id="SVGID_9_" gradientUnits="userSpaceOnUse" x1="17.8633" y1="14.8511" x2="61.0514" y2="35.2152">
			<stop  offset="0" style="stop-color:#FFFFFF"/>
			<stop  offset="0.302" style="stop-color:#FFFFFF;stop-opacity:0.498"/>
			<stop  offset="1" style="stop-color:#FFFFFF;stop-opacity:0"/>
		</linearGradient>
		<path fill-rule="evenodd" clip-rule="evenodd" fill="url(#SVGID_9_)" d="M34,16.4c7.7-4.67,16.88-6.85,27.55-6.55
			c0.43,0,1.95-0.07,4.55-0.2c-4.6,3.8-10.13,8.93-16.6,15.4c-6.27,6.27-13.42,13.78-21.45,22.55c-3.9-4-5.8-8.57-5.7-13.7
			c0.1-3.17,0.95-6.12,2.55-8.85C26.83,21.82,29.87,18.93,34,16.4z"/>
		<linearGradient id="SVGID_10_" gradientUnits="userSpaceOnUse" x1="98.7246" y1="66.418" x2="83.0716" y2="45.1936">
			<stop  offset="0" style="stop-color:#FFFFFF"/>
			<stop  offset="1" style="stop-color:#FFFFFF;stop-opacity:0"/>
		</linearGradient>
		<path fill-rule="evenodd" clip-rule="evenodd" fill="url(#SVGID_10_)" d="M100.9,25.05c3.23,3.83,4.8,8.07,4.7,12.7
			c-0.17,6.97-4.07,12.78-11.7,17.45c-7.63,4.67-16.78,6.83-27.45,6.5c-1.37-0.03-2.73-0.1-4.1-0.2
			c26.6-5.13,38.77-17.28,36.5-36.45c-0.1-0.8-0.22-1.6-0.35-2.4C99.37,23.42,100.17,24.22,100.9,25.05z"/>
	</g>
	<g>
		
			<radialGradient id="SVGID_11_" cx="81.4004" cy="11.7002" r="12.1495" gradientTransform="matrix(0.9764 0.2161 -0.0658 0.2973 2.6942 -9.3724)" gradientUnits="userSpaceOnUse">
			<stop  offset="0" style="stop-color:#FFFFFF"/>
			<stop  offset="0.1765" style="stop-color:#FFFFFF"/>
			<stop  offset="0.3059" style="stop-color:#FFFFFF;stop-opacity:0.4235"/>
			<stop  offset="0.4902" style="stop-color:#FFFFFF;stop-opacity:0.2314"/>
			<stop  offset="0.651" style="stop-color:#FFFFFF;stop-opacity:0.0824"/>
			<stop  offset="1" style="stop-color:#FFFFFF;stop-opacity:0"/>
		</radialGradient>
		<path fill-rule="evenodd" clip-rule="evenodd" fill="url(#SVGID_11_)" d="M73.7,7.35c2.47-0.17,5.28,0.08,8.45,0.75
			c3.2,0.73,5.9,1.7,8.1,2.9c2.2,1.17,3.17,2.25,2.9,3.25c-0.17,1-1.52,1.58-4.05,1.75c-2.5,0.2-5.33-0.05-8.5-0.75
			c-3.2-0.73-5.87-1.7-8-2.9c-2.07-1.17-2.97-2.27-2.7-3.3C70.07,8.08,71.33,7.52,73.7,7.35z"/>
	</g>
	<g>
		
			<radialGradient id="SVGID_12_" cx="75.6504" cy="6.0498" r="9.1737" gradientTransform="matrix(0.985 0.1726 -0.0461 0.263 1.414 -8.5979)" gradientUnits="userSpaceOnUse">
			<stop  offset="0" style="stop-color:#FFFFFF"/>
			<stop  offset="0.102" style="stop-color:#FFFFFF"/>
			<stop  offset="0.2118" style="stop-color:#FFFFFF;stop-opacity:0.498"/>
			<stop  offset="0.3804" style="stop-color:#FFFFFF;stop-opacity:0.1098"/>
			<stop  offset="0.6471" style="stop-color:#FEFEFE;stop-opacity:0"/>
			<stop  offset="1" style="stop-color:#FDFDFD;stop-opacity:0"/>
		</radialGradient>
		<path fill-rule="evenodd" clip-rule="evenodd" fill="url(#SVGID_12_)" d="M65.65,4.3c0.13-0.63,1.2-1.02,3.2-1.15
			c2.03-0.1,4.45,0.07,7.25,0.5c2.77,0.47,5.07,1.1,6.9,1.9c1.9,0.83,2.82,1.57,2.75,2.2c-0.17,0.67-1.27,1.05-3.3,1.15
			c-2,0.13-4.38-0.03-7.15-0.5c-2.8-0.5-5.15-1.17-7.05-2C66.42,5.63,65.55,4.93,65.65,4.3z"/>
	</g>
	<g>
		<g>
			
				<radialGradient id="SVGID_13_" cx="62.5742" cy="2.5483" r="66.119" gradientTransform="matrix(0.9999 0.014 0 0.2081 -0.0182 4.644)" gradientUnits="userSpaceOnUse">
				<stop  offset="0" style="stop-color:#FFFFFF;stop-opacity:0.3922"/>
				<stop  offset="0.298" style="stop-color:#FFFFFF;stop-opacity:0.2314"/>
				<stop  offset="1" style="stop-color:#FFFFFF;stop-opacity:0"/>
			</radialGradient>
			<path fill-rule="evenodd" clip-rule="evenodd" fill="url(#SVGID_13_)" d="M22.2,20.1V20c0.77-1.27,1.77-2.48,3-3.65
				c2.03-1.93,4.68-3.72,7.95-5.35c8.6-4.23,19-6.1,31.2-5.6C76.52,5.83,86.9,8.52,95.5,13.45c4.2,2.33,7.37,4.88,9.5,7.65
				c0.07,0.03,0.1,0.08,0.1,0.15c0,0.03-0.03,0.05-0.1,0.05c-0.03,0.07-0.08,0.1-0.15,0.1c-0.03,0-0.08-0.03-0.15-0.1
				c-2.1-2.7-5.23-5.23-9.4-7.6c-8.53-4.87-18.85-7.52-30.95-7.95C52.22,5.28,41.87,7.13,33.3,11.3c-3.27,1.6-5.9,3.38-7.9,5.35
				c-1.17,1.1-2.13,2.27-2.9,3.5c0,0.03-0.03,0.05-0.1,0.05c-0.03,0-0.08,0-0.15,0C22.22,20.17,22.2,20.13,22.2,20.1z"/>
		</g>
		<g>
			
				<radialGradient id="SVGID_14_" cx="63.6001" cy="48.2002" r="63.075" gradientTransform="matrix(1 0 0 0.4536 0 26.3353)" gradientUnits="userSpaceOnUse">
				<stop  offset="0" style="stop-color:#FFFFFF"/>
				<stop  offset="0.5843" style="stop-color:#FFFFFF;stop-opacity:0.502"/>
				<stop  offset="1" style="stop-color:#FFFFFF;stop-opacity:0"/>
			</radialGradient>
			<path fill-rule="evenodd" clip-rule="evenodd" fill="url(#SVGID_14_)" d="M22.2,24.75c0.1-0.03,0.2-0.03,0.3,0
				c0.03,0.03,0.08,0.1,0.15,0.2c0.03,0.1,0.03,0.2,0,0.3c-1.27,2.6-1.9,5.4-1.9,8.4c0,4.73,1.58,9.1,4.75,13.1
				c1.97,2.47,4.57,4.8,7.8,7c8.4,5.7,18.6,8.73,30.6,9.1c11.97,0.37,22.17-2.07,30.6-7.3c8.37-5.2,12.57-11.62,12.6-19.25
				c0-3.97-1.08-7.65-3.25-11.05c-0.07-0.1-0.1-0.17-0.1-0.2c0-0.1,0.05-0.18,0.15-0.25c0.1-0.07,0.2-0.08,0.3-0.05
				c0.1,0,0.17,0.05,0.2,0.15c2.27,3.5,3.4,7.3,3.4,11.4c0,7.87-4.28,14.48-12.85,19.85c-8.6,5.27-18.95,7.73-31.05,7.4
				c-12.13-0.37-22.48-3.47-31.05-9.3c-3.27-2.2-5.92-4.57-7.95-7.1c-3.27-4.13-4.9-8.63-4.9-13.5c0-3.1,0.65-6.02,1.95-8.75
				C22.02,24.83,22.1,24.78,22.2,24.75z"/>
		</g>
	</g>
	<g>
		
			<radialGradient id="SVGID_15_" cx="-128.0928" cy="104.0713" r="11.537" gradientTransform="matrix(0.8553 -0.5182 0.1756 0.2623 127.5742 -71.9197)" gradientUnits="userSpaceOnUse">
			<stop  offset="0" style="stop-color:#FFFFFF"/>
			<stop  offset="0.102" style="stop-color:#FFFFFF"/>
			<stop  offset="0.2118" style="stop-color:#FFFFFF;stop-opacity:0.498"/>
			<stop  offset="0.3804" style="stop-color:#FFFFFF;stop-opacity:0.1098"/>
			<stop  offset="0.6471" style="stop-color:#FEFEFE;stop-opacity:0"/>
			<stop  offset="1" style="stop-color:#FDFDFD;stop-opacity:0"/>
		</radialGradient>
		<path fill-rule="evenodd" clip-rule="evenodd" fill="url(#SVGID_15_)" d="M25.4,28.35c-0.57-0.8,0.02-2.15,1.75-4.05
			c1.77-1.83,4.15-3.68,7.15-5.55c3.03-1.8,5.78-3.07,8.25-3.8c2.53-0.73,4.07-0.68,4.6,0.15c0.6,0.83,0,2.18-1.8,4.05
			c-1.7,1.87-4.07,3.72-7.1,5.55c-3,1.83-5.77,3.08-8.3,3.75C27.45,29.18,25.93,29.15,25.4,28.35z"/>
	</g>
	<g>
		<linearGradient id="SVGID_16_" gradientUnits="userSpaceOnUse" x1="51.8433" y1="6.2417" x2="53.8471" y2="19.0872">
			<stop  offset="0" style="stop-color:#FFFFFF"/>
			<stop  offset="1" style="stop-color:#FAFAFA;stop-opacity:0.0667"/>
		</linearGradient>
		<path fill-rule="evenodd" clip-rule="evenodd" fill="url(#SVGID_16_)" d="M24.1,25.05c2.1-3.17,5.18-6.05,9.25-8.65
			c8.37-5.33,18.45-7.9,30.25-7.7c9.5,0.13,17.87,2.03,25.1,5.7c-5.83-1.63-12.13-2.5-18.9-2.6c-13.97-0.23-25.92,2.82-35.85,9.15
			c-2.03,1.3-3.88,2.67-5.55,4.1c-3.5,3.17-6.03,6.6-7.6,10.3C20.93,31.65,22.03,28.22,24.1,25.05z"/>
	</g>
	<g>
		<path fill-rule="evenodd" clip-rule="evenodd" fill="#FFFFFF" fill-opacity="0.7059" d="M94.7,19c2.77,1.9,5.03,3.92,6.8,6.05
			c2.87,3.6,4.3,7.57,4.3,11.9c0,6.47-3.23,12.02-9.7,16.65c5.07-4.77,7.6-10.3,7.6-16.6c0-4.27-1.2-8.25-3.6-11.95
			C98.7,22.92,96.9,20.9,94.7,19z"/>
	</g>
	<g>
		
			<radialGradient id="SVGID_17_" cx="27.2998" cy="45.7002" r="14.8903" gradientTransform="matrix(0.5293 0.8484 -0.4316 0.2693 32.5756 10.2327)" gradientUnits="userSpaceOnUse">
			<stop  offset="0" style="stop-color:#FFFFFF"/>
			<stop  offset="0.1765" style="stop-color:#FFFFFF"/>
			<stop  offset="0.3059" style="stop-color:#FFFFFF;stop-opacity:0.4235"/>
			<stop  offset="0.4902" style="stop-color:#FFFFFF;stop-opacity:0.2314"/>
			<stop  offset="0.651" style="stop-color:#FFFFFF;stop-opacity:0.0824"/>
			<stop  offset="1" style="stop-color:#FFFFFF;stop-opacity:0"/>
		</radialGradient>
		<path fill-rule="evenodd" clip-rule="evenodd" fill="url(#SVGID_17_)" d="M35.2,58.25c-1.87,1.17-4.17,0.85-6.9-0.95
			c-2.8-1.7-5.25-4.22-7.35-7.55c-2.13-3.43-3.35-6.78-3.65-10.05c-0.23-3.07,0.55-5.15,2.35-6.25c1.73-1.07,3.92-0.83,6.55,0.7
			c2.83,1.73,5.3,4.3,7.4,7.7c2.07,3.37,3.25,6.7,3.55,10C37.55,55.05,36.9,57.18,35.2,58.25z"/>
	</g>
	<g>
		
			<radialGradient id="SVGID_18_" cx="61.75" cy="63.0996" r="15.4352" gradientTransform="matrix(0.9985 0.0545 -0.0161 0.2956 1.1095 41.0833)" gradientUnits="userSpaceOnUse">
			<stop  offset="0" style="stop-color:#FFFFFF"/>
			<stop  offset="0.1765" style="stop-color:#FFFFFF"/>
			<stop  offset="0.3059" style="stop-color:#FFFFFF;stop-opacity:0.4235"/>
			<stop  offset="0.4902" style="stop-color:#FFFFFF;stop-opacity:0.2314"/>
			<stop  offset="0.651" style="stop-color:#FFFFFF;stop-opacity:0.0824"/>
			<stop  offset="1" style="stop-color:#FFFFFF;stop-opacity:0"/>
		</radialGradient>
		<path fill-rule="evenodd" clip-rule="evenodd" fill="url(#SVGID_18_)" d="M72.75,60.6c2.97,1.03,4.42,2.15,4.35,3.35
			c-0.1,1.27-1.68,2.25-4.75,2.95c-3.1,0.73-6.7,1-10.8,0.8c-4.13-0.23-7.72-0.9-10.75-2c-2.77-0.97-4.1-2.1-4-3.4
			c0.03-1.23,1.5-2.18,4.4-2.85c3.1-0.73,6.7-0.98,10.8-0.75C66.13,58.9,69.72,59.53,72.75,60.6z"/>
	</g>
	<g>
		
			<radialGradient id="SVGID_19_" cx="18.25" cy="58.4971" r="4.0013" gradientTransform="matrix(0.7618 0.6478 -0.3964 0.4661 27.5332 19.4081)" gradientUnits="userSpaceOnUse">
			<stop  offset="0" style="stop-color:#FFFFFF"/>
			<stop  offset="0.102" style="stop-color:#FFFFFF"/>
			<stop  offset="0.2118" style="stop-color:#FFFFFF;stop-opacity:0.498"/>
			<stop  offset="0.3804" style="stop-color:#FFFFFF;stop-opacity:0.1098"/>
			<stop  offset="0.6471" style="stop-color:#FEFEFE;stop-opacity:0"/>
			<stop  offset="1" style="stop-color:#FDFDFD;stop-opacity:0"/>
		</radialGradient>
		<path fill-rule="evenodd" clip-rule="evenodd" fill="url(#SVGID_19_)" d="M14.9,55.65c0.43-0.5,1.13-0.67,2.1-0.5
			c0.93,0.23,1.87,0.73,2.8,1.5c0.97,0.83,1.62,1.68,1.95,2.55c0.33,0.93,0.28,1.65-0.15,2.15c-0.4,0.53-1.08,0.68-2.05,0.45
			c-0.97-0.2-1.92-0.7-2.85-1.5c-0.93-0.77-1.57-1.62-1.9-2.55C14.43,56.82,14.47,56.12,14.9,55.65z"/>
	</g>
</g>
</svg>
