<?xml version="1.0" encoding="utf-8"?>
<!-- Generator: Adobe Illustrator 16.0.0, SVG Export Plug-In . SVG Version: 6.00 Build 0)  -->
<!DOCTYPE svg PUBLIC "-//W3C//DTD SVG 1.1//EN" "http://www.w3.org/Graphics/SVG/1.1/DTD/svg11.dtd">
<svg version="1.1" id="Layer_1" xmlns="http://www.w3.org/2000/svg" xmlns:xlink="http://www.w3.org/1999/xlink" x="0px" y="0px"
	 width="46.5px" height="44.5px" viewBox="0 0 46.5 44.5" enable-background="new 0 0 46.5 44.5" xml:space="preserve">
<g>
	<g>
		<path fill-rule="evenodd" clip-rule="evenodd" fill="#023283" d="M36.99,7.34c-4.2-3.73-9.18-5.59-14.93-5.59
			c-5.71,0-10.55,1.86-14.51,5.59c-2.73,2.65-4.43,5.67-5.09,9.07l-0.03,0.06c-0.14,0.82-0.25,1.6-0.35,2.34l1.22,23h41.4
			l-1.02-23.06C42.93,14.37,40.7,10.57,36.99,7.34z M22.03,1.12c5.95,0,11.09,1.93,15.43,5.78c3.85,3.34,6.15,7.28,6.92,11.82
			l1.03,23.41c0,0.09-0.03,0.16-0.09,0.22c-0.06,0.06-0.14,0.09-0.24,0.09H2.98c-0.09,0-0.18-0.03-0.25-0.09
			c-0.07-0.06-0.11-0.13-0.11-0.22L1.38,18.69c0.1-0.8,0.23-1.64,0.37-2.53c0.01-0.03,0.02-0.06,0.03-0.09
			c0.73-3.42,2.49-6.48,5.26-9.16C11.13,3.05,16.13,1.12,22.03,1.12z"/>
		<path fill-rule="evenodd" clip-rule="evenodd" fill="#D8D8D8" d="M36.99,7.34c3.71,3.23,5.94,7.03,6.69,11.41l1.02,23.06H3.29
			l-1.22-23c0.1-0.74,0.21-1.52,0.35-2.34l0.03-0.06c0.66-3.4,2.36-6.42,5.09-9.07c3.96-3.73,8.8-5.59,14.51-5.59
			C27.81,1.75,32.79,3.61,36.99,7.34z"/>
	</g>
	<g>
		<polygon fill-rule="evenodd" clip-rule="evenodd" fill="#023283" points="12.8,31.7 22.23,15.08 34.02,31.7 		"/>
	</g>
</g>
</svg>
