<?xml version="1.0" encoding="utf-8"?>
<!-- Generator: Adobe Illustrator 16.0.0, SVG Export Plug-In . SVG Version: 6.00 Build 0)  -->
<!DOCTYPE svg PUBLIC "-//W3C//DTD SVG 1.1//EN" "http://www.w3.org/Graphics/SVG/1.1/DTD/svg11.dtd">
<svg version="1.1" id="Layer_1" xmlns="http://www.w3.org/2000/svg" xmlns:xlink="http://www.w3.org/1999/xlink" x="0px" y="0px"
	 width="23.88px" height="67.75px" viewBox="0 0 23.88 67.75" enable-background="new 0 0 23.88 67.75" xml:space="preserve">
<g>
	<g>
		<path fill-rule="evenodd" clip-rule="evenodd" fill="#5E775E" fill-opacity="0.8" d="M17.1,36.1c-0.07,0.03-0.08,0.08-0.05,0.15
			c0.27,0.37,0.68,0.62,1.25,0.75c-1.03,0.17-2.08,0.53-3.15,1.1h0.05c1.3-0.27,2.53-0.6,3.7-1v-0.05
			C18.27,36.75,17.67,36.43,17.1,36.1z M13.3,33.4c-0.13,0.5,0.17,0.62,0.9,0.35l-0.1-0.05C13.73,33.6,13.47,33.5,13.3,33.4z
			 M4.95,35.9c-0.43,0.07-0.9,0.12-1.4,0.15c-0.43,0.03-0.72,0.23-0.85,0.6c0.07,0.03,0.15,0.07,0.25,0.1
			c0.03,0,0.08-0.02,0.15-0.05c0.9-0.27,1.77-0.48,2.6-0.65V36C5.53,35.8,5.28,35.77,4.95,35.9z M1.85,36.15H1.8
			c0.07,0.07,0.18,0.13,0.35,0.2C2.05,36.28,1.95,36.22,1.85,36.15z M12.7,59.25V59.2c-0.23-0.07-0.33-0.22-0.3-0.45
			c-0.37,0.07-0.65,0.25-0.85,0.55c0.3,0.13,0.5,0.2,0.6,0.2c-0.03,0.03-0.07,0.05-0.1,0.05c-0.27,0.13-0.45,0.35-0.55,0.65
			c0.2,0.13,0.43,0.1,0.7-0.1c0.07-0.03,0.1-0.08,0.1-0.15C12.3,59.72,12.43,59.48,12.7,59.25z M9.5,36.7
			c0.27,0.5,0.67,0.72,1.2,0.65v-0.1c-0.37-0.2-0.75-0.4-1.15-0.6L9.5,36.7z M16.3,36.85c-0.27,0-0.48,0.08-0.65,0.25
			C16.62,37.17,16.83,37.08,16.3,36.85z M21.05,37.95c-0.2,0.1-0.45,0.08-0.75-0.05c-0.37-0.1-0.63-0.15-0.8-0.15
			c-2.9,0.5-6.73,1.48-11.5,2.95c2.17-0.5,3.33-0.75,3.5-0.75c1.2-0.33,2.93-0.65,5.2-0.95c2.43-0.3,4.2-0.58,5.3-0.85l-0.05-0.05
			C21.72,37.87,21.42,37.82,21.05,37.95z M3.1,59.7L3,59.75c0.47,0.93,1.2,1.58,2.2,1.95v-0.1C4.47,61,3.77,60.37,3.1,59.7z
			 M5.55,37.85c-0.83-0.4-1.6-0.73-2.3-1C3.82,37.18,4.7,37.9,5.9,39c1.17,1.1,2,1.58,2.5,1.45c0.47-0.17,0.52-0.43,0.15-0.8
			C8.15,39.25,7.15,38.65,5.55,37.85z M0.6,35.85l13.05-2.65L22,37.6l0.55,25.1L8.9,66.85l-7.6-7.7L0.6,35.85z"/>
		<path fill-rule="evenodd" clip-rule="evenodd" fill="#083A09" d="M17.1,36.1c0.57,0.33,1.17,0.65,1.8,0.95v0.05
			c-1.17,0.4-2.4,0.73-3.7,1h-0.05c1.07-0.57,2.12-0.93,3.15-1.1c-0.57-0.13-0.98-0.38-1.25-0.75C17.02,36.18,17.03,36.13,17.1,36.1
			z M4.95,35.9c0.33-0.13,0.58-0.1,0.75,0.1v0.05C4.87,36.22,4,36.43,3.1,36.7c-0.07,0.03-0.12,0.05-0.15,0.05
			c-0.1-0.03-0.18-0.07-0.25-0.1c0.13-0.37,0.42-0.57,0.85-0.6C4.05,36.02,4.52,35.97,4.95,35.9z M5.55,37.85c1.6,0.8,2.6,1.4,3,1.8
			c0.37,0.37,0.32,0.63-0.15,0.8C7.9,40.58,7.07,40.1,5.9,39c-1.2-1.1-2.08-1.82-2.65-2.15C3.95,37.12,4.72,37.45,5.55,37.85z
			 M3.1,59.7c0.67,0.67,1.37,1.3,2.1,1.9v0.1c-1-0.37-1.73-1.02-2.2-1.95L3.1,59.7z M21.05,37.95c0.37-0.13,0.67-0.08,0.9,0.15
			L22,38.15c-1.1,0.27-2.87,0.55-5.3,0.85c-2.27,0.3-4,0.62-5.2,0.95c-0.17,0-1.33,0.25-3.5,0.75c4.77-1.47,8.6-2.45,11.5-2.95
			c0.17,0,0.43,0.05,0.8,0.15C20.6,38.03,20.85,38.05,21.05,37.95z M16.3,36.85c0.53,0.23,0.32,0.32-0.65,0.25
			C15.82,36.93,16.03,36.85,16.3,36.85z M9.5,36.7l0.05-0.05c0.4,0.2,0.78,0.4,1.15,0.6v0.1C10.17,37.42,9.77,37.2,9.5,36.7z
			 M12.7,59.25c-0.27,0.23-0.4,0.47-0.4,0.7c0,0.07-0.03,0.12-0.1,0.15c-0.27,0.2-0.5,0.23-0.7,0.1c0.1-0.3,0.28-0.52,0.55-0.65
			c0.03,0,0.07-0.02,0.1-0.05c-0.1,0-0.3-0.07-0.6-0.2c0.2-0.3,0.48-0.48,0.85-0.55c-0.03,0.23,0.07,0.38,0.3,0.45V59.25z"/>
		<path fill-rule="evenodd" clip-rule="evenodd" fill="#E1EDFB" d="M13.3,33.4c0.17,0.1,0.43,0.2,0.8,0.3l0.1,0.05
			C13.47,34.02,13.17,33.9,13.3,33.4z M1.85,36.15c0.1,0.07,0.2,0.13,0.3,0.2c-0.17-0.07-0.28-0.13-0.35-0.2H1.85z"/>
	</g>
	<g>
		<linearGradient id="SVGID_1_" gradientUnits="userSpaceOnUse" x1="17.5996" y1="7.7139" x2="13.6389" y2="22.4927">
			<stop  offset="0" style="stop-color:#FFFFFF"/>
			<stop  offset="1" style="stop-color:#FFFFFF;stop-opacity:0"/>
		</linearGradient>
		<path fill-rule="evenodd" clip-rule="evenodd" fill="url(#SVGID_1_)" d="M13.55,8.35c0.2-0.03,0.38-0.07,0.55-0.1
			c0.23-0.03,0.43-0.07,0.6-0.1c2.17-0.33,3.98-0.58,5.45-0.75l2.4-0.45v0.1c0,0.8,0,1.58,0,2.35c-0.03,0.6-0.05,1.23-0.05,1.9
			c-0.07,0.43-0.1,0.9-0.1,1.4c-0.07,2.73-0.12,5.37-0.15,7.9l-0.45-0.3c-1.33-0.93-2.67-1.58-4-1.95c-0.17-0.03-0.35-0.1-0.55-0.2
			c-1.03-0.27-2.08-0.37-3.15-0.3h-0.05c-0.1,0-0.23,0-0.4,0h-0.1c-1.4,0.13-2.87,0.55-4.4,1.25V9.15V9
			c1.03-0.17,2.02-0.32,2.95-0.45C12.6,8.45,13.08,8.38,13.55,8.35z M20.35,8.1c0.4-0.03,0.58-0.18,0.55-0.45h-0.1
			c-0.73,0-1.42,0.07-2.05,0.2C17.95,8.15,18.48,8.23,20.35,8.1z"/>
		<linearGradient id="SVGID_2_" gradientUnits="userSpaceOnUse" x1="9.7344" y1="13.291" x2="13.4249" y2="62.052">
			<stop  offset="0" style="stop-color:#000000;stop-opacity:0.298"/>
			<stop  offset="1" style="stop-color:#FFFFFF;stop-opacity:0"/>
		</linearGradient>
		<path fill-rule="evenodd" clip-rule="evenodd" fill="url(#SVGID_2_)" d="M9.5,57.25L8.85,57.4V8.5l4.7-0.6v0.45
			c-0.47,0.03-0.95,0.1-1.45,0.2C11.17,8.68,10.18,8.83,9.15,9v0.15v9.95c1.53-0.7,3-1.12,4.4-1.25v31.4
			c-1.07,0.57-2.38,1.68-3.95,3.35C9.57,54.13,9.53,55.68,9.5,57.25z M10.9,39v-0.05c-0.37-0.23-0.75-0.43-1.15-0.6L9.7,38.4
			C9.97,38.87,10.37,39.07,10.9,39z"/>
		<linearGradient id="SVGID_3_" gradientUnits="userSpaceOnUse" x1="7.3496" y1="1.3877" x2="7.3496" y2="20.1127">
			<stop  offset="0" style="stop-color:#000000;stop-opacity:0.298"/>
			<stop  offset="1" style="stop-color:#FFFFFF;stop-opacity:0"/>
		</linearGradient>
		<polygon fill-rule="evenodd" clip-rule="evenodd" fill="url(#SVGID_3_)" points="8.85,8.15 1.15,2.25 13.55,1.1 13.55,7.55 		"/>
		<path fill-rule="evenodd" clip-rule="evenodd" fill="#666666" d="M8.85,8.15l4.7-0.6V1.1L1.15,2.25L8.85,8.15z M8.6,8.4L1.15,2.8
			v56.5l7.3-1.8L8.6,8.4z M14.1,7.5h0.1l7.35-1.05L22.7,6.3l-8.6-4.85V7.5z M13.55,7.9l-4.7,0.6v48.9v0.3v9.05l1.9-0.55L16,64.65
			l6.8-1.95v-0.3V6.7l-8.7,1.15L13.55,7.9z M23.2,6.25V63L8.8,67.15l-8.1-7.4V1.9l12.85-1.2L23.2,6.25z M8.45,57.85l-7.3,1.7
			l7.3,6.85V57.85z"/>
		<linearGradient id="SVGID_4_" gradientUnits="userSpaceOnUse" x1="6.1729" y1="6.5117" x2="0.035" y2="29.2536">
			<stop  offset="0" style="stop-color:#FFFFFF"/>
			<stop  offset="1" style="stop-color:#FFFFFF;stop-opacity:0"/>
		</linearGradient>
		<path fill-rule="evenodd" clip-rule="evenodd" fill="url(#SVGID_4_)" d="M1.55,3.85l6.5,4.85v10.65c-1.43,0.1-2.73,1.2-3.9,3.3
			C3.22,24.35,2.5,26.5,2,29.1c-0.17,0.77-0.32,1.58-0.45,2.45V29.1V3.85z"/>
		<linearGradient id="SVGID_5_" gradientUnits="userSpaceOnUse" x1="10.3203" y1="-1.7578" x2="-3.496" y2="78.1024">
			<stop  offset="0" style="stop-color:#000000;stop-opacity:0.298"/>
			<stop  offset="1" style="stop-color:#FFFFFF;stop-opacity:0"/>
		</linearGradient>
		<path fill-rule="evenodd" clip-rule="evenodd" fill="url(#SVGID_5_)" d="M1.55,3.85V29.1v2.45C1.68,30.68,1.83,29.87,2,29.1
			c0.5-2.6,1.22-4.75,2.15-6.45c1.17-2.1,2.47-3.2,3.9-3.3V8.7L1.55,3.85z M8.6,8.4L8.45,57.5l-7.3,1.8V2.8L8.6,8.4z M8.25,32
			c0-0.93,0-1.9,0-2.9c0-0.23,0-0.47,0-0.7c0-9.3-0.15-10.15-0.45-2.55C7.77,26.92,7.73,28,7.7,29.1c-0.13,4.6-0.2,9.25-0.2,13.95
			c0,0.1,0,0.2,0,0.3v0.25c0.1,1.67,0.28,3.18,0.55,4.55c0.07-1.6,0.13-3.6,0.2-6h-0.1V32H8.25z M2.15,37.9H2.1
			c0.1,0.03,0.22,0.08,0.35,0.15C2.35,37.98,2.25,37.93,2.15,37.9z M5.95,37.75c-0.17-0.2-0.42-0.23-0.75-0.1
			c-0.43,0.07-0.88,0.12-1.35,0.15C3.42,37.83,3.13,38.02,3,38.35c0.07,0.03,0.15,0.07,0.25,0.1c0.03,0,0.07-0.02,0.1-0.05
			c0.9-0.27,1.77-0.47,2.6-0.6V37.75z M1.4,41.8v14.55c0.1,0.9,0.25,1.78,0.45,2.65C1.95,55.13,2,48.57,2,39.3
			c0-9.37-0.15-10.23-0.45-2.6C1.52,38.43,1.47,40.13,1.4,41.8z"/>
		<path fill-rule="evenodd" clip-rule="evenodd" fill="#FFFFFF" d="M14.4,1.9c0.93,0.53,1.83,1.1,2.7,1.7c0.97,0.6,1.93,1.2,2.9,1.8
			c0.5,0.3,1.02,0.62,1.55,0.95v0.1c-0.83-0.27-1.63-0.62-2.4-1.05c-1-0.53-1.97-1.13-2.9-1.8C15.62,3.13,15,2.62,14.4,2.05
			c0.07,0.53,0.1,1.05,0.1,1.55c0.03,1.3-0.07,2.6-0.3,3.9c-0.1-1.3-0.12-2.6-0.05-3.9c0.03-0.53,0.1-1.08,0.2-1.65V1.9l0.05-0.05
			V1.9z M20.35,8.1c-1.87,0.13-2.4,0.05-1.6-0.25c0.63-0.13,1.32-0.2,2.05-0.2h0.1C20.93,7.92,20.75,8.07,20.35,8.1z M14.15,31.55
			c0-0.83,0.02-1.65,0.05-2.45c0.03-3.4,0.17-6.77,0.4-10.1c0,3.33,0,6.7,0,10.1c0,0.8,0,1.62,0,2.45
			C14.47,31.55,14.32,31.55,14.15,31.55z M8.25,32h-0.1v10.15h0.1c-0.07,2.4-0.13,4.4-0.2,6C7.78,46.78,7.6,45.27,7.5,43.6v-0.25
			c0-0.1,0-0.2,0-0.3c0-4.7,0.07-9.35,0.2-13.95c0.03-1.1,0.07-2.18,0.1-3.25c0.3-7.6,0.45-6.75,0.45,2.55c0,0.23,0,0.47,0,0.7
			C8.25,30.1,8.25,31.07,8.25,32z M1.4,41.8c0.07-1.67,0.12-3.37,0.15-5.1C1.85,29.07,2,29.93,2,39.3C2,48.57,1.95,55.13,1.85,59
			c-0.2-0.87-0.35-1.75-0.45-2.65V41.8z"/>
		<linearGradient id="SVGID_6_" gradientUnits="userSpaceOnUse" x1="22.9541" y1="-2.0439" x2="15.1611" y2="56.7189">
			<stop  offset="0" style="stop-color:#000000;stop-opacity:0.298"/>
			<stop  offset="1" style="stop-color:#FFFFFF;stop-opacity:0"/>
		</linearGradient>
		<path fill-rule="evenodd" clip-rule="evenodd" fill="url(#SVGID_6_)" d="M13.95,49.1l0.1-31.25h0.05c1.07-0.07,2.12,0.03,3.15,0.3
			c-1.37-0.27-0.8,0.98,1.7,3.75v29.8c-0.73-1.27-1.68-2.2-2.85-2.8c-0.2-0.1-0.43-0.15-0.7-0.15c-0.03,0-0.1,0-0.2,0
			C14.8,48.75,14.38,48.87,13.95,49.1z M22.8,62.4l-0.45-0.3c0.03-1,0.03-1.98,0-2.95H21.8V56.7l0.45-36.1
			c0.03-2.53,0.08-5.17,0.15-7.9c0-0.5,0.03-0.97,0.1-1.4c0-0.67,0.02-1.3,0.05-1.9c0-0.77,0-1.55,0-2.35v-0.1l-2.4,0.45
			c-1.47,0.17-3.28,0.42-5.45,0.75c-0.17,0.03-0.37,0.07-0.6,0.1v-0.4l8.7-1.15V62.4z M14.4,1.9V1.85L14.35,1.9v0.05
			c-0.1,0.57-0.17,1.12-0.2,1.65c-0.07,1.3-0.05,2.6,0.05,3.9c0.23-1.3,0.33-2.6,0.3-3.9c0-0.5-0.03-1.02-0.1-1.55
			c0.6,0.57,1.22,1.08,1.85,1.55c0.93,0.67,1.9,1.27,2.9,1.8c0.77,0.43,1.57,0.78,2.4,1.05v-0.1C21.02,6.02,20.5,5.7,20,5.4
			c-0.97-0.6-1.93-1.2-2.9-1.8C16.23,3,15.33,2.43,14.4,1.9z M14.1,7.5V1.45l8.6,4.85l-1.15,0.15L14.2,7.5H14.1z M14.15,31.55
			c0.17,0,0.32,0,0.45,0c0-0.83,0-1.65,0-2.45c0-3.4,0-6.77,0-10.1c-0.23,3.33-0.37,6.7-0.4,10.1
			C14.17,29.9,14.15,30.72,14.15,31.55z M15.8,38.75c0.93,0.1,1.15,0.03,0.65-0.2C16.15,38.55,15.93,38.62,15.8,38.75z"/>
		<path fill-rule="evenodd" clip-rule="evenodd" fill="#999999" d="M14.05,17.85l-0.1,31.25c-0.13,0.03-0.27,0.08-0.4,0.15v-31.4
			h0.1C13.82,17.85,13.95,17.85,14.05,17.85z M14.1,7.85v0.4c-0.17,0.03-0.35,0.07-0.55,0.1V7.9L14.1,7.85z M22.8,62.7l-0.45-0.25
			c0-0.1,0-0.22,0-0.35l0.45,0.3V62.7z M9.5,57.55L8.85,57.7v-0.3l0.65-0.15C9.5,57.35,9.5,57.45,9.5,57.55z"/>
		
			<linearGradient id="SVGID_7_" gradientUnits="userSpaceOnUse" x1="-1594.5215" y1="-522.6528" x2="-1583.9139" y2="-522.6528" gradientTransform="matrix(-0.6976 -0.7165 0.1284 -1.3016 -1022.2112 -1781.868)">
			<stop  offset="0" style="stop-color:#FFFFFF"/>
			<stop  offset="1" style="stop-color:#FFFFFF;stop-opacity:0"/>
		</linearGradient>
		<path fill-rule="evenodd" clip-rule="evenodd" fill="url(#SVGID_7_)" d="M22.25,20.6L21.8,56.7c-0.17,0-0.3,0-0.4,0
			c-0.83-0.23-1.65-0.45-2.45-0.65V51.7V21.9c-2.5-2.77-3.07-4.02-1.7-3.75c0.2,0.1,0.38,0.17,0.55,0.2c1.33,0.37,2.67,1.02,4,1.95
			L22.25,20.6z"/>
		<path fill-rule="evenodd" clip-rule="evenodd" fill="#E1EDFB" d="M5.95,37.75v0.05c-0.83,0.13-1.7,0.33-2.6,0.6
			c-0.03,0.03-0.07,0.05-0.1,0.05c-0.1-0.03-0.18-0.07-0.25-0.1c0.13-0.33,0.42-0.52,0.85-0.55c0.47-0.03,0.92-0.08,1.35-0.15
			C5.53,37.52,5.78,37.55,5.95,37.75z M2.15,37.9c0.1,0.03,0.2,0.08,0.3,0.15C2.32,37.98,2.2,37.93,2.1,37.9H2.15z M3.35,60
			c0.7,0.6,1.42,1.2,2.15,1.8v0.05c-1.03-0.33-1.77-0.93-2.2-1.8L3.35,60z M15.8,38.75c0.13-0.13,0.35-0.2,0.65-0.2
			C16.95,38.78,16.73,38.85,15.8,38.75z M10.9,39c-0.53,0.07-0.93-0.13-1.2-0.6l0.05-0.05c0.4,0.17,0.78,0.37,1.15,0.6V39z"/>
		<linearGradient id="SVGID_8_" gradientUnits="userSpaceOnUse" x1="3.4258" y1="57.3252" x2="10.4758" y2="64.3752">
			<stop  offset="0" style="stop-color:#000000;stop-opacity:0.298"/>
			<stop  offset="1" style="stop-color:#FFFFFF;stop-opacity:0"/>
		</linearGradient>
		<path fill-rule="evenodd" clip-rule="evenodd" fill="url(#SVGID_8_)" d="M3.35,60L3.3,60.05c0.43,0.87,1.17,1.47,2.2,1.8V61.8
			C4.77,61.2,4.05,60.6,3.35,60z M8.45,57.85v8.55l-7.3-6.85L8.45,57.85z"/>
		
			<linearGradient id="SVGID_9_" gradientUnits="userSpaceOnUse" x1="-942.27" y1="314.6826" x2="-933.9938" y2="314.6826" gradientTransform="matrix(0.4984 -0.8669 0.908 0.427 196.7514 -888.1088)">
			<stop  offset="0" style="stop-color:#FFFFFF"/>
			<stop  offset="1" style="stop-color:#FFFFFF;stop-opacity:0"/>
		</linearGradient>
		<path fill-rule="evenodd" clip-rule="evenodd" fill="url(#SVGID_9_)" d="M22.35,62.45c0,0.1,0,0.22,0,0.35l-3.15,0.8
			c-1.17,0.4-2.23,0.75-3.2,1.05l-5.25,1.55c-0.43,0.07-0.72,0.08-0.85,0.05c-0.2,0-0.3-0.02-0.3-0.05l-0.25,0.05
			c0-0.83,0-1.65,0-2.45c0.07-2.13,0.12-4.22,0.15-6.25c0-0.1,0-0.2,0-0.3c0.03-1.57,0.07-3.12,0.1-4.65
			c1.57-1.67,2.88-2.78,3.95-3.35c0.13-0.07,0.27-0.12,0.4-0.15c0.43-0.23,0.85-0.35,1.25-0.35c0.1,0,0.17,0,0.2,0
			c0.27,0,0.5,0.05,0.7,0.15c1.17,0.6,2.12,1.53,2.85,2.8v4.35c0.8,0.2,1.62,0.42,2.45,0.65c0.1,0,0.23,0,0.4,0v2.45h0.55
			c0.03,0.97,0.03,1.95,0,2.95C22.35,62.23,22.35,62.35,22.35,62.45z"/>
		<linearGradient id="SVGID_10_" gradientUnits="userSpaceOnUse" x1="12.874" y1="53.7178" x2="17.3774" y2="70.5169">
			<stop  offset="0" style="stop-color:#000000;stop-opacity:0.298"/>
			<stop  offset="1" style="stop-color:#FFFFFF;stop-opacity:0"/>
		</linearGradient>
		<path fill-rule="evenodd" clip-rule="evenodd" fill="url(#SVGID_10_)" d="M16,64.65c0.97-0.3,2.03-0.65,3.2-1.05l3.15-0.8
			c0-0.13,0-0.25,0-0.35l0.45,0.25L16,64.65z M8.85,57.7l0.65-0.15c-0.03,2.03-0.08,4.12-0.15,6.25c0,0.8,0,1.62,0,2.45L9.6,66.2
			c0,0.03,0.1,0.05,0.3,0.05c0.13,0.03,0.42,0.02,0.85-0.05l-1.9,0.55V57.7z"/>
	</g>
</g>
</svg>
