<?xml version="1.0" encoding="utf-8"?>
<!-- Generator: Adobe Illustrator 16.0.0, SVG Export Plug-In . SVG Version: 6.00 Build 0)  -->
<!DOCTYPE svg PUBLIC "-//W3C//DTD SVG 1.1//EN" "http://www.w3.org/Graphics/SVG/1.1/DTD/svg11.dtd">
<svg version="1.1" id="Layer_1" xmlns="http://www.w3.org/2000/svg" xmlns:xlink="http://www.w3.org/1999/xlink" x="0px" y="0px"
	 width="40.25px" height="33.38px" viewBox="0 0 40.25 33.38" enable-background="new 0 0 40.25 33.38" xml:space="preserve">
<g>
	<g>
		<path fill-rule="evenodd" clip-rule="evenodd" fill="#4F5C48" d="M35.97,33.42V19.58h1.15v13.85H35.97z M1.27,1.33h1.2v32.1h-1.2
			V1.33z"/>
	</g>
	<g>
		<path fill-rule="evenodd" clip-rule="evenodd" fill="#74A871" fill-opacity="0.2392" d="M35.78,2.63v15.75H4.23v-0.05H4.17
			l-1.2-15.8c2.1,0.07,3.27,0.1,3.5,0.1H35.78z M36.97,7.92l1.25,10.45h-1.25V7.92z"/>
		<path fill-rule="evenodd" clip-rule="evenodd" fill="#4F5C48" d="M35.78,2.63H6.48c-0.23,0-1.4-0.03-3.5-0.1l1.2,15.8h0.05v0.05
			h31.55h1.2h1.25L36.97,7.92l-0.9-5.3H35.78z M38.28,33.42V19.58H4.17v13.85h-1.2V18.38L1.58,1.23l35.25,0.2
			c0.17,0,0.3,0.07,0.4,0.2c0.1,0.07,0.17,0.18,0.2,0.35l2.05,16.95c0,0.03,0,0.08,0,0.15v14.35H38.28z"/>
		<polygon fill-rule="evenodd" clip-rule="evenodd" fill="#4F5C48" fill-opacity="0.4118" points="35.78,18.38 35.78,2.63 
			36.08,2.63 36.97,7.92 36.97,18.38 		"/>
		
			<rect x="4.17" y="19.58" fill-rule="evenodd" clip-rule="evenodd" fill="#4F5C48" fill-opacity="0.2392" width="34.1" height="13.85"/>
	</g>
	<g>
		<g>
			
				<linearGradient id="SVGID_1_" gradientUnits="userSpaceOnUse" x1="99.4365" y1="-217.7305" x2="168.8443" y2="-217.7305" gradientTransform="matrix(0.7251 0.6887 -0.7857 0.6329 -246.0446 73.089)">
				<stop  offset="0" style="stop-color:#FFFFFF"/>
				<stop  offset="1" style="stop-color:#FDFDFD;stop-opacity:0"/>
			</linearGradient>
			<rect x="5.13" y="20.38" fill-rule="evenodd" clip-rule="evenodd" fill="url(#SVGID_1_)" width="32.45" height="12.8"/>
		</g>
	</g>
	<g>
		<linearGradient id="SVGID_2_" gradientUnits="userSpaceOnUse" x1="4.353" y1="-8.498" x2="32.819" y2="22.4021">
			<stop  offset="0" style="stop-color:#FFFFFF"/>
			<stop  offset="1" style="stop-color:#FDFDFD;stop-opacity:0"/>
		</linearGradient>
		<polygon fill-rule="evenodd" clip-rule="evenodd" fill="url(#SVGID_2_)" points="35.33,7.58 7.33,16.77 7.33,3.08 35.33,3.08 		
			"/>
	</g>
</g>
</svg>
