<?xml version="1.0" encoding="utf-8"?>
<!-- Generator: Adobe Illustrator 16.0.0, SVG Export Plug-In . SVG Version: 6.00 Build 0)  -->
<!DOCTYPE svg PUBLIC "-//W3C//DTD SVG 1.1//EN" "http://www.w3.org/Graphics/SVG/1.1/DTD/svg11.dtd">
<svg version="1.1" id="Layer_1" xmlns="http://www.w3.org/2000/svg" xmlns:xlink="http://www.w3.org/1999/xlink" x="0px" y="0px"
	 width="22px" height="63px" viewBox="0 0 22 63" enable-background="new 0 0 22 63" xml:space="preserve">
<g>
	<g>
		<path fill-rule="evenodd" clip-rule="evenodd" fill="#666666" d="M12.77,7.67L8.42,8.22v45.05v0.3v8.3l12.85-3.7v-0.3V6.57
			l-8,1.05L12.77,7.67z M21.17,6.22l-7.9-4.45v5.55L21.17,6.22z M12.77,1.42L1.32,2.47l7.1,5.45l4.35-0.55V1.42z M21.62,6.17v52.25
			L8.37,62.27l-7.45-6.85V2.17l11.85-1.1L21.62,6.17z M8.17,8.17l-6.85-5.2v52.05l6.75-1.65L8.17,8.17z M8.07,53.67l-6.75,1.6
			l6.75,6.3V53.67z"/>
		<linearGradient id="SVGID_1_" gradientUnits="userSpaceOnUse" x1="21.4136" y1="-1.4648" x2="14.2317" y2="52.6909">
			<stop  offset="0" style="stop-color:#000000;stop-opacity:0.298"/>
			<stop  offset="1" style="stop-color:#FFFFFF;stop-opacity:0"/>
		</linearGradient>
		<path fill-rule="evenodd" clip-rule="evenodd" fill="url(#SVGID_1_)" d="M21.27,57.87l-8.2-5.4l0.2-44.85l8-1.05V57.87z
			 M21.17,6.22l-7.9,1.1V1.77L21.17,6.22z"/>
		<linearGradient id="SVGID_2_" gradientUnits="userSpaceOnUse" x1="7.041" y1="1.6914" x2="7.041" y2="18.9414">
			<stop  offset="0" style="stop-color:#000000;stop-opacity:0.298"/>
			<stop  offset="1" style="stop-color:#FFFFFF;stop-opacity:0"/>
		</linearGradient>
		<polygon fill-rule="evenodd" clip-rule="evenodd" fill="url(#SVGID_2_)" points="12.77,1.42 12.77,7.37 8.42,7.92 1.32,2.47 		"/>
		<polygon fill-rule="evenodd" clip-rule="evenodd" fill="#999999" points="13.27,7.62 13.07,52.47 21.27,57.87 21.27,58.17 
			12.77,52.47 8.42,53.57 8.42,53.27 12.77,52.22 12.77,7.67 		"/>
		<linearGradient id="SVGID_3_" gradientUnits="userSpaceOnUse" x1="9.2393" y1="12.6318" x2="12.6442" y2="57.5436">
			<stop  offset="0" style="stop-color:#000000;stop-opacity:0.298"/>
			<stop  offset="1" style="stop-color:#FFFFFF;stop-opacity:0"/>
		</linearGradient>
		<polygon fill-rule="evenodd" clip-rule="evenodd" fill="url(#SVGID_3_)" points="12.77,7.67 12.77,52.22 8.42,53.27 8.42,8.22 		
			"/>
		<linearGradient id="SVGID_4_" gradientUnits="userSpaceOnUse" x1="9.7764" y1="-1.2256" x2="-2.9488" y2="72.3331">
			<stop  offset="0" style="stop-color:#000000;stop-opacity:0.298"/>
			<stop  offset="1" style="stop-color:#FFFFFF;stop-opacity:0"/>
		</linearGradient>
		<polygon fill-rule="evenodd" clip-rule="evenodd" fill="url(#SVGID_4_)" points="8.17,8.17 8.07,53.37 1.32,55.02 1.32,2.97 		"/>
		<linearGradient id="SVGID_5_" gradientUnits="userSpaceOnUse" x1="3.4292" y1="53.2046" x2="9.9292" y2="59.7046">
			<stop  offset="0" style="stop-color:#000000;stop-opacity:0.298"/>
			<stop  offset="1" style="stop-color:#FFFFFF;stop-opacity:0"/>
		</linearGradient>
		<polygon fill-rule="evenodd" clip-rule="evenodd" fill="url(#SVGID_5_)" points="8.07,53.67 8.07,61.57 1.32,55.27 		"/>
		<linearGradient id="SVGID_6_" gradientUnits="userSpaceOnUse" x1="12.1206" y1="49.894" x2="16.2788" y2="65.3668">
			<stop  offset="0" style="stop-color:#000000;stop-opacity:0.298"/>
			<stop  offset="1" style="stop-color:#FFFFFF;stop-opacity:0"/>
		</linearGradient>
		<polygon fill-rule="evenodd" clip-rule="evenodd" fill="url(#SVGID_6_)" points="8.42,53.57 12.77,52.47 21.27,58.17 8.42,61.87 
					"/>
	</g>
	<g>
		<path fill-rule="evenodd" clip-rule="evenodd" fill="#E1EDFB" d="M2.27,35.32c0.07,0.03,0.15,0.08,0.25,0.15
			c-0.13-0.07-0.23-0.12-0.3-0.15H2.27z M14.82,36.12c0.13-0.13,0.33-0.2,0.6-0.2C15.88,36.12,15.68,36.18,14.82,36.12z
			 M10.32,36.32c-0.5,0.07-0.87-0.12-1.1-0.55l0.05-0.05c0.37,0.17,0.72,0.35,1.05,0.55V36.32z M5.77,35.22
			C5,35.35,4.2,35.53,3.37,35.77c-0.03,0.03-0.07,0.05-0.1,0.05c-0.1-0.03-0.18-0.07-0.25-0.1c0.13-0.3,0.4-0.47,0.8-0.5
			c0.43-0.03,0.85-0.08,1.25-0.15c0.3-0.1,0.53-0.07,0.7,0.1V35.22z M5.32,57.37c-0.93-0.3-1.6-0.85-2-1.65l0.05-0.05
			c0.63,0.57,1.28,1.12,1.95,1.65V57.37z M12.12,55.27c-0.23,0.2-0.35,0.4-0.35,0.6c0,0.07-0.03,0.12-0.1,0.15
			c-0.23,0.17-0.45,0.18-0.65,0.05c0.1-0.23,0.27-0.42,0.5-0.55c0.03,0,0.07-0.02,0.1-0.05c-0.1,0-0.28-0.05-0.55-0.15
			c0.2-0.27,0.47-0.43,0.8-0.5c-0.03,0.2,0.05,0.33,0.25,0.4V55.27z"/>
	</g>
	<g>
		<linearGradient id="SVGID_7_" gradientUnits="userSpaceOnUse" x1="16.4849" y1="7.5347" x2="12.8396" y2="21.136">
			<stop  offset="0" style="stop-color:#FFFFFF"/>
			<stop  offset="1" style="stop-color:#FFFFFF;stop-opacity:0"/>
		</linearGradient>
		<path fill-rule="evenodd" clip-rule="evenodd" fill="url(#SVGID_7_)" d="M20.77,19.37l-0.4-0.25c-1.23-0.87-2.47-1.47-3.7-1.8
			c-0.17-0.03-0.33-0.1-0.5-0.2c-0.97-0.23-1.93-0.32-2.9-0.25c-0.13,0-0.28,0-0.45,0c-1.3,0.1-2.67,0.48-4.1,1.15v-9.2v-0.1
			c0.93-0.17,1.83-0.32,2.7-0.45c0.83-0.1,1.63-0.22,2.4-0.35c2-0.3,3.67-0.53,5-0.7l2.2-0.4v0.1c0,0.73,0,1.45,0,2.15
			c-0.03,0.57-0.05,1.15-0.05,1.75c-0.03,0.4-0.05,0.83-0.05,1.3C20.85,14.62,20.8,17.03,20.77,19.37z M19.52,7.47h-0.1
			c-0.67,0-1.3,0.05-1.9,0.15c-0.73,0.3-0.23,0.38,1.5,0.25C19.38,7.83,19.55,7.7,19.52,7.47z"/>
		<path fill-rule="evenodd" clip-rule="evenodd" fill="#FFFFFF" d="M13.47,2.17l0.05-0.05v0.05c0.87,0.5,1.7,1.02,2.5,1.55
			c0.9,0.57,1.78,1.12,2.65,1.65c0.47,0.3,0.95,0.6,1.45,0.9v0.1c-0.77-0.27-1.5-0.6-2.2-1c-0.93-0.47-1.83-1.02-2.7-1.65
			c-0.57-0.43-1.13-0.9-1.7-1.4c0.07,0.47,0.1,0.93,0.1,1.4c0.03,1.23-0.05,2.45-0.25,3.65c-0.1-1.2-0.12-2.42-0.05-3.65
			c0.03-0.5,0.08-1,0.15-1.5V2.17z M19.52,7.47c0.03,0.23-0.13,0.37-0.5,0.4c-1.73,0.13-2.23,0.05-1.5-0.25
			c0.6-0.1,1.23-0.15,1.9-0.15H19.52z M7.77,29.87v9.35h0.1c-0.07,2.23-0.13,4.08-0.2,5.55c-0.23-1.27-0.4-2.67-0.5-4.2v-0.25
			c0-0.07,0-0.15,0-0.25c0-5.33,0.1-10.62,0.3-15.85c0.27-7,0.4-6.22,0.4,2.35c0,1.13,0,2.23,0,3.3H7.77z M13.32,29.47
			c0-3.9,0.13-7.75,0.4-11.55c0,3.8,0,7.65,0,11.55C13.58,29.47,13.45,29.47,13.32,29.47z M1.57,38.92c0.07-1.53,0.12-3.1,0.15-4.7
			c0.27-7.03,0.4-6.23,0.4,2.4c0,8.53-0.05,14.58-0.15,18.15c-0.17-0.8-0.3-1.62-0.4-2.45V38.92z"/>
		<linearGradient id="SVGID_8_" gradientUnits="userSpaceOnUse" x1="5.96" y1="6.3936" x2="0.3065" y2="27.3312">
			<stop  offset="0" style="stop-color:#FFFFFF"/>
			<stop  offset="1" style="stop-color:#FFFFFF;stop-opacity:0"/>
		</linearGradient>
		<path fill-rule="evenodd" clip-rule="evenodd" fill="url(#SVGID_8_)" d="M1.72,3.97l5.95,4.45v9.8c-1.3,0.1-2.5,1.12-3.6,3.05
			c-1.1,2.03-1.88,4.77-2.35,8.2V3.97z"/>
		
			<linearGradient id="SVGID_9_" gradientUnits="userSpaceOnUse" x1="-611.5522" y1="-210.5293" x2="-601.7757" y2="-210.5293" gradientTransform="matrix(-0.6981 -0.716 0.1278 -1.3013 -378.5018 -673.825)">
			<stop  offset="0" style="stop-color:#FFFFFF"/>
			<stop  offset="1" style="stop-color:#FFFFFF;stop-opacity:0"/>
		</linearGradient>
		<path fill-rule="evenodd" clip-rule="evenodd" fill="url(#SVGID_9_)" d="M20.77,19.37l-0.4,33.25c-0.17,0-0.3,0-0.4,0
			c-0.77-0.2-1.52-0.4-2.25-0.6v-4V20.57c-2.3-2.53-2.82-3.68-1.55-3.45c0.17,0.1,0.33,0.17,0.5,0.2c1.23,0.33,2.47,0.93,3.7,1.8
			L20.77,19.37z"/>
		
			<linearGradient id="SVGID_10_" gradientUnits="userSpaceOnUse" x1="-383.0991" y1="137.7388" x2="-375.4833" y2="137.7388" gradientTransform="matrix(0.499 -0.8666 0.9077 0.4277 78.2563 -332.3628)">
			<stop  offset="0" style="stop-color:#FFFFFF"/>
			<stop  offset="1" style="stop-color:#FFFFFF;stop-opacity:0"/>
		</linearGradient>
		<path fill-rule="evenodd" clip-rule="evenodd" fill="url(#SVGID_10_)" d="M20.37,52.62v2.25h0.5c0.03,1.13,0.03,2.27,0,3.4
			l-2.9,0.7c-5.2,1.8-8.07,2.62-8.6,2.45c-0.17,0-0.25-0.02-0.25-0.05l-0.25,0.05c0-0.77,0-1.52,0-2.25c0.1-3.57,0.18-7,0.25-10.3
			c2.2-2.37,3.92-3.55,5.15-3.55c0.1,0,0.17,0,0.2,0c0.23,0,0.45,0.05,0.65,0.15c1.07,0.53,1.93,1.38,2.6,2.55v4
			c0.73,0.2,1.48,0.4,2.25,0.6C20.07,52.62,20.2,52.62,20.37,52.62z"/>
	</g>
</g>
</svg>
