<?xml version="1.0" encoding="utf-8"?>
<!-- Generator: Adobe Illustrator 16.0.0, SVG Export Plug-In . SVG Version: 6.00 Build 0)  -->
<!DOCTYPE svg PUBLIC "-//W3C//DTD SVG 1.1//EN" "http://www.w3.org/Graphics/SVG/1.1/DTD/svg11.dtd">
<svg version="1.1" id="Layer_1" xmlns="http://www.w3.org/2000/svg" xmlns:xlink="http://www.w3.org/1999/xlink" x="0px" y="0px"
	 width="185.67px" height="231.67px" viewBox="0 0 185.67 231.67" enable-background="new 0 0 185.67 231.67" xml:space="preserve">
<g>
	<g>
		
			<path fill-rule="evenodd" clip-rule="evenodd" fill="none" stroke="#000000" stroke-width="4" stroke-linecap="round" stroke-linejoin="round" stroke-miterlimit="3" stroke-opacity="0.251" d="
			M8.06,11c2.09,4.97,3.38,8.25,3.87,9.86c0.19,0.78-0.75,1.95-2.85,3.51c1.02,2.09,2.85,3.51,5.48,4.24
			c0.78,3.6,2.46,6.94,5.04,10.01c0.58,8.33,1.66,16.72,3.21,25.2c1.51,8.47,2.73,16.33,3.65,23.59c0.88,7.21,2.22,15.14,4.02,23.81
			c1.8,8.67,3.41,14.97,4.82,18.92c1.46,3.89,4.16,8.35,8.11,13.36c3.94,5.01,7.52,9.91,10.74,14.68
			c3.21,4.72,6.72,9.57,10.52,14.53c3.75,4.97,7.81,13.12,12.2,24.46c4.28,11.3,9.66,18.75,16.14,22.35
			c6.43,3.6,15.51,6.06,27.24,7.38c37.93,2.29,56.31-1.51,55.14-11.39c-0.68-5.89-0.95-10.95-0.8-15.19"/>
	</g>
	<g>
		
			<path fill-rule="evenodd" clip-rule="evenodd" fill="none" stroke="#FFFFFF" stroke-width="4" stroke-linecap="round" stroke-linejoin="round" stroke-miterlimit="3" d="
			M6.31,8.66c1.39-9.73,5.7-5.16,12.93,13.69c7.21,18.86,11.54,37.59,13,56.2c1.46,18.6,2.34,28.9,2.63,30.89
			c1.8,13.34,5.43,23.66,10.88,30.96c2.39,3.16,5.19,7.12,8.4,11.87c3.21,4.75,6.7,9.61,10.48,14.57c3.78,4.96,7.85,13.1,12.2,24.43
			c4.33,11.33,9.71,18.79,16.14,22.38c6.44,3.6,15.53,6.05,27.28,7.38c37.93,2.3,56.31-1.5,55.14-11.39
			c-1.18-9.88-1.16-17.49,0.07-22.82c1.23-5.33,2.32-8.09,3.29-8.29"/>
	</g>
</g>
</svg>
