<?xml version="1.0" encoding="utf-8"?>
<!-- Generator: Adobe Illustrator 16.0.0, SVG Export Plug-In . SVG Version: 6.00 Build 0)  -->
<!DOCTYPE svg PUBLIC "-//W3C//DTD SVG 1.1//EN" "http://www.w3.org/Graphics/SVG/1.1/DTD/svg11.dtd">
<svg version="1.1" id="Layer_1" xmlns="http://www.w3.org/2000/svg" xmlns:xlink="http://www.w3.org/1999/xlink" x="0px" y="0px"
	 width="22.25px" height="20.88px" viewBox="0 0 22.25 20.88" enable-background="new 0 0 22.25 20.88" xml:space="preserve">
<g>
	<g>
		<linearGradient id="SVGID_1_" gradientUnits="userSpaceOnUse" x1="6.2002" y1="8.1499" x2="14.9004" y2="8.1499">
			<stop  offset="0" style="stop-color:#160E03"/>
			<stop  offset="0.1569" style="stop-color:#734E00"/>
			<stop  offset="0.4078" style="stop-color:#5D2E02"/>
			<stop  offset="0.5843" style="stop-color:#A17E0A"/>
			<stop  offset="0.7882" style="stop-color:#D2A902"/>
			<stop  offset="1" style="stop-color:#9E6820"/>
		</linearGradient>
		<path fill-rule="evenodd" clip-rule="evenodd" fill="url(#SVGID_1_)" d="M14.9,8.35c-0.1,0.5-0.52,0.93-1.25,1.3
			c-0.87,0.43-1.9,0.65-3.1,0.65c-1.23,0-2.27-0.22-3.1-0.65C6.68,9.32,6.27,8.9,6.2,8.4V7.95c0.07-0.5,0.48-0.93,1.25-1.3
			C8.28,6.22,9.32,6,10.55,6c1.2,0,2.23,0.22,3.1,0.65c0.73,0.37,1.15,0.8,1.25,1.3c0,0.03,0,0.07,0,0.1v0.1
			C14.9,8.22,14.9,8.28,14.9,8.35z"/>
		
			<linearGradient id="SVGID_2_" gradientUnits="userSpaceOnUse" x1="-492.5127" y1="-493.25" x2="-482.0877" y2="-493.25" gradientTransform="matrix(-1 0 0 -1 -476.5 -479)">
			<stop  offset="0" style="stop-color:#201D13"/>
			<stop  offset="0.2588" style="stop-color:#514C32"/>
			<stop  offset="0.4275" style="stop-color:#5C5739"/>
			<stop  offset="0.7608" style="stop-color:#45412A"/>
			<stop  offset="1" style="stop-color:#252216"/>
		</linearGradient>
		<path fill-rule="evenodd" clip-rule="evenodd" fill="url(#SVGID_2_)" d="M14.9,8.35v9.9c-0.1,0.5-0.52,0.93-1.25,1.3
			c-0.87,0.4-1.9,0.6-3.1,0.6c-1.23,0-2.27-0.2-3.1-0.6c-0.77-0.37-1.18-0.8-1.25-1.3V8.4c0.07,0.5,0.48,0.92,1.25,1.25
			c0.83,0.43,1.87,0.65,3.1,0.65c1.2,0,2.23-0.22,3.1-0.65C14.38,9.28,14.8,8.85,14.9,8.35z"/>
	</g>
	<g>
		<path fill-rule="evenodd" clip-rule="evenodd" d="M13.9,15v-4.7c3.57-0.53,6.12-2.07,7.65-4.6v4c-1.1,2-3.62,3.75-7.55,5.25
			L13.9,15z"/>
		<path fill-rule="evenodd" clip-rule="evenodd" fill="#333333" d="M13.9,10.3L0.5,4.75C0.13,2.55,2.63,1.23,8,0.8l13.6,4.85
			L21.55,5.7C20.02,8.23,17.47,9.77,13.9,10.3z"/>
		<polygon fill-rule="evenodd" clip-rule="evenodd" fill="#111111" points="13.9,15 0.5,8.7 0.5,4.75 13.9,10.3 		"/>
	</g>
	<g>
		
			<radialGradient id="SVGID_3_" cx="-490.3999" cy="-489.3501" r="1.7" gradientTransform="matrix(-1 0 0 1 -476.5 499.7002)" gradientUnits="userSpaceOnUse">
			<stop  offset="0" style="stop-color:#FFFFFF"/>
			<stop  offset="0.1765" style="stop-color:#FFFFFF"/>
			<stop  offset="0.3059" style="stop-color:#FFFFFF;stop-opacity:0.4235"/>
			<stop  offset="0.4902" style="stop-color:#FFFFFF;stop-opacity:0.2314"/>
			<stop  offset="0.651" style="stop-color:#FFFFFF;stop-opacity:0.0824"/>
			<stop  offset="1" style="stop-color:#FFFFFF;stop-opacity:0"/>
		</radialGradient>
		<path fill-rule="evenodd" clip-rule="evenodd" fill="url(#SVGID_3_)" d="M13.9,12.05c-0.43,0-0.82-0.17-1.15-0.5
			c-0.33-0.3-0.5-0.7-0.5-1.2c0-0.43,0.17-0.82,0.5-1.15c0.33-0.33,0.72-0.5,1.15-0.5c0.47,0,0.87,0.17,1.2,0.5
			c0.3,0.33,0.45,0.72,0.45,1.15c0,0.5-0.15,0.9-0.45,1.2C14.77,11.88,14.37,12.05,13.9,12.05z"/>
	</g>
	<g>
		
			<radialGradient id="SVGID_4_" cx="-363.9902" cy="-573.6992" r="6.0889" gradientTransform="matrix(-0.9036 0.4284 0.146 0.3078 -226.6 341.1542)" gradientUnits="userSpaceOnUse">
			<stop  offset="0" style="stop-color:#FFFFFF"/>
			<stop  offset="0.1765" style="stop-color:#FFFFFF"/>
			<stop  offset="0.3059" style="stop-color:#FFFFFF;stop-opacity:0.4235"/>
			<stop  offset="0.4902" style="stop-color:#FFFFFF;stop-opacity:0.2314"/>
			<stop  offset="0.651" style="stop-color:#FFFFFF;stop-opacity:0.0824"/>
			<stop  offset="1" style="stop-color:#FFFFFF;stop-opacity:0"/>
		</radialGradient>
		<path fill-rule="evenodd" clip-rule="evenodd" fill="url(#SVGID_4_)" d="M17.7,6.75c1.47-0.7,2.83-1.12,4.1-1.25
			c1.17-0.13,1.88,0.05,2.15,0.55c0.23,0.53-0.07,1.22-0.9,2.05c-0.93,0.87-2.13,1.65-3.6,2.35c-1.47,0.7-2.83,1.12-4.1,1.25
			c-1.27,0.2-2.02,0.03-2.25-0.5c-0.23-0.5,0.1-1.18,1-2.05C15.03,8.25,16.23,7.45,17.7,6.75z"/>
	</g>
</g>
</svg>
