<?xml version="1.0" encoding="utf-8"?>
<!-- Generator: Adobe Illustrator 16.0.0, SVG Export Plug-In . SVG Version: 6.00 Build 0)  -->
<!DOCTYPE svg PUBLIC "-//W3C//DTD SVG 1.1//EN" "http://www.w3.org/Graphics/SVG/1.1/DTD/svg11.dtd">
<svg version="1.1" id="Layer_1" xmlns="http://www.w3.org/2000/svg" xmlns:xlink="http://www.w3.org/1999/xlink" x="0px" y="0px"
	 width="20.31px" height="20.13px" viewBox="0 0 20.31 20.13" enable-background="new 0 0 20.31 20.13" xml:space="preserve">
<g>
	<g>
		<path fill-rule="evenodd" clip-rule="evenodd" fill="#93875B" d="M13.65,8.96c-0.07,0.47-0.43,0.87-1.1,1.2
			c-0.77,0.37-1.7,0.55-2.8,0.55S7.73,10.53,7,10.16C6.3,9.83,5.92,9.45,5.85,9.01v-0.4C5.92,8.18,6.3,7.8,7,7.46
			C7.73,7.1,8.65,6.91,9.75,6.91s2.03,0.18,2.8,0.55c0.67,0.33,1.03,0.73,1.1,1.2v0.05c0,0.03,0,0.07,0,0.1
			C13.65,8.88,13.65,8.93,13.65,8.96z"/>
		
			<linearGradient id="SVGID_1_" gradientUnits="userSpaceOnUse" x1="-491.1748" y1="-494.1621" x2="-483.3247" y2="-494.1621" gradientTransform="matrix(-1 0 0 -1 -477.5 -479.875)">
			<stop  offset="0" style="stop-color:#201D13"/>
			<stop  offset="0.2588" style="stop-color:#514C32"/>
			<stop  offset="0.4275" style="stop-color:#5C5739"/>
			<stop  offset="0.7608" style="stop-color:#45412A"/>
			<stop  offset="1" style="stop-color:#252216"/>
		</linearGradient>
		<path fill-rule="evenodd" clip-rule="evenodd" fill="url(#SVGID_1_)" d="M13.65,8.96h0.05v8.9h-0.05c-0.07,0.47-0.43,0.87-1.1,1.2
			c-0.77,0.37-1.7,0.55-2.8,0.55S7.73,19.43,7,19.06c-0.7-0.33-1.08-0.72-1.15-1.15v-8.9C5.92,9.45,6.3,9.83,7,10.16
			c0.73,0.37,1.65,0.55,2.75,0.55s2.03-0.18,2.8-0.55C13.22,9.83,13.58,9.43,13.65,8.96z"/>
	</g>
	<g>
		<polygon fill-rule="evenodd" clip-rule="evenodd" fill="#222222" points="0.55,3.76 10.35,11.76 10.35,15.11 10.35,15.16 
			0.55,7.01 		"/>
		<path fill-rule="evenodd" clip-rule="evenodd" d="M10.35,11.76v-0.05c3.23-0.17,6.4-1.32,9.5-3.45v3.05c-1.83,1.97-5,3.23-9.5,3.8
			V11.76z"/>
		<path fill-rule="evenodd" clip-rule="evenodd" fill="#1E1E1E" d="M10.35,11.76l-9.8-8v-0.1c1.33-2.6,4.28-3.63,8.85-3.1l10.55,7.7
			h-0.1c-3.1,2.13-6.27,3.28-9.5,3.45V11.76z"/>
	</g>
	<g>
		
			<radialGradient id="SVGID_2_" cx="-482.9502" cy="-489.3374" r="7.5" gradientTransform="matrix(-1 0 0 1 -477.5 498.7998)" gradientUnits="userSpaceOnUse">
			<stop  offset="0" style="stop-color:#FFFFFF"/>
			<stop  offset="0.5569" style="stop-color:#FDFDFD;stop-opacity:0.6667"/>
			<stop  offset="1" style="stop-color:#F9F9F9;stop-opacity:0.149"/>
		</radialGradient>
		<path fill-rule="evenodd" clip-rule="evenodd" fill="url(#SVGID_2_)" d="M10.2,11.81v-0.05c0-0.03,0.02-0.05,0.05-0.05
			c0-0.03,0.02-0.05,0.05-0.05h0.05v0.05l0.1,0.05v0.1c0,0.03-0.02,0.05-0.05,0.05v3.2c0,0.03,0,0.07,0,0.1c-0.03,0-0.07,0-0.1,0
			h-0.05c-0.03-0.03-0.05-0.07-0.05-0.1V11.81z"/>
		
			<radialGradient id="SVGID_3_" cx="-482.9502" cy="-489.3374" r="7.5" gradientTransform="matrix(-1 0 0 1 -477.5 498.7998)" gradientUnits="userSpaceOnUse">
			<stop  offset="0" style="stop-color:#FFFFFF;stop-opacity:0.2824"/>
			<stop  offset="0.5373" style="stop-color:#FDFDFD;stop-opacity:0.102"/>
			<stop  offset="1" style="stop-color:#F9F9F9;stop-opacity:0.149"/>
		</radialGradient>
		<path fill-rule="evenodd" clip-rule="evenodd" fill="url(#SVGID_3_)" d="M10.35,11.66H10.3c-0.03,0-0.05,0.02-0.05,0.05
			c-0.03,0-0.05,0.02-0.05,0.05v0.05L0.5,3.86c-0.03,0-0.05-0.02-0.05-0.05V3.76c0.03-0.03,0.07-0.05,0.1-0.05H0.6L10.35,11.66z"/>
	</g>
	<g>
		
			<radialGradient id="SVGID_4_" cx="-487.8496" cy="-491.6377" r="1.2747" gradientTransform="matrix(-1 0 0 1 -477.5 503.4004)" gradientUnits="userSpaceOnUse">
			<stop  offset="0" style="stop-color:#FFFFFF"/>
			<stop  offset="0.1765" style="stop-color:#FFFFFF"/>
			<stop  offset="0.3059" style="stop-color:#FFFFFF;stop-opacity:0.4235"/>
			<stop  offset="0.4902" style="stop-color:#FFFFFF;stop-opacity:0.2314"/>
			<stop  offset="0.651" style="stop-color:#FFFFFF;stop-opacity:0.0824"/>
			<stop  offset="1" style="stop-color:#FFFFFF;stop-opacity:0"/>
		</radialGradient>
		<path fill-rule="evenodd" clip-rule="evenodd" fill="url(#SVGID_4_)" d="M9.1,11.76c0-0.33,0.12-0.62,0.35-0.85
			c0.27-0.23,0.57-0.35,0.9-0.35s0.63,0.12,0.9,0.35c0.23,0.23,0.35,0.52,0.35,0.85c0,0.37-0.12,0.67-0.35,0.9
			c-0.27,0.27-0.57,0.4-0.9,0.4s-0.63-0.13-0.9-0.4C9.22,12.43,9.1,12.13,9.1,11.76z"/>
	</g>
	<g>
		
			<radialGradient id="SVGID_5_" cx="-382.2285" cy="-566.438" r="8.9668" gradientTransform="matrix(-0.9297 0.3683 0.0641 0.1617 -304.1639 243.1554)" gradientUnits="userSpaceOnUse">
			<stop  offset="0" style="stop-color:#FFFFFF"/>
			<stop  offset="0.1765" style="stop-color:#FFFFFF"/>
			<stop  offset="0.3059" style="stop-color:#FFFFFF;stop-opacity:0.4235"/>
			<stop  offset="0.4902" style="stop-color:#FFFFFF;stop-opacity:0.2314"/>
			<stop  offset="0.651" style="stop-color:#FFFFFF;stop-opacity:0.0824"/>
			<stop  offset="1" style="stop-color:#FFFFFF;stop-opacity:0"/>
		</radialGradient>
		<path fill-rule="evenodd" clip-rule="evenodd" fill="url(#SVGID_5_)" d="M8.7,12.11c1.53-0.93,3.42-1.85,5.65-2.75
			c2.23-0.9,4.23-1.52,6-1.85c1.63-0.37,2.52-0.35,2.65,0.05c0.17,0.4-0.47,1.05-1.9,1.95c-1.53,0.93-3.42,1.83-5.65,2.7
			c-2.23,0.9-4.23,1.53-6,1.9c-1.73,0.37-2.68,0.35-2.85-0.05S7.13,13.01,8.7,12.11z"/>
	</g>
</g>
</svg>
