<?xml version="1.0" encoding="utf-8"?>
<!-- Generator: Adobe Illustrator 16.0.0, SVG Export Plug-In . SVG Version: 6.00 Build 0)  -->
<!DOCTYPE svg PUBLIC "-//W3C//DTD SVG 1.1//EN" "http://www.w3.org/Graphics/SVG/1.1/DTD/svg11.dtd">
<svg version="1.1" id="Layer_1" xmlns="http://www.w3.org/2000/svg" xmlns:xlink="http://www.w3.org/1999/xlink" x="0px" y="0px"
	 width="206.75px" height="178px" viewBox="0 0 206.75 178" enable-background="new 0 0 206.75 178" xml:space="preserve">
<g>
	<g>
		
			<path fill-rule="evenodd" clip-rule="evenodd" fill="none" stroke="#000000" stroke-width="4" stroke-linecap="round" stroke-linejoin="round" stroke-miterlimit="3" stroke-opacity="0.251" d="
			M18.73,172.64c-8.82,1.27-12.53-0.09-11.14-4.08c10.22-21.21,30.17-32.99,59.84-35.33c44.78-4.59,77.74-12.61,98.88-24.05
			c49.87-22.36,46.98-37.86-8.67-46.5 M152.4,32.25c-4.15-0.32-8.65-0.61-13.48-0.87"/>
	</g>
	<g>
		
			<path fill-rule="evenodd" clip-rule="evenodd" fill="none" stroke="#005B88" stroke-width="4" stroke-linecap="round" stroke-linejoin="round" stroke-miterlimit="3" d="
			M45.23,163.93c-1.6,1.16-4.29,1.04-8.06-0.35c-3.77-1.38-6.54-2.07-8.31-2.05c-1.77,0.01-3.69,1.24-5.77,3.7
			c-2.07,2.47-5.35,3.63-9.85,3.47c-10.63-0.44-10.44-6.06,0.58-16.84c4.76-6.19,11.92-11.44,21.48-15.73
			c9.56-4.28,24.02-7.21,43.37-8.79c19.35-1.59,41.2-7.3,65.56-17.13c24.36-9.83,40.82-17.26,49.38-22.27
			c8.54-5.02,5.45-10.42-9.26-16.18c-14.72-5.76-23.74-14.68-27.08-26.74c-3.33-12.06-9.3-23.03-17.92-32.91
			c-8.63-9.89-12.82-10.04-12.56-0.47"/>
	</g>
	<g>
		
			<radialGradient id="SVGID_1_" cx="-138.8057" cy="-145.4561" r="11.7577" gradientTransform="matrix(1.4386 -0.2475 0.2475 1.4386 405.1329 233.026)" gradientUnits="userSpaceOnUse">
			<stop  offset="0" style="stop-color:#FFFFFF;stop-opacity:0.498"/>
			<stop  offset="1" style="stop-color:#FFFFFF;stop-opacity:0"/>
		</radialGradient>
		<path fill-rule="evenodd" clip-rule="evenodd" fill="url(#SVGID_1_)" d="M156.72,46.14c-0.06-0.19-0.04-0.38,0.05-0.56
			c0.09-0.18,0.23-0.3,0.42-0.37c0.19-0.06,0.38-0.04,0.56,0.05c0.18,0.09,0.3,0.23,0.37,0.42c3.9,11.4,11.77,19.4,23.61,24.01
			c0.19,0.07,0.32,0.2,0.4,0.38c0.08,0.18,0.09,0.37,0.02,0.55s-0.2,0.32-0.38,0.4c-0.18,0.08-0.37,0.09-0.55,0.02
			C168.93,66.26,160.76,57.96,156.72,46.14z"/>
		
			<radialGradient id="SVGID_2_" cx="-152.9502" cy="-174.6499" r="12.95" gradientTransform="matrix(1.4386 -0.2475 0.2475 1.4386 405.1329 233.026)" gradientUnits="userSpaceOnUse">
			<stop  offset="0" style="stop-color:#FFFFFF;stop-opacity:0.498"/>
			<stop  offset="1" style="stop-color:#FFFFFF;stop-opacity:0"/>
		</radialGradient>
		<path fill-rule="evenodd" clip-rule="evenodd" fill="url(#SVGID_2_)" d="M153.74,35.1c-0.18,0.08-0.36,0.09-0.55,0.02
			c-0.19-0.07-0.32-0.19-0.4-0.38c-6.94-15.38-14.59-25.16-22.93-29.34c-0.18-0.09-0.3-0.23-0.37-0.42
			c-0.06-0.19-0.04-0.38,0.05-0.56c0.09-0.18,0.23-0.3,0.42-0.37c0.19-0.06,0.38-0.04,0.56,0.05c8.61,4.25,16.46,14.27,23.57,30.05
			c0.08,0.18,0.09,0.36,0.02,0.55C154.05,34.89,153.92,35.02,153.74,35.1z"/>
		
			<radialGradient id="SVGID_3_" cx="-170.2998" cy="-113.8999" r="26.8" gradientTransform="matrix(1.4386 -0.2475 0.2475 1.4386 405.1329 233.026)" gradientUnits="userSpaceOnUse">
			<stop  offset="0" style="stop-color:#FFFFFF;stop-opacity:0.498"/>
			<stop  offset="1" style="stop-color:#FFFFFF;stop-opacity:0"/>
		</radialGradient>
		<path fill-rule="evenodd" clip-rule="evenodd" fill="url(#SVGID_3_)" d="M169.89,99.68c-0.07,0.18-0.19,0.32-0.38,0.4
			c-29.88,14.15-55.34,22.82-76.37,25.99c-0.2,0.03-0.38-0.01-0.54-0.13c-0.17-0.12-0.27-0.27-0.3-0.47
			c-0.03-0.2,0.01-0.38,0.13-0.54c0.12-0.17,0.27-0.27,0.47-0.3c20.94-3.16,46.27-11.78,76.02-25.85c0.18-0.08,0.36-0.09,0.55-0.02
			c0.18,0.07,0.32,0.19,0.4,0.38C169.95,99.31,169.96,99.49,169.89,99.68z"/>
		
			<radialGradient id="SVGID_4_" cx="-232.6001" cy="-106.9502" r="18.2" gradientTransform="matrix(1.4386 -0.2475 0.2475 1.4386 405.1329 233.026)" gradientUnits="userSpaceOnUse">
			<stop  offset="0" style="stop-color:#FFFFFF;stop-opacity:0.498"/>
			<stop  offset="1" style="stop-color:#FFFFFF;stop-opacity:0"/>
		</radialGradient>
		<path fill-rule="evenodd" clip-rule="evenodd" fill="url(#SVGID_4_)" d="M68.59,126.88c0.2-0.02,0.38,0.04,0.55,0.17
			c0.16,0.12,0.24,0.28,0.27,0.47c0.02,0.2-0.04,0.38-0.17,0.55c-0.12,0.16-0.28,0.25-0.47,0.27c-22.58,2.81-38.98,8.78-49.21,17.91
			c-0.15,0.13-0.33,0.18-0.53,0.16c-0.21,0-0.38-0.07-0.52-0.21c-0.13-0.15-0.18-0.33-0.17-0.53c0-0.21,0.07-0.38,0.21-0.52
			C28.95,135.83,45.63,129.74,68.59,126.88z"/>
		
			<radialGradient id="SVGID_5_" cx="-238.2998" cy="-89.3999" r="3.35" gradientTransform="matrix(1.4386 -0.2475 0.2475 1.4386 405.1329 233.026)" gradientUnits="userSpaceOnUse">
			<stop  offset="0" style="stop-color:#FFFFFF;stop-opacity:0.498"/>
			<stop  offset="1" style="stop-color:#FFFFFF;stop-opacity:0"/>
		</radialGradient>
		<path fill-rule="evenodd" clip-rule="evenodd" fill="url(#SVGID_5_)" d="M45.6,163.28c0.13,0.15,0.18,0.33,0.16,0.53
			c-0.01,0.2-0.1,0.36-0.25,0.49c-2.04,1.85-5.55,1.66-10.5-0.56c-0.19-0.08-0.32-0.22-0.4-0.41c-0.07-0.19-0.07-0.37,0.01-0.56
			c0.08-0.19,0.22-0.33,0.41-0.4c0.19-0.07,0.37-0.07,0.56,0.01c4.25,1.92,7.25,2.19,8.99,0.82c0.15-0.13,0.33-0.18,0.53-0.17
			C45.31,163.04,45.47,163.13,45.6,163.28z"/>
		
			<radialGradient id="SVGID_6_" cx="-256" cy="-91" r="6.2" gradientTransform="matrix(1.4386 -0.2475 0.2475 1.4386 405.1329 233.026)" gradientUnits="userSpaceOnUse">
			<stop  offset="0" style="stop-color:#FFFFFF;stop-opacity:0.498"/>
			<stop  offset="1" style="stop-color:#FFFFFF;stop-opacity:0"/>
		</radialGradient>
		<path fill-rule="evenodd" clip-rule="evenodd" fill="url(#SVGID_6_)" d="M4.56,166.04c-0.05-0.2-0.02-0.39,0.09-0.57
			c0.1-0.17,0.24-0.28,0.42-0.33c0.2-0.05,0.39-0.02,0.57,0.09c6.54,3.81,12.26,3.57,17.17-0.73c0.15-0.13,0.33-0.18,0.53-0.17
			c0.2,0.01,0.36,0.1,0.49,0.25c0.13,0.15,0.18,0.33,0.17,0.53c0,0.19-0.07,0.35-0.21,0.48c-5.39,4.78-11.69,5.08-18.88,0.88
			C4.72,166.37,4.61,166.23,4.56,166.04z"/>
	</g>
</g>
</svg>
