<?xml version="1.0" encoding="utf-8"?>
<!-- Generator: Adobe Illustrator 16.0.0, SVG Export Plug-In . SVG Version: 6.00 Build 0)  -->
<!DOCTYPE svg PUBLIC "-//W3C//DTD SVG 1.1//EN" "http://www.w3.org/Graphics/SVG/1.1/DTD/svg11.dtd">
<svg version="1.1" xmlns="http://www.w3.org/2000/svg" xmlns:xlink="http://www.w3.org/1999/xlink" x="0px" y="0px" width="39px"
	 height="112.83px" viewBox="0 0 39 112.83" enable-background="new 0 0 39 112.83" xml:space="preserve">
<g id="Layer_4">
	<g>
		<g>
			<linearGradient id="SVGID_1_" gradientUnits="userSpaceOnUse" x1="20.0225" y1="146.499" x2="19.1105" y2="-28.3001">
				<stop  offset="0" style="stop-color:#858E80"/>
				<stop  offset="1" style="stop-color:#4F5C48"/>
			</linearGradient>
			<path fill-rule="evenodd" clip-rule="evenodd" fill="url(#SVGID_1_)" d="M38.05,19.45c-0.11,0-0.21-0.03-0.3-0.1
				c-0.11-0.08-0.18-0.19-0.2-0.32L35.6,6.45V94c0,0.14-0.05,0.25-0.15,0.35c-0.04,0.04-0.08,0.07-0.13,0.1
				c-0.07,0.03-0.14,0.05-0.23,0.05c-0.14,0-0.25-0.05-0.35-0.15c-0.1-0.1-0.15-0.21-0.15-0.35V1.4H1.58l1.17,17.52
				c0.01,0.13-0.03,0.25-0.13,0.35c-0.09,0.11-0.21,0.16-0.35,0.17c-0.13,0.01-0.25-0.03-0.35-0.13c-0.11-0.09-0.16-0.21-0.17-0.35
				l-0.2-3V94c0,0.14-0.05,0.25-0.15,0.35c-0.1,0.1-0.21,0.15-0.35,0.15c-0.14,0-0.25-0.05-0.35-0.15c-0.1-0.1-0.15-0.21-0.15-0.35
				V0.9c0-0.13,0.04-0.23,0.13-0.33L0.7,0.55C0.79,0.46,0.9,0.41,1.02,0.4h34.23c0.12,0,0.23,0.04,0.33,0.13
				c0.1,0.08,0.15,0.18,0.17,0.3l2.8,18.05c0.02,0.14-0.02,0.26-0.1,0.38c-0.08,0.11-0.19,0.18-0.33,0.2
				C38.1,19.45,38.08,19.45,38.05,19.45z"/>
			<path fill-rule="evenodd" clip-rule="evenodd" fill="#999999" fill-opacity="0.0863" d="M1.55,94V15.97l0.2,3
				c0.01,0.14,0.07,0.26,0.17,0.35c0.1,0.09,0.22,0.13,0.35,0.13c0.14-0.01,0.26-0.07,0.35-0.17c0.09-0.1,0.13-0.22,0.13-0.35
				L1.58,1.4H34.6V94H2.15h-0.2H1.55z M38.05,19.45V112L38,111.6l-2.67-17.15c0.04-0.03,0.08-0.06,0.13-0.1
				c0.1-0.1,0.15-0.21,0.15-0.35V6.45l1.95,12.58c0.02,0.13,0.09,0.24,0.2,0.32C37.84,19.42,37.94,19.45,38.05,19.45z"/>
		</g>
		<g>
			<path fill-rule="evenodd" clip-rule="evenodd" fill="#7B8C7B" d="M2.55,46.85V35h0.3L3.6,46.85V87.5v24H2.75
				c-0.1-4.07-0.18-8.68-0.25-13.85V87.5L2.55,46.85z"/>
			<g>
				<polygon fill-rule="evenodd" clip-rule="evenodd" fill="#99A899" fill-opacity="0.8588" points="37.7,46.85 3.6,46.85 2.85,35 
					35.95,35 37.85,46.85 				"/>
				<polygon fill-rule="evenodd" clip-rule="evenodd" fill="#768A76" fill-opacity="0.8588" points="37.7,46.85 37.7,87.5 
					37.7,111.5 3.6,111.5 3.6,87.5 3.6,46.85 				"/>
			</g>
			<g>
				<linearGradient id="SVGID_2_" gradientUnits="userSpaceOnUse" x1="2.4751" y1="40.9229" x2="37.8251" y2="40.9229">
					<stop  offset="0" style="stop-color:#FFFFFF"/>
					<stop  offset="1" style="stop-color:#FFFFFF;stop-opacity:0"/>
				</linearGradient>
				<path fill-rule="evenodd" clip-rule="evenodd" fill="url(#SVGID_2_)" d="M36.1,34.8c0.06,0.04,0.09,0.09,0.1,0.15l1.9,11.85
					c0.01,0.05,0,0.1-0.02,0.15c-0.02,0.04-0.06,0.08-0.1,0.1c-0.04,0.03-0.08,0.05-0.13,0.05H3.6c-0.07,0-0.13-0.03-0.18-0.07
					c-0.05-0.04-0.07-0.09-0.07-0.15L2.6,35.02c-0.01-0.08,0.01-0.14,0.05-0.2c0.05-0.05,0.11-0.07,0.18-0.08
					c0.07-0.01,0.14,0.01,0.2,0.05c0.05,0.05,0.07,0.11,0.08,0.17L3.83,46.6h33.72L35.7,35.05c-0.01-0.07,0.01-0.14,0.05-0.2
					c0.04-0.06,0.09-0.09,0.15-0.1C35.97,34.74,36.04,34.76,36.1,34.8z"/>
			</g>
		</g>
		<g>
			<path fill-rule="evenodd" clip-rule="evenodd" fill="#999999" fill-opacity="0.0863" d="M1.65,94.5v1.13L1.58,94.5H1.65z
				 M34.83,94.5l1.97,12.53c0.01,0.08,0.05,0.16,0.1,0.22c-0.04,0.06-0.05,0.13-0.05,0.2c0,0.02,0,0.05,0,0.08l0.68,4.02H35.1
				c-0.03,0-0.05,0-0.07,0H2.73l-0.27-4.08v-0.02c0.02-0.02,0.03-0.03,0.05-0.05c0.1-0.1,0.15-0.21,0.15-0.35V94.5H34.83z"/>
			<linearGradient id="SVGID_3_" gradientUnits="userSpaceOnUse" x1="20.0186" y1="146.499" x2="19.1066" y2="-28.2992">
				<stop  offset="0" style="stop-color:#858E80"/>
				<stop  offset="1" style="stop-color:#4F5C48"/>
			</linearGradient>
			<path fill-rule="evenodd" clip-rule="evenodd" fill="url(#SVGID_3_)" d="M37.55,18.45c0.09,0,0.18,0.03,0.25,0.08
				c0.07-0.05,0.16-0.07,0.25-0.08c0.14,0,0.25,0.05,0.35,0.15c0.1,0.1,0.15,0.21,0.15,0.35V72.5c0,0.16,0,0.34,0,0.53v33.92
				c0,0.09-0.03,0.18-0.08,0.25c0.05,0.07,0.07,0.16,0.08,0.25v4.7c-0.02,0.09-0.07,0.18-0.15,0.25c-0.1,0.1-0.21,0.15-0.35,0.15
				H2.25c-0.13,0-0.25-0.04-0.35-0.13c-0.09-0.1-0.14-0.21-0.15-0.35l-0.55-8.03v-0.1l-0.65-9.92c-0.01-0.09,0.01-0.17,0.05-0.25
				c0.05-0.08,0.11-0.15,0.2-0.2c0.08-0.05,0.16-0.07,0.25-0.08h0.6l0.1-74.55c0-0.14,0.05-0.25,0.15-0.35
				c0.1-0.1,0.21-0.15,0.35-0.15c0.09,0,0.18,0.03,0.25,0.08c0.07-0.05,0.16-0.07,0.25-0.08H37.55z M1.65,94.5H1.58l0.07,1.13V94.5z
				 M35.58,93.62c0.09,0.08,0.15,0.18,0.17,0.3l1.8,11.38V19.45H2.75L2.65,93.5h32.6C35.37,93.5,35.48,93.54,35.58,93.62z
				 M34.83,94.5H2.65v12.55c0,0.14-0.05,0.25-0.15,0.35c-0.02,0.02-0.03,0.03-0.05,0.05v0.02l0.27,4.08h32.3c0.02,0,0.05,0,0.07,0
				h2.43l-0.68-4.02c0-0.03,0-0.05,0-0.08c0-0.07,0.02-0.14,0.05-0.2c-0.05-0.07-0.09-0.14-0.1-0.22L34.83,94.5z"/>
		</g>
	</g>
</g>
<g id="Layer_2" display="none">
</g>
</svg>
