<?xml version="1.0" encoding="utf-8"?>
<!-- Generator: Adobe Illustrator 16.0.0, SVG Export Plug-In . SVG Version: 6.00 Build 0)  -->
<!DOCTYPE svg PUBLIC "-//W3C//DTD SVG 1.1//EN" "http://www.w3.org/Graphics/SVG/1.1/DTD/svg11.dtd">
<svg version="1.1" id="Layer_1" xmlns="http://www.w3.org/2000/svg" xmlns:xlink="http://www.w3.org/1999/xlink" x="0px" y="0px"
	 width="40.5px" height="115px" viewBox="0 0 40.5 115" enable-background="new 0 0 40.5 115" xml:space="preserve">
<g>
	<g>
		<path fill-rule="evenodd" clip-rule="evenodd" fill="#4F5C48" d="M2.05,2.45v100.1h33.5V20.7h1.15v82.4l1.35,5.35v4l-2.35-8.75
			H1.9l2,8.75c0.03,0.23,0.07,0.45,0.1,0.65H2.8c-0.53-2.63-1.18-5.97-1.95-10V2.45H2.05z"/>
	</g>
	<g>
		<path fill-rule="evenodd" clip-rule="evenodd" fill="#74A871" fill-opacity="0.2392" d="M35.35,3.75V19.5H3.8v-0.05H3.75
			l-1.2-15.8c2.1,0.07,3.27,0.1,3.5,0.1H35.35z M36.55,9.05L37.8,19.5h-1.25V9.05z"/>
		<path fill-rule="evenodd" clip-rule="evenodd" fill="#4F5C48" d="M2.55,19.5L1.15,2.35l35.25,0.2c0.17,0,0.3,0.07,0.4,0.2
			c0.1,0.07,0.17,0.18,0.2,0.35l2.05,16.95c0,0.03,0,0.08,0,0.15v92.85c0,0.13-0.02,0.23-0.05,0.3c-0.07,0.03-0.12,0.07-0.15,0.1
			v0.05c-0.1,0.1-0.23,0.15-0.4,0.15H3.15c-0.07,0-0.15-0.02-0.25-0.05c-0.1-0.07-0.17-0.13-0.2-0.2c-0.07-0.03-0.1-0.07-0.1-0.1
			c-0.03-0.03-0.05-0.08-0.05-0.15V19.5z M35.35,19.5h1.2h1.25L36.55,9.05l-0.9-5.3h-0.3H6.05c-0.23,0-1.4-0.03-3.5-0.1l1.2,15.8
			H3.8v0.05H35.35z M3.75,112.45h34.1V20.7H3.75V112.45z"/>
		<polygon fill-rule="evenodd" clip-rule="evenodd" fill="#4F5C48" fill-opacity="0.4118" points="36.55,19.5 35.35,19.5 
			35.35,3.75 35.65,3.75 36.55,9.05 		"/>
		
			<rect x="3.75" y="20.7" fill-rule="evenodd" clip-rule="evenodd" fill="#4F5C48" fill-opacity="0.2392" width="34.1" height="91.75"/>
	</g>
	<g>
		<g>
			
				<linearGradient id="SVGID_1_" gradientUnits="userSpaceOnUse" x1="59.2344" y1="-191.7363" x2="128.6422" y2="-191.7363" gradientTransform="matrix(0.7251 0.6887 -0.7857 0.6329 -204.9863 91.9654)">
				<stop  offset="0" style="stop-color:#FFFFFF"/>
				<stop  offset="1" style="stop-color:#FDFDFD;stop-opacity:0"/>
			</linearGradient>
			<path fill-rule="evenodd" clip-rule="evenodd" fill="url(#SVGID_1_)" d="M37.15,40.05C28.55,45.65,17.73,53.2,4.7,62.7V21.5
				h32.45V40.05z"/>
		</g>
	</g>
	<g>
		<linearGradient id="SVGID_2_" gradientUnits="userSpaceOnUse" x1="3.9277" y1="-7.3735" x2="32.3937" y2="23.5266">
			<stop  offset="0" style="stop-color:#FFFFFF"/>
			<stop  offset="1" style="stop-color:#FDFDFD;stop-opacity:0"/>
		</linearGradient>
		<polygon fill-rule="evenodd" clip-rule="evenodd" fill="url(#SVGID_2_)" points="6.9,4.2 34.9,4.2 34.9,8.7 6.9,17.9 		"/>
	</g>
</g>
</svg>
