<?xml version="1.0" encoding="utf-8"?>
<!-- Generator: Adobe Illustrator 16.0.0, SVG Export Plug-In . SVG Version: 6.00 Build 0)  -->
<!DOCTYPE svg PUBLIC "-//W3C//DTD SVG 1.1//EN" "http://www.w3.org/Graphics/SVG/1.1/DTD/svg11.dtd">
<svg version="1.1" id="Layer_1" xmlns="http://www.w3.org/2000/svg" xmlns:xlink="http://www.w3.org/1999/xlink" x="0px" y="0px"
	 width="183.33px" height="112px" viewBox="0 0 183.33 112" enable-background="new 0 0 183.33 112" xml:space="preserve">
<g>
	<g>
		
			<path fill-rule="evenodd" clip-rule="evenodd" fill="none" stroke="#000000" stroke-width="4" stroke-linecap="round" stroke-linejoin="round" stroke-miterlimit="3" stroke-opacity="0.2471" d="
			M10.19,108.08c2.19-0.05,8.47-1.41,18.84-4.09C54.2,98.68,76.52,90.7,96,80.04c41.68-20.3,67.12-41.43,76.32-63.39
			c2.34-5.94,4.29-8.67,5.84-8.18"/>
	</g>
	<g>
		
			<path fill-rule="evenodd" clip-rule="evenodd" fill="none" stroke="#FFFFFF" stroke-width="4" stroke-linecap="round" stroke-linejoin="round" stroke-miterlimit="3" d="
			M2.52,105.31c3.06,1.85,5.92,1.75,8.58-0.33c3.63-1.9,5.97-5.69,7.01-11.36c1.03-5.68,7.87-7.21,20.52-4.6
			c12.65,2.61,31.79-3.35,57.4-17.89c25.61-14.54,40.53-22.96,44.77-25.27c4.24-2.3,8.15-5.01,11.72-8.14
			c3.57-3.14,7.52-8.73,11.83-16.76c4.24-10.44,9.33-16.29,15.26-17.53"/>
	</g>
</g>
</svg>
