<?xml version="1.0" encoding="utf-8"?>
<!-- Generator: Adobe Illustrator 16.0.0, SVG Export Plug-In . SVG Version: 6.00 Build 0)  -->
<!DOCTYPE svg PUBLIC "-//W3C//DTD SVG 1.1//EN" "http://www.w3.org/Graphics/SVG/1.1/DTD/svg11.dtd">
<svg version="1.1" id="Layer_1" xmlns="http://www.w3.org/2000/svg" xmlns:xlink="http://www.w3.org/1999/xlink" x="0px" y="0px"
	 width="579.33px" height="579.67px" viewBox="0 0 579.33 579.67" enable-background="new 0 0 579.33 579.67" xml:space="preserve">
<g id="Layer_2">
	<line fill="none" stroke="#231F20" stroke-width="0.75" stroke-miterlimit="10" x1="508.71" y1="163.12" x2="475.72" y2="182.17"/>
	<line fill="none" stroke="#231F20" stroke-width="0.75" stroke-miterlimit="10" x1="483.44" y1="127.12" x2="454.26" y2="151.61"/>
	<line fill="none" stroke="#231F20" stroke-width="0.75" stroke-miterlimit="10" x1="452.3" y1="96.05" x2="427.81" y2="125.25"/>
	<line fill="none" stroke="#231F20" stroke-width="0.75" stroke-miterlimit="10" x1="416.24" y1="70.87" x2="397.19" y2="103.87"/>
	<line fill="none" stroke="#231F20" stroke-width="0.75" stroke-miterlimit="10" x1="376.36" y1="52.33" x2="363.33" y2="88.14"/>
	<line fill="none" stroke="#231F20" stroke-width="0.75" stroke-miterlimit="10" x1="333.86" y1="40.99" x2="327.25" y2="78.52"/>
	<line fill="none" stroke="#231F20" stroke-width="0.75" stroke-miterlimit="10" x1="290.04" y1="37.21" x2="290.04" y2="75.32"/>
	<line fill="none" stroke="#231F20" stroke-width="0.75" stroke-miterlimit="10" x1="246.22" y1="41.09" x2="252.85" y2="78.62"/>
	<line fill="none" stroke="#231F20" stroke-width="0.75" stroke-miterlimit="10" x1="203.75" y1="52.53" x2="216.79" y2="88.34"/>
	<line fill="none" stroke="#231F20" stroke-width="0.75" stroke-miterlimit="10" x1="163.91" y1="71.17" x2="182.97" y2="104.16"/>
	<line fill="none" stroke="#231F20" stroke-width="0.75" stroke-miterlimit="10" x1="127.92" y1="96.44" x2="152.4" y2="125.63"/>
	<line fill="none" stroke="#231F20" stroke-width="0.75" stroke-miterlimit="10" x1="96.85" y1="127.58" x2="126.05" y2="152.07"/>
	<line fill="none" stroke="#231F20" stroke-width="0.75" stroke-miterlimit="10" x1="71.66" y1="163.64" x2="104.66" y2="182.69"/>
	<line fill="none" stroke="#231F20" stroke-width="0.75" stroke-miterlimit="10" x1="53.12" y1="203.53" x2="88.93" y2="216.56"/>
	<line fill="none" stroke="#231F20" stroke-width="0.75" stroke-miterlimit="10" x1="41.79" y1="246.02" x2="79.32" y2="252.64"/>
	<line fill="none" stroke="#231F20" stroke-width="0.75" stroke-miterlimit="10" x1="38.01" y1="289.85" x2="76.11" y2="289.84"/>
	<line fill="none" stroke="#231F20" stroke-width="0.75" stroke-miterlimit="10" x1="41.89" y1="333.66" x2="79.42" y2="327.03"/>
	<line fill="none" stroke="#231F20" stroke-width="0.75" stroke-miterlimit="10" x1="53.32" y1="376.13" x2="89.14" y2="363.1"/>
	<line fill="none" stroke="#231F20" stroke-width="0.75" stroke-miterlimit="10" x1="71.97" y1="415.97" x2="104.97" y2="396.91"/>
	<line fill="none" stroke="#231F20" stroke-width="0.75" stroke-miterlimit="10" x1="97.24" y1="451.98" x2="126.43" y2="427.47"/>
	<line fill="none" stroke="#231F20" stroke-width="0.75" stroke-miterlimit="10" x1="128.38" y1="483.04" x2="152.87" y2="453.84"/>
	<line fill="none" stroke="#231F20" stroke-width="0.75" stroke-miterlimit="10" x1="164.44" y1="508.22" x2="183.48" y2="475.22"/>
	<line fill="none" stroke="#231F20" stroke-width="0.75" stroke-miterlimit="10" x1="204.33" y1="526.77" x2="217.35" y2="490.95"/>
	<line fill="none" stroke="#231F20" stroke-width="0.75" stroke-miterlimit="10" x1="246.82" y1="538.09" x2="253.44" y2="500.56"/>
	<line fill="none" stroke="#231F20" stroke-width="0.75" stroke-miterlimit="10" x1="290.64" y1="541.87" x2="290.64" y2="503.77"/>
	<line fill="none" stroke="#231F20" stroke-width="0.75" stroke-miterlimit="10" x1="334.46" y1="537.99" x2="327.83" y2="500.47"/>
	<line fill="none" stroke="#231F20" stroke-width="0.75" stroke-miterlimit="10" x1="376.93" y1="526.56" x2="363.88" y2="490.75"/>
	<line fill="none" stroke="#231F20" stroke-width="0.75" stroke-miterlimit="10" x1="416.77" y1="507.92" x2="397.71" y2="474.92"/>
	<line fill="none" stroke="#231F20" stroke-width="0.75" stroke-miterlimit="10" x1="452.76" y1="482.65" x2="428.27" y2="453.45"/>
	<line fill="none" stroke="#231F20" stroke-width="0.75" stroke-miterlimit="10" x1="483.83" y1="451.5" x2="454.63" y2="427.02"/>
	<line fill="none" stroke="#231F20" stroke-width="0.75" stroke-miterlimit="10" x1="509.02" y1="415.45" x2="476.02" y2="396.4"/>
	<line fill="none" stroke="#231F20" stroke-width="0.75" stroke-miterlimit="10" x1="527.56" y1="375.56" x2="491.75" y2="362.53"/>
	<line fill="none" stroke="#231F20" stroke-width="0.75" stroke-miterlimit="10" x1="538.89" y1="333.07" x2="501.36" y2="326.45"/>
	<line fill="none" stroke="#231F20" stroke-width="0.75" stroke-miterlimit="10" x1="542.67" y1="289.24" x2="504.57" y2="289.25"/>
	<line fill="none" stroke="#231F20" stroke-width="0.75" stroke-miterlimit="10" x1="538.79" y1="245.43" x2="501.26" y2="252.05"/>
	<line fill="none" stroke="#231F20" stroke-width="0.75" stroke-miterlimit="10" x1="527.35" y1="202.96" x2="491.54" y2="215.99"/>
	<line fill="none" stroke="#231F20" stroke-width="0.75" stroke-miterlimit="10" x1="488.57" y1="150.37" x2="465.66" y2="166.42"/>
	<line fill="none" stroke="#231F20" stroke-width="0.75" stroke-miterlimit="10" x1="461.39" y1="118.07" x2="441.61" y2="137.85"/>
	<line fill="none" stroke="#231F20" stroke-width="0.75" stroke-miterlimit="10" x1="429.02" y1="90.97" x2="412.97" y2="113.89"/>
	<line fill="none" stroke="#231F20" stroke-width="0.75" stroke-miterlimit="10" x1="392.43" y1="69.91" x2="380.61" y2="95.26"/>
	<line fill="none" stroke="#231F20" stroke-width="0.75" stroke-miterlimit="10" x1="352.73" y1="55.51" x2="345.5" y2="82.54"/>
	<line fill="none" stroke="#231F20" stroke-width="0.75" stroke-miterlimit="10" x1="311.15" y1="48.23" x2="308.71" y2="76.11"/>
	<line fill="none" stroke="#231F20" stroke-width="0.75" stroke-miterlimit="10" x1="268.92" y1="48.29" x2="271.37" y2="76.16"/>
	<line fill="none" stroke="#231F20" stroke-width="0.75" stroke-miterlimit="10" x1="227.37" y1="55.67" x2="234.6" y2="82.69"/>
	<line fill="none" stroke="#231F20" stroke-width="0.75" stroke-miterlimit="10" x1="187.7" y1="70.16" x2="199.53" y2="95.51"/>
	<line fill="none" stroke="#231F20" stroke-width="0.75" stroke-miterlimit="10" x1="151.17" y1="91.31" x2="167.22" y2="114.23"/>
	<line fill="none" stroke="#231F20" stroke-width="0.75" stroke-miterlimit="10" x1="118.86" y1="118.49" x2="138.64" y2="138.27"/>
	<line fill="none" stroke="#231F20" stroke-width="0.75" stroke-miterlimit="10" x1="91.76" y1="150.87" x2="114.69" y2="166.91"/>
	<line fill="none" stroke="#231F20" stroke-width="0.75" stroke-miterlimit="10" x1="70.69" y1="187.46" x2="96.06" y2="199.28"/>
	<line fill="none" stroke="#231F20" stroke-width="0.75" stroke-miterlimit="10" x1="56.3" y1="227.14" x2="83.34" y2="234.38"/>
	<line fill="none" stroke="#231F20" stroke-width="0.75" stroke-miterlimit="10" x1="49.03" y1="268.74" x2="76.9" y2="271.16"/>
	<line fill="none" stroke="#231F20" stroke-width="0.75" stroke-miterlimit="10" x1="49.08" y1="310.95" x2="76.95" y2="308.51"/>
	<line fill="none" stroke="#231F20" stroke-width="0.75" stroke-miterlimit="10" x1="56.46" y1="352.52" x2="83.48" y2="345.27"/>
	<line fill="none" stroke="#231F20" stroke-width="0.75" stroke-miterlimit="10" x1="70.95" y1="392.18" x2="96.31" y2="380.35"/>
	<line fill="none" stroke="#231F20" stroke-width="0.75" stroke-miterlimit="10" x1="92.11" y1="428.71" x2="115.02" y2="412.66"/>
	<line fill="none" stroke="#231F20" stroke-width="0.75" stroke-miterlimit="10" x1="119.29" y1="461.02" x2="139.06" y2="441.23"/>
	<line fill="none" stroke="#231F20" stroke-width="0.75" stroke-miterlimit="10" x1="151.66" y1="488.12" x2="167.71" y2="465.2"/>
	<line fill="none" stroke="#231F20" stroke-width="0.75" stroke-miterlimit="10" x1="188.25" y1="509.19" x2="200.07" y2="483.82"/>
	<line fill="none" stroke="#231F20" stroke-width="0.75" stroke-miterlimit="10" x1="227.95" y1="523.58" x2="235.18" y2="496.55"/>
	<line fill="none" stroke="#231F20" stroke-width="0.75" stroke-miterlimit="10" x1="269.53" y1="530.85" x2="271.96" y2="502.99"/>
	<line fill="none" stroke="#231F20" stroke-width="0.75" stroke-miterlimit="10" x1="311.75" y1="530.81" x2="309.31" y2="502.93"/>
	<line fill="none" stroke="#231F20" stroke-width="0.75" stroke-miterlimit="10" x1="353.31" y1="523.42" x2="346.06" y2="496.39"/>
	<line fill="none" stroke="#231F20" stroke-width="0.75" stroke-miterlimit="10" x1="392.97" y1="508.92" x2="381.14" y2="483.57"/>
	<line fill="none" stroke="#231F20" stroke-width="0.75" stroke-miterlimit="10" x1="429.51" y1="487.77" x2="413.45" y2="464.85"/>
	<line fill="none" stroke="#231F20" stroke-width="0.75" stroke-miterlimit="10" x1="461.82" y1="460.59" x2="442.02" y2="440.81"/>
	<line fill="none" stroke="#231F20" stroke-width="0.75" stroke-miterlimit="10" x1="488.92" y1="428.22" x2="465.99" y2="412.18"/>
	<line fill="none" stroke="#231F20" stroke-width="0.75" stroke-miterlimit="10" x1="509.98" y1="391.63" x2="484.62" y2="379.81"/>
	<line fill="none" stroke="#231F20" stroke-width="0.75" stroke-miterlimit="10" x1="524.37" y1="351.94" x2="497.34" y2="344.7"/>
	<line fill="none" stroke="#231F20" stroke-width="0.75" stroke-miterlimit="10" x1="531.65" y1="310.35" x2="503.77" y2="307.92"/>
	<line fill="none" stroke="#231F20" stroke-width="0.75" stroke-miterlimit="10" x1="531.6" y1="268.13" x2="503.72" y2="270.58"/>
	<line fill="none" stroke="#231F20" stroke-width="0.75" stroke-miterlimit="10" x1="524.21" y1="226.56" x2="497.19" y2="233.82"/>
	<line fill="none" stroke="#231F20" stroke-width="0.75" stroke-miterlimit="10" x1="509.72" y1="186.91" x2="484.36" y2="198.74"/>
	<line fill="none" stroke="#231F20" stroke-width="0.75" stroke-miterlimit="10" x1="487.66" y1="170.63" x2="473.81" y2="178.95"/>
	<line fill="none" stroke="#231F20" stroke-width="0.75" stroke-miterlimit="10" x1="485.55" y1="167.21" x2="471.86" y2="175.77"/>
	<line fill="none" stroke="#231F20" stroke-width="0.75" stroke-miterlimit="10" x1="483.39" y1="163.82" x2="469.84" y2="172.62"/>
	<line fill="none" stroke="#231F20" stroke-width="0.75" stroke-miterlimit="10" x1="481.17" y1="160.47" x2="467.78" y2="169.5"/>
	<line fill="none" stroke="#231F20" stroke-width="0.75" stroke-miterlimit="10" x1="476.54" y1="153.89" x2="463.48" y2="163.38"/>
	<line fill="none" stroke="#231F20" stroke-width="0.75" stroke-miterlimit="10" x1="474.15" y1="150.66" x2="461.25" y2="160.39"/>
	<line fill="none" stroke="#231F20" stroke-width="0.75" stroke-miterlimit="10" x1="471.7" y1="147.47" x2="458.98" y2="157.42"/>
	<line fill="none" stroke="#231F20" stroke-width="0.75" stroke-miterlimit="10" x1="469.19" y1="144.33" x2="456.64" y2="154.49"/>
	<line fill="none" stroke="#231F20" stroke-width="0.75" stroke-miterlimit="10" x1="464.02" y1="138.18" x2="451.83" y2="148.78"/>
	<line fill="none" stroke="#231F20" stroke-width="0.75" stroke-miterlimit="10" x1="461.35" y1="135.17" x2="449.35" y2="145.98"/>
	<line fill="none" stroke="#231F20" stroke-width="0.75" stroke-miterlimit="10" x1="458.63" y1="132.2" x2="446.82" y2="143.23"/>
	<line fill="none" stroke="#231F20" stroke-width="0.75" stroke-miterlimit="10" x1="455.86" y1="129.29" x2="444.24" y2="140.51"/>
	<line fill="none" stroke="#231F20" stroke-width="0.75" stroke-miterlimit="10" x1="450.16" y1="123.62" x2="438.95" y2="135.23"/>
	<line fill="none" stroke="#231F20" stroke-width="0.75" stroke-miterlimit="10" x1="447.24" y1="120.84" x2="436.23" y2="132.67"/>
	<line fill="none" stroke="#231F20" stroke-width="0.75" stroke-miterlimit="10" x1="444.27" y1="118.14" x2="433.47" y2="130.15"/>
	<line fill="none" stroke="#231F20" stroke-width="0.75" stroke-miterlimit="10" x1="441.26" y1="115.48" x2="430.66" y2="127.67"/>
	<line fill="none" stroke="#231F20" stroke-width="0.75" stroke-miterlimit="10" x1="435.09" y1="110.32" x2="424.93" y2="122.88"/>
	<line fill="none" stroke="#231F20" stroke-width="0.75" stroke-miterlimit="10" x1="431.94" y1="107.82" x2="422" y2="120.55"/>
	<line fill="none" stroke="#231F20" stroke-width="0.75" stroke-miterlimit="10" x1="428.74" y1="105.37" x2="419.03" y2="118.28"/>
	<line fill="none" stroke="#231F20" stroke-width="0.75" stroke-miterlimit="10" x1="425.51" y1="102.99" x2="416.02" y2="116.06"/>
	<line fill="none" stroke="#231F20" stroke-width="0.75" stroke-miterlimit="10" x1="418.92" y1="98.38" x2="409.89" y2="111.78"/>
	<line fill="none" stroke="#231F20" stroke-width="0.75" stroke-miterlimit="10" x1="415.57" y1="96.17" x2="406.77" y2="109.71"/>
	<line fill="none" stroke="#231F20" stroke-width="0.75" stroke-miterlimit="10" x1="412.17" y1="94.01" x2="403.62" y2="107.71"/>
	<line fill="none" stroke="#231F20" stroke-width="0.75" stroke-miterlimit="10" x1="408.74" y1="91.91" x2="400.42" y2="105.76"/>
	<line fill="none" stroke="#231F20" stroke-width="0.75" stroke-miterlimit="10" x1="401.77" y1="87.9" x2="393.94" y2="102.03"/>
	<line fill="none" stroke="#231F20" stroke-width="0.75" stroke-miterlimit="10" x1="398.23" y1="85.99" x2="390.66" y2="100.25"/>
	<line fill="none" stroke="#231F20" stroke-width="0.75" stroke-miterlimit="10" x1="394.67" y1="84.14" x2="387.33" y2="98.53"/>
	<line fill="none" stroke="#231F20" stroke-width="0.75" stroke-miterlimit="10" x1="391.07" y1="82.35" x2="383.98" y2="96.87"/>
	<line fill="none" stroke="#231F20" stroke-width="0.75" stroke-miterlimit="10" x1="383.77" y1="78.96" x2="377.21" y2="93.71"/>
	<line fill="none" stroke="#231F20" stroke-width="0.75" stroke-miterlimit="10" x1="380.08" y1="77.36" x2="373.77" y2="92.23"/>
	<line fill="none" stroke="#231F20" stroke-width="0.75" stroke-miterlimit="10" x1="376.37" y1="75.82" x2="370.31" y2="90.8"/>
	<line fill="none" stroke="#231F20" stroke-width="0.75" stroke-miterlimit="10" x1="372.62" y1="74.36" x2="366.84" y2="89.44"/>
	<line fill="none" stroke="#231F20" stroke-width="0.75" stroke-miterlimit="10" x1="365.07" y1="71.61" x2="359.81" y2="86.89"/>
	<line fill="none" stroke="#231F20" stroke-width="0.75" stroke-miterlimit="10" x1="361.25" y1="70.34" x2="356.25" y2="85.71"/>
	<line fill="none" stroke="#231F20" stroke-width="0.75" stroke-miterlimit="10" x1="357.41" y1="69.14" x2="352.7" y2="84.59"/>
	<line fill="none" stroke="#231F20" stroke-width="0.75" stroke-miterlimit="10" x1="353.56" y1="68" x2="349.11" y2="83.53"/>
	<line fill="none" stroke="#231F20" stroke-width="0.75" stroke-miterlimit="10" x1="345.78" y1="65.93" x2="341.88" y2="81.61"/>
	<line fill="none" stroke="#231F20" stroke-width="0.75" stroke-miterlimit="10" x1="341.87" y1="65" x2="338.24" y2="80.74"/>
	<line fill="none" stroke="#231F20" stroke-width="0.75" stroke-miterlimit="10" x1="337.95" y1="64.13" x2="334.6" y2="79.94"/>
	<line fill="none" stroke="#231F20" stroke-width="0.75" stroke-miterlimit="10" x1="334" y1="63.34" x2="330.93" y2="79.19"/>
	<line fill="none" stroke="#231F20" stroke-width="0.75" stroke-miterlimit="10" x1="326.09" y1="61.95" x2="323.56" y2="77.9"/>
	<line fill="none" stroke="#231F20" stroke-width="0.75" stroke-miterlimit="10" x1="322.11" y1="61.36" x2="319.86" y2="77.36"/>
	<line fill="none" stroke="#231F20" stroke-width="0.75" stroke-miterlimit="10" x1="318.12" y1="60.85" x2="316.15" y2="76.88"/>
	<line fill="none" stroke="#231F20" stroke-width="0.75" stroke-miterlimit="10" x1="314.13" y1="60.39" x2="312.44" y2="76.46"/>
	<line fill="none" stroke="#231F20" stroke-width="0.75" stroke-miterlimit="10" x1="306.12" y1="59.7" x2="304.98" y2="75.81"/>
	<line fill="none" stroke="#231F20" stroke-width="0.75" stroke-miterlimit="10" x1="302.1" y1="59.46" x2="301.25" y2="75.59"/>
	<line fill="none" stroke="#231F20" stroke-width="0.75" stroke-miterlimit="10" x1="298.08" y1="59.29" x2="297.52" y2="75.43"/>
	<line fill="none" stroke="#231F20" stroke-width="0.75" stroke-miterlimit="10" x1="294.06" y1="59.18" x2="293.79" y2="75.34"/>
	<line fill="none" stroke="#231F20" stroke-width="0.75" stroke-miterlimit="10" x1="286.02" y1="59.2" x2="286.31" y2="75.35"/>
	<line fill="none" stroke="#231F20" stroke-width="0.75" stroke-miterlimit="10" x1="282" y1="59.31" x2="282.57" y2="75.45"/>
	<line fill="none" stroke="#231F20" stroke-width="0.75" stroke-miterlimit="10" x1="277.99" y1="59.5" x2="278.83" y2="75.62"/>
	<line fill="none" stroke="#231F20" stroke-width="0.75" stroke-miterlimit="10" x1="273.97" y1="59.75" x2="275.1" y2="75.85"/>
	<line fill="none" stroke="#231F20" stroke-width="0.75" stroke-miterlimit="10" x1="265.96" y1="60.46" x2="267.65" y2="76.52"/>
	<line fill="none" stroke="#231F20" stroke-width="0.75" stroke-miterlimit="10" x1="261.97" y1="60.92" x2="263.94" y2="76.94"/>
	<line fill="none" stroke="#231F20" stroke-width="0.75" stroke-miterlimit="10" x1="257.98" y1="61.44" x2="260.23" y2="77.44"/>
	<line fill="none" stroke="#231F20" stroke-width="0.75" stroke-miterlimit="10" x1="254" y1="62.04" x2="256.53" y2="78"/>
	<line fill="none" stroke="#231F20" stroke-width="0.75" stroke-miterlimit="10" x1="246.09" y1="63.45" x2="249.17" y2="79.3"/>
	<line fill="none" stroke="#231F20" stroke-width="0.75" stroke-miterlimit="10" x1="242.15" y1="64.26" x2="245.5" y2="80.06"/>
	<line fill="none" stroke="#231F20" stroke-width="0.75" stroke-miterlimit="10" x1="238.23" y1="65.14" x2="241.86" y2="80.87"/>
	<line fill="none" stroke="#231F20" stroke-width="0.75" stroke-miterlimit="10" x1="234.32" y1="66.07" x2="238.22" y2="81.75"/>
	<line fill="none" stroke="#231F20" stroke-width="0.75" stroke-miterlimit="10" x1="226.55" y1="68.16" x2="231.01" y2="83.69"/>
	<line fill="none" stroke="#231F20" stroke-width="0.75" stroke-miterlimit="10" x1="222.69" y1="69.31" x2="227.42" y2="84.76"/>
	<line fill="none" stroke="#231F20" stroke-width="0.75" stroke-miterlimit="10" x1="218.86" y1="70.52" x2="223.86" y2="85.88"/>
	<line fill="none" stroke="#231F20" stroke-width="0.75" stroke-miterlimit="10" x1="215.06" y1="71.81" x2="220.31" y2="87.08"/>
	<line fill="none" stroke="#231F20" stroke-width="0.75" stroke-miterlimit="10" x1="207.5" y1="74.57" x2="213.29" y2="89.64"/>
	<line fill="none" stroke="#231F20" stroke-width="0.75" stroke-miterlimit="10" x1="203.76" y1="76.05" x2="209.82" y2="91.03"/>
	<line fill="none" stroke="#231F20" stroke-width="0.75" stroke-miterlimit="10" x1="200.05" y1="77.59" x2="206.36" y2="92.46"/>
	<line fill="none" stroke="#231F20" stroke-width="0.75" stroke-miterlimit="10" x1="196.36" y1="79.2" x2="202.93" y2="93.95"/>
	<line fill="none" stroke="#231F20" stroke-width="0.75" stroke-miterlimit="10" x1="189.08" y1="82.61" x2="196.16" y2="97.12"/>
	<line fill="none" stroke="#231F20" stroke-width="0.75" stroke-miterlimit="10" x1="185.48" y1="84.41" x2="192.81" y2="98.8"/>
	<line fill="none" stroke="#231F20" stroke-width="0.75" stroke-miterlimit="10" x1="181.92" y1="86.27" x2="189.5" y2="100.53"/>
	<line fill="none" stroke="#231F20" stroke-width="0.75" stroke-miterlimit="10" x1="178.39" y1="88.19" x2="186.22" y2="102.32"/>
	<line fill="none" stroke="#231F20" stroke-width="0.75" stroke-miterlimit="10" x1="171.43" y1="92.22" x2="179.75" y2="106.07"/>
	<line fill="none" stroke="#231F20" stroke-width="0.75" stroke-miterlimit="10" x1="168" y1="94.33" x2="176.56" y2="108.03"/>
	<line fill="none" stroke="#231F20" stroke-width="0.75" stroke-miterlimit="10" x1="164.61" y1="96.49" x2="173.41" y2="110.04"/>
	<line fill="none" stroke="#231F20" stroke-width="0.75" stroke-miterlimit="10" x1="161.26" y1="98.71" x2="170.3" y2="112.1"/>
	<line fill="none" stroke="#231F20" stroke-width="0.75" stroke-miterlimit="10" x1="154.68" y1="103.33" x2="164.18" y2="116.4"/>
	<line fill="none" stroke="#231F20" stroke-width="0.75" stroke-miterlimit="10" x1="151.44" y1="105.73" x2="161.17" y2="118.63"/>
	<line fill="none" stroke="#231F20" stroke-width="0.75" stroke-miterlimit="10" x1="148.26" y1="108.18" x2="158.21" y2="120.91"/>
	<line fill="none" stroke="#231F20" stroke-width="0.75" stroke-miterlimit="10" x1="145.12" y1="110.69" x2="155.29" y2="123.24"/>
	<line fill="none" stroke="#231F20" stroke-width="0.75" stroke-miterlimit="10" x1="138.97" y1="115.86" x2="149.57" y2="128.06"/>
	<line fill="none" stroke="#231F20" stroke-width="0.75" stroke-miterlimit="10" x1="135.96" y1="118.53" x2="146.78" y2="130.54"/>
	<line fill="none" stroke="#231F20" stroke-width="0.75" stroke-miterlimit="10" x1="133" y1="121.25" x2="144.01" y2="133.07"/>
	<line fill="none" stroke="#231F20" stroke-width="0.75" stroke-miterlimit="10" x1="130.08" y1="124.02" x2="141.31" y2="135.65"/>
	<line fill="none" stroke="#231F20" stroke-width="0.75" stroke-miterlimit="10" x1="124.41" y1="129.72" x2="136.03" y2="140.94"/>
	<line fill="none" stroke="#231F20" stroke-width="0.75" stroke-miterlimit="10" x1="121.64" y1="132.64" x2="133.46" y2="143.65"/>
	<line fill="none" stroke="#231F20" stroke-width="0.75" stroke-miterlimit="10" x1="118.93" y1="135.61" x2="130.93" y2="146.42"/>
	<line fill="none" stroke="#231F20" stroke-width="0.75" stroke-miterlimit="10" x1="116.27" y1="138.62" x2="128.46" y2="149.22"/>
	<line fill="none" stroke="#231F20" stroke-width="0.75" stroke-miterlimit="10" x1="111.11" y1="144.78" x2="123.66" y2="154.95"/>
	<line fill="none" stroke="#231F20" stroke-width="0.75" stroke-miterlimit="10" x1="108.61" y1="147.94" x2="121.34" y2="157.88"/>
	<line fill="none" stroke="#231F20" stroke-width="0.75" stroke-miterlimit="10" x1="106.16" y1="151.13" x2="119.06" y2="160.85"/>
	<line fill="none" stroke="#231F20" stroke-width="0.75" stroke-miterlimit="10" x1="103.78" y1="154.36" x2="116.85" y2="163.86"/>
	<line fill="none" stroke="#231F20" stroke-width="0.75" stroke-miterlimit="10" x1="99.17" y1="160.96" x2="112.57" y2="169.99"/>
	<line fill="none" stroke="#231F20" stroke-width="0.75" stroke-miterlimit="10" x1="96.96" y1="164.32" x2="110.51" y2="173.11"/>
	<line fill="none" stroke="#231F20" stroke-width="0.75" stroke-miterlimit="10" x1="94.8" y1="167.71" x2="108.51" y2="176.27"/>
	<line fill="none" stroke="#231F20" stroke-width="0.75" stroke-miterlimit="10" x1="92.71" y1="171.14" x2="106.55" y2="179.46"/>
	<line fill="none" stroke="#231F20" stroke-width="0.75" stroke-miterlimit="10" x1="88.69" y1="178.11" x2="102.82" y2="185.94"/>
	<line fill="none" stroke="#231F20" stroke-width="0.75" stroke-miterlimit="10" x1="86.77" y1="181.65" x2="101.05" y2="189.22"/>
	<line fill="none" stroke="#231F20" stroke-width="0.75" stroke-miterlimit="10" x1="84.92" y1="185.22" x2="99.32" y2="192.54"/>
	<line fill="none" stroke="#231F20" stroke-width="0.75" stroke-miterlimit="10" x1="83.13" y1="188.82" x2="97.66" y2="195.89"/>
	<line fill="none" stroke="#231F20" stroke-width="0.75" stroke-miterlimit="10" x1="79.75" y1="196.11" x2="94.51" y2="202.68"/>
	<line fill="none" stroke="#231F20" stroke-width="0.75" stroke-miterlimit="10" x1="78.15" y1="199.8" x2="93.03" y2="206.11"/>
	<line fill="none" stroke="#231F20" stroke-width="0.75" stroke-miterlimit="10" x1="76.61" y1="203.52" x2="91.59" y2="209.57"/>
	<line fill="none" stroke="#231F20" stroke-width="0.75" stroke-miterlimit="10" x1="75.15" y1="207.26" x2="90.23" y2="213.05"/>
	<line fill="none" stroke="#231F20" stroke-width="0.75" stroke-miterlimit="10" x1="72.41" y1="214.82" x2="87.68" y2="220.07"/>
	<line fill="none" stroke="#231F20" stroke-width="0.75" stroke-miterlimit="10" x1="71.13" y1="218.63" x2="86.5" y2="223.62"/>
	<line fill="none" stroke="#231F20" stroke-width="0.75" stroke-miterlimit="10" x1="69.93" y1="222.47" x2="85.38" y2="227.19"/>
	<line fill="none" stroke="#231F20" stroke-width="0.75" stroke-miterlimit="10" x1="68.79" y1="226.33" x2="84.33" y2="230.78"/>
	<line fill="none" stroke="#231F20" stroke-width="0.75" stroke-miterlimit="10" x1="66.72" y1="234.1" x2="82.4" y2="238"/>
	<line fill="none" stroke="#231F20" stroke-width="0.75" stroke-miterlimit="10" x1="65.79" y1="238.01" x2="81.53" y2="241.64"/>
	<line fill="none" stroke="#231F20" stroke-width="0.75" stroke-miterlimit="10" x1="64.93" y1="241.93" x2="80.73" y2="245.29"/>
	<line fill="none" stroke="#231F20" stroke-width="0.75" stroke-miterlimit="10" x1="64.13" y1="245.88" x2="79.98" y2="248.95"/>
	<line fill="none" stroke="#231F20" stroke-width="0.75" stroke-miterlimit="10" x1="62.74" y1="253.79" x2="78.7" y2="256.32"/>
	<line fill="none" stroke="#231F20" stroke-width="0.75" stroke-miterlimit="10" x1="62.15" y1="257.77" x2="78.15" y2="260.01"/>
	<line fill="none" stroke="#231F20" stroke-width="0.75" stroke-miterlimit="10" x1="61.63" y1="261.76" x2="77.67" y2="263.72"/>
	<line fill="none" stroke="#231F20" stroke-width="0.75" stroke-miterlimit="10" x1="61.18" y1="265.76" x2="77.25" y2="267.44"/>
	<line fill="none" stroke="#231F20" stroke-width="0.75" stroke-miterlimit="10" x1="60.49" y1="273.77" x2="76.61" y2="274.89"/>
	<line fill="none" stroke="#231F20" stroke-width="0.75" stroke-miterlimit="10" x1="60.25" y1="277.79" x2="76.39" y2="278.62"/>
	<line fill="none" stroke="#231F20" stroke-width="0.75" stroke-miterlimit="10" x1="60.08" y1="281.8" x2="76.23" y2="282.36"/>
	<line fill="none" stroke="#231F20" stroke-width="0.75" stroke-miterlimit="10" x1="59.98" y1="285.82" x2="76.13" y2="286.1"/>
	<line fill="none" stroke="#231F20" stroke-width="0.75" stroke-miterlimit="10" x1="59.99" y1="293.86" x2="76.14" y2="293.57"/>
	<line fill="none" stroke="#231F20" stroke-width="0.75" stroke-miterlimit="10" x1="60.1" y1="297.89" x2="76.25" y2="297.31"/>
	<line fill="none" stroke="#231F20" stroke-width="0.75" stroke-miterlimit="10" x1="60.28" y1="301.9" x2="76.42" y2="301.05"/>
	<line fill="none" stroke="#231F20" stroke-width="0.75" stroke-miterlimit="10" x1="60.54" y1="305.92" x2="76.66" y2="304.78"/>
	<line fill="none" stroke="#231F20" stroke-width="0.75" stroke-miterlimit="10" x1="61.24" y1="313.92" x2="77.31" y2="312.23"/>
	<line fill="none" stroke="#231F20" stroke-width="0.75" stroke-miterlimit="10" x1="61.7" y1="317.92" x2="77.75" y2="315.94"/>
	<line fill="none" stroke="#231F20" stroke-width="0.75" stroke-miterlimit="10" x1="62.24" y1="321.91" x2="78.23" y2="319.64"/>
	<line fill="none" stroke="#231F20" stroke-width="0.75" stroke-miterlimit="10" x1="62.84" y1="325.88" x2="78.79" y2="323.34"/>
	<line fill="none" stroke="#231F20" stroke-width="0.75" stroke-miterlimit="10" x1="64.25" y1="333.8" x2="80.1" y2="330.7"/>
	<line fill="none" stroke="#231F20" stroke-width="0.75" stroke-miterlimit="10" x1="65.05" y1="337.73" x2="80.85" y2="334.37"/>
	<line fill="none" stroke="#231F20" stroke-width="0.75" stroke-miterlimit="10" x1="65.92" y1="341.66" x2="81.66" y2="338.02"/>
	<line fill="none" stroke="#231F20" stroke-width="0.75" stroke-miterlimit="10" x1="66.87" y1="345.57" x2="82.54" y2="341.65"/>
	<line fill="none" stroke="#231F20" stroke-width="0.75" stroke-miterlimit="10" x1="68.96" y1="353.34" x2="84.49" y2="348.87"/>
	<line fill="none" stroke="#231F20" stroke-width="0.75" stroke-miterlimit="10" x1="70.11" y1="357.19" x2="85.56" y2="352.46"/>
	<line fill="none" stroke="#231F20" stroke-width="0.75" stroke-miterlimit="10" x1="71.32" y1="361.02" x2="86.69" y2="356.02"/>
	<line fill="none" stroke="#231F20" stroke-width="0.75" stroke-miterlimit="10" x1="72.6" y1="364.84" x2="87.88" y2="359.56"/>
	<line fill="none" stroke="#231F20" stroke-width="0.75" stroke-miterlimit="10" x1="75.37" y1="372.39" x2="90.45" y2="366.59"/>
	<line fill="none" stroke="#231F20" stroke-width="0.75" stroke-miterlimit="10" x1="76.85" y1="376.13" x2="91.82" y2="370.07"/>
	<line fill="none" stroke="#231F20" stroke-width="0.75" stroke-miterlimit="10" x1="78.39" y1="379.84" x2="93.26" y2="373.51"/>
	<line fill="none" stroke="#231F20" stroke-width="0.75" stroke-miterlimit="10" x1="80" y1="383.53" x2="94.75" y2="376.94"/>
	<line fill="none" stroke="#231F20" stroke-width="0.75" stroke-miterlimit="10" x1="83.41" y1="390.81" x2="97.92" y2="383.71"/>
	<line fill="none" stroke="#231F20" stroke-width="0.75" stroke-miterlimit="10" x1="85.19" y1="394.4" x2="99.59" y2="387.06"/>
	<line fill="none" stroke="#231F20" stroke-width="0.75" stroke-miterlimit="10" x1="87.07" y1="397.96" x2="101.32" y2="390.38"/>
	<line fill="none" stroke="#231F20" stroke-width="0.75" stroke-miterlimit="10" x1="88.98" y1="401.5" x2="103.11" y2="393.65"/>
	<line fill="none" stroke="#231F20" stroke-width="0.75" stroke-miterlimit="10" x1="93.02" y1="408.45" x2="106.86" y2="400.13"/>
	<line fill="none" stroke="#231F20" stroke-width="0.75" stroke-miterlimit="10" x1="95.12" y1="411.88" x2="108.82" y2="403.31"/>
	<line fill="none" stroke="#231F20" stroke-width="0.75" stroke-miterlimit="10" x1="97.28" y1="415.28" x2="110.83" y2="406.46"/>
	<line fill="none" stroke="#231F20" stroke-width="0.75" stroke-miterlimit="10" x1="99.51" y1="418.62" x2="112.9" y2="409.58"/>
	<line fill="none" stroke="#231F20" stroke-width="0.75" stroke-miterlimit="10" x1="104.13" y1="425.2" x2="117.19" y2="415.7"/>
	<line fill="none" stroke="#231F20" stroke-width="0.75" stroke-miterlimit="10" x1="106.53" y1="428.43" x2="119.42" y2="418.7"/>
	<line fill="none" stroke="#231F20" stroke-width="0.75" stroke-miterlimit="10" x1="108.98" y1="431.62" x2="121.7" y2="421.66"/>
	<line fill="none" stroke="#231F20" stroke-width="0.75" stroke-miterlimit="10" x1="111.48" y1="434.77" x2="124.03" y2="424.58"/>
	<line fill="none" stroke="#231F20" stroke-width="0.75" stroke-miterlimit="10" x1="116.66" y1="440.91" x2="128.85" y2="430.3"/>
	<line fill="none" stroke="#231F20" stroke-width="0.75" stroke-miterlimit="10" x1="119.32" y1="443.92" x2="131.33" y2="433.11"/>
	<line fill="none" stroke="#231F20" stroke-width="0.75" stroke-miterlimit="10" x1="122.05" y1="446.89" x2="133.86" y2="435.86"/>
	<line fill="none" stroke="#231F20" stroke-width="0.75" stroke-miterlimit="10" x1="124.82" y1="449.8" x2="136.44" y2="438.57"/>
	<line fill="none" stroke="#231F20" stroke-width="0.75" stroke-miterlimit="10" x1="130.52" y1="455.47" x2="141.73" y2="443.85"/>
	<line fill="none" stroke="#231F20" stroke-width="0.75" stroke-miterlimit="10" x1="133.44" y1="458.24" x2="144.45" y2="446.41"/>
	<line fill="none" stroke="#231F20" stroke-width="0.75" stroke-miterlimit="10" x1="136.4" y1="460.96" x2="147.21" y2="448.94"/>
	<line fill="none" stroke="#231F20" stroke-width="0.75" stroke-miterlimit="10" x1="139.41" y1="463.62" x2="150.01" y2="451.41"/>
	<line fill="none" stroke="#231F20" stroke-width="0.75" stroke-miterlimit="10" x1="145.59" y1="468.78" x2="155.75" y2="456.21"/>
	<line fill="none" stroke="#231F20" stroke-width="0.75" stroke-miterlimit="10" x1="148.73" y1="471.27" x2="158.67" y2="458.53"/>
	<line fill="none" stroke="#231F20" stroke-width="0.75" stroke-miterlimit="10" x1="151.93" y1="473.72" x2="161.65" y2="460.81"/>
	<line fill="none" stroke="#231F20" stroke-width="0.75" stroke-miterlimit="10" x1="155.16" y1="476.11" x2="164.65" y2="463.02"/>
	<line fill="none" stroke="#231F20" stroke-width="0.75" stroke-miterlimit="10" x1="161.76" y1="480.71" x2="170.79" y2="467.31"/>
	<line fill="none" stroke="#231F20" stroke-width="0.75" stroke-miterlimit="10" x1="165.12" y1="482.93" x2="173.9" y2="469.37"/>
	<line fill="none" stroke="#231F20" stroke-width="0.75" stroke-miterlimit="10" x1="168.51" y1="485.08" x2="177.06" y2="471.37"/>
	<line fill="none" stroke="#231F20" stroke-width="0.75" stroke-miterlimit="10" x1="171.94" y1="487.18" x2="180.25" y2="473.32"/>
	<line fill="none" stroke="#231F20" stroke-width="0.75" stroke-miterlimit="10" x1="178.91" y1="491.19" x2="186.74" y2="477.05"/>
	<line fill="none" stroke="#231F20" stroke-width="0.75" stroke-miterlimit="10" x1="182.45" y1="493.1" x2="190.02" y2="478.84"/>
	<line fill="none" stroke="#231F20" stroke-width="0.75" stroke-miterlimit="10" x1="186.02" y1="494.96" x2="193.34" y2="480.55"/>
	<line fill="none" stroke="#231F20" stroke-width="0.75" stroke-miterlimit="10" x1="189.61" y1="496.75" x2="196.69" y2="482.21"/>
	<line fill="none" stroke="#231F20" stroke-width="0.75" stroke-miterlimit="10" x1="196.91" y1="500.13" x2="203.47" y2="485.37"/>
	<line fill="none" stroke="#231F20" stroke-width="0.75" stroke-miterlimit="10" x1="200.6" y1="501.73" x2="206.9" y2="486.85"/>
	<line fill="none" stroke="#231F20" stroke-width="0.75" stroke-miterlimit="10" x1="204.32" y1="503.27" x2="210.36" y2="488.28"/>
	<line fill="none" stroke="#231F20" stroke-width="0.75" stroke-miterlimit="10" x1="208.06" y1="504.74" x2="213.84" y2="489.64"/>
	<line fill="none" stroke="#231F20" stroke-width="0.75" stroke-miterlimit="10" x1="215.62" y1="507.47" x2="220.87" y2="492.19"/>
	<line fill="none" stroke="#231F20" stroke-width="0.75" stroke-miterlimit="10" x1="219.43" y1="508.75" x2="224.41" y2="493.38"/>
	<line fill="none" stroke="#231F20" stroke-width="0.75" stroke-miterlimit="10" x1="223.27" y1="509.95" x2="227.98" y2="494.49"/>
	<line fill="none" stroke="#231F20" stroke-width="0.75" stroke-miterlimit="10" x1="227.12" y1="511.09" x2="231.57" y2="495.55"/>
	<line fill="none" stroke="#231F20" stroke-width="0.75" stroke-miterlimit="10" x1="234.9" y1="513.16" x2="238.8" y2="497.47"/>
	<line fill="none" stroke="#231F20" stroke-width="0.75" stroke-miterlimit="10" x1="238.81" y1="514.09" x2="242.43" y2="498.34"/>
	<line fill="none" stroke="#231F20" stroke-width="0.75" stroke-miterlimit="10" x1="242.73" y1="514.96" x2="246.08" y2="499.15"/>
	<line fill="none" stroke="#231F20" stroke-width="0.75" stroke-miterlimit="10" x1="246.68" y1="515.75" x2="249.75" y2="499.88"/>
	<line fill="none" stroke="#231F20" stroke-width="0.75" stroke-miterlimit="10" x1="254.6" y1="517.13" x2="257.11" y2="501.18"/>
	<line fill="none" stroke="#231F20" stroke-width="0.75" stroke-miterlimit="10" x1="258.58" y1="517.73" x2="260.81" y2="501.72"/>
	<line fill="none" stroke="#231F20" stroke-width="0.75" stroke-miterlimit="10" x1="262.56" y1="518.25" x2="264.52" y2="502.21"/>
	<line fill="none" stroke="#231F20" stroke-width="0.75" stroke-miterlimit="10" x1="266.56" y1="518.7" x2="268.23" y2="502.62"/>
	<line fill="none" stroke="#231F20" stroke-width="0.75" stroke-miterlimit="10" x1="274.57" y1="519.39" x2="275.68" y2="503.27"/>
	<line fill="none" stroke="#231F20" stroke-width="0.75" stroke-miterlimit="10" x1="278.58" y1="519.63" x2="279.41" y2="503.49"/>
	<line fill="none" stroke="#231F20" stroke-width="0.75" stroke-miterlimit="10" x1="282.6" y1="519.79" x2="283.15" y2="503.65"/>
	<line fill="none" stroke="#231F20" stroke-width="0.75" stroke-miterlimit="10" x1="286.62" y1="519.9" x2="286.89" y2="503.74"/>
	<line fill="none" stroke="#231F20" stroke-width="0.75" stroke-miterlimit="10" x1="294.66" y1="519.88" x2="294.36" y2="503.73"/>
	<line fill="none" stroke="#231F20" stroke-width="0.75" stroke-miterlimit="10" x1="298.68" y1="519.78" x2="298.1" y2="503.63"/>
	<line fill="none" stroke="#231F20" stroke-width="0.75" stroke-miterlimit="10" x1="302.7" y1="519.6" x2="301.84" y2="503.45"/>
	<line fill="none" stroke="#231F20" stroke-width="0.75" stroke-miterlimit="10" x1="306.71" y1="519.35" x2="305.58" y2="503.22"/>
	<line fill="none" stroke="#231F20" stroke-width="0.75" stroke-miterlimit="10" x1="314.72" y1="518.64" x2="313.02" y2="502.56"/>
	<line fill="none" stroke="#231F20" stroke-width="0.75" stroke-miterlimit="10" x1="318.72" y1="518.18" x2="316.74" y2="502.14"/>
	<line fill="none" stroke="#231F20" stroke-width="0.75" stroke-miterlimit="10" x1="322.7" y1="517.64" x2="320.43" y2="501.64"/>
	<line fill="none" stroke="#231F20" stroke-width="0.75" stroke-miterlimit="10" x1="326.68" y1="517.05" x2="324.13" y2="501.09"/>
	<line fill="none" stroke="#231F20" stroke-width="0.75" stroke-miterlimit="10" x1="334.59" y1="515.64" x2="331.49" y2="499.77"/>
	<line fill="none" stroke="#231F20" stroke-width="0.75" stroke-miterlimit="10" x1="338.54" y1="514.83" x2="335.16" y2="499.03"/>
	<line fill="none" stroke="#231F20" stroke-width="0.75" stroke-miterlimit="10" x1="342.46" y1="513.96" x2="338.81" y2="498.21"/>
	<line fill="none" stroke="#231F20" stroke-width="0.75" stroke-miterlimit="10" x1="346.37" y1="513.01" x2="342.44" y2="497.34"/>
	<line fill="none" stroke="#231F20" stroke-width="0.75" stroke-miterlimit="10" x1="354.13" y1="510.92" x2="349.66" y2="495.39"/>
	<line fill="none" stroke="#231F20" stroke-width="0.75" stroke-miterlimit="10" x1="357.99" y1="509.77" x2="353.25" y2="494.32"/>
	<line fill="none" stroke="#231F20" stroke-width="0.75" stroke-miterlimit="10" x1="361.82" y1="508.56" x2="356.81" y2="493.19"/>
	<line fill="none" stroke="#231F20" stroke-width="0.75" stroke-miterlimit="10" x1="365.64" y1="507.28" x2="360.36" y2="492"/>
	<line fill="none" stroke="#231F20" stroke-width="0.75" stroke-miterlimit="10" x1="373.18" y1="504.52" x2="367.38" y2="489.43"/>
	<line fill="none" stroke="#231F20" stroke-width="0.75" stroke-miterlimit="10" x1="376.92" y1="503.04" x2="370.86" y2="488.05"/>
	<line fill="none" stroke="#231F20" stroke-width="0.75" stroke-miterlimit="10" x1="380.63" y1="501.5" x2="374.3" y2="486.62"/>
	<line fill="none" stroke="#231F20" stroke-width="0.75" stroke-miterlimit="10" x1="384.32" y1="499.89" x2="377.73" y2="485.12"/>
	<line fill="none" stroke="#231F20" stroke-width="0.75" stroke-miterlimit="10" x1="391.6" y1="496.48" x2="384.5" y2="481.95"/>
	<line fill="none" stroke="#231F20" stroke-width="0.75" stroke-miterlimit="10" x1="395.19" y1="494.68" x2="387.85" y2="480.28"/>
	<line fill="none" stroke="#231F20" stroke-width="0.75" stroke-miterlimit="10" x1="398.77" y1="492.83" x2="391.17" y2="478.55"/>
	<line fill="none" stroke="#231F20" stroke-width="0.75" stroke-miterlimit="10" x1="402.3" y1="490.9" x2="394.44" y2="476.76"/>
	<line fill="none" stroke="#231F20" stroke-width="0.75" stroke-miterlimit="10" x1="409.25" y1="486.87" x2="400.92" y2="473.02"/>
	<line fill="none" stroke="#231F20" stroke-width="0.75" stroke-miterlimit="10" x1="412.68" y1="484.77" x2="404.11" y2="471.06"/>
	<line fill="none" stroke="#231F20" stroke-width="0.75" stroke-miterlimit="10" x1="416.07" y1="482.6" x2="407.25" y2="469.05"/>
	<line fill="none" stroke="#231F20" stroke-width="0.75" stroke-miterlimit="10" x1="419.42" y1="480.38" x2="410.37" y2="466.98"/>
	<line fill="none" stroke="#231F20" stroke-width="0.75" stroke-miterlimit="10" x1="426" y1="475.76" x2="416.49" y2="462.68"/>
	<line fill="none" stroke="#231F20" stroke-width="0.75" stroke-miterlimit="10" x1="429.23" y1="473.37" x2="419.49" y2="460.45"/>
	<line fill="none" stroke="#231F20" stroke-width="0.75" stroke-miterlimit="10" x1="432.41" y1="470.91" x2="422.45" y2="458.18"/>
	<line fill="none" stroke="#231F20" stroke-width="0.75" stroke-miterlimit="10" x1="435.56" y1="468.4" x2="425.38" y2="455.84"/>
	<line fill="none" stroke="#231F20" stroke-width="0.75" stroke-miterlimit="10" x1="441.71" y1="463.22" x2="431.09" y2="451.03"/>
	<line fill="none" stroke="#231F20" stroke-width="0.75" stroke-miterlimit="10" x1="444.72" y1="460.56" x2="433.89" y2="448.55"/>
	<line fill="none" stroke="#231F20" stroke-width="0.75" stroke-miterlimit="10" x1="447.68" y1="457.83" x2="436.64" y2="446.02"/>
	<line fill="none" stroke="#231F20" stroke-width="0.75" stroke-miterlimit="10" x1="450.6" y1="455.06" x2="439.36" y2="443.44"/>
	<line fill="none" stroke="#231F20" stroke-width="0.75" stroke-miterlimit="10" x1="456.27" y1="449.37" x2="444.64" y2="438.14"/>
	<line fill="none" stroke="#231F20" stroke-width="0.75" stroke-miterlimit="10" x1="459.04" y1="446.45" x2="447.2" y2="435.43"/>
	<line fill="none" stroke="#231F20" stroke-width="0.75" stroke-miterlimit="10" x1="461.75" y1="443.48" x2="449.73" y2="432.67"/>
	<line fill="none" stroke="#231F20" stroke-width="0.75" stroke-miterlimit="10" x1="464.41" y1="440.47" x2="452.2" y2="429.86"/>
	<line fill="none" stroke="#231F20" stroke-width="0.75" stroke-miterlimit="10" x1="469.57" y1="434.3" x2="457" y2="424.14"/>
	<line fill="none" stroke="#231F20" stroke-width="0.75" stroke-miterlimit="10" x1="472.07" y1="431.15" x2="459.32" y2="421.2"/>
	<line fill="none" stroke="#231F20" stroke-width="0.75" stroke-miterlimit="10" x1="474.52" y1="427.96" x2="461.59" y2="418.24"/>
	<line fill="none" stroke="#231F20" stroke-width="0.75" stroke-miterlimit="10" x1="476.9" y1="424.72" x2="463.81" y2="415.22"/>
	<line fill="none" stroke="#231F20" stroke-width="0.75" stroke-miterlimit="10" x1="481.51" y1="418.12" x2="468.09" y2="409.09"/>
	<line fill="none" stroke="#231F20" stroke-width="0.75" stroke-miterlimit="10" x1="483.71" y1="414.77" x2="470.16" y2="405.97"/>
	<line fill="none" stroke="#231F20" stroke-width="0.75" stroke-miterlimit="10" x1="485.88" y1="411.37" x2="472.16" y2="402.82"/>
	<line fill="none" stroke="#231F20" stroke-width="0.75" stroke-miterlimit="10" x1="487.97" y1="407.95" x2="474.1" y2="399.63"/>
	<line fill="none" stroke="#231F20" stroke-width="0.75" stroke-miterlimit="10" x1="491.99" y1="400.98" x2="477.83" y2="393.14"/>
	<line fill="none" stroke="#231F20" stroke-width="0.75" stroke-miterlimit="10" x1="493.9" y1="397.45" x2="479.62" y2="389.86"/>
	<line fill="none" stroke="#231F20" stroke-width="0.75" stroke-miterlimit="10" x1="495.75" y1="393.87" x2="481.34" y2="386.54"/>
	<line fill="none" stroke="#231F20" stroke-width="0.75" stroke-miterlimit="10" x1="497.54" y1="390.27" x2="483" y2="383.2"/>
	<line fill="none" stroke="#231F20" stroke-width="0.75" stroke-miterlimit="10" x1="500.93" y1="382.98" x2="486.15" y2="376.41"/>
	<line fill="none" stroke="#231F20" stroke-width="0.75" stroke-miterlimit="10" x1="502.53" y1="379.3" x2="487.64" y2="372.97"/>
	<line fill="none" stroke="#231F20" stroke-width="0.75" stroke-miterlimit="10" x1="504.06" y1="375.57" x2="489.06" y2="369.52"/>
	<line fill="none" stroke="#231F20" stroke-width="0.75" stroke-miterlimit="10" x1="505.54" y1="371.83" x2="490.43" y2="366.04"/>
	<line fill="none" stroke="#231F20" stroke-width="0.75" stroke-miterlimit="10" x1="508.27" y1="364.27" x2="492.97" y2="359.02"/>
	<line fill="none" stroke="#231F20" stroke-width="0.75" stroke-miterlimit="10" x1="509.54" y1="360.45" x2="494.16" y2="355.47"/>
	<line fill="none" stroke="#231F20" stroke-width="0.75" stroke-miterlimit="10" x1="510.75" y1="356.62" x2="495.27" y2="351.9"/>
	<line fill="none" stroke="#231F20" stroke-width="0.75" stroke-miterlimit="10" x1="511.88" y1="352.76" x2="496.33" y2="348.31"/>
	<line fill="none" stroke="#231F20" stroke-width="0.75" stroke-miterlimit="10" x1="513.95" y1="344.99" x2="498.26" y2="341.09"/>
	<line fill="none" stroke="#231F20" stroke-width="0.75" stroke-miterlimit="10" x1="514.89" y1="341.08" x2="499.12" y2="337.45"/>
	<line fill="none" stroke="#231F20" stroke-width="0.75" stroke-miterlimit="10" x1="515.75" y1="337.15" x2="499.93" y2="333.8"/>
	<line fill="none" stroke="#231F20" stroke-width="0.75" stroke-miterlimit="10" x1="516.55" y1="333.21" x2="500.67" y2="330.14"/>
	<line fill="none" stroke="#231F20" stroke-width="0.75" stroke-miterlimit="10" x1="517.93" y1="325.29" x2="501.96" y2="322.77"/>
	<line fill="none" stroke="#231F20" stroke-width="0.75" stroke-miterlimit="10" x1="518.52" y1="321.32" x2="502.51" y2="319.08"/>
	<line fill="none" stroke="#231F20" stroke-width="0.75" stroke-miterlimit="10" x1="519.05" y1="317.33" x2="502.99" y2="315.37"/>
	<line fill="none" stroke="#231F20" stroke-width="0.75" stroke-miterlimit="10" x1="519.5" y1="313.33" x2="503.4" y2="311.65"/>
	<line fill="none" stroke="#231F20" stroke-width="0.75" stroke-miterlimit="10" x1="520.19" y1="305.32" x2="504.05" y2="304.2"/>
	<line fill="none" stroke="#231F20" stroke-width="0.75" stroke-miterlimit="10" x1="520.43" y1="301.3" x2="504.28" y2="300.47"/>
	<line fill="none" stroke="#231F20" stroke-width="0.75" stroke-miterlimit="10" x1="520.59" y1="297.29" x2="504.43" y2="296.74"/>
	<line fill="none" stroke="#231F20" stroke-width="0.75" stroke-miterlimit="10" x1="520.7" y1="293.27" x2="504.53" y2="293"/>
	<line fill="none" stroke="#231F20" stroke-width="0.75" stroke-miterlimit="10" x1="520.69" y1="285.23" x2="504.52" y2="285.52"/>
	<line fill="none" stroke="#231F20" stroke-width="0.75" stroke-miterlimit="10" x1="520.57" y1="281.21" x2="504.41" y2="281.78"/>
	<line fill="none" stroke="#231F20" stroke-width="0.75" stroke-miterlimit="10" x1="520.39" y1="277.18" x2="504.24" y2="278.05"/>
	<line fill="none" stroke="#231F20" stroke-width="0.75" stroke-miterlimit="10" x1="520.14" y1="273.17" x2="504.01" y2="274.31"/>
	<line fill="none" stroke="#231F20" stroke-width="0.75" stroke-miterlimit="10" x1="519.43" y1="265.16" x2="503.35" y2="266.87"/>
	<line fill="none" stroke="#231F20" stroke-width="0.75" stroke-miterlimit="10" x1="518.97" y1="261.17" x2="502.92" y2="263.15"/>
	<line fill="none" stroke="#231F20" stroke-width="0.75" stroke-miterlimit="10" x1="518.44" y1="257.19" x2="502.42" y2="259.44"/>
	<line fill="none" stroke="#231F20" stroke-width="0.75" stroke-miterlimit="10" x1="517.84" y1="253.21" x2="501.87" y2="255.75"/>
	<line fill="none" stroke="#231F20" stroke-width="0.75" stroke-miterlimit="10" x1="516.43" y1="245.29" x2="500.56" y2="248.38"/>
	<line fill="none" stroke="#231F20" stroke-width="0.75" stroke-miterlimit="10" x1="515.63" y1="241.36" x2="499.81" y2="244.73"/>
	<line fill="none" stroke="#231F20" stroke-width="0.75" stroke-miterlimit="10" x1="514.75" y1="237.43" x2="499" y2="241.08"/>
	<line fill="none" stroke="#231F20" stroke-width="0.75" stroke-miterlimit="10" x1="513.82" y1="233.52" x2="498.12" y2="237.44"/>
	<line fill="none" stroke="#231F20" stroke-width="0.75" stroke-miterlimit="10" x1="511.72" y1="225.76" x2="496.17" y2="230.22"/>
	<line fill="none" stroke="#231F20" stroke-width="0.75" stroke-miterlimit="10" x1="510.57" y1="221.91" x2="495.11" y2="226.64"/>
	<line fill="none" stroke="#231F20" stroke-width="0.75" stroke-miterlimit="10" x1="509.36" y1="218.07" x2="493.98" y2="223.07"/>
	<line fill="none" stroke="#231F20" stroke-width="0.75" stroke-miterlimit="10" x1="508.08" y1="214.26" x2="492.79" y2="219.53"/>
	<line fill="none" stroke="#231F20" stroke-width="0.75" stroke-miterlimit="10" x1="505.32" y1="206.71" x2="490.22" y2="212.5"/>
	<line fill="none" stroke="#231F20" stroke-width="0.75" stroke-miterlimit="10" x1="503.84" y1="202.97" x2="488.85" y2="209.03"/>
	<line fill="none" stroke="#231F20" stroke-width="0.75" stroke-miterlimit="10" x1="502.29" y1="199.25" x2="487.41" y2="205.58"/>
	<line fill="none" stroke="#231F20" stroke-width="0.75" stroke-miterlimit="10" x1="500.69" y1="195.57" x2="485.92" y2="202.15"/>
	<line fill="none" stroke="#231F20" stroke-width="0.75" stroke-miterlimit="10" x1="497.28" y1="188.29" x2="482.75" y2="195.38"/>
	<line fill="none" stroke="#231F20" stroke-width="0.75" stroke-miterlimit="10" x1="495.48" y1="184.68" x2="481.07" y2="192.04"/>
	<line fill="none" stroke="#231F20" stroke-width="0.75" stroke-miterlimit="10" x1="493.63" y1="181.13" x2="479.34" y2="188.73"/>
	<line fill="none" stroke="#231F20" stroke-width="0.75" stroke-miterlimit="10" x1="491.7" y1="177.59" x2="477.55" y2="185.44"/>
</g>
<g id="Layer_3">
	<g enable-background="new    ">
		<path fill="#231F20" d="M294.33,27.61c0,1.34-0.19,2.59-0.56,3.75c-0.21,0.71-0.53,1.3-0.91,1.75c-0.38,0.45-0.81,0.82-1.29,1.08
			c-0.48,0.27-1.01,0.4-1.57,0.4c-0.64,0-1.23-0.17-1.75-0.5s-0.98-0.8-1.39-1.41c-0.3-0.45-0.54-1.04-0.76-1.79
			c-0.29-1.01-0.43-2.05-0.43-3.13c0-1.46,0.19-2.8,0.61-4.02c0.34-1.01,0.85-1.78,1.52-2.32c0.69-0.54,1.41-0.81,2.18-0.81
			c0.78,0,1.51,0.27,2.18,0.8c0.68,0.53,1.17,1.25,1.49,2.14C294.11,24.8,294.33,26.15,294.33,27.61z M291.29,27.6
			c-0.01-2.35-0.01-3.72-0.04-4.11c-0.07-0.92-0.22-1.54-0.48-1.86c-0.17-0.21-0.43-0.32-0.8-0.32c-0.28,0-0.51,0.07-0.67,0.24
			c-0.24,0.23-0.41,0.64-0.49,1.22c-0.09,0.58-0.13,2.62-0.12,6.11c0,1.9,0.07,3.17,0.21,3.82c0.1,0.47,0.25,0.78,0.43,0.94
			c0.18,0.16,0.43,0.24,0.73,0.24c0.33-0.01,0.58-0.12,0.74-0.32c0.28-0.37,0.44-0.94,0.48-1.71L291.29,27.6z"/>
	</g>
	<g enable-background="new    ">
		<path fill="#231F20" d="M239.35,25.61l1.91,10.81c0.14,0.81,0.28,1.32,0.38,1.54c0.11,0.21,0.29,0.36,0.55,0.47
			c0.25,0.1,0.63,0.11,1.13,0.02l0.3-0.04l0.06,0.36L236.72,40l-0.06-0.36l0.35-0.06c0.57-0.1,0.96-0.23,1.17-0.41
			c0.22-0.17,0.35-0.38,0.39-0.62c0.04-0.24-0.01-0.78-0.16-1.61l-1.22-6.85c-0.11-0.61-0.2-0.99-0.29-1.13
			c-0.09-0.14-0.23-0.25-0.4-0.33c-0.18-0.08-0.37-0.1-0.58-0.06c-0.33,0.06-0.72,0.23-1.15,0.53l-0.24-0.33l4.46-3.09L239.35,25.61
			z"/>
		<path fill="#231F20" d="M253.29,30.23c0.23,1.32,0.27,2.58,0.1,3.79c-0.1,0.74-0.29,1.37-0.59,1.88
			c-0.31,0.51-0.66,0.94-1.08,1.29c-0.43,0.35-0.92,0.57-1.48,0.67c-0.64,0.11-1.24,0.05-1.81-0.18c-0.57-0.23-1.11-0.62-1.61-1.15
			c-0.36-0.39-0.72-0.93-1.06-1.63c-0.45-0.94-0.78-1.95-0.96-3c-0.25-1.44-0.28-2.79-0.09-4.06c0.16-1.05,0.53-1.9,1.11-2.55
			c0.58-0.65,1.25-1.04,2-1.17c0.77-0.15,1.53-0.01,2.29,0.41c0.76,0.42,1.37,1.02,1.84,1.85C252.59,27.5,253.04,28.8,253.29,30.23z
			 M250.29,30.74c-0.41-2.31-0.66-3.66-0.75-4.04c-0.22-0.89-0.49-1.47-0.79-1.75c-0.2-0.19-0.48-0.24-0.84-0.17
			c-0.28,0.05-0.49,0.17-0.62,0.35c-0.2,0.27-0.29,0.7-0.28,1.29c0.02,0.59,0.33,2.6,0.94,6.04c0.33,1.88,0.62,3.11,0.86,3.73
			c0.18,0.44,0.38,0.73,0.58,0.85c0.2,0.12,0.46,0.16,0.75,0.11c0.33-0.06,0.55-0.2,0.68-0.44c0.21-0.41,0.27-1,0.17-1.77
			L250.29,30.74z"/>
	</g>
	<g enable-background="new    ">
		<path fill="#231F20" d="M200.52,50.66l-7.42,2.71l-0.07-0.2c1.29-3.54,2.01-5.86,2.14-6.97c0.14-1.11,0.06-2.12-0.27-3.01
			c-0.24-0.65-0.64-1.12-1.19-1.4c-0.56-0.28-1.13-0.32-1.71-0.11c-0.95,0.35-1.52,1.1-1.7,2.24h-0.39c-0.1-1.32,0.09-2.38,0.56-3.2
			c0.47-0.83,1.16-1.4,2.05-1.71c0.64-0.23,1.28-0.3,1.91-0.19c0.63,0.11,1.2,0.36,1.68,0.77c0.49,0.41,0.81,0.84,0.98,1.29
			c0.3,0.82,0.38,1.74,0.23,2.76c-0.21,1.37-0.99,3.47-2.35,6.3l2.72-0.99c0.67-0.24,1.09-0.43,1.28-0.57
			c0.18-0.13,0.31-0.28,0.39-0.46c0.08-0.18,0.15-0.52,0.21-1.03l0.33-0.12L200.52,50.66z"/>
		<path fill="#231F20" d="M208.69,40.54c0.46,1.26,0.71,2.5,0.75,3.72c0.03,0.75-0.05,1.4-0.25,1.96c-0.2,0.56-0.48,1.04-0.84,1.47
			c-0.36,0.42-0.81,0.72-1.34,0.92c-0.61,0.22-1.21,0.27-1.82,0.13c-0.59-0.13-1.2-0.42-1.79-0.86c-0.43-0.32-0.87-0.8-1.33-1.42
			c-0.61-0.85-1.1-1.78-1.47-2.79c-0.5-1.37-0.76-2.7-0.8-3.98c-0.03-1.06,0.19-1.96,0.65-2.7c0.46-0.74,1.05-1.24,1.76-1.5
			c0.73-0.27,1.51-0.27,2.32,0c0.82,0.26,1.53,0.77,2.13,1.49C207.52,37.98,208.19,39.18,208.69,40.54z M205.82,41.58
			c-0.8-2.21-1.28-3.49-1.44-3.84c-0.38-0.84-0.75-1.37-1.08-1.59c-0.23-0.14-0.51-0.14-0.87-0.02c-0.27,0.1-0.45,0.25-0.55,0.45
			c-0.15,0.3-0.17,0.74-0.05,1.32s0.78,2.51,1.97,5.79c0.66,1.79,1.15,2.96,1.49,3.52c0.25,0.41,0.49,0.65,0.72,0.74
			c0.22,0.09,0.48,0.08,0.77-0.03c0.31-0.11,0.51-0.3,0.59-0.55c0.13-0.44,0.09-1.03-0.14-1.77L205.82,41.58z"/>
	</g>
	<g enable-background="new    ">
		<path fill="#231F20" d="M152.54,66.91l-0.17-0.3c0.54-0.56,0.89-1,1.04-1.31c0.16-0.31,0.23-0.68,0.22-1.12
			c-0.01-0.44-0.11-0.83-0.31-1.17c-0.27-0.47-0.68-0.78-1.22-0.92c-0.54-0.14-1.07-0.06-1.58,0.23c-0.8,0.46-1.23,1.29-1.31,2.45
			l-0.38,0.07c-0.14-1.19-0.03-2.21,0.34-3.06c0.37-0.85,0.93-1.5,1.73-1.96c0.81-0.46,1.6-0.6,2.42-0.42
			c0.81,0.19,1.4,0.61,1.78,1.27c0.25,0.43,0.36,0.91,0.35,1.45c-0.01,0.54-0.19,1.11-0.54,1.71c0.86-0.06,1.6,0.05,2.22,0.32
			c0.63,0.27,1.15,0.77,1.56,1.49c0.7,1.21,0.85,2.49,0.47,3.85c-0.39,1.35-1.32,2.46-2.79,3.31c-0.98,0.56-1.79,0.82-2.43,0.75
			c-0.46-0.04-0.79-0.24-1-0.6c-0.15-0.26-0.19-0.54-0.11-0.84c0.08-0.29,0.25-0.51,0.49-0.65c0.19-0.11,0.39-0.17,0.6-0.18
			c0.12-0.01,0.59,0.06,1.41,0.19c0.82,0.13,1.47,0.06,1.96-0.22c0.42-0.24,0.69-0.62,0.8-1.13c0.11-0.51,0.02-1.02-0.28-1.53
			c-0.45-0.78-1.14-1.34-2.07-1.69C154.81,66.54,153.74,66.55,152.54,66.91z"/>
		<path fill="#231F20" d="M166.85,58.66c0.67,1.16,1.13,2.34,1.39,3.53c0.16,0.73,0.19,1.39,0.09,1.97
			c-0.1,0.58-0.29,1.12-0.58,1.58c-0.28,0.47-0.67,0.85-1.16,1.13c-0.56,0.33-1.15,0.47-1.76,0.45c-0.62-0.02-1.25-0.2-1.91-0.53
			c-0.47-0.24-0.99-0.63-1.55-1.17c-0.76-0.73-1.39-1.56-1.93-2.49c-0.73-1.26-1.22-2.52-1.48-3.79c-0.21-1.04-0.16-1.98,0.17-2.78
			c0.33-0.81,0.82-1.4,1.48-1.79c0.67-0.39,1.44-0.52,2.29-0.4c0.85,0.12,1.64,0.48,2.36,1.11
			C165.25,56.32,166.13,57.39,166.85,58.66z M164.2,60.17c-1.17-2.03-1.87-3.2-2.09-3.54c-0.52-0.76-0.96-1.22-1.35-1.37
			c-0.25-0.1-0.53-0.06-0.85,0.13c-0.25,0.15-0.4,0.32-0.46,0.54c-0.1,0.32-0.04,0.76,0.18,1.32c0.23,0.55,1.21,2.33,2.94,5.36
			c0.95,1.65,1.65,2.71,2.08,3.21c0.32,0.36,0.6,0.56,0.84,0.6c0.24,0.03,0.49-0.01,0.75-0.16c0.29-0.17,0.45-0.38,0.49-0.64
			c0.06-0.46-0.09-1.03-0.44-1.72L164.2,60.17z"/>
	</g>
	<g enable-background="new    ">
		<path fill="#231F20" d="M114.97,96.93l-0.68-10.71l0.93-0.78l5.56,6.62l0.94-0.79l1.32,1.57l-0.94,0.79l1.93,2.3l-2.08,1.76
			l-1.93-2.3l-3.72,3.12L114.97,96.93z M115.72,96.31l2.99-2.51l-3.41-4.06L115.72,96.31z"/>
		<path fill="#231F20" d="M128.48,83.44c0.86,1.03,1.52,2.1,1.98,3.23c0.29,0.69,0.43,1.33,0.43,1.92s-0.1,1.15-0.29,1.66
			c-0.2,0.51-0.51,0.95-0.95,1.32c-0.5,0.42-1.05,0.66-1.66,0.75c-0.61,0.09-1.27,0.02-1.97-0.19c-0.51-0.16-1.09-0.44-1.73-0.88
			c-0.87-0.59-1.64-1.3-2.35-2.12c-0.94-1.12-1.65-2.27-2.11-3.47c-0.39-0.99-0.5-1.91-0.32-2.76c0.18-0.85,0.56-1.53,1.15-2.03
			c0.6-0.5,1.32-0.76,2.17-0.79c0.86-0.03,1.7,0.2,2.52,0.68C126.5,81.43,127.54,82.31,128.48,83.44z M126.13,85.37
			c-1.51-1.8-2.4-2.84-2.67-3.12c-0.64-0.66-1.16-1.03-1.56-1.12c-0.26-0.05-0.53,0.04-0.82,0.26c-0.22,0.18-0.34,0.39-0.36,0.61
			c-0.04,0.33,0.1,0.75,0.41,1.25c0.31,0.5,1.59,2.09,3.83,4.76c1.22,1.45,2.09,2.38,2.61,2.8c0.38,0.3,0.69,0.44,0.93,0.45
			c0.24,0.01,0.48-0.09,0.71-0.29c0.25-0.21,0.37-0.46,0.37-0.72c-0.02-0.46-0.27-1-0.74-1.62L126.13,85.37z"/>
	</g>
	<g enable-background="new    ">
		<path fill="#231F20" d="M79.47,123.15l4.03-4.81l1.31,2.41l-3.4,4.05l0.7,1.25c1.53-1.69,3.09-2.66,4.68-2.93
			c1.3-0.22,2.46,0.09,3.45,0.91c0.63,0.53,1.1,1.23,1.4,2.09c0.3,0.86,0.35,1.76,0.12,2.69c-0.21,0.93-0.66,1.78-1.31,2.56
			c-0.7,0.84-1.4,1.35-2.09,1.54c-0.49,0.13-0.87,0.07-1.15-0.17c-0.22-0.18-0.34-0.43-0.38-0.73c-0.04-0.3,0.05-0.56,0.23-0.78
			c0.17-0.2,0.37-0.36,0.62-0.5c0.25-0.13,0.75-0.3,1.51-0.5c0.47-0.13,0.84-0.27,1.11-0.43c0.19-0.11,0.37-0.26,0.54-0.46
			c0.35-0.41,0.49-0.89,0.43-1.44c-0.06-0.54-0.3-1-0.73-1.35c-0.89-0.74-1.98-0.91-3.29-0.48c-1.31,0.42-2.52,1.32-3.66,2.67
			c-0.11,0.15-0.27,0.34-0.51,0.62L79.47,123.15z"/>
		<path fill="#231F20" d="M95.18,114.85c1.03,0.86,1.86,1.81,2.51,2.83c0.4,0.63,0.66,1.24,0.76,1.82c0.12,0.58,0.11,1.15,0,1.68
			c-0.1,0.54-0.34,1.03-0.69,1.46c-0.42,0.5-0.92,0.84-1.51,1.02c-0.59,0.18-1.25,0.24-1.97,0.15c-0.53-0.08-1.15-0.26-1.86-0.56
			c-0.96-0.43-1.84-0.99-2.67-1.68c-1.12-0.94-2.01-1.95-2.68-3.05c-0.56-0.91-0.82-1.79-0.79-2.67c0.03-0.87,0.29-1.6,0.78-2.19
			c0.5-0.6,1.17-0.98,2.01-1.16c0.84-0.19,1.71-0.1,2.6,0.24C92.87,113.22,94.06,113.92,95.18,114.85z M93.19,117.17
			c-1.8-1.51-2.85-2.38-3.17-2.6c-0.74-0.54-1.32-0.82-1.73-0.83c-0.27-0.01-0.52,0.13-0.76,0.4c-0.18,0.22-0.26,0.44-0.25,0.67
			c0.02,0.33,0.23,0.72,0.62,1.15c0.39,0.44,1.92,1.78,4.6,4.03c1.45,1.22,2.48,1.99,3.05,2.3c0.42,0.23,0.75,0.32,0.99,0.28
			c0.24-0.04,0.46-0.18,0.65-0.41c0.21-0.25,0.29-0.52,0.23-0.77c-0.1-0.45-0.44-0.94-1.01-1.46L93.19,117.17z"/>
	</g>
	<g enable-background="new    ">
		<path fill="#231F20" d="M56.87,156.46l0.24,0.14c-0.33,1.19-0.48,2.21-0.42,3.08c0.05,0.86,0.27,1.65,0.65,2.35
			c0.38,0.7,0.95,1.41,1.71,2.11c-0.03-0.35-0.02-0.62,0.03-0.83c0.1-0.44,0.25-0.84,0.47-1.22c0.5-0.87,1.24-1.41,2.2-1.63
			c0.96-0.22,1.99-0.01,3.08,0.62c0.77,0.44,1.39,1,1.84,1.69c0.46,0.68,0.69,1.42,0.71,2.19c0.02,0.78-0.17,1.5-0.55,2.15
			c-0.41,0.71-0.99,1.27-1.73,1.65c-0.74,0.38-1.59,0.53-2.54,0.43s-1.87-0.4-2.75-0.91c-1.3-0.75-2.33-1.76-3.09-3.04
			c-0.76-1.27-1.14-2.68-1.14-4.21C55.59,159.51,56.01,157.98,56.87,156.46z M59.69,164.66c0.76,0.5,1.33,0.86,1.69,1.07
			c0.79,0.45,1.59,0.81,2.42,1.09c0.82,0.26,1.46,0.37,1.91,0.27c0.32-0.07,0.55-0.23,0.7-0.49c0.15-0.26,0.13-0.59-0.05-0.97
			c-0.19-0.37-0.75-0.84-1.69-1.38c-1.58-0.91-2.78-1.35-3.6-1.31c-0.53,0.02-0.92,0.24-1.16,0.66
			C59.78,163.83,59.71,164.19,59.69,164.66z"/>
		<path fill="#231F20" d="M67.91,151.29c1.16,0.67,2.15,1.46,2.96,2.35c0.5,0.55,0.86,1.09,1.06,1.66c0.19,0.56,0.3,1.11,0.29,1.66
			c-0.01,0.55-0.16,1.07-0.44,1.56c-0.32,0.57-0.76,0.98-1.3,1.27c-0.55,0.29-1.19,0.46-1.92,0.5c-0.53,0.03-1.18-0.05-1.93-0.24
			c-1.02-0.26-1.99-0.67-2.93-1.19c-1.26-0.73-2.32-1.58-3.17-2.53c-0.71-0.8-1.12-1.63-1.24-2.49c-0.12-0.87,0-1.63,0.39-2.29
			c0.38-0.67,0.98-1.16,1.78-1.49c0.8-0.32,1.67-0.39,2.6-0.22C65.38,150.08,66.65,150.55,67.91,151.29z M66.37,153.92
			c-2.03-1.17-3.23-1.85-3.58-2.02c-0.83-0.4-1.44-0.57-1.85-0.52c-0.27,0.04-0.48,0.22-0.67,0.54c-0.14,0.26-0.19,0.48-0.13,0.7
			c0.08,0.34,0.36,0.67,0.81,1.04c0.46,0.37,2.21,1.41,5.24,3.17c1.65,0.95,2.77,1.53,3.41,1.74c0.46,0.15,0.8,0.19,1.03,0.1
			c0.23-0.08,0.42-0.25,0.56-0.52c0.17-0.29,0.2-0.55,0.1-0.8c-0.18-0.41-0.6-0.85-1.26-1.27L66.37,153.92z"/>
	</g>
	<g enable-background="new    ">
		<path fill="#231F20" d="M48.27,209.44l-9.17-7.21l-0.95,2.62c-0.37,1.02-0.52,1.84-0.44,2.45c0.06,0.43,0.31,0.85,0.73,1.26
			l-0.13,0.35l-3.58-2.34l2.73-7.51l11.34,8.9L48.27,209.44z"/>
		<path fill="#231F20" d="M47.14,192.09c1.26,0.46,2.37,1.06,3.33,1.81c0.6,0.45,1.04,0.94,1.35,1.45c0.3,0.51,0.49,1.03,0.58,1.58
			c0.09,0.54,0.03,1.08-0.16,1.62c-0.22,0.61-0.58,1.1-1.06,1.48c-0.49,0.37-1.09,0.65-1.8,0.82c-0.52,0.12-1.17,0.15-1.94,0.1
			c-1.04-0.08-2.06-0.3-3.08-0.67c-1.37-0.5-2.56-1.15-3.56-1.95c-0.83-0.66-1.38-1.41-1.67-2.23c-0.27-0.83-0.28-1.61-0.02-2.32
			c0.27-0.73,0.76-1.32,1.49-1.78s1.57-0.68,2.52-0.67C44.42,191.34,45.76,191.58,47.14,192.09z M46.09,194.94
			c-2.21-0.8-3.5-1.26-3.87-1.37c-0.88-0.25-1.52-0.31-1.91-0.19c-0.25,0.08-0.44,0.3-0.57,0.64c-0.1,0.27-0.1,0.5-0.01,0.71
			c0.13,0.31,0.46,0.6,0.98,0.88c0.52,0.28,2.42,1.01,5.7,2.21c1.8,0.65,3,1.02,3.66,1.12c0.47,0.07,0.82,0.04,1.03-0.08
			s0.37-0.32,0.47-0.61c0.11-0.31,0.1-0.58-0.04-0.81c-0.25-0.39-0.74-0.73-1.45-1.03L46.09,194.94z"/>
	</g>
	<g enable-background="new    ">
		<path fill="#231F20" d="M31.01,248.07c0.85-0.81,1.59-1.35,2.25-1.6c0.65-0.26,1.36-0.32,2.12-0.19c1.07,0.19,1.9,0.75,2.49,1.68
			c0.59,0.93,0.77,2.09,0.53,3.46c-0.23,1.31-0.73,2.26-1.5,2.86s-1.62,0.82-2.55,0.66c-0.71-0.13-1.29-0.44-1.75-0.95
			c-0.46-0.51-0.83-1.28-1.1-2.32c-0.98,0.91-1.75,1.46-2.31,1.67s-1.17,0.25-1.84,0.13c-0.88-0.16-1.6-0.67-2.14-1.54
			c-0.54-0.87-0.7-1.96-0.47-3.26c0.22-1.26,0.69-2.18,1.4-2.75s1.49-0.79,2.32-0.65c0.62,0.1,1.14,0.39,1.55,0.84
			C30.42,246.56,30.76,247.23,31.01,248.07z M30.38,248.72c-0.28-0.3-0.62-0.54-1-0.73c-0.37-0.19-0.81-0.32-1.29-0.41
			c-0.84-0.15-1.52-0.08-2.04,0.2c-0.39,0.21-0.63,0.56-0.72,1.04c-0.08,0.44,0.02,0.83,0.28,1.19c0.25,0.36,0.63,0.58,1.09,0.67
			c0.47,0.07,1,0,1.57-0.25C28.83,250.18,29.54,249.61,30.38,248.72z M32.08,251.03c0.14,0.23,0.29,0.41,0.42,0.52
			c0.21,0.17,0.52,0.34,0.93,0.53c0.42,0.19,0.86,0.31,1.34,0.4c0.61,0.11,1.14,0.12,1.58,0.03c0.44-0.08,0.78-0.25,1.01-0.51
			c0.23-0.26,0.38-0.54,0.43-0.84c0.08-0.47-0.02-0.9-0.31-1.29c-0.29-0.39-0.75-0.63-1.34-0.74
			C34.88,248.9,33.53,249.54,32.08,251.03z"/>
		<path fill="#231F20" d="M34.05,235.79c1.32,0.23,2.52,0.62,3.59,1.2c0.66,0.34,1.19,0.74,1.57,1.2s0.66,0.94,0.84,1.45
			c0.18,0.52,0.22,1.06,0.12,1.62c-0.1,0.64-0.38,1.18-0.78,1.64c-0.41,0.45-0.96,0.83-1.63,1.12c-0.49,0.21-1.12,0.34-1.9,0.44
			c-1.04,0.1-2.09,0.06-3.15-0.12c-1.44-0.25-2.72-0.69-3.86-1.29c-0.94-0.51-1.61-1.13-2.02-1.9s-0.55-1.53-0.42-2.29
			c0.14-0.77,0.52-1.44,1.16-2.01c0.64-0.57,1.43-0.94,2.37-1.09C31.24,235.53,32.59,235.54,34.05,235.79z M33.5,238.79
			c-2.31-0.41-3.66-0.62-4.04-0.67c-0.92-0.09-1.55-0.05-1.91,0.15c-0.24,0.13-0.39,0.37-0.45,0.73c-0.05,0.28,0,0.51,0.12,0.7
			c0.18,0.28,0.56,0.51,1.12,0.7c0.56,0.19,2.56,0.58,6,1.19c1.87,0.33,3.13,0.49,3.79,0.47c0.48-0.02,0.81-0.1,1-0.27
			c0.19-0.15,0.31-0.38,0.36-0.68c0.06-0.33,0-0.59-0.18-0.79c-0.31-0.34-0.85-0.59-1.61-0.76L33.5,238.79z"/>
	</g>
	<g enable-background="new    ">
		<path fill="#231F20" d="M35.39,300.07h-0.28c-0.25-1.1-0.62-2.02-1.11-2.79c-0.49-0.77-1.09-1.37-1.81-1.81
			c-0.72-0.44-1.55-0.76-2.48-0.94c0.21,0.41,0.36,0.76,0.44,1.04c0.08,0.29,0.12,0.59,0.12,0.91c0,1.02-0.37,1.86-1.1,2.54
			c-0.73,0.69-1.73,1.01-3.01,1.01c-0.88,0-1.69-0.18-2.43-0.55c-0.74-0.37-1.31-0.88-1.71-1.56s-0.61-1.39-0.61-2.12
			c0-0.78,0.21-1.53,0.66-2.23c0.45-0.7,1.1-1.26,1.95-1.67c0.85-0.42,1.82-0.62,2.91-0.62c1.41,0,2.76,0.34,4.06,1.01
			c1.29,0.68,2.33,1.68,3.12,3.02C34.9,296.66,35.32,298.25,35.39,300.07z M28.88,294.39c-0.74-0.07-1.39-0.1-1.95-0.1
			c-1.2,0-2.32,0.14-3.35,0.42c-0.57,0.15-1,0.39-1.27,0.7c-0.15,0.16-0.22,0.38-0.22,0.64c0,0.34,0.14,0.59,0.42,0.77
			c0.39,0.26,1.12,0.39,2.23,0.39c1.82,0,3.09-0.23,3.78-0.66c0.45-0.28,0.67-0.68,0.67-1.15
			C29.18,295.16,29.09,294.82,28.88,294.39z"/>
		<path fill="#231F20" d="M28.38,281.18c1.34,0,2.59,0.19,3.75,0.56c0.71,0.21,1.3,0.53,1.75,0.91c0.46,0.38,0.82,0.81,1.08,1.29
			c0.27,0.48,0.4,1.02,0.4,1.57c0,0.65-0.17,1.23-0.5,1.75c-0.33,0.52-0.8,0.98-1.41,1.39c-0.44,0.29-1.04,0.54-1.79,0.76
			c-1,0.28-2.05,0.43-3.13,0.44c-1.46,0-2.8-0.21-4.02-0.61c-1.01-0.34-1.78-0.85-2.32-1.52c-0.54-0.69-0.81-1.41-0.81-2.18
			c0-0.78,0.27-1.51,0.8-2.18c0.53-0.68,1.25-1.17,2.14-1.49C25.58,281.4,26.93,281.18,28.38,281.18z M28.37,284.22
			c-2.35,0.01-3.72,0.01-4.11,0.04c-0.92,0.07-1.54,0.22-1.86,0.48c-0.21,0.17-0.32,0.43-0.32,0.8c0,0.28,0.08,0.51,0.24,0.67
			c0.23,0.24,0.64,0.41,1.22,0.49c0.58,0.09,2.62,0.12,6.11,0.12c1.9,0,3.17-0.07,3.82-0.21c0.47-0.1,0.78-0.24,0.94-0.43
			c0.16-0.18,0.24-0.43,0.24-0.73c-0.01-0.33-0.11-0.58-0.32-0.74c-0.37-0.28-0.94-0.44-1.71-0.48L28.37,284.22z"/>
	</g>
	<g enable-background="new    ">
		<path fill="#231F20" d="M32.41,339.26c0.51-1.05,1.03-1.81,1.56-2.28c0.53-0.47,1.17-0.76,1.93-0.9c1.07-0.19,2.04,0.05,2.92,0.72
			c0.88,0.67,1.44,1.7,1.68,3.07c0.23,1.31,0.09,2.38-0.43,3.2c-0.52,0.83-1.24,1.32-2.16,1.49c-0.71,0.13-1.36,0.03-1.97-0.29
			c-0.61-0.32-1.21-0.92-1.83-1.79c-0.62,1.19-1.15,1.97-1.59,2.36c-0.45,0.38-1.02,0.63-1.68,0.75c-0.88,0.16-1.73-0.08-2.53-0.71
			s-1.33-1.6-1.55-2.91c-0.22-1.26-0.11-2.28,0.38-3.07c0.48-0.79,1.13-1.25,1.96-1.4c0.62-0.11,1.21-0.02,1.75,0.26
			C31.36,338.05,31.89,338.56,32.41,339.26z M32.03,340.09c-0.37-0.18-0.76-0.3-1.19-0.34c-0.42-0.04-0.88-0.03-1.36,0.06
			c-0.84,0.15-1.46,0.45-1.84,0.89c-0.29,0.33-0.4,0.74-0.32,1.22c0.08,0.44,0.3,0.78,0.68,1.03c0.37,0.25,0.79,0.33,1.26,0.25
			c0.47-0.08,0.93-0.34,1.39-0.77C31.1,341.99,31.56,341.21,32.03,340.09z M34.44,341.68c0.23,0.17,0.41,0.29,0.57,0.34
			c0.25,0.09,0.6,0.15,1.06,0.18c0.45,0.03,0.92,0,1.39-0.07c0.61-0.11,1.11-0.28,1.49-0.5c0.38-0.23,0.64-0.5,0.77-0.83
			c0.13-0.32,0.17-0.63,0.12-0.93c-0.08-0.48-0.33-0.84-0.73-1.11c-0.4-0.26-0.91-0.34-1.51-0.24
			C36.33,338.71,35.28,339.77,34.44,341.68z"/>
		<path fill="#231F20" d="M31.06,326.69c1.32-0.23,2.57-0.26,3.79-0.1c0.74,0.1,1.37,0.29,1.88,0.59c0.51,0.3,0.94,0.66,1.29,1.08
			c0.35,0.43,0.57,0.92,0.67,1.48c0.11,0.64,0.05,1.24-0.18,1.81c-0.23,0.57-0.62,1.11-1.15,1.61c-0.39,0.36-0.93,0.72-1.63,1.06
			c-0.94,0.45-1.95,0.78-3,0.96c-1.44,0.25-2.79,0.29-4.06,0.09c-1.05-0.16-1.9-0.53-2.55-1.11s-1.04-1.25-1.17-2
			c-0.14-0.77-0.01-1.53,0.41-2.29c0.41-0.75,1.02-1.37,1.85-1.84C28.33,327.39,29.62,326.95,31.06,326.69z M31.57,329.69
			c-2.31,0.41-3.66,0.66-4.04,0.75c-0.89,0.22-1.47,0.49-1.75,0.79c-0.19,0.2-0.24,0.48-0.17,0.84c0.05,0.28,0.17,0.49,0.35,0.62
			c0.27,0.2,0.7,0.29,1.29,0.28c0.59-0.02,2.6-0.34,6.04-0.94c1.88-0.33,3.11-0.62,3.73-0.86c0.44-0.18,0.73-0.38,0.85-0.58
			c0.12-0.21,0.16-0.46,0.11-0.75c-0.06-0.33-0.2-0.55-0.44-0.68c-0.41-0.21-1-0.27-1.77-0.17L31.57,329.69z"/>
	</g>
	<g enable-background="new    ">
		<path fill="#231F20" d="M53.4,383.78l-11.65,0.36l0.95,2.61c0.37,1.02,0.8,1.74,1.25,2.16c0.32,0.29,0.78,0.46,1.38,0.51
			l0.13,0.35l-4.25,0.51l-2.73-7.51l14.41-0.46L53.4,383.78z"/>
		<path fill="#231F20" d="M41.38,371.21c1.26-0.46,2.5-0.71,3.72-0.75c0.75-0.03,1.4,0.05,1.96,0.25c0.55,0.2,1.04,0.47,1.46,0.84
			c0.42,0.36,0.72,0.81,0.92,1.34c0.23,0.61,0.27,1.21,0.13,1.82c-0.13,0.59-0.42,1.2-0.86,1.79c-0.32,0.43-0.8,0.87-1.42,1.33
			c-0.85,0.61-1.78,1.1-2.79,1.47c-1.37,0.5-2.7,0.76-3.98,0.8c-1.06,0.03-1.96-0.19-2.7-0.65c-0.74-0.46-1.24-1.05-1.5-1.77
			c-0.27-0.73-0.27-1.51,0-2.32c0.27-0.81,0.77-1.53,1.49-2.13C38.81,372.38,40,371.71,41.38,371.21z M42.4,374.08
			c-2.21,0.8-3.48,1.28-3.84,1.45c-0.84,0.38-1.37,0.75-1.59,1.08c-0.14,0.23-0.14,0.51-0.02,0.87c0.1,0.27,0.25,0.45,0.45,0.55
			c0.3,0.15,0.75,0.17,1.32,0.05c0.58-0.12,2.51-0.78,5.79-1.97c1.79-0.65,2.96-1.15,3.52-1.49c0.41-0.25,0.65-0.49,0.74-0.72
			c0.09-0.22,0.08-0.48-0.03-0.77c-0.11-0.31-0.3-0.51-0.55-0.59c-0.44-0.13-1.03-0.08-1.77,0.14L42.4,374.08z"/>
	</g>
	<g enable-background="new    ">
		<path fill="#231F20" d="M58.43,425.31l0.24-0.14c0.86,0.88,1.69,1.52,2.45,1.9c0.77,0.39,1.56,0.59,2.36,0.61
			c0.8,0.02,1.7-0.12,2.69-0.42c-0.32-0.15-0.55-0.29-0.7-0.43c-0.33-0.31-0.6-0.64-0.82-1.02c-0.5-0.87-0.6-1.76-0.31-2.72
			c0.28-0.95,0.99-1.73,2.08-2.36c0.77-0.45,1.56-0.69,2.38-0.75c0.83-0.05,1.57,0.11,2.25,0.48c0.68,0.38,1.21,0.89,1.59,1.55
			c0.41,0.71,0.6,1.49,0.57,2.32c-0.04,0.83-0.34,1.64-0.9,2.41c-0.56,0.79-1.28,1.42-2.16,1.93c-1.3,0.75-2.69,1.14-4.18,1.16
			c-1.48,0.02-2.89-0.35-4.22-1.12C60.41,427.93,59.33,426.81,58.43,425.31z M66.94,426.97c0.81-0.41,1.4-0.71,1.77-0.93
			c0.79-0.46,1.51-0.97,2.16-1.55c0.66-0.58,1.05-1.08,1.19-1.52c0.1-0.31,0.08-0.6-0.07-0.85c-0.15-0.26-0.45-0.41-0.86-0.44
			c-0.42-0.03-1.1,0.23-2.04,0.77c-1.58,0.91-2.55,1.73-2.93,2.47c-0.25,0.47-0.25,0.91-0.01,1.33
			C66.28,426.46,66.55,426.71,66.94,426.97z"/>
		<path fill="#231F20" d="M59.48,413.15c1.16-0.67,2.34-1.13,3.53-1.39c0.73-0.15,1.39-0.19,1.97-0.09s1.11,0.29,1.58,0.58
			c0.47,0.28,0.85,0.67,1.13,1.16c0.32,0.55,0.47,1.15,0.45,1.76c-0.02,0.62-0.2,1.25-0.53,1.91c-0.24,0.47-0.63,0.99-1.17,1.55
			c-0.73,0.76-1.56,1.4-2.49,1.93c-1.27,0.73-2.52,1.22-3.79,1.48c-1.04,0.21-1.97,0.16-2.78-0.17c-0.8-0.33-1.4-0.82-1.79-1.48
			c-0.39-0.67-0.52-1.44-0.4-2.29c0.12-0.85,0.48-1.64,1.11-2.36C57.16,414.75,58.21,413.88,59.48,413.15z M60.99,415.8
			c-2.03,1.17-3.2,1.87-3.54,2.09c-0.76,0.52-1.22,0.96-1.37,1.35c-0.1,0.25-0.06,0.53,0.13,0.85c0.15,0.25,0.32,0.4,0.54,0.46
			c0.33,0.1,0.76,0.04,1.31-0.18c0.55-0.23,2.33-1.21,5.36-2.94c1.65-0.95,2.71-1.65,3.21-2.08c0.36-0.32,0.56-0.6,0.6-0.84
			s-0.01-0.49-0.16-0.75c-0.17-0.29-0.39-0.45-0.65-0.48c-0.46-0.06-1.03,0.09-1.72,0.44L60.99,415.8z"/>
	</g>
	<g enable-background="new    ">
		<path fill="#231F20" d="M89.68,468.33l-4.05-4.81l2.6-0.88l3.4,4.05l1.35-0.47c-1.4-1.8-2.09-3.5-2.08-5.12
			c0-1.33,0.51-2.41,1.5-3.23c0.63-0.53,1.4-0.87,2.3-1.02c0.91-0.15,1.79-0.03,2.67,0.34c0.87,0.38,1.64,0.96,2.29,1.73
			c0.71,0.84,1.09,1.62,1.15,2.33c0.04,0.49-0.08,0.86-0.36,1.11c-0.22,0.18-0.47,0.26-0.77,0.24c-0.3-0.02-0.55-0.15-0.73-0.36
			c-0.17-0.2-0.29-0.43-0.38-0.69c-0.09-0.27-0.17-0.79-0.24-1.57c-0.05-0.49-0.12-0.88-0.23-1.16c-0.08-0.21-0.19-0.41-0.35-0.61
			c-0.35-0.41-0.79-0.64-1.34-0.67c-0.55-0.04-1.03,0.12-1.45,0.48c-0.89,0.76-1.24,1.8-1.05,3.14c0.19,1.35,0.85,2.71,2,4.06
			c0.12,0.14,0.29,0.34,0.52,0.61L89.68,468.33z"/>
		<path fill="#231F20" d="M84.26,451.43c1.03-0.86,2.1-1.52,3.23-1.98c0.69-0.29,1.33-0.43,1.92-0.43s1.15,0.1,1.66,0.29
			c0.51,0.2,0.95,0.51,1.32,0.95c0.42,0.5,0.66,1.05,0.75,1.66s0.02,1.27-0.19,1.97c-0.16,0.51-0.44,1.09-0.88,1.73
			c-0.59,0.87-1.3,1.64-2.12,2.34c-1.12,0.94-2.27,1.65-3.47,2.11c-0.99,0.39-1.91,0.5-2.76,0.32c-0.85-0.18-1.52-0.55-2.03-1.15
			c-0.5-0.6-0.76-1.32-0.79-2.17c-0.03-0.86,0.2-1.7,0.68-2.52C82.25,453.42,83.14,452.37,84.26,451.43z M86.2,453.77
			c-1.79,1.51-2.84,2.4-3.12,2.67c-0.66,0.64-1.03,1.16-1.12,1.56c-0.05,0.26,0.04,0.53,0.26,0.82c0.18,0.22,0.39,0.34,0.61,0.36
			c0.33,0.04,0.75-0.1,1.25-0.41c0.5-0.31,2.09-1.58,4.76-3.83c1.46-1.22,2.38-2.09,2.8-2.61c0.3-0.38,0.44-0.69,0.45-0.93
			c0-0.23-0.09-0.48-0.29-0.71c-0.21-0.25-0.45-0.36-0.72-0.37c-0.46,0.02-1,0.27-1.62,0.74L86.2,453.77z"/>
	</g>
	<g enable-background="new    ">
		<path fill="#231F20" d="M131.32,495.69l-10.43,2.52l-0.92-0.77l5.54-6.62l-0.94-0.79l1.32-1.57l0.94,0.79l1.93-2.3l2.08,1.74
			l-1.93,2.3l3.73,3.11L131.32,495.69z M130.59,495.06l-3-2.51l-3.39,4.06L130.59,495.06z"/>
		<path fill="#231F20" d="M115.68,484.74c0.86-1.03,1.81-1.87,2.83-2.51c0.63-0.4,1.24-0.66,1.82-0.76c0.59-0.11,1.15-0.11,1.69,0
			c0.54,0.1,1.03,0.34,1.47,0.7c0.5,0.42,0.84,0.92,1.02,1.51c0.18,0.59,0.24,1.25,0.15,1.97c-0.07,0.52-0.26,1.15-0.56,1.86
			c-0.43,0.96-0.99,1.84-1.68,2.67c-0.94,1.12-1.94,2.01-3.05,2.68c-0.91,0.56-1.79,0.82-2.67,0.79c-0.87-0.03-1.6-0.29-2.19-0.78
			c-0.6-0.5-0.98-1.17-1.16-2.01c-0.18-0.84-0.1-1.71,0.24-2.6C114.04,487.04,114.74,485.86,115.68,484.74z M118,486.71
			c-1.51,1.8-2.38,2.85-2.6,3.17c-0.54,0.74-0.82,1.32-0.83,1.72c-0.01,0.27,0.12,0.52,0.41,0.76c0.22,0.18,0.44,0.26,0.67,0.25
			c0.33-0.01,0.72-0.23,1.15-0.62c0.43-0.39,1.78-1.92,4.03-4.6c1.22-1.45,1.99-2.48,2.3-3.05c0.23-0.42,0.32-0.75,0.28-0.99
			c-0.04-0.25-0.18-0.46-0.41-0.65c-0.25-0.21-0.52-0.29-0.77-0.23c-0.45,0.1-0.94,0.44-1.46,1.01L118,486.71z"/>
	</g>
	<g enable-background="new    ">
		<path fill="#231F20" d="M166.42,520.35l-0.17,0.31c-0.75-0.19-1.31-0.27-1.66-0.25c-0.35,0.02-0.71,0.14-1.08,0.37
			c-0.38,0.23-0.66,0.51-0.85,0.86c-0.27,0.47-0.33,0.98-0.19,1.52c0.15,0.54,0.48,0.96,1,1.25c0.8,0.46,1.72,0.42,2.76-0.09
			l0.25,0.29c-0.96,0.72-1.9,1.13-2.82,1.25c-0.92,0.11-1.77-0.06-2.56-0.52c-0.81-0.46-1.33-1.09-1.57-1.89
			c-0.24-0.8-0.17-1.52,0.21-2.18c0.25-0.43,0.61-0.77,1.08-1.03c0.47-0.26,1.06-0.39,1.75-0.39c-0.48-0.71-0.76-1.41-0.83-2.08
			c-0.08-0.68,0.09-1.38,0.51-2.1c0.7-1.21,1.73-1.99,3.1-2.33s2.79-0.1,4.26,0.76c0.97,0.57,1.6,1.15,1.87,1.73
			c0.2,0.42,0.19,0.81-0.02,1.17c-0.15,0.26-0.38,0.43-0.66,0.51c-0.3,0.08-0.57,0.04-0.81-0.1c-0.19-0.11-0.34-0.25-0.46-0.43
			c-0.06-0.1-0.24-0.54-0.54-1.31c-0.29-0.78-0.68-1.3-1.17-1.58c-0.42-0.25-0.88-0.29-1.38-0.13s-0.89,0.5-1.19,1.01
			c-0.45,0.78-0.59,1.66-0.43,2.64C164.98,518.58,165.52,519.49,166.42,520.35z"/>
		<path fill="#231F20" d="M152.12,512.09c0.67-1.16,1.46-2.15,2.35-2.96c0.55-0.5,1.09-0.86,1.66-1.06c0.56-0.19,1.11-0.3,1.66-0.29
			c0.55,0.01,1.07,0.15,1.56,0.44c0.57,0.32,0.98,0.76,1.27,1.3c0.29,0.55,0.45,1.2,0.49,1.93c0.03,0.53-0.05,1.18-0.24,1.93
			c-0.26,1.01-0.66,1.99-1.19,2.92c-0.73,1.26-1.58,2.32-2.53,3.17c-0.8,0.71-1.63,1.13-2.49,1.24c-0.87,0.12-1.63,0-2.29-0.39
			c-0.67-0.38-1.17-0.98-1.49-1.78c-0.32-0.8-0.39-1.67-0.22-2.6C150.9,514.64,151.39,513.35,152.12,512.09z M154.75,513.62
			c-1.17,2.03-1.85,3.23-2.02,3.58c-0.4,0.83-0.57,1.44-0.52,1.85c0.04,0.27,0.22,0.48,0.54,0.67c0.25,0.14,0.48,0.2,0.7,0.13
			c0.34-0.08,0.67-0.35,1.04-0.81c0.37-0.46,1.41-2.21,3.17-5.24c0.95-1.66,1.53-2.78,1.74-3.41c0.15-0.46,0.18-0.8,0.1-1.03
			c-0.08-0.23-0.25-0.42-0.52-0.56c-0.29-0.17-0.55-0.2-0.8-0.1c-0.41,0.18-0.86,0.6-1.26,1.25L154.75,513.62z"/>
	</g>
	<g enable-background="new    ">
		<path fill="#231F20" d="M205.66,530.25l7.42,2.69l-0.07,0.21c-3.26,1.88-5.3,3.2-6.13,3.97c-0.83,0.76-1.4,1.58-1.73,2.48
			c-0.24,0.65-0.23,1.26,0.01,1.84c0.26,0.58,0.66,0.97,1.24,1.17c0.95,0.35,1.87,0.13,2.74-0.62l0.3,0.26
			c-0.77,1.07-1.59,1.76-2.49,2.09c-0.89,0.32-1.78,0.32-2.67,0c-0.64-0.23-1.17-0.59-1.59-1.08s-0.68-1.05-0.79-1.67
			c-0.11-0.63-0.08-1.16,0.08-1.62c0.3-0.82,0.83-1.58,1.6-2.26c1.04-0.92,2.99-2.03,5.85-3.32l-2.72-0.99
			c-0.67-0.24-1.12-0.37-1.34-0.39c-0.22-0.02-0.42,0.02-0.6,0.1c-0.18,0.09-0.45,0.3-0.83,0.65l-0.33-0.12L205.66,530.25z"/>
		<path fill="#231F20" d="M192.91,532.75c0.46-1.26,1.06-2.37,1.81-3.33c0.44-0.59,0.94-1.04,1.45-1.35
			c0.51-0.31,1.04-0.5,1.58-0.58c0.54-0.09,1.08-0.03,1.62,0.16c0.62,0.22,1.1,0.58,1.48,1.06c0.37,0.49,0.65,1.09,0.82,1.8
			c0.12,0.52,0.15,1.17,0.1,1.94c-0.08,1.04-0.3,2.07-0.67,3.08c-0.5,1.37-1.15,2.56-1.95,3.56c-0.66,0.83-1.41,1.38-2.23,1.66
			c-0.83,0.27-1.6,0.28-2.32,0.01c-0.73-0.27-1.32-0.76-1.78-1.49c-0.45-0.74-0.68-1.57-0.67-2.52
			C192.16,535.47,192.4,534.13,192.91,532.75z M195.76,533.8c-0.8,2.21-1.26,3.5-1.37,3.87c-0.25,0.88-0.31,1.52-0.19,1.91
			c0.08,0.26,0.3,0.44,0.64,0.57c0.27,0.1,0.5,0.11,0.71,0.01c0.31-0.13,0.6-0.46,0.88-0.98c0.28-0.52,1.01-2.42,2.21-5.7
			c0.65-1.79,1.02-3,1.12-3.66c0.07-0.47,0.04-0.82-0.08-1.03s-0.32-0.37-0.61-0.47c-0.31-0.11-0.58-0.1-0.81,0.04
			c-0.39,0.25-0.73,0.74-1.03,1.45L195.76,533.8z"/>
	</g>
	<g enable-background="new    ">
		<path fill="#231F20" d="M248.14,555.04l1.9-10.81c0.14-0.81,0.2-1.34,0.17-1.57c-0.03-0.24-0.15-0.44-0.35-0.63
			c-0.2-0.19-0.55-0.32-1.06-0.41l-0.3-0.04l0.06-0.36l6.96,1.22l-0.06,0.36l-0.35-0.06c-0.57-0.1-0.97-0.11-1.24-0.02
			c-0.26,0.08-0.46,0.24-0.58,0.45s-0.26,0.73-0.41,1.57l-1.21,6.85c-0.11,0.61-0.15,1-0.11,1.16c0.03,0.15,0.12,0.31,0.26,0.45
			c0.14,0.13,0.31,0.22,0.52,0.25c0.33,0.07,0.75,0.03,1.26-0.1l0.11,0.38l-5.25,1.37L248.14,555.04z"/>
		<path fill="#231F20" d="M236.61,545.94c0.23-1.32,0.62-2.52,1.2-3.59c0.34-0.66,0.74-1.19,1.18-1.57
			c0.45-0.38,0.94-0.66,1.45-0.84c0.52-0.18,1.06-0.22,1.62-0.12c0.64,0.11,1.18,0.38,1.64,0.78c0.45,0.41,0.83,0.96,1.12,1.63
			c0.21,0.49,0.34,1.12,0.44,1.9c0.1,1.04,0.06,2.09-0.12,3.15c-0.25,1.44-0.69,2.72-1.3,3.86c-0.51,0.94-1.14,1.61-1.9,2.02
			c-0.77,0.41-1.53,0.55-2.27,0.42c-0.77-0.14-1.44-0.52-2.01-1.16c-0.57-0.64-0.94-1.43-1.09-2.37
			C236.34,548.75,236.36,547.38,236.61,545.94z M239.62,546.48c-0.41,2.31-0.62,3.66-0.67,4.04c-0.09,0.92-0.05,1.55,0.16,1.91
			c0.13,0.24,0.37,0.39,0.73,0.45c0.28,0.05,0.51,0,0.7-0.12c0.28-0.18,0.51-0.56,0.7-1.12c0.19-0.56,0.58-2.56,1.19-6
			c0.33-1.88,0.49-3.14,0.47-3.79c-0.02-0.48-0.1-0.81-0.27-1c-0.16-0.19-0.38-0.31-0.68-0.36c-0.34-0.06-0.59,0-0.8,0.18
			c-0.34,0.31-0.59,0.85-0.76,1.61L239.62,546.48z"/>
	</g>
	<g enable-background="new    ">
		<path fill="#231F20" d="M285.96,551.42c0-1.34,0.19-2.59,0.56-3.75c0.21-0.71,0.53-1.3,0.91-1.75c0.38-0.45,0.81-0.82,1.29-1.08
			c0.48-0.27,1.02-0.4,1.57-0.4c0.65,0.01,1.23,0.17,1.75,0.5c0.53,0.33,0.98,0.8,1.39,1.41c0.29,0.44,0.54,1.04,0.76,1.79
			c0.29,1.01,0.43,2.05,0.43,3.13c0,1.46-0.21,2.8-0.61,4.02c-0.34,1.01-0.85,1.79-1.52,2.32c-0.69,0.54-1.41,0.82-2.18,0.81
			c-0.78,0-1.51-0.27-2.18-0.8c-0.68-0.53-1.17-1.25-1.49-2.14C286.18,554.22,285.96,552.87,285.96,551.42z M289.01,551.43
			c0.01,2.35,0.01,3.72,0.04,4.11c0.07,0.92,0.22,1.54,0.48,1.86c0.17,0.21,0.43,0.32,0.8,0.32c0.28,0,0.51-0.08,0.67-0.24
			c0.24-0.23,0.41-0.64,0.49-1.21c0.09-0.58,0.12-2.63,0.12-6.11c0-1.9-0.07-3.17-0.2-3.82c-0.1-0.47-0.24-0.78-0.43-0.94
			c-0.18-0.16-0.43-0.24-0.73-0.24c-0.34,0-0.58,0.12-0.74,0.32c-0.28,0.37-0.44,0.94-0.48,1.71L289.01,551.43z"/>
	</g>
	<g enable-background="new    ">
		<path fill="#231F20" d="M341.45,553.53l-1.91-10.81c-0.14-0.81-0.28-1.32-0.38-1.54c-0.11-0.21-0.29-0.36-0.55-0.47
			c-0.25-0.1-0.63-0.11-1.13-0.02l-0.3,0.04l-0.06-0.36l6.95-1.23l0.06,0.36l-0.35,0.06c-0.57,0.1-0.96,0.23-1.17,0.41
			c-0.22,0.17-0.34,0.38-0.39,0.62c-0.03,0.24,0.01,0.78,0.16,1.61l1.22,6.85c0.11,0.61,0.2,0.99,0.29,1.13
			c0.09,0.14,0.23,0.25,0.4,0.33c0.18,0.08,0.37,0.1,0.58,0.06c0.33-0.06,0.72-0.23,1.15-0.53l0.24,0.32l-4.47,3.09L341.45,553.53z"
			/>
		<path fill="#231F20" d="M327.5,548.91c-0.23-1.32-0.27-2.58-0.1-3.79c0.1-0.74,0.29-1.37,0.59-1.88c0.29-0.51,0.66-0.94,1.08-1.29
			c0.42-0.35,0.92-0.57,1.48-0.67c0.64-0.11,1.24-0.05,1.81,0.18c0.57,0.23,1.11,0.62,1.61,1.15c0.37,0.39,0.72,0.93,1.06,1.63
			c0.45,0.94,0.78,1.95,0.96,3c0.25,1.44,0.28,2.79,0.09,4.06c-0.16,1.05-0.53,1.9-1.12,2.55c-0.58,0.65-1.24,1.04-2,1.17
			c-0.77,0.13-1.52,0-2.29-0.41c-0.75-0.41-1.37-1.02-1.84-1.85C328.2,551.64,327.76,550.35,327.5,548.91z M330.51,548.4
			c0.41,2.31,0.66,3.66,0.75,4.05c0.22,0.89,0.49,1.47,0.79,1.75c0.2,0.18,0.48,0.24,0.84,0.17c0.29-0.05,0.49-0.17,0.62-0.35
			c0.21-0.27,0.29-0.7,0.28-1.29c-0.02-0.59-0.34-2.6-0.94-6.04c-0.33-1.87-0.62-3.11-0.86-3.73c-0.18-0.44-0.38-0.73-0.58-0.85
			s-0.46-0.16-0.75-0.11c-0.33,0.06-0.55,0.2-0.68,0.44c-0.21,0.41-0.27,1-0.17,1.77L330.51,548.4z"/>
	</g>
	<g enable-background="new    ">
		<path fill="#231F20" d="M380.18,528.4l7.42-2.7l0.07,0.2c-1.29,3.54-2.01,5.86-2.14,6.97c-0.14,1.11-0.06,2.12,0.27,3.01
			c0.24,0.65,0.63,1.12,1.19,1.4c0.55,0.28,1.13,0.32,1.71,0.11c0.95-0.35,1.52-1.1,1.7-2.24h0.39c0.1,1.31-0.09,2.38-0.55,3.2
			c-0.47,0.82-1.16,1.38-2.05,1.71c-0.64,0.23-1.28,0.3-1.91,0.19s-1.2-0.36-1.68-0.76c-0.49-0.41-0.81-0.84-0.99-1.29
			c-0.3-0.82-0.38-1.74-0.23-2.76c0.21-1.37,0.99-3.47,2.35-6.3l-2.72,0.99c-0.67,0.24-1.09,0.43-1.28,0.57
			c-0.18,0.13-0.31,0.28-0.39,0.46s-0.15,0.52-0.21,1.03l-0.33,0.12L380.18,528.4z"/>
		<path fill="#231F20" d="M372.03,538.51c-0.46-1.26-0.72-2.5-0.75-3.72c-0.03-0.75,0.05-1.4,0.25-1.96
			c0.2-0.55,0.49-1.04,0.84-1.47c0.36-0.42,0.81-0.72,1.34-0.92c0.62-0.22,1.21-0.27,1.82-0.13c0.59,0.13,1.2,0.42,1.79,0.86
			c0.43,0.32,0.87,0.8,1.33,1.42c0.61,0.85,1.1,1.78,1.47,2.79c0.5,1.37,0.76,2.7,0.81,3.99c0.03,1.05-0.19,1.95-0.65,2.7
			c-0.46,0.74-1.05,1.24-1.76,1.5c-0.73,0.27-1.51,0.27-2.32,0c-0.82-0.26-1.53-0.77-2.13-1.49
			C373.2,541.08,372.53,539.89,372.03,538.51z M374.89,537.49c0.8,2.21,1.29,3.48,1.45,3.84c0.38,0.84,0.75,1.37,1.08,1.59
			c0.23,0.14,0.51,0.14,0.86,0.03c0.27-0.1,0.45-0.25,0.55-0.46c0.15-0.3,0.17-0.74,0.05-1.32s-0.78-2.51-1.97-5.79
			c-0.66-1.79-1.16-2.96-1.49-3.52c-0.25-0.41-0.49-0.65-0.72-0.74c-0.23-0.08-0.49-0.08-0.77,0.03c-0.31,0.11-0.51,0.3-0.59,0.55
			c-0.13,0.44-0.08,1.03,0.14,1.77L374.89,537.49z"/>
	</g>
	<g enable-background="new    ">
		<path fill="#231F20" d="M428.28,512.26l0.17,0.29c-0.54,0.57-0.89,1-1.05,1.31c-0.16,0.31-0.23,0.68-0.22,1.12
			c0.01,0.44,0.11,0.83,0.31,1.17c0.27,0.47,0.68,0.78,1.22,0.92c0.54,0.14,1.07,0.06,1.58-0.23c0.8-0.46,1.22-1.28,1.31-2.45
			l0.38-0.07c0.14,1.19,0.03,2.21-0.34,3.06c-0.37,0.85-0.94,1.5-1.73,1.96c-0.81,0.46-1.61,0.59-2.42,0.42
			c-0.81-0.19-1.4-0.61-1.78-1.27c-0.25-0.43-0.37-0.91-0.35-1.45c0.01-0.54,0.19-1.11,0.54-1.71c-0.87,0.06-1.6-0.05-2.22-0.32
			c-0.62-0.27-1.15-0.77-1.56-1.49c-0.7-1.21-0.85-2.49-0.47-3.85c0.39-1.36,1.32-2.46,2.79-3.31c0.98-0.56,1.79-0.83,2.43-0.76
			c0.46,0.04,0.79,0.24,1,0.6c0.15,0.26,0.18,0.54,0.11,0.83c-0.08,0.29-0.25,0.51-0.49,0.65c-0.19,0.11-0.39,0.17-0.6,0.2
			c-0.12,0.01-0.59-0.06-1.41-0.19c-0.82-0.13-1.47-0.06-1.96,0.22c-0.42,0.24-0.69,0.62-0.8,1.13c-0.11,0.51-0.02,1.02,0.28,1.53
			c0.45,0.78,1.14,1.34,2.07,1.69C426.01,512.63,427.08,512.62,428.28,512.26z"/>
		<path fill="#231F20" d="M413.96,520.52c-0.67-1.16-1.13-2.34-1.39-3.53c-0.16-0.73-0.2-1.38-0.09-1.97
			c0.1-0.59,0.29-1.12,0.58-1.58c0.28-0.47,0.67-0.85,1.16-1.13c0.57-0.33,1.15-0.47,1.76-0.45c0.62,0.02,1.25,0.2,1.91,0.53
			c0.47,0.24,0.99,0.63,1.55,1.17c0.76,0.73,1.4,1.56,1.93,2.49c0.73,1.26,1.22,2.52,1.48,3.79c0.21,1.04,0.16,1.98-0.17,2.78
			c-0.33,0.81-0.82,1.4-1.48,1.79c-0.67,0.39-1.44,0.52-2.29,0.4c-0.85-0.12-1.64-0.48-2.36-1.11
			C415.57,522.84,414.71,521.79,413.96,520.52z M416.61,519.01c1.17,2.03,1.87,3.2,2.09,3.54c0.52,0.76,0.96,1.22,1.35,1.37
			c0.25,0.1,0.53,0.06,0.85-0.13c0.25-0.15,0.4-0.32,0.46-0.54c0.1-0.33,0.03-0.76-0.19-1.3c-0.23-0.55-1.21-2.33-2.94-5.35
			c-0.95-1.64-1.65-2.71-2.08-3.21c-0.32-0.36-0.6-0.56-0.84-0.6c-0.24-0.03-0.49,0.01-0.75,0.16c-0.29,0.17-0.45,0.38-0.48,0.63
			c-0.06,0.46,0.09,1.04,0.44,1.72L416.61,519.01z"/>
	</g>
	<g enable-background="new    ">
		<path fill="#231F20" d="M465.75,482.16l0.68,10.71l-0.93,0.78l-5.55-6.62l-0.94,0.79l-1.32-1.57l0.94-0.8l-1.93-2.3l2.08-1.75
			l1.93,2.3l3.71-3.13L465.75,482.16z M465.01,482.77l-2.98,2.51l3.4,4.05L465.01,482.77z"/>
		<path fill="#231F20" d="M452.25,495.66c-0.86-1.03-1.52-2.1-1.98-3.23c-0.29-0.69-0.43-1.33-0.43-1.92s0.1-1.15,0.29-1.66
			c0.2-0.51,0.51-0.95,0.95-1.32c0.5-0.42,1.05-0.66,1.66-0.75c0.61-0.09,1.27-0.02,1.97,0.19c0.51,0.16,1.09,0.45,1.73,0.88
			c0.87,0.59,1.64,1.29,2.34,2.11c0.94,1.12,1.65,2.27,2.11,3.47c0.39,0.99,0.5,1.9,0.32,2.76c-0.18,0.85-0.55,1.52-1.15,2.03
			c-0.6,0.5-1.32,0.76-2.18,0.79c-0.86,0.03-1.7-0.2-2.52-0.68C454.23,497.67,453.19,496.78,452.25,495.66z M454.6,493.7
			c1.51,1.8,2.4,2.84,2.67,3.13c0.64,0.65,1.16,1.03,1.56,1.12c0.26,0.05,0.53-0.04,0.83-0.27c0.22-0.18,0.34-0.39,0.36-0.61
			c0.04-0.33-0.1-0.75-0.41-1.25c-0.31-0.5-1.59-2.1-3.83-4.76c-1.22-1.46-2.09-2.38-2.61-2.8c-0.38-0.29-0.69-0.44-0.93-0.44
			c-0.24-0.01-0.48,0.09-0.71,0.29c-0.25,0.21-0.37,0.46-0.37,0.72c0.02,0.46,0.27,1,0.74,1.62L454.6,493.7z"/>
	</g>
	<g enable-background="new    ">
		<path fill="#231F20" d="M501.25,455.94l-4.03,4.81l-1.31-2.41l3.4-4.05l-0.7-1.25c-1.53,1.69-3.08,2.66-4.68,2.93
			c-1.3,0.22-2.46-0.09-3.45-0.91c-0.63-0.53-1.1-1.23-1.4-2.09c-0.3-0.86-0.34-1.75-0.12-2.69c0.21-0.93,0.66-1.78,1.31-2.56
			c0.7-0.84,1.4-1.35,2.09-1.54c0.49-0.13,0.87-0.07,1.15,0.17c0.22,0.18,0.34,0.43,0.37,0.73c0.03,0.29-0.05,0.57-0.23,0.78
			c-0.17,0.2-0.37,0.36-0.62,0.5c-0.25,0.13-0.75,0.3-1.51,0.5c-0.47,0.13-0.84,0.27-1.11,0.44c-0.19,0.11-0.37,0.26-0.54,0.46
			c-0.35,0.41-0.49,0.89-0.43,1.44c0.06,0.55,0.3,1,0.74,1.35c0.89,0.74,1.98,0.91,3.29,0.49c1.3-0.42,2.52-1.32,3.66-2.67
			c0.1-0.14,0.28-0.34,0.51-0.62L501.25,455.94z"/>
		<path fill="#231F20" d="M485.55,464.22c-1.03-0.86-1.87-1.81-2.51-2.83c-0.4-0.63-0.66-1.24-0.76-1.82
			c-0.12-0.58-0.11-1.15,0-1.68c0.1-0.54,0.34-1.03,0.69-1.46c0.42-0.5,0.92-0.84,1.51-1.02c0.59-0.19,1.25-0.24,1.97-0.15
			c0.53,0.07,1.15,0.26,1.86,0.56c0.96,0.42,1.84,0.99,2.67,1.68c1.12,0.94,2.01,1.95,2.68,3.05c0.56,0.91,0.82,1.79,0.79,2.67
			c-0.03,0.87-0.29,1.6-0.78,2.18c-0.5,0.6-1.17,0.97-2.01,1.16c-0.84,0.18-1.71,0.1-2.6-0.24
			C487.86,465.85,486.67,465.17,485.55,464.22z M487.54,461.9c1.81,1.51,2.85,2.37,3.17,2.6c0.74,0.54,1.32,0.82,1.73,0.83
			c0.27,0.01,0.53-0.13,0.75-0.41c0.18-0.22,0.27-0.44,0.25-0.67c-0.02-0.33-0.23-0.72-0.62-1.15c-0.39-0.44-1.92-1.78-4.6-4.03
			c-1.45-1.22-2.48-1.99-3.05-2.3c-0.42-0.23-0.75-0.32-0.99-0.28c-0.24,0.05-0.46,0.18-0.65,0.41c-0.21,0.25-0.29,0.51-0.23,0.77
			c0.1,0.45,0.44,0.94,1.02,1.46L487.54,461.9z"/>
	</g>
	<g enable-background="new    ">
		<path fill="#231F20" d="M523.95,422.7l-0.24-0.14c0.33-1.19,0.48-2.21,0.42-3.07c-0.05-0.87-0.27-1.65-0.65-2.35
			c-0.37-0.71-0.95-1.41-1.71-2.1c0.03,0.35,0.02,0.62-0.03,0.83c-0.1,0.44-0.26,0.85-0.48,1.23c-0.5,0.87-1.24,1.41-2.2,1.63
			c-0.97,0.21-2,0.01-3.08-0.62c-0.78-0.44-1.39-1-1.84-1.69c-0.46-0.68-0.7-1.42-0.71-2.19c-0.03-0.78,0.17-1.5,0.54-2.15
			c0.41-0.71,0.99-1.26,1.73-1.64c0.74-0.38,1.59-0.53,2.55-0.43c0.95,0.09,1.87,0.4,2.75,0.91c1.3,0.75,2.33,1.76,3.1,3.04
			c0.76,1.27,1.14,2.68,1.14,4.21C525.22,419.68,524.8,421.19,523.95,422.7z M521.13,414.51c-0.76-0.5-1.33-0.86-1.69-1.07
			c-0.79-0.46-1.59-0.81-2.42-1.09c-0.82-0.26-1.46-0.37-1.91-0.27c-0.32,0.07-0.55,0.23-0.7,0.48c-0.15,0.26-0.13,0.6,0.05,0.97
			c0.18,0.38,0.75,0.84,1.69,1.38c1.58,0.91,2.78,1.35,3.6,1.3c0.53-0.02,0.92-0.24,1.16-0.66
			C521.04,415.34,521.11,415,521.13,414.51z"/>
		<path fill="#231F20" d="M512.9,427.88c-1.16-0.67-2.15-1.46-2.96-2.35c-0.5-0.55-0.86-1.09-1.06-1.66
			c-0.19-0.56-0.3-1.11-0.29-1.66s0.15-1.07,0.44-1.56c0.33-0.56,0.76-0.98,1.3-1.27c0.55-0.29,1.19-0.46,1.92-0.5
			c0.53-0.03,1.18,0.04,1.93,0.24c1.01,0.26,1.99,0.66,2.93,1.19c1.26,0.73,2.32,1.58,3.17,2.53c0.72,0.8,1.13,1.63,1.24,2.49
			c0.12,0.87,0,1.63-0.39,2.29c-0.39,0.67-0.98,1.16-1.78,1.49c-0.8,0.32-1.67,0.39-2.6,0.22
			C515.46,429.1,514.18,428.62,512.9,427.88z M514.44,425.26c2.03,1.17,3.23,1.85,3.58,2.02c0.83,0.4,1.44,0.57,1.84,0.51
			c0.27-0.04,0.49-0.21,0.67-0.54c0.14-0.25,0.19-0.48,0.13-0.7c-0.08-0.34-0.35-0.67-0.81-1.04c-0.46-0.37-2.21-1.41-5.24-3.17
			c-1.65-0.95-2.77-1.53-3.4-1.74c-0.46-0.15-0.8-0.18-1.03-0.1c-0.23,0.09-0.42,0.25-0.57,0.51c-0.17,0.29-0.2,0.55-0.1,0.8
			c0.19,0.42,0.6,0.86,1.25,1.27L514.44,425.26z"/>
	</g>
	<g enable-background="new    ">
		<path fill="#231F20" d="M549.79,331.09c-0.85,0.81-1.59,1.35-2.25,1.6s-1.36,0.32-2.12,0.19c-1.07-0.19-1.9-0.75-2.49-1.68
			c-0.59-0.93-0.77-2.1-0.53-3.46c0.23-1.3,0.73-2.26,1.5-2.86c0.77-0.61,1.62-0.82,2.55-0.67c0.71,0.13,1.3,0.44,1.75,0.95
			c0.46,0.51,0.83,1.28,1.1,2.32c0.98-0.91,1.75-1.46,2.31-1.67c0.56-0.21,1.17-0.25,1.84-0.13c0.88,0.16,1.6,0.67,2.14,1.54
			s0.71,1.96,0.48,3.26c-0.22,1.26-0.69,2.18-1.4,2.75c-0.71,0.57-1.5,0.79-2.32,0.64c-0.62-0.11-1.14-0.39-1.55-0.84
			C550.38,332.57,550.04,331.92,549.79,331.09z M548.71,328.12c-0.15-0.22-0.29-0.41-0.42-0.52c-0.21-0.17-0.52-0.34-0.93-0.53
			c-0.42-0.19-0.86-0.31-1.34-0.4c-0.61-0.11-1.14-0.11-1.58-0.03c-0.44,0.08-0.78,0.25-1.01,0.51c-0.23,0.26-0.38,0.54-0.43,0.84
			c-0.08,0.47,0.02,0.9,0.31,1.29c0.29,0.39,0.75,0.63,1.34,0.74C545.91,330.26,547.26,329.62,548.71,328.12z M550.42,330.44
			c0.28,0.3,0.62,0.54,1,0.73c0.38,0.2,0.81,0.32,1.29,0.41c0.84,0.15,1.52,0.08,2.04-0.2c0.38-0.21,0.63-0.56,0.72-1.04
			c0.08-0.44-0.02-0.83-0.28-1.19c-0.26-0.35-0.63-0.58-1.09-0.67c-0.47-0.07-1,0-1.57,0.25
			C551.96,328.97,551.25,329.54,550.42,330.44z"/>
		<path fill="#231F20" d="M546.75,343.36c-1.32-0.23-2.52-0.62-3.59-1.2c-0.66-0.34-1.19-0.75-1.57-1.2s-0.66-0.94-0.84-1.45
			c-0.18-0.52-0.22-1.06-0.12-1.62c0.11-0.64,0.38-1.18,0.78-1.64c0.41-0.45,0.96-0.83,1.63-1.12c0.49-0.21,1.13-0.35,1.91-0.44
			c1.04-0.1,2.09-0.06,3.15,0.12c1.44,0.25,2.72,0.69,3.86,1.3c0.94,0.51,1.61,1.14,2.02,1.9c0.42,0.76,0.55,1.53,0.42,2.27
			c-0.14,0.77-0.52,1.44-1.16,2.01c-0.64,0.57-1.43,0.94-2.37,1.09C549.56,343.64,548.19,343.62,546.75,343.36z M547.3,340.37
			c2.32,0.41,3.66,0.62,4.05,0.67c0.92,0.09,1.55,0.04,1.9-0.14c0.24-0.13,0.39-0.37,0.44-0.73c0.04-0.28,0-0.51-0.12-0.71
			c-0.18-0.28-0.56-0.51-1.12-0.7c-0.56-0.19-2.56-0.58-6-1.19c-1.87-0.33-3.13-0.48-3.79-0.47c-0.48,0.02-0.81,0.1-1,0.27
			c-0.19,0.15-0.31,0.38-0.36,0.68c-0.06,0.32,0,0.59,0.18,0.79c0.31,0.34,0.85,0.59,1.6,0.77L547.3,340.37z"/>
	</g>
	<g enable-background="new    ">
		<path fill="#231F20" d="M545.37,278.88h0.28c0.25,1.09,0.62,2.02,1.11,2.79c0.49,0.75,1.09,1.37,1.81,1.81
			c0.72,0.44,1.55,0.76,2.48,0.93c-0.21-0.41-0.36-0.76-0.44-1.04c-0.08-0.29-0.12-0.59-0.12-0.91c0-1.02,0.37-1.86,1.1-2.54
			c0.73-0.68,1.73-1.01,3.01-1.01c0.88,0,1.69,0.18,2.43,0.55c0.74,0.37,1.31,0.89,1.71,1.56c0.4,0.68,0.61,1.39,0.61,2.12
			c0,0.78-0.21,1.53-0.66,2.23c-0.45,0.7-1.1,1.26-1.95,1.67c-0.85,0.42-1.82,0.62-2.91,0.62c-1.41,0-2.76-0.34-4.06-1.01
			c-1.29-0.68-2.33-1.68-3.12-3.02C545.86,282.28,545.44,280.71,545.37,278.88z M551.88,284.56c0.74,0.07,1.39,0.1,1.95,0.1
			c1.2,0,2.32-0.14,3.35-0.42c0.57-0.15,1-0.39,1.27-0.7c0.15-0.17,0.22-0.38,0.22-0.64c-0.01-0.33-0.14-0.59-0.42-0.77
			c-0.39-0.26-1.13-0.39-2.23-0.39c-1.83,0.01-3.09,0.23-3.78,0.66c-0.45,0.28-0.67,0.68-0.67,1.15
			C551.56,283.8,551.67,284.13,551.88,284.56z"/>
		<path fill="#231F20" d="M552.36,297.78c-1.34,0-2.59-0.19-3.75-0.56c-0.7-0.22-1.3-0.53-1.75-0.91c-0.45-0.38-0.82-0.81-1.08-1.29
			c-0.27-0.48-0.4-1.01-0.4-1.57c0-0.64,0.17-1.23,0.5-1.75c0.33-0.53,0.8-0.98,1.42-1.39c0.44-0.29,1.04-0.54,1.79-0.76
			c1-0.28,2.05-0.43,3.13-0.44c1.46,0,2.8,0.19,4.02,0.61c1.01,0.34,1.78,0.85,2.32,1.52c0.54,0.69,0.82,1.41,0.81,2.18
			c0,0.78-0.27,1.51-0.8,2.18c-0.53,0.69-1.25,1.17-2.14,1.49C555.18,297.55,553.83,297.77,552.36,297.78z M552.37,294.72
			c2.35-0.01,3.72-0.01,4.11-0.04c0.92-0.07,1.54-0.22,1.86-0.48c0.21-0.17,0.32-0.43,0.32-0.8c0-0.28-0.08-0.51-0.24-0.67
			c-0.23-0.24-0.64-0.4-1.22-0.5c-0.58-0.09-2.61-0.13-6.11-0.13c-1.9,0-3.17,0.07-3.82,0.21c-0.47,0.1-0.78,0.25-0.94,0.43
			s-0.24,0.43-0.24,0.73c0,0.34,0.11,0.58,0.32,0.74c0.37,0.28,0.94,0.44,1.71,0.48L552.37,294.72z"/>
	</g>
	<g enable-background="new    ">
		<path fill="#231F20" d="M548.39,239.91c-0.52,1.05-1.04,1.81-1.56,2.27c-0.52,0.46-1.17,0.76-1.92,0.9
			c-1.07,0.19-2.04-0.05-2.92-0.72s-1.44-1.7-1.68-3.07c-0.24-1.31-0.09-2.37,0.43-3.2c0.51-0.83,1.24-1.32,2.16-1.49
			c0.71-0.13,1.36-0.03,1.97,0.29c0.61,0.32,1.21,0.92,1.83,1.79c0.62-1.19,1.15-1.97,1.6-2.37c0.45-0.38,1.02-0.63,1.68-0.75
			c0.88-0.16,1.73,0.08,2.53,0.71c0.8,0.62,1.32,1.6,1.55,2.9c0.22,1.26,0.11,2.28-0.38,3.07c-0.47,0.78-1.12,1.25-1.96,1.4
			c-0.62,0.11-1.21,0.02-1.75-0.26C549.44,241.1,548.91,240.6,548.39,239.91z M546.36,237.49c-0.22-0.17-0.42-0.28-0.57-0.34
			c-0.25-0.09-0.6-0.15-1.06-0.17c-0.46-0.03-0.92,0-1.39,0.08c-0.61,0.11-1.11,0.28-1.49,0.5c-0.38,0.23-0.64,0.5-0.77,0.83
			c-0.13,0.32-0.17,0.63-0.12,0.93c0.08,0.48,0.33,0.84,0.73,1.11c0.41,0.26,0.91,0.34,1.51,0.24
			C544.46,240.45,545.51,239.39,546.36,237.49z M548.76,239.07c0.37,0.18,0.76,0.3,1.18,0.34c0.42,0.05,0.88,0.02,1.36-0.06
			c0.84-0.15,1.46-0.45,1.84-0.89c0.29-0.33,0.4-0.74,0.32-1.22c-0.08-0.44-0.3-0.78-0.68-1.03c-0.37-0.25-0.79-0.33-1.26-0.25
			c-0.47,0.08-0.93,0.34-1.38,0.77C549.69,237.18,549.24,237.95,548.76,239.07z"/>
		<path fill="#231F20" d="M549.73,252.47c-1.32,0.23-2.58,0.27-3.79,0.1c-0.74-0.1-1.37-0.29-1.88-0.59
			c-0.51-0.3-0.95-0.66-1.29-1.08c-0.35-0.43-0.57-0.92-0.67-1.48c-0.11-0.64-0.05-1.24,0.18-1.81c0.22-0.57,0.62-1.11,1.15-1.61
			c0.39-0.36,0.93-0.72,1.63-1.06c0.94-0.45,1.95-0.78,3-0.96c1.44-0.25,2.79-0.28,4.06-0.09c1.05,0.16,1.9,0.53,2.55,1.11
			c0.65,0.58,1.04,1.25,1.17,2c0.15,0.77,0.01,1.53-0.41,2.29c-0.41,0.75-1.02,1.37-1.85,1.84
			C552.46,251.76,551.18,252.22,549.73,252.47z M549.22,249.47c2.32-0.41,3.66-0.66,4.04-0.75c0.89-0.22,1.47-0.49,1.75-0.79
			c0.18-0.2,0.24-0.48,0.17-0.84c-0.05-0.28-0.17-0.49-0.35-0.62c-0.27-0.2-0.7-0.29-1.29-0.28c-0.59,0.02-2.6,0.34-6.04,0.94
			c-1.88,0.33-3.11,0.62-3.72,0.86c-0.45,0.18-0.73,0.38-0.85,0.58c-0.12,0.21-0.16,0.46-0.12,0.76c0.06,0.33,0.2,0.55,0.44,0.68
			c0.41,0.21,1,0.27,1.77,0.17L549.22,249.47z"/>
	</g>
	<g enable-background="new    ">
		<path fill="#231F20" d="M527.32,195.3l11.65-0.37l-0.96-2.61c-0.37-1.02-0.79-1.74-1.25-2.16c-0.32-0.29-0.78-0.46-1.38-0.51
			l-0.13-0.35l4.25-0.51l2.73,7.51l-14.41,0.46L527.32,195.3z"/>
		<path fill="#231F20" d="M539.34,207.87c-1.26,0.46-2.5,0.71-3.72,0.75c-0.75,0.03-1.4-0.05-1.96-0.25
			c-0.56-0.19-1.04-0.47-1.47-0.84c-0.42-0.36-0.72-0.81-0.92-1.34c-0.22-0.61-0.27-1.21-0.13-1.82c0.13-0.59,0.42-1.2,0.86-1.79
			c0.32-0.43,0.8-0.87,1.42-1.33c0.85-0.61,1.78-1.1,2.79-1.47c1.37-0.5,2.7-0.76,3.99-0.81c1.05-0.03,1.96,0.19,2.69,0.65
			c0.74,0.46,1.24,1.05,1.5,1.76c0.27,0.73,0.27,1.51,0,2.32c-0.26,0.82-0.77,1.53-1.49,2.13
			C541.91,206.7,540.72,207.38,539.34,207.87z M538.32,205.01c2.21-0.8,3.48-1.29,3.84-1.44c0.84-0.38,1.37-0.75,1.59-1.08
			c0.14-0.23,0.15-0.51,0.03-0.86c-0.1-0.27-0.25-0.45-0.45-0.55c-0.3-0.15-0.75-0.17-1.32-0.05c-0.58,0.12-2.51,0.78-5.79,1.97
			c-1.79,0.65-2.96,1.16-3.52,1.49c-0.41,0.25-0.65,0.49-0.74,0.72c-0.07,0.23-0.08,0.48,0.03,0.77c0.11,0.31,0.3,0.51,0.55,0.59
			c0.44,0.13,1.03,0.09,1.77-0.14L538.32,205.01z"/>
	</g>
	<g enable-background="new    ">
		<path fill="#231F20" d="M522.38,153.89l-0.24,0.14c-0.85-0.88-1.69-1.52-2.45-1.9c-0.77-0.39-1.56-0.59-2.36-0.61
			s-1.7,0.12-2.69,0.42c0.32,0.15,0.55,0.29,0.7,0.43c0.33,0.31,0.59,0.65,0.82,1.02c0.5,0.87,0.6,1.77,0.31,2.72
			c-0.29,0.95-0.99,1.73-2.08,2.36c-0.77,0.45-1.56,0.69-2.38,0.75c-0.83,0.05-1.57-0.11-2.25-0.48c-0.68-0.38-1.21-0.9-1.59-1.55
			c-0.41-0.71-0.6-1.49-0.56-2.32c0.03-0.83,0.34-1.64,0.89-2.41c0.56-0.79,1.28-1.42,2.16-1.93c1.3-0.75,2.7-1.14,4.18-1.17
			c1.48-0.02,2.89,0.35,4.22,1.12C520.41,151.26,521.5,152.38,522.38,153.89z M513.88,152.23c-0.81,0.41-1.4,0.72-1.77,0.93
			c-0.79,0.46-1.5,0.97-2.16,1.55c-0.65,0.58-1.05,1.08-1.19,1.52c-0.1,0.31-0.08,0.6,0.07,0.85c0.15,0.26,0.44,0.4,0.86,0.44
			c0.42,0.03,1.11-0.24,2.04-0.77c1.58-0.91,2.55-1.73,2.93-2.47c0.25-0.47,0.25-0.91,0-1.33
			C514.53,152.72,514.28,152.48,513.88,152.23z"/>
		<path fill="#231F20" d="M521.33,166.04c-1.16,0.67-2.34,1.13-3.53,1.39c-0.73,0.16-1.39,0.19-1.97,0.09s-1.12-0.29-1.58-0.58
			c-0.48-0.28-0.85-0.67-1.13-1.16c-0.32-0.56-0.47-1.15-0.45-1.76c0.03-0.62,0.2-1.25,0.53-1.91c0.24-0.47,0.63-0.99,1.17-1.55
			c0.73-0.76,1.57-1.39,2.49-1.93c1.26-0.73,2.51-1.22,3.79-1.48c1.04-0.21,1.98-0.16,2.78,0.17c0.81,0.33,1.4,0.82,1.79,1.48
			c0.39,0.68,0.52,1.44,0.4,2.29s-0.48,1.64-1.11,2.36C523.67,164.44,522.61,165.3,521.33,166.04z M519.83,163.38
			c2.03-1.17,3.2-1.87,3.54-2.09c0.76-0.52,1.22-0.96,1.36-1.34c0.1-0.25,0.06-0.53-0.13-0.85c-0.15-0.25-0.32-0.4-0.54-0.46
			c-0.32-0.1-0.76-0.04-1.31,0.18c-0.55,0.23-2.33,1.21-5.36,2.94c-1.64,0.95-2.71,1.65-3.21,2.08c-0.36,0.32-0.55,0.6-0.6,0.84
			c-0.04,0.24,0,0.49,0.16,0.75c0.17,0.29,0.38,0.45,0.63,0.48c0.46,0.06,1.03-0.09,1.72-0.44L519.83,163.38z"/>
	</g>
	<g enable-background="new    ">
		<path fill="#231F20" d="M491.04,110.77l4.04,4.8l-2.6,0.88l-3.41-4.04l-1.36,0.47c1.4,1.8,2.09,3.5,2.08,5.12
			c-0.01,1.33-0.51,2.41-1.5,3.23c-0.63,0.53-1.4,0.87-2.3,1.02c-0.89,0.15-1.79,0.03-2.67-0.34c-0.87-0.38-1.64-0.96-2.29-1.73
			c-0.71-0.84-1.1-1.62-1.15-2.33c-0.04-0.5,0.08-0.86,0.36-1.11c0.22-0.18,0.48-0.27,0.78-0.24c0.3,0.02,0.54,0.15,0.73,0.36
			c0.17,0.2,0.29,0.43,0.38,0.7s0.17,0.79,0.24,1.57c0.05,0.49,0.12,0.88,0.23,1.16c0.08,0.21,0.19,0.41,0.36,0.61
			c0.35,0.41,0.79,0.64,1.34,0.67c0.55,0.04,1.03-0.12,1.45-0.48c0.89-0.76,1.24-1.8,1.05-3.15c-0.19-1.35-0.85-2.71-2-4.06
			c-0.12-0.14-0.29-0.34-0.52-0.61L491.04,110.77z"/>
		<path fill="#231F20" d="M496.46,127.67c-1.03,0.86-2.1,1.52-3.23,1.98c-0.69,0.29-1.33,0.43-1.92,0.43c-0.59,0-1.15-0.1-1.66-0.29
			c-0.51-0.2-0.95-0.51-1.32-0.95c-0.42-0.5-0.66-1.05-0.75-1.66c-0.08-0.61-0.02-1.27,0.19-1.97c0.16-0.51,0.44-1.09,0.88-1.73
			c0.59-0.87,1.3-1.64,2.12-2.35c1.12-0.94,2.27-1.65,3.47-2.11c0.99-0.39,1.91-0.5,2.76-0.32c0.85,0.18,1.52,0.55,2.02,1.14
			c0.5,0.6,0.76,1.32,0.79,2.18c0.03,0.86-0.2,1.7-0.68,2.52C498.48,125.69,497.59,126.72,496.46,127.67z M494.53,125.32
			c1.79-1.51,2.84-2.4,3.12-2.67c0.66-0.64,1.03-1.16,1.12-1.56c0.05-0.26-0.04-0.53-0.27-0.83c-0.18-0.22-0.39-0.34-0.61-0.36
			c-0.33-0.04-0.75,0.1-1.25,0.41s-2.09,1.59-4.76,3.83c-1.46,1.22-2.39,2.1-2.8,2.61c-0.29,0.38-0.44,0.69-0.45,0.93
			c-0.01,0.24,0.09,0.48,0.29,0.71c0.21,0.25,0.46,0.37,0.72,0.37c0.46-0.02,1-0.27,1.62-0.74L494.53,125.32z"/>
	</g>
	<g enable-background="new    ">
		<path fill="#231F20" d="M449.4,83.42l10.43-2.52l0.92,0.78l-5.54,6.62l0.94,0.79l-1.32,1.57l-0.94-0.79l-1.93,2.3l-2.08-1.75
			l1.93-2.3L448.09,85L449.4,83.42z M450.14,84.03l3,2.51l3.39-4.06L450.14,84.03z"/>
		<path fill="#231F20" d="M465.05,94.36c-0.86,1.03-1.81,1.86-2.83,2.51c-0.63,0.4-1.24,0.66-1.82,0.76c-0.58,0.11-1.15,0.11-1.68,0
			c-0.54-0.1-1.03-0.34-1.47-0.7c-0.49-0.42-0.84-0.92-1.02-1.51c-0.18-0.59-0.24-1.25-0.16-1.97c0.07-0.52,0.25-1.15,0.56-1.86
			c0.43-0.96,0.99-1.84,1.68-2.67c0.94-1.12,1.96-2.01,3.05-2.68c0.91-0.56,1.79-0.82,2.67-0.79c0.87,0.03,1.6,0.29,2.18,0.77
			c0.6,0.5,0.97,1.17,1.16,2.01c0.19,0.84,0.1,1.71-0.24,2.6C466.68,92.06,465.99,93.24,465.05,94.36z M462.73,92.39
			c1.51-1.8,2.38-2.85,2.6-3.17c0.54-0.74,0.82-1.32,0.83-1.73c0.01-0.27-0.13-0.53-0.41-0.76c-0.22-0.18-0.44-0.26-0.67-0.25
			c-0.33,0.02-0.72,0.23-1.15,0.62c-0.44,0.39-1.78,1.92-4.03,4.6c-1.22,1.45-1.99,2.48-2.3,3.05c-0.23,0.42-0.32,0.75-0.28,0.99
			c0.04,0.24,0.19,0.46,0.41,0.65c0.25,0.21,0.51,0.29,0.77,0.23c0.45-0.1,0.94-0.44,1.46-1.01L462.73,92.39z"/>
	</g>
	<g enable-background="new    ">
		<path fill="#231F20" d="M414.4,58.84l0.17-0.31c0.75,0.19,1.31,0.27,1.66,0.25c0.35-0.02,0.71-0.15,1.08-0.37
			c0.38-0.23,0.66-0.51,0.86-0.85c0.27-0.47,0.34-0.98,0.19-1.52c-0.15-0.54-0.48-0.96-1-1.25c-0.8-0.46-1.72-0.42-2.77,0.09
			l-0.25-0.29c0.96-0.73,1.9-1.13,2.82-1.24c0.92-0.11,1.77,0.06,2.56,0.52c0.8,0.46,1.33,1.09,1.57,1.89
			c0.24,0.79,0.17,1.52-0.21,2.18c-0.25,0.43-0.61,0.77-1.08,1.03c-0.47,0.26-1.06,0.39-1.75,0.39c0.48,0.71,0.76,1.41,0.84,2.09
			c0.08,0.68-0.09,1.38-0.51,2.1c-0.7,1.21-1.73,1.99-3.1,2.33c-1.37,0.34-2.79,0.09-4.26-0.76c-0.97-0.57-1.6-1.15-1.87-1.72
			c-0.2-0.42-0.19-0.81,0.02-1.17c0.15-0.26,0.38-0.43,0.66-0.51c0.3-0.08,0.57-0.04,0.81,0.1c0.19,0.11,0.34,0.25,0.46,0.43
			c0.07,0.1,0.25,0.54,0.54,1.31c0.29,0.78,0.68,1.3,1.17,1.58c0.42,0.24,0.88,0.29,1.38,0.13c0.5-0.16,0.89-0.5,1.19-1.01
			c0.45-0.78,0.59-1.66,0.43-2.64C415.87,60.62,415.31,59.7,414.4,58.84z"/>
		<path fill="#231F20" d="M428.71,67.11c-0.67,1.16-1.46,2.15-2.35,2.96c-0.55,0.5-1.09,0.86-1.66,1.06s-1.11,0.3-1.66,0.29
			s-1.07-0.15-1.56-0.44c-0.57-0.32-0.98-0.76-1.27-1.3c-0.29-0.55-0.46-1.19-0.5-1.92c-0.03-0.53,0.05-1.18,0.24-1.93
			c0.26-1.02,0.67-1.99,1.2-2.92c0.73-1.26,1.57-2.33,2.53-3.17c0.8-0.72,1.63-1.12,2.49-1.24c0.86-0.11,1.63,0,2.29,0.39
			c0.67,0.39,1.17,0.98,1.49,1.78s0.39,1.67,0.22,2.6C429.92,64.56,429.45,65.84,428.71,67.11z M426.07,65.57
			c1.17-2.03,1.85-3.23,2.02-3.58c0.4-0.83,0.57-1.44,0.52-1.85c-0.04-0.27-0.22-0.48-0.54-0.67c-0.26-0.14-0.48-0.19-0.7-0.13
			c-0.33,0.09-0.67,0.35-1.04,0.81s-1.41,2.21-3.17,5.24c-0.95,1.65-1.53,2.78-1.73,3.42c-0.15,0.46-0.18,0.8-0.1,1.03
			s0.26,0.42,0.51,0.57c0.29,0.17,0.55,0.2,0.8,0.1c0.43-0.18,0.85-0.61,1.26-1.25L426.07,65.57z"/>
	</g>
	<g enable-background="new    ">
		<path fill="#231F20" d="M375.07,48.84l-7.42-2.7l0.07-0.21c3.26-1.88,5.29-3.21,6.13-3.97c0.83-0.76,1.4-1.58,1.73-2.48
			c0.24-0.65,0.23-1.26-0.01-1.84c-0.25-0.58-0.66-0.97-1.25-1.17c-0.95-0.35-1.87-0.14-2.74,0.62l-0.31-0.25
			c0.77-1.07,1.6-1.77,2.49-2.08c0.89-0.32,1.78-0.32,2.67,0c0.64,0.23,1.17,0.59,1.59,1.08c0.42,0.49,0.69,1.05,0.79,1.67
			c0.11,0.63,0.08,1.16-0.08,1.62c-0.3,0.82-0.83,1.58-1.6,2.26c-1.04,0.92-2.99,2.03-5.84,3.32l2.72,0.99
			c0.67,0.24,1.13,0.37,1.35,0.39c0.22,0.02,0.41-0.02,0.6-0.1c0.18-0.09,0.45-0.3,0.83-0.65l0.33,0.12L375.07,48.84z"/>
		<path fill="#231F20" d="M387.81,46.33c-0.46,1.26-1.06,2.37-1.81,3.33c-0.44,0.59-0.94,1.04-1.45,1.35
			c-0.51,0.29-1.04,0.5-1.58,0.58c-0.54,0.09-1.08,0.03-1.62-0.16c-0.61-0.21-1.1-0.58-1.48-1.06c-0.37-0.49-0.65-1.09-0.82-1.8
			c-0.12-0.52-0.15-1.17-0.1-1.94c0.08-1.04,0.3-2.06,0.67-3.08c0.5-1.37,1.15-2.56,1.95-3.56c0.66-0.83,1.41-1.38,2.23-1.66
			c0.83-0.27,1.61-0.28,2.33-0.01c0.73,0.27,1.32,0.76,1.78,1.49c0.45,0.73,0.68,1.57,0.67,2.52
			C388.57,43.63,388.31,44.96,387.81,46.33z M384.96,45.27c0.8-2.22,1.26-3.5,1.37-3.87c0.25-0.88,0.31-1.52,0.19-1.91
			c-0.08-0.25-0.3-0.44-0.64-0.57c-0.27-0.1-0.51-0.1-0.71-0.01c-0.3,0.13-0.6,0.46-0.88,0.98c-0.28,0.52-1.02,2.42-2.21,5.7
			c-0.65,1.8-1.02,3-1.12,3.66c-0.07,0.47-0.04,0.82,0.08,1.03s0.32,0.37,0.61,0.47c0.31,0.11,0.58,0.1,0.81-0.04
			c0.39-0.25,0.73-0.74,1.03-1.45L384.96,45.27z"/>
	</g>
	<g enable-background="new    ">
		<path fill="#231F20" d="M332.67,24.12l-1.9,10.81c-0.14,0.81-0.2,1.34-0.17,1.57c0.03,0.24,0.15,0.44,0.35,0.63
			c0.2,0.18,0.55,0.32,1.05,0.41l0.29,0.05l-0.06,0.36l-6.96-1.22l0.06-0.36l0.35,0.06c0.57,0.1,0.97,0.11,1.24,0.02
			c0.26-0.09,0.46-0.24,0.58-0.45s0.26-0.73,0.41-1.57l1.21-6.85c0.11-0.61,0.15-1,0.11-1.16c-0.03-0.15-0.12-0.31-0.26-0.45
			c-0.14-0.13-0.31-0.22-0.52-0.26c-0.33-0.06-0.75-0.03-1.26,0.1l-0.11-0.37l5.25-1.37L332.67,24.12z"/>
		<path fill="#231F20" d="M344.19,33.23c-0.23,1.32-0.62,2.52-1.2,3.59c-0.34,0.66-0.74,1.19-1.19,1.58
			c-0.45,0.38-0.94,0.66-1.45,0.84c-0.52,0.18-1.06,0.22-1.62,0.12c-0.64-0.11-1.18-0.38-1.64-0.78c-0.46-0.42-0.83-0.96-1.12-1.63
			c-0.21-0.49-0.35-1.12-0.44-1.9c-0.1-1.04-0.06-2.09,0.12-3.15c0.25-1.44,0.69-2.72,1.3-3.86c0.51-0.94,1.13-1.61,1.9-2.02
			c0.77-0.41,1.53-0.55,2.28-0.43c0.77,0.14,1.44,0.52,2.01,1.16c0.57,0.64,0.94,1.43,1.1,2.37
			C344.46,30.41,344.44,31.79,344.19,33.23z M341.19,32.69c0.41-2.31,0.62-3.66,0.67-4.04c0.09-0.92,0.05-1.55-0.16-1.91
			c-0.13-0.24-0.37-0.39-0.73-0.44c-0.28-0.05-0.51-0.01-0.71,0.12c-0.28,0.18-0.51,0.56-0.7,1.12c-0.19,0.56-0.58,2.56-1.19,6
			c-0.33,1.87-0.49,3.13-0.47,3.79c0.02,0.47,0.1,0.81,0.27,1c0.16,0.19,0.39,0.31,0.68,0.36c0.33,0.06,0.59,0,0.79-0.18
			c0.34-0.31,0.59-0.85,0.76-1.61L341.19,32.69z"/>
	</g>
	<g enable-background="new    ">
		<path fill="#231F20" d="M532.44,369.63l9.17,7.21l0.95-2.62c0.37-1.02,0.52-1.85,0.44-2.45c-0.05-0.43-0.3-0.86-0.73-1.28
			l0.13-0.35l3.59,2.33l-2.73,7.51l-11.33-8.91L532.44,369.63z"/>
		<path fill="#231F20" d="M533.58,386.99c-1.26-0.46-2.37-1.06-3.34-1.82c-0.6-0.45-1.04-0.94-1.33-1.45
			c-0.3-0.51-0.49-1.05-0.58-1.58c-0.08-0.54-0.04-1.09,0.16-1.62c0.22-0.61,0.57-1.1,1.06-1.48c0.49-0.37,1.09-0.65,1.8-0.82
			c0.52-0.12,1.17-0.15,1.95-0.11c1.05,0.08,2.08,0.3,3.09,0.67c1.37,0.5,2.55,1.15,3.56,1.95c0.83,0.66,1.39,1.4,1.66,2.23
			c0.27,0.83,0.28,1.61,0.01,2.33c-0.27,0.73-0.76,1.32-1.49,1.77c-0.73,0.46-1.57,0.68-2.52,0.67
			C536.3,387.74,534.95,387.49,533.58,386.99z M534.63,384.13c2.21,0.8,3.5,1.26,3.87,1.37c0.88,0.25,1.52,0.31,1.91,0.19
			c0.25-0.09,0.44-0.3,0.58-0.64c0.1-0.26,0.1-0.51,0.01-0.71c-0.13-0.3-0.46-0.6-0.98-0.88c-0.52-0.28-2.42-1.01-5.7-2.21
			c-1.79-0.66-3.01-1.02-3.66-1.12c-0.47-0.06-0.82-0.04-1.03,0.08c-0.21,0.11-0.37,0.32-0.47,0.61c-0.11,0.31-0.1,0.58,0.04,0.81
			c0.26,0.38,0.73,0.73,1.45,1.03L534.63,384.13z"/>
	</g>
</g>
</svg>
