<?xml version="1.0" encoding="utf-8"?>
<!-- Generator: Adobe Illustrator 16.0.0, SVG Export Plug-In . SVG Version: 6.00 Build 0)  -->
<!DOCTYPE svg PUBLIC "-//W3C//DTD SVG 1.1//EN" "http://www.w3.org/Graphics/SVG/1.1/DTD/svg11.dtd">
<svg version="1.1" xmlns="http://www.w3.org/2000/svg" xmlns:xlink="http://www.w3.org/1999/xlink" x="0px" y="0px"
	 width="1608.16px" height="1509.15px" viewBox="0 0 1608.16 1509.15" enable-background="new 0 0 1608.16 1509.15"
	 xml:space="preserve">
<g id="Layer_1">
</g>
<g id="Layer_2">
	<g>
		<g id="BG_color">
			<g>
				
					<radialGradient id="SVGID_1_" cx="757.6807" cy="763.0562" r="838.9394" gradientTransform="matrix(1 0 0 0.8365 0 124.7368)" gradientUnits="userSpaceOnUse">
					<stop  offset="0" style="stop-color:#C0C4CF"/>
					<stop  offset="0.9882" style="stop-color:#B5B5BF"/>
				</radialGradient>
				<polygon fill-rule="evenodd" clip-rule="evenodd" fill="url(#SVGID_1_)" points="-3.64,367.66 3.06,293.51 1614.61,293.51 
					1614.61,1303.71 -3.64,1303.71 				"/>
			</g>
		</g>
		<g id="shadow">
			<g>
				<path fill-rule="evenodd" clip-rule="evenodd" fill-opacity="0.1176" d="M1340.86-12.89l0.8,1527.2l-134.75,0.1l-0.3-445.6
					l-151.1,0.2c-64.6,58.87-140.8,89.87-228.6,93c-4.77,0.13-9.52,0.2-14.25,0.2c-57.9,0.1-110.92-11.67-159.05-35.3
					c-29.83-14.63-57.83-33.82-84-57.55l-168.25,0.15l0.15,445.55l-84.55,0.1l-1.25-1557.7l84.8-0.15l0.4,549.05l194.95-0.15
					c8.1-6.17,16.4-11.9,24.9-17.2c56.3-35.8,120.07-53.77,191.3-53.9c4.73,0,9.48,0.12,14.25,0.35
					c76.1,2.47,143.5,25.93,202.2,70.4l177.75-0.15l-0.5-518.4L1340.86-12.89z M401.11,694.16v187.7l56.55-0.05
					c-5.87-26.33-8.8-53.92-8.8-82.75c0-37.03,4.8-72.05,14.4-105.05L401.11,694.16z M1161.36,693.56
					c9.67,32.97,14.5,67.92,14.5,104.85c0,28.87-2.93,56.5-8.8,82.9l39.35-0.1l-0.05-187.7L1161.36,693.56z"/>
			</g>
		</g>
		<g id="black_pieces">
			<g>
				<g>
					
						<linearGradient id="SVGID_2_" gradientUnits="userSpaceOnUse" x1="1234.2637" y1="-54.7207" x2="1235.3964" y2="1571.8408" gradientTransform="matrix(0.9988 0 0 0.9988 6.0023 52.7968)">
						<stop  offset="0" style="stop-color:#858889"/>
						<stop  offset="0.0667" style="stop-color:#C2C8CD"/>
						<stop  offset="0.3137" style="stop-color:#E8ECF5"/>
						<stop  offset="0.4863" style="stop-color:#A7AEB9"/>
						<stop  offset="0.6" style="stop-color:#B5BCC6"/>
						<stop  offset="0.7255" style="stop-color:#F3F6FF"/>
						<stop  offset="0.8941" style="stop-color:#FFFFFF"/>
						<stop  offset="1" style="stop-color:#E6EAF3"/>
					</linearGradient>
					<polygon fill-rule="evenodd" clip-rule="evenodd" fill="url(#SVGID_2_)" points="1175.71,63.35 1301.91,63.25 1302.26,487.19 
						1302.26,514.16 1302.66,1187.19 1302.66,1266.55 1302.86,1490.93 1176.76,1491.03 1176.61,1266.55 1176.61,1187.19 
						1176.01,514.16 1176.01,487.09 					"/>
					
						<linearGradient id="SVGID_3_" gradientUnits="userSpaceOnUse" x1="351.4648" y1="-83.8643" x2="352.8085" y2="1575.2191" gradientTransform="matrix(0.9988 0 0 0.9988 6.0023 52.7968)">
						<stop  offset="0" style="stop-color:#858889"/>
						<stop  offset="0.0667" style="stop-color:#C2C8CD"/>
						<stop  offset="0.3137" style="stop-color:#E8ECF5"/>
						<stop  offset="0.4863" style="stop-color:#A7AEB9"/>
						<stop  offset="0.6" style="stop-color:#B5BCC6"/>
						<stop  offset="0.7255" style="stop-color:#F3F6FF"/>
						<stop  offset="0.8941" style="stop-color:#FFFFFF"/>
						<stop  offset="1" style="stop-color:#E6EAF3"/>
					</linearGradient>
					<polygon fill-rule="evenodd" clip-rule="evenodd" fill="url(#SVGID_3_)" points="423.22,487.09 423.22,514.16 423.57,1187.19 
						423.57,1266.55 423.67,1491.58 292.48,1491.68 291.23,35.38 422.97,35.28 					"/>
				</g>
				<g>
					<g>
						<path fill-rule="evenodd" clip-rule="evenodd" d="M1311.79,674.79l-1029.51,0.75V503.34l1029.36-0.75L1311.79,674.79z
							 M1307.84,1025.81l-1025.56,0.75V854.42l1025.51-0.8L1307.84,1025.81z"/>
					</g>
					<g>
						
							<linearGradient id="SVGID_4_" gradientUnits="userSpaceOnUse" x1="-190.0918" y1="-265.7778" x2="899.2178" y2="-265.7778" gradientTransform="matrix(-0.9111 0.4092 -0.5946 -0.8279 931.0048 409.1151)">
							<stop  offset="0" style="stop-color:#3C3C3C"/>
							<stop  offset="1" style="stop-color:#000000"/>
						</linearGradient>
						<path fill-rule="evenodd" clip-rule="evenodd" fill="url(#SVGID_4_)" d="M1311.79,671.44l-1029.41,0.75L282.28,500
							l1029.36-0.75L1311.79,671.44z M1307.84,1022.37l-1025.56,0.75l0.1-172.14l1025.41-0.75L1307.84,1022.37z"/>
					</g>
				</g>
			</g>
		</g>
	</g>
</g>
</svg>
