<?xml version="1.0" encoding="utf-8"?>
<!-- Generator: Adobe Illustrator 16.0.0, SVG Export Plug-In . SVG Version: 6.00 Build 0)  -->
<!DOCTYPE svg PUBLIC "-//W3C//DTD SVG 1.1//EN" "http://www.w3.org/Graphics/SVG/1.1/DTD/svg11.dtd">
<svg version="1.1" id="Layer_3" xmlns="http://www.w3.org/2000/svg" xmlns:xlink="http://www.w3.org/1999/xlink" x="0px" y="0px"
	 width="44.17px" height="45.83px" viewBox="0 0 44.17 45.83" enable-background="new 0 0 44.17 45.83" xml:space="preserve">
<g id="middle_steel_round">
	<g>
		<g>
			
				<linearGradient id="SVGID_1_" gradientUnits="userSpaceOnUse" x1="20.6079" y1="49.1753" x2="20.808" y2="7.4263" gradientTransform="matrix(0.9988 0 0 0.9988 1.5245 -5.9928)">
				<stop  offset="0" style="stop-color:#81858A"/>
				<stop  offset="0.549" style="stop-color:#808989"/>
				<stop  offset="1" style="stop-color:#4F504E"/>
			</linearGradient>
			<path fill-rule="evenodd" clip-rule="evenodd" fill="url(#SVGID_1_)" d="M36.94,7.46c4.06,4.16,6.09,9.07,6.09,14.73
				c0,5.76-2.03,10.67-6.09,14.73c-4.06,4.1-8.97,6.14-14.73,6.14s-10.67-2.05-14.73-6.14c-4.06-4.06-6.09-8.97-6.09-14.73
				c0-5.66,2.03-10.57,6.09-14.73c4.06-4.06,8.97-6.09,14.73-6.09S32.88,3.39,36.94,7.46z"/>
		</g>
		<g>
			
				<radialGradient id="SVGID_2_" cx="-488.5171" cy="177.5112" r="9.3366" gradientTransform="matrix(0.6887 -0.7234 0.9614 0.7288 176.0993 -467.521)" gradientUnits="userSpaceOnUse">
				<stop  offset="0" style="stop-color:#FFFFFF"/>
				<stop  offset="0.1765" style="stop-color:#FFFFFF"/>
				<stop  offset="0.3059" style="stop-color:#FFFFFF;stop-opacity:0.4235"/>
				<stop  offset="0.4902" style="stop-color:#FFFFFF;stop-opacity:0.2314"/>
				<stop  offset="0.651" style="stop-color:#FFFFFF;stop-opacity:0.0824"/>
				<stop  offset="1" style="stop-color:#FFFFFF;stop-opacity:0"/>
			</radialGradient>
			<path fill-rule="evenodd" clip-rule="evenodd" fill="url(#SVGID_2_)" d="M21.11,15.35c0.47,2.66-0.15,4.89-1.85,6.69
				c-1.73,1.83-4.13,2.75-7.19,2.75c-2.8,0-5.48-0.96-8.04-2.9c-2.46-1.8-3.05-3.9-1.75-6.29c0.9-2.4,1.98-4.46,3.25-6.19
				c1.13-1.66,2.73-2.66,4.79-3c1.83-0.4,4.03,0.38,6.59,2.35C19.31,10.52,20.71,12.72,21.11,15.35z"/>
		</g>
		<g>
			
				<radialGradient id="SVGID_3_" cx="206.9121" cy="-447.2495" r="9.3251" gradientTransform="matrix(0.6507 0.7578 -0.8207 0.8836 -471.9161 249.3956)" gradientUnits="userSpaceOnUse">
				<stop  offset="0" style="stop-color:#FFFFFF"/>
				<stop  offset="0.1765" style="stop-color:#FFFFFF"/>
				<stop  offset="0.3059" style="stop-color:#FFFFFF;stop-opacity:0.4235"/>
				<stop  offset="0.4902" style="stop-color:#FFFFFF;stop-opacity:0.2314"/>
				<stop  offset="0.651" style="stop-color:#FFFFFF;stop-opacity:0.0824"/>
				<stop  offset="1" style="stop-color:#FFFFFF;stop-opacity:0"/>
			</radialGradient>
			<path fill-rule="evenodd" clip-rule="evenodd" fill="url(#SVGID_3_)" d="M23.86,4.06c2.06-2.23,4.25-2.63,6.54-1.2
				c2.3,1.2,4.23,2.48,5.79,3.85c1.56,1.4,2.36,3.11,2.4,5.14c0.17,1.9-0.83,4.01-3,6.34c-2,2.16-4.28,3.33-6.84,3.5
				c-2.76,0.23-4.94-0.6-6.54-2.5c-1.63-1.9-2.3-4.38-2-7.44C20.48,8.95,21.69,6.39,23.86,4.06z"/>
		</g>
		<g>
			<path fill-rule="evenodd" clip-rule="evenodd" fill="#6C6E6E" d="M31.35,18.54c0.03,0.29,0.05,0.53,0.05,0.72v-0.57
				c0.33,1.63,0.53,2.63,0.6,3c0,0.3,0,0.62,0,0.95c0,2.83-1,5.26-3,7.29c-2.03,2.06-4.53,3.1-7.49,3.1c-2.83,0-5.24-1.03-7.24-3.1
				c-1.63-1.56-2.61-3.41-2.95-5.54c-0.1-0.6-0.15-1.18-0.15-1.75c0-0.33,0.05-0.65,0.15-0.95c0.1-2.5,1.08-4.66,2.95-6.49
				c2-2.03,4.41-3.05,7.24-3.05c2.96,0,5.46,1.02,7.49,3.05C30.03,16.26,30.81,17.38,31.35,18.54z"/>
		</g>
		<g>
			<g>
				<path fill-rule="evenodd" clip-rule="evenodd" fill="#7E8687" d="M24.61,30.33c-0.87,0.33-1.75,0.55-2.65,0.65v0.1
					c3.5,0.56,5.48-0.33,5.94-2.7c0.17-0.1,0.3-0.23,0.4-0.4c1.63-1.6,2.53-3.53,2.7-5.79c0-0.33,0-0.58,0-0.75c0-0.33,0-0.67,0-1
					l-0.1-0.65c0.33,1.4,0.53,2.28,0.6,2.65c0,0.23,0,0.5,0,0.8c0,2.6-0.9,4.79-2.7,6.59c-1.83,1.8-4.03,2.7-6.59,2.7
					s-4.74-0.9-6.54-2.7c-1.43-1.46-2.31-3.11-2.65-4.94c0.43,1.13,1.15,2.16,2.15,3.1c0.97,0.96,2.05,1.7,3.25,2.2h-0.05
					c-0.07,0.03-0.13,0.08-0.2,0.15v0.15c0,0.07,0,0.13,0,0.2v0.15c0,0.1,0,0.18,0,0.25c0.07,0.07,0.1,0.12,0.1,0.15
					c0.07,0.13,0.12,0.2,0.15,0.2c0.07,0.1,0.17,0.18,0.3,0.25c0.17,0,0.33,0.03,0.5,0.1c0.1,0,0.2-0.04,0.3-0.1
					c0.13,0,0.22-0.03,0.25-0.1c0.07-0.03,0.13-0.08,0.2-0.15c0.03-0.07,0.08-0.15,0.15-0.25c0-0.07,0-0.13,0-0.2
					c0.07-0.03,0.1-0.08,0.1-0.15s0-0.15,0-0.25c0.5,0.07,1,0.1,1.5,0.1C22.71,30.68,23.67,30.56,24.61,30.33z"/>
				
					<radialGradient id="SVGID_4_" cx="20.209" cy="34.0142" r="10.5625" gradientTransform="matrix(0.9988 0 0 0.9988 1.5245 -5.9928)" gradientUnits="userSpaceOnUse">
					<stop  offset="0" style="stop-color:#676A60"/>
					<stop  offset="0.4431" style="stop-color:#70736B"/>
					<stop  offset="0.502" style="stop-color:#74776F"/>
					<stop  offset="1" style="stop-color:#7E7F77"/>
				</radialGradient>
				<path fill-rule="evenodd" clip-rule="evenodd" fill="url(#SVGID_4_)" d="M31,20.44c0,0.33,0,0.67,0,1c0,0.17,0,0.42,0,0.75
					c-0.17,2.26-1.07,4.2-2.7,5.79c-0.1,0.17-0.23,0.3-0.4,0.4c0.07-0.27,0.1-0.57,0.1-0.9c-0.97,1.3-2.1,2.25-3.4,2.85
					c-0.93,0.23-1.9,0.35-2.9,0.35c-0.5,0-1-0.03-1.5-0.1c0-0.07-0.03-0.1-0.1-0.1c0-0.03-0.03-0.12-0.1-0.25
					c-0.03-0.03-0.08-0.08-0.15-0.15c-0.07-0.07-0.15-0.15-0.25-0.25c-0.1,0-0.23-0.03-0.4-0.1v0.1c-0.13,0-0.28,0-0.45,0
					c-0.03,0-0.12,0.03-0.25,0.1c-0.07,0.1-0.1,0.18-0.1,0.25c-1.2-0.5-2.28-1.23-3.25-2.2c-1-0.93-1.71-1.96-2.15-3.1
					c-0.07-0.57-0.1-1.12-0.1-1.65c0-0.3,0.03-0.57,0.1-0.8c0.17-2.23,1.05-4.18,2.65-5.84c1.8-1.76,3.98-2.65,6.54-2.65
					s4.76,0.88,6.59,2.65c0.9,0.97,1.58,1.98,2.05,3.05C30.88,19.97,30.93,20.24,31,20.44z"/>
				<path fill-rule="evenodd" clip-rule="evenodd" fill="#E0E6EA" d="M20.21,30.58c0,0.1,0,0.18,0,0.25s-0.03,0.12-0.1,0.15
					c0,0.07,0,0.13,0,0.2c-0.07,0.1-0.12,0.18-0.15,0.25c-0.07,0.07-0.13,0.12-0.2,0.15c-0.03,0.07-0.12,0.1-0.25,0.1
					c-0.1,0.07-0.2,0.1-0.3,0.1c-0.17-0.07-0.33-0.1-0.5-0.1c-0.13-0.07-0.23-0.15-0.3-0.25c-0.03,0-0.08-0.07-0.15-0.2
					c0-0.03-0.03-0.08-0.1-0.15c0-0.07,0-0.15,0-0.25v-0.15c0-0.07,0-0.13,0-0.2v-0.15c0.07-0.07,0.13-0.12,0.2-0.15h0.05
					c0-0.07,0.03-0.15,0.1-0.25c0.13-0.07,0.22-0.1,0.25-0.1c0.17,0,0.32,0,0.45,0v-0.1c0.17,0.07,0.3,0.1,0.4,0.1
					c0.1,0.1,0.18,0.18,0.25,0.25c0.07,0.07,0.12,0.12,0.15,0.15c0.07,0.13,0.1,0.22,0.1,0.25C20.18,30.48,20.21,30.51,20.21,30.58z
					"/>
				<path fill-rule="evenodd" clip-rule="evenodd" fill="#989C9A" d="M27.9,28.38c-0.47,2.36-2.45,3.26-5.94,2.7v-0.1
					c0.9-0.1,1.78-0.32,2.65-0.65c1.3-0.6,2.43-1.55,3.4-2.85C28,27.81,27.97,28.11,27.9,28.38z"/>
			</g>
		</g>
		<g>
			
				<radialGradient id="SVGID_5_" cx="207.6045" cy="-439.4551" r="5.9048" gradientTransform="matrix(0.6491 0.7591 -0.8267 0.8817 -473.95 247.7068)" gradientUnits="userSpaceOnUse">
				<stop  offset="0" style="stop-color:#FFFFFF;stop-opacity:0.3294"/>
				<stop  offset="0.1765" style="stop-color:#FFFFFF;stop-opacity:0.3294"/>
				<stop  offset="0.3059" style="stop-color:#FFFFFF;stop-opacity:0.2118"/>
				<stop  offset="0.4902" style="stop-color:#FFFFFF;stop-opacity:0.0902"/>
				<stop  offset="0.651" style="stop-color:#FFFFFF;stop-opacity:0.0275"/>
				<stop  offset="1" style="stop-color:#FFFFFF;stop-opacity:0"/>
			</radialGradient>
			<path fill-rule="evenodd" clip-rule="evenodd" fill="url(#SVGID_5_)" d="M29.8,18.44c0.07,1.23-0.6,2.56-2,4
				c-1.27,1.4-2.71,2.13-4.35,2.2c-1.73,0.17-3.1-0.37-4.09-1.6c-1.07-1.17-1.48-2.73-1.25-4.69c0.1-1.76,0.88-3.38,2.35-4.84
				c1.27-1.4,2.6-1.65,4-0.75c1.46,0.73,2.7,1.56,3.7,2.5C29.15,16.08,29.7,17.14,29.8,18.44z"/>
		</g>
		<g>
			
				<radialGradient id="SVGID_6_" cx="-186.6094" cy="124.0063" r="5.9278" gradientTransform="matrix(0.9562 -0.2885 0.476 1.1078 135.3262 -171.7716)" gradientUnits="userSpaceOnUse">
				<stop  offset="0" style="stop-color:#FFFFFF;stop-opacity:0.3255"/>
				<stop  offset="0.1765" style="stop-color:#FFFFFF;stop-opacity:0.3255"/>
				<stop  offset="0.3059" style="stop-color:#FFFFFF;stop-opacity:0.2118"/>
				<stop  offset="0.4902" style="stop-color:#FFFFFF;stop-opacity:0.0863"/>
				<stop  offset="0.651" style="stop-color:#FFFFFF;stop-opacity:0.0275"/>
				<stop  offset="1" style="stop-color:#FFFFFF;stop-opacity:0"/>
			</radialGradient>
			<path fill-rule="evenodd" clip-rule="evenodd" fill="url(#SVGID_6_)" d="M13.92,25.28c-1.5-0.87-2.66-2.23-3.5-4.1
				c-0.7-1.76-0.37-3.1,1-4c1.27-1.07,2.55-1.88,3.85-2.45c1.17-0.6,2.33-0.65,3.5-0.15c1.13,0.43,2.11,1.58,2.95,3.45
				c0.73,1.66,0.82,3.28,0.25,4.84c-0.57,1.6-1.63,2.63-3.2,3.1C17.26,26.48,15.65,26.25,13.92,25.28z"/>
		</g>
		<g>
			
				<radialGradient id="SVGID_7_" cx="20.584" cy="35.4644" r="20.2153" gradientTransform="matrix(0.9988 0 0 0.9988 1.5245 -5.9928)" gradientUnits="userSpaceOnUse">
				<stop  offset="0" style="stop-color:#626860;stop-opacity:0.498"/>
				<stop  offset="0.5647" style="stop-color:#585B55;stop-opacity:0.3294"/>
				<stop  offset="1" style="stop-color:#545557;stop-opacity:0"/>
			</radialGradient>
			<path fill-rule="evenodd" clip-rule="evenodd" fill="url(#SVGID_7_)" d="M39.44,20.14c0,0.37,0,0.72,0,1.05
				c0,4.79-1.7,8.87-5.09,12.23c-3.36,3.4-7.46,5.1-12.29,5.1c-4.76,0-8.84-1.7-12.24-5.1c-3.4-3.36-5.09-7.44-5.09-12.23
				c0-0.33,0.02-0.68,0.05-1.05c0.23,4.33,1.91,8.09,5.04,11.29c3.4,3.33,7.47,4.99,12.24,4.99c4.83,0,8.92-1.66,12.29-4.99
				C37.51,28.23,39.2,24.47,39.44,20.14z"/>
		</g>
		<g>
			
				<radialGradient id="SVGID_8_" cx="-751.7715" cy="121.7085" r="3.4151" gradientTransform="matrix(0.3071 -0.9504 3.162 0.6506 -135.2089 -753.0997)" gradientUnits="userSpaceOnUse">
				<stop  offset="0" style="stop-color:#FFFFFF;stop-opacity:0.3294"/>
				<stop  offset="0.1765" style="stop-color:#FFFFFF;stop-opacity:0.3294"/>
				<stop  offset="0.3059" style="stop-color:#FFFFFF;stop-opacity:0.2118"/>
				<stop  offset="0.4902" style="stop-color:#FFFFFF;stop-opacity:0.0902"/>
				<stop  offset="0.651" style="stop-color:#FFFFFF;stop-opacity:0.0275"/>
				<stop  offset="1" style="stop-color:#FFFFFF;stop-opacity:0"/>
			</radialGradient>
			<path fill-rule="evenodd" clip-rule="evenodd" fill="url(#SVGID_8_)" d="M20.11,37.37c2.9,0.6,5.24,1.43,7.04,2.5
				c1.9,1.06,2.68,2.05,2.35,2.95c-0.23,0.83-1.55,1.37-3.94,1.6c-2.13,0.17-4.69-0.07-7.69-0.7c-2.9-0.6-4.59-1.46-5.09-2.6
				c-0.63-1-1-1.91-1.1-2.75c-0.07-0.73,0.6-1.22,2-1.45C14.93,36.59,17.08,36.74,20.11,37.37z"/>
		</g>
		<g>
			
				<radialGradient id="SVGID_9_" cx="-998.0088" cy="-450.3813" r="3.4257" gradientTransform="matrix(-0.7435 -0.6669 1.5708 -2.2049 2.4938 -1624.4304)" gradientUnits="userSpaceOnUse">
				<stop  offset="0" style="stop-color:#FFFFFF;stop-opacity:0.3294"/>
				<stop  offset="0.1765" style="stop-color:#FFFFFF;stop-opacity:0.3294"/>
				<stop  offset="0.3059" style="stop-color:#FFFFFF;stop-opacity:0.2118"/>
				<stop  offset="0.4902" style="stop-color:#FFFFFF;stop-opacity:0.0902"/>
				<stop  offset="0.651" style="stop-color:#FFFFFF;stop-opacity:0.0275"/>
				<stop  offset="1" style="stop-color:#FFFFFF;stop-opacity:0"/>
			</radialGradient>
			<path fill-rule="evenodd" clip-rule="evenodd" fill="url(#SVGID_9_)" d="M39.04,27.33c1.56-1.06,2.68-1.3,3.35-0.7
				c0.67,0.63,0.72,1.91,0.15,3.85c-0.57,1.8-1.6,3.76-3.1,5.89c-1.43,2.06-2.68,3.03-3.75,2.9c-1.13,0-2.08-0.13-2.85-0.4
				c-0.67-0.27-0.92-1.02-0.75-2.25c0.17-1.07,1.03-2.68,2.6-4.84C36.09,29.74,37.54,28.26,39.04,27.33z"/>
		</g>
	</g>
</g>
</svg>
